<svg width="139" height="259" viewBox="0 0 139 259" fill="none" xmlns="http://www.w3.org/2000/svg">
<g clip-path="url(#clip0_429_2929)">
<path d="M75.8516 245.59L75.9516 236.99L92.0516 237.54L91.4116 245.1L75.8516 245.59Z" fill="#F0D246" stroke="#524740" stroke-width="1.42" stroke-linecap="round" stroke-linejoin="round"/>
<path d="M63.6922 245.59L63.5922 236.99L47.4922 237.54L48.1322 245.1L63.6922 245.59Z" fill="#F0D246" stroke="#524740" stroke-width="1.42" stroke-linecap="round" stroke-linejoin="round"/>
<path d="M28.4206 172.72C28.4206 172.72 35.1206 209.74 39.9506 225.55C44.7806 241.36 46.0506 239.52 51.9006 240.04C57.7506 240.57 65.3806 240.04 65.3806 235.3C65.3806 230.56 61.5606 197.88 68.4306 197.88H70.4606C77.3306 197.88 73.5106 230.55 73.5106 235.3C73.5106 240.04 81.1406 240.57 86.9906 240.04C92.8406 239.51 94.1106 241.36 98.9406 225.55C103.771 209.74 110.541 173.11 110.541 173.11L28.3906 172.71L28.4206 172.72Z" fill="#333333" stroke="#524740" stroke-width="1.39" stroke-linecap="round" stroke-linejoin="round"/>
<path d="M76.6225 243.15H91.9025C94.9725 243.15 97.4725 245.64 97.4725 248.72V257.7H71.0625V248.72C71.0625 245.65 73.5525 243.15 76.6325 243.15H76.6225Z" fill="#333333" stroke="#524740" stroke-width="1.46" stroke-linecap="round" stroke-linejoin="round"/>
<path d="M48.2319 243.15H63.5119C66.5819 243.15 69.0819 245.64 69.0819 248.72V257.7H42.6719V248.72C42.6719 245.65 45.1619 243.15 48.2419 243.15H48.2319Z" fill="#333333" stroke="#524740" stroke-width="1.46" stroke-linecap="round" stroke-linejoin="round"/>
<path d="M12.2693 175.47C12.2693 175.47 11.0693 177.47 7.72934 180.53C4.38934 183.59 -1.46066 187.35 1.40934 191.3C3.62934 194.37 6.79934 190.38 6.79934 190.38C6.79934 190.38 2.26934 201.43 9.01934 205.23C17.6193 210.07 28.4293 205.07 28.0593 193.46C27.6893 181.85 27.7493 176.33 23.3393 175.25C18.9293 174.16 13.2693 173.2 12.2793 175.47H12.2693Z" fill="white" stroke="#524740" stroke-width="1.28" stroke-linecap="round" stroke-linejoin="round"/>
<path d="M33.1887 111.37C33.1887 111.37 20.2487 123.92 11.7787 148.52C3.31871 173.11 5.65871 178.94 12.8787 181.39C20.0987 183.84 28.7187 186.15 29.0287 178.06C29.3387 169.96 32.2987 144.32 37.0687 133.67C43.3487 119.67 44.9487 113.07 40.1587 109.86C37.6487 108.18 35.0287 109.66 33.1787 111.37H33.1887Z" fill="#F0D246" stroke="#524740" stroke-width="1.42" stroke-linecap="round" stroke-linejoin="round"/>
<path d="M126.709 175.469C126.709 175.469 127.909 177.469 131.249 180.529C134.589 183.589 140.439 187.349 137.569 191.299C135.349 194.369 132.179 190.379 132.179 190.379C132.179 190.379 136.709 201.429 129.959 205.229C121.359 210.069 110.549 205.069 110.919 193.459C111.289 181.859 111.229 176.329 115.639 175.249C120.049 174.169 125.709 173.199 126.699 175.469H126.709Z" fill="white" stroke="#524740" stroke-width="1.28" stroke-linecap="round" stroke-linejoin="round"/>
<path d="M105.788 111.37C105.788 111.37 118.728 123.92 127.198 148.52C135.658 173.11 133.318 178.94 126.098 181.39C118.878 183.84 110.258 186.15 109.948 178.06C109.638 169.96 106.678 144.32 101.908 133.67C95.6279 119.67 94.0279 113.07 98.8179 109.86C101.328 108.18 103.948 109.66 105.798 111.37H105.788Z" fill="#F0D246" stroke="#524740" stroke-width="1.42" stroke-linecap="round" stroke-linejoin="round"/>
<path d="M112.869 166.6C112.839 189.39 92.9594 189.31 69.0094 188.93C45.0594 188.55 26.0794 190.05 26.1094 165.22C26.1494 137 46.6294 96.7701 70.5894 97.1501C94.5494 97.5301 112.909 138.39 112.869 166.61V166.6Z" fill="white" stroke="#524740" stroke-width="1.35" stroke-miterlimit="10"/>
<path d="M48.6286 153.571L45.8789 153.526L45.8348 156.276L48.5844 156.32L48.6286 153.571Z" fill="#E9AA30"/>
<path d="M59.8519 134.77L59.6719 146.26L68.4419 150.37L77.3519 146.54L77.5319 135.05L68.7619 130.93L59.8519 134.77Z" fill="#2F322E"/>
<path d="M49.8306 155.43L49.8006 157.57L51.7806 157.6C52.4506 157.61 52.9906 158.04 52.9806 158.69C52.9706 159.45 52.4106 160.05 51.7406 160.04L49.7606 160.01L49.8006 157.57L47.0506 157.53L46.8906 167.3H47.2006L52.2406 167.39C54.2606 167.42 55.9206 166.11 55.9606 164.09C55.9806 162.7 55.0706 161.61 53.8406 161.06C53.8406 160.99 53.8406 160.99 53.8406 160.92C54.7906 160.52 55.4206 159.77 55.4306 158.58C55.4606 156.6 53.8406 155.5 51.8206 155.47L49.8406 155.44L49.8306 155.43ZM51.9706 164.93L49.6806 164.89L49.7206 162.14L51.7006 162.17C52.6206 162.18 53.5206 162.81 53.5106 163.73C53.5006 164.65 52.6406 164.94 51.9606 164.93H51.9706Z" fill="#2F322E"/>
<path d="M63.2594 155.639L61.4294 155.609H60.8194L56.3594 167.429L59.4094 167.479L60.2794 164.749L64.1294 164.809L64.9094 167.569L67.9594 167.619L63.8794 155.649H63.2694L63.2594 155.639ZM61.0494 162.319L62.2994 158.369L63.4294 162.359L61.0494 162.319Z" fill="#2F322E"/>
<path d="M76.6916 167.149L74.2516 167.109L71.9716 160.829L71.8216 160.859L71.8816 161.589C72.0616 163.619 72.1316 165.649 72.1016 167.679L69.3516 167.639L69.5416 155.739H70.1516L71.9816 155.779H72.5916L75.5116 163.819L78.6916 155.889H79.3016L81.1316 155.929H81.7416L81.5516 167.839L78.8016 167.799C78.8316 165.769 78.9716 163.739 79.2116 161.719L79.3016 160.989L79.1516 160.959L76.6716 167.159L76.6916 167.149Z" fill="#2F322E"/>
<path d="M88.6802 156.049L86.9702 156.02L84.3502 155.979L84.1602 167.88L86.9102 167.919L86.9702 163.969C86.9702 163.969 87.0202 163.929 87.0602 163.899C89.5202 164.189 93.0702 164.7 93.1402 159.96C93.1902 157.1 90.9002 156.079 88.6802 156.049ZM87.0002 161.859L87.0602 158.219L88.1602 158.24C89.2902 158.26 90.7201 158.59 90.7001 159.96C90.6601 162.48 88.3402 162.079 87.0102 161.859H87.0002Z" fill="#2F322E"/>
<path d="M68.6295 138.569L76.0995 135.349L68.7395 131.899L61.2695 135.119L68.6295 138.569Z" fill="#E9AA30"/>
<path d="M69.0602 139.35L68.9102 149.21L76.4702 145.95L76.6301 136.09L69.0602 139.35Z" fill="white"/>
<path d="M68.1825 139.34L60.7225 135.84L60.5625 145.7L68.0225 149.2L68.1825 139.34Z" fill="white"/>
<path d="M134.638 23.7197H4.32812V116.14H134.638V23.7197Z" fill="white" stroke="#524740" stroke-width="1.42" stroke-linecap="round" stroke-linejoin="round"/>
<path d="M117.758 0.709961H21.2181L4.32812 23.72H134.648L117.758 0.709961Z" fill="#F0D246" stroke="#524740" stroke-width="1.42" stroke-linecap="round" stroke-linejoin="round"/>
<path d="M79.1808 72.3203C77.2808 74.7003 74.1608 76.7803 69.2208 76.7103C64.5608 76.6403 61.6208 74.8703 59.8008 72.7403" stroke="#524740" stroke-width="1.42" stroke-linecap="round" stroke-linejoin="round"/>
<path d="M98.0816 71.5899C102.489 71.5899 106.062 68.0171 106.062 63.6099C106.062 59.2027 102.489 55.6299 98.0816 55.6299C93.6743 55.6299 90.1016 59.2027 90.1016 63.6099C90.1016 68.0171 93.6743 71.5899 98.0816 71.5899Z" fill="#524740"/>
<path d="M40.9019 71.5899C45.3091 71.5899 48.8819 68.0171 48.8819 63.6099C48.8819 59.2027 45.3091 55.6299 40.9019 55.6299C36.4946 55.6299 32.9219 59.2027 32.9219 63.6099C32.9219 68.0171 36.4946 71.5899 40.9019 71.5899Z" fill="#524740"/>
</g>
<defs>
<clipPath id="clip0_429_2929">
<rect width="138.98" height="258.43" fill="white"/>
</clipPath>
</defs>
</svg>
