<svg width="546" height="135" viewBox="0 0 546 135" fill="none" xmlns="http://www.w3.org/2000/svg">
<g filter="url(#filter0_d_433_3045)">
<path d="M513.349 16.1807H18.2405C10.1492 16.1807 3.58984 22.74 3.58984 30.8314V102.208C3.58984 110.3 10.1492 116.859 18.2405 116.859H513.349C521.44 116.859 528 110.3 528 102.208V30.8314C528 22.74 521.44 16.1807 513.349 16.1807Z" fill="white"/>
<path d="M513.349 16.1807H18.2405C10.1492 16.1807 3.58984 22.74 3.58984 30.8314V102.208C3.58984 110.3 10.1492 116.859 18.2405 116.859H513.349C521.44 116.859 528 110.3 528 102.208V30.8314C528 22.74 521.44 16.1807 513.349 16.1807Z" stroke="#524740" stroke-linecap="round" stroke-linejoin="round"/>
</g>
<path d="M102.364 1H28.3858C20.3588 1 13.8516 7.50719 13.8516 15.5342V17.0355C13.8516 25.0626 20.3588 31.5698 28.3858 31.5698H102.364C110.391 31.5698 116.898 25.0626 116.898 17.0355V15.5342C116.898 7.50719 110.391 1 102.364 1Z" fill="#FDC335" stroke="#534741" stroke-width="0.92" stroke-miterlimit="10"/>
<path d="M30.2617 8.59766H31.3877V14.1758L36.8364 8.59766H38.3377L33.9632 12.998L38.6613 19.7669H37.1988L33.0702 13.8652L31.3877 15.5477V19.7798H30.2617V8.59766Z" fill="#534741"/>
<path d="M46.1522 15.6507H40.354C40.354 16.7379 40.6128 17.5791 41.1176 18.1486C41.6223 18.718 42.2953 19.0157 43.1237 19.0157C43.7449 19.0157 44.3532 18.8216 44.9356 18.4204C45.0909 18.3168 45.2721 18.1874 45.4533 18.0321C45.6345 17.8768 45.8286 17.6956 46.0357 17.4885V18.731C45.8027 18.8992 45.5956 19.0545 45.4015 19.184C45.2074 19.3134 45.0262 19.4169 44.8579 19.5075C44.2626 19.8181 43.6672 19.9734 43.0589 19.9734C42.0236 19.9734 41.1435 19.624 40.4187 18.8992C39.6422 18.1486 39.2539 17.1779 39.2539 15.9872C39.2539 14.8612 39.6033 13.9164 40.3022 13.1528C41.0141 12.3892 41.8941 12.001 42.9425 12.001C43.9908 12.001 44.7673 12.3763 45.3627 13.114C45.8933 13.787 46.1651 14.6412 46.1651 15.6766L46.1522 15.6507ZM40.4964 14.7836H44.9485C44.832 14.1365 44.5861 13.6576 44.2108 13.334C43.8355 13.0105 43.3825 12.8552 42.8519 12.8552C42.2695 12.8552 41.7647 13.0364 41.3635 13.4117C40.9882 13.7482 40.6905 14.2141 40.4964 14.7836Z" fill="#534741"/>
<path d="M47.0352 12.1445H48.1741L50.7884 18.5769L53.0275 12.1445H54.1534L50.9826 20.6476C50.7496 21.2559 50.4649 21.683 50.1025 21.9419C49.7789 22.1619 49.3907 22.2654 48.9506 22.2654C48.7177 22.2654 48.5365 22.2525 48.3812 22.2137C48.2259 22.1748 48.0835 22.136 47.9411 22.0842V21.1006C48.0705 21.1653 48.2258 21.23 48.3941 21.2689C48.5623 21.3206 48.7047 21.3465 48.8471 21.3465C49.1836 21.3465 49.4424 21.2559 49.6236 21.0877C49.8048 20.9194 49.9731 20.6476 50.1154 20.2723L50.2837 19.6899L47.0481 12.1445H47.0352Z" fill="#534741"/>
<path d="M68.2602 9.49096V10.9276C67.9108 10.5911 67.5096 10.2934 67.0436 10.0475C66.3318 9.67215 65.62 9.47802 64.8952 9.47802C63.7822 9.47802 62.8374 9.94394 62.035 10.8887C61.6337 11.3547 61.3361 11.8594 61.1419 12.4159C60.9478 12.9724 60.8443 13.5548 60.8443 14.1761C60.8443 15.4574 61.2455 16.5575 62.035 17.4764C62.8244 18.3953 63.7822 18.8612 64.9081 18.8612C65.4388 18.8612 65.9824 18.7577 66.5389 18.5376C67.0954 18.3176 67.6649 17.9941 68.2343 17.554V18.9388C66.966 19.6248 65.8141 19.9613 64.7787 19.9613C63.4457 19.9613 62.2679 19.4436 61.2584 18.4082C60.1713 17.2952 59.6406 15.9103 59.6406 14.2408C59.6406 12.5712 60.1454 11.2511 61.1549 10.1251C62.1773 8.99915 63.4457 8.42969 64.9599 8.42969C65.5423 8.42969 66.1118 8.52028 66.6554 8.70148C67.1989 8.88267 67.7296 9.14152 68.2473 9.5039L68.2602 9.49096Z" fill="#534741"/>
<path d="M73.0736 19.949C72.09 19.949 71.2358 19.5996 70.4981 18.8748C69.7086 18.1242 69.3203 17.1535 69.3203 15.9628C69.3203 14.8368 69.6698 13.892 70.3557 13.1284C71.0675 12.3648 71.9476 11.9766 72.9959 11.9766C74.0443 11.9766 74.8984 12.3648 75.6103 13.1284C76.3092 13.892 76.6586 14.8239 76.6586 15.9499C76.6586 17.1276 76.2833 18.0983 75.5197 18.8748C74.8208 19.5996 74.0054 19.962 73.0736 19.962V19.949ZM72.97 19.0042C73.656 19.0042 74.2643 18.7195 74.7949 18.15C75.3126 17.5676 75.5585 16.8299 75.5585 15.9369C75.5585 15.0439 75.2867 14.2674 74.7302 13.6849C74.2254 13.1543 73.643 12.8825 72.983 12.8825C72.3229 12.8825 71.7146 13.1543 71.2358 13.7108C70.7051 14.3191 70.4334 15.0568 70.4334 15.9499C70.4334 16.8429 70.6922 17.5935 71.2099 18.1889C71.6888 18.7325 72.2841 19.0042 72.9571 19.0042H72.97Z" fill="#534741"/>
<path d="M77.8086 8.59766H78.831V19.7539H77.8086V8.59766Z" fill="#534741"/>
<path d="M83.7533 19.949C82.7697 19.949 81.9155 19.5996 81.1778 18.8748C80.3883 18.1242 80 17.1535 80 15.9628C80 14.8368 80.3494 13.892 81.0354 13.1284C81.7472 12.3648 82.6273 11.9766 83.6756 11.9766C84.724 11.9766 85.5781 12.3648 86.29 13.1284C86.9889 13.892 87.3383 14.8239 87.3383 15.9499C87.3383 17.1276 86.963 18.0983 86.1994 18.8748C85.5005 19.5996 84.6851 19.962 83.7533 19.962V19.949ZM83.6497 19.0042C84.3357 19.0042 84.944 18.7195 85.4746 18.15C85.9923 17.5676 86.2382 16.8299 86.2382 15.9369C86.2382 15.0439 85.9664 14.2674 85.4099 13.6849C84.9051 13.1543 84.3227 12.8825 83.6627 12.8825C83.0026 12.8825 82.3943 13.1543 81.9155 13.7108C81.3848 14.3191 81.113 15.0568 81.113 15.9499C81.113 16.8429 81.3719 17.5935 81.8896 18.1889C82.3685 18.7325 82.9638 19.0042 83.6368 19.0042H83.6497Z" fill="#534741"/>
<path d="M92.578 12.1441V13.1665C92.4745 13.1277 92.3839 13.1018 92.3192 13.0759C92.2545 13.05 92.1898 13.0371 92.151 13.0241C92.1121 13.0112 92.0474 13.0112 91.9956 12.9983C91.9439 12.9983 91.8792 12.9983 91.7886 12.9983C91.0897 12.9983 90.5202 13.3348 90.0802 14.0078C89.7049 14.629 89.5107 15.3149 89.5107 16.0656V19.7541H88.4883V12.1441H89.4331L89.4978 13.4512C89.7307 13.05 89.9637 12.7653 90.1708 12.597C90.5979 12.2476 91.1156 12.0664 91.7109 12.0664C91.8662 12.0664 92.0215 12.0664 92.1639 12.0793C92.3063 12.0793 92.4357 12.1052 92.578 12.1311V12.1441Z" fill="#534741"/>
<path d="M68.1802 91.0153V89.9022C68.1802 89.3846 68.2837 88.9963 68.4778 88.7245C68.7237 88.3492 69.1379 88.168 69.7332 88.168C69.7979 88.168 69.8627 88.168 69.9015 88.168C69.9533 88.168 70.005 88.168 70.0568 88.1809C70.1086 88.1809 70.1733 88.2068 70.2509 88.2197C70.3286 88.2456 70.4062 88.2715 70.5098 88.2974V89.0092C70.5098 89.0092 70.3803 88.9445 70.1992 88.9057C70.1215 88.8927 70.0438 88.8798 69.9921 88.8798C69.9274 88.8798 69.8756 88.8798 69.8368 88.8798C69.5262 88.8798 69.3061 88.9704 69.1767 89.1386C69.0343 89.3069 68.9696 89.5657 68.9696 89.8893V91.0023H70.5098V91.7142H68.9696V96.8393H68.1802V91.7142H67.1836V91.0023H68.1802V91.0153Z" fill="#534741"/>
<path d="M74.5729 96.9955C73.654 96.9955 72.9163 96.6202 72.3727 95.8695C71.8292 95.1318 71.5703 94.0964 71.5703 92.7893C71.5703 91.4821 71.855 90.4338 72.4374 89.6702C72.981 88.9454 73.6928 88.583 74.56 88.583C75.4789 88.583 76.1907 88.9713 76.7084 89.7478C77.252 90.5114 77.5108 91.5209 77.5108 92.7763C77.5108 94.0317 77.2261 95.1059 76.6696 95.8566C76.1131 96.6072 75.4142 96.9826 74.5729 96.9826V96.9955ZM74.4823 96.2707C75.2589 96.2707 75.8413 95.9084 76.2295 95.1707C76.5272 94.5494 76.6696 93.7599 76.6696 92.7763C76.6696 91.7409 76.5013 90.9126 76.1519 90.2914C75.7636 89.6443 75.233 89.3207 74.547 89.3207C73.8223 89.3207 73.2787 89.6702 72.9034 90.3561C72.5798 90.9644 72.4116 91.7798 72.4116 92.8152C72.4116 93.8505 72.5798 94.64 72.9034 95.2483C73.2787 95.9213 73.7964 96.2578 74.4823 96.2578V96.2707Z" fill="#534741"/>
<path d="M82.7503 88.3105H83.5915V96.8395H82.8409L82.7632 95.8947C82.6597 96.0371 82.5561 96.1665 82.4526 96.283C82.349 96.3995 82.2455 96.4901 82.142 96.5678C81.7796 96.8395 81.3525 96.9819 80.8736 96.9819C80.123 96.9819 79.5017 96.6972 79.0099 96.1148C78.5181 95.5324 78.2852 94.8335 78.2852 94.0052C78.2852 93.1769 78.544 92.4133 79.0617 91.8179C79.5794 91.1967 80.2394 90.899 81.016 90.899C81.3395 90.899 81.6502 90.9508 81.9349 91.0673C82.0384 91.1061 82.1549 91.1708 82.2843 91.2355C82.4138 91.3132 82.5691 91.3908 82.7373 91.4944V88.3105H82.7503ZM82.7503 94.031V92.3486C82.4138 92.0509 82.1161 91.8567 81.8572 91.7532C81.5984 91.6497 81.3525 91.5979 81.1195 91.5979C80.5242 91.5979 80.0453 91.8438 79.67 92.3486C79.3205 92.8145 79.1523 93.371 79.1523 93.9922C79.1523 94.6652 79.3464 95.2088 79.7347 95.6618C80.0841 96.063 80.5112 96.2701 81.0031 96.2701C81.4949 96.2701 81.8961 96.063 82.2455 95.6359C82.595 95.2088 82.7632 94.6782 82.7632 94.031H82.7503Z" fill="#534741"/>
<path d="M85.9355 96.1137H90.763V96.8385H85.1719V96.4891C85.1719 95.5701 85.5601 94.7418 86.3496 94.0041C86.725 93.7453 87.0873 93.4864 87.4497 93.2146C87.8121 92.9558 88.1745 92.684 88.5498 92.4252C89.3393 91.8557 89.7405 91.2862 89.7405 90.7168C89.7405 90.2638 89.5593 89.9144 89.1969 89.6555C89.0287 89.5261 88.8475 89.4355 88.6534 89.3837C88.4592 89.332 88.2392 89.2931 88.0062 89.2931C87.6697 89.2931 87.3332 89.332 87.0226 89.4225C86.5567 89.5649 86.0649 89.8238 85.5601 90.1732V89.2802C86.0649 89.0213 86.5049 88.8401 86.8932 88.7366C87.2815 88.6331 87.6439 88.5684 87.9933 88.5684C88.731 88.5684 89.3393 88.7625 89.8441 89.1378C90.3359 89.5131 90.5818 90.0179 90.5818 90.678C90.5818 91.3898 90.2064 92.0628 89.4428 92.697C89.0805 92.9558 88.7181 93.2017 88.3557 93.4476C87.9933 93.6935 87.6309 93.9394 87.2685 94.1983C86.4532 94.8066 86.0002 95.4537 85.9225 96.1267L85.9355 96.1137Z" fill="#534741"/>
<path d="M95.993 88.7236H96.7825V93.7582H98.258V94.483H96.7825V96.8385H95.993V94.483H92.0586V93.7582L95.993 88.7236ZM95.993 93.7582V89.7461L92.8869 93.7582H95.993Z" fill="#534741"/>
<path d="M105.156 89.1007V90.0196C105.027 89.9161 104.897 89.8384 104.781 89.7608C104.664 89.6831 104.535 89.6313 104.405 89.5666C104.211 89.476 104.017 89.4113 103.823 89.3596C103.629 89.3207 103.448 89.2948 103.253 89.2948C103.124 89.2948 102.995 89.2948 102.852 89.3337C102.723 89.3595 102.58 89.3984 102.451 89.4502C101.946 89.6572 101.532 90.0067 101.222 90.4726C100.781 91.1456 100.574 92.0127 100.574 93.1128C100.911 92.7763 101.234 92.5045 101.519 92.3233C102.037 92.0127 102.58 91.8574 103.163 91.8574C103.875 91.8574 104.47 92.0645 104.949 92.4786C105.467 92.9316 105.725 93.5399 105.725 94.3035C105.725 95.0671 105.454 95.7272 104.91 96.2319C104.366 96.7367 103.706 96.9826 102.93 96.9826C102.115 96.9826 101.403 96.672 100.807 96.0637C100.096 95.3389 99.7461 94.3294 99.7461 93.0093C99.7461 91.6892 100.083 90.6279 100.769 89.8125C101.442 88.9972 102.283 88.583 103.292 88.583C103.668 88.583 104.017 88.6348 104.354 88.7513C104.444 88.7901 104.561 88.8289 104.703 88.8807C104.832 88.9325 104.988 89.0101 105.169 89.0878L105.156 89.1007ZM100.665 93.9541C100.769 94.5753 101.014 95.1059 101.403 95.546C101.843 96.0248 102.36 96.2707 102.969 96.2707C103.512 96.2707 103.965 96.0896 104.315 95.7401C104.69 95.3907 104.871 94.9377 104.871 94.3812C104.871 93.8635 104.69 93.4364 104.341 93.0999C103.991 92.7763 103.577 92.6081 103.098 92.6081C102.529 92.6081 101.985 92.7893 101.48 93.1646C101.338 93.2681 101.196 93.3975 101.053 93.527C100.911 93.6564 100.781 93.8117 100.665 93.967V93.9541Z" fill="#534741"/>
<path d="M84.2807 77.1913C93.9303 77.1913 101.753 69.3688 101.753 59.7192C101.753 50.0696 93.9303 42.2471 84.2807 42.2471C74.6311 42.2471 66.8086 50.0696 66.8086 59.7192C66.8086 69.3688 74.6311 77.1913 84.2807 77.1913Z" fill="#F0D246" stroke="#524740" stroke-width="1.05" stroke-linecap="round" stroke-linejoin="round"/>
<path d="M152.359 88.7363H157.239V89.4611H153.162V92.2437C153.265 92.166 153.382 92.1013 153.511 92.0496C153.641 91.9978 153.757 91.946 153.887 91.8943C154.288 91.7519 154.715 91.6742 155.155 91.6742C155.983 91.6742 156.643 91.9201 157.135 92.4119C157.588 92.8649 157.821 93.4473 157.821 94.1592C157.821 94.9616 157.523 95.6346 156.915 96.1782C156.307 96.7217 155.582 96.9935 154.728 96.9935C154.327 96.9935 153.887 96.9159 153.434 96.7735C153.33 96.7347 153.188 96.6829 153.019 96.6182C152.838 96.5535 152.631 96.4629 152.372 96.3464V95.4275C152.722 95.6475 153.045 95.8287 153.369 95.9581C153.602 96.0617 153.835 96.1393 154.068 96.1911C154.301 96.2429 154.521 96.2688 154.741 96.2688C155.323 96.2688 155.841 96.0876 156.268 95.7252C156.734 95.3369 156.98 94.8451 156.98 94.2498C156.98 93.7321 156.812 93.305 156.462 92.9685C156.1 92.6061 155.608 92.4249 154.974 92.4249C154.65 92.4249 154.327 92.4767 154.029 92.5673C153.731 92.6578 153.447 92.8132 153.175 93.0073H152.385V88.7622L152.359 88.7363Z" fill="#534741"/>
<path d="M160.58 96.1137H165.407V96.8385H159.816V96.4891C159.816 95.5701 160.205 94.7418 160.994 94.0041C161.369 93.7453 161.732 93.4864 162.094 93.2146C162.457 92.9558 162.819 92.684 163.194 92.4252C163.984 91.8557 164.385 91.2862 164.385 90.7168C164.385 90.2638 164.204 89.9144 163.841 89.6555C163.673 89.5261 163.492 89.4355 163.298 89.3837C163.104 89.332 162.884 89.2931 162.651 89.2931C162.314 89.2931 161.978 89.332 161.667 89.4225C161.201 89.5649 160.709 89.8238 160.205 90.1732V89.2802C160.709 89.0213 161.149 88.8401 161.538 88.7366C161.926 88.6331 162.288 88.5684 162.638 88.5684C163.376 88.5684 163.984 88.7625 164.489 89.1378C164.98 89.5131 165.226 90.0179 165.226 90.678C165.226 91.3898 164.851 92.0628 164.087 92.697C163.725 92.9558 163.363 93.2017 163 93.4476C162.638 93.6935 162.275 93.9394 161.913 94.1983C161.098 94.8066 160.645 95.4537 160.567 96.1267L160.58 96.1137Z" fill="#534741"/>
<path d="M170.63 88.7236H171.419V93.7582H172.895V94.483H171.419V96.8385H170.63V94.483H166.695V93.7582L170.63 88.7236ZM170.63 93.7582V89.7461L167.524 93.7582H170.63Z" fill="#534741"/>
<path d="M174.517 88.7239H179.966V89.3451L176.445 96.8387H175.591L179.06 89.4357H174.504V88.7109L174.517 88.7239Z" fill="#534741"/>
<path d="M185.438 88.7236H186.228V93.7582H187.703V94.483H186.228V96.8385H185.438V94.483H181.504V93.7582L185.438 88.7236ZM185.438 93.7582V89.7461L182.332 93.7582H185.438Z" fill="#534741"/>
<path d="M192.104 96.9936C191.185 96.9936 190.448 96.6182 189.904 95.8676C189.36 95.1299 189.102 94.0945 189.102 92.7873C189.102 91.4801 189.386 90.4318 189.969 89.6682C190.512 88.9434 191.224 88.5811 192.091 88.5811C193.01 88.5811 193.722 88.9693 194.24 89.7459C194.783 90.5095 195.042 91.519 195.042 92.7744C195.042 94.0298 194.757 95.104 194.201 95.8546C193.644 96.6053 192.945 96.9806 192.104 96.9806V96.9936ZM192.014 96.2688C192.79 96.2688 193.373 95.9064 193.761 95.1687C194.058 94.5475 194.201 93.758 194.201 92.7744C194.201 91.739 194.033 90.9107 193.683 90.2894C193.295 89.6423 192.764 89.3188 192.078 89.3188C191.354 89.3188 190.81 89.6682 190.435 90.3542C190.111 90.9624 189.943 91.7778 189.943 92.8132C189.943 93.8486 190.111 94.6381 190.435 95.2463C190.81 95.9194 191.328 96.2558 192.014 96.2558V96.2688Z" fill="#534741"/>
<path d="M171.757 77.1923C181.407 77.1923 189.229 69.3698 189.229 59.7202C189.229 50.0706 181.407 42.248 171.757 42.248C162.108 42.248 154.285 50.0706 154.285 59.7202C154.285 69.3698 162.108 77.1923 171.757 77.1923Z" fill="#524740" stroke="#524740" stroke-width="1.05" stroke-miterlimit="10"/>
<path d="M251.938 91.0153V89.9022C251.938 89.3846 252.042 88.9963 252.236 88.7245C252.482 88.3492 252.896 88.168 253.491 88.168C253.556 88.168 253.62 88.168 253.659 88.168C253.711 88.168 253.763 88.168 253.815 88.1809C253.866 88.1809 253.931 88.2068 254.009 88.2197C254.086 88.2456 254.164 88.2715 254.268 88.2974V89.0092C254.268 89.0092 254.138 88.9445 253.957 88.9057C253.879 88.8927 253.802 88.8798 253.75 88.8798C253.685 88.8798 253.633 88.8798 253.595 88.8798C253.284 88.8798 253.064 88.9704 252.935 89.1386C252.792 89.3069 252.727 89.5657 252.727 89.8893V91.0023H254.268V91.7142H252.727V96.8393H251.938V91.7142H250.941V91.0023H251.938V91.0153Z" fill="#534741"/>
<path d="M255.637 91.0153V89.9022C255.637 89.3846 255.741 88.9963 255.935 88.7245C256.181 88.3492 256.595 88.168 257.19 88.168C257.255 88.168 257.32 88.168 257.359 88.168C257.41 88.168 257.462 88.168 257.514 88.1809C257.566 88.1809 257.63 88.2068 257.708 88.2197C257.786 88.2456 257.863 88.2715 257.967 88.2974V89.0092C257.967 89.0092 257.837 88.9445 257.656 88.9057C257.579 88.8927 257.501 88.8798 257.449 88.8798C257.384 88.8798 257.333 88.8798 257.294 88.8798C256.983 88.8798 256.763 88.9704 256.634 89.1386C256.491 89.3069 256.427 89.5657 256.427 89.8893V91.0023H257.967V91.7142H256.427V96.8393H255.637V91.7142H254.641V91.0023H255.637V91.0153Z" fill="#534741"/>
<path d="M259.34 91.0153V89.9022C259.34 89.3846 259.444 88.9963 259.638 88.7245C259.884 88.3492 260.298 88.168 260.893 88.168C260.958 88.168 261.023 88.168 261.062 88.168C261.113 88.168 261.165 88.168 261.217 88.1809C261.269 88.1809 261.333 88.2068 261.411 88.2197C261.489 88.2456 261.566 88.2715 261.67 88.2974V89.0092C261.67 89.0092 261.541 88.9445 261.359 88.9057C261.282 88.8927 261.204 88.8798 261.152 88.8798C261.088 88.8798 261.036 88.8798 260.997 88.8798C260.686 88.8798 260.466 88.9704 260.337 89.1386C260.194 89.3069 260.13 89.5657 260.13 89.8893V91.0023H261.67V91.7142H260.13V96.8393H259.34V91.7142H258.344V91.0023H259.34V91.0153Z" fill="#534741"/>
<path d="M263.04 91.0153V89.9022C263.04 89.3846 263.143 88.9963 263.337 88.7245C263.583 88.3492 263.997 88.168 264.593 88.168C264.657 88.168 264.722 88.168 264.761 88.168C264.813 88.168 264.864 88.168 264.916 88.1809C264.968 88.1809 265.033 88.2068 265.11 88.2197C265.188 88.2456 265.266 88.2715 265.369 88.2974V89.0092C265.369 89.0092 265.24 88.9445 265.059 88.9057C264.981 88.8927 264.903 88.8798 264.851 88.8798C264.787 88.8798 264.735 88.8798 264.696 88.8798C264.386 88.8798 264.165 88.9704 264.036 89.1386C263.894 89.3069 263.829 89.5657 263.829 89.8893V91.0023H265.369V91.7142H263.829V96.8393H263.04V91.7142H262.043V91.0023H263.04V91.0153Z" fill="#534741"/>
<path d="M266.747 91.0153V89.9022C266.747 89.3846 266.85 88.9963 267.044 88.7245C267.29 88.3492 267.704 88.168 268.3 88.168C268.364 88.168 268.429 88.168 268.468 88.168C268.52 88.168 268.571 88.168 268.623 88.1809C268.675 88.1809 268.74 88.2068 268.817 88.2197C268.895 88.2456 268.973 88.2715 269.076 88.2974V89.0092C269.076 89.0092 268.947 88.9445 268.766 88.9057C268.688 88.8927 268.61 88.8798 268.558 88.8798C268.494 88.8798 268.442 88.8798 268.403 88.8798C268.093 88.8798 267.873 88.9704 267.743 89.1386C267.601 89.3069 267.536 89.5657 267.536 89.8893V91.0023H269.076V91.7142H267.536V96.8393H266.747V91.7142H265.75V91.0023H266.747V91.0153Z" fill="#534741"/>
<path d="M270.446 91.0153V89.9022C270.446 89.3846 270.549 88.9963 270.743 88.7245C270.989 88.3492 271.404 88.168 271.999 88.168C272.064 88.168 272.128 88.168 272.167 88.168C272.219 88.168 272.271 88.168 272.322 88.1809C272.374 88.1809 272.439 88.2068 272.517 88.2197C272.594 88.2456 272.672 88.2715 272.775 88.2974V89.0092C272.775 89.0092 272.646 88.9445 272.465 88.9057C272.387 88.8927 272.309 88.8798 272.258 88.8798C272.193 88.8798 272.141 88.8798 272.102 88.8798C271.792 88.8798 271.572 88.9704 271.442 89.1386C271.3 89.3069 271.235 89.5657 271.235 89.8893V91.0023H272.775V91.7142H271.235V96.8393H270.446V91.7142H269.449V91.0023H270.446V91.0153Z" fill="#534741"/>
<path d="M260.828 77.1923C270.477 77.1923 278.3 69.3698 278.3 59.7202C278.3 50.0706 270.477 42.248 260.828 42.248C251.178 42.248 243.355 50.0706 243.355 59.7202C243.355 69.3698 251.178 77.1923 260.828 77.1923Z" fill="white" stroke="#524740" stroke-width="1.05" stroke-linecap="round" stroke-linejoin="round"/>
<path d="M326.89 96.2822V95.3633C327.266 95.648 327.654 95.8681 328.055 96.0234C328.456 96.1787 328.871 96.2563 329.311 96.2563C329.932 96.2563 330.437 96.0751 330.825 95.7128C331.226 95.3374 331.433 94.9103 331.433 94.4315C331.433 93.9526 331.213 93.5384 330.786 93.2796C330.411 93.0466 329.919 92.9302 329.298 92.9302H327.641V92.2572H328.767C329.492 92.2572 330.061 92.1277 330.475 91.8689C330.89 91.61 331.097 91.2347 331.097 90.7558C331.097 90.3546 330.941 90.0181 330.631 89.7593C330.294 89.4746 329.854 89.3192 329.311 89.3192C329.091 89.3192 328.871 89.3451 328.663 89.384C328.443 89.4228 328.236 89.4875 328.029 89.5781C327.654 89.7334 327.266 89.9664 326.852 90.277V89.3451C327.085 89.2157 327.305 89.1122 327.499 89.0345C327.693 88.9439 327.887 88.8792 328.081 88.8145C328.508 88.6721 328.935 88.6074 329.388 88.6074C330.1 88.6074 330.695 88.7886 331.161 89.1639C331.64 89.5263 331.886 90.0311 331.886 90.6782C331.886 91.2218 331.705 91.6618 331.343 92.0112C331.123 92.2183 330.825 92.3995 330.45 92.5289C330.708 92.5678 330.941 92.6195 331.148 92.7101C331.355 92.7878 331.524 92.8913 331.679 93.0207C332.08 93.3572 332.274 93.8232 332.274 94.4315C332.274 95.1303 331.99 95.7386 331.42 96.2434C330.851 96.7481 330.139 97.007 329.285 97.007C328.819 97.007 328.34 96.9164 327.861 96.7481C327.745 96.7093 327.602 96.6575 327.447 96.5799C327.279 96.5022 327.097 96.4116 326.89 96.2952V96.2822Z" fill="#534741"/>
<path d="M334.293 96.2822V95.3633C334.668 95.648 335.056 95.8681 335.458 96.0234C335.859 96.1787 336.273 96.2563 336.713 96.2563C337.334 96.2563 337.839 96.0751 338.227 95.7128C338.628 95.3374 338.835 94.9103 338.835 94.4315C338.835 93.9526 338.615 93.5384 338.188 93.2796C337.813 93.0466 337.321 92.9302 336.7 92.9302H335.043V92.2572H336.169C336.894 92.2572 337.464 92.1277 337.878 91.8689C338.292 91.61 338.499 91.2347 338.499 90.7558C338.499 90.3546 338.344 90.0181 338.033 89.7593C337.697 89.4746 337.257 89.3192 336.713 89.3192C336.493 89.3192 336.273 89.3451 336.066 89.384C335.846 89.4228 335.639 89.4875 335.432 89.5781C335.056 89.7334 334.668 89.9664 334.254 90.277V89.3451C334.487 89.2157 334.707 89.1122 334.901 89.0345C335.095 88.9439 335.289 88.8792 335.483 88.8145C335.91 88.6721 336.338 88.6074 336.791 88.6074C337.502 88.6074 338.098 88.7886 338.564 89.1639C339.043 89.5263 339.288 90.0311 339.288 90.6782C339.288 91.2218 339.107 91.6618 338.745 92.0112C338.525 92.2183 338.227 92.3995 337.852 92.5289C338.111 92.5678 338.344 92.6195 338.551 92.7101C338.758 92.7878 338.926 92.8913 339.081 93.0207C339.483 93.3572 339.677 93.8232 339.677 94.4315C339.677 95.1303 339.392 95.7386 338.823 96.2434C338.253 96.7481 337.541 97.007 336.687 97.007C336.221 97.007 335.742 96.9164 335.263 96.7481C335.147 96.7093 335.005 96.6575 334.849 96.5799C334.681 96.5022 334.5 96.4116 334.293 96.2952V96.2822Z" fill="#534741"/>
<path d="M341.699 96.2822V95.3633C342.074 95.648 342.463 95.8681 342.864 96.0234C343.265 96.1787 343.679 96.2563 344.119 96.2563C344.74 96.2563 345.245 96.0751 345.633 95.7128C346.035 95.3374 346.242 94.9103 346.242 94.4315C346.242 93.9526 346.022 93.5384 345.595 93.2796C345.219 93.0466 344.727 92.9302 344.106 92.9302H342.45V92.2572H343.576C344.3 92.2572 344.87 92.1277 345.284 91.8689C345.698 91.61 345.905 91.2347 345.905 90.7558C345.905 90.3546 345.75 90.0181 345.439 89.7593C345.103 89.4746 344.663 89.3192 344.119 89.3192C343.899 89.3192 343.679 89.3451 343.472 89.384C343.252 89.4228 343.045 89.4875 342.838 89.5781C342.463 89.7334 342.074 89.9664 341.66 90.277V89.3451C341.893 89.2157 342.113 89.1122 342.307 89.0345C342.501 88.9439 342.696 88.8792 342.89 88.8145C343.317 88.6721 343.744 88.6074 344.197 88.6074C344.909 88.6074 345.504 88.7886 345.97 89.1639C346.449 89.5263 346.695 90.0311 346.695 90.6782C346.695 91.2218 346.514 91.6618 346.151 92.0112C345.931 92.2183 345.633 92.3995 345.258 92.5289C345.517 92.5678 345.75 92.6195 345.957 92.7101C346.164 92.7878 346.332 92.8913 346.488 93.0207C346.889 93.3572 347.083 93.8232 347.083 94.4315C347.083 95.1303 346.798 95.7386 346.229 96.2434C345.659 96.7481 344.948 97.007 344.093 97.007C343.627 97.007 343.149 96.9164 342.67 96.7481C342.553 96.7093 342.411 96.6575 342.255 96.5799C342.087 96.5022 341.906 96.4116 341.699 96.2952V96.2822Z" fill="#534741"/>
<path d="M349.101 96.2822V95.3633C349.477 95.648 349.865 95.8681 350.266 96.0234C350.667 96.1787 351.081 96.2563 351.522 96.2563C352.143 96.2563 352.647 96.0751 353.036 95.7128C353.437 95.3374 353.644 94.9103 353.644 94.4315C353.644 93.9526 353.424 93.5384 352.997 93.2796C352.622 93.0466 352.13 92.9302 351.509 92.9302H349.852V92.2572H350.978C351.703 92.2572 352.272 92.1277 352.686 91.8689C353.1 91.61 353.308 91.2347 353.308 90.7558C353.308 90.3546 353.152 90.0181 352.842 89.7593C352.505 89.4746 352.065 89.3192 351.522 89.3192C351.302 89.3192 351.081 89.3451 350.874 89.384C350.654 89.4228 350.447 89.4875 350.24 89.5781C349.865 89.7334 349.477 89.9664 349.062 90.277V89.3451C349.295 89.2157 349.515 89.1122 349.71 89.0345C349.904 88.9439 350.098 88.8792 350.292 88.8145C350.719 88.6721 351.146 88.6074 351.599 88.6074C352.311 88.6074 352.906 88.7886 353.372 89.1639C353.851 89.5263 354.097 90.0311 354.097 90.6782C354.097 91.2218 353.916 91.6618 353.553 92.0112C353.333 92.2183 353.036 92.3995 352.66 92.5289C352.919 92.5678 353.152 92.6195 353.359 92.7101C353.566 92.7878 353.735 92.8913 353.89 93.0207C354.291 93.3572 354.485 93.8232 354.485 94.4315C354.485 95.1303 354.201 95.7386 353.631 96.2434C353.062 96.7481 352.35 97.007 351.496 97.007C351.03 97.007 350.551 96.9164 350.072 96.7481C349.956 96.7093 349.813 96.6575 349.658 96.5799C349.49 96.5022 349.308 96.4116 349.101 96.2952V96.2822Z" fill="#534741"/>
<path d="M356.5 96.2822V95.3633C356.875 95.648 357.263 95.8681 357.665 96.0234C358.066 96.1787 358.48 96.2563 358.92 96.2563C359.541 96.2563 360.046 96.0751 360.434 95.7128C360.835 95.3374 361.042 94.9103 361.042 94.4315C361.042 93.9526 360.822 93.5384 360.395 93.2796C360.02 93.0466 359.528 92.9302 358.907 92.9302H357.25V92.2572H358.376C359.101 92.2572 359.671 92.1277 360.085 91.8689C360.499 91.61 360.706 91.2347 360.706 90.7558C360.706 90.3546 360.551 90.0181 360.24 89.7593C359.904 89.4746 359.464 89.3192 358.92 89.3192C358.7 89.3192 358.48 89.3451 358.273 89.384C358.053 89.4228 357.846 89.4875 357.639 89.5781C357.263 89.7334 356.875 89.9664 356.461 90.277V89.3451C356.694 89.2157 356.914 89.1122 357.108 89.0345C357.302 88.9439 357.496 88.8792 357.69 88.8145C358.118 88.6721 358.545 88.6074 358.998 88.6074C359.709 88.6074 360.305 88.7886 360.771 89.1639C361.25 89.5263 361.495 90.0311 361.495 90.6782C361.495 91.2218 361.314 91.6618 360.952 92.0112C360.732 92.2183 360.434 92.3995 360.059 92.5289C360.318 92.5678 360.551 92.6195 360.758 92.7101C360.965 92.7878 361.133 92.8913 361.288 93.0207C361.69 93.3572 361.884 93.8232 361.884 94.4315C361.884 95.1303 361.599 95.7386 361.03 96.2434C360.46 96.7481 359.748 97.007 358.894 97.007C358.428 97.007 357.949 96.9164 357.47 96.7481C357.354 96.7093 357.212 96.6575 357.056 96.5799C356.888 96.5022 356.707 96.4116 356.5 96.2952V96.2822Z" fill="#534741"/>
<path d="M363.906 96.2822V95.3633C364.281 95.648 364.67 95.8681 365.071 96.0234C365.472 96.1787 365.886 96.2563 366.326 96.2563C366.947 96.2563 367.452 96.0751 367.84 95.7128C368.242 95.3374 368.449 94.9103 368.449 94.4315C368.449 93.9526 368.229 93.5384 367.802 93.2796C367.426 93.0466 366.934 92.9302 366.313 92.9302H364.657V92.2572H365.783C366.507 92.2572 367.077 92.1277 367.491 91.8689C367.905 91.61 368.112 91.2347 368.112 90.7558C368.112 90.3546 367.957 90.0181 367.646 89.7593C367.31 89.4746 366.87 89.3192 366.326 89.3192C366.106 89.3192 365.886 89.3451 365.679 89.384C365.459 89.4228 365.252 89.4875 365.045 89.5781C364.67 89.7334 364.281 89.9664 363.867 90.277V89.3451C364.1 89.2157 364.32 89.1122 364.514 89.0345C364.708 88.9439 364.903 88.8792 365.097 88.8145C365.524 88.6721 365.951 88.6074 366.404 88.6074C367.116 88.6074 367.711 88.7886 368.177 89.1639C368.656 89.5263 368.902 90.0311 368.902 90.6782C368.902 91.2218 368.721 91.6618 368.358 92.0112C368.138 92.2183 367.84 92.3995 367.465 92.5289C367.724 92.5678 367.957 92.6195 368.164 92.7101C368.371 92.7878 368.539 92.8913 368.695 93.0207C369.096 93.3572 369.29 93.8232 369.29 94.4315C369.29 95.1303 369.005 95.7386 368.436 96.2434C367.866 96.7481 367.155 97.007 366.3 97.007C365.834 97.007 365.356 96.9164 364.877 96.7481C364.76 96.7093 364.618 96.6575 364.463 96.5799C364.294 96.5022 364.113 96.4116 363.906 96.2952V96.2822Z" fill="#534741"/>
<path d="M347.699 77.1923C357.348 77.1923 365.171 69.3698 365.171 59.7202C365.171 50.0706 357.348 42.248 347.699 42.248C338.049 42.248 330.227 50.0706 330.227 59.7202C330.227 69.3698 338.049 77.1923 347.699 77.1923Z" fill="#333333" stroke="#524740" stroke-width="1.05" stroke-linecap="round" stroke-linejoin="round"/>
<path d="M417.895 91.0153V89.9022C417.895 89.3846 417.999 88.9963 418.193 88.7245C418.439 88.3492 418.853 88.168 419.448 88.168C419.513 88.168 419.578 88.168 419.616 88.168C419.668 88.168 419.72 88.168 419.772 88.1809C419.823 88.1809 419.888 88.2068 419.966 88.2197C420.043 88.2456 420.121 88.2715 420.225 88.2974V89.0092C420.225 89.0092 420.095 88.9445 419.914 88.9057C419.836 88.8927 419.759 88.8798 419.707 88.8798C419.642 88.8798 419.59 88.8798 419.552 88.8798C419.241 88.8798 419.021 88.9704 418.892 89.1386C418.749 89.3069 418.684 89.5657 418.684 89.8893V91.0023H420.225V91.7142H418.684V96.8393H417.895V91.7142H416.898V91.0023H417.895V91.0153Z" fill="#534741"/>
<path d="M421.594 91.0153V89.9022C421.594 89.3846 421.698 88.9963 421.892 88.7245C422.138 88.3492 422.552 88.168 423.147 88.168C423.212 88.168 423.277 88.168 423.316 88.168C423.367 88.168 423.419 88.168 423.471 88.1809C423.523 88.1809 423.587 88.2068 423.665 88.2197C423.743 88.2456 423.82 88.2715 423.924 88.2974V89.0092C423.924 89.0092 423.794 88.9445 423.613 88.9057C423.536 88.8927 423.458 88.8798 423.406 88.8798C423.341 88.8798 423.29 88.8798 423.251 88.8798C422.94 88.8798 422.72 88.9704 422.591 89.1386C422.448 89.3069 422.384 89.5657 422.384 89.8893V91.0023H423.924V91.7142H422.384V96.8393H421.594V91.7142H420.598V91.0023H421.594V91.0153Z" fill="#534741"/>
<path d="M425.778 96.4893V95.5574C425.92 95.661 426.05 95.7516 426.166 95.8292C426.282 95.9069 426.399 95.9716 426.515 96.0363C426.904 96.2175 427.266 96.3081 427.628 96.3081C427.939 96.3081 428.237 96.2434 428.521 96.114C428.742 96.0104 428.949 95.881 429.143 95.6998C429.337 95.5316 429.505 95.3245 429.66 95.0786C429.932 94.6515 430.126 94.1985 430.243 93.7067C430.32 93.3702 430.346 92.956 430.346 92.4642C430.01 92.8007 429.699 93.0596 429.415 93.2278C428.897 93.5384 428.34 93.6938 427.758 93.6938C427.033 93.6938 426.438 93.4867 425.959 93.0725C425.454 92.6325 425.195 92.0371 425.195 91.2735C425.195 90.4582 425.48 89.8111 426.037 89.3192C426.567 88.8533 427.214 88.6074 427.991 88.6074C428.819 88.6074 429.544 88.9051 430.139 89.5134C430.851 90.2381 431.201 91.2477 431.201 92.5289C431.201 93.8879 430.838 95.0009 430.1 95.8422C429.415 96.6317 428.599 97.0199 427.654 97.0199C427.305 97.0199 426.917 96.9423 426.502 96.7999C426.386 96.7611 426.27 96.7223 426.153 96.6575C426.037 96.6058 425.907 96.5411 425.778 96.4764V96.4893ZM430.282 91.6359C430.152 90.8982 429.855 90.3288 429.389 89.9146C428.962 89.5393 428.496 89.3581 427.991 89.3581C427.408 89.3581 426.943 89.5393 426.593 89.9017C426.231 90.277 426.05 90.717 426.05 91.2347C426.05 91.7524 426.218 92.1536 426.541 92.4901C426.865 92.8137 427.292 92.9819 427.823 92.9819C428.353 92.9819 428.78 92.8654 429.169 92.6454C429.557 92.4254 429.932 92.0889 430.295 91.6359H430.282Z" fill="#534741"/>
<path d="M436.638 92.4139C436.935 92.5045 437.194 92.5951 437.401 92.6857C437.608 92.7763 437.777 92.8799 437.919 92.9834C438.475 93.3717 438.747 93.8894 438.747 94.5235C438.747 95.2224 438.437 95.8178 437.815 96.2837C437.194 96.7496 436.431 96.9955 435.512 96.9955C434.593 96.9955 433.79 96.7626 433.234 96.2966C432.742 95.8825 432.496 95.3648 432.496 94.7565C432.496 94.1094 432.768 93.6046 433.324 93.2293C433.493 93.1128 433.687 93.0093 433.907 92.9187C434.127 92.8281 434.373 92.7504 434.657 92.6728C434.424 92.5822 434.23 92.4786 434.062 92.3881C433.894 92.2975 433.764 92.1939 433.661 92.1033C433.234 91.7409 433.014 91.275 433.014 90.7055C433.014 90.0584 433.26 89.5407 433.764 89.1654C434.269 88.7771 434.903 88.583 435.667 88.583C436.392 88.583 436.987 88.7513 437.466 89.0748C437.984 89.4243 438.255 89.8902 438.255 90.4855C438.255 90.8997 438.126 91.275 437.867 91.5986C437.608 91.9351 437.207 92.1939 436.651 92.4139H436.638ZM435.641 92.9316C435.292 93.0481 434.994 93.1646 434.748 93.2681C434.502 93.3717 434.295 93.4881 434.127 93.5787C433.609 93.9152 433.337 94.3035 433.337 94.7436C433.337 95.1836 433.544 95.546 433.959 95.8307C434.36 96.1154 434.89 96.2578 435.55 96.2578C436.262 96.2578 436.832 96.0896 437.259 95.7531C437.686 95.4166 437.906 95.0283 437.906 94.5624C437.906 94.0964 437.647 93.734 437.129 93.4364C436.974 93.3587 436.78 93.2681 436.534 93.1775C436.288 93.0869 435.991 92.9963 435.654 92.9057L435.641 92.9316ZM435.706 92.168C435.952 92.0774 436.159 91.9868 436.34 91.8962C436.521 91.8057 436.664 91.715 436.78 91.6374C437.181 91.3527 437.388 91.0032 437.388 90.615C437.388 90.2396 437.22 89.942 436.884 89.696C436.56 89.4372 436.146 89.3207 435.615 89.3207C435.085 89.3207 434.657 89.4501 434.347 89.696C434.023 89.942 433.855 90.2526 433.855 90.6667C433.855 91.0162 433.997 91.3268 434.295 91.5856C434.424 91.6892 434.606 91.8057 434.839 91.8962C435.072 91.9998 435.356 92.0904 435.693 92.168H435.706Z" fill="#534741"/>
<path d="M440.586 96.4893V95.5574C440.729 95.661 440.858 95.7516 440.975 95.8292C441.091 95.9069 441.208 95.9716 441.324 96.0363C441.712 96.2175 442.075 96.3081 442.437 96.3081C442.748 96.3081 443.045 96.2434 443.33 96.114C443.55 96.0104 443.757 95.881 443.951 95.6998C444.145 95.5316 444.314 95.3245 444.469 95.0786C444.741 94.6515 444.935 94.1985 445.051 93.7067C445.129 93.3702 445.155 92.956 445.155 92.4642C444.818 92.8007 444.508 93.0596 444.223 93.2278C443.705 93.5384 443.149 93.6938 442.566 93.6938C441.842 93.6938 441.246 93.4867 440.767 93.0725C440.263 92.6325 440.004 92.0371 440.004 91.2735C440.004 90.4582 440.289 89.8111 440.845 89.3192C441.376 88.8533 442.023 88.6074 442.799 88.6074C443.628 88.6074 444.353 88.9051 444.948 89.5134C445.66 90.2381 446.009 91.2477 446.009 92.5289C446.009 93.8879 445.647 95.0009 444.909 95.8422C444.223 96.6317 443.408 97.0199 442.463 97.0199C442.113 97.0199 441.725 96.9423 441.311 96.7999C441.195 96.7611 441.078 96.7223 440.962 96.6575C440.845 96.6058 440.716 96.5411 440.586 96.4764V96.4893ZM445.09 91.6359C444.961 90.8982 444.663 90.3288 444.197 89.9146C443.77 89.5393 443.304 89.3581 442.799 89.3581C442.217 89.3581 441.751 89.5393 441.402 89.9017C441.039 90.277 440.858 90.717 440.858 91.2347C440.858 91.7524 441.026 92.1536 441.35 92.4901C441.673 92.8137 442.101 92.9819 442.631 92.9819C443.162 92.9819 443.589 92.8654 443.977 92.6454C444.365 92.4254 444.741 92.0889 445.103 91.6359H445.09Z" fill="#534741"/>
<path d="M451.431 92.4139C451.728 92.5045 451.987 92.5951 452.194 92.6857C452.401 92.7763 452.57 92.8799 452.712 92.9834C453.268 93.3717 453.54 93.8894 453.54 94.5235C453.54 95.2224 453.23 95.8178 452.608 96.2837C451.987 96.7496 451.224 96.9955 450.305 96.9955C449.386 96.9955 448.583 96.7626 448.027 96.2966C447.535 95.8825 447.289 95.3648 447.289 94.7565C447.289 94.1094 447.561 93.6046 448.117 93.2293C448.286 93.1128 448.48 93.0093 448.7 92.9187C448.92 92.8281 449.166 92.7504 449.45 92.6728C449.217 92.5822 449.023 92.4786 448.855 92.3881C448.687 92.2975 448.557 92.1939 448.454 92.1033C448.027 91.7409 447.807 91.275 447.807 90.7055C447.807 90.0584 448.053 89.5407 448.557 89.1654C449.062 88.7771 449.696 88.583 450.46 88.583C451.185 88.583 451.78 88.7513 452.259 89.0748C452.777 89.4243 453.048 89.8902 453.048 90.4855C453.048 90.8997 452.919 91.275 452.66 91.5986C452.401 91.9351 452 92.1939 451.444 92.4139H451.431ZM450.434 92.9316C450.085 93.0481 449.787 93.1646 449.541 93.2681C449.295 93.3717 449.088 93.4881 448.92 93.5787C448.402 93.9152 448.13 94.3035 448.13 94.7436C448.13 95.1836 448.337 95.546 448.752 95.8307C449.153 96.1154 449.683 96.2578 450.343 96.2578C451.055 96.2578 451.625 96.0896 452.052 95.7531C452.479 95.4166 452.699 95.0283 452.699 94.5624C452.699 94.0964 452.44 93.734 451.922 93.4364C451.767 93.3587 451.573 93.2681 451.327 93.1775C451.081 93.0869 450.783 92.9963 450.447 92.9057L450.434 92.9316ZM450.499 92.168C450.745 92.0774 450.952 91.9868 451.133 91.8962C451.314 91.8057 451.456 91.715 451.573 91.6374C451.974 91.3527 452.181 91.0032 452.181 90.615C452.181 90.2396 452.013 89.942 451.676 89.696C451.353 89.4372 450.939 89.3207 450.408 89.3207C449.878 89.3207 449.45 89.4501 449.14 89.696C448.816 89.942 448.648 90.2526 448.648 90.6667C448.648 91.0162 448.79 91.3268 449.088 91.5856C449.217 91.6892 449.399 91.8057 449.632 91.8962C449.865 91.9998 450.149 92.0904 450.486 92.168H450.499Z" fill="#534741"/>
<path d="M435.484 77.1923C445.133 77.1923 452.956 69.3698 452.956 59.7202C452.956 50.0706 445.133 42.248 435.484 42.248C425.834 42.248 418.012 50.0706 418.012 59.7202C418.012 69.3698 425.834 77.1923 435.484 77.1923Z" fill="#FF9898" stroke="#524740" stroke-width="1.05" stroke-miterlimit="10"/>
<defs>
<filter id="filter0_d_433_3045" x="0.059844" y="12.6507" width="545.57" height="121.839" filterUnits="userSpaceOnUse" color-interpolation-filters="sRGB">
<feFlood flood-opacity="0" result="BackgroundImageFix"/>
<feColorMatrix in="SourceAlpha" type="matrix" values="0 0 0 0 0 0 0 0 0 0 0 0 0 0 0 0 0 0 127 0" result="hardAlpha"/>
<feOffset dx="7.05" dy="7.05"/>
<feGaussianBlur stdDeviation="5.04"/>
<feColorMatrix type="matrix" values="0 0 0 0 0 0 0 0 0 0 0 0 0 0 0 0 0 0 0.1 0"/>
<feBlend mode="normal" in2="BackgroundImageFix" result="effect1_dropShadow_433_3045"/>
<feBlend mode="normal" in="SourceGraphic" in2="effect1_dropShadow_433_3045" result="shape"/>
</filter>
</defs>
</svg>
