<svg width="297" height="138" viewBox="0 0 297 138" fill="none" xmlns="http://www.w3.org/2000/svg">
<path d="M278.328 111.245C280.014 117.313 282.59 123.54 285.622 129.319C286.914 131.781 292.723 138.485 285.622 135.032C278.539 131.587 271.655 128.223 264.319 125.056C262.093 124.096 256.629 120.463 253.841 121.604C239.387 127.517 220.429 127.576 204.231 128.296C174.252 129.63 143.318 130.212 113.81 125.866C81.9991 121.181 45.0617 115.833 19.4519 99.82C-0.460023 87.3701 -1.95819 67.7169 8.04794 50.7965C19.0639 32.1685 48.0168 16.4619 74.0984 11.4924C107.085 5.20723 138.797 -0.79752 172.961 3.39556C194.305 6.0152 220.892 12.2101 240.002 19.9745C246.187 22.4796 272.79 39.2796 276.302 43.8053C281.086 49.9709 288.478 57.2353 290.6 64.2673C292.674 71.1377 295 78.0464 295 85.1556C295 89.2777 294.949 95.215 292.684 98.9674C290.822 102.054 279.771 113.842 274.16 109.71" stroke="black" stroke-width="3" stroke-linecap="round"/>
</svg>
