<svg width="206" height="76" viewBox="0 0 206 76" fill="none" xmlns="http://www.w3.org/2000/svg">
<g clip-path="url(#clip0_427_135)">
<path d="M159.333 68.3876C128.654 75.8476 68.0554 75.9676 37.5601 68.0276C28.192 65.5876 18.8607 62.3176 11.8836 56.6776C4.89436 51.0376 0.664001 42.5976 3.18995 34.8476C6.329 25.2176 18.3211 19.5376 29.6144 15.7376C68.9996 2.47764 113.461 -0.542355 154.992 7.20764C172.441 10.4676 190.65 16.3876 200.055 28.8076C202.605 32.1676 204.42 35.9776 204.629 39.9276C205.082 48.4376 197.921 56.2476 188.995 60.6676C180.068 65.0876 169.572 66.7776 159.321 68.3876" fill="white"/>
<path d="M158.215 66.4394C146.394 69.2894 133.998 70.5394 121.736 71.2894C107.402 72.1594 92.9693 72.2194 78.6106 71.4994C65.9441 70.8594 53.1426 69.6894 40.8807 66.9294C26.6447 63.7194 10.3608 57.9394 5.11275 45.6594C2.6481 39.8794 3.44513 33.8194 7.82263 28.8094C11.9304 24.1094 18.3188 20.9394 24.5847 18.4694C32.1257 15.4994 40.145 13.2394 48.1398 11.2594C56.576 9.17937 65.1716 7.53937 73.8652 6.33937C91.081 3.96937 108.689 3.40937 126.076 4.61937C134.88 5.22937 143.623 6.31937 152.256 7.86937C159.588 9.18937 166.896 10.8494 173.775 13.3194C180.654 15.7894 186.773 18.8094 191.935 23.0294C197.453 27.5294 202.162 33.6294 202.174 40.1794C202.174 46.2494 198.029 51.7494 192.646 55.7194C186.442 60.2894 178.373 62.6894 170.391 64.3294C166.357 65.1594 162.274 65.8094 158.19 66.4494C155.873 66.8094 156.854 69.7094 159.171 69.3394C175.455 66.7794 194.044 63.2894 202.566 50.3194C206.551 44.2594 206.723 37.5394 203.375 31.2494C200.212 25.3194 194.682 20.4094 188.342 16.6094C175.345 8.82937 158.853 5.51937 143.206 3.37937C125.046 0.889366 106.482 0.339366 88.1258 1.78937C69.7698 3.23937 51.8306 6.54937 34.6394 11.8094C21.2249 15.9094 4.20537 21.8094 0.612627 34.4994C-1.20213 40.9194 1.13989 47.7094 5.66453 53.0394C10.4835 58.7294 17.6567 62.7194 25.2958 65.5394C37.8398 70.1594 51.426 72.2694 65.0244 73.5294C79.8491 74.8994 94.8454 75.2394 109.744 74.8194C123.6 74.4194 137.566 73.4194 151.128 71.0094C153.837 70.5294 156.523 69.9794 159.184 69.3394C161.452 68.7894 160.483 65.8994 158.203 66.4494L158.215 66.4394Z" fill="black"/>
</g>
<path d="M54.7963 40.64H50.7003L49.6923 44H47.8043L51.7083 32.224H53.8523L57.7563 44H55.7883L54.7963 40.64ZM54.3483 39.184L53.8843 37.6C53.6816 36.96 53.4896 36.3147 53.3083 35.664C53.127 35.0133 52.9456 34.352 52.7643 33.68H52.7003C52.5296 34.352 52.3536 35.0133 52.1723 35.664C51.991 36.3147 51.8043 36.96 51.6123 37.6L51.1323 39.184H54.3483ZM59.3254 32.224H61.1814V44H59.3254V32.224ZM80.5451 37.792H78.2891V45.248H76.6411V30.784H78.2891V36.432H80.5451V37.792ZM73.8731 40.224C74.2144 40.192 74.5504 40.16 74.8811 40.128C75.2117 40.096 75.5371 40.0587 75.8571 40.016L75.9531 41.232C75.2064 41.36 74.4437 41.4613 73.6651 41.536C72.8864 41.6107 72.1131 41.664 71.3451 41.696C70.5877 41.728 69.8464 41.7493 69.1211 41.76C68.4064 41.7707 67.7344 41.776 67.1051 41.776L66.9291 40.416H68.7051V33.568H67.2971V32.24H75.2811V33.568H73.8731V40.224ZM70.3051 40.384C70.6251 40.3733 70.9504 40.3627 71.2811 40.352C71.6117 40.3413 71.9424 40.3253 72.2731 40.304V33.568H70.3051V40.384ZM93.7278 38.112H92.0798V30.768H93.7278V38.112ZM89.6798 34.512C89.6798 34.992 89.5838 35.4293 89.3918 35.824C89.1998 36.2187 88.9331 36.56 88.5918 36.848C88.2611 37.136 87.8611 37.36 87.3918 37.52C86.9225 37.68 86.4158 37.76 85.8718 37.76C85.3278 37.76 84.8265 37.68 84.3678 37.52C83.9091 37.36 83.5091 37.136 83.1678 36.848C82.8371 36.56 82.5758 36.2187 82.3838 35.824C82.1918 35.4293 82.0958 34.992 82.0958 34.512C82.0958 34.032 82.1918 33.5947 82.3838 33.2C82.5758 32.7947 82.8371 32.448 83.1678 32.16C83.5091 31.872 83.9091 31.648 84.3678 31.488C84.8265 31.328 85.3278 31.248 85.8718 31.248C86.4158 31.248 86.9225 31.328 87.3918 31.488C87.8611 31.648 88.2611 31.872 88.5918 32.16C88.9331 32.448 89.1998 32.7947 89.3918 33.2C89.5838 33.5947 89.6798 34.032 89.6798 34.512ZM83.6958 34.512C83.6958 34.8 83.7491 35.0613 83.8558 35.296C83.9731 35.5307 84.1278 35.7333 84.3198 35.904C84.5118 36.064 84.7411 36.192 85.0078 36.288C85.2745 36.3733 85.5625 36.416 85.8718 36.416C86.1918 36.416 86.4851 36.3733 86.7518 36.288C87.0185 36.192 87.2478 36.064 87.4398 35.904C87.6425 35.7333 87.7971 35.5307 87.9038 35.296C88.0211 35.0613 88.0798 34.8 88.0798 34.512C88.0798 34.224 88.0211 33.9627 87.9038 33.728C87.7971 33.4933 87.6425 33.296 87.4398 33.136C87.2478 32.9653 87.0185 32.8373 86.7518 32.752C86.4851 32.656 86.1918 32.608 85.8718 32.608C85.5625 32.608 85.2745 32.656 85.0078 32.752C84.7411 32.8373 84.5118 32.9653 84.3198 33.136C84.1278 33.296 83.9731 33.4933 83.8558 33.728C83.7491 33.9627 83.6958 34.224 83.6958 34.512ZM94.1598 43.76V45.056H84.2878V41.264H92.0958V40.064H84.2558V38.768H93.7278V42.48H85.9038V43.76H94.1598ZM113.561 37.696H111.305V45.248H109.657V30.768H111.305V36.336H113.561V37.696ZM102.345 40.32C102.921 40.32 103.47 40.3147 103.993 40.304C104.515 40.2827 105.022 40.256 105.513 40.224C106.014 40.1813 106.505 40.1333 106.985 40.08C107.465 40.016 107.955 39.9413 108.457 39.856L108.633 41.216C108.089 41.312 107.55 41.392 107.017 41.456C106.494 41.52 105.961 41.568 105.417 41.6C104.873 41.632 104.307 41.6587 103.721 41.68C103.145 41.6907 102.531 41.696 101.881 41.696H100.697V32.144H107.417V33.488H102.345V40.32ZM121.367 36.992C120.589 36.992 119.885 36.9227 119.255 36.784C118.626 36.6453 118.087 36.448 117.639 36.192C117.191 35.936 116.845 35.6267 116.599 35.264C116.365 34.9013 116.247 34.496 116.247 34.048C116.247 33.6 116.365 33.1947 116.599 32.832C116.845 32.4693 117.191 32.16 117.639 31.904C118.087 31.648 118.626 31.4507 119.255 31.312C119.885 31.1733 120.589 31.104 121.367 31.104C122.135 31.104 122.834 31.1733 123.463 31.312C124.093 31.4507 124.631 31.648 125.079 31.904C125.527 32.16 125.874 32.4693 126.119 32.832C126.365 33.1947 126.487 33.6 126.487 34.048C126.487 34.496 126.365 34.9013 126.119 35.264C125.874 35.6267 125.527 35.936 125.079 36.192C124.631 36.448 124.093 36.6453 123.463 36.784C122.834 36.9227 122.135 36.992 121.367 36.992ZM121.367 32.432C120.343 32.432 119.522 32.576 118.903 32.864C118.295 33.1413 117.991 33.536 117.991 34.048C117.991 34.56 118.295 34.96 118.903 35.248C119.522 35.5253 120.343 35.664 121.367 35.664C121.879 35.664 122.338 35.6267 122.743 35.552C123.159 35.4773 123.511 35.376 123.799 35.248C124.098 35.1093 124.327 34.9387 124.487 34.736C124.647 34.5333 124.727 34.304 124.727 34.048C124.727 33.792 124.647 33.5627 124.487 33.36C124.327 33.1573 124.098 32.992 123.799 32.864C123.511 32.7253 123.159 32.6187 122.743 32.544C122.338 32.4693 121.879 32.432 121.367 32.432ZM127.927 37.968V39.312H122.327V42.048H120.647V39.312H114.823V37.968H127.927ZM118.103 43.616H126.487V44.96H116.439V40.688H118.103V43.616ZM142.646 42.176V43.536H129.558V42.176H135.254V39.712H131.142V35.056H139.462V33.12H131.11V31.792H141.094V36.368H132.758V38.384H141.414V39.712H136.902V42.176H142.646ZM155.893 38.928H145.877V32.048H155.781V33.392H147.525V37.6H155.893V38.928ZM157.381 42.016V43.376H144.277V42.016H157.381Z" fill="black"/>
<defs>
<clipPath id="clip0_427_135">
<rect width="205.755" height="73.99" fill="white" transform="translate(0 1)"/>
</clipPath>
</defs>
</svg>
