<svg width="206" height="76" viewBox="0 0 206 76" fill="none" xmlns="http://www.w3.org/2000/svg">
<g clip-path="url(#clip0_439_3148)">
<path d="M159.333 68.3876C128.654 75.8476 68.0554 75.9676 37.5601 68.0276C28.192 65.5876 18.8607 62.3176 11.8836 56.6776C4.89436 51.0376 0.664001 42.5976 3.18995 34.8476C6.329 25.2176 18.3211 19.5376 29.6144 15.7376C68.9996 2.47764 113.461 -0.542355 154.992 7.20764C172.441 10.4676 190.65 16.3876 200.055 28.8076C202.605 32.1676 204.42 35.9776 204.629 39.9276C205.082 48.4376 197.921 56.2476 188.995 60.6676C180.068 65.0876 169.572 66.7776 159.321 68.3876" fill="white"/>
<path d="M158.215 66.4394C146.394 69.2894 133.998 70.5394 121.736 71.2894C107.402 72.1594 92.9693 72.2194 78.6106 71.4994C65.9441 70.8594 53.1426 69.6894 40.8807 66.9294C26.6447 63.7194 10.3608 57.9394 5.11275 45.6594C2.6481 39.8794 3.44513 33.8194 7.82263 28.8094C11.9304 24.1094 18.3188 20.9394 24.5847 18.4694C32.1257 15.4994 40.145 13.2394 48.1398 11.2594C56.576 9.17937 65.1716 7.53937 73.8652 6.33937C91.081 3.96937 108.689 3.40937 126.076 4.61937C134.88 5.22937 143.623 6.31937 152.256 7.86937C159.588 9.18937 166.896 10.8494 173.775 13.3194C180.654 15.7894 186.773 18.8094 191.935 23.0294C197.453 27.5294 202.162 33.6294 202.174 40.1794C202.174 46.2494 198.029 51.7494 192.646 55.7194C186.442 60.2894 178.373 62.6894 170.391 64.3294C166.357 65.1594 162.274 65.8094 158.19 66.4494C155.873 66.8094 156.854 69.7094 159.171 69.3394C175.455 66.7794 194.044 63.2894 202.566 50.3194C206.551 44.2594 206.723 37.5394 203.375 31.2494C200.212 25.3194 194.682 20.4094 188.342 16.6094C175.345 8.82937 158.853 5.51937 143.206 3.37937C125.046 0.889366 106.482 0.339366 88.1258 1.78937C69.7698 3.23937 51.8306 6.54937 34.6394 11.8094C21.2249 15.9094 4.20537 21.8094 0.612627 34.4994C-1.20213 40.9194 1.13989 47.7094 5.66453 53.0394C10.4835 58.7294 17.6567 62.7194 25.2958 65.5394C37.8398 70.1594 51.426 72.2694 65.0244 73.5294C79.8491 74.8994 94.8454 75.2394 109.744 74.8194C123.6 74.4194 137.566 73.4194 151.128 71.0094C153.837 70.5294 156.523 69.9794 159.184 69.3394C161.452 68.7894 160.483 65.8994 158.203 66.4494L158.215 66.4394Z" fill="black"/>
</g>
<path d="M46.3915 30.768V45.264H44.7275V30.768H46.3915ZM38.6955 31.84C39.2395 31.84 39.7355 31.9627 40.1835 32.208C40.6422 32.4427 41.0368 32.784 41.3675 33.232C41.6982 33.6693 41.9542 34.2027 42.1355 34.832C42.3275 35.4507 42.4235 36.1493 42.4235 36.928C42.4235 37.7067 42.3275 38.416 42.1355 39.056C41.9542 39.6853 41.6982 40.2187 41.3675 40.656C41.0368 41.0933 40.6422 41.4347 40.1835 41.68C39.7355 41.9147 39.2395 42.032 38.6955 42.032C38.1622 42.032 37.6662 41.9147 37.2075 41.68C36.7595 41.4347 36.3702 41.0933 36.0395 40.656C35.7088 40.2187 35.4475 39.6853 35.2555 39.056C35.0742 38.416 34.9835 37.7067 34.9835 36.928C34.9835 36.1493 35.0742 35.4507 35.2555 34.832C35.4475 34.2027 35.7088 33.6693 36.0395 33.232C36.3702 32.784 36.7595 32.4427 37.2075 32.208C37.6662 31.9627 38.1622 31.84 38.6955 31.84ZM38.6955 33.328C38.0555 33.328 37.5382 33.648 37.1435 34.288C36.7595 34.9173 36.5675 35.7973 36.5675 36.928C36.5675 38.0907 36.7595 38.9867 37.1435 39.616C37.5382 40.2453 38.0555 40.56 38.6955 40.56C39.3355 40.56 39.8528 40.2453 40.2475 39.616C40.6422 38.9867 40.8395 38.0907 40.8395 36.928C40.8395 35.7973 40.6422 34.9173 40.2475 34.288C39.8528 33.648 39.3355 33.328 38.6955 33.328ZM61.1103 30.768V45.264H59.4463V30.768H61.1103ZM56.7743 32.144V41.696H49.9903V32.144H56.7743ZM51.6063 33.456V40.368H55.1583V33.456H51.6063ZM75.829 30.784V45.232H74.165V30.784H75.829ZM69.269 34.96C69.269 35.568 69.3543 36.1707 69.525 36.768C69.7063 37.3547 69.9623 37.9093 70.293 38.432C70.6237 38.944 71.0183 39.408 71.477 39.824C71.9357 40.24 72.4477 40.5707 73.013 40.816L72.101 42.112C71.2583 41.7387 70.5223 41.184 69.893 40.448C69.2743 39.712 68.7943 38.8747 68.453 37.936C68.293 38.4373 68.0903 38.9173 67.845 39.376C67.6103 39.8347 67.3383 40.2613 67.029 40.656C66.7197 41.0507 66.3783 41.4027 66.005 41.712C65.6423 42.0213 65.2477 42.2773 64.821 42.48L63.877 41.168C64.4423 40.912 64.949 40.56 65.397 40.112C65.8557 39.664 66.2503 39.1627 66.581 38.608C66.9117 38.0427 67.1623 37.4453 67.333 36.816C67.5143 36.1867 67.605 35.568 67.605 34.96V33.584H64.389V32.224H72.485V33.584H69.269V34.96ZM95.6779 37.792H93.4219V45.248H91.7739V30.784H93.4219V36.432H95.6779V37.792ZM89.0059 40.224C89.3472 40.192 89.6832 40.16 90.0139 40.128C90.3445 40.096 90.6699 40.0587 90.9899 40.016L91.0859 41.232C90.3392 41.36 89.5765 41.4613 88.7979 41.536C88.0192 41.6107 87.2459 41.664 86.4779 41.696C85.7205 41.728 84.9792 41.7493 84.2539 41.76C83.5392 41.7707 82.8672 41.776 82.2379 41.776L82.0619 40.416H83.8379V33.568H82.4299V32.24H90.4139V33.568H89.0059V40.224ZM85.4379 40.384C85.7579 40.3733 86.0832 40.3627 86.4139 40.352C86.7445 40.3413 87.0752 40.3253 87.4059 40.304V33.568H85.4379V40.384ZM108.861 38.112H107.213V30.768H108.861V38.112ZM104.813 34.512C104.813 34.992 104.717 35.4293 104.525 35.824C104.333 36.2187 104.066 36.56 103.725 36.848C103.394 37.136 102.994 37.36 102.525 37.52C102.055 37.68 101.549 37.76 101.005 37.76C100.461 37.76 99.9593 37.68 99.5006 37.52C99.042 37.36 98.642 37.136 98.3006 36.848C97.97 36.56 97.7086 36.2187 97.5166 35.824C97.3246 35.4293 97.2286 34.992 97.2286 34.512C97.2286 34.032 97.3246 33.5947 97.5166 33.2C97.7086 32.7947 97.97 32.448 98.3006 32.16C98.642 31.872 99.042 31.648 99.5006 31.488C99.9593 31.328 100.461 31.248 101.005 31.248C101.549 31.248 102.055 31.328 102.525 31.488C102.994 31.648 103.394 31.872 103.725 32.16C104.066 32.448 104.333 32.7947 104.525 33.2C104.717 33.5947 104.813 34.032 104.813 34.512ZM98.8286 34.512C98.8286 34.8 98.882 35.0613 98.9886 35.296C99.106 35.5307 99.2606 35.7333 99.4526 35.904C99.6446 36.064 99.874 36.192 100.141 36.288C100.407 36.3733 100.695 36.416 101.005 36.416C101.325 36.416 101.618 36.3733 101.885 36.288C102.151 36.192 102.381 36.064 102.573 35.904C102.775 35.7333 102.93 35.5307 103.037 35.296C103.154 35.0613 103.213 34.8 103.213 34.512C103.213 34.224 103.154 33.9627 103.037 33.728C102.93 33.4933 102.775 33.296 102.573 33.136C102.381 32.9653 102.151 32.8373 101.885 32.752C101.618 32.656 101.325 32.608 101.005 32.608C100.695 32.608 100.407 32.656 100.141 32.752C99.874 32.8373 99.6446 32.9653 99.4526 33.136C99.2606 33.296 99.106 33.4933 98.9886 33.728C98.882 33.9627 98.8286 34.224 98.8286 34.512ZM109.293 43.76V45.056H99.4206V41.264H107.229V40.064H99.3886V38.768H108.861V42.48H101.037V43.76H109.293ZM128.694 37.696H126.438V45.248H124.79V30.768H126.438V36.336H128.694V37.696ZM117.478 40.32C118.054 40.32 118.603 40.3147 119.126 40.304C119.648 40.2827 120.155 40.256 120.646 40.224C121.147 40.1813 121.638 40.1333 122.118 40.08C122.598 40.016 123.088 39.9413 123.59 39.856L123.766 41.216C123.222 41.312 122.683 41.392 122.15 41.456C121.627 41.52 121.094 41.568 120.55 41.6C120.006 41.632 119.44 41.6587 118.854 41.68C118.278 41.6907 117.664 41.696 117.014 41.696H115.83V32.144H122.55V33.488H117.478V40.32ZM136.5 36.992C135.722 36.992 135.018 36.9227 134.388 36.784C133.759 36.6453 133.22 36.448 132.772 36.192C132.324 35.936 131.978 35.6267 131.732 35.264C131.498 34.9013 131.38 34.496 131.38 34.048C131.38 33.6 131.498 33.1947 131.732 32.832C131.978 32.4693 132.324 32.16 132.772 31.904C133.22 31.648 133.759 31.4507 134.388 31.312C135.018 31.1733 135.722 31.104 136.5 31.104C137.268 31.104 137.967 31.1733 138.596 31.312C139.226 31.4507 139.764 31.648 140.212 31.904C140.66 32.16 141.007 32.4693 141.252 32.832C141.498 33.1947 141.62 33.6 141.62 34.048C141.62 34.496 141.498 34.9013 141.252 35.264C141.007 35.6267 140.66 35.936 140.212 36.192C139.764 36.448 139.226 36.6453 138.596 36.784C137.967 36.9227 137.268 36.992 136.5 36.992ZM136.5 32.432C135.476 32.432 134.655 32.576 134.036 32.864C133.428 33.1413 133.124 33.536 133.124 34.048C133.124 34.56 133.428 34.96 134.036 35.248C134.655 35.5253 135.476 35.664 136.5 35.664C137.012 35.664 137.471 35.6267 137.876 35.552C138.292 35.4773 138.644 35.376 138.932 35.248C139.231 35.1093 139.46 34.9387 139.62 34.736C139.78 34.5333 139.86 34.304 139.86 34.048C139.86 33.792 139.78 33.5627 139.62 33.36C139.46 33.1573 139.231 32.992 138.932 32.864C138.644 32.7253 138.292 32.6187 137.876 32.544C137.471 32.4693 137.012 32.432 136.5 32.432ZM143.06 37.968V39.312H137.46V42.048H135.78V39.312H129.956V37.968H143.06ZM133.236 43.616H141.62V44.96H131.572V40.688H133.236V43.616ZM157.779 42.176V43.536H144.691V42.176H150.387V39.712H146.275V35.056H154.595V33.12H146.243V31.792H156.227V36.368H147.891V38.384H156.547V39.712H152.035V42.176H157.779ZM171.026 38.928H161.01V32.048H170.914V33.392H162.658V37.6H171.026V38.928ZM172.514 42.016V43.376H159.41V42.016H172.514Z" fill="black"/>
<defs>
<clipPath id="clip0_439_3148">
<rect width="205.755" height="73.99" fill="white" transform="translate(0 1)"/>
</clipPath>
</defs>
</svg>
