<svg width="195" height="127" viewBox="0 0 195 127" fill="none" xmlns="http://www.w3.org/2000/svg">
<g clip-path="url(#clip0_429_2658)">
<path d="M194.998 0H0.0859375V64.7048H194.998V0Z" fill="#373A36"/>
<path d="M194.912 64.6006H0V129.305H194.912V64.6006Z" fill="#F5C01B"/>
<path d="M32.9648 88.039V106.314L47.0676 112.641L61.1771 106.314V88.039L47.0676 81.7119L32.9648 88.039Z" fill="#373A36"/>
<path d="M71.9427 85.0576V89.4731H76.0628C77.4609 89.4731 78.5956 90.3482 78.5956 91.6809C78.5956 93.2559 77.4609 94.5214 76.0628 94.5214H71.9427V89.4731H66.2422V109.673H77.3258C81.5134 109.673 84.9243 106.906 84.9243 102.733C84.9243 99.8523 82.9993 97.6378 80.426 96.5474C80.426 96.4128 80.426 96.3993 80.426 96.258C82.3779 95.4031 83.6545 93.8213 83.6545 91.3713C83.6545 87.2721 80.2436 85.0576 76.056 85.0576H71.936H71.9427ZM76.6909 104.625H71.9427V98.9436H76.0628C77.9607 98.9436 79.8654 100.209 79.8654 102.1C79.8654 103.992 78.0958 104.625 76.6977 104.625H76.6909Z" fill="#373A36"/>
<path d="M99.8128 85.0576H94.7471L85.8789 109.673H92.2143L93.9231 103.992H101.9L103.609 109.673H109.944L101.076 85.0576H99.806H99.8128ZM95.4428 98.9436L97.9149 90.7386L100.387 98.9436H95.4496H95.4428Z" fill="#373A36"/>
<path d="M128.056 108.407H122.991L118.06 95.4972L117.756 95.5646L117.912 97.079C118.344 101.259 118.56 105.466 118.56 109.666H112.859V85.0508H119.195L125.53 101.548L131.866 85.0508H138.201V109.666H132.501C132.501 105.459 132.717 101.259 133.149 97.079L133.304 95.5646L133 95.4972L128.07 108.407H128.056Z" fill="#373A36"/>
<path d="M152.575 85.0576H143.578V109.673H149.279V101.508C149.346 101.448 149.38 101.414 149.454 101.353C154.567 101.865 161.949 102.8 161.949 93.0069C161.949 87.0904 157.168 85.0576 152.575 85.0576ZM149.279 97.133V89.601H151.562C153.919 89.601 156.884 90.2405 156.884 93.0809C156.884 98.2974 152.055 97.5436 149.285 97.133H149.279Z" fill="#373A36"/>
<path d="M47.0677 93.8686L58.9078 88.5646L47.0677 83.2539L35.2344 88.5646L47.0677 93.8686Z" fill="#F5C01B"/>
<path d="M47.7773 95.0929V110.783L59.766 105.405V89.7148L47.7773 95.0929Z" fill="white"/>
<path d="M46.3676 95.0929L34.3789 89.7148V105.405L46.3676 110.783V95.0929Z" fill="white"/>
<path d="M69.4115 81.2676H63.7109V86.9485H69.4115V81.2676Z" fill="white"/>
<path d="M72.0326 20.4551V24.8706H76.1459C77.544 24.8706 78.6787 25.7456 78.6787 27.0784C78.6787 28.6534 77.544 29.9188 76.1459 29.9188H72.0326V24.8706H66.332V45.0702H77.4156C81.6032 45.0702 85.0141 42.3038 85.0141 38.1306C85.0141 35.2498 83.0892 33.0353 80.5158 31.9448C80.5158 31.8102 80.5158 31.7968 80.5158 31.6554C82.4678 30.8006 83.7443 29.2188 83.7443 26.7687C83.7443 22.6696 80.3335 20.4551 76.1459 20.4551H72.0326ZM76.7808 40.022H72.0326V34.3411H76.1459C78.0438 34.3411 79.9485 35.6065 79.9485 37.4979C79.9485 39.3893 78.1789 40.022 76.7808 40.022Z" fill="white"/>
<path d="M99.9026 20.4551H94.837L85.9688 45.0702H92.3042L94.013 39.3893H101.99L103.698 45.0702H110.034L101.166 20.4551H99.8959H99.9026ZM95.5327 34.3411L98.0047 26.136L100.477 34.3411H95.5394H95.5327Z" fill="white"/>
<path d="M128.146 43.8048H123.08L118.15 30.8948L117.846 30.9621L118.001 32.4766C118.434 36.6565 118.65 40.8634 118.65 45.0635H112.949V20.4551H119.285L125.62 36.9527L131.955 20.4551H138.291V45.0702H132.59C132.59 40.8634 132.807 36.6633 133.239 32.4833L133.394 30.9689L133.09 30.9015L128.16 43.8116L128.146 43.8048Z" fill="white"/>
<path d="M152.657 20.4551H143.66V45.0702H149.361V36.9056C149.428 36.845 149.462 36.8113 149.536 36.7508C154.649 37.2623 162.032 38.1979 162.032 28.4044C162.032 22.4878 157.25 20.4551 152.657 20.4551ZM149.361 32.5304V24.9985H151.644C154.001 24.9985 156.966 25.6379 156.966 28.4784C156.966 33.6949 152.137 32.941 149.367 32.5304H149.361Z" fill="white"/>
<path d="M47.1536 29.2671L58.9937 23.9631L47.1536 18.6523L35.3203 23.9631L47.1536 29.2671Z" fill="#F5C01B"/>
<path d="M47.8633 30.4913V46.1812L59.852 40.8032V25.1133L47.8633 30.4913Z" fill="white"/>
<path d="M46.4535 30.4913L34.4648 25.1133V40.8032L46.4535 46.1812V30.4913Z" fill="white"/>
<path d="M69.4974 16.666H63.7969V22.347H69.4974V16.666Z" fill="#F5C01B"/>
</g>
<defs>
<clipPath id="clip0_429_2658">
<rect width="195" height="127" fill="white"/>
</clipPath>
</defs>
</svg>
