<svg width="194" height="196" viewBox="0 0 194 196" fill="none" xmlns="http://www.w3.org/2000/svg">
<g filter="url(#filter0_d_439_3117)">
<path d="M189.293 1H4.80469V187H189.293V1Z" stroke="#2EA7E0" stroke-width="0.5" stroke-miterlimit="10"/>
<path opacity="0.2" d="M22.8462 1H4.80469V187H22.8462V1Z" fill="#2EA7E0"/>
<path opacity="0.2" d="M189.292 1H171.25V187H189.292V1Z" fill="#2EA7E0"/>
<path opacity="0.2" d="M22.8359 1.00051V19.042L171.241 19.042V1.00051L22.8359 1.00051Z" fill="#2EA7E0"/>
<path opacity="0.2" d="M22.8359 168.959V187H171.241V168.959H22.8359Z" fill="#2EA7E0"/>
<path d="M4.80469 19.042H189.293" stroke="#2EA7E0" stroke-width="0.5" stroke-miterlimit="10"/>
<path d="M22.8438 187V1" stroke="#2EA7E0" stroke-width="0.5" stroke-miterlimit="10"/>
<path d="M171.25 187V1" stroke="#2EA7E0" stroke-width="0.5" stroke-miterlimit="10"/>
<path d="M4.80469 168.958H189.293" stroke="#2EA7E0" stroke-width="0.5" stroke-miterlimit="10"/>
<path d="M31.863 129.874V136.885H38.3807C40.5997 136.885 42.3899 138.268 42.3899 140.39C42.3899 142.899 40.5997 144.903 38.3807 144.903H31.863V136.885H22.8477V168.959H40.3853C47.0209 168.959 52.413 164.563 52.413 157.939C52.413 153.361 49.3685 149.856 45.295 148.119C45.295 147.905 45.295 147.883 45.295 147.658C48.3823 146.297 50.4084 143.788 50.4084 139.897C50.4084 133.379 45.0163 129.874 38.3807 129.874H31.863ZM39.3776 160.94H31.863V151.925H38.3807C41.3823 151.925 44.3945 153.929 44.3945 156.931C44.3945 159.932 41.5967 160.94 39.3884 160.94H39.3776Z" fill="#373A36"/>
<path d="M75.9648 129.874H67.9463L53.9141 168.959H63.9371L66.6385 159.943H79.2665L81.9679 168.959H91.991L77.9587 129.874H75.9541H75.9648ZM69.0505 151.925L72.9632 138.9L76.876 151.925H69.0612H69.0505Z" fill="#373A36"/>
<path d="M120.666 166.954H112.647L104.843 146.458L104.361 146.565L104.607 148.966C105.293 155.612 105.636 162.28 105.636 168.959H96.6211V129.874H106.644L116.667 156.073L126.69 129.874H136.713V168.959H127.698C127.698 162.28 128.041 155.612 128.727 148.966L128.974 146.565L128.491 146.458L120.687 166.954H120.666Z" fill="#373A36"/>
<path d="M159.463 129.874H145.227V168.959H154.242V155.988C154.349 155.891 154.403 155.837 154.521 155.741C162.614 156.545 174.288 158.046 174.288 142.491C174.288 133.09 166.72 129.874 159.452 129.874H159.463ZM154.253 149.052V137.088H157.865C161.596 137.088 166.28 138.096 166.28 142.62C166.28 150.906 158.637 149.706 154.253 149.052Z" fill="#373A36"/>
<path d="M27.8552 123.859H18.8398V132.875H27.8552V123.859Z" fill="#F5C01B"/>
<path d="M48.875 34.2306V92.2678L93.5231 112.357L138.171 92.2678V34.2306L93.5231 14.1416L48.875 34.2306Z" fill="#373A36"/>
<path d="M93.5254 52.7549L130.991 35.8926L93.5254 19.041L56.0703 35.8926L93.5254 52.7549Z" fill="#F5C01B"/>
<path d="M95.7539 56.6451V106.46L133.702 89.3835V39.5684L95.7539 56.6451Z" fill="white"/>
<path d="M91.2959 56.6451L53.3477 39.5684V89.3835L91.2959 106.46V56.6451Z" fill="white"/>
</g>
<defs>
<filter id="filter0_d_439_3117" x="0.554688" y="0.75" width="192.988" height="194.5" filterUnits="userSpaceOnUse" color-interpolation-filters="sRGB">
<feFlood flood-opacity="0" result="BackgroundImageFix"/>
<feColorMatrix in="SourceAlpha" type="matrix" values="0 0 0 0 0 0 0 0 0 0 0 0 0 0 0 0 0 0 127 0" result="hardAlpha"/>
<feOffset dy="4"/>
<feGaussianBlur stdDeviation="2"/>
<feComposite in2="hardAlpha" operator="out"/>
<feColorMatrix type="matrix" values="0 0 0 0 0 0 0 0 0 0 0 0 0 0 0 0 0 0 0.25 0"/>
<feBlend mode="normal" in2="BackgroundImageFix" result="effect1_dropShadow_439_3117"/>
<feBlend mode="normal" in="SourceGraphic" in2="effect1_dropShadow_439_3117" result="shape"/>
</filter>
</defs>
</svg>
