<svg width="200" height="200" viewBox="0 0 200 200" fill="none" xmlns="http://www.w3.org/2000/svg">
<g filter="url(#filter0_d_439_3066)">
<path d="M39.3592 133.33V139.87H45.4392C47.5092 139.87 49.1792 141.16 49.1792 143.14C49.1792 145.48 47.5092 147.35 45.4392 147.35H39.3592V139.87H30.9492V169.79H47.3092C53.4992 169.79 58.5292 165.69 58.5292 159.51C58.5292 155.24 55.6892 151.97 51.8892 150.35C51.8892 150.15 51.8892 150.13 51.8892 149.92C54.7692 148.65 56.6592 146.31 56.6592 142.68C56.6592 136.6 51.6292 133.33 45.4392 133.33H39.3592ZM46.3692 162.31H39.3592V153.9H45.4392C48.2392 153.9 51.0492 155.77 51.0492 158.57C51.0492 161.37 48.4392 162.31 46.3792 162.31H46.3692Z" fill="#373A36"/>
<path d="M80.4997 133.33H73.0197L59.9297 169.79H69.2797L71.7997 161.38H83.5797L86.0997 169.79H95.4497L82.3597 133.33H80.4897H80.4997ZM74.0497 153.9L77.6997 141.75L81.3497 153.9H74.0597H74.0497Z" fill="#373A36"/>
<path d="M122.2 167.93H114.72L107.44 148.81L106.99 148.91L107.22 151.15C107.86 157.35 108.18 163.57 108.18 169.8H99.7695V133.34H109.12L118.47 157.78L127.82 133.34H137.17V169.8H128.76C128.76 163.57 129.08 157.35 129.72 151.15L129.95 148.91L129.5 148.81L122.22 167.93H122.2Z" fill="#373A36"/>
<path d="M158.389 133.33H145.109V169.79H153.519V157.69C153.619 157.6 153.669 157.55 153.779 157.46C161.329 158.22 172.219 159.61 172.219 145.1C172.219 136.33 165.159 133.33 158.379 133.33H158.389ZM153.529 151.22V140.06H156.899C160.379 140.06 164.749 141 164.749 145.22C164.749 152.95 157.619 151.83 153.529 151.22Z" fill="#373A36"/>
<path d="M35.6209 127.72H27.2109V136.13H35.6209V127.72Z" fill="#F5C01B"/>
<path d="M55.2422 44.1199V98.2599L96.8822 117L138.532 98.2599V44.1199L96.8822 25.3799L55.2422 44.1199Z" fill="#373A36"/>
<path d="M96.8814 61.3895L131.831 45.6695L96.8814 29.9395L61.9414 45.6695L96.8814 61.3895Z" fill="#F5C01B"/>
<path d="M98.9727 65.0198V111.5L134.373 95.5698V49.0898L98.9727 65.0198Z" fill="white"/>
<path d="M94.8023 65.0198L59.4023 49.0898V95.5698L94.8023 111.5V65.0198Z" fill="white"/>
<path d="M14.1211 18.23V8" stroke="#9FA0A0" stroke-width="0.5"/>
<path d="M19.24 13.1104H9" stroke="#9FA0A0" stroke-width="0.5"/>
<path d="M186.219 18.23V8" stroke="#9FA0A0" stroke-width="0.5"/>
<path d="M191.339 13.1104H181.109" stroke="#9FA0A0" stroke-width="0.5"/>
<path d="M14.1211 191.74V181.51" stroke="#9FA0A0" stroke-width="0.5"/>
<path d="M19.24 186.62H9" stroke="#9FA0A0" stroke-width="0.5"/>
<path d="M186.219 191.74V181.51" stroke="#9FA0A0" stroke-width="0.5"/>
<path d="M191.339 186.62H181.109" stroke="#9FA0A0" stroke-width="0.5"/>
</g>
<defs>
<filter id="filter0_d_439_3066" x="5" y="8" width="190.34" height="191.74" filterUnits="userSpaceOnUse" color-interpolation-filters="sRGB">
<feFlood flood-opacity="0" result="BackgroundImageFix"/>
<feColorMatrix in="SourceAlpha" type="matrix" values="0 0 0 0 0 0 0 0 0 0 0 0 0 0 0 0 0 0 127 0" result="hardAlpha"/>
<feOffset dy="4"/>
<feGaussianBlur stdDeviation="2"/>
<feComposite in2="hardAlpha" operator="out"/>
<feColorMatrix type="matrix" values="0 0 0 0 0 0 0 0 0 0 0 0 0 0 0 0 0 0 0.25 0"/>
<feBlend mode="normal" in2="BackgroundImageFix" result="effect1_dropShadow_439_3066"/>
<feBlend mode="normal" in="SourceGraphic" in2="effect1_dropShadow_439_3066" result="shape"/>
</filter>
</defs>
</svg>
