<svg width="134" height="38" viewBox="0 0 134 38" fill="none" xmlns="http://www.w3.org/2000/svg">
<g clip-path="url(#clip0_429_2652)">
<path d="M11.2241 5.06738V10.9747H16.842C18.7547 10.9747 20.2978 12.1399 20.2978 13.9283C20.2978 16.042 18.7547 17.731 16.842 17.731H11.2241V10.9747H3.45312V38.0001H18.5699C24.2896 38.0001 28.9373 34.2968 28.9373 28.7146C28.9373 24.8577 26.3131 21.9041 22.8019 20.4408C22.8019 20.2602 22.8019 20.2421 22.8019 20.0524C25.4631 18.9053 27.2094 16.7917 27.2094 13.5128C27.2094 8.02103 22.5617 5.06738 16.842 5.06738H11.2241ZM17.7014 31.2438H11.2241V23.6474H16.842C19.4293 23.6474 22.0257 25.3365 22.0257 27.8656C22.0257 30.3947 19.6141 31.2438 17.7106 31.2438H17.7014Z" fill="#373A36"/>
<path d="M49.2413 5.06738H42.3297L30.2344 38.0001H38.8739L41.2024 30.4037H52.0872L54.4157 38.0001H63.0552L50.9692 5.06738H49.2413ZM43.2814 23.6474L46.654 12.6728L50.0267 23.6474H43.2906H43.2814Z" fill="#373A36"/>
<path d="M87.7685 36.311H80.8569L74.1301 19.0408L73.7143 19.1311L73.9269 21.1544C74.5182 26.7546 74.8139 32.3728 74.8139 38.0001H67.043V5.06738H75.6825L84.322 27.143L92.9615 5.06738H101.601V38.0001H93.83C93.83 32.3728 94.1257 26.7546 94.7171 21.1544L94.9296 19.1311L94.5138 19.0408L87.787 36.311H87.7685Z" fill="#373A36"/>
<path d="M121.208 5.06738H108.938V38.0001H116.708V27.0707C116.801 26.9894 116.847 26.9443 116.949 26.863C123.925 27.5404 133.987 28.805 133.987 15.6987C133.987 7.77715 127.464 5.06738 121.199 5.06738H121.208ZM116.718 21.2266V11.1463H119.832C123.047 11.1463 127.085 11.9954 127.085 15.8071C127.085 22.7893 120.497 21.7776 116.718 21.2266Z" fill="#373A36"/>
<path d="M7.77093 0H0V7.59639H7.77093V0Z" fill="#F5C01B"/>
</g>
<defs>
<clipPath id="clip0_429_2652">
<rect width="134" height="38" fill="white"/>
</clipPath>
</defs>
</svg>
