<svg width="300" height="121" viewBox="0 0 300 121" fill="none" xmlns="http://www.w3.org/2000/svg">
<path d="M289.076 37.917H281.261H56.8943H46.9842H37.0742V120.545H298.998V37.917H289.088H289.076Z" stroke="#2EA7E0" stroke-width="0.5" stroke-miterlimit="10"/>
<path d="M298.99 57.748H37.0664" stroke="#2EA7E0" stroke-width="0.5" stroke-miterlimit="10"/>
<path d="M298.99 100.712H37.0664" stroke="#2EA7E0" stroke-width="0.5" stroke-miterlimit="10"/>
<path d="M279.152 37.917V120.545" stroke="#2EA7E0" stroke-width="0.5" stroke-miterlimit="10"/>
<path d="M56.8984 37.917V120.545" stroke="#2EA7E0" stroke-width="0.5" stroke-miterlimit="10"/>
<path d="M110.371 49.4885V23.6357" stroke="#2EA7E0" stroke-width="0.5" stroke-miterlimit="10"/>
<path d="M120.293 49.4885V23.6357" stroke="#2EA7E0" stroke-width="0.5" stroke-miterlimit="10"/>
<path d="M112.535 27.3438H118.122" stroke="#2EA7E0" stroke-width="0.5" stroke-miterlimit="10"/>
<path d="M112.968 28.8489L110.367 27.3437L112.968 25.8506V28.8489Z" fill="#2EA7E0"/>
<path d="M117.688 28.8489L120.288 27.3437L117.688 25.8506V28.8489Z" fill="#2EA7E0"/>
<path d="M115.39 19.7374C114.975 19.7374 114.598 19.6593 114.26 19.503C113.922 19.3439 113.654 19.1152 113.455 18.8169C113.256 18.5158 113.157 18.1522 113.157 17.726C113.157 17.351 113.23 17.0471 113.378 16.8141C113.526 16.5783 113.723 16.3936 113.971 16.2601C114.218 16.1266 114.49 16.0272 114.789 15.9618C115.09 15.8936 115.392 15.8397 115.696 15.7999C116.094 15.7488 116.417 15.7104 116.664 15.6848C116.914 15.6564 117.096 15.6096 117.209 15.5442C117.326 15.4789 117.384 15.3652 117.384 15.2033V15.1692C117.384 14.7488 117.269 14.4221 117.039 14.1891C116.811 13.9561 116.466 13.8397 116.003 13.8397C115.523 13.8397 115.147 13.9448 114.874 14.155C114.601 14.3652 114.409 14.5897 114.299 14.8283L113.344 14.4874C113.515 14.0897 113.742 13.78 114.026 13.5584C114.313 13.334 114.625 13.1777 114.963 13.0897C115.304 12.9988 115.64 12.9533 115.969 12.9533C116.179 12.9533 116.421 12.9789 116.694 13.03C116.969 13.0783 117.235 13.1792 117.49 13.3326C117.749 13.486 117.963 13.7175 118.134 14.0272C118.304 14.3368 118.39 14.7516 118.39 15.2715V19.584H117.384V18.6976H117.333C117.265 18.8397 117.151 18.9917 116.992 19.1536C116.833 19.3155 116.621 19.4533 116.357 19.5669C116.093 19.6806 115.77 19.7374 115.39 19.7374ZM115.543 18.834C115.941 18.834 116.276 18.7559 116.549 18.5996C116.824 18.4434 117.032 18.2417 117.171 17.9945C117.313 17.7473 117.384 17.4874 117.384 17.2147V16.2942C117.341 16.3453 117.248 16.3922 117.103 16.4348C116.961 16.4746 116.796 16.5101 116.608 16.5414C116.424 16.5698 116.243 16.5953 116.067 16.6181C115.894 16.638 115.753 16.655 115.645 16.6692C115.384 16.7033 115.14 16.7587 114.912 16.8354C114.688 16.9093 114.506 17.0215 114.367 17.1721C114.23 17.3198 114.162 17.5215 114.162 17.7772C114.162 18.1266 114.292 18.3908 114.55 18.5698C114.811 18.7459 115.142 18.834 115.543 18.834Z" fill="#2EA7E0"/>
<path d="M19.7109 55.5932V40.084" stroke="#2EA7E0" stroke-width="0.5" stroke-miterlimit="10"/>
<path d="M21.2174 55.1475L19.7122 57.7484L18.207 55.1475H21.2174Z" fill="#2EA7E0"/>
<path d="M21.2174 40.5179L19.7122 37.917L18.207 40.5179H21.2174Z" fill="#2EA7E0"/>
<path d="M12 52.8232H11.233L8.07955 49.9425C7.71023 49.6044 7.3892 49.326 7.11648 49.1072C6.84091 48.8885 6.58239 48.7266 6.34091 48.6214C6.09659 48.5135 5.84091 48.4595 5.57386 48.4595C5.26705 48.4595 5.00142 48.5334 4.77699 48.6811C4.55256 48.826 4.37926 49.0249 4.2571 49.2777C4.13494 49.5305 4.07386 49.8146 4.07386 50.13C4.07386 50.4652 4.14347 50.7578 4.28267 51.0078C4.41903 51.255 4.6108 51.4467 4.85795 51.5831C5.10511 51.7166 5.39489 51.7834 5.72727 51.7834V52.7891C5.21591 52.7891 4.76705 52.6712 4.38068 52.4354C3.99432 52.1996 3.69318 51.8786 3.47727 51.4723C3.26136 51.0632 3.15341 50.6044 3.15341 50.0959C3.15341 49.5845 3.26136 49.1314 3.47727 48.7365C3.69318 48.3416 3.98437 48.032 4.35085 47.8075C4.71733 47.5831 5.125 47.4709 5.57386 47.4709C5.89489 47.4709 6.20881 47.5291 6.51562 47.6456C6.8196 47.7592 7.15909 47.9581 7.53409 48.2422C7.90625 48.5234 8.3608 48.9141 8.89773 49.4141L10.9943 51.3743H11.0625V47.3175H12V52.8232ZM12.1534 43.6143C12.1534 44.0291 12.0753 44.4055 11.919 44.7436C11.7599 45.0817 11.5312 45.3501 11.233 45.549C10.9318 45.7479 10.5682 45.8473 10.142 45.8473C9.76705 45.8473 9.46307 45.7734 9.23011 45.6257C8.99432 45.478 8.80966 45.2805 8.67614 45.0334C8.54261 44.7862 8.44318 44.5135 8.37784 44.2152C8.30966 43.9141 8.25568 43.6115 8.21591 43.3075C8.16477 42.9098 8.12642 42.5874 8.10085 42.3402C8.07244 42.0902 8.02557 41.9084 7.96023 41.7947C7.89489 41.6783 7.78125 41.62 7.61932 41.62H7.58523C7.16477 41.62 6.83807 41.7351 6.60511 41.9652C6.37216 42.1925 6.25568 42.5376 6.25568 43.0007C6.25568 43.4808 6.3608 43.8572 6.57102 44.13C6.78125 44.4027 7.00568 44.5945 7.24432 44.7053L6.90341 45.6598C6.50568 45.4893 6.19602 45.2621 5.97443 44.978C5.75 44.6911 5.59375 44.3786 5.50568 44.0405C5.41477 43.6996 5.36932 43.3643 5.36932 43.0348C5.36932 42.8246 5.39489 42.5831 5.44602 42.3104C5.49432 42.0348 5.59517 41.7692 5.74858 41.5135C5.90199 41.255 6.13352 41.0405 6.44318 40.87C6.75284 40.6996 7.16761 40.6143 7.6875 40.6143H12V41.62H11.1136V41.6712C11.2557 41.7393 11.4077 41.853 11.5696 42.0121C11.7315 42.1712 11.8693 42.3828 11.983 42.647C12.0966 42.9112 12.1534 43.2337 12.1534 43.6143ZM11.25 43.4609C11.25 43.0632 11.1719 42.728 11.0156 42.4553C10.8594 42.1797 10.6577 41.9723 10.4105 41.8331C10.1634 41.6911 9.90341 41.62 9.63068 41.62H8.71023C8.76136 41.6626 8.80824 41.7564 8.85085 41.9013C8.89062 42.0433 8.92614 42.2081 8.95739 42.3956C8.9858 42.5803 9.01136 42.7607 9.03409 42.9368C9.05398 43.1101 9.07102 43.2507 9.08523 43.3587C9.11932 43.62 9.17472 43.8643 9.25142 44.0916C9.32528 44.3161 9.4375 44.4979 9.58807 44.6371C9.7358 44.7734 9.9375 44.8416 10.1932 44.8416C10.5426 44.8416 10.8068 44.7124 10.9858 44.4538C11.1619 44.1925 11.25 43.8615 11.25 43.4609Z" fill="#2EA7E0"/>
<path d="M34.9556 37.917H14.4492" stroke="#2EA7E0" stroke-width="0.5" stroke-miterlimit="10"/>
<path d="M34.9556 57.748H14.4492" stroke="#2EA7E0" stroke-width="0.5" stroke-miterlimit="10"/>
<path d="M39.2227 20.5654H54.7319" stroke="#2EA7E0" stroke-width="0.5" stroke-miterlimit="10"/>
<path d="M39.6673 22.0706L37.0664 20.5654L39.6673 19.0723V22.0706Z" fill="#2EA7E0"/>
<path d="M54.2969 22.0706L56.8978 20.5654L54.2969 19.0723V22.0706Z" fill="#2EA7E0"/>
<path d="M41.9893 12.8535V12.0865L44.87 8.93306C45.2081 8.56374 45.4865 8.24272 45.7053 7.96999C45.924 7.69442 46.0859 7.4359 46.1911 7.19442C46.299 6.95011 46.353 6.69442 46.353 6.42738C46.353 6.12056 46.2791 5.85494 46.1314 5.6305C45.9865 5.40607 45.7876 5.23278 45.5348 5.11062C45.282 4.98846 44.9979 4.92738 44.6825 4.92738C44.3473 4.92738 44.0547 4.99698 43.8047 5.13619C43.5575 5.27255 43.3658 5.46431 43.2294 5.71147C43.0959 5.95863 43.0291 6.2484 43.0291 6.58079H42.0234C42.0234 6.06942 42.1413 5.62056 42.3771 5.2342C42.6129 4.84783 42.9339 4.5467 43.3402 4.33079C43.7493 4.11488 44.2081 4.00692 44.7166 4.00692C45.228 4.00692 45.6811 4.11488 46.076 4.33079C46.4709 4.5467 46.7805 4.83789 47.005 5.20437C47.2294 5.57085 47.3416 5.97852 47.3416 6.42738C47.3416 6.7484 47.2834 7.06232 47.1669 7.36914C47.0533 7.67312 46.8544 8.01261 46.5703 8.38761C46.2891 8.75977 45.8984 9.21431 45.3984 9.75124L43.4382 11.8478V11.916H47.495V12.8535H41.9893ZM51.1982 13.0069C50.7834 13.0069 50.407 12.9288 50.0689 12.7725C49.7308 12.6135 49.4624 12.3848 49.2635 12.0865C49.0646 11.7853 48.9652 11.4217 48.9652 10.9956C48.9652 10.6206 49.0391 10.3166 49.1868 10.0836C49.3345 9.84783 49.532 9.66317 49.7791 9.52965C50.0263 9.39613 50.299 9.2967 50.5973 9.23136C50.8984 9.16317 51.201 9.1092 51.505 9.06942C51.9027 9.01829 52.2251 8.97994 52.4723 8.95437C52.7223 8.92596 52.9041 8.87908 53.0178 8.81374C53.1342 8.7484 53.1925 8.63477 53.1925 8.47283V8.43874C53.1925 8.01829 53.0774 7.69158 52.8473 7.45863C52.62 7.22567 52.2749 7.1092 51.8118 7.1092C51.3317 7.1092 50.9553 7.21431 50.6825 7.42454C50.4098 7.63477 50.218 7.8592 50.1072 8.09783L49.1527 7.75692C49.3232 7.3592 49.5504 7.04954 49.8345 6.82795C50.1214 6.60352 50.4339 6.44727 50.772 6.3592C51.1129 6.26829 51.4482 6.22283 51.7777 6.22283C51.9879 6.22283 52.2294 6.2484 52.5021 6.29954C52.7777 6.34783 53.0433 6.44869 53.299 6.60209C53.5575 6.7555 53.772 6.98704 53.9425 7.2967C54.1129 7.60636 54.1982 8.02113 54.1982 8.54102V12.8535H53.1925V11.9672H53.1413C53.0732 12.1092 52.9595 12.2612 52.8004 12.4231C52.6413 12.585 52.4297 12.7228 52.1655 12.8365C51.9013 12.9501 51.5788 13.0069 51.1982 13.0069ZM51.3516 12.1035C51.7493 12.1035 52.0845 12.0254 52.3572 11.8691C52.6328 11.7129 52.8402 11.5112 52.9794 11.264C53.1214 11.0169 53.1925 10.7569 53.1925 10.4842V9.56374C53.1499 9.61488 53.0561 9.66175 52.9112 9.70437C52.7692 9.74414 52.6044 9.77965 52.4169 9.8109C52.2322 9.83931 52.0518 9.86488 51.8757 9.88761C51.7024 9.90749 51.5618 9.92454 51.4538 9.93874C51.1925 9.97283 50.9482 10.0282 50.7209 10.1049C50.4964 10.1788 50.3146 10.291 50.1754 10.4416C50.0391 10.5893 49.9709 10.791 49.9709 11.0467C49.9709 11.3961 50.1001 11.6603 50.3587 11.8393C50.62 12.0154 50.951 12.1035 51.3516 12.1035Z" fill="#2EA7E0"/>
<path d="M56.8984 35.8101V15.3037" stroke="#2EA7E0" stroke-width="0.5" stroke-miterlimit="10"/>
<path d="M37.0664 35.8101V15.3037" stroke="#2EA7E0" stroke-width="0.5" stroke-miterlimit="10"/>
<path opacity="0.2" d="M56.8985 37.917H37.0664V120.545H56.8985V37.917Z" fill="#2EA7E0"/>
<path opacity="0.2" d="M298.984 37.917H279.152V120.545H298.984V37.917Z" fill="#2EA7E0"/>
<path opacity="0.2" d="M56.8789 37.9159V57.748L279.138 57.748V37.9159L56.8789 37.9159Z" fill="#2EA7E0"/>
<path opacity="0.2" d="M56.8984 100.713V120.545L279.158 120.545V100.713L56.8984 100.713Z" fill="#2EA7E0"/>
<path d="M56.8945 62.9501V94.8476L81.4348 105.89L105.963 94.8476V62.9501L81.4348 51.9082L56.8945 62.9501Z" fill="#373A36"/>
<path d="M124.695 57.748V65.4545H131.86C134.292 65.4545 136.267 66.9838 136.267 69.3077C136.267 72.0652 134.292 74.2688 131.86 74.2688H124.695V65.4545H114.785V100.712H134.063C141.348 100.712 147.285 95.883 147.285 88.598C147.285 83.5647 143.937 79.7115 139.458 77.7969C139.458 77.5561 139.458 77.532 139.458 77.2912C142.854 75.798 145.081 73.0406 145.081 68.7659C145.081 61.6013 139.145 57.748 131.86 57.748H124.695ZM132.956 91.8973H124.695V81.9873H131.86C135.159 81.9873 138.47 84.1908 138.47 87.4902C138.47 90.7895 135.4 91.8973 132.968 91.8973H132.956Z" fill="#373A36"/>
<path d="M173.181 57.748H164.366L148.941 100.712H159.959L162.933 90.8015H176.817L179.791 100.712H190.809L175.384 57.748H173.181ZM165.583 81.9873L169.881 67.6701L174.18 81.9873H165.583Z" fill="#373A36"/>
<path d="M222.305 98.508H213.491L204.918 75.9786L204.388 76.0991L204.665 78.7361C205.411 86.0332 205.797 93.3663 205.797 100.712H195.887V57.748H206.905L217.922 86.5509L228.94 57.748H239.958V100.712H230.048C230.048 93.3663 230.421 86.0332 231.18 78.7361L231.457 76.0991L230.927 75.9786L222.354 98.508H222.305Z" fill="#373A36"/>
<path d="M264.958 57.7474H249.316V100.711H259.226V86.454C259.347 86.3456 259.407 86.2854 259.527 86.177C268.426 87.0681 281.262 88.7057 281.262 71.607C281.262 61.2755 272.942 57.7354 264.958 57.7354V57.7474ZM259.226 78.8318V65.6826H263.188C267.282 65.6826 272.448 66.7904 272.448 71.7635C272.448 80.8668 264.043 79.5543 259.226 78.8318Z" fill="#373A36"/>
<path d="M81.4384 73.1251L102.029 63.8653L81.4384 54.6055L60.8477 63.8653L81.4384 73.1251Z" fill="#F5C01B"/>
<path d="M82.6602 75.2679V102.65L103.516 93.2577V65.8877L82.6602 75.2679Z" fill="white"/>
<path d="M80.2072 75.2679L59.3516 65.8877V93.2577L80.2072 102.65V75.2679Z" fill="white"/>
<path d="M120.281 51.1377H110.371V61.0477H120.281V51.1377Z" fill="#F5C01B"/>
</svg>
