<svg width="280" height="120" viewBox="0 0 280 120" fill="none" xmlns="http://www.w3.org/2000/svg">
<path d="M34.5195 44.4616V74.737L57.8143 85.2191L81.0979 74.737V44.4616L57.8143 33.9795L34.5195 44.4616Z" fill="#373A36"/>
<path d="M98.8725 39.5215V46.8366H105.664C107.972 46.8366 109.845 48.2863 109.845 50.4942C109.845 53.1036 107.972 55.2 105.664 55.2H98.8725V46.8366H89.4609V80.3013H107.76C114.674 80.3013 120.305 75.7181 120.305 68.8044C120.305 64.0317 117.127 60.363 112.878 58.5565C112.878 58.3335 112.878 58.3112 112.878 58.077C116.101 56.6608 118.209 54.0403 118.209 49.9813C118.209 43.1791 112.577 39.5215 105.664 39.5215H98.8725ZM106.712 71.9379H98.8725V62.5263H105.664C108.797 62.5263 111.942 64.6227 111.942 67.7562C111.942 70.8897 109.02 71.9379 106.712 71.9379Z" fill="#373A36"/>
<path d="M144.884 39.5215H136.52L121.879 80.3013H132.339L135.16 70.8897H148.329L151.151 80.3013H161.61L146.969 39.5215H144.873H144.884ZM137.669 62.5263L141.75 48.9331L145.832 62.5263H137.68H137.669Z" fill="#373A36"/>
<path d="M191.516 78.2053H183.153L175.012 56.8173L174.51 56.9288L174.767 59.4379C175.481 66.3627 175.837 73.3322 175.837 80.2905H166.426V39.5107H176.886L187.345 66.8422L197.805 39.5107H208.265V80.2905H198.853C198.853 73.321 199.21 66.3627 199.924 59.4379L200.18 56.9288L199.679 56.8173L191.538 78.2053H191.516Z" fill="#373A36"/>
<path d="M231.994 39.5215H217.141V80.3013H226.552V66.7749C226.664 66.6746 226.719 66.6188 226.842 66.5184C235.284 67.3659 247.472 68.9159 247.472 52.691C247.472 42.8891 239.577 39.5215 231.994 39.5215ZM226.552 59.5267V47.0485H230.321C234.213 47.0485 239.108 48.1079 239.108 52.8137C239.108 61.4558 231.135 60.2069 226.563 59.5267H226.552Z" fill="#373A36"/>
<path d="M57.8136 54.1186L77.3504 45.3315L57.8136 36.5332L38.2656 45.3315L57.8136 54.1186Z" fill="#F5C01B"/>
<path d="M58.9727 56.1471V82.1404L78.766 73.2307V47.2373L58.9727 56.1471Z" fill="white"/>
<path d="M56.6449 56.1471L36.8516 47.2373V73.2307L56.6449 82.1404V56.1471Z" fill="white"/>
<path d="M94.6889 33.2432H85.2773V42.6547H94.6889V33.2432Z" fill="#F5C01B"/>
<path d="M15.6992 26.4076V15" stroke="#9FA0A0" stroke-width="0.5"/>
<path d="M21.4076 20.6982H10" stroke="#9FA0A0" stroke-width="0.5"/>
<path d="M264.301 26.4076V15" stroke="#9FA0A0" stroke-width="0.5"/>
<path d="M269.997 20.6982H258.59" stroke="#9FA0A0" stroke-width="0.5"/>
<path d="M15.6992 104.823V93.415" stroke="#9FA0A0" stroke-width="0.5"/>
<path d="M21.4076 99.125H10" stroke="#9FA0A0" stroke-width="0.5"/>
<path d="M264.301 104.823V93.415" stroke="#9FA0A0" stroke-width="0.5"/>
<path d="M269.997 99.125H258.59" stroke="#9FA0A0" stroke-width="0.5"/>
</svg>
