<svg width="354" height="30" viewBox="0 0 354 30" fill="none" xmlns="http://www.w3.org/2000/svg">
<path d="M46.776 9.56L47.016 11.336H47.112C47.704 10.76 48.352 10.264 49.056 9.848C49.76 9.432 50.568 9.224 51.48 9.224C52.936 9.224 53.992 9.704 54.648 10.664C55.304 11.608 55.632 12.928 55.632 14.624V23H52.104V15.056C52.104 14.016 51.952 13.288 51.648 12.872C51.36 12.456 50.88 12.248 50.208 12.248C49.648 12.248 49.168 12.376 48.768 12.632C48.368 12.888 47.912 13.264 47.4 13.76V23H43.896V9.56H46.776ZM64.887 23.336C64.055 23.336 63.247 23.176 62.463 22.856C61.679 22.536 60.991 22.08 60.399 21.488C59.807 20.88 59.327 20.144 58.959 19.28C58.607 18.4 58.431 17.408 58.431 16.304C58.431 15.184 58.607 14.184 58.959 13.304C59.327 12.424 59.807 11.688 60.399 11.096C60.991 10.488 61.679 10.024 62.463 9.704C63.247 9.384 64.055 9.224 64.887 9.224C65.735 9.224 66.543 9.384 67.311 9.704C68.095 10.024 68.783 10.488 69.375 11.096C69.967 11.688 70.439 12.424 70.791 13.304C71.159 14.184 71.343 15.184 71.343 16.304C71.343 17.408 71.159 18.4 70.791 19.28C70.439 20.144 69.967 20.88 69.375 21.488C68.783 22.08 68.095 22.536 67.311 22.856C66.543 23.176 65.735 23.336 64.887 23.336ZM64.887 20.456C65.799 20.456 66.503 20.08 66.999 19.328C67.495 18.576 67.743 17.568 67.743 16.304C67.743 15.008 67.495 13.984 66.999 13.232C66.503 12.48 65.799 12.104 64.887 12.104C63.975 12.104 63.271 12.48 62.775 13.232C62.279 13.984 62.031 15.008 62.031 16.304C62.031 17.568 62.279 18.576 62.775 19.328C63.271 20.08 63.975 20.456 64.887 20.456ZM78.5348 23.336C77.7348 23.336 77.0548 23.216 76.4948 22.976C75.9348 22.736 75.4788 22.4 75.1268 21.968C74.7748 21.52 74.5188 20.984 74.3588 20.36C74.1988 19.736 74.1188 19.048 74.1188 18.296V12.344H72.2228V9.728L74.2868 9.56L74.6948 5.96H77.6468V9.56H80.9588V12.344H77.6468V18.296C77.6468 19.8 78.2548 20.552 79.4708 20.552C79.6948 20.552 79.9268 20.528 80.1668 20.48C80.4068 20.416 80.6148 20.344 80.7908 20.264L81.3668 22.832C80.9988 22.96 80.5828 23.072 80.1188 23.168C79.6548 23.28 79.1268 23.336 78.5348 23.336ZM88.8636 23.336C88.0316 23.336 87.2236 23.176 86.4396 22.856C85.6556 22.536 84.9676 22.08 84.3756 21.488C83.7836 20.88 83.3036 20.144 82.9356 19.28C82.5836 18.4 82.4076 17.408 82.4076 16.304C82.4076 15.184 82.5836 14.184 82.9356 13.304C83.3036 12.424 83.7836 11.688 84.3756 11.096C84.9676 10.488 85.6556 10.024 86.4396 9.704C87.2236 9.384 88.0316 9.224 88.8636 9.224C89.7116 9.224 90.5196 9.384 91.2876 9.704C92.0716 10.024 92.7596 10.488 93.3516 11.096C93.9436 11.688 94.4156 12.424 94.7676 13.304C95.1356 14.184 95.3196 15.184 95.3196 16.304C95.3196 17.408 95.1356 18.4 94.7676 19.28C94.4156 20.144 93.9436 20.88 93.3516 21.488C92.7596 22.08 92.0716 22.536 91.2876 22.856C90.5196 23.176 89.7116 23.336 88.8636 23.336ZM88.8636 20.456C89.7756 20.456 90.4796 20.08 90.9756 19.328C91.4716 18.576 91.7196 17.568 91.7196 16.304C91.7196 15.008 91.4716 13.984 90.9756 13.232C90.4796 12.48 89.7756 12.104 88.8636 12.104C87.9516 12.104 87.2476 12.48 86.7516 13.232C86.2556 13.984 86.0076 15.008 86.0076 16.304C86.0076 17.568 86.2556 18.576 86.7516 19.328C87.2476 20.08 87.9516 20.456 88.8636 20.456ZM107.549 23.336C106.637 23.336 105.725 23.16 104.812 22.808C103.901 22.456 103.109 22 102.437 21.44L104.045 19.232C104.653 19.696 105.245 20.056 105.821 20.312C106.413 20.568 107.021 20.696 107.645 20.696C108.317 20.696 108.805 20.568 109.109 20.312C109.429 20.04 109.589 19.696 109.589 19.28C109.589 19.024 109.509 18.808 109.349 18.632C109.189 18.44 108.973 18.272 108.701 18.128C108.445 17.968 108.149 17.824 107.812 17.696C107.477 17.552 107.133 17.408 106.781 17.264C106.349 17.104 105.917 16.92 105.485 16.712C105.053 16.488 104.661 16.224 104.309 15.92C103.957 15.6 103.669 15.232 103.445 14.816C103.221 14.4 103.109 13.912 103.109 13.352C103.109 12.744 103.229 12.192 103.469 11.696C103.709 11.184 104.045 10.744 104.477 10.376C104.909 10.008 105.429 9.728 106.037 9.536C106.661 9.328 107.349 9.224 108.101 9.224C109.109 9.224 109.981 9.4 110.717 9.752C111.469 10.088 112.125 10.464 112.685 10.88L111.101 13.016C110.621 12.68 110.141 12.408 109.661 12.2C109.197 11.976 108.709 11.864 108.197 11.864C107.589 11.864 107.141 11.984 106.853 12.224C106.565 12.464 106.421 12.776 106.421 13.16C106.421 13.4 106.493 13.608 106.637 13.784C106.797 13.96 107.005 14.12 107.261 14.264C107.517 14.408 107.805 14.544 108.125 14.672C108.461 14.784 108.805 14.904 109.157 15.032C109.605 15.208 110.045 15.4 110.477 15.608C110.925 15.816 111.325 16.072 111.677 16.376C112.045 16.68 112.341 17.056 112.565 17.504C112.789 17.936 112.901 18.464 112.901 19.088C112.901 19.68 112.781 20.232 112.541 20.744C112.317 21.256 111.981 21.704 111.533 22.088C111.085 22.472 110.525 22.776 109.853 23C109.197 23.224 108.429 23.336 107.549 23.336ZM118.903 23.24C118.311 23.24 117.767 23.152 117.271 22.976C116.775 22.784 116.351 22.52 115.999 22.184C115.663 21.832 115.399 21.416 115.207 20.936C115.015 20.456 114.919 19.928 114.919 19.352C114.839 17.704 115.407 16.488 116.623 15.704C117.855 14.904 119.863 14.464 122.647 14.384C122.711 13.824 122.607 13.256 122.335 12.68C122.047 12.264 121.391 12.056 120.367 12.056C119.743 12.056 119.087 12.168 118.399 12.392C117.727 12.616 117.087 12.928 116.479 13.328L115.423 10.808C116.159 10.36 117.007 9.984 117.967 9.68C118.943 9.376 119.959 9.224 121.015 9.224C124.455 9.224 126.175 11.2 126.175 15.152V23H123.295L123.031 21.632H122.959C122.383 22.128 121.751 22.52 121.063 22.808C120.391 23.096 119.671 23.24 118.903 23.24ZM119.983 20.552C120.495 20.536 120.959 20.424 121.375 20.216C121.807 19.992 122.231 19.672 122.647 19.256V16.544C122.231 16.576 121.815 16.616 121.399 16.664C120.999 16.696 120.607 16.744 120.223 16.808C119.455 16.92 118.911 17.152 118.591 17.504C118.287 17.856 118.143 18.272 118.159 18.752C118.175 19.312 118.351 19.752 118.687 20.072C119.039 20.392 119.471 20.552 119.983 20.552ZM132.651 9.56L132.891 11.336H132.987C133.579 10.76 134.227 10.264 134.931 9.848C135.635 9.432 136.443 9.224 137.355 9.224C138.811 9.224 139.867 9.704 140.523 10.664C141.179 11.608 141.507 12.928 141.507 14.624V23H137.979V15.056C137.979 14.016 137.827 13.288 137.523 12.872C137.235 12.456 136.755 12.248 136.083 12.248C135.523 12.248 135.043 12.376 134.643 12.632C134.243 12.888 133.787 13.264 133.275 13.76V23H129.771V9.56H132.651ZM148.986 23.336C148.074 23.336 147.162 23.16 146.25 22.808C145.338 22.456 144.546 22 143.874 21.44L145.482 19.232C146.09 19.696 146.682 20.056 147.258 20.312C147.85 20.568 148.458 20.696 149.082 20.696C149.754 20.696 150.242 20.568 150.546 20.312C150.866 20.04 151.026 19.696 151.026 19.28C151.026 19.024 150.946 18.808 150.786 18.632C150.626 18.44 150.41 18.272 150.138 18.128C149.882 17.968 149.586 17.824 149.25 17.696C148.914 17.552 148.57 17.408 148.218 17.264C147.786 17.104 147.354 16.92 146.922 16.712C146.49 16.488 146.098 16.224 145.746 15.92C145.394 15.6 145.106 15.232 144.882 14.816C144.658 14.4 144.546 13.912 144.546 13.352C144.546 12.744 144.666 12.192 144.906 11.696C145.146 11.184 145.482 10.744 145.914 10.376C146.346 10.008 146.866 9.728 147.474 9.536C148.098 9.328 148.786 9.224 149.538 9.224C150.546 9.224 151.418 9.4 152.154 9.752C152.906 10.088 153.562 10.464 154.122 10.88L152.538 13.016C152.058 12.68 151.578 12.408 151.098 12.2C150.634 11.976 150.146 11.864 149.634 11.864C149.026 11.864 148.578 11.984 148.29 12.224C148.002 12.464 147.858 12.776 147.858 13.16C147.858 13.4 147.93 13.608 148.074 13.784C148.234 13.96 148.442 14.12 148.698 14.264C148.954 14.408 149.242 14.544 149.562 14.672C149.898 14.784 150.242 14.904 150.594 15.032C151.042 15.208 151.482 15.4 151.914 15.608C152.362 15.816 152.762 16.072 153.114 16.376C153.482 16.68 153.778 17.056 154.002 17.504C154.226 17.936 154.338 18.464 154.338 19.088C154.338 19.68 154.218 20.232 153.978 20.744C153.754 21.256 153.418 21.704 152.97 22.088C152.522 22.472 151.962 22.776 151.29 23C150.634 23.224 149.866 23.336 148.986 23.336Z" fill="black"/>
<path d="M7.664 14.28C7.33333 14.664 6.91733 14.968 6.416 15.192C5.92533 15.4053 5.376 15.512 4.768 15.512C4.23467 15.512 3.73867 15.432 3.28 15.272C2.832 15.1013 2.44267 14.8667 2.112 14.568C1.792 14.2587 1.536 13.896 1.344 13.48C1.16267 13.0533 1.072 12.5893 1.072 12.088C1.072 11.5867 1.16267 11.128 1.344 10.712C1.536 10.296 1.792 9.93867 2.112 9.64C2.44267 9.34133 2.832 9.112 3.28 8.952C3.73867 8.78133 4.23467 8.696 4.768 8.696C5.376 8.696 5.92533 8.80267 6.416 9.016C6.91733 9.22933 7.33333 9.52267 7.664 9.896H11.344V7.832H12.672V16.328H11.344V14.28H7.664ZM2.32 12.088C2.32 12.4187 2.37867 12.728 2.496 13.016C2.624 13.2933 2.79467 13.5387 3.008 13.752C3.232 13.9547 3.49333 14.1147 3.792 14.232C4.09067 14.3387 4.416 14.392 4.768 14.392C5.12 14.392 5.44533 14.3387 5.744 14.232C6.04267 14.1147 6.29867 13.9547 6.512 13.752C6.72533 13.5387 6.89067 13.2933 7.008 13.016C7.136 12.728 7.2 12.4187 7.2 12.088C7.2 11.7467 7.136 11.4373 7.008 11.16C6.89067 10.8827 6.72533 10.6427 6.512 10.44C6.29867 10.2373 6.04267 10.0827 5.744 9.976C5.44533 9.85867 5.12 9.8 4.768 9.8C4.416 9.8 4.09067 9.85867 3.792 9.976C3.49333 10.0827 3.232 10.2373 3.008 10.44C2.79467 10.6427 2.624 10.8827 2.496 11.16C2.37867 11.4373 2.32 11.7467 2.32 12.088ZM8.272 10.968C8.38933 11.3733 8.448 11.7467 8.448 12.088C8.448 12.4827 8.384 12.856 8.256 13.208H11.344V10.968H8.272ZM7.92 16.664C8.656 16.664 9.31733 16.728 9.904 16.856C10.5013 16.9733 11.008 17.1493 11.424 17.384C11.84 17.6187 12.16 17.9067 12.384 18.248C12.608 18.5893 12.72 18.9787 12.72 19.416C12.72 19.8533 12.608 20.2427 12.384 20.584C12.16 20.9253 11.84 21.2133 11.424 21.448C11.008 21.6827 10.5013 21.8587 9.904 21.976C9.31733 22.104 8.656 22.168 7.92 22.168C7.184 22.168 6.52267 22.104 5.936 21.976C5.34933 21.8587 4.848 21.6827 4.432 21.448C4.016 21.2133 3.696 20.9253 3.472 20.584C3.25867 20.2427 3.152 19.8533 3.152 19.416C3.152 18.9787 3.25867 18.5893 3.472 18.248C3.696 17.9067 4.016 17.6187 4.432 17.384C4.848 17.1493 5.34933 16.9733 5.936 16.856C6.52267 16.728 7.184 16.664 7.92 16.664ZM7.92 21.128C9.01867 21.128 9.87733 20.9787 10.496 20.68C11.1147 20.3813 11.424 19.96 11.424 19.416C11.424 18.872 11.1147 18.4507 10.496 18.152C9.87733 17.8427 9.01867 17.688 7.92 17.688C6.82133 17.688 5.968 17.8427 5.36 18.152C4.752 18.4507 4.448 18.872 4.448 19.416C4.448 19.96 4.752 20.3813 5.36 20.68C5.968 20.9787 6.82133 21.128 7.92 21.128ZM17.2308 13.544V8.504H26.8788V13.544H17.2308ZM18.5108 9.56V12.488H25.5828V9.56H18.5108ZM28.5748 16.232H22.8148V19.128H21.5028V16.232H15.5348V15.176H28.5748V16.232ZM27.1188 20.792V21.864H17.1988V17.768H18.5108V20.792H27.1188Z" fill="black"/>
<path d="M204 17.336H208.272V22.168H206.96V18.392H198.224V17.336H202.688V14.712H196.848V13.64H206.512C206.704 12.776 206.816 12.0187 206.848 11.368C206.88 10.7173 206.896 10.12 206.896 9.576H198.512V8.52H208.192V9.56C208.192 10.104 208.176 10.7067 208.144 11.368C208.123 12.0187 208.021 12.776 207.84 13.64H209.872V14.712H204V17.336ZM213.231 13.544V8.504H222.879V13.544H213.231ZM214.511 9.56V12.488H221.583V9.56H214.511ZM224.575 16.232H218.815V19.128H217.503V16.232H211.535V15.176H224.575V16.232ZM223.119 20.792V21.864H213.199V17.768H214.511V20.792H223.119Z" fill="black"/>
<path d="M256.336 13.904V25.016H253.168V2.936H256.336V11.288H259.432V13.904H256.336ZM242.872 17C244.28 16.968 245.72 16.888 247.192 16.76C248.68 16.616 250.2 16.392 251.752 16.088L252.064 18.68C250.224 19.064 248.432 19.32 246.688 19.448C244.96 19.576 243.272 19.64 241.624 19.64H239.704V5.048H242.872V17ZM263.63 10.856V3.272H266.798V8.36H278.894V10.856H263.63ZM272.63 17.024H278.678V24.8H263.582V17.024H269.462V15.056H261.134V12.536H281.126V15.056H272.63V17.024ZM266.702 19.496V22.328H275.582V19.496H266.702ZM306.602 16.016C304.666 15.632 303.01 14.936 301.634 13.928C300.274 12.92 299.234 11.712 298.514 10.304C297.794 11.712 296.754 12.928 295.394 13.952C294.034 14.96 292.386 15.648 290.45 16.016L289.106 13.376C290.354 13.168 291.458 12.808 292.418 12.296C293.378 11.768 294.186 11.16 294.842 10.472C295.498 9.784 295.994 9.04 296.33 8.24C296.666 7.424 296.834 6.624 296.834 5.84V4.256H300.218V5.84C300.218 6.64 300.386 7.448 300.722 8.264C301.058 9.064 301.554 9.808 302.21 10.496C302.866 11.184 303.674 11.784 304.634 12.296C305.594 12.808 306.698 13.168 307.946 13.376L306.602 16.016ZM308.642 22.376H288.626V19.808H308.642V22.376ZM330.024 25.064H327.024V2.96H330.024V25.064ZM325.56 3.344V24.032H322.608V19.448H319.128V17.096H322.608V3.344H325.56ZM321.72 15.368C321.048 15.512 320.352 15.632 319.632 15.728C318.928 15.808 318.216 15.88 317.496 15.944V23.336H314.52V16.136C313.112 16.184 311.84 16.208 310.704 16.208L310.392 13.64C311.304 13.64 312.344 13.632 313.512 13.616C314.696 13.584 315.896 13.528 317.112 13.448C317.256 12.744 317.376 12.008 317.472 11.24L311.568 11.72L311.208 9.248L317.664 8.96C317.68 8.656 317.688 8.368 317.688 8.096C317.704 7.824 317.712 7.552 317.712 7.28H311.76V4.76H320.664V6.536C320.664 7.448 320.64 8.448 320.592 9.536C320.544 10.608 320.392 11.84 320.136 13.232C320.312 13.2 320.48 13.176 320.64 13.16L321 13.136C321.176 13.104 321.344 13.08 321.504 13.064L321.72 15.368ZM351.334 25.112H348.166V13.472H344.494C344.414 14.528 344.214 15.48 343.894 16.328C343.59 17.16 343.19 17.872 342.694 18.464C342.198 19.056 341.622 19.512 340.966 19.832C340.31 20.136 339.598 20.288 338.83 20.288C338.014 20.288 337.254 20.104 336.55 19.736C335.846 19.368 335.238 18.84 334.726 18.152C334.23 17.464 333.838 16.632 333.55 15.656C333.262 14.68 333.118 13.584 333.118 12.368C333.118 11.152 333.262 10.064 333.55 9.104C333.838 8.128 334.23 7.304 334.726 6.632C335.238 5.944 335.846 5.416 336.55 5.048C337.254 4.68 338.014 4.496 338.83 4.496C339.582 4.496 340.27 4.648 340.894 4.952C341.534 5.24 342.102 5.664 342.598 6.224C343.094 6.768 343.502 7.44 343.822 8.24C344.142 9.024 344.358 9.912 344.47 10.904H348.166V2.936H351.334V25.112ZM338.83 17.408C339.646 17.408 340.302 16.984 340.798 16.136C341.294 15.272 341.542 14.016 341.542 12.368C341.542 10.72 341.294 9.472 340.798 8.624C340.302 7.776 339.646 7.352 338.83 7.352C338.014 7.352 337.358 7.776 336.862 8.624C336.382 9.472 336.142 10.72 336.142 12.368C336.142 14.016 336.382 15.272 336.862 16.136C337.358 16.984 338.014 17.408 338.83 17.408Z" fill="black"/>
</svg>
