<svg width="587" height="172" viewBox="0 0 587 172" fill="none" xmlns="http://www.w3.org/2000/svg">
<g clip-path="url(#clip0_439_3059)">
<path d="M52.1381 52.4014C31.0158 46.7295 9.24288 53.2117 0.344586 42.4062C0.344586 42.4062 -3.05432 64.7905 11.4975 71.8481C34.3258 82.9227 62.711 76.9789 67.5834 92.646C67.5834 92.646 73.2605 58.0707 52.1381 52.3988V52.4014ZM61.41 79.4124C51.9657 73.1994 40.3739 75.6302 24.0638 69.9583C7.75374 64.2864 4.54554 51.8604 4.54554 51.8604C17.6474 61.0453 30.7467 53.7501 44.1046 57.0203C61.9403 61.3884 61.4074 79.4098 61.4074 79.4098L61.41 79.4124Z" fill="#A0A2CD"/>
<path d="M93.3441 51.0501C91.2855 25.9289 70.8554 19.4466 64.4364 14.8542C58.0174 10.2617 56.254 2.16162 56.2017 0C56.2017 0 36.4954 21.1279 44.1083 42.6781C53.7433 69.9583 76.4698 67.9022 73.7971 94C73.7971 94 94.8542 69.4515 93.3467 51.0527L93.3441 51.0501ZM61.4111 52.1296C42.7811 37.5235 49.1975 15.6645 54.2789 7.83091C54.2789 7.83091 54.0124 14.585 65.7767 22.6877C77.5409 30.7905 97.7332 41.5405 77.8074 82.9227C77.8074 82.9227 80.0411 66.7356 61.4111 52.1296Z" fill="#98CA93"/>
<path d="M119.205 22.7196H122.598C123.837 22.7196 125.101 22.7117 126.386 22.6959C127.672 22.68 128.921 22.6642 130.13 22.6484C131.34 22.6325 132.44 22.5929 133.432 22.5322C133.649 22.5322 133.819 22.6721 133.945 22.9545C134.13 23.361 134.292 23.8862 134.433 24.5276C134.572 25.1689 134.689 25.842 134.781 26.5467C134.875 27.2514 134.95 27.9244 135.013 28.5658C135.076 29.2071 135.107 29.7323 135.107 30.1388C135.107 30.4846 134.99 30.7036 134.76 30.796C134.53 30.8884 134.279 30.9306 134.015 30.9121C133.751 30.8963 133.503 30.8488 133.27 30.7722C133.038 30.6957 132.923 30.6403 132.923 30.6086C132.86 29.4499 132.489 28.4707 131.807 27.6737C131.126 26.8739 130.041 26.3989 128.552 26.2405C127.374 26.1164 126.196 26.1164 125.017 26.2405C124.21 26.3355 123.568 26.5071 123.087 26.7578C122.606 27.0085 122.35 27.6182 122.319 28.5895C122.008 35.1351 122.008 41.8363 122.319 48.6933C122.35 49.6963 122.76 50.3376 123.552 50.6201C124.343 50.9025 125.715 51.0423 127.667 51.0423C127.761 51.0423 127.813 51.1532 127.829 51.3723C127.844 51.5913 127.836 51.8341 127.805 52.1007C127.774 52.3673 127.703 52.6101 127.596 52.8292C127.486 53.0482 127.356 53.1591 127.202 53.1591H125.715C125.065 53.1591 124.351 53.1512 123.575 53.1353C122.799 53.1195 122.018 53.1116 121.227 53.1116H119.205L110.743 53.1591C110.649 53.1591 110.596 53.0641 110.581 52.8767C110.565 52.6893 110.573 52.4781 110.604 52.2432C110.635 52.0083 110.703 51.7893 110.813 51.5861C110.92 51.3828 111.053 51.2799 111.208 51.2799C112.012 51.1849 112.718 51.0925 113.324 50.9975C113.93 50.9025 114.431 50.7705 114.834 50.5989C115.236 50.4274 115.539 50.1925 115.74 49.8942C115.942 49.596 116.056 49.1975 116.088 48.696C116.396 41.839 116.396 35.1377 116.088 28.5921C116.025 27.6209 115.761 27.0112 115.296 26.7604C114.831 26.5097 114.196 26.3382 113.389 26.2431C112.179 26.1191 110.973 26.1191 109.763 26.2431C108.274 26.3989 107.19 26.8766 106.508 27.6763C105.826 28.476 105.455 29.4526 105.392 30.6112C105.392 30.6429 105.282 30.6825 105.066 30.7274C104.849 30.7749 104.608 30.7828 104.344 30.7511C104.081 30.7195 103.84 30.6429 103.623 30.5162C103.407 30.3922 103.297 30.1573 103.297 29.8115C103.297 29.4051 103.328 28.8957 103.391 28.286C103.454 27.6763 103.529 27.0402 103.623 26.383C103.717 25.7258 103.832 25.0924 103.971 24.4801C104.109 23.8704 104.274 23.361 104.459 22.9545C104.582 22.6721 104.755 22.5322 104.972 22.5322C105.933 22.5956 107.025 22.6352 108.25 22.6484C109.476 22.6642 110.73 22.68 112.018 22.6959C113.303 22.7117 114.567 22.7196 115.806 22.7196H119.199H119.205Z" fill="black"/>
<path d="M145.056 34.8391C145.056 35.3406 145.04 35.7708 145.009 36.1297C144.977 36.4913 144.915 36.8424 144.823 37.1855L144.917 37.2805C145.351 36.779 145.753 36.333 146.127 35.9423C146.498 35.5517 146.887 35.1822 147.29 34.8391C147.94 34.2743 148.614 33.72 149.312 33.171C150.009 32.6247 150.73 32.1364 151.475 31.7141C152.219 31.2918 153.001 30.954 153.824 30.7033C154.644 30.4525 155.503 30.3285 156.405 30.3285C160.062 30.3285 161.938 32.3185 162.03 36.2934C162.092 38.36 162.116 40.4266 162.1 42.4932C162.084 44.5598 162.03 46.6264 161.938 48.693C161.907 49.1945 161.977 49.593 162.147 49.8912C162.317 50.1895 162.542 50.4244 162.821 50.5959C163.101 50.7675 163.425 50.8863 163.798 50.947C164.169 51.0103 164.558 51.042 164.961 51.042C165.055 51.042 165.107 51.1528 165.123 51.3719C165.138 51.591 165.131 51.8338 165.099 52.1004C165.068 52.3669 164.997 52.6098 164.89 52.8288C164.781 53.0479 164.65 53.1587 164.496 53.1587H163.451C163.001 53.1587 162.497 53.1508 161.941 53.135C161.382 53.1191 160.817 53.1112 160.243 53.1112H158.638C157.646 53.1112 156.669 53.1191 155.71 53.135C154.748 53.1508 153.944 53.1587 153.293 53.1587C153.199 53.1587 153.147 53.0637 153.131 52.8763C153.116 52.6889 153.123 52.4857 153.155 52.2666C153.186 52.0476 153.254 51.8364 153.364 51.6332C153.471 51.43 153.604 51.3112 153.758 51.2822C154.161 51.1872 154.518 51.0948 154.827 50.9998C155.135 50.9047 155.391 50.7728 155.595 50.6012C155.796 50.4297 155.958 50.1948 156.083 49.8965C156.206 49.5983 156.285 49.1997 156.316 48.6983C156.439 47.1331 156.509 45.5918 156.525 44.0715C156.541 42.5539 156.486 41.0099 156.363 39.4447C156.269 38.2861 156.123 37.3623 155.921 36.6734C155.72 35.9846 155.472 35.4593 155.177 35.1004C154.882 34.7414 154.534 34.5224 154.132 34.4432C153.729 34.3667 153.28 34.3719 152.784 34.4669C151.948 34.6253 150.837 35.1717 149.461 36.1113C148.081 37.0509 146.647 38.3494 145.16 40.0096C144.944 42.9207 144.944 45.8187 145.16 48.6983C145.223 49.7012 145.5 50.3426 145.996 50.625C146.493 50.9074 147.143 51.0473 147.948 51.0473C148.042 51.0473 148.094 51.1581 148.11 51.3772C148.126 51.5963 148.118 51.8391 148.086 52.1056C148.055 52.3722 147.985 52.615 147.877 52.8341C147.768 53.0532 147.637 53.164 147.483 53.164H146.459C146.025 53.164 145.552 53.1561 145.04 53.1403C144.528 53.1244 143.995 53.1165 143.436 53.1165H141.856C140.863 53.1165 139.857 53.1244 138.833 53.1403C137.809 53.1561 136.973 53.164 136.322 53.164C136.228 53.164 136.173 53.069 136.16 52.8816C136.145 52.6942 136.152 52.491 136.184 52.2719C136.215 52.0529 136.283 51.8417 136.393 51.6385C136.5 51.4352 136.633 51.3165 136.787 51.2874C137.19 51.1924 137.56 51.1001 137.903 51.005C138.242 50.91 138.53 50.7781 138.762 50.6065C138.995 50.4349 139.18 50.2 139.321 49.9018C139.46 49.6036 139.546 49.205 139.577 48.7035C139.886 41.4084 139.886 34.0948 139.577 26.768C139.515 25.7651 139.175 25.1237 138.553 24.8413C137.931 24.5589 137.221 24.419 136.414 24.419C136.32 24.419 136.267 24.3187 136.252 24.1128C136.236 23.9096 136.244 23.6905 136.275 23.4556C136.306 23.2207 136.374 22.9937 136.484 22.7747C136.594 22.5556 136.724 22.4316 136.879 22.3999C137.187 22.3366 137.662 22.2363 138.297 22.0937C138.932 21.9539 139.598 21.7876 140.296 21.6002C140.993 21.4128 141.66 21.2096 142.294 20.9905C142.929 20.7714 143.418 20.5365 143.76 20.2858C143.791 20.2541 143.891 20.2383 144.063 20.2383C144.236 20.2383 144.411 20.27 144.599 20.3333C144.784 20.3966 144.946 20.4811 145.087 20.592C145.226 20.7028 145.296 20.8348 145.296 20.9905C145.296 21.0855 145.288 21.1541 145.273 21.2016C145.257 21.2491 145.241 21.36 145.226 21.5316C145.21 21.7031 145.194 21.9618 145.179 22.3075C145.163 22.6533 145.155 23.1521 145.155 23.8093L145.061 34.847L145.056 34.8391Z" fill="black"/>
<path d="M176.951 31.1761V31.3873C176.951 31.4348 176.943 31.543 176.928 31.7172C176.912 31.8888 176.896 32.1474 176.881 32.4932C176.865 32.8389 176.841 33.3378 176.81 33.995C176.562 38.912 176.562 43.8133 176.81 48.6961C176.873 49.699 177.15 50.3404 177.646 50.6228C178.142 50.9052 178.793 51.0451 179.598 51.0451C179.692 51.0451 179.744 51.1559 179.76 51.375C179.775 51.5941 179.767 51.8369 179.736 52.1035C179.705 52.37 179.634 52.6128 179.527 52.8319C179.417 53.051 179.287 53.1618 179.133 53.1618C178.636 53.1618 177.907 53.1539 176.949 53.1381C175.987 53.1222 175.01 53.1143 174.02 53.1143H172.463C171.888 53.1143 171.324 53.1222 170.765 53.1381C170.206 53.1539 169.68 53.1618 169.184 53.1618H167.975C167.88 53.1618 167.828 53.0668 167.813 52.8794C167.797 52.692 167.805 52.4888 167.836 52.2697C167.867 52.0507 167.935 51.8395 168.045 51.6363C168.152 51.4331 168.285 51.3143 168.44 51.2853C168.842 51.1902 169.208 51.0979 169.532 51.0028C169.858 50.9078 170.143 50.7759 170.391 50.6043C170.639 50.4327 170.833 50.1978 170.971 49.8996C171.11 49.6014 171.196 49.2028 171.227 48.7013C171.475 44.7872 171.475 40.8731 171.227 36.9589C171.164 35.9877 170.825 35.3542 170.203 35.056C169.581 34.7577 168.871 34.6099 168.063 34.6099C167.969 34.6099 167.917 34.5096 167.901 34.3038C167.886 34.1005 167.894 33.8815 167.925 33.6466C167.956 33.4117 168.024 33.1847 168.134 32.9656C168.244 32.7466 168.374 32.6225 168.528 32.5908C168.839 32.5275 169.312 32.4272 169.947 32.2847C170.582 32.1448 171.248 31.9785 171.946 31.7911C172.643 31.6037 173.309 31.4005 173.944 31.1814C174.579 30.9624 175.068 30.7275 175.41 30.4767C175.441 30.445 175.54 30.4292 175.713 30.4292C175.885 30.4292 176.06 30.4609 176.248 30.5242C176.434 30.5876 176.596 30.672 176.737 30.7829C176.875 30.8937 176.946 31.0257 176.946 31.1814L176.951 31.1761ZM174.161 27.4177C173.542 27.4811 172.967 27.4811 172.442 27.4177C171.914 27.3544 171.528 27.2937 171.279 27.2303L171.185 27.1353C171.031 26.8529 170.874 26.4227 170.72 25.8447C170.564 25.2667 170.519 24.5989 170.582 23.8493C170.645 22.7223 170.953 21.8461 171.512 21.2179C172.071 20.5924 172.954 20.2783 174.161 20.2783C175.245 20.2783 176.12 20.6003 176.789 21.2417C177.455 21.883 177.79 22.754 177.79 23.8493C177.79 24.9447 177.463 25.7998 176.813 26.4095C176.162 27.0192 175.279 27.357 174.164 27.4204L174.161 27.4177Z" fill="black"/>
<path d="M182.717 53.1587C182.623 53.1587 182.57 53.0637 182.555 52.8763C182.539 52.6889 182.547 52.4857 182.578 52.2666C182.61 52.0475 182.678 51.8364 182.787 51.6332C182.894 51.4299 183.028 51.3111 183.182 51.2821C183.584 51.1871 183.95 51.0947 184.274 50.9997C184.6 50.9047 184.885 50.7727 185.133 50.6012C185.381 50.4296 185.575 50.1947 185.713 49.8965C185.852 49.5982 185.938 49.1997 185.969 48.6982C186.217 44.7841 186.217 40.8699 185.969 36.9558C185.907 35.9845 185.567 35.3511 184.945 35.0528C184.323 34.7546 183.613 34.6068 182.806 34.6068C182.711 34.6068 182.659 34.5065 182.644 34.3006C182.628 34.0974 182.636 33.8783 182.667 33.6434C182.698 33.4085 182.766 33.1815 182.876 32.9625C182.986 32.7434 183.116 32.6194 183.271 32.5877C183.581 32.5243 184.054 32.424 184.689 32.2815C185.324 32.1416 185.99 31.9754 186.688 31.788C187.385 31.6006 188.051 31.3973 188.686 31.1783C189.321 30.9592 189.81 30.7243 190.152 30.4736C190.183 30.4419 190.283 30.4261 190.455 30.4261C190.627 30.4261 190.802 30.4577 190.991 30.5211C191.176 30.5844 191.338 30.6689 191.479 30.7797C191.618 30.8906 191.688 31.0226 191.688 31.1783V31.3894C191.688 31.4369 191.68 31.5452 191.665 31.7193C191.649 31.8909 191.633 32.1496 191.618 32.4953C191.602 32.8411 191.578 33.3399 191.547 33.9971L191.5 34.8417C191.469 35.3432 191.445 35.7734 191.429 36.1323C191.414 36.4939 191.359 36.8449 191.268 37.1881L191.362 37.2831C191.795 36.7816 192.205 36.3355 192.595 35.9449C192.981 35.5543 193.378 35.1848 193.781 34.8417C194.431 34.2769 195.105 33.7226 195.803 33.1736C196.5 32.6273 197.229 32.139 197.987 31.7167C198.747 31.2944 199.536 30.9566 200.359 30.7058C201.179 30.4551 202.039 30.3311 202.94 30.3311C206.598 30.3311 208.474 32.3211 208.565 36.296C208.628 38.3626 208.651 40.4292 208.636 42.4958C208.62 44.5624 208.565 46.629 208.474 48.6956C208.442 49.197 208.513 49.5956 208.683 49.8938C208.853 50.1921 209.077 50.427 209.357 50.5985C209.636 50.7701 209.96 50.8889 210.334 50.9496C210.705 51.0129 211.094 51.0446 211.496 51.0446C211.59 51.0446 211.643 51.1554 211.658 51.3745C211.674 51.5936 211.666 51.8364 211.635 52.103C211.603 52.3695 211.533 52.6123 211.426 52.8314C211.316 53.0505 211.185 53.1613 211.031 53.1613H209.986C209.537 53.1613 209.033 53.1534 208.476 53.1376C207.917 53.1217 207.353 53.1138 206.778 53.1138H205.174C204.181 53.1138 203.204 53.1217 202.245 53.1376C201.284 53.1534 200.479 53.1613 199.829 53.1613C199.735 53.1613 199.682 53.0663 199.667 52.8789C199.651 52.6915 199.659 52.4883 199.69 52.2692C199.722 52.0502 199.79 51.839 199.899 51.6358C200.006 51.4326 200.14 51.3138 200.294 51.2848C200.696 51.1897 201.054 51.0974 201.362 51.0023C201.671 50.9073 201.927 50.7754 202.13 50.6038C202.332 50.4322 202.494 50.1973 202.619 49.8991C202.742 49.6009 202.82 49.2023 202.852 48.7008C202.974 47.1357 203.045 45.5943 203.061 44.0741C203.076 42.5565 203.021 41.0125 202.899 39.4473C202.804 38.3203 202.658 37.4045 202.457 36.6998C202.256 35.9951 202.008 35.4698 201.712 35.1267C201.417 34.7836 201.07 34.5619 200.667 34.4695C200.265 34.3745 199.816 34.3745 199.319 34.4695C198.483 34.6279 197.35 35.1742 195.926 36.1138C194.499 37.0534 193.044 38.352 191.555 40.0121C191.338 42.9233 191.338 45.8213 191.555 48.7008C191.618 49.7038 191.895 50.3452 192.391 50.6276C192.887 50.91 193.538 51.0499 194.342 51.0499C194.437 51.0499 194.489 51.1607 194.504 51.3798C194.52 51.5988 194.512 51.8417 194.481 52.1082C194.45 52.3748 194.379 52.6176 194.272 52.8367C194.162 53.0558 194.032 53.1666 193.877 53.1666H192.853C192.42 53.1666 191.947 53.1587 191.435 53.1429C190.923 53.127 190.39 53.1191 189.831 53.1191H188.25C187.257 53.1191 186.251 53.127 185.227 53.1429C184.203 53.1587 183.367 53.1666 182.717 53.1666V53.1587Z" fill="black"/>
<path d="M222.842 21.2179V21.4291C222.842 21.4766 222.834 21.5848 222.818 21.759C222.803 21.9305 222.787 22.1892 222.771 22.535C222.756 22.8807 222.732 23.3795 222.701 24.0367C222.515 28.1699 222.421 32.2794 222.421 36.3677C222.421 40.4561 222.497 44.5655 222.654 48.6987C222.716 49.7017 222.993 50.343 223.49 50.6254C223.986 50.9078 224.637 51.0477 225.441 51.0477C225.535 51.0477 225.588 51.1586 225.603 51.3776C225.619 51.5967 225.611 51.8395 225.58 52.1061C225.548 52.3727 225.478 52.6155 225.371 52.8345C225.261 53.0536 225.13 53.1645 224.976 53.1645C224.48 53.1645 223.751 53.1565 222.792 53.1407C221.831 53.1249 220.854 53.117 219.864 53.117H218.283C217.724 53.117 217.175 53.1249 216.632 53.1407C216.088 53.1565 215.568 53.1645 215.075 53.1645H213.865C213.771 53.1645 213.716 53.0695 213.703 52.8821C213.687 52.6947 213.695 52.4914 213.727 52.2724C213.758 52.0533 213.826 51.8422 213.936 51.6389C214.043 51.4357 214.176 51.3169 214.33 51.2879C214.732 51.1929 215.103 51.1005 215.446 51.0055C215.785 50.9105 216.073 50.7785 216.305 50.607C216.538 50.4354 216.723 50.2005 216.864 49.9022C217.003 49.604 217.089 49.2055 217.12 48.704C217.429 41.4696 217.429 34.2378 217.12 27.0034C217.058 26.0004 216.718 25.359 216.096 25.0766C215.474 24.7942 214.764 24.6543 213.957 24.6543C213.863 24.6543 213.81 24.554 213.795 24.3482C213.779 24.145 213.787 23.918 213.818 23.6672C213.849 23.4165 213.917 23.1895 214.027 22.9863C214.137 22.7831 214.267 22.6669 214.422 22.6353C214.824 22.5719 215.352 22.4716 216.002 22.3291C216.653 22.1892 217.311 22.0229 217.977 21.8355C218.643 21.6481 219.278 21.4449 219.884 21.2258C220.488 21.0068 220.961 20.7719 221.303 20.5211C221.334 20.4895 221.434 20.4736 221.606 20.4736C221.778 20.4736 221.954 20.5053 222.142 20.5686C222.327 20.632 222.489 20.7165 222.63 20.8273C222.769 20.9382 222.839 21.0701 222.839 21.2258L222.842 21.2179ZM236.137 49.5882C236.385 50.0896 236.772 50.3483 237.3 50.3641C237.827 50.38 238.337 50.3562 238.833 50.2929C238.927 50.2929 238.979 50.38 238.995 50.5515C239.011 50.7231 239.003 50.9263 238.972 51.1612C238.94 51.3961 238.885 51.631 238.81 51.8659C238.731 52.1008 238.632 52.2803 238.507 52.407C238.381 52.5627 238.112 52.6894 237.694 52.7818C237.276 52.8741 236.803 52.9533 236.275 53.0167C235.748 53.08 235.189 53.1249 234.601 53.1565C234.013 53.1882 233.485 53.2041 233.02 53.2041C232.461 53.2041 232.004 53.1645 231.649 53.0879C231.291 53.0087 231.014 52.9005 230.813 52.758C230.611 52.6181 230.47 52.4598 230.395 52.2882C230.316 52.1166 230.261 51.9504 230.233 51.7947C229.984 50.636 229.621 49.5011 229.141 48.3899C228.66 47.2787 228.072 46.26 227.375 45.3362C226.677 44.4124 225.878 43.6391 224.979 43.0109C224.08 42.3854 223.103 41.9948 222.05 41.8364C221.893 41.8048 221.755 41.781 221.632 41.7652C221.507 41.7493 221.415 41.7097 221.353 41.649C221.29 41.5857 221.235 41.4696 221.191 41.298C221.144 41.1264 221.12 41.0077 221.12 40.947C221.12 40.6962 221.175 40.5564 221.282 40.5247C221.389 40.493 221.63 40.3056 222.003 39.9599C222.996 39.1469 223.963 38.2997 224.908 37.4235C225.854 36.5472 226.729 35.7026 227.537 34.8871C227.908 34.5123 228.117 34.1824 228.164 33.8999C228.211 33.6175 228.148 33.3826 227.978 33.1952C227.808 33.0078 227.544 32.8732 227.186 32.7967C226.829 32.7202 226.45 32.6806 226.047 32.6806C225.985 32.6806 225.953 32.5856 225.953 32.3982C225.953 32.2108 225.969 32.0075 226 31.7885C226.032 31.5694 226.094 31.3662 226.186 31.1788C226.28 30.9914 226.387 30.8964 226.512 30.8964C227.009 30.8964 227.636 30.9122 228.396 30.9439C229.156 30.9756 230.107 30.9914 231.257 30.9914C232.558 30.9914 233.752 30.9439 234.836 30.8515C235.92 30.7565 236.788 30.6641 237.441 30.5691C237.503 30.5691 237.54 30.6641 237.556 30.8515C237.571 31.0389 237.571 31.258 237.556 31.5087C237.54 31.7594 237.493 31.9943 237.417 32.2134C237.339 32.4325 237.239 32.5592 237.114 32.5882C236.618 32.7149 236.006 32.963 235.277 33.3404C234.549 33.7152 233.78 34.185 232.976 34.7498C231.829 35.5654 230.643 36.4416 229.418 37.3812C228.192 38.3208 227.006 39.1971 225.862 40.0126C225.582 40.2 225.102 40.3742 224.42 40.53L224.467 40.625C225.086 40.5933 225.551 40.5933 225.862 40.625C226.915 40.7833 227.947 41.1185 228.953 41.6358C229.958 42.1532 230.904 42.8024 231.79 43.5863C232.673 44.3702 233.488 45.2781 234.23 46.3101C234.974 47.3447 235.609 48.4401 236.137 49.5987V49.5882Z" fill="black"/>
<path d="M119.812 78.8894C119.655 73.9116 119.655 68.9312 119.812 63.9534C119.843 62.9505 119.532 62.2695 118.882 61.9106C118.231 61.5516 117.332 61.3695 116.185 61.3695C116.091 61.3695 116.039 61.2745 116.023 61.0871C116.008 60.8997 116.016 60.6886 116.047 60.4537C116.078 60.2188 116.146 60.0076 116.256 59.8202C116.363 59.6328 116.496 59.5378 116.65 59.5378C117.301 59.5378 118.208 59.5537 119.37 59.5853C120.533 59.617 121.766 59.6328 123.067 59.6328C123.563 59.6328 124.135 59.6249 124.786 59.6091C125.436 59.5932 126.087 59.5853 126.737 59.5853C127.388 59.5853 127.999 59.5774 128.574 59.5616C129.149 59.5457 129.603 59.5378 129.946 59.5378C130.04 59.5378 130.092 59.6487 130.108 59.8677C130.123 60.0868 130.115 60.3217 130.084 60.5724C130.053 60.8232 129.982 61.0581 129.875 61.2771C129.765 61.4962 129.635 61.6071 129.481 61.6071C128.334 61.6071 127.498 61.7469 126.97 62.0294C126.442 62.3118 126.147 62.9531 126.087 63.9561C125.745 68.9339 125.745 73.9143 126.087 78.8921C126.181 80.5206 126.513 81.8983 127.088 83.0253C127.662 84.1523 128.396 85.0285 129.298 85.6567C130.196 86.2822 131.21 86.6913 132.344 86.8787C133.475 87.0661 134.646 87.0371 135.855 86.7837C137.499 86.4406 138.823 85.5089 139.832 83.9886C140.837 82.471 141.451 80.3173 141.668 77.5302C141.822 75.2128 141.901 72.9113 141.901 70.6257C141.901 68.34 141.822 66.1177 141.668 63.9561C141.605 62.9531 141.258 62.2722 140.623 61.9132C139.988 61.5543 139.019 61.3722 137.718 61.3722C137.624 61.3722 137.572 61.2771 137.556 61.0898C137.54 60.9024 137.548 60.6912 137.579 60.4563C137.611 60.2214 137.679 60.0103 137.788 59.8229C137.896 59.6355 138.029 59.5405 138.183 59.5405C138.834 59.5405 139.654 59.5563 140.647 59.588C141.637 59.6196 142.46 59.6355 143.11 59.6355C143.513 59.6355 144.001 59.6196 144.576 59.588C145.151 59.5563 145.723 59.5167 146.298 59.4718C146.87 59.4243 147.405 59.3768 147.902 59.332C148.398 59.2844 148.769 59.2449 149.017 59.2158C149.111 59.2158 149.163 59.3188 149.179 59.522C149.195 59.7252 149.187 59.9522 149.156 60.2029C149.124 60.4537 149.056 60.6886 148.947 60.9076C148.837 61.1267 148.706 61.2534 148.552 61.2824C147.559 61.4091 146.778 61.6335 146.203 61.9634C145.629 62.2933 145.36 62.9584 145.391 63.9587C145.454 65.9303 145.485 67.9916 145.485 70.1348C145.485 72.2779 145.454 74.4316 145.391 76.5932C145.234 80.7264 144.315 84.0388 142.624 86.5277C140.934 89.0166 138.293 90.5131 134.698 91.0146C132.25 91.3577 130.11 91.3207 128.281 90.8984C126.453 90.4761 124.917 89.7318 123.678 88.6682C122.437 87.6045 121.499 86.2426 120.864 84.5825C120.23 82.9223 119.88 81.0299 119.819 78.9L119.812 78.8894Z" fill="black"/>
<path d="M150.174 90.0679C150.08 90.0679 150.027 89.9728 150.012 89.7855C149.996 89.5981 150.004 89.3948 150.035 89.1758C150.067 88.9567 150.135 88.7456 150.244 88.5423C150.351 88.3391 150.485 88.2203 150.639 88.1913C151.041 88.0963 151.407 88.0039 151.731 87.9089C152.057 87.8139 152.342 87.6819 152.59 87.5103C152.839 87.3388 153.032 87.1039 153.17 86.8056C153.309 86.5074 153.395 86.1089 153.426 85.6074C153.675 81.6932 153.675 77.7791 153.426 73.865C153.364 72.8937 153.024 72.2603 152.402 71.962C151.78 71.6638 151.07 71.516 150.263 71.516C150.168 71.516 150.116 71.4157 150.101 71.2098C150.085 71.0066 150.093 70.7875 150.124 70.5526C150.155 70.3177 150.223 70.0907 150.333 69.8717C150.443 69.6526 150.573 69.5285 150.728 69.4969C151.038 69.4335 151.511 69.3332 152.146 69.1907C152.781 69.0508 153.447 68.8845 154.145 68.6971C154.842 68.5098 155.509 68.3065 156.143 68.0875C156.778 67.8684 157.267 67.6335 157.609 67.3828C157.64 67.3511 157.74 67.3353 157.912 67.3353C158.084 67.3353 158.26 67.3669 158.448 67.4303C158.633 67.4936 158.795 67.5781 158.936 67.6889C159.075 67.7998 159.145 67.9317 159.145 68.0875V68.2986C159.145 68.3461 159.137 68.4543 159.122 68.6285C159.106 68.8001 159.09 69.0587 159.075 69.4045C159.059 69.7502 159.035 70.2491 159.004 70.9063L158.957 71.7509C158.926 72.2523 158.902 72.6825 158.887 73.0415C158.871 73.4031 158.816 73.7541 158.725 74.0972L158.819 74.1923C159.252 73.6908 159.662 73.2447 160.052 72.8541C160.438 72.4635 160.835 72.094 161.238 71.7509C161.888 71.186 162.562 70.6318 163.26 70.0828C163.957 69.5365 164.686 69.0482 165.444 68.6259C166.204 68.2036 166.993 67.8658 167.816 67.615C168.637 67.3643 169.496 67.2402 170.397 67.2402C174.055 67.2402 175.931 69.2303 176.022 73.2051C176.085 75.2717 176.108 77.3383 176.093 79.4049C176.077 81.4715 176.022 83.5381 175.931 85.6047C175.899 86.1062 175.97 86.5048 176.14 86.803C176.31 87.1013 176.534 87.3361 176.814 87.5077C177.093 87.6793 177.417 87.798 177.791 87.8587C178.162 87.9221 178.551 87.9538 178.953 87.9538C179.047 87.9538 179.1 88.0646 179.115 88.2837C179.131 88.5027 179.123 88.7456 179.092 89.0121C179.061 89.2787 178.99 89.5215 178.883 89.7406C178.773 89.9597 178.643 90.0705 178.488 90.0705H177.443C176.994 90.0705 176.49 90.0626 175.933 90.0468C175.374 90.0309 174.81 90.023 174.235 90.023H172.631C171.638 90.023 170.661 90.0309 169.702 90.0468C168.741 90.0626 167.936 90.0705 167.286 90.0705C167.192 90.0705 167.14 89.9755 167.124 89.7881C167.108 89.6007 167.116 89.3975 167.147 89.1784C167.179 88.9593 167.247 88.7482 167.356 88.545C167.463 88.3417 167.597 88.223 167.751 88.1939C168.153 88.0989 168.511 88.0065 168.819 87.9115C169.128 87.8165 169.384 87.6845 169.587 87.513C169.789 87.3414 169.951 87.1065 170.076 86.8083C170.199 86.51 170.277 86.1115 170.309 85.61C170.431 84.0449 170.502 82.5035 170.518 80.9833C170.533 79.4656 170.478 77.9216 170.356 76.3565C170.262 75.2295 170.115 74.3137 169.914 73.609C169.713 72.9043 169.465 72.379 169.169 72.0359C168.874 71.6928 168.527 71.4711 168.124 71.3787C167.722 71.2837 167.273 71.2837 166.776 71.3787C165.94 71.5371 164.807 72.0834 163.383 73.023C161.956 73.9626 160.501 75.2612 159.012 76.9213C158.795 79.8325 158.795 82.7305 159.012 85.61C159.075 86.613 159.352 87.2543 159.848 87.5367C160.344 87.8192 160.995 87.959 161.8 87.959C161.894 87.959 161.946 88.0699 161.961 88.289C161.977 88.508 161.969 88.7508 161.938 89.0174C161.907 89.284 161.836 89.5268 161.729 89.7459C161.619 89.9649 161.489 90.0758 161.334 90.0758H160.31C159.877 90.0758 159.404 90.0679 158.892 90.052C158.38 90.0362 157.847 90.0283 157.288 90.0283H155.707C154.714 90.0283 153.708 90.0362 152.684 90.052C151.66 90.0679 150.824 90.0758 150.174 90.0758V90.0679Z" fill="black"/>
<path d="M190.9 68.0843V68.2955C190.9 68.343 190.893 68.4512 190.877 68.6254C190.861 68.797 190.846 69.0556 190.83 69.4014C190.814 69.7471 190.791 70.246 190.759 70.9032C190.511 75.8202 190.511 80.7215 190.759 85.6043C190.822 86.6072 191.099 87.2486 191.595 87.531C192.092 87.8134 192.742 87.9533 193.547 87.9533C193.641 87.9533 193.693 88.0641 193.709 88.2832C193.725 88.5023 193.717 88.7451 193.685 89.0117C193.654 89.2782 193.583 89.521 193.476 89.7401C193.367 89.9592 193.236 90.07 193.082 90.07C192.585 90.07 191.857 90.0621 190.898 90.0463C189.936 90.0304 188.959 90.0225 187.969 90.0225H186.412C185.837 90.0225 185.273 90.0304 184.714 90.0463C184.155 90.0621 183.63 90.07 183.133 90.07H181.924C181.83 90.07 181.777 89.975 181.762 89.7876C181.746 89.6002 181.754 89.397 181.785 89.1779C181.817 88.9589 181.885 88.7477 181.994 88.5445C182.101 88.3413 182.235 88.2225 182.389 88.1935C182.791 88.0984 183.157 88.0061 183.481 87.911C183.807 87.816 184.092 87.6841 184.34 87.5125C184.589 87.341 184.782 87.106 184.92 86.8078C185.059 86.5096 185.145 86.111 185.176 85.6095C185.425 81.6954 185.425 77.7813 185.176 73.8671C185.114 72.8959 184.774 72.2624 184.152 71.9642C183.53 71.6659 182.82 71.5181 182.013 71.5181C181.918 71.5181 181.866 71.4178 181.851 71.212C181.835 71.0087 181.843 70.7897 181.874 70.5548C181.905 70.3199 181.973 70.0929 182.083 69.8738C182.193 69.6547 182.323 69.5307 182.478 69.499C182.788 69.4357 183.261 69.3354 183.896 69.1929C184.531 69.053 185.197 68.8867 185.895 68.6993C186.592 68.5119 187.259 68.3087 187.893 68.0896C188.528 67.8706 189.017 67.6357 189.359 67.3849C189.39 67.3533 189.49 67.3374 189.662 67.3374C189.834 67.3374 190.01 67.3691 190.198 67.4324C190.383 67.4958 190.545 67.5802 190.686 67.6911C190.825 67.8019 190.895 67.9339 190.895 68.0896L190.9 68.0843ZM188.11 64.3259C187.491 64.3893 186.916 64.3893 186.391 64.3259C185.863 64.2626 185.477 64.2019 185.229 64.1385L185.135 64.0435C184.98 63.7611 184.824 63.3309 184.669 62.7529C184.513 62.1749 184.468 61.5071 184.531 60.7575C184.594 59.6305 184.902 58.7543 185.461 58.1261C186.02 57.5006 186.903 57.1865 188.11 57.1865C189.194 57.1865 190.07 57.5085 190.738 58.1499C191.405 58.7912 191.739 59.6622 191.739 60.7575C191.739 61.8529 191.412 62.708 190.762 63.3177C190.111 63.9274 189.228 64.2652 188.113 64.3286L188.11 64.3259Z" fill="black"/>
<path d="M215.633 72.2201C216.004 71.2172 215.928 70.5283 215.4 70.1535C214.873 69.7787 213.867 69.5887 212.378 69.5887C212.315 69.5887 212.284 69.4937 212.284 69.3063C212.284 69.1189 212.299 68.9157 212.331 68.6966C212.362 68.4776 212.425 68.2743 212.516 68.0869C212.61 67.8995 212.717 67.8045 212.843 67.8045C213.339 67.8045 213.997 67.8124 214.818 67.8283C215.638 67.8441 216.701 67.852 218.003 67.852C218.807 67.852 219.567 67.8204 220.281 67.757C220.994 67.6937 221.676 67.6013 222.326 67.4746C222.389 67.4746 222.426 67.5696 222.444 67.757C222.46 67.9444 222.452 68.1635 222.42 68.4142C222.389 68.6649 222.334 68.8999 222.258 69.1189C222.18 69.338 222.096 69.4647 222.002 69.4937C221.66 69.6204 221.297 69.8236 220.91 70.1034C220.524 70.3858 220.111 71.0113 219.677 71.9826C218.53 74.4557 217.305 76.8363 216.004 79.122C214.703 81.4077 213.399 83.7884 212.098 86.2614C211.476 87.3884 211.145 88.2726 211.098 88.9166C211.051 89.5606 210.996 89.9407 210.936 90.0673C210.904 90.1307 210.525 90.2231 209.797 90.3498C209.068 90.4738 208.208 90.5371 207.215 90.5371C207.061 90.5371 206.951 90.4896 206.889 90.3973C205.091 87.0796 203.448 83.9071 201.962 80.8851C200.472 77.863 199.08 74.9439 197.776 72.1251C197.343 71.1538 196.901 70.4887 196.452 70.1298C196.002 69.7708 195.529 69.5887 195.033 69.5887C194.939 69.5887 194.887 69.4937 194.871 69.3063C194.855 69.1189 194.863 68.9157 194.895 68.6966C194.926 68.4776 194.994 68.2743 195.104 68.0869C195.211 67.8995 195.344 67.8045 195.498 67.8045C195.995 67.8045 196.776 67.8204 197.847 67.852C198.915 67.8837 199.947 67.8995 200.937 67.8995C202.084 67.8995 203.255 67.8837 204.449 67.852C205.643 67.8204 206.565 67.8045 207.215 67.8045C207.278 67.8045 207.309 67.9075 207.309 68.1107C207.309 68.3139 207.286 68.5488 207.239 68.8154C207.192 69.082 207.129 69.3169 207.053 69.5201C206.975 69.7233 206.876 69.8263 206.75 69.8263C205.449 69.8263 204.564 69.9661 204.101 70.2486C203.636 70.531 203.621 71.1723 204.054 72.1753C204.859 74.1469 205.758 76.1686 206.75 78.2352C207.74 80.3018 208.812 82.3209 209.959 84.2951H210.053C211.199 82.1335 212.252 80.0379 213.214 78.0003C214.175 75.9654 214.98 74.0386 215.63 72.2228L215.633 72.2201Z" fill="black"/>
</g>
<path d="M391 34.0602V61.2102L411.89 70.6102L432.77 61.2102V34.0602L411.89 24.6602L391 34.0602Z" fill="#373A36"/>
<path d="M448.71 29.6299V36.1899H454.8C456.87 36.1899 458.55 37.4899 458.55 39.4699C458.55 41.8099 456.87 43.6899 454.8 43.6899H448.71V36.1899H440.27V66.1999H456.68C462.88 66.1999 467.93 62.0899 467.93 55.8899C467.93 51.6099 465.08 48.3199 461.27 46.6999C461.27 46.4999 461.27 46.4799 461.27 46.2699C464.16 44.9999 466.05 42.6499 466.05 39.0099C466.05 32.9099 461 29.6299 454.8 29.6299H448.71ZM455.74 58.6999H448.71V50.2599H454.8C457.61 50.2599 460.43 52.1399 460.43 54.9499C460.43 57.7599 457.81 58.6999 455.74 58.6999Z" fill="#373A36"/>
<path d="M489.97 29.6299H482.47L469.34 66.1999H478.72L481.25 57.7599H493.06L495.59 66.1999H504.97L491.84 29.6299H489.96H489.97ZM483.5 50.2599L487.16 38.0699L490.82 50.2599H483.51H483.5Z" fill="#373A36"/>
<path d="M531.789 64.3201H524.289L516.989 45.1401L516.539 45.2401L516.769 47.4901C517.409 53.7001 517.729 59.9501 517.729 66.1901H509.289V29.6201H518.669L528.049 54.1301L537.429 29.6201H546.809V66.1901H538.369C538.369 59.9401 538.689 53.7001 539.329 47.4901L539.559 45.2401L539.109 45.1401L531.809 64.3201H531.789Z" fill="#373A36"/>
<path d="M568.09 29.6299H554.77V66.1999H563.21V54.0699C563.31 53.9799 563.36 53.9299 563.47 53.8399C571.04 54.5999 581.97 55.9899 581.97 41.4399C581.97 32.6499 574.89 29.6299 568.09 29.6299ZM563.21 47.5699V36.3799H566.59C570.08 36.3799 574.47 37.3299 574.47 41.5499C574.47 49.2999 567.32 48.1799 563.22 47.5699H563.21Z" fill="#373A36"/>
<path d="M411.889 42.7202L429.409 34.8402L411.889 26.9502L394.359 34.8402L411.889 42.7202Z" fill="#F5C01B"/>
<path d="M412.93 44.5398V67.8498L430.68 59.8598V36.5498L412.93 44.5398Z" fill="white"/>
<path d="M410.84 44.5398L393.09 36.5498V59.8598L410.84 67.8498V44.5398Z" fill="white"/>
<path d="M444.96 24H436.52V32.44H444.96V24Z" fill="#F5C01B"/>
<path d="M108.72 166H100.848V164.976L104.896 161.088C105.205 160.757 105.488 160.448 105.744 160.16C106.011 159.861 106.235 159.563 106.416 159.264C106.608 158.965 106.757 158.667 106.864 158.368C106.971 158.059 107.024 157.733 107.024 157.392C107.003 156.688 106.789 156.171 106.384 155.84C105.979 155.499 105.472 155.328 104.864 155.328C104.533 155.328 104.224 155.387 103.936 155.504C103.648 155.611 103.397 155.771 103.184 155.984C102.981 156.187 102.821 156.427 102.704 156.704C102.587 156.981 102.528 157.291 102.528 157.632L101.088 157.392C101.163 156.848 101.312 156.373 101.536 155.968C101.76 155.552 102.037 155.205 102.368 154.928C102.709 154.64 103.099 154.427 103.536 154.288C103.973 154.139 104.443 154.064 104.944 154.064C105.445 154.064 105.909 154.139 106.336 154.288C106.773 154.437 107.152 154.656 107.472 154.944C107.792 155.221 108.043 155.563 108.224 155.968C108.405 156.373 108.496 156.837 108.496 157.36C108.496 157.797 108.432 158.203 108.304 158.576C108.176 158.949 108 159.312 107.776 159.664C107.552 160.005 107.291 160.341 106.992 160.672C106.693 160.992 106.379 161.317 106.048 161.648L102.768 164.896C102.992 164.832 103.216 164.784 103.44 164.752C103.675 164.72 103.893 164.704 104.096 164.704H108.72V166ZM118.635 160.16C118.635 161.195 118.523 162.096 118.299 162.864C118.075 163.621 117.771 164.251 117.387 164.752C117.003 165.253 116.55 165.627 116.027 165.872C115.505 166.107 114.939 166.224 114.331 166.224C113.723 166.224 113.158 166.107 112.635 165.872C112.113 165.627 111.654 165.253 111.259 164.752C110.875 164.251 110.571 163.621 110.347 162.864C110.134 162.096 110.027 161.195 110.027 160.16C110.027 159.115 110.134 158.213 110.347 157.456C110.571 156.688 110.875 156.053 111.259 155.552C111.654 155.051 112.113 154.683 112.635 154.448C113.158 154.203 113.723 154.08 114.331 154.08C114.939 154.08 115.505 154.203 116.027 154.448C116.55 154.683 117.003 155.051 117.387 155.552C117.771 156.053 118.075 156.688 118.299 157.456C118.523 158.213 118.635 159.115 118.635 160.16ZM117.163 160.16C117.163 159.243 117.083 158.475 116.923 157.856C116.774 157.227 116.566 156.725 116.299 156.352C116.043 155.968 115.745 155.696 115.403 155.536C115.062 155.365 114.705 155.28 114.331 155.28C113.958 155.28 113.601 155.365 113.259 155.536C112.918 155.696 112.619 155.968 112.363 156.352C112.107 156.725 111.899 157.227 111.739 157.856C111.59 158.475 111.515 159.243 111.515 160.16C111.515 161.067 111.59 161.835 111.739 162.464C111.899 163.083 112.107 163.584 112.363 163.968C112.619 164.352 112.918 164.629 113.259 164.8C113.601 164.96 113.958 165.04 114.331 165.04C114.705 165.04 115.062 164.96 115.403 164.8C115.745 164.629 116.043 164.352 116.299 163.968C116.566 163.584 116.774 163.083 116.923 162.464C117.083 161.835 117.163 161.067 117.163 160.16ZM128.167 160.16C128.167 161.195 128.055 162.096 127.831 162.864C127.607 163.621 127.303 164.251 126.919 164.752C126.535 165.253 126.081 165.627 125.559 165.872C125.036 166.107 124.471 166.224 123.863 166.224C123.255 166.224 122.689 166.107 122.167 165.872C121.644 165.627 121.185 165.253 120.791 164.752C120.407 164.251 120.103 163.621 119.879 162.864C119.665 162.096 119.559 161.195 119.559 160.16C119.559 159.115 119.665 158.213 119.879 157.456C120.103 156.688 120.407 156.053 120.791 155.552C121.185 155.051 121.644 154.683 122.167 154.448C122.689 154.203 123.255 154.08 123.863 154.08C124.471 154.08 125.036 154.203 125.559 154.448C126.081 154.683 126.535 155.051 126.919 155.552C127.303 156.053 127.607 156.688 127.831 157.456C128.055 158.213 128.167 159.115 128.167 160.16ZM126.695 160.16C126.695 159.243 126.615 158.475 126.455 157.856C126.305 157.227 126.097 156.725 125.831 156.352C125.575 155.968 125.276 155.696 124.935 155.536C124.593 155.365 124.236 155.28 123.863 155.28C123.489 155.28 123.132 155.365 122.791 155.536C122.449 155.696 122.151 155.968 121.895 156.352C121.639 156.725 121.431 157.227 121.271 157.856C121.121 158.475 121.047 159.243 121.047 160.16C121.047 161.067 121.121 161.835 121.271 162.464C121.431 163.083 121.639 163.584 121.895 163.968C122.151 164.352 122.449 164.629 122.791 164.8C123.132 164.96 123.489 165.04 123.863 165.04C124.236 165.04 124.593 164.96 124.935 164.8C125.276 164.629 125.575 164.352 125.831 163.968C126.097 163.584 126.305 163.083 126.455 162.464C126.615 161.835 126.695 161.067 126.695 160.16ZM132.45 158.64C132.311 158.832 132.194 158.992 132.098 159.12C132.012 159.248 131.943 159.344 131.89 159.408C132.178 159.216 132.487 159.067 132.818 158.96C133.148 158.853 133.511 158.8 133.906 158.8C134.386 158.8 134.839 158.88 135.266 159.04C135.692 159.189 136.066 159.419 136.386 159.728C136.706 160.027 136.956 160.395 137.138 160.832C137.33 161.269 137.426 161.771 137.426 162.336C137.426 162.88 137.324 163.387 137.122 163.856C136.93 164.325 136.652 164.736 136.29 165.088C135.938 165.44 135.511 165.717 135.01 165.92C134.508 166.112 133.959 166.208 133.362 166.208C132.764 166.208 132.22 166.112 131.73 165.92C131.25 165.728 130.839 165.456 130.498 165.104C130.156 164.752 129.89 164.331 129.698 163.84C129.516 163.339 129.426 162.784 129.426 162.176C129.426 161.653 129.538 161.099 129.762 160.512C129.996 159.915 130.37 159.28 130.882 158.608L134.146 154.208H135.986L132.45 158.64ZM133.33 164.976C133.714 164.976 134.066 164.912 134.386 164.784C134.716 164.656 134.994 164.48 135.218 164.256C135.452 164.032 135.634 163.765 135.762 163.456C135.89 163.147 135.954 162.811 135.954 162.448C135.954 162.064 135.89 161.717 135.762 161.408C135.634 161.088 135.458 160.821 135.234 160.608C135.01 160.395 134.743 160.229 134.434 160.112C134.124 159.995 133.788 159.936 133.426 159.936C133.031 159.936 132.674 160.005 132.354 160.144C132.044 160.272 131.778 160.453 131.554 160.688C131.33 160.912 131.154 161.173 131.026 161.472C130.908 161.771 130.85 162.085 130.85 162.416C130.85 163.184 131.063 163.803 131.49 164.272C131.916 164.741 132.53 164.976 133.33 164.976Z" fill="#999999"/>
<path d="M474.72 166H466.848V164.976L470.896 161.088C471.205 160.757 471.488 160.448 471.744 160.16C472.011 159.861 472.235 159.563 472.416 159.264C472.608 158.965 472.757 158.667 472.864 158.368C472.971 158.059 473.024 157.733 473.024 157.392C473.003 156.688 472.789 156.171 472.384 155.84C471.979 155.499 471.472 155.328 470.864 155.328C470.533 155.328 470.224 155.387 469.936 155.504C469.648 155.611 469.397 155.771 469.184 155.984C468.981 156.187 468.821 156.427 468.704 156.704C468.587 156.981 468.528 157.291 468.528 157.632L467.088 157.392C467.163 156.848 467.312 156.373 467.536 155.968C467.76 155.552 468.037 155.205 468.368 154.928C468.709 154.64 469.099 154.427 469.536 154.288C469.973 154.139 470.443 154.064 470.944 154.064C471.445 154.064 471.909 154.139 472.336 154.288C472.773 154.437 473.152 154.656 473.472 154.944C473.792 155.221 474.043 155.563 474.224 155.968C474.405 156.373 474.496 156.837 474.496 157.36C474.496 157.797 474.432 158.203 474.304 158.576C474.176 158.949 474 159.312 473.776 159.664C473.552 160.005 473.291 160.341 472.992 160.672C472.693 160.992 472.379 161.317 472.048 161.648L468.768 164.896C468.992 164.832 469.216 164.784 469.44 164.752C469.675 164.72 469.893 164.704 470.096 164.704H474.72V166ZM484.635 160.16C484.635 161.195 484.523 162.096 484.299 162.864C484.075 163.621 483.771 164.251 483.387 164.752C483.003 165.253 482.55 165.627 482.027 165.872C481.505 166.107 480.939 166.224 480.331 166.224C479.723 166.224 479.158 166.107 478.635 165.872C478.113 165.627 477.654 165.253 477.259 164.752C476.875 164.251 476.571 163.621 476.347 162.864C476.134 162.096 476.027 161.195 476.027 160.16C476.027 159.115 476.134 158.213 476.347 157.456C476.571 156.688 476.875 156.053 477.259 155.552C477.654 155.051 478.113 154.683 478.635 154.448C479.158 154.203 479.723 154.08 480.331 154.08C480.939 154.08 481.505 154.203 482.027 154.448C482.55 154.683 483.003 155.051 483.387 155.552C483.771 156.053 484.075 156.688 484.299 157.456C484.523 158.213 484.635 159.115 484.635 160.16ZM483.163 160.16C483.163 159.243 483.083 158.475 482.923 157.856C482.774 157.227 482.566 156.725 482.299 156.352C482.043 155.968 481.745 155.696 481.403 155.536C481.062 155.365 480.705 155.28 480.331 155.28C479.958 155.28 479.601 155.365 479.259 155.536C478.918 155.696 478.619 155.968 478.363 156.352C478.107 156.725 477.899 157.227 477.739 157.856C477.59 158.475 477.515 159.243 477.515 160.16C477.515 161.067 477.59 161.835 477.739 162.464C477.899 163.083 478.107 163.584 478.363 163.968C478.619 164.352 478.918 164.629 479.259 164.8C479.601 164.96 479.958 165.04 480.331 165.04C480.705 165.04 481.062 164.96 481.403 164.8C481.745 164.629 482.043 164.352 482.299 163.968C482.566 163.584 482.774 163.083 482.923 162.464C483.083 161.835 483.163 161.067 483.163 160.16ZM493.479 166H487.143V164.816H489.751V156.144C489.751 156.08 489.756 156.021 489.766 155.968L487.639 157.872L486.855 156.928L490.007 154.208H491.175V164.816H493.479V166ZM503.01 166H496.674V164.816H499.282V156.144C499.282 156.08 499.287 156.021 499.298 155.968L497.17 157.872L496.386 156.928L499.538 154.208H500.706V164.816H503.01V166Z" fill="#999999"/>
<path d="M120 135L586 135" stroke="#999999"/>
<circle cx="120" cy="135" r="8.5" fill="white" stroke="#999999"/>
<circle cx="486" cy="135" r="8.5" fill="white" stroke="#999999"/>
<path d="M580 129L586 135L580 141" stroke="#999999"/>
<defs>
<clipPath id="clip0_439_3059">
<rect width="239" height="94" fill="white"/>
</clipPath>
</defs>
</svg>
