<svg width="199" height="104" viewBox="0 0 199 104" fill="none" xmlns="http://www.w3.org/2000/svg">
<path d="M19.1328 46.1435V69.1706L36.8421 77.1431L54.5513 69.1706V46.1435L36.8421 38.1709L19.1328 46.1435Z" fill="#373A36"/>
<path d="M68.0802 42.3857V47.9496H73.2454C75.0011 47.9496 76.4259 49.0522 76.4259 50.7315C76.4259 52.7161 75.0011 54.3106 73.2454 54.3106H68.0802V47.9496H60.9219V73.4024H74.8399C80.0984 73.4024 84.3815 69.9165 84.3815 64.658C84.3815 61.0279 81.9643 58.2375 78.7329 56.8636C78.7329 56.6939 78.7329 56.677 78.7329 56.4989C81.184 55.4217 82.787 53.4286 82.787 50.3413C82.787 45.1677 78.5039 42.3857 73.2454 42.3857H68.0802ZM74.0427 67.0413H68.0802V59.8829H73.2454C75.6287 59.8829 78.0205 61.4775 78.0205 63.8607C78.0205 66.244 75.7983 67.0413 74.0427 67.0413Z" fill="#373A36"/>
<path d="M103.064 42.3857H96.7025L85.5664 73.4024H93.522L95.6678 66.244H105.684L107.83 73.4024H115.786L104.65 42.3857H103.055H103.064ZM97.5761 59.8829L100.68 49.5441L103.785 59.8829H97.5846H97.5761Z" fill="#373A36"/>
<path d="M138.536 71.8163H132.175L125.984 55.5489L125.602 55.6338L125.797 57.5421C126.34 62.809 126.611 68.1099 126.611 73.4024H119.453V42.3857H127.409L135.364 63.1737L143.32 42.3857H151.275V73.4024H144.117C144.117 68.1015 144.389 62.809 144.931 57.5421L145.126 55.6338L144.745 55.5489L138.553 71.8163H138.536Z" fill="#373A36"/>
<path d="M169.325 42.3857H158.027V73.4024H165.186V63.1144C165.27 63.038 165.313 62.9956 165.406 62.9193C171.827 63.5639 181.097 64.7428 181.097 52.4023C181.097 44.9471 175.092 42.3857 169.325 42.3857ZM165.186 57.6014V48.1107H168.052C171.012 48.1107 174.736 48.9165 174.736 52.4956C174.736 59.0687 168.672 58.1188 165.194 57.6014H165.186Z" fill="#373A36"/>
<path d="M36.8399 53.4885L51.6994 46.8051L36.8399 40.1133L21.9805 46.8051L36.8399 53.4885Z" fill="#F5C01B"/>
<path d="M37.7266 55.0394V74.8011L52.7896 68.0244V48.2627L37.7266 55.0394Z" fill="white"/>
<path d="M35.9576 55.0394L20.8945 48.2627V68.0244L35.9576 74.8011V55.0394Z" fill="white"/>
<path d="M64.8966 37.6191H57.7383V44.7775H64.8966V37.6191Z" fill="#F5C01B"/>
<g opacity="0.81">
<path d="M38.378 28.2212C37.9874 28.1617 38.1063 28.357 38.0469 28.3825C38.7176 28.4079 38.3695 28.1702 38.378 28.2212Z" fill="#F5C01B"/>
<path d="M44.9508 28.459L44.832 28.5184L45.8074 28.4336L44.9508 28.459Z" fill="#F5C01B"/>
<path d="M51.0722 28.9677C50.5124 28.6284 48.8501 28.8489 47.7645 28.6454L47.5948 28.5605L47.0859 28.7641C48.4175 28.8404 50.1477 28.815 51.0807 28.9677H51.0722Z" fill="#F5C01B"/>
<path d="M54.3141 29.8329C54.119 29.7056 55.035 29.7735 53.5508 29.748C53.6186 29.765 53.6441 29.7735 53.6865 29.782C53.8222 29.7905 54.0003 29.8074 54.3141 29.8244V29.8329Z" fill="#F5C01B"/>
<path d="M53.6861 29.79C53.0324 29.7646 54.1021 29.9174 53.6861 29.79V29.79Z" fill="#F5C01B"/>
<path d="M56.7741 29.8672H56.5875L56.4773 29.8842L56.2568 29.9011L55.8242 29.935C56.0023 30.0114 56.7657 30.0538 56.4858 30.0962C56.6554 30.0962 56.8081 30.0962 56.9353 30.0962C57.0795 30.0962 57.1897 30.0877 57.283 30.0792C57.4611 30.0623 57.5375 30.0453 57.529 30.0283C57.529 29.9859 57.2067 29.9435 56.7741 29.8672Z" fill="#F5C01B"/>
<path d="M58.0555 29.6719L57.3594 29.7058C57.4867 29.7398 57.699 29.7483 58.0555 29.6719Z" fill="#F5C01B"/>
<path d="M56.1172 29.7565L56.6006 29.7226L57.364 29.6971C57.1434 29.6463 57.135 29.5445 56.6685 29.7141C56.7363 29.6717 56.6685 29.6717 56.5667 29.6802C56.4819 29.6971 56.3292 29.7311 56.1257 29.7565H56.1172Z" fill="#F5C01B"/>
<path d="M55.5943 29.6886C55.1193 29.6038 54.5002 29.5275 55.3653 29.4681C53.7284 29.4257 53.9574 29.6547 55.5943 29.6886Z" fill="#F5C01B"/>
<path d="M51.4062 28.6787L50.7785 28.543L50.2188 28.6023C50.4986 28.5684 51.4401 28.772 51.4062 28.6787Z" fill="#F5C01B"/>
<path d="M63.6099 28.8399C63.5674 28.7974 63.2788 28.9417 63.1259 28.9333C63.0326 29.0351 62.9307 29.1285 62.8203 29.2304C63.1259 29.137 63.508 28.8568 63.6099 28.8399Z" fill="#F5C01B"/>
<path d="M63.1252 28.9349C63.261 28.7651 63.3714 28.6377 63.4987 28.3066C63.278 28.7057 63.1507 28.7481 63.0997 28.8415C63.0403 28.9094 63.0658 28.9349 63.1337 28.9349H63.1252Z" fill="#F5C01B"/>
<path d="M58.0934 29.333L57.0332 29.4348C56.8636 29.4517 56.6091 29.4602 56.5073 29.4772L56.1172 29.5196L56.5837 29.4772L57.2537 29.4348C57.6947 29.4009 58.1103 29.3754 58.5005 29.333H58.0934Z" fill="#F5C01B"/>
<path d="M62.4896 26.1435C62.7864 26.2537 63.0239 26.3725 63.2529 26.4912C62.8797 26.2707 62.4048 26.0587 61.8789 25.8721C62.1164 25.9569 62.303 26.0417 62.4896 26.135V26.1435Z" fill="#F5C01B"/>
<path d="M58.919 24.6C59.3007 24.6678 59.1226 24.5491 58.919 24.4304C58.7154 24.3116 58.4864 24.2014 58.9105 24.2947C58.6052 24.2098 58.2999 24.1165 58.0115 24.0317C57.8758 23.9978 57.6977 23.9469 57.6129 23.93L57.3923 23.896C57.104 23.8536 56.8326 23.8197 56.5781 23.8027C56.841 23.8536 57.1125 23.9215 57.4093 24.0233C57.6213 24.0996 57.8334 24.1759 58.0709 24.2607C58.3507 24.371 58.6476 24.4813 58.936 24.6085L58.919 24.6Z" fill="#F5C01B"/>
<path d="M55.7031 23.7012C55.966 23.7436 56.2544 23.769 56.5598 23.8029C56.2799 23.7521 55.9915 23.7181 55.7031 23.7012Z" fill="#F5C01B"/>
<path d="M63.0137 27.0936C63.0137 27.0512 63.1326 26.9663 62.8354 26.6182L62.793 26.8644C62.8694 26.9323 62.9373 27.0087 63.0137 27.0936Z" fill="#F5C01B"/>
<path d="M62.7877 26.8737C62.533 26.619 62.2614 26.4407 62.168 26.3643C62.2359 26.4322 62.4991 26.585 62.7877 26.8737Z" fill="#F5C01B"/>
<path d="M63.067 27.1527C63.067 27.1527 63.0328 27.1185 63.0156 27.0928C63.0156 27.1185 63.0156 27.127 63.067 27.1527Z" fill="#F5C01B"/>
<path d="M61.4524 29.2729C61.6731 29.1795 61.9448 29.0267 62.0467 28.9418C62.1316 28.8399 62.0721 28.8314 61.4524 28.8994C61.2656 29.0607 62.0212 28.9673 61.4524 29.2729Z" fill="#F5C01B"/>
<path d="M62.9805 27.415C63.1162 27.6271 63.2688 27.8052 63.2773 28.2038C63.3028 28.1868 63.4045 28.0003 63.4215 28.3141C63.4469 28.102 63.3621 27.9154 63.2858 27.7797C63.1925 27.644 63.1162 27.5253 62.9889 27.415H62.9805Z" fill="#F5C01B"/>
<path d="M62.6172 27.127C62.7445 27.2203 62.8719 27.3137 62.9823 27.4241C62.9228 27.3477 62.8634 27.2713 62.7955 27.2034L62.6172 27.127Z" fill="#F5C01B"/>
<path d="M57.3318 24.346C56.8908 24.2952 56.4243 24.1679 55.8984 24.0322C56.1783 24.1255 56.4582 24.2188 56.7296 24.3121C57.0349 24.4054 57.3318 24.5072 57.6286 24.6005C57.6965 24.6005 57.8407 24.6005 57.8492 24.5666C57.8492 24.5496 57.8237 24.5242 57.7304 24.4817C57.6371 24.4393 57.459 24.38 57.3318 24.346Z" fill="#F5C01B"/>
<path d="M60.4494 25.4905C60.4069 25.4735 60.3473 25.4565 60.3047 25.4395C60.3643 25.482 60.4239 25.5161 60.4494 25.4905Z" fill="#F5C01B"/>
<path d="M50.7344 22.7842L50.8111 22.8353L50.8452 22.8098L50.7344 22.7842Z" fill="#F5C01B"/>
<path d="M57.7651 24.6759C58.3842 24.9049 58.7744 24.9982 59.19 25.0831C58.6981 24.9304 58.1892 24.7692 57.6294 24.5996C57.57 24.5996 57.5531 24.6166 57.7566 24.6759H57.7651Z" fill="#F5C01B"/>
<path d="M54.2461 23.4035C54.4583 23.4969 54.6961 23.5903 54.9508 23.6922C54.747 23.5818 54.331 23.3781 54.2461 23.4035Z" fill="#F5C01B"/>
<path d="M60.1459 25.3287C60.1459 25.3287 60.214 25.3457 60.2481 25.3628C60.0863 25.2606 60.0863 25.2776 60.1459 25.3287Z" fill="#F5C01B"/>
<path d="M60.1498 25.329C59.7851 25.2187 59.4967 25.1424 59.1914 25.083C59.59 25.2102 59.9632 25.329 60.294 25.4392C60.2346 25.4053 60.1837 25.3629 60.1498 25.329Z" fill="#F5C01B"/>
<path d="M48.9468 23.6162C49.0486 23.4636 50.1936 23.5229 51.1096 23.9046C52.0764 23.9809 51.5845 23.3109 50.8127 22.8359C50.7703 22.9038 50.7533 22.9632 49.761 22.8699C50.0918 23.0225 51.8814 23.5229 51.0247 23.4975C49.7186 23.3194 49.9815 23.2261 49.3709 23.014C49.8628 23.3109 47.6746 23.014 47.9036 23.3703L49.0486 23.4636C49.0571 23.5145 48.6415 23.5145 48.9468 23.6162Z" fill="#F5C01B"/>
<path d="M52.6718 23.2596L53.0789 23.3359C52.6294 23.2002 52.3156 23.0561 51.7389 22.7931C51.0519 22.7338 50.8992 22.7592 50.8398 22.8101C51.5014 22.9543 52.1545 23.1069 52.8075 23.2681H52.6634L52.6718 23.2596Z" fill="#F5C01B"/>
<path d="M54.867 23.7773C54.5108 23.8706 53.5355 23.7094 54.0698 24.0487C55.2317 24.3371 54.9264 24.1081 55.6388 24.2268C53.7475 23.7688 56.2071 24.2692 54.8755 23.8112C55.2572 23.8791 55.588 23.9554 55.9018 24.0402C55.571 23.9215 55.2572 23.8027 54.9519 23.6925C54.9688 23.7009 54.9773 23.7094 54.9943 23.7179H55.0027C55.0791 23.7603 55.1045 23.7858 55.0112 23.7434C55.0112 23.7434 54.9773 23.7434 54.9688 23.7434C54.9519 23.7603 54.9094 23.7773 54.867 23.7858C54.3327 23.6076 54.7907 23.7179 54.9688 23.7434C54.9773 23.7434 54.9943 23.7349 55.0027 23.7264C54.3666 23.5907 53.722 23.4635 53.0859 23.3447C53.4846 23.4635 53.985 23.5822 54.8755 23.7942L54.867 23.7773Z" fill="#F5C01B"/>
<path d="M61.8359 28.5021C61.9127 28.5021 61.9298 28.5021 61.9469 28.5021C62.0322 28.4594 62.0663 28.4509 61.8359 28.5021Z" fill="#F5C01B"/>
<path d="M62.6407 28.2041C62.5728 28.3144 62.5643 28.4247 62.1487 28.5519C61.7247 28.6367 62.0385 28.5179 61.9452 28.501C61.7332 28.5773 61.2497 28.7639 62.1318 28.6112L62.2166 28.5604C62.4032 28.501 62.6067 28.4416 62.7764 28.3059C62.9799 28.1702 62.929 27.9073 62.8866 27.8055C62.7933 27.5595 62.7594 27.4578 62.8103 27.4917C62.7679 27.5595 62.7424 27.6104 62.7424 27.7037C62.717 27.7885 62.8442 27.9497 62.6322 28.1872L62.6407 28.2041Z" fill="#F5C01B"/>
<path d="M59.4678 25.6767C58.7893 25.4477 58.1108 25.2526 57.4492 25.083C57.7546 25.2357 58.0429 25.3799 58.2974 25.524L58.3313 25.4307C59.3406 25.8124 59.2388 25.6682 59.4678 25.6767Z" fill="#F5C01B"/>
<path d="M50.5764 22.6579L50.8308 22.5137L49.8555 22.5985L50.5764 22.6579Z" fill="#F5C01B"/>
<path d="M48.4943 22.2847L48.5962 22.1318L48.0273 22.1403L48.4943 22.2847Z" fill="#F5C01B"/>
<path d="M27.359 24.0908C27.2571 24.2012 27.1637 24.3116 27.0703 24.4219C27.2146 24.2691 27.291 24.1587 27.359 24.0908Z" fill="#F5C01B"/>
<path d="M29.9631 22.1488L29.9887 22.0381C29.8865 22.1573 29.8524 22.2254 29.9631 22.1488Z" fill="#F5C01B"/>
<path d="M38.5312 32.7158C39.2182 32.9109 39.9901 33.1993 39.9137 33.0042L39.7102 32.8091C39.2182 32.8091 38.8451 32.7752 38.5312 32.7158Z" fill="#F5C01B"/>
<path d="M56.4062 20.3757C56.4572 20.4181 56.5166 20.4606 56.576 20.503C56.7543 20.503 56.9241 20.503 57.077 20.503C56.8732 20.4606 56.6525 20.4181 56.4147 20.3672L56.4062 20.3757Z" fill="#F5C01B"/>
<path d="M55.6887 20.9192L54.8906 20.5117C55.0689 20.6221 55.3236 20.7494 55.6887 20.9192Z" fill="#F5C01B"/>
<path d="M36.1043 30.7065L36.6477 30.5282C35.8072 30.5113 36.1722 30.6131 36.1043 30.7065Z" fill="#F5C01B"/>
<path d="M26.9433 21.4536C26.3326 21.4367 25.8577 21.4536 25.4336 21.5045C26.1715 21.5215 26.7652 21.6317 26.9433 21.4536Z" fill="#F5C01B"/>
<path d="M27.1507 21.7328C26.9385 21.945 26.8621 22.0554 26.8875 22.0809C27.1083 21.8601 27.2271 21.7243 27.1507 21.7328Z" fill="#F5C01B"/>
<path d="M23.6992 21.7496C23.8095 21.7496 23.9113 21.7496 24.0215 21.7496C24.4541 21.6478 24.8951 21.563 25.4379 21.5121C24.8951 21.4952 24.2675 21.5376 23.6992 21.7581V21.7496Z" fill="#F5C01B"/>
<path d="M30.668 26.8135C30.7105 26.8305 30.7616 26.8561 30.8042 26.8731C30.8212 26.8561 30.7616 26.8305 30.668 26.8135Z" fill="#F5C01B"/>
<path d="M50.048 28.6963C49.8613 28.7557 49.5471 28.8321 49.25 28.917C49.3943 28.8916 49.6405 28.8321 50.048 28.6963Z" fill="#F5C01B"/>
<path d="M40.0586 21.2071C40.1352 21.19 40.5095 21.2241 40.0586 21.2071V21.2071Z" fill="#F5C01B"/>
<path d="M42.1682 22.0977C42.0743 22.1062 41.9975 22.1318 41.9805 22.1745C42.0231 22.1318 42.0829 22.1147 42.1682 22.0977Z" fill="#F5C01B"/>
<path d="M19.7255 24.1678C19.7255 24.1678 19.7085 24.1849 19.6914 24.1849C19.8363 24.1337 19.8108 24.1422 19.7255 24.1678Z" fill="#F5C01B"/>
<path d="M40.729 21.3346C40.5592 21.3006 40.3724 21.2667 40.1602 21.2412C40.2535 21.2582 40.4233 21.2922 40.729 21.3346Z" fill="#F5C01B"/>
<path d="M40.6406 21.2412C40.7934 21.2582 40.9123 21.2752 41.0312 21.2922C41.0906 21.2667 41.0397 21.2412 40.6406 21.2412Z" fill="#F5C01B"/>
<path d="M39.4375 21.1816C39.6922 21.1901 39.9299 21.2156 40.1591 21.2496C40.0742 21.2326 40.0403 21.2156 40.0573 21.2156C39.9299 21.2156 39.7431 21.1986 39.4375 21.1901V21.1816Z" fill="#F5C01B"/>
<path d="M56.8064 22.6911C56.8064 22.6911 56.7555 22.6571 56.73 22.6402C56.297 22.5468 56.4838 22.6062 56.8064 22.6911Z" fill="#F5C01B"/>
<path d="M49.9303 30.3154C49.9303 30.3154 49.896 30.324 49.8789 30.3326C49.896 30.3326 49.9217 30.3326 49.9474 30.3326H49.9303V30.3154Z" fill="#F5C01B"/>
<path d="M51.4296 29.8923C50.8359 30.2655 50.4457 30.2909 49.9453 30.3248L50.5475 30.7574C50.8528 30.4775 51.1412 30.1806 51.4296 29.8838V29.8923Z" fill="#F5C01B"/>
<path d="M26.4185 28.9762C26.181 28.7726 25.9605 28.5606 25.8163 28.3401C26.2488 28.5436 26.6814 28.7302 26.9104 28.7981C27.1309 28.8659 27.1309 28.8235 26.8086 28.5352C26.6475 28.7811 25.7569 28.3062 25.5364 27.8566C25.4092 27.6616 25.4261 27.458 25.3837 27.229C25.4007 27.1103 25.3922 26.9915 25.3753 26.8982C25.3753 26.8049 25.3413 26.7286 25.282 26.6862C25.3837 26.5335 25.5025 26.3809 25.6467 26.2282C25.5619 26.3724 25.5619 26.4148 25.494 26.5505C25.8672 26.1264 25.9266 25.9059 25.9774 25.6006C26.0538 25.3122 26.1386 24.9305 26.7832 24.3538C27.2497 23.9637 27.6313 23.7601 27.3684 24.0824C27.6737 23.7516 27.996 23.4293 28.3268 23.107C28.6576 22.878 28.6321 23.0137 28.3098 23.2427C28.8526 22.8102 29.4124 22.3946 29.9976 22.0044V22.0299C30.1927 21.7924 30.7101 21.3259 30.973 21.1139C31.4904 20.9443 30.761 21.292 30.9221 21.292L31.8975 20.6389C32.3809 20.5626 31.5837 21.1139 30.8797 21.4701C31.4904 21.4616 31.6854 21.3429 31.9993 21.0969C32.1519 20.9697 32.3555 20.834 32.6523 20.7068C32.9577 20.5711 33.3478 20.4015 33.9245 20.2997C33.5853 20.4354 33.263 20.588 32.9492 20.7577C33.3308 20.7662 33.6955 20.6729 34.1366 20.5711C34.5607 20.4439 35.0611 20.3251 35.6632 20.2573C35.5191 20.2573 34.8914 20.2742 34.4589 20.2912C34.0263 20.2997 33.7549 20.2488 34.3232 19.9774C34.6624 19.8926 35.1289 19.8078 35.7481 19.5024C35.8074 19.6975 36.4351 19.5024 37.2408 19.3158V19.5957C38.0974 19.3752 38.0041 19.2395 38.513 19.0359C39.5138 18.9427 39.7428 19.1208 39.9973 19.2819C41.5918 19.2056 38.8607 19.0275 40.7521 18.8324C42.1007 18.8663 43.0336 18.7306 44.662 18.6543C45.6035 18.79 44.4839 18.8069 44.8232 18.9087C45.1031 18.8494 45.3915 18.8069 45.6713 18.7561C45.8749 18.7815 45.807 18.8409 45.7646 18.8663C46.4771 18.8494 45.8495 18.5864 46.969 18.6458C47.3167 18.3659 49.1827 19.3752 50.5906 19.3413C50.9044 19.4855 50.3955 19.4685 50.4718 19.5957C52.3632 19.7908 52.0833 19.7993 53.6693 19.935L54.8822 20.5117C54.0171 20.0198 55.2808 20.1555 56.3919 20.3845C56.1035 20.1555 55.8406 19.9859 55.6625 19.8756C56.2392 20.0198 56.8075 20.2064 57.3842 20.3845C57.5623 20.5117 57.3672 20.5202 57.0534 20.5202C57.1722 20.5456 57.2909 20.5711 57.3757 20.588C57.9185 20.9358 57.5538 20.9443 57.0789 20.9019C56.9008 20.7746 56.7227 20.6389 56.553 20.5117C56.0865 20.4948 55.6455 20.5372 55.671 20.7153C55.7897 20.7153 56.0017 20.7746 56.2307 20.851C56.112 20.851 56.0272 20.8595 56.0696 20.9103C56.112 20.9612 56.3071 20.9697 56.5954 21.0121L56.8499 21.4362L56.9856 21.3599C57.6556 21.7161 58.3087 22.0893 58.9278 22.5049C59.6996 22.7423 60.429 22.9798 61.2093 23.3869C61.4044 23.4887 61.608 23.599 61.7946 23.7347C61.9981 23.8619 62.1847 24.0146 62.3713 24.2011C62.719 24.5574 63.1177 25.0493 63.0498 25.7024C63.0074 25.3716 62.8378 25.3716 62.7699 25.4055C62.6766 25.4479 62.5833 25.5242 62.4476 25.5073C62.5918 25.2952 62.4646 24.939 62.1168 24.5574C61.7691 24.1842 61.2517 23.8449 60.7683 23.4293C61.2687 23.8619 61.0652 23.8704 60.9125 23.8025C61.5316 24.1842 62.1169 24.6761 62.3798 25.1595C62.1677 25.1935 62.3459 25.4818 62.1338 25.7278C62.3628 25.6939 62.4137 25.9144 62.066 26.3469C61.7352 26.7625 61.0482 27.1696 60.6665 27.4411C60.5308 27.3308 60.7259 27.1442 61.608 26.5505C60.4969 26.9491 60.5054 27.8227 59.2077 28.0856C59.4706 27.9754 59.6318 27.933 59.6996 27.8227C59.1399 28.2213 57.5369 28.6793 57.8677 28.4334L58.1391 28.3401C56.324 28.9677 52.4735 30.0194 52.2784 30.4096C52.2529 30.3671 52.431 29.9346 52.5243 29.8328C52.0155 30.1636 51.4896 30.4689 50.9638 30.7912C50.4294 31.0881 49.8866 31.3934 49.3353 31.6818C49.5898 31.3256 48.3345 30.7827 49.8781 30.3502C49.4201 30.3926 48.8519 30.418 47.9104 30.647C48.2243 30.647 48.7416 30.9863 48.3176 31.0711C47.1047 30.876 47.4779 30.9863 46.0106 30.8336C46.4856 30.8676 46.0106 31.3849 45.2473 31.4188C45.3575 31.3425 45.154 30.9439 45.4254 30.876C44.8232 31.0796 44.2125 31.2577 43.5934 31.4358C44.0599 31.334 43.6612 31.0287 43.2457 30.91C43.4407 31.0033 41.6511 30.9184 41.1592 30.9439C41.4221 30.9863 41.6766 31.0372 41.9395 31.0711C39.8531 30.9524 39.8446 31.6987 37.7497 31.5121C38.0126 31.4358 38.4197 30.9608 37.3765 30.8082C36.8761 31.0033 35.1035 31.7666 33.2036 31.6309L32.8728 31.4358L31.4225 31.3255C32.3894 31.1559 34.9678 30.8082 36.3333 30.647C35.5699 30.452 36.1382 30.4689 34.9762 30.3163C34.5861 30.1297 35.6293 30.2145 35.9771 30.2399C35.0865 30.0957 34.196 29.9431 33.3139 29.7565C33.3817 30.0703 31.219 29.6547 31.2783 29.8922C32.2622 30.0024 33.2545 30.0788 34.2384 30.1381C34.3232 30.435 32.4064 30.6894 30.5065 30.1975C30.0485 29.9855 30.9815 29.7819 30.956 29.6802C30.6931 29.731 29.1241 29.4427 28.9714 29.3239L29.8026 29.3748C28.7933 29.0186 28.0045 29.2985 26.851 28.6539C26.427 28.5012 25.7145 27.8906 25.5958 28.0178C26.1556 28.5691 25.9944 29.5614 25.4346 29.6377C25.282 29.5784 23.2803 28.5012 22.8902 28.1196C22.3219 27.5852 24.1539 28.0178 23.6705 27.5598C23.6196 27.6192 23.204 27.5513 23.0429 27.5089C22.6527 27.246 23.3143 27.3732 22.4068 26.9661C22.1099 27.1612 20.6681 25.9483 21.8809 26.9661C21.4314 26.771 21.2194 26.6099 20.9988 26.4402C20.8886 26.3554 20.7783 26.2621 20.6426 26.1519C20.5408 26.0586 20.4221 25.9568 20.261 25.8211C20.2779 25.9568 20.0065 25.9568 19.5909 25.6854C19.3958 25.5497 19.1414 25.3292 19.0905 25.0408C19.0142 24.7524 19.1414 24.4556 19.3195 24.269C19.345 24.3453 19.5909 24.2181 19.7351 24.2011C20.6002 23.6583 21.4059 23.5311 22.1608 23.3615C22.9241 23.2173 23.6705 23.107 24.6204 22.9713C24.807 23.0137 25.7315 22.9713 25.3583 23.1494C25.6212 23.0646 25.8672 22.9374 26.4524 22.8696C27.6144 22.9968 25.1463 23.0477 26.0453 23.2512C26.0962 23.0731 27.538 22.8611 28.3777 22.6999C28.0978 22.454 26.4185 22.8017 25.6043 23.0137C25.5534 22.6575 26.9867 22.0977 29.0138 21.8094C30.6253 21.6313 29.7262 22.0044 30.0061 21.9366C33.034 21.8942 32.576 21.2242 35.1035 21.4871C36.1043 21.733 35.1459 21.9366 35.3579 22.1062C34.0518 22.1826 33.3478 21.9451 32.4573 21.9705L33.5514 22.0638C33.1358 22.1402 32.2622 22.208 31.7872 22.1571C32.6184 22.3183 36.8846 22.1571 39.2 22.5049C39.6156 22.4455 40.3365 22.42 40.0057 22.3098L39.2679 22.2928C38.5978 22.0638 40.6673 22.1232 39.7428 21.979C40.7436 21.9112 41.8717 21.7924 43.2541 22.0384L43.4916 22.3267C43.4746 22.2419 42.6011 22.0808 42.2024 22.1232C42.7961 22.0553 44.2973 22.6914 44.9674 22.437L44.0175 22.1402C45.0268 22.1232 46.299 22.0129 47.5118 22.3013C46.9944 21.962 47.2234 22.2843 46.3923 21.8518C47.1047 22.3098 43.2202 21.4192 44.3991 21.9705C43.534 21.521 42.8555 21.6482 41.6935 21.2496C41.7275 21.3344 42.1007 21.4447 41.0574 21.3175C41.0065 21.3429 40.8963 21.3599 40.82 21.3768C40.786 21.3768 40.7775 21.3768 40.7521 21.3683C40.7691 21.3683 40.786 21.3768 40.8115 21.3853C40.7691 21.3938 40.7606 21.3938 40.8284 21.3853C41.0744 21.4447 41.2695 21.504 41.3458 21.5549C40.8115 21.6991 39.1576 21.5973 38.5978 21.6737C37.9787 21.6058 38.8607 21.5889 38.53 21.4786L37.6903 21.5973C37.614 21.4023 36.0534 21.2326 37.5207 21.1648L36.2061 21.1139C35.4342 20.9867 34.3656 20.9358 33.704 21.0206C33.0849 20.9782 32.135 21.2496 32.6778 21.0885L30.6168 21.2581L30.5998 21.2072C28.5473 21.2666 26.4439 21.75 24.0522 21.767C23.3652 21.9281 22.6697 22.0977 21.4908 22.3437L21.2194 22.2504C20.9904 22.3267 20.702 22.42 20.3967 22.5218C20.261 22.5642 19.9641 22.6999 19.7436 22.7847C19.4976 22.8696 19.2941 23.0307 19.0736 23.141C18.1745 23.6498 17.9625 24.5234 18.0134 24.8118C17.9116 25.168 17.8777 25.7872 18.3272 26.4572C18.4544 26.6184 18.5816 26.788 18.7088 26.9661C18.87 27.1188 19.0481 27.2714 19.2177 27.4326L19.4807 27.6616L19.6757 27.7973C19.8114 27.8906 19.9387 27.9754 20.0744 28.0687C21.16 28.7387 22.3389 29.2052 23.0598 29.5529L23.1955 29.3833C24.2048 29.8159 25.2056 30.1212 26.5033 30.4435L26.4778 30.2399C27.6144 30.435 29.2767 31.1983 31.0578 31.5545C30.9221 31.597 30.4726 31.4867 30.1673 31.368C32.2028 32.2755 34.7133 31.9277 36.6132 32.4366C37.1051 32.4281 37.4613 32.4705 37.7921 32.5554C37.7497 32.5554 37.7073 32.5554 37.6733 32.5554C37.7242 32.5554 37.8006 32.5638 37.8769 32.5723C38.0889 32.6232 38.3095 32.6741 38.5469 32.7335C38.3434 32.6741 38.1483 32.6147 37.9872 32.5808C38.3603 32.6147 38.9371 32.6232 39.4969 32.6062L39.7259 32.8268C39.7683 32.8268 39.8107 32.8268 39.8531 32.8268C40.4044 32.9285 40.3026 32.7504 40.0142 32.5893C40.2941 32.5638 40.557 32.5299 40.7606 32.4875C41.2016 32.8352 42.2279 32.4027 42.8385 32.7504C43.2117 32.5978 45.6629 32.5299 45.9258 32.1313C45.9512 32.1737 46.1124 32.1907 45.8155 32.2076C46.4432 32.2161 47.0623 32.1822 47.6136 32.0295L47.902 32.2585L49.2081 31.7327C50.0478 31.7666 50.404 31.7835 49.6237 32.1313C51.5405 31.4952 51.2012 31.7411 52.7873 31.0881L52.7449 31.2747C53.3301 31.1135 54.2122 30.664 54.5853 30.6979C55.2723 30.664 56.8753 30.2484 58.7158 29.6038C59.6318 29.273 60.6072 28.8829 61.5486 28.374C62.0151 28.1026 62.4816 27.8397 62.9056 27.458C63.1261 27.2884 63.3212 27.0509 63.5078 26.8219C63.6011 26.7032 63.669 26.5335 63.7538 26.3894L63.8725 26.1688L63.9319 25.9314C63.7707 26.1519 63.7283 26.101 63.7538 25.9314C63.7622 25.8465 63.7877 25.7278 63.8301 25.5836C63.864 25.4394 63.8301 25.2698 63.8301 25.0917C63.7792 24.3284 63.3636 23.6923 63.177 23.7431C63.1261 23.4972 62.8038 23.0137 63.3127 23.4548C62.6003 22.683 62.0575 22.2334 61.5486 21.8433C61.0397 21.4532 60.5648 21.1733 59.9286 21.0121C59.8014 20.8086 60.3527 21.0545 60.2255 20.9019C60.0813 20.851 59.6657 20.7068 59.53 20.5541C59.3943 20.4015 59.8099 20.5965 60.0898 20.6898C58.4105 19.8162 58.0797 20.1301 57.8252 20.376C57.045 19.8586 56.6039 19.7145 55.9084 19.6975C55.6455 19.4855 55.179 19.1971 56.2562 19.5364C55.9593 19.4176 55.0603 19.0529 54.2037 18.7815C53.347 18.5186 52.5328 18.3405 52.4735 18.4677C52.2953 18.3574 51.6253 18.2302 51.4557 18.2302C50.0732 17.9079 49.9545 17.8655 48.5805 17.6704L48.9537 17.7722C48.36 18.0097 47.8087 17.662 46.6891 17.5771L46.723 17.5517C44.1786 17.1022 45.6205 17.5347 43.093 17.187L43.2287 17.3905C42.9997 17.8146 40.9811 17.1276 39.5138 17.4499L40.0566 17.5262C39.2848 17.7213 37.7497 17.1955 36.91 17.2973C36.7234 17.2973 37.1814 17.187 37.4274 17.1191C35.2392 17.2718 37.1984 17.4245 35.6463 17.8231C35.324 17.7637 35.9347 17.3566 34.866 17.628C34.5861 17.645 33.8482 17.9673 33.0255 18.3829C32.2028 18.79 31.3038 19.2734 30.5744 19.5109C30.9221 19.46 31.2529 19.4176 30.6253 19.8247C29.6245 20.3591 27.7416 21.08 27.1394 22.0129C27.0037 22.0808 26.9443 22.0893 26.9274 22.0723C26.6051 22.3776 26.0962 22.878 25.6382 23.3869C25.1971 23.9043 24.8324 24.4386 24.7476 24.7185C24.4847 24.7779 24.1539 25.1171 23.8571 25.6515C23.5857 26.1943 23.3652 26.9746 23.5009 27.7718C23.6196 28.5776 24.1285 29.1628 24.4677 29.519C24.8155 29.8752 25.0445 30.0788 24.9427 30.2145C25.7654 30.7997 26.639 31.1305 27.5041 31.4188L27.4108 31.4613C29.0732 32.0295 29.7093 31.9447 30.3284 31.9192C30.7101 32.0295 30.4132 32.038 30.3793 32.0719C31.5922 32.3518 32.2707 32.4451 32.9068 32.479C33.5344 32.5045 34.1281 32.479 35.1628 32.3688L35.3664 32.5893C35.9177 32.5045 38.9371 33.0303 41.3373 32.6062C41.3119 32.6317 41.2695 32.6741 41.0744 32.7165C42.423 32.513 44.0514 32.5045 45.4763 32.3857C46.8927 32.2755 48.0886 32.0634 48.4957 31.5885L50.2004 31.0287C47.9359 31.4697 50.4634 30.6301 49.5134 30.7149C50.3785 30.4859 51.8373 30.4011 50.7687 30.7064H50.5906C50.2852 31.2153 53.3979 30.1551 53.4064 30.4096C54.8991 29.9685 56.3834 29.519 57.8252 28.8999C58.5462 28.586 59.2586 28.2383 59.9456 27.7633C60.2849 27.5259 60.6241 27.246 60.9294 26.8643C61.2602 26.4487 61.4977 25.9059 61.5062 25.3546C61.5062 24.8372 61.2941 24.3114 61.0227 23.9128C60.7683 23.5311 60.4715 23.2512 60.1746 22.9883C59.5724 22.4879 58.9448 22.1147 58.3002 21.7839L58.614 22.3013C58.1645 22.0469 57.7065 21.8263 57.24 21.6228C56.9008 21.4107 56.8329 21.1817 57.8422 21.6397C57.3842 21.2242 56.0865 21.08 56.0357 21.1478C54.068 20.3506 56.9432 21.0715 56.3325 20.8595C56.0526 20.7662 55.7643 20.6813 55.4844 20.588L55.6625 20.6813C54.9416 20.5796 54.8483 20.6813 53.6015 20.3336C52.8212 20.0792 53.2368 20.0452 52.9315 19.9604C52.9315 19.9435 52.8382 19.9095 52.448 19.8417C51.8289 19.6975 51.2097 19.5703 50.5906 19.46L51.2945 19.8332C50.4464 19.7993 49.5474 19.5364 50.3616 19.9435C49.7679 19.6212 48.0292 19.3413 46.3329 19.248C44.6366 19.1462 42.9997 19.231 42.6011 19.1801C41.4391 19.4091 40.2856 19.5024 38.8692 19.6975C39.2254 19.6975 39.4714 19.9265 38.267 20.0961C38.6063 19.4431 36.011 20.2488 34.9508 20.147C35.4173 20.164 34.5691 20.393 33.7973 20.6644C33.0255 20.9273 32.33 21.2157 33.051 21.1817C32.0586 21.4701 32.9237 20.9952 32.135 21.1309C31.0069 21.6567 29.7347 22.1317 28.4201 22.8611C28.0978 23.0561 27.767 23.2597 27.4362 23.5141C27.2921 23.6329 27.08 23.811 26.8934 24.023C26.7068 24.2181 26.5457 24.4471 26.4185 24.6846C26.1725 25.1595 26.0877 25.7448 26.2997 26.2536C26.4863 26.771 26.9019 27.1866 27.3684 27.5004C27.4532 27.458 26.9783 26.9915 27.7585 27.3986C28.1996 27.8142 28.6745 28.1535 29.1665 28.4588C29.7771 28.6285 29.8365 28.2468 30.8458 28.7896C30.7101 28.6878 30.5065 28.5436 30.9052 28.62C36.6725 30.3587 42.9488 29.9516 48.9791 29.1967C48.1394 29.2306 48.6738 29.1034 49.2844 28.9592C48.8773 29.0271 49.2505 28.7811 49.1487 28.6963C49.9884 28.586 50.8281 28.4588 51.6592 28.2892C52.0155 27.9075 54.2206 27.3902 54.3648 27.0255L53.6354 27.3562C54.509 26.6947 52.007 27.2121 52.0239 26.7541C51.0231 27.475 48.9876 27.1527 47.2574 28.0008C46.8333 28.0008 47.5797 27.8058 47.3422 27.7549C46.9096 28.0178 46.3414 28.162 45.2727 28.2298L45.383 28.1705C43.8987 28.391 42.8216 28.4419 41.702 28.4164C40.5825 28.3995 39.429 28.3231 37.7497 28.1365L37.9872 28.357C37.2662 28.2807 37.1136 28.1959 36.7828 28.1196C35.9262 28.357 38.8183 28.3062 38.0296 28.5776C37.5631 28.3401 36.2824 28.2383 35.0526 28.0602C33.8228 27.8906 32.6439 27.6446 32.3809 27.3478C31.3123 27.1103 32.6439 27.6531 31.5752 27.3986L31.3207 27.2036L31.0154 27.2884C30.3284 27.0763 30.0485 26.7965 30.057 26.6947C30.2097 26.7625 30.5235 26.8134 30.7016 26.8558C30.286 26.6523 29.6838 26.4742 29.1919 26.2791C28.9544 26.1858 28.7254 26.084 28.5897 26.0077C28.5134 25.9738 28.4625 25.9314 28.4455 25.9059C28.4964 25.9568 28.5134 25.9907 28.6067 26.0586C28.7254 26.1434 28.8526 26.2282 28.9884 26.3045C28.8357 26.2367 28.683 26.1688 28.5473 26.084C28.471 26.0416 28.3947 25.9992 28.3268 25.9398C28.1911 25.8381 28.0724 25.6684 28.0978 25.4818C28.1232 25.3037 28.242 25.1426 28.3777 25.0154C28.5473 24.8457 28.8951 24.5743 29.2089 24.3793C30.5235 23.5396 32.0756 22.9289 33.4241 22.3522L33.1867 22.3352C34.2214 21.9027 34.6709 21.8179 35.1459 21.7246C35.6208 21.6397 36.1128 21.5549 37.3171 21.2581L37.2323 21.3005C37.6988 21.1054 38.3349 20.9358 39.0134 20.8425C38.4197 21.046 40.2008 20.8849 39.412 21.1224C41.7868 20.6389 40.574 20.8255 42.1515 20.3421L42.5332 20.4778C43.076 20.3166 43.1184 20.2233 44.3652 20.1809C43.3474 20.3166 45.154 20.4184 44.0175 20.5965C46.5789 20.9528 47.885 20.4354 49.0045 21.0715C50.2428 20.7746 46.8079 20.5711 47.4779 20.5711C46.9266 20.376 48.4957 20.3251 49.3014 20.4948C50.1326 20.6305 50.6245 21.2242 52.6346 21.6652C52.431 21.6143 52.4141 21.6482 52.2105 21.5973C52.9399 21.8687 53.7202 21.8009 54.5769 22.2504C55.1621 22.1486 55.7303 22.649 55.9848 22.3861C55.3826 22.191 54.7719 22.0214 54.1613 21.8687C55.196 22.0977 56.341 22.0129 57.8592 22.9713C57.7065 22.9713 57.1976 22.8187 56.8499 22.7254C57.2824 23.0137 57.7744 23.0816 58.1899 23.4208C58.0373 23.5311 57.5538 23.2767 56.9262 23.0137C56.2986 22.7423 55.5268 22.454 54.95 22.4116C55.4335 22.6914 57.045 22.9289 56.3834 23.0561C57.3079 22.9459 58.1899 23.8788 59.3095 24.3877L59.1144 24.4895C59.2671 24.5743 59.6233 24.8118 59.7251 25.0069C59.5894 24.9475 59.4028 24.8457 59.2162 24.7864C59.5809 25.0323 59.6318 25.202 59.5894 25.3885C59.5555 25.4903 59.4791 25.5751 59.4198 25.6345C59.3519 25.6854 59.2077 25.8635 59.0635 26.0247C59.2247 25.8805 59.3349 25.7702 59.3858 25.7024C59.4452 25.6515 59.4622 25.626 59.4876 25.6091C59.5385 25.5751 59.5724 25.5667 59.6063 25.5921C59.6827 25.6175 59.7421 25.7702 59.8862 25.5497C59.8693 25.7448 59.8014 25.8805 59.6996 26.0247C59.5809 26.1688 59.4622 26.2791 59.3349 26.3554C59.0975 26.5166 58.8939 26.5675 58.6819 26.6184C58.2578 26.7116 57.8252 26.8049 56.4512 27.4326C56.8244 27.2545 57.8931 26.9152 57.3588 27.2629C56.8244 27.475 56.0781 27.687 55.6964 27.7125C53.7796 28.4419 56.0696 27.8058 55.2808 28.2129C54.5344 28.2129 54.3479 28.6369 53.4912 28.9762L53.4234 28.7811C51.091 29.2985 52.9315 29.3748 50.7941 29.7565L51.6083 29.2561L50.5312 29.5953L50.7008 29.3154C49.5558 29.765 49.1657 29.8074 47.9783 29.977C48.2751 30.0618 47.902 30.3841 46.8503 30.5707C46.1209 30.5707 47.215 30.3163 45.7392 30.5792C46.053 30.3926 46.3923 30.189 47.0623 30.2569C47.1132 30.1806 47.3676 30.0703 47.4185 29.994C46.6382 29.994 45.5017 30.2823 44.9674 30.3502C45.1709 30.3332 45.4254 30.3078 45.5526 30.3163C44.8486 30.5113 44.1447 30.6979 43.4322 30.8676C43.0845 30.8251 43.3474 30.7403 43.6103 30.647C43.1778 30.7149 42.8809 30.8421 42.2364 30.91C42.389 30.7234 42.3381 30.5707 43.2372 30.4011C42.5587 30.5368 41.8801 30.647 41.1931 30.7573C41.049 30.6979 40.1245 30.6131 40.3874 30.5453C39.2509 30.5028 37.597 30.9693 36.0788 30.7827C36.0025 30.8082 35.8414 30.8336 35.5191 30.8506C34.0942 30.7488 32.8729 30.4435 31.202 30.418C30.9136 30.2654 30.6168 30.1212 30.3369 29.96C29.0647 29.765 31.4989 30.5877 29.3785 30.2484C27.8858 29.9516 28.8951 29.8667 28.4201 29.6377C28.0554 29.6038 27.538 29.5529 27.0037 29.3748C26.4778 29.2052 25.9011 28.8829 25.6127 28.4249C25.8926 28.6285 26.1216 28.832 26.4609 29.0101L26.4185 28.9762ZM34.2893 19.9943C34.0094 20.147 33.475 20.4523 33.2291 20.4354C33.4666 20.0792 33.7719 20.1046 34.2893 19.9943ZM58.4698 21.7161C58.2239 21.6737 57.9185 21.4786 57.5708 21.2496C57.8507 21.3514 58.156 21.504 58.4698 21.7161ZM35.1544 21.1902C35.1544 21.1902 35.1289 21.1902 35.1204 21.1987C34.391 21.1139 34.654 21.1478 35.1544 21.1902ZM36.6641 21.309C36.8167 21.2835 36.8082 21.2581 36.7404 21.2242C36.6301 21.275 36.2909 21.2666 35.9092 21.2411C36.0195 21.3005 36.2061 21.3344 36.6641 21.3005V21.309ZM52.7109 19.9774L52.9908 20.0961C52.3208 20.0028 52.5159 19.9943 52.7109 19.9774Z" fill="#F5C01B"/>
<path d="M55.7838 20.8599C55.7155 20.8002 55.6984 20.749 55.6984 20.7063C55.5704 20.6978 55.5534 20.7319 55.7838 20.8599Z" fill="#F5C01B"/>
<path d="M36.0039 30.7402H36.0551C36.0551 30.7402 36.0977 30.7231 36.1062 30.7061L36.0039 30.7402Z" fill="#F5C01B"/>
<path d="M23.1758 27.2119C23.4305 27.3647 23.5748 27.4581 23.6597 27.543C23.6937 27.5006 23.5833 27.4157 23.1758 27.2119Z" fill="#F5C01B"/>
<path d="M44.698 21.5467L43.7227 21.4873C44.1891 21.5297 44.3503 21.5976 44.5878 21.6569C44.5708 21.606 44.3927 21.5127 44.698 21.5467Z" fill="#F5C01B"/>
<path d="M52.7123 24.269C52.8567 24.269 53.001 24.3369 53.1453 24.3454L53.1284 24.2435C52.5425 24.1161 52.1181 24.0907 52.7123 24.269Z" fill="#F5C01B"/>
<path d="M45.4922 22.3359C45.5431 22.514 46.1537 22.5395 46.8238 22.6073L46.705 22.5904C46.9425 22.3868 46.2131 22.3529 45.4922 22.3359Z" fill="#F5C01B"/>
<path d="M46.9844 22.624C47.1881 22.6495 47.4004 22.675 47.6041 22.7174C47.6975 22.6325 47.3579 22.658 46.9844 22.624Z" fill="#F5C01B"/>
<path d="M38.5814 21.2665C38.9037 21.3259 38.7935 21.0545 38.9716 21.1393C39.3448 20.9358 36.8173 21.3089 38.5814 21.2665Z" fill="#F5C01B"/>
<path d="M45.9589 22.9718L45.7467 22.7256L45.3477 22.8444L45.9589 22.9718Z" fill="#F5C01B"/>
<path d="M40.6992 22.2504L41.7679 22.3945C41.7679 22.3945 41.8951 22.3521 42.0647 22.3521C41.4032 22.2843 40.6823 22.191 40.7077 22.2504H40.6992Z" fill="#F5C01B"/>
<path d="M42.0586 22.3525C42.3979 22.3865 42.7286 22.4119 42.9237 22.3949C42.7371 22.378 42.3385 22.3525 42.0586 22.3525Z" fill="#F5C01B"/>
<path d="M44.5016 22.8448L44.1878 22.76L43.4414 22.6582L44.5016 22.8448Z" fill="#F5C01B"/>
<path d="M29.1649 22.1061L27.9945 22.2418C27.8842 22.3267 28.2065 22.3436 28.639 22.2842C28.9189 22.2164 29.3515 22.1655 29.1649 22.0977V22.1061Z" fill="#F5C01B"/>
<path d="M32.7198 22.5561C32.4057 22.5137 32.3802 22.4712 32.2019 22.4033L32.168 22.6665L32.7113 22.5561H32.7198Z" fill="#F5C01B"/>
<path d="M29.3249 22.7422C29.2146 22.8185 27.654 23.0645 29.1213 22.9457C29.2316 22.8694 30.3936 22.7422 29.3249 22.7422Z" fill="#F5C01B"/>
<path d="M24.5357 28.5694L24.2556 28.459L24.1367 28.8835L24.5357 28.5694Z" fill="#F5C01B"/>
<path d="M39.7228 30.5798C38.3743 30.3932 39.3836 30.8427 38.1707 30.6137C37.84 30.6901 39.1631 30.8003 38.8323 30.8597C39.6635 30.8003 40.0875 30.8851 39.7228 30.5798Z" fill="#F5C01B"/>
<path d="M38.8347 30.8594C38.7073 30.8679 38.563 30.8848 38.4102 30.8933C38.6479 30.8933 38.7667 30.8764 38.8347 30.8594Z" fill="#F5C01B"/>
<path d="M53.3047 27.9084L54.1952 27.6709L53.5931 27.7472L53.3047 27.9084Z" fill="#F5C01B"/>
<path d="M54.8242 26.9826L55.1299 27.1524L55.5374 26.7109C55.3506 26.8043 54.994 26.9826 54.8242 26.9826Z" fill="#F5C01B"/>
<path d="M36.6987 19.9096L36.7497 19.8332C36.6053 19.7908 36.4101 19.8332 36.0195 19.9096H36.6987Z" fill="#F5C01B"/>
<path d="M26.8082 24.9984L26.944 24.8711L26.5195 24.9475L26.8082 24.9984Z" fill="#F5C01B"/>
<path d="M29.1762 29.4596C28.8115 29.3579 28.3705 29.2815 28.0312 29.1543C28.8031 29.3663 29.2017 29.7819 29.1762 29.4596Z" fill="#F5C01B"/>
</g>
<path d="M20.62 21.8947V21.1992H27.6681C27.6681 21.6403 27.6257 22.2255 27.5409 22.9464C27.456 23.6673 27.3627 24.2865 27.261 24.7953H28.6604V25.4908H24.5299V27.4416H27.6172V30.7832H26.8199V28.1455H20.5861V27.45H23.7327V25.4993H19.5938V24.8038H26.4807C26.6673 23.8878 26.786 22.921 26.8454 21.9117H20.62V21.8947Z" fill="#373A36"/>
<path d="M37.2608 30.7833V25.4824H35.556V30.6221H34.7588V28.6035C34.2583 28.9852 33.5289 29.2651 32.5875 29.4432C31.6461 29.6213 30.7725 29.6128 29.9922 29.4262V21.4791H30.7894V28.7901C31.2729 28.9089 31.926 28.8749 32.7656 28.6968C33.6053 28.5187 34.2668 28.2219 34.7588 27.8148V21.1483H35.556V24.7614H37.2608V21.0381H38.058V30.7917H37.2608V30.7833Z" fill="#373A36"/>
<path d="M42.7812 29.5699V28.849C43.7566 28.9932 44.7405 29.0271 45.7243 28.9677V26.7965H46.5216V28.8914C48.2009 28.6963 49.4901 28.2892 50.3806 27.6616V21.0291H51.1779V30.7828H50.3806V28.4419C49.7021 28.9253 48.625 29.2816 47.1492 29.519C45.6734 29.7565 44.2231 29.7735 42.7812 29.5784V29.5699ZM45.6989 20.8171H46.5046V22.2674H48.9557V22.9629H46.5046V23.2512C46.5046 23.5905 46.5894 23.9382 46.7675 24.2945C46.9456 24.6507 47.1746 24.973 47.463 25.2613C47.7514 25.5497 48.0397 25.8126 48.3196 26.0416C48.608 26.2706 48.8879 26.4657 49.1763 26.6353L48.854 27.034C48.7691 27.1357 48.6334 27.1357 48.4638 27.034C48.0313 26.771 47.5902 26.4233 47.1237 25.9992C46.6573 25.5752 46.318 25.1765 46.106 24.7949C45.8515 25.2613 45.4783 25.7448 44.9864 26.2367C44.4945 26.7286 44.0365 27.1103 43.6124 27.3647C43.4513 27.475 43.3156 27.4835 43.2138 27.3732L42.8576 26.9661C43.2817 26.7286 43.6972 26.4318 44.0959 26.0586C44.4945 25.6854 44.8677 25.2444 45.19 24.727C45.5123 24.2096 45.6819 23.7092 45.6819 23.2343V22.9544H43.2392V22.2589H45.6819V20.8086L45.6989 20.8171Z" fill="#373A36"/>
<path d="M52.7578 29.9853V29.2898H56.8968V27.0252H57.694V29.2898H61.8245V29.9853H52.7578ZM53.7247 22.776V22.0806H56.8968V20.7744H57.694V22.0806H60.8576V22.776H57.694V22.9287C57.694 23.7938 58.0587 24.5571 58.7796 25.2187C59.5006 25.8802 60.3826 26.3722 61.4174 26.7029L61.1629 27.1355C61.1205 27.2203 61.0696 27.2627 61.0187 27.2712C60.9678 27.2797 60.883 27.2712 60.7728 27.2288C60.4505 27.1355 60.0773 26.9743 59.6532 26.7538C59.2292 26.5333 58.7881 26.2195 58.3216 25.8209C57.8552 25.4222 57.5159 25.0067 57.3039 24.5826C57.0918 25.0491 56.7526 25.4816 56.2861 25.8887C55.8196 26.2958 55.3701 26.6096 54.946 26.8217C54.522 27.0422 54.1233 27.2033 53.7501 27.3051C53.6484 27.3306 53.572 27.3306 53.5381 27.3136C53.4957 27.2966 53.4533 27.2542 53.4109 27.1694L53.1649 26.7453C54.2336 26.4485 55.1157 25.9566 55.8366 25.2781C56.549 24.5911 56.9052 23.8108 56.9052 22.9202V22.7676H53.7332L53.7247 22.776Z" fill="#373A36"/>
<path d="M66.4805 29.4595V21.5294H70.1105V22.2249H67.2862V28.8234C67.7781 28.9507 68.4482 28.9167 69.3133 28.7217C70.1784 28.5266 70.8484 28.2212 71.3234 27.7887V21.1308H72.1206V24.7439H73.8169V21.0205H74.6142V30.7742H73.8169V25.4733H72.1206V30.613H71.3234V28.5859C70.8399 28.9931 70.119 29.2899 69.1436 29.4765C68.1683 29.6631 67.2862 29.6546 66.489 29.468L66.4805 29.4595Z" fill="#373A36"/>
<path d="M75.832 22.5306V21.8352H78.351C78.4867 21.5553 78.563 21.1651 78.563 20.6562H79.3603C79.3603 21.1906 79.3009 21.5807 79.1737 21.8352H81.6164V22.5306H75.8405H75.832ZM76.9092 26.3558C76.4512 26.008 76.2222 25.55 76.2222 24.9818C76.2222 24.4135 76.4512 23.9555 76.9092 23.6078C77.3672 23.2601 77.9948 23.0904 78.7921 23.0904C79.5893 23.0904 80.2339 23.2685 80.6919 23.6078C81.1499 23.9555 81.3789 24.4135 81.3789 24.9818C81.3789 25.55 81.1499 26.008 80.6919 26.3558C80.2339 26.7035 79.5978 26.8731 78.7921 26.8731C77.9863 26.8731 77.3672 26.7035 76.9092 26.3558ZM77.4689 24.0912C77.1636 24.3117 77.011 24.6086 77.011 24.9818C77.011 25.355 77.1636 25.6603 77.4689 25.8723C77.7743 26.0929 78.2153 26.2031 78.7921 26.2031C79.3688 26.2031 79.8013 26.0929 80.1152 25.8723C80.429 25.6518 80.5901 25.355 80.5901 24.9818C80.5901 24.6086 80.429 24.3202 80.1152 24.0912C79.8013 23.8707 79.3603 23.7605 78.7921 23.7605C78.2238 23.7605 77.7743 23.8707 77.4689 24.0912ZM77.1551 28.3574V27.6619H83.7452V30.7916H82.948V28.3659H77.1551V28.3574ZM83.7452 21.0379V23.7859H85.2719V24.5068H83.7452V27.1276H82.948V21.0379H83.7452Z" fill="#373A36"/>
<path d="M88.53 21.1992V22.2425C88.53 22.9549 88.7505 23.6249 89.1915 24.2526C89.6326 24.8802 90.133 25.3806 90.6928 25.7622L90.3705 26.11C90.2941 26.1863 90.2432 26.2202 90.2008 26.2287C90.1669 26.2287 90.0821 26.1863 89.9464 26.1015C89.6071 25.8301 89.2679 25.4993 88.9286 25.1177C88.5894 24.736 88.3434 24.3543 88.1822 23.9896C87.9957 24.4816 87.7158 24.965 87.3426 25.4315C86.9694 25.898 86.5877 26.2711 86.2061 26.5425C86.1128 26.6104 86.0364 26.6443 85.9856 26.6358C85.9347 26.6358 85.8668 26.5934 85.7735 26.5171L85.4258 26.2033C86.1043 25.7622 86.6556 25.194 87.0797 24.507C87.5037 23.82 87.7158 23.0651 87.7158 22.2425V21.2077H88.5215L88.53 21.1992ZM87.402 29.0022C87.402 27.6621 88.5724 26.9921 90.9218 26.9921C93.2711 26.9921 94.4415 27.6621 94.4415 29.0022C94.4415 30.3422 93.2711 30.9868 90.9218 30.9868C88.5724 30.9868 87.402 30.3253 87.402 29.0022ZM88.1992 29.0022C88.1992 29.8673 89.1067 30.2998 90.9133 30.2998C92.7198 30.2998 93.6443 29.8673 93.6443 29.0022C93.6443 28.1371 92.7368 27.696 90.9133 27.696C89.0898 27.696 88.1992 28.1286 88.1992 29.0022ZM91.9819 21.1483V23.133H93.6104V21.0381H94.4076V26.7631H93.6104V23.8539H91.9819V26.4153H91.1847V21.1483H91.9819Z" fill="#373A36"/>
<path d="M99.125 26.0933V25.3978H102.831V23.1672H103.629V25.3978H108.192V26.0933H99.125ZM100.033 29.0024C100.033 28.3748 100.329 27.8829 100.932 27.5267C101.534 27.1705 102.441 26.9923 103.663 26.9923C104.884 26.9923 105.783 27.1705 106.385 27.5267C106.987 27.8829 107.293 28.3748 107.293 29.0024C107.293 29.6301 106.987 30.1135 106.385 30.4613C105.783 30.809 104.875 30.9871 103.663 30.9871C102.45 30.9871 101.534 30.809 100.932 30.4613C100.329 30.1135 100.033 29.6216 100.033 29.0024ZM100.109 21.9035V21.208H107.276C107.276 21.6406 107.233 22.2597 107.148 23.057C107.064 23.8542 106.979 24.4394 106.886 24.8296H106.105C106.266 24.1511 106.377 23.1757 106.436 21.912H100.1L100.109 21.9035ZM100.821 29.0024C100.821 29.8676 101.771 30.3001 103.663 30.3001C105.554 30.3001 106.512 29.8676 106.512 29.0024C106.512 28.1373 105.562 27.6963 103.663 27.6963C101.763 27.6963 100.821 28.1289 100.821 29.0024Z" fill="#373A36"/>
<path d="M109.106 29.9862V29.2907H113.245V26.5257H110.158V21.4199H117.121V26.5257H114.034V29.2907H118.164V29.9862H109.098H109.106ZM110.955 25.8303H116.324V22.1239H110.955V25.8303Z" fill="#373A36"/>
<path d="M119.191 22.0056V21.3102H124.56V22.0056H122.253V22.8368C122.253 23.4984 122.516 24.1599 123.042 24.83C123.568 25.5 124.136 26.0428 124.764 26.4669L124.467 26.8231C124.399 26.9079 124.34 26.9503 124.289 26.9503C124.238 26.9503 124.153 26.9164 124.043 26.8316C123.721 26.5856 123.33 26.2209 122.881 25.7375C122.431 25.254 122.101 24.796 121.88 24.3635C121.651 24.9233 121.312 25.4576 120.862 25.958C120.413 26.4584 119.98 26.8655 119.573 27.1708C119.42 27.2896 119.285 27.2811 119.166 27.1369L118.844 26.7892C119.471 26.416 120.065 25.8477 120.625 25.0759C121.185 24.3041 121.465 23.5493 121.465 22.8114V22.0056H119.2H119.191ZM120.557 27.5949H121.354V29.9697H127.435V30.6652H120.557V27.5949ZM124.111 23.9988V23.3033H126.426V21.0303H127.223V27.9766H126.426V24.0073H124.111V23.9988Z" fill="#373A36"/>
<path d="M132.899 25.7966C132.433 25.2707 132.195 24.6007 132.195 23.795C132.195 22.9892 132.433 22.3192 132.899 21.7933C133.366 21.2675 133.993 20.9961 134.782 20.9961C135.741 20.9961 136.461 21.3862 136.945 22.175H139.515V21.03H140.312V27.9763H139.515V25.3047H137.004C136.792 25.7118 136.487 26.0256 136.105 26.2546C135.724 26.4836 135.274 26.5938 134.774 26.5938C133.993 26.5938 133.366 26.3309 132.891 25.7966H132.899ZM133.468 22.2768C133.154 22.6754 132.993 23.1843 132.993 23.795C132.993 24.4056 133.145 24.9145 133.468 25.3131C133.781 25.7118 134.222 25.9153 134.782 25.9153C135.342 25.9153 135.774 25.7118 136.088 25.3131C136.402 24.906 136.563 24.4056 136.563 23.795C136.563 23.1843 136.402 22.6839 136.088 22.2768C135.774 21.8697 135.333 21.6746 134.782 21.6746C134.231 21.6746 133.781 21.8782 133.468 22.2768ZM133.654 27.4929H134.451V29.9779H140.533V30.6734H133.654V27.4929ZM137.369 23.795C137.369 24.0749 137.335 24.3463 137.267 24.6007H139.523V22.8705H137.25C137.335 23.1758 137.369 23.4812 137.369 23.795Z" fill="#373A36"/>
<path d="M141.836 22.4713V21.7758H144.389C144.508 21.5044 144.567 21.1312 144.567 20.6562H145.364C145.364 21.1567 145.305 21.5298 145.195 21.7758H147.612V22.4713H141.836ZM142.922 26.0844C142.455 25.7536 142.226 25.321 142.226 24.7952C142.226 24.2693 142.455 23.8283 142.922 23.506C143.388 23.1752 144.016 23.0141 144.796 23.0141C145.576 23.0141 146.212 23.1837 146.679 23.5145C147.145 23.8453 147.374 24.2778 147.374 24.8037C147.374 25.3295 147.145 25.7536 146.679 26.0929C146.212 26.4236 145.585 26.5933 144.796 26.5933C144.007 26.5933 143.388 26.4321 142.922 26.1013V26.0844ZM143.49 23.9895C143.176 24.193 143.015 24.4644 143.015 24.7867C143.015 25.109 143.176 25.3804 143.49 25.584C143.804 25.7875 144.245 25.8978 144.796 25.8978C145.347 25.8978 145.788 25.796 146.111 25.584C146.433 25.3804 146.594 25.109 146.594 24.7867C146.594 24.4644 146.433 24.193 146.111 23.9895C145.788 23.7859 145.347 23.6756 144.796 23.6756C144.245 23.6756 143.804 23.7774 143.49 23.9895ZM148.952 27.2039H149.749V30.7746H143.244V27.2039H144.041V28.2047H148.943V27.2039H148.952ZM144.05 30.0791H148.952V28.9257H144.05V30.0791ZM149.749 21.0294V23.5823H151.276V24.3033H149.749V26.6866H148.952V21.0294H149.749Z" fill="#373A36"/>
<path d="M152.964 24.4476V21.1992H159.978V21.8947H153.761V23.7437H160.088V24.4391H156.874V25.8046H161.004V26.5001H151.938V25.8046H156.076V24.4391H152.972L152.964 24.4476ZM152.845 29.1378C152.845 27.8996 154.058 27.2719 156.475 27.2719C157.696 27.2719 158.604 27.4331 159.206 27.7639C159.808 28.0861 160.105 28.5441 160.105 29.1378C160.105 29.7315 159.808 30.1726 159.206 30.4949C158.604 30.8172 157.696 30.9783 156.475 30.9783C154.058 30.9783 152.845 30.3677 152.845 29.1378ZM153.634 29.1378C153.634 29.9097 154.584 30.2913 156.475 30.2913C158.366 30.2913 159.325 29.9097 159.325 29.1378C159.325 28.366 158.375 27.9759 156.475 27.9759C154.575 27.9759 153.634 28.366 153.634 29.1378Z" fill="#373A36"/>
<path d="M164.608 29.6389C162.869 29.6389 162.004 28.248 162.004 25.4661C162.004 22.6842 162.869 21.2932 164.608 21.2932C166.346 21.2932 167.212 22.6842 167.212 25.4661C167.212 28.248 166.346 29.6389 164.608 29.6389ZM163.208 22.8623C162.937 23.4475 162.801 24.3211 162.801 25.4661C162.801 26.6111 162.937 27.4762 163.208 28.0699C163.48 28.6551 163.946 28.9519 164.608 28.9519C165.269 28.9519 165.736 28.6551 166.007 28.0614C166.287 27.4677 166.423 26.6026 166.423 25.4661C166.423 24.3296 166.287 23.4644 166.007 22.8707C165.727 22.277 165.261 21.9802 164.608 21.9802C163.955 21.9802 163.48 22.277 163.208 22.8623ZM169.705 21.0303V24.7282H171.291V25.4491H169.705V30.7839H168.908V21.0303H169.705Z" fill="#373A36"/>
<path d="M172.387 29.5372V24.9572H176.263V22.1922H172.387V21.4968H177.06V25.6527H173.192V28.9011C174.168 29.0198 175.228 28.9689 176.356 28.7569C177.493 28.5448 178.417 28.2225 179.121 27.8069V21.0303H179.918V30.7839H179.121V28.5788C178.392 28.9943 177.374 29.3082 176.068 29.5202C174.762 29.7322 173.532 29.7407 172.387 29.5456V29.5372Z" fill="#373A36"/>
<path d="M60.9225 84.1385V77.4297H63.6281C64.1031 77.4297 64.5017 77.5484 64.8325 77.7944C65.1548 78.0319 65.3159 78.3881 65.3159 78.8461C65.3159 79.5585 65.053 80.0674 64.5272 80.3473C64.9427 80.5254 65.265 80.7714 65.4686 81.0767C65.6806 81.382 65.7824 81.7213 65.7824 82.0945C65.7824 82.6118 65.5958 83.0868 65.2311 83.5024C64.8579 83.9265 64.383 84.1385 63.7808 84.1385H60.9141H60.9225ZM61.5502 80.1098H63.4246C63.8232 80.1098 64.137 80.008 64.366 79.7875C64.595 79.5755 64.7138 79.2871 64.7138 78.9309C64.7138 78.7528 64.6883 78.6086 64.6374 78.4899C64.5865 78.3711 64.5187 78.2778 64.4423 78.21C64.366 78.1421 64.2557 78.0912 64.12 78.0488C63.9843 78.0149 63.8571 77.9895 63.7384 77.981C63.6196 77.9725 63.4755 77.964 63.2973 77.964H61.5417V80.1013L61.5502 80.1098ZM61.5502 83.5957H63.5348C64.0776 83.5957 64.4932 83.4515 64.7816 83.1631C65.0615 82.8748 65.2057 82.5016 65.2057 82.0521C65.2057 81.1191 64.5017 80.6526 63.0938 80.6526H61.5587V83.5957H61.5502Z" fill="#373A36"/>
<path d="M66.9186 84.1381V79.0917H67.5632V79.9313C67.7922 79.5921 68.0806 79.3376 68.4283 79.1595C68.7761 78.9814 69.1323 78.8796 69.48 78.8457V79.4479C69.0644 79.4564 68.6404 79.643 68.2078 79.9907C67.7753 80.3384 67.5547 80.7031 67.5547 81.0763V84.1381H66.9102H66.9186Z" fill="#373A36"/>
<path d="M71.008 81.2972C71.237 81.1615 71.5592 81.0428 71.9579 80.9325C72.3565 80.8222 72.7551 80.7629 73.1453 80.7544V80.5678C73.1453 79.7197 72.7297 79.3465 71.907 79.4567C71.4659 79.5161 70.9655 79.779 70.4058 80.254L70.0665 79.796C70.7281 79.2193 71.4066 78.9139 72.0851 78.8715C72.5685 78.8461 72.9756 78.9648 73.2979 79.2447C73.6202 79.5246 73.7814 79.9232 73.7814 80.4406V84.147H73.2386L73.1707 83.6805C73.0265 83.8756 72.7806 84.0282 72.4498 84.147C72.119 84.2572 71.8222 84.3166 71.5677 84.3166C71.1437 84.3166 70.779 84.1979 70.4821 83.9604C70.1852 83.7229 70.0241 83.3667 70.0156 82.8832C70.0156 82.5694 70.1089 82.2641 70.3125 81.9757C70.516 81.6874 70.7535 81.4584 71.0164 81.3057L71.008 81.2972ZM70.8807 82.2217C70.7281 82.4337 70.6517 82.6627 70.6517 82.9172C70.6517 83.1716 70.7365 83.3752 70.9147 83.5193C71.0928 83.6635 71.3302 83.7399 71.6356 83.7399C72.1275 83.7399 72.5007 83.6126 72.7551 83.3582C73.0096 83.1038 73.1453 82.7306 73.1453 82.2302V81.3142C72.8569 81.3227 72.577 81.3651 72.2971 81.4329C72.0172 81.5008 71.7458 81.6025 71.4914 81.7213C71.237 81.84 71.0334 82.0096 70.8807 82.2217Z" fill="#373A36"/>
<path d="M75.0195 84.1391V79.0927H75.6472V79.7542C76.0543 79.2538 76.5292 78.9909 77.0636 78.957C77.5555 78.9315 77.9541 79.0757 78.2679 79.4065C78.5817 79.7288 78.7429 80.1613 78.7429 80.6872V84.1391H78.1237V80.8907C78.1237 80.3818 78.0135 80.0171 77.8014 79.7797C77.5894 79.5422 77.2586 79.4743 76.8261 79.5591C76.5716 79.61 76.3087 79.7797 76.0458 80.0511C75.7829 80.331 75.6556 80.6448 75.6556 81.001V84.1391H75.028H75.0195Z" fill="#373A36"/>
<path d="M83.8568 77.3369V84.1305H83.3479L83.2292 83.5538C83.068 83.7913 82.856 83.9779 82.5846 84.1051C82.3132 84.2323 82.0503 84.3002 81.7873 84.3002C81.1852 84.3002 80.7017 84.0627 80.354 83.5877C80.0062 83.1128 79.8281 82.4682 79.8281 81.6624C79.8281 80.8567 80.0062 80.246 80.3709 79.7711C80.7356 79.2961 81.2106 79.0671 81.7958 79.0671C82.0418 79.0671 82.2962 79.1265 82.5676 79.2537C82.839 79.3725 83.0595 79.576 83.2292 79.8559V77.3369H83.8568ZM81.8467 83.7065C82.2369 83.7065 82.5676 83.5199 82.8306 83.1382C83.102 82.7566 83.2292 82.2816 83.2292 81.7218C83.2292 81.1027 83.102 80.6108 82.8475 80.2291C82.5931 79.8474 82.2453 79.6608 81.8043 79.6608C81.3633 79.6608 81.0325 79.8389 80.795 80.1952C80.5575 80.5514 80.4388 81.0518 80.4388 81.6964C80.4388 82.341 80.5575 82.8414 80.8035 83.1891C81.041 83.5368 81.3972 83.715 81.8467 83.715V83.7065Z" fill="#373A36"/>
<path d="M92.6251 84.1385L92.0229 82.5525H88.588L87.9943 84.1385H87.3242L89.8771 77.4297H90.7422L93.3036 84.1385H92.6336H92.6251ZM90.3097 77.981L88.8 82.0097H91.8194L90.3097 77.981Z" fill="#373A36"/>
<path d="M97.8529 77.3369V84.1305H97.344L97.2253 83.5538C97.0641 83.7913 96.8521 83.9779 96.5807 84.1051C96.3093 84.2323 96.0464 84.3002 95.7834 84.3002C95.1812 84.3002 94.6978 84.0627 94.3501 83.5877C93.9938 83.1128 93.8242 82.4682 93.8242 81.6624C93.8242 80.8567 94.0023 80.246 94.367 79.7711C94.7317 79.2961 95.2067 79.0671 95.7919 79.0671C96.0379 79.0671 96.2923 79.1265 96.5637 79.2537C96.8351 79.3725 97.0556 79.576 97.2253 79.8559V77.3369H97.8529ZM95.8428 83.7065C96.2329 83.7065 96.5637 83.5199 96.8266 83.1382C97.0981 82.7566 97.2253 82.2816 97.2253 81.7218C97.2253 81.1027 97.0981 80.6108 96.8436 80.2291C96.5892 79.8474 96.2414 79.6608 95.8004 79.6608C95.3594 79.6608 95.0286 79.8389 94.7911 80.1952C94.5536 80.5514 94.4349 81.0518 94.4349 81.6964C94.4349 82.341 94.5536 82.8414 94.7996 83.1891C95.0371 83.5368 95.3933 83.715 95.8428 83.715V83.7065Z" fill="#373A36"/>
<path d="M106.834 84.1385V79.1175L104.841 84.0537H104.315L102.322 79.1175V84.1385H101.711V77.4297H102.322L104.578 83.2395L106.834 77.4297H107.444V84.1385H106.834Z" fill="#373A36"/>
<path d="M109.527 81.2972C109.756 81.1615 110.079 81.0428 110.477 80.9325C110.876 80.8222 111.275 80.7629 111.665 80.7544V80.5678C111.665 79.7197 111.249 79.3465 110.427 79.4567C109.985 79.5161 109.485 79.779 108.925 80.254L108.586 79.796C109.248 79.2193 109.926 78.9139 110.605 78.8715C111.088 78.8461 111.495 78.9648 111.817 79.2447C112.14 79.5246 112.301 79.9232 112.301 80.4406V84.147H111.758L111.69 83.6805C111.546 83.8756 111.3 84.0282 110.969 84.147C110.639 84.2572 110.342 84.3166 110.087 84.3166C109.663 84.3166 109.298 84.1979 109.002 83.9604C108.705 83.7229 108.544 83.3667 108.535 82.8832C108.535 82.5694 108.628 82.2641 108.832 81.9757C109.036 81.6874 109.273 81.4584 109.536 81.3057L109.527 81.2972ZM109.4 82.2217C109.248 82.4337 109.171 82.6627 109.171 82.9172C109.171 83.1716 109.256 83.3752 109.434 83.5193C109.612 83.6635 109.85 83.7399 110.155 83.7399C110.647 83.7399 111.02 83.6126 111.275 83.3582C111.529 83.1038 111.665 82.7306 111.665 82.2302V81.3142C111.376 81.3227 111.097 81.3651 110.817 81.4329C110.537 81.5008 110.265 81.6025 110.011 81.7213C109.756 81.84 109.553 82.0096 109.4 82.2217Z" fill="#373A36"/>
<path d="M113.633 84.1381V79.0917H114.278V79.9313C114.507 79.5921 114.795 79.3376 115.143 79.1595C115.491 78.9814 115.847 78.8796 116.195 78.8457V79.4479C115.779 79.4564 115.355 79.643 114.923 79.9907C114.49 80.3384 114.27 80.7031 114.27 81.0763V84.1381H113.625H113.633Z" fill="#373A36"/>
<path d="M117.07 84.1384V77.3447H117.698V81.577L120.412 79.1004H121.235L119.046 81.1105L121.294 84.1468H120.599L118.614 81.5091L117.706 82.3403V84.1468H117.079L117.07 84.1384Z" fill="#373A36"/>
<path d="M125.484 81.713V82.0693H122.193C122.227 82.5697 122.363 82.9768 122.618 83.2821C122.872 83.5874 123.228 83.7401 123.678 83.7316C123.915 83.7316 124.17 83.6723 124.45 83.5705C124.721 83.4687 124.941 83.316 125.111 83.104L125.425 83.4857C124.95 84.0115 124.356 84.2744 123.644 84.2914C122.999 84.2914 122.482 84.0454 122.1 83.545C121.719 83.0361 121.523 82.4255 121.523 81.7215C121.523 80.8564 121.702 80.1694 122.058 79.6436C122.414 79.1262 122.923 78.8633 123.593 78.8633C124.195 78.8633 124.662 79.1262 124.992 79.6436C125.323 80.1609 125.484 80.8479 125.484 81.713ZM123.559 79.4485C123.152 79.4485 122.813 79.6266 122.55 79.9913C122.278 80.356 122.151 80.8649 122.151 81.5349H124.857C124.865 80.8903 124.755 80.3815 124.509 80.0083C124.263 79.6351 123.949 79.4485 123.567 79.4485H123.559Z" fill="#373A36"/>
<path d="M129.02 79.0499V79.6012H127.621V82.9852C127.621 83.2821 127.655 83.4857 127.731 83.5959C127.807 83.7062 127.952 83.7571 128.155 83.7486C128.401 83.7401 128.69 83.6553 129.037 83.5111L129.173 83.9776C129.012 84.0878 128.808 84.1726 128.562 84.2405C128.316 84.3084 128.096 84.3423 127.918 84.3423C127.646 84.3508 127.417 84.2575 127.248 84.0539C127.078 83.8504 126.993 83.5874 126.993 83.2567V79.6096H125.891V79.0583H126.993V77.3281H127.621V79.0583H129.02V79.0499Z" fill="#373A36"/>
<path d="M130.633 77.0312C130.76 77.0312 130.879 77.0737 130.972 77.167C131.074 77.2603 131.124 77.3875 131.124 77.5571C131.124 77.7437 131.074 77.8794 130.98 77.9642C130.887 78.049 130.768 78.0914 130.633 78.0914C130.497 78.0914 130.387 78.049 130.285 77.9642C130.183 77.8794 130.141 77.7437 130.141 77.5571C130.141 77.3875 130.192 77.2603 130.285 77.167C130.387 77.0737 130.497 77.0312 130.633 77.0312ZM130.946 79.0838V84.1302H130.302V79.0838H130.946Z" fill="#373A36"/>
<path d="M132.473 84.1391V79.0927H133.1V79.7542C133.507 79.2538 133.982 78.9909 134.517 78.957C135.009 78.9315 135.407 79.0757 135.721 79.4065C136.035 79.7288 136.196 80.1613 136.196 80.6872V84.1391H135.577V80.8907C135.577 80.3818 135.467 80.0171 135.255 79.7797C135.043 79.5507 134.712 79.4743 134.279 79.5591C134.025 79.61 133.762 79.7797 133.499 80.0511C133.236 80.331 133.109 80.6448 133.109 81.001V84.1391H132.481H132.473Z" fill="#373A36"/>
<path d="M141.319 79.092V83.3497C141.319 83.9349 141.175 84.4184 140.878 84.7916C140.581 85.1647 140.132 85.3598 139.529 85.3768C138.859 85.3853 138.223 85.2835 137.621 85.0714L137.74 84.5117C138.266 84.7152 138.826 84.817 139.419 84.817C139.826 84.817 140.14 84.6898 140.361 84.4268C140.581 84.1639 140.691 83.8247 140.691 83.4176V82.8663C140.53 83.1207 140.31 83.2988 140.021 83.4176C139.733 83.5363 139.479 83.5957 139.25 83.6041C138.656 83.6041 138.181 83.3921 137.816 82.9511C137.452 82.51 137.273 81.9418 137.273 81.2378C137.273 80.5339 137.46 79.9656 137.825 79.5076C138.189 79.0496 138.673 78.8291 139.275 78.8291C139.513 78.8291 139.775 78.897 140.064 79.0411C140.352 79.1768 140.556 79.355 140.683 79.5585V79.1005H141.311L141.319 79.092ZM139.343 79.3974C138.885 79.3974 138.537 79.5585 138.283 79.8893C138.037 80.2116 137.91 80.6526 137.91 81.2039C137.91 81.7552 138.028 82.1962 138.257 82.527C138.486 82.8578 138.826 83.0274 139.267 83.0189C139.708 83.0189 140.055 82.8408 140.318 82.4931C140.573 82.1453 140.7 81.6958 140.7 81.1361C140.7 80.6272 140.573 80.2031 140.318 79.8808C140.064 79.5585 139.733 79.3974 139.343 79.3974Z" fill="#373A36"/>
<path d="M145.18 84.1385V77.4297H147.436C148.055 77.4297 148.564 77.5993 148.954 77.9471C149.344 78.2948 149.548 78.8122 149.548 79.5161C149.548 80.2201 149.336 80.7629 148.903 81.153C148.479 81.5347 147.953 81.7298 147.342 81.7298H145.807V84.1385H145.18ZM147.164 77.9725H145.807V81.1785H147.122C147.69 81.1785 148.131 81.0428 148.454 80.7799C148.776 80.5085 148.937 80.0929 148.937 79.5246C148.937 78.9563 148.784 78.5662 148.479 78.3287C148.174 78.0912 147.733 77.9725 147.164 77.9725Z" fill="#373A36"/>
<path d="M151.504 77.3369V84.1305H150.859V77.3369H151.504Z" fill="#373A36"/>
<path d="M153.863 81.2972C154.092 81.1615 154.415 81.0428 154.813 80.9325C155.212 80.8222 155.611 80.7629 156.001 80.7544V80.5678C156.001 79.7197 155.585 79.3465 154.762 79.4567C154.321 79.5161 153.821 79.779 153.261 80.254L152.922 79.796C153.584 79.2193 154.262 78.9139 154.941 78.8715C155.424 78.8461 155.831 78.9648 156.153 79.2447C156.476 79.5246 156.637 79.9232 156.637 80.4406V84.147H156.094L156.026 83.6805C155.882 83.8756 155.636 84.0282 155.305 84.147C154.974 84.2572 154.678 84.3166 154.423 84.3166C153.999 84.3166 153.634 84.1979 153.338 83.9604C153.041 83.7229 152.88 83.3667 152.871 82.8832C152.871 82.5694 152.964 82.2641 153.168 81.9757C153.371 81.6874 153.609 81.4584 153.872 81.3057L153.863 81.2972ZM153.736 82.2217C153.584 82.4337 153.507 82.6627 153.507 82.9172C153.507 83.1716 153.592 83.3752 153.77 83.5193C153.948 83.6635 154.186 83.7399 154.491 83.7399C154.983 83.7399 155.356 83.6126 155.611 83.3582C155.865 83.1038 156.001 82.7306 156.001 82.2302V81.3142C155.712 81.3227 155.432 81.3651 155.153 81.4329C154.873 81.5008 154.601 81.6025 154.347 81.7213C154.092 81.84 153.889 82.0096 153.736 82.2217Z" fill="#373A36"/>
<path d="M157.875 84.1391V79.0927H158.503V79.7542C158.91 79.2538 159.385 78.9909 159.919 78.957C160.411 78.9315 160.81 79.0757 161.123 79.4065C161.437 79.7288 161.598 80.1613 161.598 80.6872V84.1391H160.979V80.8907C160.979 80.3818 160.869 80.0171 160.657 79.7797C160.445 79.5422 160.114 79.4743 159.682 79.5591C159.427 79.61 159.164 79.7797 158.901 80.0511C158.638 80.331 158.511 80.6448 158.511 81.001V84.1391H157.883H157.875Z" fill="#373A36"/>
<path d="M162.855 84.1391V79.0927H163.483V79.7542C163.89 79.2538 164.365 78.9909 164.899 78.957C165.391 78.9315 165.79 79.0757 166.104 79.4065C166.418 79.7288 166.579 80.1613 166.579 80.6872V84.1391H165.96V80.8907C165.96 80.3818 165.849 80.0171 165.637 79.7797C165.425 79.5422 165.095 79.4743 164.662 79.5591C164.408 79.61 164.145 79.7797 163.882 80.0511C163.619 80.331 163.492 80.6448 163.492 81.001V84.1391H162.864H162.855Z" fill="#373A36"/>
<path d="M171.621 81.713V82.0693H168.33C168.364 82.5697 168.5 82.9768 168.754 83.2821C169.009 83.5874 169.365 83.7401 169.814 83.7316C170.052 83.7316 170.306 83.6723 170.586 83.5705C170.858 83.4687 171.078 83.316 171.248 83.104L171.562 83.4857C171.087 84.0115 170.493 84.2744 169.781 84.2914C169.136 84.2914 168.619 84.0454 168.237 83.545C167.855 83.0361 167.66 82.4255 167.66 81.7215C167.66 80.8564 167.838 80.1694 168.194 79.6436C168.551 79.1262 169.06 78.8633 169.73 78.8633C170.332 78.8633 170.798 79.1262 171.129 79.6436C171.46 80.1609 171.621 80.8479 171.621 81.713ZM169.696 79.4485C169.289 79.4485 168.949 79.6266 168.686 79.9913C168.415 80.356 168.288 80.8649 168.288 81.5349H170.993C171.002 80.8903 170.892 80.3815 170.646 80.0083C170.4 79.6351 170.086 79.4485 169.704 79.4485H169.696Z" fill="#373A36"/>
<path d="M172.766 84.1381V79.0917H173.411V79.9313C173.64 79.5921 173.928 79.3376 174.276 79.1595C174.632 78.9814 174.98 78.8796 175.328 78.8457V79.4479C174.912 79.4564 174.488 79.643 174.055 79.9907C173.623 80.3384 173.402 80.7031 173.402 81.0763V84.1381H172.758H172.766Z" fill="#373A36"/>
</svg>
