<svg width="402" height="68" viewBox="0 0 402 68" fill="none" xmlns="http://www.w3.org/2000/svg">
<path d="M0 11.0629V42.9736L24.9814 54L50 42.9736V11.0629L24.9814 0L0 11.0629Z" fill="#F5B51C"/>
<path d="M202 11.0629V42.9736L226.981 54L252 42.9736V11.0629L226.981 0L202 11.0629Z" fill="#212C29"/>
<path d="M68.376 4.16C68.984 4.16 69.5493 4.208 70.072 4.304C70.5947 4.4 71.048 4.56 71.432 4.784C71.816 5.008 72.1147 5.30667 72.328 5.68C72.552 6.05333 72.664 6.51733 72.664 7.072C72.664 7.33867 72.6267 7.60533 72.552 7.872C72.4773 8.13867 72.3707 8.38933 72.232 8.624C72.0933 8.85867 71.9227 9.06667 71.72 9.248C71.528 9.41867 71.304 9.54667 71.048 9.632V9.712C71.688 9.86133 72.216 10.1653 72.632 10.624C73.0587 11.0827 73.272 11.712 73.272 12.512C73.272 13.1093 73.1547 13.6267 72.92 14.064C72.6853 14.5013 72.36 14.864 71.944 15.152C71.5387 15.44 71.0533 15.6533 70.488 15.792C69.9333 15.9307 69.3307 16 68.68 16H64.456V4.16H68.376ZM68.2 8.976C68.968 8.976 69.5173 8.83733 69.848 8.56C70.1893 8.28267 70.36 7.904 70.36 7.424C70.36 6.90133 70.184 6.528 69.832 6.304C69.48 6.08 68.9467 5.968 68.232 5.968H66.824V8.976H68.2ZM68.472 14.176C69.2827 14.176 69.9013 14.032 70.328 13.744C70.7547 13.4453 70.968 12.9867 70.968 12.368C70.968 11.792 70.76 11.376 70.344 11.12C69.928 10.864 69.304 10.736 68.472 10.736H66.824V14.176H68.472ZM77.0586 12.96L76.2266 16H73.8266L77.6186 4.16H80.4026L84.2106 16H81.7306L80.8986 12.96H77.0586ZM80.0346 9.824C79.8533 9.20533 79.6773 8.56533 79.5066 7.904C79.3466 7.24267 79.176 6.592 78.9946 5.952H78.9306C78.7813 6.60267 78.6213 7.25867 78.4506 7.92C78.28 8.57067 78.104 9.20533 77.9226 9.824L77.5706 11.12H80.3866L80.0346 9.824ZM88.2206 4.16L90.2366 9.696C90.3646 10.0693 90.4873 10.448 90.6046 10.832L90.9566 11.984H91.0366C91.1646 11.6 91.282 11.216 91.3886 10.832C91.506 10.448 91.6286 10.0693 91.7566 9.696L93.7246 4.16H96.3486V16H94.1886V11.056C94.1886 10.7787 94.194 10.4747 94.2046 10.144C94.226 9.80267 94.2526 9.46133 94.2846 9.12C94.3166 8.768 94.3486 8.42667 94.3806 8.096C94.4126 7.75467 94.4446 7.44533 94.4766 7.168H94.4126L93.4526 9.952L91.6286 14.928H90.2686L88.4286 9.952L87.4846 7.168H87.4206C87.4526 7.44533 87.4846 7.75467 87.5166 8.096C87.5593 8.42667 87.5913 8.768 87.6126 9.12C87.6446 9.46133 87.6713 9.80267 87.6926 10.144C87.714 10.4747 87.7246 10.7787 87.7246 11.056V16H85.5966V4.16H88.2206ZM103.141 4.16C103.792 4.16 104.4 4.224 104.965 4.352C105.53 4.46933 106.021 4.672 106.437 4.96C106.853 5.248 107.178 5.632 107.413 6.112C107.658 6.58133 107.781 7.168 107.781 7.872C107.781 8.544 107.658 9.13067 107.413 9.632C107.178 10.1227 106.853 10.528 106.437 10.848C106.032 11.168 105.552 11.408 104.997 11.568C104.442 11.7173 103.845 11.792 103.205 11.792H101.621V16H99.2529V4.16H103.141ZM103.045 9.92C104.656 9.92 105.461 9.23733 105.461 7.872C105.461 7.17867 105.248 6.69867 104.821 6.432C104.405 6.16533 103.786 6.032 102.965 6.032H101.621V9.92H103.045ZM111.998 4.16H114.51L115.694 7.04C115.864 7.488 116.03 7.92533 116.19 8.352C116.36 8.768 116.536 9.20533 116.718 9.664H116.782C116.963 9.20533 117.139 8.768 117.31 8.352C117.491 7.92533 117.667 7.488 117.838 7.04L119.022 4.16H121.486L117.918 11.664V16H115.55V11.664L111.998 4.16ZM125.621 16.224C125.002 16.224 124.421 16.1173 123.877 15.904C123.333 15.6907 122.858 15.3867 122.453 14.992C122.058 14.5867 121.743 14.096 121.509 13.52C121.285 12.9333 121.173 12.272 121.173 11.536C121.173 10.8107 121.29 10.16 121.525 9.584C121.759 8.99733 122.069 8.50133 122.453 8.096C122.847 7.68 123.295 7.36533 123.797 7.152C124.298 6.928 124.815 6.816 125.349 6.816C125.967 6.816 126.506 6.92267 126.965 7.136C127.434 7.34933 127.823 7.648 128.133 8.032C128.453 8.416 128.693 8.86933 128.853 9.392C129.013 9.91467 129.093 10.4853 129.093 11.104C129.093 11.3173 129.082 11.5253 129.061 11.728C129.039 11.92 129.013 12.0693 128.981 12.176H123.461C123.557 12.912 123.823 13.472 124.261 13.856C124.709 14.2293 125.269 14.416 125.941 14.416C126.314 14.416 126.661 14.3627 126.981 14.256C127.311 14.1493 127.637 13.9947 127.957 13.792L128.757 15.232C128.309 15.5413 127.818 15.7867 127.285 15.968C126.751 16.1387 126.197 16.224 125.621 16.224ZM127.077 10.624C127.077 10.016 126.938 9.536 126.661 9.184C126.383 8.82133 125.957 8.64 125.381 8.64C124.911 8.64 124.49 8.81067 124.117 9.152C123.743 9.48267 123.514 9.97333 123.429 10.624H127.077ZM131.03 3.232H133.366V16H131.03V3.232ZM136.077 3.232H138.413V16H136.077V3.232ZM144.867 16.224C144.313 16.224 143.774 16.1173 143.251 15.904C142.729 15.6907 142.27 15.3867 141.875 14.992C141.481 14.5867 141.161 14.096 140.915 13.52C140.681 12.9333 140.563 12.272 140.563 11.536C140.563 10.7893 140.681 10.1227 140.915 9.536C141.161 8.94933 141.481 8.45867 141.875 8.064C142.27 7.65867 142.729 7.34933 143.251 7.136C143.774 6.92267 144.313 6.816 144.867 6.816C145.433 6.816 145.971 6.92267 146.483 7.136C147.006 7.34933 147.465 7.65867 147.859 8.064C148.254 8.45867 148.569 8.94933 148.803 9.536C149.049 10.1227 149.171 10.7893 149.171 11.536C149.171 12.272 149.049 12.9333 148.803 13.52C148.569 14.096 148.254 14.5867 147.859 14.992C147.465 15.3867 147.006 15.6907 146.483 15.904C145.971 16.1173 145.433 16.224 144.867 16.224ZM144.867 14.304C145.475 14.304 145.945 14.0533 146.275 13.552C146.606 13.0507 146.771 12.3787 146.771 11.536C146.771 10.672 146.606 9.98933 146.275 9.488C145.945 8.98667 145.475 8.736 144.867 8.736C144.259 8.736 143.79 8.98667 143.459 9.488C143.129 9.98933 142.963 10.672 142.963 11.536C142.963 12.3787 143.129 13.0507 143.459 13.552C143.79 14.0533 144.259 14.304 144.867 14.304ZM152.659 7.04L153.635 11.472C153.72 11.92 153.795 12.3573 153.859 12.784C153.923 13.2 153.998 13.632 154.083 14.08H154.147C154.232 13.632 154.318 13.1947 154.403 12.768C154.488 12.3307 154.59 11.8987 154.707 11.472L155.779 7.04H157.875L158.995 11.472C159.102 11.92 159.198 12.3573 159.283 12.784C159.368 13.2 159.459 13.632 159.555 14.08H159.635C159.72 13.632 159.795 13.2 159.859 12.784C159.923 12.3573 159.998 11.92 160.083 11.472L161.059 7.04H163.235L161.027 16H158.259L157.315 12.096C157.219 11.6693 157.128 11.248 157.043 10.832C156.968 10.416 156.888 9.968 156.803 9.488H156.723C156.638 9.968 156.558 10.4213 156.483 10.848C156.408 11.264 156.323 11.68 156.227 12.096L155.315 16H152.627L150.307 7.04H152.659Z" fill="black"/>
<path d="M271.411 4.16C272.019 4.16 272.584 4.208 273.107 4.304C273.63 4.4 274.083 4.56 274.467 4.784C274.851 5.008 275.15 5.30667 275.363 5.68C275.587 6.05333 275.699 6.51733 275.699 7.072C275.699 7.33867 275.662 7.60533 275.587 7.872C275.512 8.13867 275.406 8.38933 275.267 8.624C275.128 8.85867 274.958 9.06667 274.755 9.248C274.563 9.41867 274.339 9.54667 274.083 9.632V9.712C274.723 9.86133 275.251 10.1653 275.667 10.624C276.094 11.0827 276.307 11.712 276.307 12.512C276.307 13.1093 276.19 13.6267 275.955 14.064C275.72 14.5013 275.395 14.864 274.979 15.152C274.574 15.44 274.088 15.6533 273.523 15.792C272.968 15.9307 272.366 16 271.715 16H267.491V4.16H271.411ZM271.235 8.976C272.003 8.976 272.552 8.83733 272.883 8.56C273.224 8.28267 273.395 7.904 273.395 7.424C273.395 6.90133 273.219 6.528 272.867 6.304C272.515 6.08 271.982 5.968 271.267 5.968H269.859V8.976H271.235ZM271.507 14.176C272.318 14.176 272.936 14.032 273.363 13.744C273.79 13.4453 274.003 12.9867 274.003 12.368C274.003 11.792 273.795 11.376 273.379 11.12C272.963 10.864 272.339 10.736 271.507 10.736H269.859V14.176H271.507ZM280.094 12.96L279.262 16H276.862L280.654 4.16H283.438L287.246 16H284.766L283.934 12.96H280.094ZM283.07 9.824C282.888 9.20533 282.712 8.56533 282.542 7.904C282.382 7.24267 282.211 6.592 282.03 5.952H281.966C281.816 6.60267 281.656 7.25867 281.486 7.92C281.315 8.57067 281.139 9.20533 280.958 9.824L280.606 11.12H283.422L283.07 9.824ZM291.256 4.16L293.272 9.696C293.4 10.0693 293.522 10.448 293.64 10.832L293.992 11.984H294.072C294.2 11.6 294.317 11.216 294.424 10.832C294.541 10.448 294.664 10.0693 294.792 9.696L296.76 4.16H299.384V16H297.224V11.056C297.224 10.7787 297.229 10.4747 297.24 10.144C297.261 9.80267 297.288 9.46133 297.32 9.12C297.352 8.768 297.384 8.42667 297.416 8.096C297.448 7.75467 297.48 7.44533 297.512 7.168H297.448L296.488 9.952L294.664 14.928H293.304L291.464 9.952L290.52 7.168H290.456C290.488 7.44533 290.52 7.75467 290.552 8.096C290.594 8.42667 290.626 8.768 290.648 9.12C290.68 9.46133 290.706 9.80267 290.728 10.144C290.749 10.4747 290.76 10.7787 290.76 11.056V16H288.632V4.16H291.256ZM306.176 4.16C306.827 4.16 307.435 4.224 308 4.352C308.565 4.46933 309.056 4.672 309.472 4.96C309.888 5.248 310.213 5.632 310.448 6.112C310.693 6.58133 310.816 7.168 310.816 7.872C310.816 8.544 310.693 9.13067 310.448 9.632C310.213 10.1227 309.888 10.528 309.472 10.848C309.067 11.168 308.587 11.408 308.032 11.568C307.477 11.7173 306.88 11.792 306.24 11.792H304.656V16H302.288V4.16H306.176ZM306.08 9.92C307.691 9.92 308.496 9.23733 308.496 7.872C308.496 7.17867 308.283 6.69867 307.856 6.432C307.44 6.16533 306.821 6.032 306 6.032H304.656V9.92H306.08ZM321.673 16.224C320.862 16.224 320.11 16.0907 319.417 15.824C318.724 15.5573 318.121 15.168 317.609 14.656C317.108 14.144 316.713 13.5093 316.425 12.752C316.137 11.9947 315.993 11.12 315.993 10.128C315.993 9.14667 316.142 8.27733 316.441 7.52C316.74 6.752 317.145 6.10133 317.657 5.568C318.169 5.03467 318.772 4.62933 319.465 4.352C320.158 4.07467 320.894 3.936 321.673 3.936C322.526 3.936 323.252 4.09067 323.849 4.4C324.457 4.70933 324.953 5.06133 325.337 5.456L324.073 6.96C323.785 6.68267 323.46 6.448 323.097 6.256C322.745 6.064 322.297 5.968 321.753 5.968C321.262 5.968 320.809 6.064 320.393 6.256C319.988 6.43733 319.636 6.704 319.337 7.056C319.049 7.408 318.82 7.83467 318.649 8.336C318.489 8.83733 318.409 9.408 318.409 10.048C318.409 11.3387 318.702 12.352 319.289 13.088C319.876 13.8133 320.75 14.176 321.913 14.176C322.201 14.176 322.478 14.1387 322.745 14.064C323.012 13.9893 323.23 13.8773 323.401 13.728V11.392H321.305V9.456H325.513V14.8C325.108 15.1947 324.574 15.5307 323.913 15.808C323.252 16.0853 322.505 16.224 321.673 16.224ZM329.782 7.04L329.942 8.624H330.006C330.336 8.03733 330.72 7.58933 331.158 7.28C331.606 6.97067 332.07 6.816 332.55 6.816C332.795 6.816 332.998 6.83733 333.158 6.88C333.318 6.912 333.467 6.95467 333.606 7.008L333.19 9.04C333.04 8.98667 332.891 8.94933 332.742 8.928C332.603 8.90667 332.443 8.896 332.262 8.896C331.91 8.896 331.542 9.02933 331.158 9.296C330.774 9.552 330.454 10.0053 330.198 10.656V16H327.862V7.04H329.782ZM336.538 16.16C336.144 16.16 335.781 16.1013 335.45 15.984C335.12 15.856 334.837 15.68 334.602 15.456C334.378 15.2213 334.202 14.944 334.074 14.624C333.946 14.304 333.882 13.952 333.882 13.568C333.829 12.4693 334.208 11.6587 335.018 11.136C335.84 10.6027 337.178 10.3093 339.034 10.256C339.077 9.88267 339.008 9.504 338.826 9.12C338.634 8.84267 338.197 8.704 337.514 8.704C337.098 8.704 336.661 8.77867 336.202 8.928C335.754 9.07733 335.328 9.28533 334.922 9.552L334.218 7.872C334.709 7.57333 335.274 7.32267 335.914 7.12C336.565 6.91733 337.242 6.816 337.946 6.816C340.24 6.816 341.386 8.13333 341.386 10.768V16H339.466L339.29 15.088H339.242C338.858 15.4187 338.437 15.68 337.978 15.872C337.53 16.064 337.05 16.16 336.538 16.16ZM337.258 14.368C337.6 14.3573 337.909 14.2827 338.186 14.144C338.474 13.9947 338.757 13.7813 339.034 13.504V11.696C338.757 11.7173 338.48 11.744 338.202 11.776C337.936 11.7973 337.674 11.8293 337.418 11.872C336.906 11.9467 336.544 12.1013 336.33 12.336C336.128 12.5707 336.032 12.848 336.042 13.168C336.053 13.5413 336.17 13.8347 336.394 14.048C336.629 14.2613 336.917 14.368 337.258 14.368ZM344.952 19.6L346.2 16.048L342.728 7.04H345.096L346.52 11.2C346.658 11.6053 346.786 12.016 346.904 12.432C347.021 12.848 347.144 13.28 347.272 13.728H347.352C347.458 13.312 347.565 12.8907 347.672 12.464C347.778 12.0373 347.885 11.616 347.992 11.2L349.224 7.04H351.48L348.376 16.256L347.272 19.6H344.952Z" fill="black"/>
<path d="M64.344 31.696H67.466C68.0447 31.696 68.572 31.752 69.048 31.864C69.5333 31.9667 69.9487 32.1393 70.294 32.382C70.6393 32.6247 70.91 32.9467 71.106 33.348C71.302 33.74 71.4 34.2253 71.4 34.804C71.4 35.364 71.302 35.854 71.106 36.274C70.91 36.6847 70.6393 37.0253 70.294 37.296C69.958 37.5667 69.552 37.7673 69.076 37.898C68.6 38.0287 68.082 38.094 67.522 38.094H65.968V42H64.344V31.696ZM67.368 36.792C68.2173 36.792 68.8333 36.6333 69.216 36.316C69.608 35.9893 69.804 35.4853 69.804 34.804C69.804 34.1227 69.594 33.6513 69.174 33.39C68.754 33.1287 68.1333 32.998 67.312 32.998H65.968V36.792H67.368ZM74.4595 42.182C74.1235 42.182 73.8155 42.1307 73.5355 42.028C73.2649 41.9253 73.0269 41.776 72.8215 41.58C72.6255 41.384 72.4715 41.1507 72.3595 40.88C72.2475 40.6 72.1915 40.292 72.1915 39.956C72.1915 39.5267 72.2709 39.116 72.4295 38.724C72.5882 38.332 72.8682 38.0147 73.2695 37.772C73.6615 37.5573 74.1469 37.408 74.7255 37.324C75.3135 37.2307 76.0042 37.156 76.7975 37.1C76.7975 36.876 76.7742 36.6613 76.7275 36.456C76.6809 36.2507 76.6015 36.0733 76.4895 35.924C76.3775 35.7653 76.2235 35.644 76.0275 35.56C75.8409 35.4667 75.6075 35.42 75.3275 35.42C74.9075 35.42 74.4969 35.504 74.0955 35.672C73.6942 35.8307 73.3302 36.0173 73.0035 36.232L72.5275 35.056C72.9289 34.804 73.3862 34.5847 73.8995 34.398C74.4222 34.202 74.9915 34.104 75.6075 34.104C76.5689 34.104 77.2735 34.3887 77.7215 34.958C78.1789 35.518 78.4075 36.3207 78.4075 37.366V42H77.0915L76.9515 41.16H76.9095C76.5549 41.4587 76.1769 41.706 75.7755 41.902C75.3742 42.0887 74.9355 42.182 74.4595 42.182ZM74.9495 40.908C75.2855 40.908 75.5982 40.838 75.8875 40.698C76.1769 40.558 76.4802 40.3433 76.7975 40.054V38.15C76.4242 38.1967 76.0975 38.234 75.8175 38.262C75.5375 38.29 75.2902 38.3273 75.0755 38.374C74.8609 38.4113 74.6742 38.4627 74.5155 38.528C74.3569 38.584 74.2169 38.668 74.0955 38.78C73.8902 38.9667 73.7782 39.1533 73.7595 39.34C73.7502 39.5173 73.7455 39.6853 73.7455 39.844C73.7455 40.236 73.8575 40.5113 74.0815 40.67C74.3149 40.8287 74.6042 40.908 74.9495 40.908ZM80.6923 34.3H82.0083L82.1343 35.364H82.1763C82.5309 35.0187 82.9136 34.7247 83.3243 34.482C83.7349 34.23 84.2016 34.104 84.7243 34.104C85.5456 34.104 86.1429 34.3653 86.5163 34.888C86.8989 35.4107 87.0903 36.1667 87.0903 37.156V42H85.4803V37.352C85.4803 36.68 85.3776 36.204 85.1723 35.924C84.9669 35.6347 84.6356 35.49 84.1783 35.49C83.8236 35.49 83.5063 35.5787 83.2263 35.756C82.9463 35.9333 82.6336 36.1947 82.2883 36.54V42H80.6923V34.3ZM92.0186 42.182C91.5893 42.182 91.2253 42.1167 90.9266 41.986C90.6279 41.8553 90.3853 41.6733 90.1986 41.44C90.0119 41.2067 89.8766 40.922 89.7926 40.586C89.7179 40.25 89.6806 39.8813 89.6806 39.48V35.588H88.5606V34.384L89.7506 34.3L89.9326 32.172H91.2906V34.3H93.2926V35.588H91.2906V39.494C91.2906 39.97 91.3746 40.3247 91.5426 40.558C91.7199 40.782 92.0093 40.894 92.4106 40.894C92.5413 40.894 92.6813 40.8753 92.8306 40.838C92.9893 40.8007 93.1246 40.7587 93.2366 40.712L93.5306 41.902C93.3159 41.9767 93.0779 42.042 92.8166 42.098C92.5646 42.154 92.2986 42.182 92.0186 42.182ZM97.841 42.182C97.365 42.182 96.9076 42.0933 96.469 41.916C96.0303 41.7293 95.643 41.468 95.307 41.132C94.9803 40.7867 94.7143 40.3667 94.509 39.872C94.313 39.368 94.215 38.7987 94.215 38.164C94.215 37.52 94.313 36.946 94.509 36.442C94.7143 35.938 94.9803 35.5133 95.307 35.168C95.643 34.8227 96.0303 34.5613 96.469 34.384C96.9076 34.1973 97.365 34.104 97.841 34.104C98.317 34.104 98.7743 34.1973 99.213 34.384C99.6516 34.5613 100.034 34.8227 100.361 35.168C100.697 35.5133 100.963 35.938 101.159 36.442C101.364 36.946 101.467 37.52 101.467 38.164C101.467 38.7987 101.364 39.368 101.159 39.872C100.963 40.3667 100.697 40.7867 100.361 41.132C100.034 41.468 99.6516 41.7293 99.213 41.916C98.7743 42.0933 98.317 42.182 97.841 42.182ZM97.841 40.866C98.149 40.866 98.4243 40.8007 98.667 40.67C98.9096 40.5393 99.115 40.3573 99.283 40.124C99.451 39.8907 99.5816 39.606 99.675 39.27C99.7683 38.934 99.815 38.5653 99.815 38.164C99.815 37.3427 99.6376 36.6847 99.283 36.19C98.9376 35.686 98.457 35.434 97.841 35.434C97.225 35.434 96.7443 35.686 96.399 36.19C96.0536 36.6847 95.881 37.3427 95.881 38.164C95.881 38.5653 95.9276 38.934 96.021 39.27C96.1143 39.606 96.245 39.8907 96.413 40.124C96.581 40.3573 96.7863 40.5393 97.029 40.67C97.2716 40.8007 97.5423 40.866 97.841 40.866ZM103.347 34.3H104.663L104.789 35.364H104.831C105.185 35.0187 105.568 34.7247 105.979 34.482C106.389 34.23 106.856 34.104 107.379 34.104C108.2 34.104 108.797 34.3653 109.171 34.888C109.553 35.4107 109.745 36.1667 109.745 37.156V42H108.135V37.352C108.135 36.68 108.032 36.204 107.827 35.924C107.621 35.6347 107.29 35.49 106.833 35.49C106.478 35.49 106.161 35.5787 105.881 35.756C105.601 35.9333 105.288 36.1947 104.943 36.54V42H103.347V34.3ZM115.289 42.182C114.766 42.182 114.276 42.0933 113.819 41.916C113.362 41.7293 112.965 41.468 112.629 41.132C112.293 40.7867 112.027 40.3667 111.831 39.872C111.635 39.368 111.537 38.7987 111.537 38.164C111.537 37.5293 111.635 36.9647 111.831 36.47C112.027 35.966 112.288 35.5413 112.615 35.196C112.942 34.8413 113.315 34.5707 113.735 34.384C114.164 34.1973 114.603 34.104 115.051 34.104C115.564 34.104 116.012 34.1927 116.395 34.37C116.787 34.5473 117.114 34.7947 117.375 35.112C117.646 35.4293 117.846 35.812 117.977 36.26C118.117 36.708 118.187 37.2073 118.187 37.758C118.187 37.926 118.178 38.08 118.159 38.22C118.15 38.3507 118.136 38.4673 118.117 38.57H113.119C113.184 39.3073 113.427 39.886 113.847 40.306C114.276 40.7167 114.827 40.922 115.499 40.922C115.844 40.922 116.166 40.8753 116.465 40.782C116.764 40.6793 117.053 40.5347 117.333 40.348L117.893 41.37C117.538 41.6127 117.142 41.8087 116.703 41.958C116.264 42.1073 115.793 42.182 115.289 42.182ZM116.801 37.464C116.801 36.792 116.652 36.274 116.353 35.91C116.064 35.546 115.639 35.364 115.079 35.364C114.846 35.364 114.617 35.4107 114.393 35.504C114.169 35.5973 113.968 35.7327 113.791 35.91C113.614 36.0873 113.464 36.3067 113.343 36.568C113.222 36.8293 113.142 37.128 113.105 37.464H116.801ZM129.696 32.746L125.146 42H123.466L127.638 33.81C127.759 33.5487 127.922 33.3013 128.128 33.068H122.598V31.654H129.696V32.746ZM131.862 39.83C132.16 40.11 132.506 40.3433 132.898 40.53C133.29 40.7073 133.696 40.796 134.116 40.796C134.452 40.796 134.755 40.74 135.026 40.628C135.296 40.5067 135.52 40.348 135.698 40.152C135.884 39.9467 136.024 39.7087 136.118 39.438C136.22 39.158 136.272 38.8593 136.272 38.542C136.272 37.898 136.08 37.4127 135.698 37.086C135.324 36.7593 134.816 36.596 134.172 36.596C133.901 36.596 133.63 36.624 133.36 36.68C133.098 36.7267 132.837 36.7873 132.576 36.862L131.624 36.596L132.464 31.654H137.476V33.068H133.542L133.122 35.476C133.588 35.3733 134.046 35.322 134.494 35.322C134.97 35.322 135.408 35.392 135.81 35.532C136.211 35.6627 136.561 35.8633 136.86 36.134C137.158 36.3953 137.392 36.722 137.56 37.114C137.728 37.4967 137.812 37.9447 137.812 38.458C137.812 38.9993 137.718 39.4987 137.532 39.956C137.345 40.404 137.084 40.7867 136.748 41.104C136.412 41.4213 136.01 41.6687 135.544 41.846C135.077 42.0233 134.568 42.112 134.018 42.112C133.616 42.112 133.201 42.0513 132.772 41.93C132.342 41.8087 131.964 41.6267 131.638 41.384C131.423 41.2533 131.232 41.1087 131.064 40.95L131.862 39.83ZM146.697 39.382H145.269V42H143.925V39.382H138.857V38.262L143.827 31.64H145.269V38.178H146.697V39.382ZM143.925 38.178V34.398C143.925 34.2393 143.93 34.0807 143.939 33.922C143.958 33.7633 143.977 33.5907 143.995 33.404L140.523 38.178H143.925ZM152.755 36.596C153.371 36.7827 153.843 37.0907 154.169 37.52C154.496 37.94 154.659 38.472 154.659 39.116C154.659 39.6293 154.561 40.0773 154.365 40.46C154.169 40.8333 153.903 41.1413 153.567 41.384C153.241 41.6267 152.863 41.8087 152.433 41.93C152.013 42.0513 151.575 42.112 151.117 42.112C150.641 42.112 150.189 42.0513 149.759 41.93C149.33 41.8087 148.952 41.622 148.625 41.37C148.308 41.118 148.051 40.8053 147.855 40.432C147.669 40.0587 147.575 39.62 147.575 39.116C147.575 38.4627 147.739 37.926 148.065 37.506C148.401 37.086 148.877 36.7827 149.493 36.596C148.971 36.4 148.579 36.106 148.317 35.714C148.056 35.3127 147.925 34.8367 147.925 34.286C147.925 33.8473 148.014 33.46 148.191 33.124C148.369 32.7787 148.602 32.4893 148.891 32.256C149.19 32.0227 149.531 31.8453 149.913 31.724C150.305 31.6027 150.707 31.542 151.117 31.542C151.528 31.542 151.925 31.6027 152.307 31.724C152.699 31.8453 153.04 32.0227 153.329 32.256C153.628 32.4893 153.866 32.7787 154.043 33.124C154.221 33.46 154.309 33.8473 154.309 34.286C154.309 34.8367 154.179 35.3127 153.917 35.714C153.656 36.106 153.269 36.4 152.755 36.596ZM151.117 32.718C150.613 32.718 150.203 32.858 149.885 33.138C149.577 33.418 149.423 33.81 149.423 34.314C149.423 34.8647 149.573 35.2893 149.871 35.588C150.17 35.8773 150.585 36.022 151.117 36.022C151.64 36.022 152.051 35.8727 152.349 35.574C152.657 35.2753 152.811 34.8553 152.811 34.314C152.811 33.8007 152.648 33.4087 152.321 33.138C151.995 32.858 151.593 32.718 151.117 32.718ZM151.117 40.894C151.388 40.894 151.64 40.8567 151.873 40.782C152.116 40.7073 152.326 40.5953 152.503 40.446C152.681 40.2873 152.821 40.096 152.923 39.872C153.026 39.648 153.077 39.3867 153.077 39.088C153.077 38.472 152.891 38.0147 152.517 37.716C152.144 37.408 151.677 37.254 151.117 37.254C150.557 37.254 150.091 37.408 149.717 37.716C149.344 38.0147 149.157 38.472 149.157 39.088C149.157 39.6573 149.339 40.1007 149.703 40.418C150.077 40.7353 150.548 40.894 151.117 40.894ZM160.661 42.182C160.017 42.182 159.415 42.0653 158.855 41.832C158.295 41.5893 157.81 41.244 157.399 40.796C156.988 40.3387 156.666 39.7833 156.433 39.13C156.2 38.4673 156.083 37.716 156.083 36.876C156.083 36.036 156.2 35.2847 156.433 34.622C156.676 33.95 157.007 33.3853 157.427 32.928C157.847 32.4613 158.337 32.1067 158.897 31.864C159.466 31.6213 160.078 31.5 160.731 31.5C161.375 31.5 161.944 31.6307 162.439 31.892C162.934 32.1533 163.34 32.4567 163.657 32.802L162.775 33.838C162.504 33.5673 162.206 33.348 161.879 33.18C161.552 33.0027 161.179 32.914 160.759 32.914C160.311 32.914 159.9 33.0073 159.527 33.194C159.163 33.3713 158.846 33.628 158.575 33.964C158.314 34.3 158.108 34.7107 157.959 35.196C157.819 35.672 157.749 36.2133 157.749 36.82C157.749 37.436 157.819 37.9867 157.959 38.472C158.099 38.9573 158.295 39.3727 158.547 39.718C158.808 40.054 159.121 40.3153 159.485 40.502C159.849 40.6793 160.26 40.768 160.717 40.768C161.193 40.768 161.613 40.67 161.977 40.474C162.35 40.278 162.691 40.012 162.999 39.676L163.867 40.698C163.447 41.174 162.976 41.5427 162.453 41.804C161.93 42.056 161.333 42.182 160.661 42.182Z" fill="black"/>
<path d="M68.278 64.182C67.6433 64.182 67.0507 64.0607 66.5 63.818C65.9587 63.5753 65.4873 63.23 65.086 62.782C64.694 62.3247 64.3813 61.7693 64.148 61.116C63.924 60.4533 63.812 59.7067 63.812 58.876C63.812 58.0453 63.924 57.3033 64.148 56.65C64.3813 55.9873 64.6987 55.4273 65.1 54.97C65.5107 54.5033 65.9913 54.1487 66.542 53.906C67.102 53.6633 67.7087 53.542 68.362 53.542C68.67 53.542 68.964 53.5793 69.244 53.654C69.524 53.7193 69.7807 53.8127 70.014 53.934C70.2567 54.0553 70.4713 54.1907 70.658 54.34C70.854 54.4893 71.0267 54.648 71.176 54.816L70.476 55.656C70.2053 55.3667 69.8973 55.1333 69.552 54.956C69.216 54.7693 68.824 54.676 68.376 54.676C67.8907 54.676 67.4473 54.774 67.046 54.97C66.654 55.1567 66.3133 55.432 66.024 55.796C65.744 56.1507 65.5247 56.5847 65.366 57.098C65.2167 57.6113 65.142 58.19 65.142 58.834C65.142 59.478 65.2167 60.0613 65.366 60.584C65.5153 61.1067 65.7253 61.55 65.996 61.914C66.276 62.278 66.612 62.558 67.004 62.754C67.4053 62.95 67.8487 63.048 68.334 63.048C68.838 63.048 69.2767 62.9453 69.65 62.74C70.0327 62.5347 70.3873 62.2547 70.714 61.9L71.428 62.712C71.008 63.188 70.546 63.552 70.042 63.804C69.538 64.056 68.95 64.182 68.278 64.182ZM83.1786 61.27H81.6246V64H80.4906V61.27H75.3666V60.318L80.4206 53.626H81.6246V60.262H83.1786V61.27ZM80.4906 55.978C80.4906 55.8567 80.4953 55.7213 80.5046 55.572C80.5139 55.4133 80.5279 55.2593 80.5466 55.11L76.7666 60.262H80.4906V55.978ZM92.6282 53.738L94.6022 59.226C94.7235 59.5807 94.8402 59.94 94.9522 60.304C95.0735 60.6587 95.1995 61.0133 95.3302 61.368H95.4002C95.5215 61.0133 95.6382 60.6587 95.7502 60.304C95.8622 59.94 95.9788 59.5807 96.1002 59.226L98.0602 53.738H99.6282V64H98.4102V58.316C98.4102 58.092 98.4148 57.854 98.4242 57.602C98.4335 57.3407 98.4475 57.0793 98.4662 56.818C98.4848 56.5473 98.5035 56.2813 98.5222 56.02C98.5408 55.7587 98.5595 55.516 98.5782 55.292H98.5222L97.7102 57.63L95.7642 62.964H94.8962L92.9502 57.63L92.1382 55.292H92.0822C92.0915 55.516 92.1055 55.7587 92.1242 56.02C92.1428 56.2813 92.1568 56.5473 92.1662 56.818C92.1848 57.0793 92.1988 57.3407 92.2082 57.602C92.2268 57.854 92.2362 58.092 92.2362 58.316V64H91.0602V53.738H92.6282ZM111.782 64H104.894V63.104L108.436 59.702C108.707 59.4127 108.954 59.142 109.178 58.89C109.412 58.6287 109.608 58.3673 109.766 58.106C109.934 57.8447 110.065 57.5833 110.158 57.322C110.252 57.0513 110.298 56.7667 110.298 56.468C110.28 55.852 110.093 55.3993 109.738 55.11C109.384 54.8113 108.94 54.662 108.408 54.662C108.119 54.662 107.848 54.7133 107.596 54.816C107.344 54.9093 107.125 55.0493 106.938 55.236C106.761 55.4133 106.621 55.6233 106.518 55.866C106.416 56.1087 106.364 56.3793 106.364 56.678L105.104 56.468C105.17 55.992 105.3 55.5767 105.496 55.222C105.692 54.858 105.935 54.5547 106.224 54.312C106.523 54.06 106.864 53.8733 107.246 53.752C107.629 53.6213 108.04 53.556 108.478 53.556C108.917 53.556 109.323 53.6213 109.696 53.752C110.079 53.8827 110.41 54.074 110.69 54.326C110.97 54.5687 111.19 54.8673 111.348 55.222C111.507 55.5767 111.586 55.9827 111.586 56.44C111.586 56.8227 111.53 57.1773 111.418 57.504C111.306 57.8307 111.152 58.148 110.956 58.456C110.76 58.7547 110.532 59.0487 110.27 59.338C110.009 59.618 109.734 59.9027 109.444 60.192L106.574 63.034C106.77 62.978 106.966 62.936 107.162 62.908C107.368 62.88 107.559 62.866 107.736 62.866H111.782V64ZM117.602 59.926C117.752 59.73 117.868 59.5667 117.952 59.436C118.046 59.3053 118.116 59.2073 118.162 59.142C117.612 59.5807 116.954 59.8 116.188 59.8C115.787 59.8 115.404 59.7347 115.04 59.604C114.686 59.4733 114.373 59.282 114.102 59.03C113.841 58.7687 113.631 58.4513 113.472 58.078C113.314 57.7047 113.234 57.2753 113.234 56.79C113.234 56.3327 113.318 55.9033 113.486 55.502C113.664 55.1007 113.906 54.7507 114.214 54.452C114.522 54.1533 114.886 53.92 115.306 53.752C115.736 53.5747 116.207 53.486 116.72 53.486C117.224 53.486 117.682 53.57 118.092 53.738C118.503 53.906 118.853 54.1393 119.142 54.438C119.441 54.7367 119.67 55.096 119.828 55.516C119.987 55.9267 120.066 56.384 120.066 56.888C120.066 57.4947 119.959 58.05 119.744 58.554C119.53 59.058 119.226 59.5807 118.834 60.122L116.02 64H114.41L117.602 59.926ZM114.536 56.692C114.536 57.3733 114.718 57.896 115.082 58.26C115.456 58.6147 115.964 58.792 116.608 58.792C116.963 58.792 117.276 58.736 117.546 58.624C117.817 58.512 118.046 58.3627 118.232 58.176C118.428 57.98 118.573 57.7607 118.666 57.518C118.769 57.266 118.82 57.0047 118.82 56.734C118.82 56.398 118.764 56.0993 118.652 55.838C118.55 55.5673 118.405 55.3433 118.218 55.166C118.032 54.9793 117.808 54.8393 117.546 54.746C117.285 54.6433 117.005 54.592 116.706 54.592C116.053 54.592 115.526 54.788 115.124 55.18C114.732 55.5627 114.536 56.0667 114.536 56.692ZM127.08 53.738H128.466L129.782 56.636C129.95 57.028 130.113 57.4013 130.272 57.756C130.43 58.1107 130.603 58.484 130.79 58.876H130.846C131.032 58.484 131.21 58.1107 131.378 57.756C131.546 57.4013 131.709 57.028 131.868 56.636L133.198 53.738H134.542L131.462 60.01V64H130.16V60.01L127.08 53.738ZM143.332 58.652C143.985 58.8293 144.485 59.1373 144.83 59.576C145.185 60.0147 145.362 60.57 145.362 61.242C145.362 61.6993 145.273 62.1147 145.096 62.488C144.928 62.852 144.685 63.1647 144.368 63.426C144.06 63.6873 143.691 63.888 143.262 64.028C142.833 64.168 142.357 64.238 141.834 64.238C141.311 64.238 140.831 64.168 140.392 64.028C139.953 63.888 139.575 63.6873 139.258 63.426C138.95 63.1647 138.707 62.852 138.53 62.488C138.362 62.1147 138.278 61.6993 138.278 61.242C138.278 60.57 138.455 60.0147 138.81 59.576C139.165 59.1373 139.664 58.8293 140.308 58.652C139.776 58.4467 139.365 58.1433 139.076 57.742C138.796 57.3313 138.656 56.832 138.656 56.244C138.656 55.8613 138.731 55.5067 138.88 55.18C139.029 54.844 139.239 54.55 139.51 54.298C139.79 54.046 140.126 53.85 140.518 53.71C140.91 53.5607 141.349 53.486 141.834 53.486C142.301 53.486 142.73 53.5607 143.122 53.71C143.514 53.85 143.85 54.046 144.13 54.298C144.41 54.55 144.625 54.844 144.774 55.18C144.933 55.5067 145.012 55.8613 145.012 56.244C145.012 57.4387 144.452 58.2413 143.332 58.652ZM141.834 54.508C141.517 54.508 141.237 54.5547 140.994 54.648C140.751 54.7413 140.551 54.8673 140.392 55.026C140.243 55.1847 140.126 55.376 140.042 55.6C139.967 55.8147 139.93 56.0433 139.93 56.286C139.93 56.5193 139.963 56.748 140.028 56.972C140.093 57.196 140.201 57.3967 140.35 57.574C140.499 57.7513 140.695 57.896 140.938 58.008C141.181 58.1107 141.479 58.162 141.834 58.162C142.179 58.162 142.469 58.1107 142.702 58.008C142.945 57.896 143.141 57.7513 143.29 57.574C143.439 57.3967 143.547 57.196 143.612 56.972C143.677 56.748 143.71 56.5193 143.71 56.286C143.71 56.0433 143.668 55.8147 143.584 55.6C143.509 55.376 143.393 55.1847 143.234 55.026C143.085 54.8673 142.893 54.7413 142.66 54.648C142.427 54.5547 142.151 54.508 141.834 54.508ZM141.834 63.188C142.534 63.188 143.071 63.0107 143.444 62.656C143.817 62.292 144.004 61.816 144.004 61.228C144.004 60.864 143.943 60.556 143.822 60.304C143.71 60.0427 143.551 59.8327 143.346 59.674C143.15 59.506 142.921 59.3847 142.66 59.31C142.399 59.226 142.123 59.184 141.834 59.184C141.545 59.184 141.265 59.226 140.994 59.31C140.733 59.3847 140.499 59.506 140.294 59.674C140.089 59.8327 139.925 60.0427 139.804 60.304C139.692 60.556 139.636 60.864 139.636 61.228C139.636 61.816 139.827 62.292 140.21 62.656C140.593 63.0107 141.134 63.188 141.834 63.188ZM151.112 59.926C151.261 59.73 151.378 59.5667 151.462 59.436C151.555 59.3053 151.625 59.2073 151.672 59.142C151.121 59.5807 150.463 59.8 149.698 59.8C149.297 59.8 148.914 59.7347 148.55 59.604C148.195 59.4733 147.883 59.282 147.612 59.03C147.351 58.7687 147.141 58.4513 146.982 58.078C146.823 57.7047 146.744 57.2753 146.744 56.79C146.744 56.3327 146.828 55.9033 146.996 55.502C147.173 55.1007 147.416 54.7507 147.724 54.452C148.032 54.1533 148.396 53.92 148.816 53.752C149.245 53.5747 149.717 53.486 150.23 53.486C150.734 53.486 151.191 53.57 151.602 53.738C152.013 53.906 152.363 54.1393 152.652 54.438C152.951 54.7367 153.179 55.096 153.338 55.516C153.497 55.9267 153.576 56.384 153.576 56.888C153.576 57.4947 153.469 58.05 153.254 58.554C153.039 59.058 152.736 59.5807 152.344 60.122L149.53 64H147.92L151.112 59.926ZM148.046 56.692C148.046 57.3733 148.228 57.896 148.592 58.26C148.965 58.6147 149.474 58.792 150.118 58.792C150.473 58.792 150.785 58.736 151.056 58.624C151.327 58.512 151.555 58.3627 151.742 58.176C151.938 57.98 152.083 57.7607 152.176 57.518C152.279 57.266 152.33 57.0047 152.33 56.734C152.33 56.398 152.274 56.0993 152.162 55.838C152.059 55.5673 151.915 55.3433 151.728 55.166C151.541 54.9793 151.317 54.8393 151.056 54.746C150.795 54.6433 150.515 54.592 150.216 54.592C149.563 54.592 149.035 54.788 148.634 55.18C148.242 55.5627 148.046 56.0667 148.046 56.692ZM163.306 53.738V58.89H163.348L167.632 53.738H169.088L165.882 57.644L169.592 64H168.136L165.07 58.652L163.306 60.752V64H162.004V53.738H163.306ZM180.751 58.89C180.751 59.7953 180.653 60.584 180.457 61.256C180.261 61.9187 179.995 62.4693 179.659 62.908C179.323 63.3467 178.926 63.6733 178.469 63.888C178.012 64.0933 177.517 64.196 176.985 64.196C176.453 64.196 175.958 64.0933 175.501 63.888C175.044 63.6733 174.642 63.3467 174.297 62.908C173.961 62.4693 173.695 61.9187 173.499 61.256C173.312 60.584 173.219 59.7953 173.219 58.89C173.219 57.9753 173.312 57.1867 173.499 56.524C173.695 55.852 173.961 55.2967 174.297 54.858C174.642 54.4193 175.044 54.0973 175.501 53.892C175.958 53.6773 176.453 53.57 176.985 53.57C177.517 53.57 178.012 53.6773 178.469 53.892C178.926 54.0973 179.323 54.4193 179.659 54.858C179.995 55.2967 180.261 55.852 180.457 56.524C180.653 57.1867 180.751 57.9753 180.751 58.89ZM179.463 58.89C179.463 58.0873 179.393 57.4153 179.253 56.874C179.122 56.3233 178.94 55.8847 178.707 55.558C178.483 55.222 178.222 54.984 177.923 54.844C177.624 54.6947 177.312 54.62 176.985 54.62C176.658 54.62 176.346 54.6947 176.047 54.844C175.748 54.984 175.487 55.222 175.263 55.558C175.039 55.8847 174.857 56.3233 174.717 56.874C174.586 57.4153 174.521 58.0873 174.521 58.89C174.521 59.6833 174.586 60.3553 174.717 60.906C174.857 61.4473 175.039 61.886 175.263 62.222C175.487 62.558 175.748 62.8007 176.047 62.95C176.346 63.09 176.658 63.16 176.985 63.16C177.312 63.16 177.624 63.09 177.923 62.95C178.222 62.8007 178.483 62.558 178.707 62.222C178.94 61.886 179.122 61.4473 179.253 60.906C179.393 60.3553 179.463 59.6833 179.463 58.89Z" fill="black"/>
<path d="M267.379 31.696H270.501C271.08 31.696 271.607 31.752 272.083 31.864C272.568 31.9667 272.984 32.1393 273.329 32.382C273.674 32.6247 273.945 32.9467 274.141 33.348C274.337 33.74 274.435 34.2253 274.435 34.804C274.435 35.364 274.337 35.854 274.141 36.274C273.945 36.6847 273.674 37.0253 273.329 37.296C272.993 37.5667 272.587 37.7673 272.111 37.898C271.635 38.0287 271.117 38.094 270.557 38.094H269.003V42H267.379V31.696ZM270.403 36.792C271.252 36.792 271.868 36.6333 272.251 36.316C272.643 35.9893 272.839 35.4853 272.839 34.804C272.839 34.1227 272.629 33.6513 272.209 33.39C271.789 33.1287 271.168 32.998 270.347 32.998H269.003V36.792H270.403ZM277.495 42.182C277.159 42.182 276.851 42.1307 276.571 42.028C276.3 41.9253 276.062 41.776 275.857 41.58C275.661 41.384 275.507 41.1507 275.395 40.88C275.283 40.6 275.227 40.292 275.227 39.956C275.227 39.5267 275.306 39.116 275.465 38.724C275.623 38.332 275.903 38.0147 276.305 37.772C276.697 37.5573 277.182 37.408 277.761 37.324C278.349 37.2307 279.039 37.156 279.833 37.1C279.833 36.876 279.809 36.6613 279.763 36.456C279.716 36.2507 279.637 36.0733 279.525 35.924C279.413 35.7653 279.259 35.644 279.063 35.56C278.876 35.4667 278.643 35.42 278.363 35.42C277.943 35.42 277.532 35.504 277.131 35.672C276.729 35.8307 276.365 36.0173 276.039 36.232L275.563 35.056C275.964 34.804 276.421 34.5847 276.935 34.398C277.457 34.202 278.027 34.104 278.643 34.104C279.604 34.104 280.309 34.3887 280.757 34.958C281.214 35.518 281.443 36.3207 281.443 37.366V42H280.127L279.987 41.16H279.945C279.59 41.4587 279.212 41.706 278.811 41.902C278.409 42.0887 277.971 42.182 277.495 42.182ZM277.985 40.908C278.321 40.908 278.633 40.838 278.923 40.698C279.212 40.558 279.515 40.3433 279.833 40.054V38.15C279.459 38.1967 279.133 38.234 278.853 38.262C278.573 38.29 278.325 38.3273 278.111 38.374C277.896 38.4113 277.709 38.4627 277.551 38.528C277.392 38.584 277.252 38.668 277.131 38.78C276.925 38.9667 276.813 39.1533 276.795 39.34C276.785 39.5173 276.781 39.6853 276.781 39.844C276.781 40.236 276.893 40.5113 277.117 40.67C277.35 40.8287 277.639 40.908 277.985 40.908ZM283.727 34.3H285.043L285.169 35.364H285.211C285.566 35.0187 285.949 34.7247 286.359 34.482C286.77 34.23 287.237 34.104 287.759 34.104C288.581 34.104 289.178 34.3653 289.551 34.888C289.934 35.4107 290.125 36.1667 290.125 37.156V42H288.515V37.352C288.515 36.68 288.413 36.204 288.207 35.924C288.002 35.6347 287.671 35.49 287.213 35.49C286.859 35.49 286.541 35.5787 286.261 35.756C285.981 35.9333 285.669 36.1947 285.323 36.54V42H283.727V34.3ZM295.054 42.182C294.624 42.182 294.26 42.1167 293.962 41.986C293.663 41.8553 293.42 41.6733 293.234 41.44C293.047 41.2067 292.912 40.922 292.828 40.586C292.753 40.25 292.716 39.8813 292.716 39.48V35.588H291.596V34.384L292.786 34.3L292.968 32.172H294.326V34.3H296.328V35.588H294.326V39.494C294.326 39.97 294.41 40.3247 294.578 40.558C294.755 40.782 295.044 40.894 295.446 40.894C295.576 40.894 295.716 40.8753 295.866 40.838C296.024 40.8007 296.16 40.7587 296.272 40.712L296.566 41.902C296.351 41.9767 296.113 42.042 295.852 42.098C295.6 42.154 295.334 42.182 295.054 42.182ZM300.876 42.182C300.4 42.182 299.943 42.0933 299.504 41.916C299.065 41.7293 298.678 41.468 298.342 41.132C298.015 40.7867 297.749 40.3667 297.544 39.872C297.348 39.368 297.25 38.7987 297.25 38.164C297.25 37.52 297.348 36.946 297.544 36.442C297.749 35.938 298.015 35.5133 298.342 35.168C298.678 34.8227 299.065 34.5613 299.504 34.384C299.943 34.1973 300.4 34.104 300.876 34.104C301.352 34.104 301.809 34.1973 302.248 34.384C302.687 34.5613 303.069 34.8227 303.396 35.168C303.732 35.5133 303.998 35.938 304.194 36.442C304.399 36.946 304.502 37.52 304.502 38.164C304.502 38.7987 304.399 39.368 304.194 39.872C303.998 40.3667 303.732 40.7867 303.396 41.132C303.069 41.468 302.687 41.7293 302.248 41.916C301.809 42.0933 301.352 42.182 300.876 42.182ZM300.876 40.866C301.184 40.866 301.459 40.8007 301.702 40.67C301.945 40.5393 302.15 40.3573 302.318 40.124C302.486 39.8907 302.617 39.606 302.71 39.27C302.803 38.934 302.85 38.5653 302.85 38.164C302.85 37.3427 302.673 36.6847 302.318 36.19C301.973 35.686 301.492 35.434 300.876 35.434C300.26 35.434 299.779 35.686 299.434 36.19C299.089 36.6847 298.916 37.3427 298.916 38.164C298.916 38.5653 298.963 38.934 299.056 39.27C299.149 39.606 299.28 39.8907 299.448 40.124C299.616 40.3573 299.821 40.5393 300.064 40.67C300.307 40.8007 300.577 40.866 300.876 40.866ZM306.382 34.3H307.698L307.824 35.364H307.866C308.22 35.0187 308.603 34.7247 309.014 34.482C309.424 34.23 309.891 34.104 310.414 34.104C311.235 34.104 311.832 34.3653 312.206 34.888C312.588 35.4107 312.78 36.1667 312.78 37.156V42H311.17V37.352C311.17 36.68 311.067 36.204 310.862 35.924C310.656 35.6347 310.325 35.49 309.868 35.49C309.513 35.49 309.196 35.5787 308.916 35.756C308.636 35.9333 308.323 36.1947 307.978 36.54V42H306.382V34.3ZM318.324 42.182C317.801 42.182 317.311 42.0933 316.854 41.916C316.397 41.7293 316 41.468 315.664 41.132C315.328 40.7867 315.062 40.3667 314.866 39.872C314.67 39.368 314.572 38.7987 314.572 38.164C314.572 37.5293 314.67 36.9647 314.866 36.47C315.062 35.966 315.323 35.5413 315.65 35.196C315.977 34.8413 316.35 34.5707 316.77 34.384C317.199 34.1973 317.638 34.104 318.086 34.104C318.599 34.104 319.047 34.1927 319.43 34.37C319.822 34.5473 320.149 34.7947 320.41 35.112C320.681 35.4293 320.881 35.812 321.012 36.26C321.152 36.708 321.222 37.2073 321.222 37.758C321.222 37.926 321.213 38.08 321.194 38.22C321.185 38.3507 321.171 38.4673 321.152 38.57H316.154C316.219 39.3073 316.462 39.886 316.882 40.306C317.311 40.7167 317.862 40.922 318.534 40.922C318.879 40.922 319.201 40.8753 319.5 40.782C319.799 40.6793 320.088 40.5347 320.368 40.348L320.928 41.37C320.573 41.6127 320.177 41.8087 319.738 41.958C319.299 42.1073 318.828 42.182 318.324 42.182ZM319.836 37.464C319.836 36.792 319.687 36.274 319.388 35.91C319.099 35.546 318.674 35.364 318.114 35.364C317.881 35.364 317.652 35.4107 317.428 35.504C317.204 35.5973 317.003 35.7327 316.826 35.91C316.649 36.0873 316.499 36.3067 316.378 36.568C316.257 36.8293 316.177 37.128 316.14 37.464H319.836ZM333.053 39.382H331.625V42H330.281V39.382H325.213V38.262L330.183 31.64H331.625V38.178H333.053V39.382ZM330.281 38.178V34.398C330.281 34.2393 330.286 34.0807 330.295 33.922C330.314 33.7633 330.332 33.5907 330.351 33.404L326.879 38.178H330.281ZM341.393 39.382H339.965V42H338.621V39.382H333.553V38.262L338.523 31.64H339.965V38.178H341.393V39.382ZM338.621 38.178V34.398C338.621 34.2393 338.625 34.0807 338.635 33.922C338.653 33.7633 338.672 33.5907 338.691 33.404L335.219 38.178H338.621ZM349.411 32.746L344.861 42H343.181L347.353 33.81C347.474 33.5487 347.637 33.3013 347.843 33.068H342.313V31.654H349.411V32.746ZM355.356 42.182C354.712 42.182 354.11 42.0653 353.55 41.832C352.99 41.5893 352.505 41.244 352.094 40.796C351.684 40.3387 351.362 39.7833 351.128 39.13C350.895 38.4673 350.778 37.716 350.778 36.876C350.778 36.036 350.895 35.2847 351.128 34.622C351.371 33.95 351.702 33.3853 352.122 32.928C352.542 32.4613 353.032 32.1067 353.592 31.864C354.162 31.6213 354.773 31.5 355.426 31.5C356.07 31.5 356.64 31.6307 357.134 31.892C357.629 32.1533 358.035 32.4567 358.352 32.802L357.47 33.838C357.2 33.5673 356.901 33.348 356.574 33.18C356.248 33.0027 355.874 32.914 355.454 32.914C355.006 32.914 354.596 33.0073 354.222 33.194C353.858 33.3713 353.541 33.628 353.27 33.964C353.009 34.3 352.804 34.7107 352.654 35.196C352.514 35.672 352.444 36.2133 352.444 36.82C352.444 37.436 352.514 37.9867 352.654 38.472C352.794 38.9573 352.99 39.3727 353.242 39.718C353.504 40.054 353.816 40.3153 354.18 40.502C354.544 40.6793 354.955 40.768 355.412 40.768C355.888 40.768 356.308 40.67 356.672 40.474C357.046 40.278 357.386 40.012 357.694 39.676L358.562 40.698C358.142 41.174 357.671 41.5427 357.148 41.804C356.626 42.056 356.028 42.182 355.356 42.182Z" fill="black"/>
<path d="M271.313 64.182C270.678 64.182 270.086 64.0607 269.535 63.818C268.994 63.5753 268.522 63.23 268.121 62.782C267.729 62.3247 267.416 61.7693 267.183 61.116C266.959 60.4533 266.847 59.7067 266.847 58.876C266.847 58.0453 266.959 57.3033 267.183 56.65C267.416 55.9873 267.734 55.4273 268.135 54.97C268.546 54.5033 269.026 54.1487 269.577 53.906C270.137 53.6633 270.744 53.542 271.397 53.542C271.705 53.542 271.999 53.5793 272.279 53.654C272.559 53.7193 272.816 53.8127 273.049 53.934C273.292 54.0553 273.506 54.1907 273.693 54.34C273.889 54.4893 274.062 54.648 274.211 54.816L273.511 55.656C273.24 55.3667 272.932 55.1333 272.587 54.956C272.251 54.7693 271.859 54.676 271.411 54.676C270.926 54.676 270.482 54.774 270.081 54.97C269.689 55.1567 269.348 55.432 269.059 55.796C268.779 56.1507 268.56 56.5847 268.401 57.098C268.252 57.6113 268.177 58.19 268.177 58.834C268.177 59.478 268.252 60.0613 268.401 60.584C268.55 61.1067 268.76 61.55 269.031 61.914C269.311 62.278 269.647 62.558 270.039 62.754C270.44 62.95 270.884 63.048 271.369 63.048C271.873 63.048 272.312 62.9453 272.685 62.74C273.068 62.5347 273.422 62.2547 273.749 61.9L274.463 62.712C274.043 63.188 273.581 63.552 273.077 63.804C272.573 64.056 271.985 64.182 271.313 64.182ZM285.808 54.564L281.174 64H279.76L283.946 55.614L284.422 54.83H279.06V53.738H285.808V54.564ZM292.104 58.652C292.757 58.8293 293.256 59.1373 293.602 59.576C293.956 60.0147 294.134 60.57 294.134 61.242C294.134 61.6993 294.045 62.1147 293.868 62.488C293.7 62.852 293.457 63.1647 293.14 63.426C292.832 63.6873 292.463 63.888 292.034 64.028C291.604 64.168 291.128 64.238 290.606 64.238C290.083 64.238 289.602 64.168 289.164 64.028C288.725 63.888 288.347 63.6873 288.03 63.426C287.722 63.1647 287.479 62.852 287.302 62.488C287.134 62.1147 287.05 61.6993 287.05 61.242C287.05 60.57 287.227 60.0147 287.582 59.576C287.936 59.1373 288.436 58.8293 289.08 58.652C288.548 58.4467 288.137 58.1433 287.848 57.742C287.568 57.3313 287.428 56.832 287.428 56.244C287.428 55.8613 287.502 55.5067 287.652 55.18C287.801 54.844 288.011 54.55 288.282 54.298C288.562 54.046 288.898 53.85 289.29 53.71C289.682 53.5607 290.12 53.486 290.606 53.486C291.072 53.486 291.502 53.5607 291.894 53.71C292.286 53.85 292.622 54.046 292.902 54.298C293.182 54.55 293.396 54.844 293.546 55.18C293.704 55.5067 293.784 55.8613 293.784 56.244C293.784 57.4387 293.224 58.2413 292.104 58.652ZM290.606 54.508C290.288 54.508 290.008 54.5547 289.766 54.648C289.523 54.7413 289.322 54.8673 289.164 55.026C289.014 55.1847 288.898 55.376 288.814 55.6C288.739 55.8147 288.702 56.0433 288.702 56.286C288.702 56.5193 288.734 56.748 288.8 56.972C288.865 57.196 288.972 57.3967 289.122 57.574C289.271 57.7513 289.467 57.896 289.71 58.008C289.952 58.1107 290.251 58.162 290.606 58.162C290.951 58.162 291.24 58.1107 291.474 58.008C291.716 57.896 291.912 57.7513 292.062 57.574C292.211 57.3967 292.318 57.196 292.384 56.972C292.449 56.748 292.482 56.5193 292.482 56.286C292.482 56.0433 292.44 55.8147 292.356 55.6C292.281 55.376 292.164 55.1847 292.006 55.026C291.856 54.8673 291.665 54.7413 291.432 54.648C291.198 54.5547 290.923 54.508 290.606 54.508ZM290.606 63.188C291.306 63.188 291.842 63.0107 292.216 62.656C292.589 62.292 292.776 61.816 292.776 61.228C292.776 60.864 292.715 60.556 292.594 60.304C292.482 60.0427 292.323 59.8327 292.118 59.674C291.922 59.506 291.693 59.3847 291.432 59.31C291.17 59.226 290.895 59.184 290.606 59.184C290.316 59.184 290.036 59.226 289.766 59.31C289.504 59.3847 289.271 59.506 289.066 59.674C288.86 59.8327 288.697 60.0427 288.576 60.304C288.464 60.556 288.408 60.864 288.408 61.228C288.408 61.816 288.599 62.292 288.982 62.656C289.364 63.0107 289.906 63.188 290.606 63.188ZM304.003 53.738L305.977 59.226C306.098 59.5807 306.215 59.94 306.327 60.304C306.448 60.6587 306.574 61.0133 306.705 61.368H306.775C306.896 61.0133 307.013 60.6587 307.125 60.304C307.237 59.94 307.354 59.5807 307.475 59.226L309.435 53.738H311.003V64H309.785V58.316C309.785 58.092 309.79 57.854 309.799 57.602C309.808 57.3407 309.822 57.0793 309.841 56.818C309.86 56.5473 309.878 56.2813 309.897 56.02C309.916 55.7587 309.934 55.516 309.953 55.292H309.897L309.085 57.63L307.139 62.964H306.271L304.325 57.63L303.513 55.292H303.457C303.466 55.516 303.48 55.7587 303.499 56.02C303.518 56.2813 303.532 56.5473 303.541 56.818C303.56 57.0793 303.574 57.3407 303.583 57.602C303.602 57.854 303.611 58.092 303.611 58.316V64H302.435V53.738H304.003ZM323.241 54.564L318.607 64H317.193L321.379 55.614L321.855 54.83H316.493V53.738H323.241V54.564ZM331.231 64H325.687V62.964H327.969V55.376C327.969 55.32 327.974 55.2687 327.983 55.222L326.121 56.888L325.435 56.062L328.193 53.682H329.215V62.964H331.231V64ZM338.455 53.738H339.841L341.157 56.636C341.325 57.028 341.488 57.4013 341.647 57.756C341.805 58.1107 341.978 58.484 342.165 58.876H342.221C342.407 58.484 342.585 58.1107 342.753 57.756C342.921 57.4013 343.084 57.028 343.243 56.636L344.573 53.738H345.917L342.837 60.01V64H341.535V60.01L338.455 53.738ZM356.751 54.564L352.117 64H350.703L354.889 55.614L355.365 54.83H350.003V53.738H356.751V54.564ZM358.371 56.496C358.436 56.0293 358.567 55.614 358.763 55.25C358.959 54.886 359.202 54.5827 359.491 54.34C359.79 54.088 360.13 53.8967 360.513 53.766C360.896 53.6353 361.306 53.57 361.745 53.57C362.193 53.57 362.599 53.6353 362.963 53.766C363.336 53.8967 363.658 54.0787 363.929 54.312C364.2 54.5453 364.41 54.8253 364.559 55.152C364.708 55.4787 364.783 55.838 364.783 56.23C364.783 56.902 364.62 57.4247 364.293 57.798C363.976 58.162 363.537 58.4373 362.977 58.624C363.649 58.792 364.158 59.086 364.503 59.506C364.848 59.926 365.021 60.458 365.021 61.102C365.021 61.5687 364.928 61.9933 364.741 62.376C364.564 62.7587 364.316 63.0853 363.999 63.356C363.691 63.6173 363.322 63.8227 362.893 63.972C362.473 64.112 362.025 64.182 361.549 64.182C360.998 64.182 360.527 64.112 360.135 63.972C359.752 63.832 359.426 63.6407 359.155 63.398C358.884 63.1553 358.66 62.8707 358.483 62.544C358.315 62.208 358.17 61.8533 358.049 61.48L359.197 61.004C359.225 61.1533 359.295 61.3633 359.407 61.634C359.622 62.082 359.897 62.4367 360.233 62.698C360.569 62.95 361.003 63.076 361.535 63.076C361.899 63.076 362.216 63.02 362.487 62.908C362.767 62.7867 362.996 62.6327 363.173 62.446C363.36 62.2593 363.495 62.0493 363.579 61.816C363.672 61.5827 363.719 61.354 363.719 61.13C363.719 60.85 363.682 60.5933 363.607 60.36C363.542 60.1267 363.411 59.926 363.215 59.758C363.019 59.59 362.748 59.4593 362.403 59.366C362.058 59.2633 361.61 59.212 361.059 59.212V58.288C361.507 58.2787 361.885 58.2273 362.193 58.134C362.51 58.0407 362.767 57.9147 362.963 57.756C363.159 57.588 363.299 57.392 363.383 57.168C363.467 56.944 363.509 56.7013 363.509 56.44C363.509 55.852 363.336 55.4133 362.991 55.124C362.655 54.8347 362.216 54.69 361.675 54.69C361.386 54.69 361.115 54.7413 360.863 54.844C360.611 54.9467 360.396 55.0913 360.219 55.278C360.042 55.4553 359.902 55.6653 359.799 55.908C359.696 56.1507 359.645 56.4167 359.645 56.706L358.371 56.496ZM374.681 53.738V58.89H374.723L379.007 53.738H380.463L377.257 57.644L380.967 64H379.511L376.445 58.652L374.681 60.752V64H373.379V53.738H374.681ZM392.28 61.27H390.726V64H389.592V61.27H384.468V60.318L389.522 53.626H390.726V60.262H392.28V61.27ZM389.592 55.978C389.592 55.8567 389.597 55.7213 389.606 55.572C389.615 55.4133 389.629 55.2593 389.648 55.11L385.868 60.262H389.592V55.978ZM399.864 64H394.32V62.964H396.602V55.376C396.602 55.32 396.607 55.2687 396.616 55.222L394.754 56.888L394.068 56.062L396.826 53.682H397.848V62.964H399.864V64Z" fill="black"/>
</svg>
