<svg width="259" viewBox="0 0 259 293" fill="none" xmlns="http://www.w3.org/2000/svg">
<g clip-path="url(#clip0_563_2149)">
<path d="M99.0535 69.2967C95.4995 66.1253 91.0153 63.4547 86.2812 62.5924C83.8378 62.1473 81.325 62.3837 79.4092 64.1085C77.7848 65.5829 76.9796 67.7805 76.2577 69.7974C74.689 74.2345 73.7866 79.2558 75.0638 83.8876C76.341 88.5194 79.784 91.7464 83.8795 93.9301C86.073 95.0985 88.4192 96.0722 90.7654 96.9206C93.4309 97.8943 96.2492 98.2838 98.8314 96.8789C101.178 95.5853 99.0813 91.9828 96.7351 93.2764C94.722 94.3752 92.0287 92.9843 90.1268 92.2193C88.2248 91.4543 86.2118 90.5502 84.407 89.4235C80.3948 86.9059 78.4373 83.0808 78.6595 78.3517C78.7567 76.0566 79.3259 73.8033 80.0478 71.6195C80.617 69.9087 81.3528 67.0016 83.4352 66.5982C85.5176 66.1949 88.0166 67.2937 89.863 68.1422C92.1398 69.1854 94.25 70.5763 96.1103 72.2454C98.1095 74.0258 101.053 71.091 99.0535 69.2967Z" fill="black"/>
<path d="M94.7943 96.1409C99.7227 113.736 115.98 126.839 133.972 128.828C152.145 130.845 169.929 119.662 177.967 103.555C183.173 93.1226 183.798 81.2579 180.383 70.1582C179.591 67.5989 175.579 68.6978 176.37 71.271C179.189 80.3955 179.175 90.1877 175.482 99.0619C172.372 106.545 166.958 113.152 160.294 117.742C153.63 122.332 145.62 125.072 137.415 124.892C129.21 124.711 121.213 121.734 114.536 117.005C107.039 111.692 101.305 103.916 98.8203 95.0282C98.0984 92.441 94.0724 93.5399 94.8082 96.1409H94.7943Z" fill="black"/>
<path d="M132.417 72.4951C131.236 72.8985 130.265 73.6635 129.626 74.7345C129.459 75.0266 129.335 75.3465 129.21 75.6664C129.14 75.8473 129.085 76.0281 129.043 76.2089C128.89 76.96 128.904 77.572 129.043 78.3231C129.168 79.0186 129.848 79.6028 130.501 79.7836C131.264 79.9922 131.945 79.7419 132.528 79.2411C132.958 78.8795 133.333 78.3927 133.597 77.9058C133.86 77.419 134.11 76.8348 134.207 76.2645C134.263 75.9029 134.332 75.5134 134.332 75.1518C134.332 74.7901 134.277 74.4007 134.221 74.039C134.138 73.4688 133.902 72.8985 133.61 72.3977C133.097 71.4936 131.945 71.1459 131.014 71.5493C130.084 71.9526 129.473 73.0237 129.807 74.0112C129.987 74.5259 130.168 75.0544 130.348 75.5691C130.528 76.0837 130.82 76.5288 131.306 76.8209C131.75 77.0852 132.417 77.1965 132.916 77.0296C133.416 76.8626 133.902 76.5566 134.166 76.0698C134.43 75.583 134.555 74.9849 134.374 74.4563C134.194 73.9278 134.013 73.4131 133.833 72.8985L130.029 74.512C130.098 74.6371 130.154 74.7623 130.209 74.8875L130.001 74.3868C130.112 74.665 130.181 74.9431 130.223 75.2492L130.154 74.6928C130.195 75.0127 130.181 75.3326 130.154 75.6386L130.223 75.0822C130.181 75.4022 130.098 75.7082 129.973 76.0003L130.181 75.4995C130.056 75.7777 129.918 76.0281 129.737 76.2645L130.056 75.8473C129.918 76.0142 129.765 76.1811 129.598 76.3202L133.083 77.2382C133.083 77.2382 133.083 77.1547 133.069 77.1269L133.138 77.6833C133.111 77.4468 133.111 77.2104 133.138 76.9739L133.069 77.5303C133.111 77.2799 133.166 77.0295 133.263 76.7931L133.055 77.2938C133.166 77.0295 133.305 76.7931 133.472 76.5705L133.152 76.9878C133.319 76.7792 133.499 76.5984 133.694 76.4454L133.277 76.7653C133.458 76.6401 133.638 76.5288 133.833 76.4314L133.333 76.6401C133.402 76.6123 133.486 76.5845 133.555 76.5566C134.069 76.3758 134.513 76.0837 134.804 75.5969C135.068 75.1518 135.179 74.4841 135.013 73.9834C134.846 73.4827 134.541 72.9958 134.055 72.7316C133.569 72.4673 132.986 72.3421 132.444 72.5229L132.417 72.4951Z" fill="black"/>
<path d="M142.257 74.8045C142.521 75.2496 142.757 75.7086 142.965 76.1815L142.757 75.6807C143.104 76.5292 143.353 77.4055 143.478 78.3096L143.409 77.7532C143.534 78.6573 143.534 79.5754 143.409 80.4795L143.478 79.9231C143.478 80.0066 143.451 80.0761 143.451 80.1596C143.367 80.7298 143.354 81.2445 143.659 81.773C143.909 82.2042 144.409 82.6215 144.908 82.7328C145.436 82.858 146.033 82.8302 146.519 82.5241C146.949 82.246 147.393 81.8009 147.477 81.2723C147.713 79.6866 147.713 78.1844 147.407 76.6127C147.144 75.2357 146.588 73.8864 145.866 72.6902C145.297 71.7583 143.978 71.3271 143.02 71.9391C142.062 72.5511 141.66 73.803 142.271 74.7905L142.257 74.8045Z" fill="black"/>
<path d="M155.21 73.0528C155.043 73.4701 154.988 73.9152 154.946 74.3603C154.904 74.8054 154.974 75.2783 155.057 75.7095C155.14 76.1407 155.321 76.558 155.515 76.9475C155.571 77.0726 155.64 77.1839 155.723 77.2952C155.904 77.5456 156.084 77.7959 156.293 78.0185C156.792 78.5331 157.625 78.7696 158.32 78.5609C159.069 78.3245 159.68 77.8655 160.097 77.1839C160.416 76.6693 160.569 76.0434 160.569 75.4453C160.569 74.8472 160.416 74.2212 160.124 73.6927C159.986 73.4423 159.805 73.2059 159.583 73.0111C159.18 72.6356 158.875 72.4826 158.361 72.3017C158.084 72.2183 157.806 72.2044 157.528 72.26C157.251 72.26 156.987 72.3574 156.751 72.5104C156.515 72.6356 156.307 72.8164 156.168 73.0528C155.987 73.2476 155.862 73.484 155.793 73.7622C155.668 74.2908 155.696 74.8889 156.001 75.3757L156.32 75.793C156.584 76.0573 156.89 76.2242 157.237 76.3355C157.251 76.3355 157.278 76.3494 157.292 76.3633L156.792 76.1546C156.862 76.1825 156.931 76.2242 156.987 76.2659L156.57 75.946C156.57 75.946 156.695 76.0573 156.751 76.1268L156.432 75.7095C156.487 75.793 156.529 75.8764 156.57 75.9599L156.362 75.4592C156.404 75.5704 156.432 75.6817 156.445 75.8069L156.376 75.2505C156.39 75.3757 156.39 75.5148 156.376 75.64L156.445 75.0836C156.432 75.1949 156.404 75.3201 156.362 75.4313L156.57 74.9306C156.529 75.028 156.473 75.1253 156.418 75.2088L156.737 74.7915C156.737 74.7915 156.626 74.9167 156.556 74.9723L156.973 74.6524C156.973 74.6524 156.848 74.7359 156.779 74.7637L157.278 74.5551C157.278 74.5551 157.223 74.5829 157.195 74.5829L159.222 75.1253C159.153 75.0558 159.083 74.9723 159.028 74.9028L159.347 75.3201C159.208 75.1393 159.097 74.9306 159 74.722L159.208 75.2227C159.111 75.0002 159.055 74.7637 159.014 74.5133L159.083 75.0697C159.055 74.8193 159.055 74.5829 159.083 74.3325L159.014 74.8889C159.042 74.6663 159.111 74.4438 159.194 74.2212C159.278 73.943 159.291 73.6649 159.236 73.3867C159.236 73.1085 159.139 72.8442 158.986 72.6077C158.861 72.3713 158.681 72.1626 158.445 72.0236C158.25 71.8427 158.014 71.7175 157.737 71.648C157.209 71.5228 156.612 71.5506 156.126 71.8566L155.71 72.1766C155.446 72.4408 155.279 72.7468 155.168 73.0946L155.21 73.0528Z" fill="black"/>
<path d="M134.456 89.841C137.219 89.7576 139.995 89.7993 142.758 89.9941C143.396 90.0358 144.035 90.0914 144.674 90.161C145.021 90.1888 145.368 90.2305 145.701 90.2722C145.84 90.2862 145.965 90.3001 146.104 90.314C146.492 90.3696 145.646 90.2027 146.326 90.3557C146.548 90.3974 146.756 90.4531 146.978 90.5087C147.006 90.5087 147.353 90.6478 147.089 90.5365C147.187 90.5782 147.284 90.6339 147.367 90.6895C147.367 90.6895 147.547 90.8843 147.45 90.7591C147.52 90.8425 147.506 91.0094 147.52 90.8703C147.534 90.6339 147.52 91.1903 147.52 90.926C147.52 90.6617 147.45 91.5519 147.52 91.1207C147.492 91.2737 147.367 91.7188 147.381 91.7049C147.436 91.538 147.311 91.8579 147.311 91.8579C147.256 91.9553 147.214 92.0526 147.159 92.15C147.089 92.2752 147.006 92.4004 146.923 92.5256C146.728 92.8176 147.075 92.3586 146.853 92.6229C146.145 93.4157 145.576 93.833 144.549 94.306C143.063 94.9875 141.078 95.0571 139.495 94.3755C137.677 93.5966 136.275 91.9692 135.733 90.0914C135.414 89.0065 134.262 88.3388 133.165 88.6309C132.068 88.923 131.402 90.1053 131.707 91.2042C133.373 96.9626 139.69 100.482 145.41 98.4231C148.131 97.4356 150.879 95.3352 151.518 92.3447C151.865 90.6895 151.56 88.9787 150.324 87.7546C149.158 86.6002 147.534 86.3359 145.979 86.1551C142.147 85.71 138.288 85.5848 134.428 85.71C133.304 85.7517 132.346 86.6419 132.346 87.7964C132.346 88.9509 133.304 89.9245 134.428 89.8828L134.456 89.841Z" fill="black"/>
<path d="M156.21 46.5821C155.641 54.1071 148.394 60.3246 140.939 60.102C138.745 60.0325 136.774 59.2814 134.691 60.3802C132.609 61.4791 130.901 62.87 128.833 63.8854C126.764 64.9008 124.612 65.6936 122.405 66.1943C121.017 66.5142 118.809 66.8481 118.018 65.3459C117.046 63.5098 114.103 64.3722 114.131 66.403C114.159 68.6424 111.521 69.8108 109.744 70.4923C108.078 71.1322 102.469 72.9404 102.844 69.3935C103.122 66.7229 98.9568 66.7507 98.6791 69.3935C98.4293 71.7859 99.9564 73.9279 102.025 74.985C104.496 76.2508 107.398 75.6666 109.897 74.8459C113.798 73.5663 118.365 71.1182 118.296 66.403L114.409 67.4601C116.894 72.1475 123.183 70.5619 127.125 69.1153C129.916 68.0999 132.581 66.7785 135.052 65.1233C136.302 64.2887 136.913 63.8297 138.468 64.0384C139.606 64.1914 140.717 64.3305 141.855 64.2888C151.351 63.9688 159.639 56.0683 160.347 46.5961C160.541 43.9116 156.377 43.9255 156.182 46.5961L156.21 46.5821Z" fill="black"/>
<path d="M157.475 52.717C158.516 56.5421 158.71 60.5897 160.612 64.1366C162.181 67.0575 164.749 69.3108 167.568 70.9939C170.386 72.6769 173.607 73.9148 176.758 74.9998C179.687 76.0291 183.589 76.4881 185.421 73.3446C186.768 71.0217 183.172 68.9214 181.825 71.2442C181.034 72.5935 177.216 70.7574 176.189 70.368C173.621 69.4221 171.08 68.3372 168.775 66.8211C166.651 65.4162 164.819 63.5524 163.805 61.1878C162.514 58.1695 162.362 54.7478 161.501 51.5903C160.793 49.0032 156.767 50.102 157.489 52.7031L157.475 52.717Z" fill="black"/>
<path d="M152.155 5.45183C150.003 3.15678 147.268 0.986924 144.145 0.249728C141.021 -0.487468 137.745 0.374912 135.746 2.93423C134.052 5.10409 133.524 7.91378 134.024 10.5844C134.524 13.255 136.495 15.6613 138.953 16.8853C141.868 18.3458 145.394 18.5823 148.462 17.4417C149.518 17.0522 150.239 16.0368 149.92 14.8685C149.642 13.8531 148.421 13.0185 147.352 13.408C146.852 13.5888 146.352 13.7418 145.825 13.8531C145.7 13.8809 145.575 13.8948 145.45 13.9226C145.103 14.0061 145.936 13.8948 145.353 13.9226C145.075 13.9365 144.797 13.9643 144.506 13.9783C144.214 13.9922 143.937 13.9783 143.659 13.9643C143.52 13.9643 142.854 13.8531 143.284 13.9365C142.729 13.8253 142.187 13.714 141.66 13.5332C141.549 13.4914 141.424 13.4497 141.313 13.408C141.368 13.4358 141.674 13.5471 141.313 13.408C141.063 13.2828 140.813 13.1715 140.577 13.0185C140.369 12.8933 140.16 12.7542 139.966 12.6151C139.702 12.4343 140.202 12.8099 139.952 12.6151C139.813 12.5039 139.675 12.3787 139.536 12.2535C139.355 12.0866 139.189 11.9058 139.022 11.7249C138.953 11.6415 138.73 11.3216 138.939 11.6415C138.869 11.5441 138.814 11.4607 138.758 11.3633C138.633 11.1825 138.55 10.9738 138.439 10.793C138.258 10.4731 138.411 10.7652 138.439 10.8347C138.383 10.6817 138.314 10.5287 138.272 10.3618C138.203 10.1532 138.147 9.94455 138.106 9.722C138.064 9.55508 138.009 8.9848 138.05 9.45772C138.009 8.95698 138.022 8.47015 138.05 7.95551C138.078 7.44086 137.967 8.24761 138.05 7.92769C138.078 7.81641 138.092 7.70514 138.106 7.60777C138.147 7.39913 138.203 7.17659 138.272 6.96795C138.314 6.82885 138.606 6.17511 138.383 6.62021C138.508 6.36984 138.619 6.13338 138.758 5.89692C138.869 5.7161 138.994 5.53528 139.119 5.36837C138.842 5.73001 139.216 5.28491 139.314 5.18755C139.466 5.03454 139.619 4.89545 139.786 4.75636C139.438 5.03454 139.675 4.83981 139.758 4.79809C139.897 4.71463 140.035 4.63117 140.174 4.54772C140.271 4.49208 140.369 4.45035 140.466 4.39471C140.133 4.54772 140.452 4.39471 140.521 4.39471C140.827 4.31126 141.118 4.21389 141.438 4.15826C141.785 4.10262 141.146 4.17216 141.493 4.15826C141.632 4.15826 141.771 4.14435 141.896 4.14435C142.062 4.14435 142.229 4.14435 142.409 4.14435C142.784 4.14435 142.354 4.11653 142.576 4.14435C144.02 4.38081 144.867 4.812 146.116 5.64656C146.796 6.09166 147.088 6.32811 147.657 6.82885C148.226 7.32959 148.74 7.84423 149.254 8.3867C150.031 9.20735 151.419 9.16562 152.197 8.3867C153.016 7.56605 152.974 6.25857 152.197 5.43792L152.155 5.45183Z" fill="black"/>
<path d="M164.651 8.08176C164.679 7.94267 164.721 7.81749 164.749 7.6923C164.79 7.52539 164.929 7.49757 164.651 7.91485C164.679 7.85921 164.707 7.78967 164.735 7.73403C164.79 7.63666 164.86 7.5393 164.915 7.44193C165.026 7.21938 164.596 7.80358 164.776 7.62276C164.832 7.56712 164.887 7.49757 164.943 7.44193C165.026 7.34457 165.165 7.26111 165.234 7.16375C165.234 7.17766 164.79 7.46975 165.054 7.30284C165.109 7.26111 165.165 7.23329 165.221 7.19157C165.318 7.12202 165.429 7.08029 165.526 7.01074C165.609 6.96902 165.831 6.87165 165.512 7.01074C165.165 7.14984 165.47 7.03856 165.554 7.01074C165.679 6.96902 165.818 6.92729 165.942 6.89947C165.97 6.89947 166.123 6.84383 166.137 6.85774C166.151 6.85774 165.54 6.89947 165.887 6.89947C165.998 6.89947 166.123 6.88556 166.234 6.89947C166.303 6.89947 166.373 6.89947 166.428 6.89947C166.831 6.89947 166.234 6.85774 166.22 6.87165C166.262 6.84383 166.553 6.95511 166.609 6.96902C166.651 6.98293 166.775 7.01074 166.803 7.03856C166.845 7.08029 166.359 6.8021 166.539 6.92729C166.651 7.01074 166.803 7.08029 166.928 7.14984C167.15 7.28893 166.623 6.87165 166.803 7.05247C166.873 7.12202 166.956 7.19157 167.039 7.27502C167.095 7.33066 167.15 7.40021 167.206 7.45584C167.4 7.66448 167.095 7.45584 167.123 7.33066C167.123 7.40021 167.331 7.63666 167.372 7.70621C167.456 7.85921 167.539 8.01222 167.622 8.16522C167.664 8.23477 167.775 8.51295 167.65 8.20695C167.511 7.87312 167.678 8.27649 167.692 8.31822C167.803 8.62423 167.886 8.93023 167.956 9.25015C167.969 9.3197 168.067 9.93171 168.025 9.55616C167.983 9.23624 168.025 9.4727 168.025 9.54225C168.025 9.66743 168.053 9.80652 168.053 9.93171C168.067 10.2655 168.053 10.5854 168.025 10.9054C167.997 11.1835 168.108 10.4603 168.039 10.7385C168.025 10.8219 168.011 10.9054 167.983 10.9888C167.942 11.1696 167.886 11.3505 167.817 11.5452C167.747 11.7399 167.664 11.7121 167.886 11.3922C167.844 11.4339 167.831 11.5035 167.803 11.5591C167.719 11.7121 167.622 11.8512 167.539 11.9903C167.4 12.2128 167.817 11.7121 167.636 11.8651C167.595 11.8929 167.567 11.9486 167.525 11.9903C167.47 12.0459 167.414 12.0877 167.372 12.1433C167.109 12.4215 167.775 11.8929 167.456 12.0877C167.331 12.1711 167.206 12.2407 167.081 12.3102C167.025 12.338 166.942 12.3658 166.887 12.4076C167.275 12.1433 167.206 12.2824 166.97 12.3519C166.831 12.3937 166.692 12.4215 166.553 12.4493C166.206 12.5328 166.789 12.4076 166.789 12.4215C166.748 12.4493 166.581 12.4215 166.526 12.4215C166.456 12.4215 166.387 12.4215 166.317 12.4215C165.915 12.4215 166.47 12.4771 166.512 12.4493C166.442 12.491 166.137 12.3519 166.067 12.3241C165.831 12.2546 166.484 12.5467 166.276 12.4076C166.206 12.3658 166.123 12.3241 166.054 12.2824C165.859 12.1711 166.067 12.1433 166.22 12.4215C166.178 12.338 166.054 12.2685 165.998 12.1989C165.262 11.3922 163.791 11.3922 163.055 12.1989C162.263 13.0613 162.277 14.2853 163.055 15.1477C164.582 16.8307 167.067 16.9142 169.011 15.9962C171.065 15.0364 172.051 12.8388 172.218 10.6967C172.356 8.80505 171.801 6.62128 170.677 5.09125C169.941 4.08978 169.038 3.35258 167.858 2.9214C166.942 2.58757 165.915 2.6293 164.971 2.81012C162.958 3.21349 161.083 4.88261 160.667 6.92729C160.445 7.99831 160.972 9.23624 162.125 9.50052C163.166 9.73698 164.457 9.1806 164.693 8.04004L164.651 8.08176Z" fill="black"/>
<path d="M132.929 4.65993C124.46 3.39418 116.102 5.04939 108.148 8.01208C104.26 9.45865 100.456 11.1556 96.708 12.936C93.3205 14.5356 89.9609 16.2325 86.9621 18.5136C80.4511 23.4654 77.5495 30.8373 75.3699 38.4875C74.1899 42.6464 73.218 46.8609 72.4684 51.1033C71.7603 55.0535 71.0107 59.1568 71.6076 63.1766C72.8293 71.2996 80.0762 75.8202 86.7261 79.3671C89.0862 80.6328 91.1964 77.0303 88.8225 75.7645C83.8801 73.1357 77.7855 69.9504 76.064 64.1641C75.0089 60.6172 75.6892 56.7644 76.3001 53.2036C76.9526 49.3785 77.7716 45.5951 78.7573 41.8396C80.576 34.9962 82.6584 27.7216 88.1422 22.8812C90.6689 20.6418 93.7093 19.0283 96.708 17.54C100.026 15.8987 103.4 14.3547 106.829 12.9638C114.714 9.79248 123.266 7.40007 131.818 8.67973C134.442 9.06919 135.566 5.04939 132.929 4.65993Z" fill="black"/>
<path d="M175.784 17.359C183.961 22.7002 186.96 32.868 188.973 41.8951C191.486 53.2313 192.735 65.2768 188.973 76.4877C187.099 82.0792 183.975 87.1423 179.602 91.1064C177.603 92.9146 180.56 95.8495 182.545 94.0552C191.291 86.1408 195.165 74.3178 195.498 62.7592C195.692 56.1522 194.804 49.5314 193.485 43.0774C192.374 37.6528 190.986 32.2699 188.751 27.1929C186.377 21.81 182.864 17.0113 177.908 13.7704C175.659 12.296 173.563 15.9125 175.812 17.3729L175.784 17.359Z" fill="black"/>
<path d="M121.101 128.898C120.712 132.417 120.907 135.95 121.573 139.428C121.781 140.499 123.128 141.208 124.141 140.888C125.28 140.513 125.821 139.47 125.599 138.315C125.516 137.912 125.446 137.494 125.391 137.077C125.391 136.994 125.28 136.312 125.349 136.771C125.321 136.576 125.308 136.396 125.28 136.201C125.196 135.408 125.127 134.601 125.099 133.794C125.044 132.153 125.099 130.512 125.28 128.884C125.405 127.8 124.239 126.756 123.197 126.798C121.962 126.854 121.24 127.716 121.115 128.884L121.101 128.898Z" fill="black"/>
<path d="M146.674 126.95C145.702 130.358 146.077 133.905 145.452 137.354C145.202 138.759 144.758 140.206 143.647 141.179C142.259 142.389 140.357 142.487 138.608 142.459C136.72 142.431 134.818 142.209 132.916 142.334C130.75 142.487 128.501 143.363 126.335 143.085C122.823 142.64 120.477 138.982 118.686 136.283C117.214 134.058 113.604 136.144 115.09 138.383C117.408 141.903 120.199 145.755 124.461 146.938C126.988 147.633 129.362 146.979 131.874 146.618C134.387 146.256 136.678 146.632 139.094 146.618C143.592 146.59 147.493 144.657 149.006 140.219C150.353 136.297 149.547 132.013 150.686 128.035C151.422 125.448 147.409 124.349 146.674 126.922V126.95Z" fill="black"/>
<path d="M113.244 116.017C110.412 111.845 103.762 111.594 100.499 115.461C96.7507 119.926 98.0141 126.686 102.221 130.372C104.581 132.444 107.552 133.71 110.648 134.225C111.758 134.406 112.883 133.933 113.216 132.764C113.494 131.763 112.883 130.386 111.758 130.191C109.606 129.829 107.829 129.245 106.066 128.091C105.317 127.59 104.608 126.964 103.956 126.157C103.512 125.601 103.026 124.697 102.804 124.015C102.471 123 102.401 122.541 102.429 121.484C102.443 120.802 102.651 119.829 102.943 119.258C103.151 118.855 103.387 118.479 103.526 118.312C103.651 118.173 103.776 118.034 103.914 117.909C104.012 117.826 104.095 117.742 104.192 117.659C104.025 117.798 104.081 117.742 104.22 117.659C104.386 117.561 104.539 117.464 104.706 117.367C104.817 117.311 104.928 117.255 105.039 117.2C105.011 117.214 104.747 117.311 104.969 117.228C105.386 117.075 105.802 116.963 106.233 116.88C106.483 116.838 106.177 116.88 106.149 116.88C106.274 116.88 106.399 116.852 106.524 116.852C106.774 116.852 107.024 116.852 107.274 116.852C107.302 116.852 107.621 116.88 107.371 116.852C107.121 116.824 107.51 116.88 107.552 116.88C107.788 116.935 108.024 116.991 108.26 117.061C108.343 117.088 108.426 117.116 108.523 117.158C108.329 117.088 108.357 117.075 108.523 117.158C108.732 117.283 108.94 117.394 109.148 117.52C108.829 117.311 109.329 117.687 109.412 117.77C109.481 117.84 109.537 117.909 109.592 117.979C109.815 118.229 109.329 117.589 109.662 118.076C110.3 119.008 111.494 119.425 112.508 118.827C113.424 118.285 113.896 116.908 113.258 115.976L113.244 116.017Z" fill="black"/>
<path d="M169.273 118.438C171.495 119.036 174.271 119.815 175.757 121.721C177.381 123.807 175.729 126.047 174.077 127.479C171.689 129.538 168.537 130.957 165.594 131.986C162.387 133.099 159.069 133.738 155.696 133.878C153.03 133.989 153.016 138.162 155.696 138.05C159.972 137.87 164.206 137.035 168.19 135.463C171.758 134.044 175.687 132.181 178.256 129.218C180.671 126.436 181.518 122.528 179.213 119.412C177.131 116.602 173.633 115.295 170.384 114.418C167.788 113.723 166.691 117.743 169.273 118.438Z" fill="black"/>
<path d="M99.2087 106.56C94.2663 107.464 89.1019 108.535 84.7843 111.261C80.4667 113.988 77.4541 118.536 76.9821 123.849C75.9547 135.38 85.534 143.629 95.5158 146.967C98.0703 147.815 99.1531 143.795 96.6264 142.947C88.3938 140.193 80.1474 133.461 81.147 123.849C82.1465 114.238 92.5449 112.013 100.319 110.594C102.957 110.107 101.833 106.087 99.2087 106.574V106.56Z" fill="black"/>
<path d="M179.673 106.977C178.826 108.02 178.771 108.395 179.479 108.103H179.687C179.937 108.256 180.506 108.326 180.784 108.423C181.672 108.729 182.505 109.133 183.31 109.619C184.81 110.51 186.128 111.65 187.267 112.972C189.655 115.753 191.112 119.426 191.099 123.112C191.057 130.456 184.879 137.216 177.632 138.078C175.008 138.398 174.967 142.571 177.632 142.251C185.795 141.277 193.001 135.143 194.819 126.992C196.638 118.841 192.501 110.218 185.434 106.003C183.588 104.904 181.242 103.75 179.048 103.986C176.855 104.223 175.189 105.78 175.675 108.076C176.216 110.704 180.242 109.592 179.687 106.963L179.673 106.977Z" fill="black"/>
<path d="M80.2275 133.28C70.4401 140.012 65.7754 151.64 60.3749 161.766C53.9888 173.742 47.2833 185.551 40.2724 197.18C36.2464 203.842 32.1232 210.449 27.9027 217.001C26.445 219.268 30.0546 221.354 31.4984 219.101C38.6759 207.973 45.5757 196.665 52.1701 185.19C58.5702 174.048 64.3871 162.601 70.5789 151.348C73.5915 145.882 77.1039 140.471 82.3238 136.869C84.5174 135.353 82.4349 131.736 80.2275 133.266V133.28Z" fill="black"/>
<path d="M26.4761 215.832C24.949 218.391 25.3933 221.882 27.5035 223.983C28.2809 224.748 29.6831 224.817 30.4467 223.983C31.2102 223.148 31.2658 221.855 30.4467 221.034C30.3217 220.909 30.1968 220.77 30.0718 220.617L30.3911 221.034C30.1551 220.714 29.9608 220.38 29.7942 220.019L30.0024 220.519C29.8358 220.13 29.7386 219.726 29.6692 219.295L29.7386 219.852C29.6831 219.434 29.6831 219.003 29.7386 218.586L29.6692 219.142C29.7248 218.753 29.8219 218.363 29.9746 218.002L29.7664 218.502C29.8497 218.308 29.9469 218.127 30.0579 217.932C30.6133 217 30.294 215.595 29.3083 215.081C28.3226 214.566 27.0592 214.83 26.4623 215.832H26.4761Z" fill="black"/>
<path d="M59.2655 238.045C57.5302 239.728 58.2382 242.51 60.3623 243.442C62.4864 244.374 65.61 243.414 67.7758 242.705C72.5237 241.147 76.7719 238.351 80.3537 234.902C88.4197 227.14 92.5707 216.472 96.5134 206.235C97.4852 203.731 93.4592 202.646 92.5013 205.122C89.4193 213.12 86.2678 221.424 80.8535 228.17C78.5073 231.105 75.7446 233.747 72.5932 235.792C71.0383 236.793 69.4001 237.684 67.6647 238.337C66.8456 238.643 65.9988 238.922 65.1519 239.13C64.6382 239.269 64.1246 239.381 63.597 239.478L63.0695 239.575C62.292 239.506 62.0005 239.979 62.2087 240.994C64.1384 239.13 61.1953 236.181 59.2655 238.045Z" fill="black"/>
<path d="M183.589 141.429C199.763 159.79 212.021 181.099 223.975 202.352C226.904 207.568 231.596 214.231 226.432 219.642C224.586 221.589 227.515 224.538 229.375 222.59C233.79 217.959 233.637 211.922 230.972 206.428C228.112 200.558 224.599 194.911 221.337 189.25C214.798 177.858 207.982 166.591 200.332 155.909C196.014 149.886 191.433 144.044 186.532 138.481C184.755 136.464 181.812 139.426 183.589 141.429Z" fill="black"/>
<path d="M174.369 201.073C176.729 211.992 179.423 223.258 186.309 232.313C192.209 240.075 202.802 247.683 212.825 243.023C215.255 241.897 213.144 238.294 210.729 239.421C206.425 241.424 201.413 239.713 197.637 237.335C193.861 234.956 190.779 231.66 188.322 227.987C182.741 219.614 180.492 209.669 178.395 199.96C177.826 197.331 173.814 198.444 174.383 201.073H174.369Z" fill="black"/>
<path d="M82.0605 226.917C81.0749 231.632 80.0753 236.333 79.0896 241.049C78.2705 244.957 77.6597 248.796 81.1165 251.606C84.1569 254.068 88.4467 255.361 92.1951 256.293C96.3461 257.323 100.622 257.796 104.87 258.102C113.769 258.714 122.738 258.922 131.65 259.047C140.563 259.173 149.962 259.02 159.069 258.143C169.148 257.17 179.144 255.334 188.765 252.121C191.291 251.272 190.209 247.252 187.654 248.101C171.689 253.428 154.863 254.861 138.12 254.916C129.707 254.944 121.294 254.638 112.881 254.318C104.926 254.012 96.7903 253.762 89.2103 251.063C87.3499 250.396 85.1981 249.645 83.6571 248.351C81.9217 246.891 82.5326 244.79 82.9352 242.843C83.9625 237.905 85.0037 232.981 86.0449 228.043C86.6003 225.429 82.5881 224.302 82.0328 226.931L82.0605 226.917Z" fill="black"/>
<path d="M193.195 249.479C195.861 246.53 196.402 241.94 194.278 238.532C193.709 237.6 192.39 237.155 191.432 237.781C190.474 238.407 190.071 239.645 190.682 240.633C190.78 240.786 190.863 240.939 190.946 241.106C190.988 241.189 191.21 241.676 191.071 241.342C190.932 241.008 191.071 241.342 191.099 241.426C191.127 241.509 191.154 241.578 191.168 241.648C191.224 241.815 191.265 241.996 191.307 242.177C191.349 242.357 191.363 242.538 191.404 242.705C191.39 242.636 191.349 242.218 191.376 242.51C191.376 242.594 191.39 242.677 191.39 242.747C191.418 243.109 191.404 243.47 191.39 243.832C191.39 243.915 191.363 243.999 191.363 244.068C191.363 243.999 191.446 243.581 191.39 243.874C191.349 244.054 191.321 244.235 191.279 244.402C191.196 244.736 191.057 245.056 190.974 245.376C191.016 245.223 191.154 244.958 191.016 245.264C190.988 245.334 190.946 245.404 190.904 245.487C190.821 245.654 190.738 245.807 190.641 245.96C190.557 246.099 190.446 246.224 190.377 246.363C190.446 246.224 190.655 246.016 190.446 246.28C190.377 246.363 190.321 246.433 190.252 246.502C189.516 247.309 189.391 248.658 190.252 249.451C191.043 250.188 192.418 250.314 193.195 249.451V249.479Z" fill="black"/>
<path d="M80.7584 253.804C77.4126 259.674 82.0079 266.045 87.5888 268.159C91.1012 269.48 94.9884 269.578 98.709 269.8C102.791 270.037 106.872 270.217 110.954 270.343C127.752 270.857 144.564 270.454 161.321 269.105C170.789 268.353 180.23 267.282 189.628 265.947C192.266 265.572 191.142 261.552 188.518 261.927C158.364 266.198 127.752 267.408 97.3485 265.544C93.7806 265.321 89.699 265.21 86.6587 263.04C84.5068 261.51 82.938 258.408 84.3541 255.905C85.6869 253.568 82.0912 251.468 80.7584 253.804Z" fill="black"/>
<path d="M199.901 259.048C200.984 258.436 201.859 257.574 202.581 256.572C202.942 256.072 203.192 255.515 203.428 254.945C203.608 254.514 203.733 254.069 203.816 253.624C203.9 253.345 203.914 253.067 203.858 252.789C203.858 252.511 203.761 252.247 203.608 252.01C203.358 251.579 202.858 251.162 202.359 251.05C201.831 250.925 201.234 250.953 200.748 251.259C200.318 251.537 199.874 251.982 199.79 252.511C199.721 252.97 199.582 253.415 199.402 253.832L199.61 253.331C199.416 253.79 199.152 254.236 198.846 254.639L199.166 254.222C198.86 254.625 198.499 254.973 198.097 255.293L198.513 254.973C198.277 255.154 198.041 255.307 197.777 255.46C197.319 255.71 196.958 256.211 196.819 256.711C196.681 257.212 196.75 257.88 197.028 258.325C197.652 259.299 198.86 259.646 199.874 259.076L199.901 259.048Z" fill="black"/>
<path d="M107.192 154.825C110.288 157.217 113.842 158.984 117.59 160.068C118.631 160.374 119.909 159.707 120.158 158.608C120.408 157.509 119.825 156.369 118.701 156.035C117.826 155.784 116.951 155.492 116.091 155.158C115.882 155.075 115.66 154.992 115.452 154.894C115.924 155.089 115.244 154.797 115.161 154.755C114.744 154.56 114.328 154.366 113.925 154.157C112.287 153.322 110.746 152.335 109.288 151.208C108.885 150.902 108.136 150.874 107.678 151C107.192 151.139 106.664 151.5 106.428 151.959C105.845 153.072 106.248 154.101 107.178 154.811L107.192 154.825Z" fill="black"/>
<path d="M162.86 155.841C166.886 153.198 171.037 151.139 175.466 149.637C176.493 149.289 177.285 148.191 176.924 147.064C176.59 146.035 175.466 145.228 174.355 145.604C169.566 147.245 164.984 149.456 160.764 152.238C159.848 152.836 159.389 154.116 160.014 155.09C160.597 155.994 161.888 156.481 162.86 155.841Z" fill="black"/>
<path d="M134.069 155.521C131.834 159.305 130.529 163.533 130.154 167.915C130.057 168.999 131.182 170.043 132.237 170.001C133.445 169.945 134.222 169.083 134.319 167.915C134.347 167.65 134.361 167.386 134.402 167.122C134.416 166.983 134.43 166.857 134.444 166.718C134.416 166.913 134.416 166.927 134.444 166.774C134.527 166.287 134.611 165.786 134.708 165.3C134.902 164.382 135.138 163.477 135.416 162.587C136.013 160.71 136.596 159.444 137.665 157.622C138.22 156.676 137.915 155.285 136.915 154.77C135.916 154.256 134.652 154.52 134.069 155.521Z" fill="black"/>
<path d="M143.065 156.716C142.912 157.717 142.899 158.594 143.037 159.581C143.148 160.388 143.426 161.125 143.745 161.862C144.398 163.323 145.536 164.547 146.869 165.409C147.785 165.993 149.201 165.632 149.715 164.658C150.257 163.629 149.951 162.433 148.965 161.807C148.813 161.709 148.66 161.598 148.507 161.487L148.924 161.807C148.507 161.487 148.132 161.111 147.813 160.694L148.132 161.111C147.799 160.666 147.508 160.179 147.286 159.665L147.494 160.165C147.272 159.623 147.105 159.053 147.022 158.468L147.091 159.025C147.022 158.496 147.022 157.968 147.091 157.453L147.022 158.009C147.022 158.009 147.036 157.884 147.05 157.829C147.133 157.258 147.147 156.744 146.841 156.215C146.591 155.784 146.092 155.367 145.592 155.255C145.064 155.13 144.467 155.158 143.981 155.464C143.551 155.742 143.107 156.187 143.024 156.716H143.065Z" fill="black"/>
<path d="M26.8486 225.29C22.5726 225.053 18.9214 227.793 15.4784 229.963C11.7162 232.328 7.94 234.665 4.19161 237.057C1.33172 238.893 -1.3338 242.037 0.734756 245.528C2.37294 248.31 6.19075 249.242 9.18946 248.991C13.6598 248.602 17.7414 246.877 21.2121 244.067C22.0867 243.358 21.9479 241.856 21.2121 241.119C20.3513 240.256 19.1435 240.409 18.2689 241.119C15.5201 243.344 11.8411 244.832 8.27319 244.874C6.42676 244.888 2.59507 243.747 5.0107 241.591C6.44064 240.312 8.31484 239.394 9.93914 238.378C11.8689 237.168 13.7847 235.958 15.7144 234.748C17.6442 233.538 19.4351 232.356 21.3231 231.243C23.0446 230.228 24.7939 229.365 26.8347 229.49C29.5141 229.643 29.5002 225.471 26.8347 225.318L26.8486 225.29Z" fill="black"/>
<path d="M15.0215 244.011C12.6892 246.751 10.5651 249.658 8.69091 252.746C7.77464 254.262 6.92778 255.806 6.15034 257.392C5.48396 258.741 4.94252 260.09 4.83146 261.62C4.7204 263.15 5.22018 264.666 6.45576 265.612C8.03842 266.836 9.98203 266.53 11.7035 265.793C14.5217 264.583 17.104 262.733 19.2142 260.521C21.6715 257.948 23.5179 254.888 24.6702 251.522C25.0311 250.451 24.2537 249.241 23.2125 248.949C22.0741 248.629 21.019 249.338 20.6441 250.409C19.117 254.819 15.9795 258.616 11.9673 260.98C11.4397 261.286 10.9122 261.579 10.3569 261.843C10.0098 262.01 9.31565 262.093 9.03799 262.302C8.92692 262.385 8.88527 262.302 8.89916 262.302C8.92692 262.274 8.99634 262.399 9.01022 262.385C8.87139 262.483 9.31565 262.483 9.0241 262.427C8.94081 262.413 8.96857 262.302 9.0241 262.483C8.99634 262.371 8.94081 261.912 8.95469 262.218C8.95469 262.093 8.99634 261.439 8.95469 261.634C9.13517 260.452 9.57942 259.743 10.1486 258.658C10.8011 257.378 11.5091 256.126 12.2449 254.902C13.9248 252.12 15.8129 249.491 17.9231 247.015C18.6589 246.153 18.756 244.901 17.9231 244.067C17.1734 243.316 15.7157 243.204 14.9799 244.067L15.0215 244.011Z" fill="black"/>
<path d="M20.1288 251.578C18.7127 254.958 17.255 258.337 15.8667 261.731C14.6311 264.778 14.1452 268.547 16.8524 270.981C18.1574 272.149 19.9205 272.567 21.6142 272.08C23.308 271.593 24.5991 270.355 25.7791 269.173C28.0837 266.85 30.0134 264.138 31.485 261.217C31.9848 260.215 31.7488 258.95 30.7353 258.365C29.8052 257.823 28.3891 258.101 27.8893 259.116C26.737 261.411 25.3071 263.567 23.5579 265.459C22.7665 266.321 21.878 267.406 20.809 267.935C20.0038 268.324 19.74 268.13 19.3791 267.643C18.921 267.017 18.8654 266.21 19.0598 265.292C19.3513 263.901 19.9761 262.58 20.5314 261.272L24.1271 252.704C24.5574 251.661 23.655 250.409 22.6693 250.131C21.4615 249.797 20.5453 250.548 20.101 251.591L20.1288 251.578Z" fill="black"/>
<path d="M28.5695 259.103C27.2783 261.245 26.5148 263.61 26.2094 266.086C25.9456 268.242 26.0844 270.481 27.1395 272.429C28.1946 274.376 30.4437 275.725 32.6649 274.974C35.025 274.181 36.2467 271.872 37.3574 269.814C38.6901 267.338 39.8424 264.751 40.8142 262.108C41.189 261.078 40.3977 259.771 39.3565 259.535C38.1764 259.27 37.2046 259.896 36.7882 260.995C36.094 262.859 35.4415 264.403 34.5252 266.225C34.081 267.115 33.609 268.005 33.1092 268.868C32.9009 269.229 32.6927 269.605 32.4567 269.953C32.4011 270.036 32.3456 270.106 32.2901 270.189C32.2901 270.203 32.0957 270.453 32.2207 270.286C32.3456 270.12 32.1513 270.356 32.1513 270.37C32.068 270.467 31.9847 270.565 31.9014 270.648C31.8042 270.745 31.471 270.982 31.7625 270.801C31.6376 270.885 31.2905 271.051 31.6376 270.926C31.4571 270.996 31.1517 270.996 31.4849 270.996C31.4293 270.996 31.3044 271.024 31.2489 270.996C31.0406 270.898 31.5821 271.024 31.3599 270.996C31.2905 270.996 30.9851 270.871 31.2627 270.996C31.5265 271.107 31.3044 270.996 31.2627 270.982C30.9434 270.843 31.4571 271.218 31.2072 270.954C31.0962 270.843 30.999 270.732 30.8879 270.62C31.1656 270.898 30.9018 270.62 30.8046 270.453C30.7213 270.314 30.6658 270.161 30.5825 270.022C30.4714 269.827 30.6241 270.106 30.6241 270.133C30.5964 270.05 30.5686 269.98 30.5408 269.897C30.4298 269.549 30.3604 269.188 30.2771 268.826C30.3604 269.174 30.2771 268.937 30.2771 268.729C30.2771 268.52 30.2632 268.325 30.2493 268.117C30.2493 267.63 30.2493 267.129 30.3048 266.642C30.3048 266.531 30.3326 266.42 30.3326 266.308C30.3048 266.531 30.3326 266.267 30.3465 266.197C30.3881 265.933 30.4298 265.682 30.4853 265.418C30.5964 264.904 30.7352 264.389 30.9018 263.888C31.2211 262.915 31.5543 262.205 32.1513 261.204C32.7205 260.272 32.3873 258.867 31.4016 258.352C30.4159 257.838 29.1525 258.102 28.5556 259.103H28.5695Z" fill="black"/>
<path d="M36.4304 260.884C36.5137 262.998 35.9028 265.043 35.9306 267.143C35.9445 269.063 36.5553 270.871 37.8187 272.345C38.8738 273.569 40.4426 274.418 42.0807 274.32C44.1771 274.195 45.5654 272.749 46.7315 271.163C51.2296 264.987 53.4092 257.115 53.0066 249.506C52.8678 246.836 48.7029 246.822 48.8417 249.506C49.1472 255.432 47.7866 261.343 44.8018 266.49C44.1632 267.588 43.4552 268.993 42.4695 269.828C41.8031 270.384 41.2617 270.078 40.7619 269.397C39.9983 268.367 40.04 267.115 40.151 265.891C40.3037 264.208 40.6647 262.567 40.5953 260.884C40.4981 258.213 36.3332 258.2 36.4304 260.884Z" fill="black"/>
<path d="M36.43 227.111C42.1359 230.088 45.9398 236.083 46.1619 242.425C46.2591 245.11 50.424 245.11 50.3268 242.425C50.063 234.594 45.4955 227.153 38.5402 223.509C37.5406 222.994 36.2773 223.258 35.6942 224.26C35.1527 225.192 35.4443 226.596 36.4439 227.111H36.43Z" fill="black"/>
<path d="M208.718 237.571C207.954 242.927 208.037 248.282 209.078 253.595C210.064 258.602 211.841 264.305 215.006 268.395C216.492 270.314 218.63 271.747 221.129 271.719C223.822 271.691 225.641 269.98 226.682 267.616C228.806 262.775 228.889 257.17 226.876 252.288C226.446 251.244 225.502 250.521 224.308 250.827C223.322 251.091 222.42 252.357 222.85 253.4C224.364 257.072 224.6 261.037 223.322 264.82C222.739 266.531 221.851 268.269 219.796 267.226C218.172 266.406 217.283 264.403 216.534 262.859C212.882 255.445 211.55 246.849 212.73 238.67C212.896 237.544 212.452 236.445 211.272 236.097C210.3 235.819 208.87 236.445 208.704 237.558L208.718 237.571Z" fill="black"/>
<path d="M225.71 254.555C225.71 254.555 226.112 254.903 226.098 254.958C226.098 254.958 225.807 254.527 226.029 254.861C226.084 254.944 226.126 255.014 226.182 255.097C226.32 255.32 226.709 255.821 226.709 256.099C226.709 255.876 226.584 255.779 226.668 256.001C226.695 256.085 226.737 256.182 226.779 256.266C226.848 256.447 226.917 256.627 226.987 256.808C227.126 257.17 227.251 257.531 227.389 257.893C228.139 259.799 229.166 261.482 231.166 262.275C233.165 263.067 235.33 262.302 236.913 260.995C238.496 259.687 239.426 257.559 239.44 255.445C239.468 252.691 238.232 250.146 237.01 247.753C236.511 246.78 235.067 246.418 234.164 247.002C233.179 247.642 232.887 248.81 233.415 249.853C233.623 250.257 233.831 250.66 234.026 251.064C234.137 251.286 234.234 251.509 234.345 251.731C234.386 251.829 234.428 251.926 234.47 252.023C234.525 252.162 234.525 252.149 234.47 252.009L234.553 252.204C234.72 252.621 234.872 253.053 234.997 253.484C235.067 253.72 235.122 253.943 235.178 254.179C235.206 254.277 235.219 254.374 235.233 254.485C235.233 254.527 235.289 254.916 235.275 254.708C235.247 254.457 235.275 254.889 235.275 254.93C235.275 255.028 235.275 255.139 235.275 255.236C235.275 255.473 235.247 255.709 235.247 255.946C235.247 256.182 235.247 255.946 235.247 255.904C235.247 255.974 235.219 256.057 235.206 256.127C235.164 256.321 235.081 256.516 235.039 256.711C234.983 256.947 235.108 256.558 235.108 256.558C235.108 256.627 234.997 256.794 234.97 256.836C234.9 256.975 234.817 257.1 234.734 257.225C234.72 257.253 234.567 257.476 234.553 257.476C234.539 257.476 234.817 257.184 234.636 257.351C234.498 257.49 234.373 257.657 234.22 257.796C234.164 257.851 233.803 258.143 234.026 257.977C234.262 257.796 233.817 258.102 233.748 258.143C233.678 258.185 233.429 258.366 233.359 258.352C233.415 258.366 233.748 258.227 233.456 258.31C233.359 258.338 233.276 258.366 233.179 258.394C233.151 258.394 232.901 258.463 232.901 258.449C232.901 258.422 233.345 258.436 233.109 258.422C233.068 258.422 232.623 258.436 232.623 258.422C232.623 258.38 233.054 258.533 232.832 258.449C232.762 258.422 232.693 258.422 232.623 258.408C232.554 258.394 232.485 258.352 232.415 258.338C232.207 258.296 232.748 258.547 232.443 258.338C232.415 258.31 232.082 258.143 232.096 258.116C232.124 258.046 232.429 258.436 232.207 258.185C232.165 258.13 232.11 258.088 232.068 258.046C232.026 258.004 231.985 257.949 231.929 257.907C231.652 257.629 232.026 258.004 232.012 258.018C232.012 258.018 231.735 257.587 231.721 257.559C231.652 257.434 231.582 257.323 231.527 257.198C231.485 257.114 231.221 256.669 231.402 256.933C231.554 257.184 231.36 256.808 231.318 256.725C231.249 256.544 231.18 256.363 231.11 256.182C230.513 254.541 229.916 252.844 228.611 251.62C227.82 250.869 226.445 250.771 225.668 251.62C224.891 252.468 224.821 253.776 225.668 254.569L225.71 254.555Z" fill="black"/>
<path d="M236.328 248.63C236.134 250.688 237.425 252.594 239.105 253.637C240.895 254.75 243.131 254.833 244.991 253.859C248.725 251.926 249.461 246.752 247.337 243.386C246.046 241.355 244.089 239.992 241.881 239.157C240.854 238.768 239.549 239.588 239.313 240.618C239.049 241.8 239.674 242.774 240.771 243.191C240.937 243.261 241.201 243.4 240.882 243.233C241.034 243.302 241.187 243.372 241.326 243.455C241.645 243.622 241.951 243.803 242.256 244.012C242.325 244.053 242.7 244.345 242.506 244.192C242.312 244.039 242.686 244.345 242.742 244.401C243.033 244.665 243.269 244.944 243.533 245.222C243.686 245.389 243.478 245.138 243.464 245.124C243.505 245.194 243.561 245.25 243.603 245.319C243.7 245.458 243.783 245.583 243.866 245.736C243.95 245.889 244.019 246.015 244.102 246.168C244.144 246.237 244.172 246.321 244.2 246.39C244.13 246.237 244.102 246.112 244.172 246.348C244.214 246.501 244.491 247.113 244.408 247.252C244.408 247.252 244.366 246.807 244.38 247.072C244.38 247.141 244.38 247.225 244.394 247.294C244.394 247.461 244.394 247.642 244.394 247.809C244.394 247.906 244.311 248.351 244.394 248.045C244.477 247.739 244.352 248.198 244.338 248.282C244.311 248.421 244.269 248.574 244.214 248.713C244.186 248.783 244.172 248.852 244.144 248.922C244.047 249.2 244.2 248.922 244.186 248.838C244.213 249.061 243.825 249.464 243.714 249.659C243.603 249.867 243.825 249.506 243.825 249.52C243.825 249.561 243.714 249.659 243.686 249.687C243.575 249.812 243.45 249.923 243.325 250.048C243.061 250.313 243.617 249.881 243.297 250.076C243.172 250.146 243.047 250.215 242.922 250.299C242.603 250.493 243.242 250.215 242.881 250.313C242.728 250.354 242.561 250.382 242.409 250.438C242.187 250.507 242.617 250.382 242.617 250.41C242.617 250.41 242.423 250.41 242.409 250.41C242.339 250.41 242.27 250.41 242.2 250.41C242.228 250.368 242.436 250.466 242.2 250.41C242.131 250.396 242.062 250.382 241.992 250.368C241.937 250.354 241.534 250.285 241.52 250.215C241.52 250.187 241.895 250.41 241.687 250.285C241.604 250.229 241.52 250.201 241.437 250.16C241.354 250.118 240.868 249.812 241.118 249.979C241.367 250.146 240.979 249.854 240.909 249.77C240.868 249.728 240.812 249.659 240.771 249.617C240.59 249.478 240.951 249.923 240.84 249.714C240.757 249.575 240.673 249.436 240.59 249.311C240.465 249.102 240.562 249.311 240.59 249.311C240.646 249.464 240.659 249.478 240.618 249.367C240.604 249.325 240.59 249.283 240.576 249.242C240.562 249.172 240.548 249.102 240.521 249.047C240.423 248.713 240.576 249.186 240.535 249.2C240.535 249.2 240.535 248.671 240.535 248.643C240.632 247.558 239.507 246.515 238.452 246.557C237.23 246.613 236.481 247.475 236.37 248.643L236.328 248.63Z" fill="black"/>
<path d="M248.617 247.196C252.491 248.49 256.281 244.985 256.531 241.215C256.794 237.14 253.49 233.941 249.992 232.536C247.909 231.701 245.66 231.451 243.439 231.242C242.356 231.145 241.315 232.272 241.357 233.329C241.412 234.553 242.273 235.304 243.439 235.415C243.953 235.471 244.466 235.526 244.966 235.582C245.119 235.596 245.105 235.596 244.925 235.582C245.063 235.596 245.202 235.624 245.327 235.638C245.563 235.679 245.799 235.721 246.035 235.763C246.993 235.944 247.965 236.194 248.867 236.57C248.548 236.43 249.048 236.667 249.117 236.695C249.353 236.806 249.589 236.931 249.811 237.07C249.964 237.168 250.103 237.265 250.256 237.362C250.45 237.501 250.45 237.501 250.256 237.362C250.353 237.432 250.436 237.515 250.533 237.585C250.853 237.863 251.13 238.169 251.408 238.475C251.727 238.823 251.283 238.253 251.519 238.614C251.644 238.809 251.783 239.004 251.894 239.212C251.922 239.268 252.199 239.838 252.088 239.588C251.977 239.337 252.199 239.936 252.213 239.991C252.269 240.186 252.296 240.381 252.352 240.575C252.38 240.728 252.38 240.687 252.338 240.45C252.338 240.561 252.352 240.687 252.352 240.798C252.352 240.909 252.352 241.034 252.352 241.146C252.324 241.396 252.352 241.382 252.38 241.09C252.38 241.229 252.31 241.424 252.269 241.563C252.241 241.66 252.199 241.772 252.171 241.869C252.283 241.619 252.283 241.605 252.185 241.813C252.102 241.952 252.033 242.092 251.949 242.231C251.894 242.328 251.824 242.411 251.769 242.495C251.935 242.286 251.935 242.272 251.783 242.453C251.672 242.564 251.561 242.676 251.436 242.801C251.255 242.954 251.269 242.94 251.491 242.773C251.408 242.843 251.325 242.898 251.227 242.954C251.089 243.037 250.95 243.107 250.811 243.19C250.603 243.288 250.617 243.274 250.88 243.163C250.783 243.204 250.686 243.232 250.589 243.26C250.492 243.288 250.394 243.316 250.283 243.329L250.533 243.302C250.533 243.302 249.992 243.343 249.922 243.302C250.214 243.343 250.256 243.343 250.02 243.302C249.922 243.274 249.811 243.246 249.714 243.204C248.687 242.857 247.396 243.608 247.146 244.665C246.882 245.819 247.493 246.862 248.604 247.238L248.617 247.196Z" fill="black"/>
<path d="M230.748 221.771C237.134 221.757 243.451 222.842 249.448 225.053C251.461 225.791 254.363 226.876 254.779 229.31C255.196 231.744 252.377 231.813 250.6 231.799C247.921 231.772 247.921 235.944 250.6 235.972C254.016 236.014 257.917 235.179 258.819 231.313C259.652 227.738 257.403 224.483 254.432 222.744C251.128 220.811 247.088 219.754 243.381 218.933C239.244 218.029 234.996 217.584 230.748 217.598C228.068 217.598 228.068 221.785 230.748 221.771Z" fill="black"/>
<path d="M233.331 229.379C233.331 229.379 233.067 229.74 233.276 229.462C233.484 229.184 233.234 229.504 233.206 229.532C233.081 229.671 232.956 229.81 232.831 229.935C232.706 230.06 232.567 230.185 232.429 230.31C232.373 230.366 232.082 230.589 232.359 230.38C232.623 230.185 232.387 230.366 232.332 230.394C232.012 230.616 231.679 230.825 231.346 230.992C231.249 231.034 231.165 231.089 231.068 231.131C230.999 231.159 230.735 231.284 231.04 231.145C231.36 231.006 231.027 231.145 230.943 231.173C230.846 231.215 230.749 231.242 230.652 231.27C230.305 231.381 229.944 231.479 229.583 231.534C229.236 231.59 229.555 231.534 229.708 231.534C229.624 231.534 229.541 231.548 229.458 231.562C229.249 231.576 229.055 231.59 228.847 231.59C228.666 231.59 228.486 231.59 228.292 231.59C228.194 231.59 228.083 231.576 227.986 231.562C227.695 231.548 228.111 231.562 228.18 231.59C227.792 231.479 227.389 231.437 227 231.298C225.959 230.95 224.682 231.687 224.432 232.758C224.168 233.913 224.779 234.956 225.89 235.332C229.958 236.667 234.497 234.928 236.913 231.493C237.538 230.603 237.107 229.128 236.163 228.641C235.094 228.071 233.984 228.433 233.317 229.392L233.331 229.379Z" fill="black"/>
<path d="M216.755 223.453C211.812 227.695 207.828 233.078 205.246 239.073C204.801 240.102 204.94 241.312 205.995 241.924C206.87 242.439 208.397 242.216 208.841 241.173C211.313 235.415 214.964 230.463 219.698 226.402C220.559 225.664 220.448 224.204 219.698 223.453C218.851 222.604 217.615 222.716 216.755 223.453Z" fill="black"/>
<path d="M207.218 229.379C211.425 223.12 218.172 218.933 225.571 217.695C226.682 217.514 227.307 216.137 227.029 215.122C226.71 213.939 225.585 213.48 224.461 213.661C215.992 215.08 208.398 220.143 203.622 227.251C202.998 228.183 203.442 229.56 204.372 230.102C205.4 230.7 206.593 230.297 207.218 229.351V229.379Z" fill="black"/>
<path d="M42.6637 220.088C48.328 227.641 51.9237 236.431 53.2148 245.778C53.3675 246.891 54.7974 247.503 55.7831 247.239C56.9909 246.905 57.3935 245.792 57.2408 244.666C55.9219 235.013 52.1041 225.763 46.2733 217.974C45.593 217.069 44.4685 216.61 43.4273 217.222C42.5388 217.737 41.9974 219.17 42.6776 220.074L42.6637 220.088Z" fill="black"/>
<path d="M80.0355 265.78C80.7852 282.707 71.3031 298.049 71.0394 314.894C70.9977 317.578 75.1626 317.578 75.2043 314.894C75.468 298.049 84.9501 282.763 84.2004 265.78C84.0755 263.109 79.9106 263.095 80.0355 265.78Z" fill="black"/>
<path d="M185.435 272.888C191.044 279.286 193.543 287.535 195.667 295.616C197.833 303.906 199.721 312.335 203.733 319.971C204.982 322.35 208.578 320.235 207.329 317.871C199.277 302.529 200.207 283.445 188.378 269.953C186.601 267.936 183.672 270.885 185.435 272.902V272.888Z" fill="black"/>
</g>
<defs>
<clipPath id="clip0_563_2149">
<rect width="259" height="293" fill="white"/>
</clipPath>
</defs>
</svg>
