<svg width="290" viewBox="0 0 290 144" fill="none" xmlns="http://www.w3.org/2000/svg">
<path d="M287.967 66.7508C286.528 28.2203 221.35 -0.49653 142.385 2.61791C63.4287 5.72293 0.577114 39.483 2.02451 78.023C2.48254 90.3679 9.49964 101.706 21.4085 111.313L10.7638 139.427L43.55 124.711C70.0702 136.943 107.015 143.756 147.606 142.156C226.572 139.042 289.414 105.281 287.976 66.7508H287.967Z" stroke="black" stroke-width="3" stroke-linecap="round" stroke-linejoin="round"/>
<path d="M48.7252 42.3V40.24H52.8052V38.28H55.4652V40.24H59.5852L59.5652 42.3H48.7252ZM65.6652 46.1H63.2252V52.08H60.5852V38.3H63.2252V43.92H65.6652V46.1ZM58.6652 46.5C58.6652 47.0333 58.5519 47.52 58.3252 47.96C58.0986 48.3867 57.7852 48.76 57.3852 49.08C56.9852 49.3867 56.5052 49.6267 55.9452 49.8C55.3986 49.9733 54.7986 50.06 54.1452 50.06C53.4786 50.06 52.8652 49.9733 52.3052 49.8C51.7586 49.6267 51.2852 49.3867 50.8852 49.08C50.4852 48.76 50.1719 48.3867 49.9452 47.96C49.7319 47.52 49.6252 47.0333 49.6252 46.5C49.6252 45.98 49.7319 45.5067 49.9452 45.08C50.1719 44.64 50.4852 44.2667 50.8852 43.96C51.2852 43.64 51.7586 43.3933 52.3052 43.22C52.8652 43.0467 53.4786 42.96 54.1452 42.96C54.7986 42.96 55.3986 43.0467 55.9452 43.22C56.5052 43.3933 56.9852 43.64 57.3852 43.96C57.7852 44.2667 58.0986 44.64 58.3252 45.08C58.5519 45.5067 58.6652 45.98 58.6652 46.5ZM52.1452 46.5C52.1452 47.0067 52.3252 47.3933 52.6852 47.66C53.0586 47.9267 53.5452 48.06 54.1452 48.06C54.7452 48.06 55.2252 47.9267 55.5852 47.66C55.9586 47.3933 56.1452 47.0067 56.1452 46.5C56.1452 45.9933 55.9586 45.6133 55.5852 45.36C55.2252 45.0933 54.7452 44.96 54.1452 44.96C53.5452 44.96 53.0586 45.0933 52.6852 45.36C52.3252 45.6133 52.1452 45.9933 52.1452 46.5ZM63.8852 54.3V56.4H51.3452V51.06H53.9852V54.3H63.8852ZM72.4349 49.04V39.52H75.0549V42.32H78.5549V39.54H81.1349V43.2H84.4149V38.32H87.0549V51.9H84.4149V45.32H81.1349V49.04H72.4349ZM75.0549 44.34V46.94H78.5549V44.34H75.0549ZM87.4549 56.4H74.8949V50.58H77.5349V54.3H87.4549V56.4ZM109.085 44.54V48.82H106.445V38.3H109.085V42.38H111.525V44.54H109.085ZM95.1246 47.96V39.28H97.7246V41.56H101.345V39.28H103.945V47.96H95.1246ZM97.7246 43.58V45.88H101.345V43.58H97.7246ZM109.085 49.68V56.5H97.1046V49.68H109.085ZM106.505 54.44V51.76H99.7046V54.44H106.505ZM114.283 42V39.9H128.283V42H125.783V47.52H128.223V49.62H114.383V47.52H116.783V42H114.283ZM119.403 42V47.52H123.163V42H119.403ZM129.663 54.58H112.983V52.44H129.663V54.58ZM133.441 45.38V38.96H136.081V43.28H146.221V45.38H133.441ZM148.061 49.38H131.381V47.26H148.061V49.38ZM146.321 54.22V56.34H133.261V50.84H135.921V54.22H146.321ZM164.131 45.26C164.011 45.7933 163.805 46.28 163.511 46.72C163.231 47.16 162.885 47.54 162.471 47.86C162.058 48.1667 161.585 48.4067 161.051 48.58C160.531 48.7533 159.978 48.84 159.391 48.84C158.711 48.84 158.078 48.7267 157.491 48.5C156.905 48.26 156.391 47.9333 155.951 47.52C155.511 47.0933 155.165 46.5933 154.911 46.02C154.671 45.4467 154.551 44.82 154.551 44.14C154.551 43.46 154.671 42.8333 154.911 42.26C155.165 41.6733 155.511 41.1733 155.951 40.76C156.391 40.3333 156.905 40.0067 157.491 39.78C158.078 39.54 158.711 39.42 159.391 39.42C159.991 39.42 160.551 39.5133 161.071 39.7C161.605 39.8733 162.078 40.1267 162.491 40.46C162.918 40.78 163.271 41.1667 163.551 41.62C163.845 42.0733 164.051 42.58 164.171 43.14H167.071V38.32H169.711V51.76H167.071V45.26H164.131ZM157.071 44.14C157.071 44.9 157.285 45.4933 157.711 45.92C158.151 46.3333 158.711 46.54 159.391 46.54C160.071 46.54 160.631 46.3333 161.071 45.92C161.525 45.4933 161.751 44.9 161.751 44.14C161.751 43.38 161.525 42.7867 161.071 42.36C160.631 41.92 160.071 41.7 159.391 41.7C158.711 41.7 158.151 41.92 157.711 42.36C157.285 42.7867 157.071 43.38 157.071 44.14ZM170.131 56.4H157.571V50.46H160.211V54.3H170.131V56.4ZM188.51 56.7H186.01V38.28H188.51V56.7ZM184.75 38.6V55.88H182.29V46.72H179.95V44.58H182.29V38.6H184.75ZM178.55 43.18C178.55 43.9533 178.61 44.72 178.73 45.48C178.85 46.2267 179.05 46.94 179.33 47.62C179.61 48.3 179.976 48.9267 180.43 49.5C180.883 50.06 181.443 50.5333 182.11 50.92L180.57 52.84C179.73 52.36 179.05 51.7333 178.53 50.96C178.01 50.1867 177.596 49.3133 177.29 48.34C176.97 49.3933 176.536 50.3533 175.99 51.22C175.443 52.0733 174.75 52.76 173.91 53.28L172.35 51.34C173.016 50.9133 173.583 50.4 174.05 49.8C174.516 49.1867 174.89 48.5267 175.17 47.82C175.463 47.1 175.67 46.3467 175.79 45.56C175.923 44.7733 175.99 43.98 175.99 43.18V42.28H173.03V40.14H181.23V42.28H178.55V43.18ZM205.528 47.42V56.68H202.888V38.28H205.528V45.24H208.108V47.42H205.528ZM194.308 50C195.481 49.9733 196.681 49.9067 197.908 49.8C199.148 49.68 200.415 49.4933 201.708 49.24L201.968 51.4C200.435 51.72 198.941 51.9333 197.488 52.04C196.048 52.1467 194.641 52.2 193.268 52.2H191.668V40.04H194.308V50ZM228.538 44.54V48.82H225.898V38.3H228.538V42.38H230.978V44.54H228.538ZM214.578 47.96V39.28H217.178V41.56H220.798V39.28H223.398V47.96H214.578ZM217.178 43.58V45.88H220.798V43.58H217.178ZM228.538 49.68V56.5H216.558V49.68H228.538ZM225.958 54.44V51.76H219.158V54.44H225.958ZM233.736 42V39.9H247.736V42H245.236V47.52H247.676V49.62H233.836V47.52H236.236V42H233.736ZM238.856 42V47.52H242.616V42H238.856ZM249.116 54.58H232.436V52.44H249.116V54.58ZM252.715 50.76L252.295 42.58L252.195 39.8H255.155L255.055 42.58L254.635 50.76H252.715ZM252.235 55.28V52.44H255.155V55.28H252.235ZM67.6864 81.72H65.0464V63.3H67.6864V81.72ZM59.5464 68.26C59.5464 69.0067 59.6397 69.76 59.8264 70.52C60.0131 71.2667 60.2931 71.9733 60.6664 72.64C61.0531 73.3067 61.5264 73.9067 62.0864 74.44C62.6597 74.9733 63.3331 75.4 64.1064 75.72L62.6664 77.8C61.5864 77.3333 60.6797 76.68 59.9464 75.84C59.2264 74.9867 58.6597 73.9933 58.2464 72.86C57.8331 74.0733 57.2531 75.1533 56.5064 76.1C55.7731 77.0467 54.8664 77.7667 53.7864 78.26L52.2864 76.16C53.0597 75.8133 53.7331 75.3533 54.3064 74.78C54.8797 74.2067 55.3531 73.5733 55.7264 72.88C56.1131 72.1733 56.3997 71.4267 56.5864 70.64C56.7731 69.84 56.8664 69.0467 56.8664 68.26V67.24H53.0264V65.06H63.3464V67.24H59.5464V68.26ZM87.5048 72.86H70.8248V70.76H82.5048C82.6915 69.84 82.8115 69.0133 82.8648 68.28C82.9182 67.5467 82.9448 66.86 82.9448 66.22H72.8848V64.12H85.5448V65.6C85.5448 66.3467 85.5248 67.1267 85.4848 67.94C85.4582 68.7533 85.3382 69.6933 85.1248 70.76H87.5048V72.86ZM85.4648 74.78V81.5H72.7848V74.78H85.4648ZM82.8848 79.44V76.84H75.3848V79.44H82.8848ZM104.583 81.76H101.943V63.28H104.583V81.76ZM95.1433 64.52C95.8633 64.52 96.5299 64.6333 97.1433 64.86C97.7699 65.0867 98.3099 65.4 98.7633 65.8C99.2166 66.2 99.5699 66.68 99.8233 67.24C100.09 67.7867 100.223 68.3933 100.223 69.06C100.223 69.7133 100.09 70.32 99.8233 70.88C99.5699 71.44 99.2166 71.92 98.7633 72.32C98.3099 72.72 97.7699 73.0333 97.1433 73.26C96.5299 73.4867 95.8633 73.6 95.1433 73.6C94.4233 73.6 93.7499 73.4867 93.1233 73.26C92.5099 73.0333 91.9766 72.72 91.5233 72.32C91.0833 71.92 90.7299 71.44 90.4633 70.88C90.2099 70.32 90.0833 69.7133 90.0833 69.06C90.0833 68.3933 90.2099 67.7867 90.4633 67.24C90.7299 66.68 91.0833 66.2 91.5233 65.8C91.9766 65.4 92.5099 65.0867 93.1233 64.86C93.7499 64.6333 94.4233 64.52 95.1433 64.52ZM95.1433 66.78C94.4233 66.78 93.8233 66.98 93.3433 67.38C92.8766 67.78 92.6433 68.34 92.6433 69.06C92.6433 69.78 92.8766 70.34 93.3433 70.74C93.8233 71.14 94.4233 71.34 95.1433 71.34C95.8633 71.34 96.4566 71.14 96.9233 70.74C97.4033 70.34 97.6433 69.78 97.6433 69.06C97.6433 68.34 97.4033 67.78 96.9233 67.38C96.4566 66.98 95.8633 66.78 95.1433 66.78ZM89.3033 75.88C90.1166 75.88 90.9966 75.88 91.9433 75.88C92.8899 75.8667 93.8699 75.84 94.8833 75.8C95.8966 75.76 96.9166 75.7 97.9433 75.62C98.9699 75.54 99.9699 75.4267 100.943 75.28L101.103 77.18C100.117 77.38 99.1099 77.54 98.0833 77.66C97.0699 77.7667 96.0699 77.8467 95.0833 77.9C94.0966 77.9533 93.1433 77.9867 92.2233 78C91.3033 78.0133 90.4433 78.02 89.6433 78.02L89.3033 75.88ZM126.653 69.54V73.82H124.013V63.3H126.653V67.38H129.093V69.54H126.653ZM112.693 72.96V64.28H115.293V66.56H118.913V64.28H121.513V72.96H112.693ZM115.293 68.58V70.88H118.913V68.58H115.293ZM126.653 74.68V81.5H114.673V74.68H126.653ZM124.073 79.44V76.76H117.273V79.44H124.073ZM131.851 67V64.9H145.851V67H143.351V72.52H145.791V74.62H131.951V72.52H134.351V67H131.851ZM136.971 67V72.52H140.731V67H136.971ZM147.231 79.58H130.551V77.44H147.231V79.58ZM150.99 65.4V63.62H163.59V67.96H153.63V68.92H163.91V70.7H151.03V66.3H160.99V65.4H150.99ZM165.63 73.48H148.95V71.58H165.63V73.48ZM164.15 79.78V81.56H150.85V77.12H161.03V76.18H150.83V74.4H163.65V78.78H153.47V79.78H164.15ZM184.52 73.72V63.3H187.18V73.72H184.52ZM177.14 73.08C176.433 73.08 175.773 72.9733 175.16 72.76C174.546 72.5333 174.013 72.2267 173.56 71.84C173.12 71.4533 172.773 70.9867 172.52 70.44C172.266 69.8933 172.14 69.3 172.14 68.66C172.14 68.02 172.266 67.4267 172.52 66.88C172.773 66.3333 173.12 65.8667 173.56 65.48C174.013 65.0933 174.546 64.7933 175.16 64.58C175.773 64.3533 176.433 64.24 177.14 64.24C177.86 64.24 178.526 64.3533 179.14 64.58C179.753 64.7933 180.28 65.0933 180.72 65.48C181.173 65.8667 181.526 66.3333 181.78 66.88C182.033 67.4267 182.16 68.02 182.16 68.66C182.16 69.3 182.033 69.8933 181.78 70.44C181.526 70.9867 181.173 71.4533 180.72 71.84C180.28 72.2267 179.753 72.5333 179.14 72.76C178.526 72.9733 177.86 73.08 177.14 73.08ZM177.14 66.44C176.42 66.44 175.833 66.64 175.38 67.04C174.94 67.4267 174.72 67.9667 174.72 68.66C174.72 69.3533 174.94 69.9 175.38 70.3C175.833 70.6867 176.42 70.88 177.14 70.88C177.86 70.88 178.446 70.6867 178.9 70.3C179.353 69.9 179.58 69.3533 179.58 68.66C179.58 67.9667 179.353 67.4267 178.9 67.04C178.446 66.64 177.86 66.44 177.14 66.44ZM185.32 75.1C185.32 75.58 185.38 76.0467 185.5 76.5C185.633 76.94 185.84 77.3533 186.12 77.74C186.4 78.1267 186.753 78.4733 187.18 78.78C187.62 79.0867 188.146 79.3333 188.76 79.52L187.46 81.44C186.58 81.1467 185.853 80.74 185.28 80.22C184.72 79.7 184.286 79.08 183.98 78.36C183.673 79.08 183.246 79.72 182.7 80.28C182.166 80.8533 181.48 81.3067 180.64 81.64C179.8 81.3333 179.106 80.9 178.56 80.34C178.026 79.78 177.606 79.14 177.3 78.42C176.98 79.1 176.54 79.6933 175.98 80.2C175.42 80.72 174.72 81.1333 173.88 81.44L172.58 79.52C173.193 79.32 173.713 79.06 174.14 78.74C174.58 78.42 174.94 78.0667 175.22 77.68C175.5 77.28 175.7 76.86 175.82 76.42C175.953 75.98 176.02 75.54 176.02 75.1V74.48H178.58V75.1C178.58 75.8333 178.733 76.56 179.04 77.28C179.36 77.9867 179.886 78.5933 180.62 79.1C181.38 78.54 181.92 77.9067 182.24 77.2C182.56 76.48 182.72 75.78 182.72 75.1V74.48H185.32V75.1ZM206.118 81.7H203.618V63.28H206.118V81.7ZM202.198 63.7V80.9H199.738V72.46H196.858C196.338 73.5133 195.651 74.4933 194.798 75.4C193.958 76.3067 192.871 77.14 191.538 77.9L190.038 76.04C190.958 75.4933 191.751 74.92 192.418 74.32C193.098 73.7067 193.658 73.0533 194.098 72.36C194.551 71.6533 194.905 70.9067 195.158 70.12C195.411 69.3333 195.578 68.4867 195.658 67.58H191.058V65.48H198.278C198.278 66.36 198.231 67.2 198.138 68C198.058 68.8 197.905 69.58 197.678 70.34H199.738V63.7H202.198ZM229.008 81.7H226.508V72.92H225.108V80.94H222.648V63.64H225.108V70.8H226.508V63.28H229.008V81.7ZM221.988 66.08V68.18H213.188V66.08H216.328V63.8H218.928V66.08H221.988ZM217.628 68.98C218.214 68.98 218.754 69.0867 219.248 69.3C219.741 69.5133 220.168 69.82 220.528 70.22C220.888 70.6067 221.168 71.0733 221.368 71.62C221.568 72.1533 221.668 72.74 221.668 73.38C221.668 74.02 221.568 74.6067 221.368 75.14C221.168 75.6733 220.888 76.14 220.528 76.54C220.168 76.9267 219.741 77.2267 219.248 77.44C218.754 77.6533 218.214 77.76 217.628 77.76C217.041 77.76 216.501 77.6533 216.008 77.44C215.514 77.2267 215.088 76.9267 214.728 76.54C214.368 76.14 214.088 75.6733 213.888 75.14C213.688 74.6067 213.588 74.02 213.588 73.38C213.588 72.74 213.688 72.1533 213.888 71.62C214.088 71.0733 214.368 70.6067 214.728 70.22C215.088 69.82 215.514 69.5133 216.008 69.3C216.501 69.0867 217.041 68.98 217.628 68.98ZM217.628 75.56C218.134 75.56 218.548 75.3733 218.868 75C219.188 74.6133 219.348 74.0733 219.348 73.38C219.348 72.6867 219.188 72.1467 218.868 71.76C218.548 71.3733 218.134 71.18 217.628 71.18C217.121 71.18 216.708 71.3733 216.388 71.76C216.068 72.1467 215.908 72.6867 215.908 73.38C215.908 74.0733 216.068 74.6133 216.388 75C216.708 75.3733 217.121 75.56 217.628 75.56ZM232.346 69.54C233.239 69.4467 234.019 69.2867 234.686 69.06C235.366 68.8333 235.939 68.5667 236.406 68.26C236.886 67.9533 237.259 67.62 237.526 67.26C237.806 66.9 237.986 66.54 238.066 66.18H233.126V64.08H246.766V66.18H241.806C241.886 66.5533 242.059 66.92 242.326 67.28C242.593 67.64 242.959 67.9733 243.426 68.28C243.893 68.5733 244.466 68.8333 245.146 69.06C245.826 69.2867 246.619 69.4467 247.526 69.54L246.566 71.6C244.793 71.4133 243.366 70.9933 242.286 70.34C241.206 69.6867 240.419 68.88 239.926 67.92C239.459 68.8667 238.666 69.6733 237.546 70.34C236.439 70.9933 235.019 71.4133 233.286 71.6L232.346 69.54ZM248.286 74.56H241.486V77.68H238.846V74.56H231.586V72.48H248.286V74.56ZM246.426 79.3V81.4H233.526V76.1H236.166V79.3H246.426ZM67.2059 105.28C66.2325 105.28 65.3392 105.107 64.5259 104.76C63.7125 104.4 63.0125 103.887 62.4259 103.22C61.8392 102.54 61.3859 101.727 61.0659 100.78C60.7459 99.82 60.5859 98.74 60.5859 97.54C60.5859 96.34 60.7459 95.2667 61.0659 94.32C61.3859 93.3733 61.8392 92.5733 62.4259 91.92C63.0125 91.2667 63.7125 90.7733 64.5259 90.44C65.3392 90.0933 66.2325 89.92 67.2059 89.92C68.1925 89.92 69.0859 90.0933 69.8859 90.44C70.6992 90.7867 71.3992 91.2867 71.9859 91.94C72.5725 92.58 73.0259 93.3733 73.3459 94.32C73.6659 95.2667 73.8259 96.34 73.8259 97.54C73.8259 98.74 73.6659 99.82 73.3459 100.78C73.0259 101.727 72.5725 102.54 71.9859 103.22C71.3992 103.887 70.6992 104.4 69.8859 104.76C69.0859 105.107 68.1925 105.28 67.2059 105.28ZM67.2059 102.72C67.7525 102.72 68.2459 102.6 68.6859 102.36C69.1392 102.107 69.5192 101.76 69.8259 101.32C70.1459 100.867 70.3859 100.32 70.5459 99.68C70.7192 99.04 70.8059 98.3267 70.8059 97.54C70.8059 95.9267 70.4859 94.68 69.8459 93.8C69.2192 92.9067 68.3392 92.46 67.2059 92.46C66.0725 92.46 65.1859 92.9067 64.5459 93.8C63.9192 94.68 63.6059 95.9267 63.6059 97.54C63.6059 98.3267 63.6859 99.04 63.8459 99.68C64.0192 100.32 64.2592 100.867 64.5659 101.32C64.8859 101.76 65.2659 102.107 65.7059 102.36C66.1592 102.6 66.6592 102.72 67.2059 102.72ZM81.6165 90.2C82.3765 90.2 83.0832 90.26 83.7365 90.38C84.3898 90.5 84.9565 90.7 85.4365 90.98C85.9165 91.26 86.2898 91.6333 86.5565 92.1C86.8365 92.5667 86.9765 93.1467 86.9765 93.84C86.9765 94.1733 86.9298 94.5067 86.8365 94.84C86.7432 95.1733 86.6098 95.4867 86.4365 95.78C86.2632 96.0733 86.0498 96.3333 85.7965 96.56C85.5565 96.7733 85.2765 96.9333 84.9565 97.04V97.14C85.7565 97.3267 86.4165 97.7067 86.9365 98.28C87.4698 98.8533 87.7365 99.64 87.7365 100.64C87.7365 101.387 87.5898 102.033 87.2965 102.58C87.0032 103.127 86.5965 103.58 86.0765 103.94C85.5698 104.3 84.9632 104.567 84.2565 104.74C83.5632 104.913 82.8098 105 81.9965 105H76.7165V90.2H81.6165ZM81.3965 96.22C82.3565 96.22 83.0432 96.0467 83.4565 95.7C83.8832 95.3533 84.0965 94.88 84.0965 94.28C84.0965 93.6267 83.8765 93.16 83.4365 92.88C82.9965 92.6 82.3298 92.46 81.4365 92.46H79.6765V96.22H81.3965ZM81.7365 102.72C82.7498 102.72 83.5232 102.54 84.0565 102.18C84.5898 101.807 84.8565 101.233 84.8565 100.46C84.8565 99.74 84.5965 99.22 84.0765 98.9C83.5565 98.58 82.7765 98.42 81.7365 98.42H79.6765V102.72H81.7365ZM104.65 98.6H102.01V88.28H104.65V98.6ZM100.83 96.94C100.123 97.0867 99.4164 97.2133 98.7098 97.32C98.0164 97.4267 97.3098 97.5133 96.5898 97.58C95.8698 97.6333 95.1298 97.6733 94.3698 97.7C93.6231 97.7267 92.8364 97.74 92.0098 97.74H90.4098V89.36H93.0298V95.56C94.4031 95.5333 95.6898 95.4667 96.8898 95.36C98.0898 95.2533 99.2964 95.0667 100.51 94.8L100.83 96.94ZM104.65 99.4V106.5H92.4098V99.4H104.65ZM102.07 104.44V101.46H95.0098V104.44H102.07ZM109.848 94.46V88.66H122.328V90.76H112.468V92.38H122.468V94.46H109.848ZM124.448 97.52H107.788V95.44H124.448V97.52ZM122.868 104.54V106.56H109.688V101.58H119.788V100.54H109.668V98.56H122.388V103.44H112.308V104.54H122.868ZM134.487 94.84C132.3 94.84 130.64 94.58 129.507 94.06C128.387 93.5267 127.827 92.74 127.827 91.7C127.827 90.6867 128.387 89.9133 129.507 89.38C130.64 88.8333 132.3 88.56 134.487 88.56C136.687 88.56 138.347 88.8333 139.467 89.38C140.6 89.9133 141.167 90.6867 141.167 91.7C141.167 92.74 140.6 93.5267 139.467 94.06C138.347 94.58 136.687 94.84 134.487 94.84ZM134.487 90.5C133.153 90.5 132.167 90.6 131.527 90.8C130.887 90.9867 130.567 91.2867 130.567 91.7C130.567 92.1267 130.887 92.44 131.527 92.64C132.167 92.8267 133.153 92.92 134.487 92.92C135.86 92.92 136.86 92.8267 137.487 92.64C138.113 92.44 138.427 92.1267 138.427 91.7C138.427 91.2867 138.113 90.9867 137.487 90.8C136.86 90.6 135.86 90.5 134.487 90.5ZM142.807 97.78H126.167V95.72H142.807V97.78ZM141.267 104.6V106.58H128.087V101.74H138.187V100.76H128.067V98.82H140.787V103.56H130.707V104.6H141.267ZM164.136 98.88C162.43 98.5867 161.016 98.0467 159.896 97.26C158.79 96.46 157.936 95.4733 157.336 94.3C156.736 95.4333 155.863 96.4067 154.716 97.22C153.57 98.0333 152.19 98.5867 150.576 98.88L149.496 96.7C150.536 96.5267 151.456 96.2333 152.256 95.82C153.056 95.4067 153.73 94.9267 154.276 94.38C154.823 93.82 155.236 93.22 155.516 92.58C155.796 91.9267 155.936 91.28 155.936 90.64V89.32H158.756V90.64C158.756 91.2933 158.896 91.9467 159.176 92.6C159.456 93.2533 159.87 93.8533 160.416 94.4C160.963 94.9467 161.636 95.4267 162.436 95.84C163.236 96.24 164.163 96.5267 165.216 96.7L164.136 98.88ZM165.776 104.54H149.096V102.42H156.036V98.3H158.676V102.42H165.776V104.54ZM183.275 106.72H180.755V97.36H179.115V105.94H176.655V88.78H179.115V95.24H180.755V88.3H183.275V106.72ZM175.455 90.58C175.455 91.8733 175.348 93.1067 175.135 94.28C174.921 95.44 174.561 96.54 174.055 97.58C173.548 98.62 172.861 99.5933 171.995 100.5C171.141 101.393 170.075 102.213 168.795 102.96L167.255 101.12C169.095 100.053 170.448 98.8267 171.315 97.44C172.181 96.0533 172.695 94.4667 172.855 92.68H168.195V90.58H175.455ZM185.873 91.98V89.92H189.973V88.16H192.633V89.92H196.753L196.733 91.98H185.873ZM200.393 94.88V99.08H197.753V88.3H200.393V92.72H202.833V94.88H200.393ZM195.833 95.74C195.833 96.22 195.72 96.66 195.493 97.06C195.28 97.46 194.973 97.8067 194.573 98.1C194.173 98.38 193.693 98.6 193.133 98.76C192.587 98.92 191.98 99 191.313 99C190.647 99 190.033 98.92 189.473 98.76C188.927 98.6 188.453 98.38 188.053 98.1C187.653 97.8067 187.34 97.46 187.113 97.06C186.9 96.66 186.793 96.22 186.793 95.74C186.793 95.2467 186.9 94.8 187.113 94.4C187.34 94 187.653 93.66 188.053 93.38C188.453 93.0867 188.927 92.8667 189.473 92.72C190.033 92.56 190.647 92.48 191.313 92.48C191.98 92.48 192.587 92.56 193.133 92.72C193.693 92.8667 194.173 93.0867 194.573 93.38C194.973 93.66 195.28 94 195.493 94.4C195.72 94.8 195.833 95.2467 195.833 95.74ZM189.313 95.74C189.313 96.18 189.493 96.5133 189.853 96.74C190.227 96.9667 190.713 97.08 191.313 97.08C191.913 97.08 192.393 96.9667 192.753 96.74C193.127 96.5133 193.313 96.18 193.313 95.74C193.313 95.3 193.127 94.9667 192.753 94.74C192.393 94.5133 191.913 94.4 191.313 94.4C190.713 94.4 190.227 94.5133 189.853 94.74C189.493 94.9667 189.313 95.3 189.313 95.74ZM200.393 99.78V106.52H188.413V99.78H191.033V101.18H197.773V99.78H200.393ZM191.033 103.18V104.46H197.773V103.18H191.033ZM219.672 106.7H217.032V88.28H219.672V106.7ZM207.872 99.92C209.085 99.8933 210.332 99.82 211.612 99.7C212.905 99.58 214.238 99.3867 215.612 99.12L215.892 101.32C214.318 101.653 212.778 101.88 211.272 102C209.765 102.12 208.305 102.18 206.892 102.18H205.252V90.04H207.872V99.92ZM237.11 97.28V106.76H234.47V88.3H237.11V95.1H239.79V97.28H237.11ZM226.03 100.14C227.337 100.127 228.563 100.08 229.71 100C230.857 99.9067 232.023 99.76 233.21 99.56L233.47 101.74C232.777 101.86 232.09 101.96 231.41 102.04C230.743 102.12 230.063 102.18 229.37 102.22C228.69 102.26 227.983 102.293 227.25 102.32C226.53 102.333 225.77 102.34 224.97 102.34H223.39V90H231.99V92.14H226.03V100.14ZM241.529 105.28V102.44H244.449V105.28H241.529Z" fill="black"/>
</svg>
