<svg width="301" viewBox="0 0 301 159" fill="none" xmlns="http://www.w3.org/2000/svg">
<path d="M47.1041 39.3V37.24H51.1841V35.28H53.8441V37.24H57.9641L57.9441 39.3H47.1041ZM64.0441 43.1H61.6041V49.08H58.9641V35.3H61.6041V40.92H64.0441V43.1ZM57.0441 43.5C57.0441 44.0333 56.9308 44.52 56.7041 44.96C56.4775 45.3867 56.1641 45.76 55.7641 46.08C55.3641 46.3867 54.8841 46.6267 54.3241 46.8C53.7775 46.9733 53.1775 47.06 52.5241 47.06C51.8575 47.06 51.2441 46.9733 50.6841 46.8C50.1375 46.6267 49.6641 46.3867 49.2641 46.08C48.8641 45.76 48.5508 45.3867 48.3241 44.96C48.1108 44.52 48.0041 44.0333 48.0041 43.5C48.0041 42.98 48.1108 42.5067 48.3241 42.08C48.5508 41.64 48.8641 41.2667 49.2641 40.96C49.6641 40.64 50.1375 40.3933 50.6841 40.22C51.2441 40.0467 51.8575 39.96 52.5241 39.96C53.1775 39.96 53.7775 40.0467 54.3241 40.22C54.8841 40.3933 55.3641 40.64 55.7641 40.96C56.1641 41.2667 56.4775 41.64 56.7041 42.08C56.9308 42.5067 57.0441 42.98 57.0441 43.5ZM50.5241 43.5C50.5241 44.0067 50.7041 44.3933 51.0641 44.66C51.4375 44.9267 51.9241 45.06 52.5241 45.06C53.1241 45.06 53.6041 44.9267 53.9641 44.66C54.3375 44.3933 54.5241 44.0067 54.5241 43.5C54.5241 42.9933 54.3375 42.6133 53.9641 42.36C53.6041 42.0933 53.1241 41.96 52.5241 41.96C51.9241 41.96 51.4375 42.0933 51.0641 42.36C50.7041 42.6133 50.5241 42.9933 50.5241 43.5ZM62.2641 51.3V53.4H49.7241V48.06H52.3641V51.3H62.2641ZM70.8138 46.04V36.52H73.4338V39.32H76.9338V36.54H79.5138V40.2H82.7938V35.32H85.4338V48.9H82.7938V42.32H79.5138V46.04H70.8138ZM73.4338 41.34V43.94H76.9338V41.34H73.4338ZM85.8338 53.4H73.2738V47.58H75.9138V51.3H85.8338V53.4ZM107.464 41.54V45.82H104.824V35.3H107.464V39.38H109.904V41.54H107.464ZM93.5035 44.96V36.28H96.1035V38.56H99.7235V36.28H102.324V44.96H93.5035ZM96.1035 40.58V42.88H99.7235V40.58H96.1035ZM107.464 46.68V53.5H95.4835V46.68H107.464ZM104.884 51.44V48.76H98.0835V51.44H104.884ZM112.662 39V36.9H126.662V39H124.162V44.52H126.602V46.62H112.762V44.52H115.162V39H112.662ZM117.782 39V44.52H121.542V39H117.782ZM128.042 51.58H111.362V49.44H128.042V51.58ZM131.82 42.38V35.96H134.46V40.28H144.6V42.38H131.82ZM146.44 46.38H129.76V44.26H146.44V46.38ZM144.7 51.22V53.34H131.64V47.84H134.3V51.22H144.7ZM162.51 42.26C162.39 42.7933 162.183 43.28 161.89 43.72C161.61 44.16 161.263 44.54 160.85 44.86C160.437 45.1667 159.963 45.4067 159.43 45.58C158.91 45.7533 158.357 45.84 157.77 45.84C157.09 45.84 156.457 45.7267 155.87 45.5C155.283 45.26 154.77 44.9333 154.33 44.52C153.89 44.0933 153.543 43.5933 153.29 43.02C153.05 42.4467 152.93 41.82 152.93 41.14C152.93 40.46 153.05 39.8333 153.29 39.26C153.543 38.6733 153.89 38.1733 154.33 37.76C154.77 37.3333 155.283 37.0067 155.87 36.78C156.457 36.54 157.09 36.42 157.77 36.42C158.37 36.42 158.93 36.5133 159.45 36.7C159.983 36.8733 160.457 37.1267 160.87 37.46C161.297 37.78 161.65 38.1667 161.93 38.62C162.223 39.0733 162.43 39.58 162.55 40.14H165.45V35.32H168.09V48.76H165.45V42.26H162.51ZM155.45 41.14C155.45 41.9 155.663 42.4933 156.09 42.92C156.53 43.3333 157.09 43.54 157.77 43.54C158.45 43.54 159.01 43.3333 159.45 42.92C159.903 42.4933 160.13 41.9 160.13 41.14C160.13 40.38 159.903 39.7867 159.45 39.36C159.01 38.92 158.45 38.7 157.77 38.7C157.09 38.7 156.53 38.92 156.09 39.36C155.663 39.7867 155.45 40.38 155.45 41.14ZM168.51 53.4H155.95V47.46H158.59V51.3H168.51V53.4ZM186.889 53.7H184.389V35.28H186.889V53.7ZM183.129 35.6V52.88H180.669V43.72H178.329V41.58H180.669V35.6H183.129ZM176.929 40.18C176.929 40.9533 176.989 41.72 177.109 42.48C177.229 43.2267 177.429 43.94 177.709 44.62C177.989 45.3 178.355 45.9267 178.809 46.5C179.262 47.06 179.822 47.5333 180.489 47.92L178.949 49.84C178.109 49.36 177.429 48.7333 176.909 47.96C176.389 47.1867 175.975 46.3133 175.669 45.34C175.349 46.3933 174.915 47.3533 174.369 48.22C173.822 49.0733 173.129 49.76 172.289 50.28L170.729 48.34C171.395 47.9133 171.962 47.4 172.429 46.8C172.895 46.1867 173.269 45.5267 173.549 44.82C173.842 44.1 174.049 43.3467 174.169 42.56C174.302 41.7733 174.369 40.98 174.369 40.18V39.28H171.409V37.14H179.609V39.28H176.929V40.18ZM203.907 44.42V53.68H201.267V35.28H203.907V42.24H206.487V44.42H203.907ZM192.687 47C193.86 46.9733 195.06 46.9067 196.287 46.8C197.527 46.68 198.794 46.4933 200.087 46.24L200.347 48.4C198.814 48.72 197.32 48.9333 195.867 49.04C194.427 49.1467 193.02 49.2 191.647 49.2H190.047V37.04H192.687V47ZM226.917 41.54V45.82H224.277V35.3H226.917V39.38H229.357V41.54H226.917ZM212.957 44.96V36.28H215.557V38.56H219.177V36.28H221.777V44.96H212.957ZM215.557 40.58V42.88H219.177V40.58H215.557ZM226.917 46.68V53.5H214.937V46.68H226.917ZM224.337 51.44V48.76H217.537V51.44H224.337ZM232.115 39V36.9H246.115V39H243.615V44.52H246.055V46.62H232.215V44.52H234.615V39H232.115ZM237.235 39V44.52H240.995V39H237.235ZM247.495 51.58H230.815V49.44H247.495V51.58ZM251.094 47.76L250.674 39.58L250.574 36.8H253.534L253.434 39.58L253.014 47.76H251.094ZM250.614 52.28V49.44H253.534V52.28H250.614ZM68.3309 78.72H65.6909V60.3H68.3309V78.72ZM60.1909 65.26C60.1909 66.0067 60.2843 66.76 60.4709 67.52C60.6576 68.2667 60.9376 68.9733 61.3109 69.64C61.6976 70.3067 62.1709 70.9067 62.7309 71.44C63.3043 71.9733 63.9776 72.4 64.7509 72.72L63.3109 74.8C62.2309 74.3333 61.3243 73.68 60.5909 72.84C59.8709 71.9867 59.3043 70.9933 58.8909 69.86C58.4776 71.0733 57.8976 72.1533 57.1509 73.1C56.4176 74.0467 55.5109 74.7667 54.4309 75.26L52.9309 73.16C53.7043 72.8133 54.3776 72.3533 54.9509 71.78C55.5243 71.2067 55.9976 70.5733 56.3709 69.88C56.7576 69.1733 57.0443 68.4267 57.2309 67.64C57.4176 66.84 57.5109 66.0467 57.5109 65.26V64.24H53.6709V62.06H63.9909V64.24H60.1909V65.26ZM88.1494 69.86H71.4694V67.76H83.1494C83.336 66.84 83.456 66.0133 83.5094 65.28C83.5627 64.5467 83.5894 63.86 83.5894 63.22H73.5294V61.12H86.1894V62.6C86.1894 63.3467 86.1694 64.1267 86.1294 64.94C86.1027 65.7533 85.9827 66.6933 85.7694 67.76H88.1494V69.86ZM86.1094 71.78V78.5H73.4294V71.78H86.1094ZM83.5294 76.44V73.84H76.0294V76.44H83.5294ZM105.228 78.76H102.588V60.28H105.228V78.76ZM95.7878 61.52C96.5078 61.52 97.1745 61.6333 97.7878 61.86C98.4145 62.0867 98.9545 62.4 99.4078 62.8C99.8611 63.2 100.214 63.68 100.468 64.24C100.734 64.7867 100.868 65.3933 100.868 66.06C100.868 66.7133 100.734 67.32 100.468 67.88C100.214 68.44 99.8611 68.92 99.4078 69.32C98.9545 69.72 98.4145 70.0333 97.7878 70.26C97.1745 70.4867 96.5078 70.6 95.7878 70.6C95.0678 70.6 94.3945 70.4867 93.7678 70.26C93.1545 70.0333 92.6211 69.72 92.1678 69.32C91.7278 68.92 91.3745 68.44 91.1078 67.88C90.8545 67.32 90.7278 66.7133 90.7278 66.06C90.7278 65.3933 90.8545 64.7867 91.1078 64.24C91.3745 63.68 91.7278 63.2 92.1678 62.8C92.6211 62.4 93.1545 62.0867 93.7678 61.86C94.3945 61.6333 95.0678 61.52 95.7878 61.52ZM95.7878 63.78C95.0678 63.78 94.4678 63.98 93.9878 64.38C93.5211 64.78 93.2878 65.34 93.2878 66.06C93.2878 66.78 93.5211 67.34 93.9878 67.74C94.4678 68.14 95.0678 68.34 95.7878 68.34C96.5078 68.34 97.1011 68.14 97.5678 67.74C98.0478 67.34 98.2878 66.78 98.2878 66.06C98.2878 65.34 98.0478 64.78 97.5678 64.38C97.1011 63.98 96.5078 63.78 95.7878 63.78ZM89.9478 72.88C90.7611 72.88 91.6411 72.88 92.5878 72.88C93.5345 72.8667 94.5145 72.84 95.5278 72.8C96.5411 72.76 97.5611 72.7 98.5878 72.62C99.6145 72.54 100.614 72.4267 101.588 72.28L101.748 74.18C100.761 74.38 99.7545 74.54 98.7278 74.66C97.7145 74.7667 96.7145 74.8467 95.7278 74.9C94.7411 74.9533 93.7878 74.9867 92.8678 75C91.9478 75.0133 91.0878 75.02 90.2878 75.02L89.9478 72.88ZM127.298 66.54V70.82H124.658V60.3H127.298V64.38H129.738V66.54H127.298ZM113.338 69.96V61.28H115.938V63.56H119.558V61.28H122.158V69.96H113.338ZM115.938 65.58V67.88H119.558V65.58H115.938ZM127.298 71.68V78.5H115.318V71.68H127.298ZM124.718 76.44V73.76H117.918V76.44H124.718ZM132.496 64V61.9H146.496V64H143.996V69.52H146.436V71.62H132.596V69.52H134.996V64H132.496ZM137.616 64V69.52H141.376V64H137.616ZM147.876 76.58H131.196V74.44H147.876V76.58ZM151.634 62.4V60.62H164.234V64.96H154.274V65.92H164.554V67.7H151.674V63.3H161.634V62.4H151.634ZM166.274 70.48H149.594V68.58H166.274V70.48ZM164.794 76.78V78.56H151.494V74.12H161.674V73.18H151.474V71.4H164.294V75.78H154.114V76.78H164.794ZM185.164 70.72V60.3H187.824V70.72H185.164ZM177.784 70.08C177.077 70.08 176.417 69.9733 175.804 69.76C175.191 69.5333 174.657 69.2267 174.204 68.84C173.764 68.4533 173.417 67.9867 173.164 67.44C172.911 66.8933 172.784 66.3 172.784 65.66C172.784 65.02 172.911 64.4267 173.164 63.88C173.417 63.3333 173.764 62.8667 174.204 62.48C174.657 62.0933 175.191 61.7933 175.804 61.58C176.417 61.3533 177.077 61.24 177.784 61.24C178.504 61.24 179.171 61.3533 179.784 61.58C180.397 61.7933 180.924 62.0933 181.364 62.48C181.817 62.8667 182.171 63.3333 182.424 63.88C182.677 64.4267 182.804 65.02 182.804 65.66C182.804 66.3 182.677 66.8933 182.424 67.44C182.171 67.9867 181.817 68.4533 181.364 68.84C180.924 69.2267 180.397 69.5333 179.784 69.76C179.171 69.9733 178.504 70.08 177.784 70.08ZM177.784 63.44C177.064 63.44 176.477 63.64 176.024 64.04C175.584 64.4267 175.364 64.9667 175.364 65.66C175.364 66.3533 175.584 66.9 176.024 67.3C176.477 67.6867 177.064 67.88 177.784 67.88C178.504 67.88 179.091 67.6867 179.544 67.3C179.997 66.9 180.224 66.3533 180.224 65.66C180.224 64.9667 179.997 64.4267 179.544 64.04C179.091 63.64 178.504 63.44 177.784 63.44ZM185.964 72.1C185.964 72.58 186.024 73.0467 186.144 73.5C186.277 73.94 186.484 74.3533 186.764 74.74C187.044 75.1267 187.397 75.4733 187.824 75.78C188.264 76.0867 188.791 76.3333 189.404 76.52L188.104 78.44C187.224 78.1467 186.497 77.74 185.924 77.22C185.364 76.7 184.931 76.08 184.624 75.36C184.317 76.08 183.891 76.72 183.344 77.28C182.811 77.8533 182.124 78.3067 181.284 78.64C180.444 78.3333 179.751 77.9 179.204 77.34C178.671 76.78 178.251 76.14 177.944 75.42C177.624 76.1 177.184 76.6933 176.624 77.2C176.064 77.72 175.364 78.1333 174.524 78.44L173.224 76.52C173.837 76.32 174.357 76.06 174.784 75.74C175.224 75.42 175.584 75.0667 175.864 74.68C176.144 74.28 176.344 73.86 176.464 73.42C176.597 72.98 176.664 72.54 176.664 72.1V71.48H179.224V72.1C179.224 72.8333 179.377 73.56 179.684 74.28C180.004 74.9867 180.531 75.5933 181.264 76.1C182.024 75.54 182.564 74.9067 182.884 74.2C183.204 73.48 183.364 72.78 183.364 72.1V71.48H185.964V72.1ZM206.763 78.7H204.263V60.28H206.763V78.7ZM202.843 60.7V77.9H200.383V69.46H197.503C196.983 70.5133 196.296 71.4933 195.443 72.4C194.603 73.3067 193.516 74.14 192.183 74.9L190.683 73.04C191.603 72.4933 192.396 71.92 193.063 71.32C193.743 70.7067 194.303 70.0533 194.743 69.36C195.196 68.6533 195.549 67.9067 195.803 67.12C196.056 66.3333 196.223 65.4867 196.303 64.58H191.703V62.48H198.923C198.923 63.36 198.876 64.2 198.783 65C198.703 65.8 198.549 66.58 198.323 67.34H200.383V60.7H202.843ZM229.652 78.7H227.152V69.92H225.752V77.94H223.292V60.64H225.752V67.8H227.152V60.28H229.652V78.7ZM222.632 63.08V65.18H213.832V63.08H216.972V60.8H219.572V63.08H222.632ZM218.272 65.98C218.859 65.98 219.399 66.0867 219.892 66.3C220.386 66.5133 220.812 66.82 221.172 67.22C221.532 67.6067 221.812 68.0733 222.012 68.62C222.212 69.1533 222.312 69.74 222.312 70.38C222.312 71.02 222.212 71.6067 222.012 72.14C221.812 72.6733 221.532 73.14 221.172 73.54C220.812 73.9267 220.386 74.2267 219.892 74.44C219.399 74.6533 218.859 74.76 218.272 74.76C217.686 74.76 217.146 74.6533 216.652 74.44C216.159 74.2267 215.732 73.9267 215.372 73.54C215.012 73.14 214.732 72.6733 214.532 72.14C214.332 71.6067 214.232 71.02 214.232 70.38C214.232 69.74 214.332 69.1533 214.532 68.62C214.732 68.0733 215.012 67.6067 215.372 67.22C215.732 66.82 216.159 66.5133 216.652 66.3C217.146 66.0867 217.686 65.98 218.272 65.98ZM218.272 72.56C218.779 72.56 219.192 72.3733 219.512 72C219.832 71.6133 219.992 71.0733 219.992 70.38C219.992 69.6867 219.832 69.1467 219.512 68.76C219.192 68.3733 218.779 68.18 218.272 68.18C217.766 68.18 217.352 68.3733 217.032 68.76C216.712 69.1467 216.552 69.6867 216.552 70.38C216.552 71.0733 216.712 71.6133 217.032 72C217.352 72.3733 217.766 72.56 218.272 72.56ZM232.991 66.54C233.884 66.4467 234.664 66.2867 235.331 66.06C236.011 65.8333 236.584 65.5667 237.051 65.26C237.531 64.9533 237.904 64.62 238.171 64.26C238.451 63.9 238.631 63.54 238.711 63.18H233.771V61.08H247.411V63.18H242.451C242.531 63.5533 242.704 63.92 242.971 64.28C243.237 64.64 243.604 64.9733 244.071 65.28C244.537 65.5733 245.111 65.8333 245.791 66.06C246.471 66.2867 247.264 66.4467 248.171 66.54L247.211 68.6C245.437 68.4133 244.011 67.9933 242.931 67.34C241.851 66.6867 241.064 65.88 240.571 64.92C240.104 65.8667 239.311 66.6733 238.191 67.34C237.084 67.9933 235.664 68.4133 233.931 68.6L232.991 66.54ZM248.931 71.56H242.131V74.68H239.491V71.56H232.231V69.48H248.931V71.56ZM247.071 76.3V78.4H234.171V73.1H236.811V76.3H247.071ZM65.5848 102.28C64.6114 102.28 63.7181 102.107 62.9048 101.76C62.0914 101.4 61.3914 100.887 60.8048 100.22C60.2181 99.54 59.7648 98.7267 59.4448 97.78C59.1248 96.82 58.9648 95.74 58.9648 94.54C58.9648 93.34 59.1248 92.2667 59.4448 91.32C59.7648 90.3733 60.2181 89.5733 60.8048 88.92C61.3914 88.2667 62.0914 87.7733 62.9048 87.44C63.7181 87.0933 64.6114 86.92 65.5848 86.92C66.5714 86.92 67.4648 87.0933 68.2648 87.44C69.0781 87.7867 69.7781 88.2867 70.3648 88.94C70.9514 89.58 71.4048 90.3733 71.7248 91.32C72.0448 92.2667 72.2048 93.34 72.2048 94.54C72.2048 95.74 72.0448 96.82 71.7248 97.78C71.4048 98.7267 70.9514 99.54 70.3648 100.22C69.7781 100.887 69.0781 101.4 68.2648 101.76C67.4648 102.107 66.5714 102.28 65.5848 102.28ZM65.5848 99.72C66.1314 99.72 66.6248 99.6 67.0648 99.36C67.5181 99.1067 67.8981 98.76 68.2048 98.32C68.5248 97.8667 68.7648 97.32 68.9248 96.68C69.0981 96.04 69.1848 95.3267 69.1848 94.54C69.1848 92.9267 68.8648 91.68 68.2248 90.8C67.5981 89.9067 66.7181 89.46 65.5848 89.46C64.4514 89.46 63.5648 89.9067 62.9248 90.8C62.2981 91.68 61.9848 92.9267 61.9848 94.54C61.9848 95.3267 62.0648 96.04 62.2248 96.68C62.3981 97.32 62.6381 97.8667 62.9448 98.32C63.2648 98.76 63.6448 99.1067 64.0848 99.36C64.5381 99.6 65.0381 99.72 65.5848 99.72ZM79.9954 87.2C80.7554 87.2 81.4621 87.26 82.1154 87.38C82.7687 87.5 83.3354 87.7 83.8154 87.98C84.2954 88.26 84.6687 88.6333 84.9354 89.1C85.2154 89.5667 85.3554 90.1467 85.3554 90.84C85.3554 91.1733 85.3087 91.5067 85.2154 91.84C85.1221 92.1733 84.9887 92.4867 84.8154 92.78C84.6421 93.0733 84.4287 93.3333 84.1754 93.56C83.9354 93.7733 83.6554 93.9333 83.3354 94.04V94.14C84.1354 94.3267 84.7954 94.7067 85.3154 95.28C85.8487 95.8533 86.1154 96.64 86.1154 97.64C86.1154 98.3867 85.9687 99.0333 85.6754 99.58C85.3821 100.127 84.9754 100.58 84.4554 100.94C83.9487 101.3 83.3421 101.567 82.6354 101.74C81.9421 101.913 81.1887 102 80.3754 102H75.0954V87.2H79.9954ZM79.7754 93.22C80.7354 93.22 81.4221 93.0467 81.8354 92.7C82.2621 92.3533 82.4754 91.88 82.4754 91.28C82.4754 90.6267 82.2554 90.16 81.8154 89.88C81.3754 89.6 80.7087 89.46 79.8154 89.46H78.0554V93.22H79.7754ZM80.1154 99.72C81.1287 99.72 81.9021 99.54 82.4354 99.18C82.9687 98.8067 83.2354 98.2333 83.2354 97.46C83.2354 96.74 82.9754 96.22 82.4554 95.9C81.9354 95.58 81.1554 95.42 80.1154 95.42H78.0554V99.72H80.1154ZM103.029 95.6H100.389V85.28H103.029V95.6ZM99.2087 93.94C98.502 94.0867 97.7953 94.2133 97.0887 94.32C96.3953 94.4267 95.6887 94.5133 94.9687 94.58C94.2487 94.6333 93.5087 94.6733 92.7487 94.7C92.002 94.7267 91.2153 94.74 90.3887 94.74H88.7887V86.36H91.4087V92.56C92.782 92.5333 94.0687 92.4667 95.2687 92.36C96.4687 92.2533 97.6753 92.0667 98.8887 91.8L99.2087 93.94ZM103.029 96.4V103.5H90.7887V96.4H103.029ZM100.449 101.44V98.46H93.3887V101.44H100.449ZM108.227 91.46V85.66H120.707V87.76H110.847V89.38H120.847V91.46H108.227ZM122.827 94.52H106.167V92.44H122.827V94.52ZM121.247 101.54V103.56H108.067V98.58H118.167V97.54H108.047V95.56H120.767V100.44H110.687V101.54H121.247ZM132.866 91.84C130.679 91.84 129.019 91.58 127.886 91.06C126.766 90.5267 126.206 89.74 126.206 88.7C126.206 87.6867 126.766 86.9133 127.886 86.38C129.019 85.8333 130.679 85.56 132.866 85.56C135.066 85.56 136.726 85.8333 137.846 86.38C138.979 86.9133 139.546 87.6867 139.546 88.7C139.546 89.74 138.979 90.5267 137.846 91.06C136.726 91.58 135.066 91.84 132.866 91.84ZM132.866 87.5C131.532 87.5 130.546 87.6 129.906 87.8C129.266 87.9867 128.946 88.2867 128.946 88.7C128.946 89.1267 129.266 89.44 129.906 89.64C130.546 89.8267 131.532 89.92 132.866 89.92C134.239 89.92 135.239 89.8267 135.866 89.64C136.492 89.44 136.806 89.1267 136.806 88.7C136.806 88.2867 136.492 87.9867 135.866 87.8C135.239 87.6 134.239 87.5 132.866 87.5ZM141.186 94.78H124.546V92.72H141.186V94.78ZM139.646 101.6V103.58H126.466V98.74H136.566V97.76H126.446V95.82H139.166V100.56H129.086V101.6H139.646ZM162.515 95.88C160.809 95.5867 159.395 95.0467 158.275 94.26C157.169 93.46 156.315 92.4733 155.715 91.3C155.115 92.4333 154.242 93.4067 153.095 94.22C151.949 95.0333 150.569 95.5867 148.955 95.88L147.875 93.7C148.915 93.5267 149.835 93.2333 150.635 92.82C151.435 92.4067 152.109 91.9267 152.655 91.38C153.202 90.82 153.615 90.22 153.895 89.58C154.175 88.9267 154.315 88.28 154.315 87.64V86.32H157.135V87.64C157.135 88.2933 157.275 88.9467 157.555 89.6C157.835 90.2533 158.249 90.8533 158.795 91.4C159.342 91.9467 160.015 92.4267 160.815 92.84C161.615 93.24 162.542 93.5267 163.595 93.7L162.515 95.88ZM164.155 101.54H147.475V99.42H154.415V95.3H157.055V99.42H164.155V101.54ZM181.654 103.72H179.134V94.36H177.494V102.94H175.034V85.78H177.494V92.24H179.134V85.3H181.654V103.72ZM173.834 87.58C173.834 88.8733 173.727 90.1067 173.514 91.28C173.3 92.44 172.94 93.54 172.434 94.58C171.927 95.62 171.24 96.5933 170.374 97.5C169.52 98.3933 168.454 99.2133 167.174 99.96L165.634 98.12C167.474 97.0533 168.827 95.8267 169.694 94.44C170.56 93.0533 171.074 91.4667 171.234 89.68H166.574V87.58H173.834ZM184.252 88.98V86.92H188.352V85.16H191.012V86.92H195.132L195.112 88.98H184.252ZM198.772 91.88V96.08H196.132V85.3H198.772V89.72H201.212V91.88H198.772ZM194.212 92.74C194.212 93.22 194.099 93.66 193.872 94.06C193.659 94.46 193.352 94.8067 192.952 95.1C192.552 95.38 192.072 95.6 191.512 95.76C190.965 95.92 190.359 96 189.692 96C189.025 96 188.412 95.92 187.852 95.76C187.305 95.6 186.832 95.38 186.432 95.1C186.032 94.8067 185.719 94.46 185.492 94.06C185.279 93.66 185.172 93.22 185.172 92.74C185.172 92.2467 185.279 91.8 185.492 91.4C185.719 91 186.032 90.66 186.432 90.38C186.832 90.0867 187.305 89.8667 187.852 89.72C188.412 89.56 189.025 89.48 189.692 89.48C190.359 89.48 190.965 89.56 191.512 89.72C192.072 89.8667 192.552 90.0867 192.952 90.38C193.352 90.66 193.659 91 193.872 91.4C194.099 91.8 194.212 92.2467 194.212 92.74ZM187.692 92.74C187.692 93.18 187.872 93.5133 188.232 93.74C188.605 93.9667 189.092 94.08 189.692 94.08C190.292 94.08 190.772 93.9667 191.132 93.74C191.505 93.5133 191.692 93.18 191.692 92.74C191.692 92.3 191.505 91.9667 191.132 91.74C190.772 91.5133 190.292 91.4 189.692 91.4C189.092 91.4 188.605 91.5133 188.232 91.74C187.872 91.9667 187.692 92.3 187.692 92.74ZM198.772 96.78V103.52H186.792V96.78H189.412V98.18H196.152V96.78H198.772ZM189.412 100.18V101.46H196.152V100.18H189.412ZM218.051 103.7H215.411V85.28H218.051V103.7ZM206.251 96.92C207.464 96.8933 208.711 96.82 209.991 96.7C211.284 96.58 212.617 96.3867 213.991 96.12L214.271 98.32C212.697 98.6533 211.157 98.88 209.651 99C208.144 99.12 206.684 99.18 205.271 99.18H203.631V87.04H206.251V96.92ZM235.489 94.28V103.76H232.849V85.3H235.489V92.1H238.169V94.28H235.489ZM224.409 97.14C225.716 97.1267 226.942 97.08 228.089 97C229.236 96.9067 230.402 96.76 231.589 96.56L231.849 98.74C231.156 98.86 230.469 98.96 229.789 99.04C229.122 99.12 228.442 99.18 227.749 99.22C227.069 99.26 226.362 99.2933 225.629 99.32C224.909 99.3333 224.149 99.34 223.349 99.34H221.769V87H230.369V89.14H224.409V97.14ZM239.907 102.28V99.44H242.827V102.28H239.907Z" fill="black"/>
<g clip-path="url(#clip0_573_2652)">
<path d="M299.59 67.7814C299.59 31.1297 232.838 1.42383 150.506 1.42383C68.1738 1.42383 1.42188 31.1297 1.42188 67.7814C1.42188 102.068 59.8475 130.284 134.803 133.771L150.506 157.578L162.483 133.922C239.217 131.208 299.59 102.633 299.59 67.7814Z" stroke="black" stroke-width="3.01" stroke-linecap="round" stroke-linejoin="round"/>
</g>
<defs>
<clipPath id="clip0_573_2652">
<rect width="301" height="159" fill="white"/>
</clipPath>
</defs>
</svg>
