<svg width="249" height="281" viewBox="0 0 249 281" fill="none" xmlns="http://www.w3.org/2000/svg">
<g clip-path="url(#clip0_563_2247)">
<path d="M215.958 291.96C215.958 344.32 175.088 349.27 124.678 349.27C74.2684 349.27 33.3984 344.32 33.3984 291.96C33.3984 239.6 74.2684 156.65 124.678 156.65C175.088 156.65 215.958 239.61 215.958 291.96Z" fill="white" stroke="black" stroke-width="3.95" stroke-linecap="round" stroke-linejoin="round"/>
<path d="M246.201 31.8896H3.14062V201.27H246.201V31.8896Z" fill="white" stroke="black" stroke-width="4" stroke-linecap="round" stroke-linejoin="round"/>
<path d="M216.201 1.98047H33.1406L3.14062 31.8905H246.201L216.201 1.98047Z" fill="#F9D549" stroke="black" stroke-width="3.95" stroke-linecap="round" stroke-linejoin="round"/>
<path d="M143.081 127.11C139.891 129.2 132.851 130.65 124.671 130.65C116.491 130.65 109.101 129.12 106.031 126.95" stroke="black" stroke-width="4" stroke-linecap="round" stroke-linejoin="round"/>
<path d="M94.49 280.28V283.77H97.73C98.83 283.77 99.72 284.46 99.72 285.52C99.72 286.77 98.83 287.76 97.73 287.76H94.49V283.77H90V299.73H98.73C102.03 299.73 104.71 297.54 104.71 294.25C104.71 291.97 103.19 290.23 101.17 289.36C101.17 289.25 101.17 289.24 101.17 289.13C102.71 288.45 103.71 287.21 103.71 285.27C103.71 282.03 101.03 280.28 97.73 280.28H94.49ZM98.23 295.74H94.49V291.25H97.73C99.23 291.25 100.72 292.25 100.72 293.74C100.72 295.23 99.33 295.73 98.23 295.73V295.74Z" fill="#373936"/>
<path d="M116.419 280.28H112.429L105.449 299.73H110.439L111.789 295.24H118.069L119.419 299.73H124.409L117.429 280.28H116.429H116.419ZM112.979 291.25L114.919 284.77L116.859 291.25H112.969H112.979Z" fill="#373936"/>
<path d="M138.661 298.73H134.671L130.791 288.53L130.551 288.58L130.671 289.78C131.011 293.08 131.181 296.4 131.181 299.73H126.691V280.28H131.681L136.671 293.31L141.661 280.28H146.651V299.73H142.161C142.161 296.41 142.331 293.09 142.671 289.78L142.791 288.58L142.551 288.53L138.671 298.73H138.661Z" fill="#373936"/>
<path d="M157.959 280.28H150.879V299.73H155.369V293.28C155.419 293.23 155.449 293.21 155.509 293.16C159.539 293.56 165.349 294.3 165.349 286.57C165.349 281.89 161.589 280.29 157.969 280.29L157.959 280.28ZM155.369 289.82V283.87H157.159C159.009 283.87 161.349 284.37 161.349 286.62C161.349 290.74 157.549 290.15 155.369 289.82Z" fill="#373936"/>
<path d="M92.49 277.29H88V281.78H92.49V277.29Z" fill="#ECBF47"/>
<path d="M102.949 232.7V261.58L125.159 271.57L147.369 261.58V232.7L125.159 222.71L102.949 232.7Z" fill="#373936"/>
<path d="M125.16 241.92L143.8 233.53L125.16 225.14L106.52 233.53L125.16 241.92Z" fill="#ECBF47"/>
<path d="M126.27 243.85V268.64L145.15 260.14V235.36L126.27 243.85Z" fill="white"/>
<path d="M124.048 243.85L105.168 235.36V260.14L124.048 268.64V243.85Z" fill="white"/>
<path d="M178.94 105.62L158.23 118.89L184.43 122.4" fill="white"/>
<path d="M178.94 105.62L158.23 118.89L184.43 122.4" stroke="black" stroke-width="4" stroke-linecap="round" stroke-linejoin="round"/>
<path d="M68.2811 105.62L89.5711 118.89L63.3711 122.4" fill="white"/>
<path d="M68.2811 105.62L89.5711 118.89L63.3711 122.4" stroke="black" stroke-width="4" stroke-linecap="round" stroke-linejoin="round"/>
<path d="M64.0692 233.8C67.3492 231.04 70.7992 227.82 74.4192 224.1C95.3392 202.59 87.4692 190.42 76.8392 179.97C76.8392 179.97 63.1192 167.92 47.7092 179.66C41.4692 184.41 16.2892 210.94 8.05917 226.11C8.05917 226.11 -5.25083 243.96 7.46917 254.53C22.9492 267.39 55.9692 239.83 64.0592 233.8H64.0692Z" fill="#F9D549" stroke="black" stroke-width="3.95" stroke-linecap="round" stroke-linejoin="round"/>
<path d="M121.07 163.8C121.07 163.8 114.67 148.86 100.97 150.28C87.2702 151.7 81.4002 158.82 77.1302 165.76C72.8602 172.7 67.4202 178.57 67.4202 178.57C67.4202 178.57 65.2102 181.95 68.7702 189.24C72.3302 196.53 80.1602 200.09 86.3802 195.64C92.6102 191.19 106.48 187.99 114.31 190.13C122.14 192.27 123.56 184.97 119.29 181.95C115.02 178.93 103.99 177.15 103.46 177.32C102.93 177.49 97.0602 176.43 99.0102 169.85C100.96 163.27 106.66 161.67 110.57 165.94C114.48 170.21 124.09 170.57 121.07 163.81V163.8Z" fill="white" stroke="black" stroke-width="3.95" stroke-linecap="round" stroke-linejoin="round"/>
<path d="M184.11 233.8C180.83 231.04 177.38 227.82 173.76 224.1C152.84 202.59 160.71 190.42 171.34 179.97C171.34 179.97 185.06 167.92 200.47 179.66C206.71 184.41 231.89 210.94 240.12 226.11C240.12 226.11 253.43 243.96 240.71 254.53C225.23 267.39 192.21 239.83 184.12 233.8H184.11Z" fill="#F9D549" stroke="black" stroke-width="3.95" stroke-linecap="round" stroke-linejoin="round"/>
<path d="M127.11 163.8C127.11 163.8 133.51 148.86 147.21 150.28C160.91 151.7 166.78 158.82 171.05 165.76C175.32 172.7 180.76 178.57 180.76 178.57C180.76 178.57 182.97 181.95 179.41 189.24C175.85 196.53 168.02 200.09 161.8 195.64C155.57 191.19 141.7 187.99 133.87 190.13C126.04 192.27 124.62 184.97 128.89 181.95C133.16 178.93 144.19 177.15 144.72 177.32C145.25 177.49 151.12 176.43 149.17 169.85C147.22 163.27 141.52 161.67 137.61 165.94C133.7 170.21 124.09 170.57 127.11 163.81V163.8Z" fill="white" stroke="black" stroke-width="3.95" stroke-linecap="round" stroke-linejoin="round"/>
</g>
<defs>
<clipPath id="clip0_563_2247">
<rect width="248.2" height="351.25" fill="white"/>
</clipPath>
</defs>
</svg>
