<svg width="32" height="32" fill="none" xmlns="http://www.w3.org/2000/svg"><path d="M22.159 13.979a.71.71 0 0 0-.717.701c-.006.395.307.733.67.738.385 0 .733-.338.733-.717 0-.384-.312-.717-.686-.722zM10.765 14.036a.671.671 0 0 0-.671.676c0 .374.261.655.61.65.42 0 .722-.282.722-.666a.657.657 0 0 0-.661-.666v.006z" fill="#979797"/><path d="M23.94 8.272H8.055c-.979 0-1.778.794-1.778 1.778v9.092c0 .979.794 1.778 1.778 1.778h6.398L16 23.727l1.72-2.807h6.225c.978 0 1.777-.794 1.777-1.778V10.05c0-.978-.794-1.778-1.777-1.778h-.005zM12.65 15.24c-.062.41-.308.707-.636.927-.455.308-.957.415-1.495.22-.128-.046-.236-.122-.354-.194-.066-.041-.133-.062-.133.056 0 .072-.046.098-.107.103-.344.02-.687-.016-1.035-.016-.041 0-.062-.015-.062-.056v-.072c-.01-1.557-.015-3.11-.03-4.666 0-.103.02-.144.133-.144.322.01.64.01.963 0 .118 0 .138.036.133.144V13.246c.553-.47 1.142-.517 1.752-.235.456.21.722.604.84 1.09.092.375.082.759.026 1.138h.005zm2.07 1.132c-.329-.005-.651-.005-.98 0-.112 0-.138-.03-.138-.138v-3.217c0-.123-.025-.21-.123-.292-.112-.097-.21-.215-.358-.261-.056-.016-.062-.067-.067-.113-.036-.354-.01-.707-.015-1.055 0-.057.03-.057.072-.052.655.088 1.209.328 1.521.958.113.23.18.456.174.717-.015.513 0 1.02 0 1.532h.031v1.798c0 .098-.02.128-.123.128l.005-.005zm4.538-.763c-.42.614-1.025.912-1.655.891-1.04-.015-1.695-.615-1.92-1.347a1.596 1.596 0 0 1 .337-1.578c.687-.799 1.85-.891 2.71-.333.814.533 1.066 1.573.523 2.367h.005zm4.702.994c-.015.332-.056.66-.271.932-.277.353-.615.604-1.076.64-.267.02-.538.026-.81.041-.081 0-.102-.02-.102-.097V17.2c0-.092.036-.108.113-.108.112.006.22 0 .333-.02a.636.636 0 0 0 .492-.369c.081-.169.112-.353.128-.574-.359.308-.753.374-1.174.354a1.517 1.517 0 0 1-1.413-1.26c-.077-.508-.072-1.015.153-1.486.251-.533.702-.799 1.27-.88.457-.068.856.045 1.194.393.036-.087.02-.163.016-.24 0-.082.025-.103.102-.103h.979c.071 0 .097.02.097.098-.01 1.198.025 2.397-.03 3.59v.006z" fill="#979797"/><path d="M17.644 13.974c-.466 0-.788.297-.788.732 0 .369.337.712.701.712.425 0 .743-.333.748-.773 0-.328-.333-.671-.656-.671h-.005z" fill="#979797"/></svg>