<svg width="32" height="32" fill="none" xmlns="http://www.w3.org/2000/svg"><path d="M20.2 24.321h-8.406a4.122 4.122 0 0 1-4.118-4.118v-8.406a4.118 4.118 0 0 1 4.118-4.113H20.2a4.117 4.117 0 0 1 4.114 4.113v8.406A4.12 4.12 0 0 1 20.2 24.32zm-8.406-15.1a2.583 2.583 0 0 0-2.581 2.576v8.406a2.584 2.584 0 0 0 2.581 2.582H20.2a2.58 2.58 0 0 0 2.577-2.582v-8.406A2.579 2.579 0 0 0 20.2 9.22h-8.406z" fill="#979797"/><path d="M15.994 20.484a4.487 4.487 0 0 1-4.482-4.482 4.484 4.484 0 0 1 4.482-4.482 4.484 4.484 0 0 1 4.482 4.482 4.484 4.484 0 0 1-4.482 4.482zm0-7.428a2.95 2.95 0 0 0-2.945 2.946 2.95 2.95 0 0 0 2.945 2.945 2.95 2.95 0 0 0 2.945-2.945 2.95 2.95 0 0 0-2.945-2.946zM20.334 12.063a.83.83 0 1 0 0-1.66.83.83 0 0 0 0 1.66z" fill="#979797"/></svg>