<svg width="100%" viewBox="0 0 449 188" fill="none" xmlns="http://www.w3.org/2000/svg">
<g clip-path="url(#clip0_127_369)">
<path d="M22.52 18.2799V28.3199H18.46V21.4599H2.56V18.2899H10.68V14.3199H0V11.1199H17.88C18.14 9.8399 18.31 8.6699 18.38 7.6299C18.45 6.5799 18.49 5.5899 18.49 4.6599H3.14V1.3999H22.45V3.6599C22.45 4.7199 22.43 5.8399 22.39 7.0299C22.35 8.2199 22.19 9.5799 21.9 11.0999H25.44V14.2999H14.7V18.2699H22.51L22.52 18.2799Z" fill="black"/>
<path d="M35.9002 17.7899C37.1102 17.6899 38.3902 17.5199 39.7302 17.2699L40.0702 20.6599C38.2202 21.0099 36.4902 21.2299 34.8802 21.3299C33.2702 21.4299 31.7702 21.4799 30.3602 21.4799H28.4102V3.32993H32.4402V18.0099C33.5402 17.9699 34.6902 17.8999 35.9002 17.7999V17.7899ZM47.5402 28.2899V14.2899H45.0102V26.9799H41.2602V0.699932H45.0102V11.0099H47.5402V0.179932H51.3802V28.2799H47.5402V28.2899Z" fill="black"/>
<path d="M75.3889 19.3099C76.4689 19.2099 77.5589 19.0799 78.6489 18.9099L78.8889 21.8399C77.3789 22.1499 75.8489 22.3799 74.2989 22.5599C72.7389 22.7299 71.2089 22.8599 69.6889 22.9399C68.1689 23.0199 66.7189 23.0699 65.3089 23.0899C63.9089 23.1099 62.5989 23.1199 61.3989 23.1199L60.8789 19.8599C61.9189 19.8599 63.0389 19.8599 64.2389 19.8399C65.4389 19.8299 66.6789 19.7999 67.9589 19.7599V15.4899H72.0189V19.5799C73.1789 19.4999 74.2989 19.4099 75.3789 19.3099H75.3889ZM64.2189 12.1699C64.9889 11.7199 65.6489 11.2099 66.1889 10.6299C66.7289 10.0499 67.1389 9.41993 67.4289 8.74993C67.7089 8.07993 67.8889 7.39993 67.9489 6.70993H62.3389V3.50993H67.9789V0.459932H72.0389V3.50993H77.7489V6.70993H72.0689C72.1289 7.37993 72.3089 8.03993 72.5989 8.67993C72.8889 9.31993 73.3089 9.91993 73.8389 10.4599C74.3689 11.0099 75.0189 11.4999 75.7889 11.9399C76.5589 12.3799 77.4689 12.7299 78.5089 12.9899L76.7389 16.0399C75.0889 15.6299 73.7189 14.9999 72.6389 14.1299C71.5489 13.2699 70.6889 12.2499 70.0589 11.0899C69.4289 12.3099 68.5589 13.3699 67.4489 14.2799C66.3389 15.1899 64.9589 15.8599 63.3189 16.3099L61.5189 13.2299C62.5589 12.9699 63.4589 12.6099 64.2389 12.1599L64.2189 12.1699ZM80.1789 28.3699V0.179932H84.2089V28.3699H80.1789Z" fill="black"/>
<path d="M88.0898 25.1101V21.8501H98.7999V16.4201H102.83V21.8501H113.54V25.1101H88.0898ZM93.1098 13.2401C94.2998 12.7701 95.2998 12.2201 96.0998 11.5901C96.8998 10.9601 97.5198 10.2601 97.9598 9.50008C98.3998 8.74008 98.6598 7.98008 98.7398 7.23008H90.2898V4.03008H98.7999V0.580078H102.83V4.03008H111.34V7.23008H102.89C102.97 7.98008 103.23 8.74008 103.67 9.50008C104.11 10.2601 104.73 10.9601 105.53 11.5901C106.33 12.2201 107.33 12.7701 108.52 13.2401C109.71 13.7101 111.11 14.0301 112.72 14.2201L111.29 17.3901C108.65 17.0401 106.47 16.3901 104.78 15.4201C103.08 14.4501 101.76 13.2401 100.83 11.7701C99.8898 13.2301 98.5798 14.4501 96.8798 15.4201C95.1798 16.3901 93.0099 17.0401 90.3699 17.3901L88.9398 14.2201C90.5498 14.0401 91.9498 13.7101 93.1398 13.2401H93.1098Z" fill="black"/>
<path d="M130.159 18.4699C131.379 18.3799 132.659 18.2099 133.999 17.9699L134.309 21.2299C132.599 21.5599 130.949 21.7599 129.369 21.8599C127.779 21.9499 126.089 21.9999 124.309 21.9999H122.359V3.44993H132.759V6.70993H126.319V18.6699C127.659 18.6299 128.939 18.5599 130.159 18.4699ZM141.849 28.3099V14.2399H139.319V26.9899H135.569V0.729932H139.319V11.0099H141.849V0.179932H145.659V28.3099H141.849Z" fill="black"/>
<path d="M148.862 2.69006H155.082V0.0600586H159.142V2.68006H165.392V5.85006H148.852V2.68006L148.862 2.69006ZM163.522 13.9901C163.182 14.6301 162.712 15.1801 162.102 15.6401C161.492 16.1001 160.762 16.4501 159.922 16.7101C159.082 16.9601 158.152 17.0901 157.132 17.0901C156.112 17.0901 155.182 16.9601 154.342 16.7101C153.502 16.4601 152.772 16.1001 152.162 15.6401C151.552 15.1801 151.082 14.6301 150.742 13.9901C150.402 13.3501 150.242 12.6501 150.242 11.9001C150.242 11.1501 150.412 10.4301 150.742 9.79006C151.082 9.16006 151.552 8.62006 152.162 8.17006C152.772 7.72006 153.502 7.37006 154.342 7.12006C155.182 6.87006 156.112 6.74006 157.132 6.74006C158.152 6.74006 159.082 6.87006 159.922 7.12006C160.762 7.37006 161.492 7.73006 162.102 8.17006C162.712 8.62006 163.182 9.16006 163.522 9.79006C163.862 10.4201 164.022 11.1201 164.022 11.9001C164.022 12.6801 163.852 13.3501 163.522 13.9901ZM170.982 28.3501H166.952V22.2201H152.242V18.9901H170.972V28.3601L170.982 28.3501ZM154.922 13.5101C155.482 13.8701 156.222 14.0401 157.132 14.0401C158.042 14.0401 158.782 13.8601 159.342 13.5101C159.902 13.1501 160.182 12.6201 160.182 11.9101C160.182 11.2001 159.902 10.6701 159.342 10.3201C158.782 9.97006 158.042 9.80006 157.132 9.80006C156.222 9.80006 155.482 9.97006 154.922 10.3201C154.362 10.6701 154.082 11.1901 154.082 11.9101C154.082 12.6301 154.362 13.1601 154.922 13.5101ZM170.982 17.8301H166.952V0.210059H170.982V7.44006H174.702V10.7701H170.982V17.8201V17.8301Z" fill="black"/>
<path d="M185.231 13.87C184.421 13.09 183.751 12.18 183.251 11.14C182.741 12.36 182.051 13.44 181.181 14.39C180.301 15.34 179.221 16.08 177.921 16.63L175.781 13.52C176.761 13.09 177.591 12.56 178.281 11.93C178.971 11.3 179.541 10.62 179.971 9.88996C180.411 9.15996 180.731 8.38996 180.931 7.56996C181.131 6.75996 181.241 5.94996 181.241 5.15996V1.88996H185.121V5.14996C185.121 5.89996 185.221 6.64996 185.411 7.38996C185.601 8.12996 185.911 8.82996 186.341 9.49996C186.771 10.16 187.311 10.77 187.971 11.32C188.631 11.87 189.421 12.33 190.331 12.69L188.191 15.74C187.031 15.27 186.041 14.65 185.231 13.86V13.87ZM194.581 18.19C195.771 18.43 196.791 18.78 197.631 19.23C198.471 19.68 199.121 20.23 199.571 20.88C200.021 21.53 200.241 22.26 200.241 23.08C200.241 23.9 200.021 24.63 199.571 25.29C199.121 25.95 198.481 26.51 197.631 26.95C196.791 27.4 195.771 27.74 194.581 27.99C193.391 28.24 192.061 28.36 190.601 28.36C189.141 28.36 187.781 28.24 186.591 27.99C185.401 27.74 184.381 27.4 183.541 26.95C182.701 26.5 182.041 25.95 181.591 25.29C181.131 24.63 180.901 23.89 180.901 23.08C180.901 22.27 181.131 21.53 181.591 20.88C182.051 20.23 182.701 19.68 183.541 19.23C184.381 18.78 185.401 18.44 186.591 18.19C187.781 17.95 189.121 17.82 190.601 17.82C192.081 17.82 193.391 17.94 194.581 18.19ZM196.211 23.07C196.211 21.59 194.341 20.84 190.601 20.84C188.751 20.84 187.341 21.02 186.371 21.39C185.401 21.76 184.921 22.32 184.921 23.07C184.921 23.82 185.401 24.38 186.371 24.75C187.341 25.12 188.741 25.3 190.601 25.3C194.341 25.3 196.211 24.56 196.211 23.07ZM190.351 0.739961H194.101V7.05996H196.301V0.209961H200.111V17.39H196.301V10.28H194.101V16.5H190.351V0.729961V0.739961Z" fill="black"/>
<path d="M209.699 15.96V12.79H219.069V7.87996H223.099V12.79H234.999V15.96H209.709H209.699ZM226.299 18.1C227.519 18.34 228.569 18.69 229.439 19.15C230.309 19.61 230.989 20.16 231.449 20.81C231.919 21.46 232.149 22.2 232.149 23.04C232.149 23.88 231.919 24.59 231.449 25.24C230.979 25.89 230.309 26.45 229.439 26.9C228.559 27.36 227.519 27.71 226.299 27.95C225.079 28.19 223.709 28.32 222.179 28.32C220.649 28.32 219.309 28.2 218.079 27.95C216.849 27.71 215.799 27.36 214.939 26.9C214.079 26.44 213.409 25.89 212.939 25.24C212.469 24.59 212.239 23.86 212.239 23.04C212.239 22.22 212.469 21.46 212.939 20.81C213.409 20.16 214.069 19.6 214.939 19.15C215.809 18.7 216.849 18.34 218.079 18.1C219.309 17.86 220.679 17.73 222.179 17.73C223.679 17.73 225.079 17.85 226.299 18.1ZM227.859 7.50996C227.939 6.52996 227.979 5.57996 227.979 4.63996H212.539V1.45996H232.009V3.77996C232.009 4.89996 231.969 6.05996 231.899 7.26996C231.829 8.47996 231.599 9.81996 231.209 11.28L227.239 10.88C227.569 9.59996 227.769 8.46996 227.849 7.48996L227.859 7.50996ZM226.609 24.73C227.649 24.35 228.169 23.79 228.169 23.04C228.169 22.29 227.649 21.69 226.609 21.32C225.569 20.94 224.099 20.76 222.189 20.76C220.279 20.76 218.809 20.95 217.779 21.32C216.749 21.7 216.239 22.27 216.239 23.04C216.239 23.81 216.749 24.36 217.779 24.73C218.809 25.11 220.279 25.29 222.189 25.29C224.099 25.29 225.579 25.1 226.609 24.73Z" fill="black"/>
<path d="M236.949 25.05V21.79H247.629V16.08H239.639V2.29004H259.619V16.08H251.659V21.79H262.399V25.05H236.949ZM255.679 5.46004H243.569V12.9H255.679V5.46004Z" fill="black"/>
<path d="M275.329 14.89C274.269 13.93 273.449 12.82 272.859 11.53C272.229 12.93 271.359 14.16 270.249 15.22C269.139 16.28 267.759 17.08 266.119 17.63L264.109 14.43C265.269 14.06 266.269 13.57 267.099 12.93C267.929 12.3 268.619 11.6 269.159 10.82C269.699 10.05 270.099 9.21996 270.349 8.32996C270.599 7.44996 270.729 6.56996 270.729 5.68996V5.28996H265.209V2.08996H280.309V5.28996H274.849V5.65996C274.849 6.48996 274.969 7.31996 275.219 8.14996C275.459 8.96996 275.839 9.74996 276.359 10.48C276.879 11.21 277.539 11.88 278.339 12.48C279.139 13.08 280.089 13.56 281.189 13.93L279.239 17.07C277.689 16.56 276.389 15.83 275.329 14.87V14.89ZM269.229 27.83V19.01H273.259V24.62H288.389V27.82H269.229V27.83ZM287.749 0.209961V20.71H283.719V10.73H279.329V7.46996H283.719V0.209961H287.749Z" fill="black"/>
<path d="M308.54 15.84C307.59 16.25 306.57 16.45 305.47 16.45C304.43 16.45 303.47 16.27 302.57 15.9C301.67 15.53 300.89 15.03 300.22 14.37C299.55 13.72 299.03 12.95 298.65 12.07C298.27 11.19 298.09 10.21 298.09 9.15996C298.09 8.10996 298.28 7.15996 298.65 6.25996C299.03 5.35996 299.55 4.59996 300.22 3.95996C300.89 3.31996 301.67 2.81996 302.57 2.44996C303.47 2.07996 304.43 1.89996 305.47 1.89996C306.57 1.89996 307.58 2.08996 308.51 2.47996C309.44 2.86996 310.24 3.41996 310.94 4.12996H317.19V0.209961H321.22V20.77H317.19V14.15H311C310.31 14.86 309.49 15.42 308.54 15.83V15.84ZM302.91 11.93C303.58 12.6 304.44 12.94 305.47 12.94C306.5 12.94 307.37 12.6 308.05 11.93C308.73 11.26 309.07 10.33 309.07 9.14996C309.07 7.96996 308.73 7.07996 308.05 6.39996C307.37 5.72996 306.51 5.38996 305.47 5.38996C304.43 5.38996 303.58 5.72996 302.91 6.39996C302.24 7.06996 301.9 7.98996 301.9 9.14996C301.9 10.31 302.24 11.26 302.91 11.93ZM302.7 27.83V18.77H306.73V24.63H321.86V27.83H302.7ZM312.83 8.20996C312.87 8.51996 312.89 8.82996 312.89 9.15996C312.89 9.94996 312.82 10.55 312.68 10.96H317.2V7.32996H312.68C312.74 7.60996 312.79 7.90996 312.83 8.20996Z" fill="black"/>
<path d="M325 2.69H331.25V0H335.31V2.69H341.6L341.57 5.83H325V2.69ZM339.69 13.58C339.35 14.19 338.88 14.71 338.27 15.15C337.66 15.59 336.93 15.93 336.09 16.17C335.25 16.41 334.32 16.54 333.3 16.54C332.28 16.54 331.35 16.42 330.51 16.17C329.67 15.93 328.94 15.59 328.33 15.15C327.72 14.71 327.25 14.19 326.91 13.58C326.57 12.97 326.41 12.3 326.41 11.57C326.41 10.84 326.58 10.14 326.91 9.53C327.25 8.92 327.72 8.4 328.33 7.96C328.94 7.52 329.67 7.19 330.51 6.95C331.35 6.72 332.28 6.6 333.3 6.6C334.32 6.6 335.25 6.72 336.09 6.95C336.93 7.18 337.66 7.52 338.27 7.96C338.88 8.4 339.35 8.92 339.69 9.53C340.03 10.14 340.19 10.82 340.19 11.57C340.19 12.32 340.02 12.97 339.69 13.58ZM347.15 28.01H328.87V17.73H332.87V19.87H343.15V17.73H347.15V28.01ZM331.09 13.09C331.65 13.44 332.39 13.61 333.3 13.61C334.21 13.61 334.95 13.44 335.51 13.09C336.07 12.74 336.35 12.24 336.35 11.56C336.35 10.88 336.07 10.38 335.51 10.03C334.95 9.68 334.21 9.51 333.3 9.51C332.39 9.51 331.65 9.68 331.09 10.03C330.53 10.38 330.25 10.88 330.25 11.56C330.25 12.24 330.53 12.74 331.09 13.09ZM332.88 24.87H343.16V22.92H332.88V24.87ZM347.16 16.66H343.13V0.21H347.16V6.95H350.88V10.25H347.16V16.66Z" fill="black"/>
<path d="M358.541 16.6299V13.4299H369.221V11.1099H361.621V1.3999H380.901V4.5999H365.611V7.8999H381.051V11.0999H373.241V13.4199H383.951V16.6199H358.531L358.541 16.6299ZM375.231 18.3399C376.431 18.5599 377.451 18.8999 378.301 19.3499C379.141 19.7999 379.791 20.3399 380.241 20.9799C380.691 21.6199 380.911 22.3599 380.911 23.1899C380.911 24.0199 380.691 24.7299 380.241 25.3699C379.791 26.0099 379.151 26.5499 378.301 26.9999C377.461 27.4499 376.431 27.7799 375.231 28.0099C374.031 28.2299 372.671 28.3499 371.141 28.3499C369.611 28.3499 368.251 28.2399 367.051 28.0099C365.851 27.7899 364.831 27.4499 364.001 26.9999C363.171 26.5499 362.531 26.0099 362.081 25.3699C361.631 24.7299 361.411 23.9999 361.411 23.1899C361.411 22.3799 361.631 21.6199 362.081 20.9799C362.531 20.3399 363.171 19.7999 364.001 19.3499C364.831 18.8999 365.851 18.5699 367.051 18.3399C368.251 18.1199 369.611 17.9999 371.141 17.9999C372.671 17.9999 374.031 18.1099 375.231 18.3399ZM375.411 24.7899C376.351 24.4499 376.811 23.9199 376.811 23.1899C376.811 21.7699 374.921 21.0499 371.131 21.0499C367.341 21.0499 365.461 21.7599 365.461 23.1899C365.461 23.9199 365.931 24.4599 366.861 24.7899C367.801 25.1299 369.221 25.2899 371.131 25.2899C373.041 25.2899 374.471 25.1199 375.401 24.7899H375.411Z" fill="black"/>
<path d="M396.289 2.86996C397.189 3.33996 397.969 3.99996 398.619 4.86996C399.269 5.72996 399.779 6.77996 400.159 8.00996C400.539 9.23996 400.719 10.63 400.719 12.17C400.719 13.71 400.529 15.11 400.159 16.35C399.779 17.59 399.269 18.65 398.619 19.52C397.969 20.39 397.189 21.07 396.289 21.53C395.379 22 394.399 22.23 393.349 22.23C392.299 22.23 391.309 22 390.409 21.53C389.499 21.06 388.719 20.39 388.059 19.52C387.399 18.65 386.889 17.59 386.519 16.35C386.149 15.11 385.969 13.72 385.969 12.17C385.969 10.62 386.149 9.23996 386.519 8.00996C386.889 6.77996 387.399 5.72996 388.059 4.86996C388.719 4.00996 389.499 3.33996 390.409 2.86996C391.309 2.39996 392.299 2.16996 393.349 2.16996C394.399 2.16996 395.389 2.39996 396.289 2.86996ZM395.879 16.95C396.529 15.86 396.859 14.27 396.859 12.17C396.859 10.07 396.529 8.48996 395.879 7.40996C395.229 6.32996 394.379 5.78996 393.349 5.78996C392.319 5.78996 391.439 6.32996 390.799 7.40996C390.159 8.48996 389.839 10.07 389.839 12.17C389.839 14.27 390.159 15.86 390.799 16.95C391.439 18.04 392.289 18.58 393.349 18.58C394.409 18.58 395.229 18.04 395.879 16.95ZM407.809 28.32H403.779V0.209961H407.809V10.8H411.899V14.13H407.809V28.32Z" fill="black"/>
<path d="M424.738 18.3099C426.608 18.1699 428.528 17.9299 430.508 17.6099L430.938 20.8699C429.778 21.0699 428.648 21.2399 427.548 21.3699C426.448 21.4999 425.338 21.5999 424.218 21.6799C423.098 21.7499 421.958 21.7999 420.798 21.8199C419.638 21.8399 418.418 21.8499 417.138 21.8499H414.608V10.2899H423.728V5.79993H414.578V2.59993H427.848V13.4599H418.728V18.5199C420.868 18.5199 422.868 18.4499 424.738 18.3099ZM432.458 28.3799V0.179932H436.488V28.3699H432.458V28.3799Z" fill="black"/>
<path d="M64.4802 60.6599C69.9102 61.6599 74.6102 63.3199 78.6002 65.6399C82.5902 67.9599 85.7202 71.0699 87.9902 74.9399C90.2602 78.8199 91.4002 83.6399 91.4002 89.3899C91.4002 92.1599 91.0102 94.9299 90.2402 97.6999C89.4602 100.47 88.3602 103.07 86.9202 105.51C85.4801 107.95 83.7302 110.08 81.6902 111.91C79.6402 113.74 77.2902 115.1 74.6302 115.98V116.81C81.2802 118.36 86.7802 121.52 91.1602 126.28C95.5302 131.04 97.7202 137.58 97.7202 145.88C97.7202 152.08 96.5002 157.46 94.0602 162C91.6201 166.54 88.2702 170.31 84.0102 173.3C79.7402 176.29 74.7102 178.51 68.8902 179.95C63.0802 181.39 56.7902 182.11 50.0302 182.11H6.16016V59.1599H46.8602C53.1702 59.1599 59.0402 59.6599 64.4702 60.6599H64.4802ZM62.2402 104.85C65.7302 101.97 67.4702 98.0399 67.4702 93.0499C67.4702 87.6199 65.6402 83.7499 61.9902 81.4199C58.3402 79.0899 52.8002 77.9299 45.3802 77.9299H30.7602V109.16H45.0502C53.0202 109.16 58.7602 107.72 62.2502 104.84L62.2402 104.85ZM67.1402 158.6C71.5702 155.56 73.7902 150.82 73.7902 144.4C73.7902 138.42 71.6302 134.1 67.3102 131.44C62.9902 128.78 56.5102 127.45 47.8702 127.45H30.7602V163.17H47.8702C56.2902 163.17 62.7102 161.65 67.1402 158.6Z" fill="#FFD600" stroke="#030000" stroke-width="10" stroke-linecap="round" stroke-linejoin="round"/>
<path d="M124.291 182.11H99.3711L138.751 59.1699H167.661L207.201 182.11H181.451L172.811 150.54H132.941L124.301 182.11H124.291ZM158.431 98.0399C156.711 91.1699 154.911 84.4199 153.031 77.7699H152.371C150.821 84.5299 149.161 91.3099 147.391 98.1199C145.621 104.93 143.791 111.55 141.911 117.97L138.251 131.43H167.491L163.841 117.97C161.961 111.55 160.161 104.9 158.441 98.0299L158.431 98.0399Z" fill="#FFD600" stroke="#030000" stroke-width="10" stroke-linecap="round" stroke-linejoin="round"/>
<path d="M265.67 116.65C267 120.53 268.27 124.46 269.49 128.45L273.14 140.41H273.97C275.3 136.42 276.54 132.44 277.71 128.45C278.87 124.46 280.12 120.53 281.45 116.65L301.89 59.1699H329.14V182.11H306.71V130.77C306.71 127.89 306.79 124.71 306.96 121.22C307.13 117.73 307.37 114.19 307.71 110.59C308.04 106.99 308.38 103.45 308.71 99.9599C309.04 96.4699 309.37 93.2899 309.71 90.4099H309.05L299.08 119.32L280.14 170.99H266.02L246.91 119.32L237.11 90.4099H236.44C236.77 93.2899 237.13 96.4699 237.52 99.9599C237.91 103.45 238.24 106.99 238.52 110.59C238.79 114.19 239.04 117.73 239.27 121.22C239.49 124.71 239.6 127.89 239.6 130.77V182.11H217.5V59.1599H244.75L265.68 116.64L265.67 116.65Z" fill="#FFD600" stroke="#030000" stroke-width="10" stroke-linecap="round" stroke-linejoin="round"/>
<path d="M414.529 61.0799C420.399 62.3499 425.489 64.4899 429.819 67.4799C434.139 70.4699 437.539 74.4299 440.039 79.3599C442.529 84.2899 443.779 90.4099 443.779 97.7199C443.779 105.03 442.529 110.76 440.039 115.91C437.549 121.06 434.169 125.3 429.909 128.62C425.639 131.94 420.629 134.41 414.869 136.01C409.109 137.62 402.909 138.42 396.259 138.42H379.809V182.11H355.219V59.1599H395.589C402.339 59.1599 408.659 59.7999 414.529 61.0699V61.0799ZM419.679 97.7099C419.679 90.5099 417.489 85.5299 413.119 82.7599C408.739 79.9899 402.289 78.6099 393.759 78.6099H379.799V118.98H394.589C411.309 118.98 419.679 111.89 419.679 97.7099Z" fill="#FFD600" stroke="#030000" stroke-width="10" stroke-linecap="round" stroke-linejoin="round"/>
<path d="M64.4802 60.6599C69.9102 61.6599 74.6102 63.3199 78.6002 65.6399C82.5902 67.9599 85.7202 71.0699 87.9902 74.9399C90.2602 78.8199 91.4002 83.6399 91.4002 89.3899C91.4002 92.1599 91.0102 94.9299 90.2402 97.6999C89.4602 100.47 88.3602 103.07 86.9202 105.51C85.4801 107.95 83.7302 110.08 81.6902 111.91C79.6402 113.74 77.2902 115.1 74.6302 115.98V116.81C81.2802 118.36 86.7802 121.52 91.1602 126.28C95.5302 131.04 97.7202 137.58 97.7202 145.88C97.7202 152.08 96.5002 157.46 94.0602 162C91.6201 166.54 88.2702 170.31 84.0102 173.3C79.7402 176.29 74.7102 178.51 68.8902 179.95C63.0802 181.39 56.7902 182.11 50.0302 182.11H6.16016V59.1599H46.8602C53.1702 59.1599 59.0402 59.6599 64.4702 60.6599H64.4802ZM62.2402 104.85C65.7302 101.97 67.4702 98.0399 67.4702 93.0499C67.4702 87.6199 65.6402 83.7499 61.9902 81.4199C58.3402 79.0899 52.8002 77.9299 45.3802 77.9299H30.7602V109.16H45.0502C53.0202 109.16 58.7602 107.72 62.2502 104.84L62.2402 104.85ZM67.1402 158.6C71.5702 155.56 73.7902 150.82 73.7902 144.4C73.7902 138.42 71.6302 134.1 67.3102 131.44C62.9902 128.78 56.5102 127.45 47.8702 127.45H30.7602V163.17H47.8702C56.2902 163.17 62.7102 161.65 67.1402 158.6Z" fill="#FFD600" stroke="#FFD600" stroke-width="2" stroke-linecap="round" stroke-linejoin="round"/>
<path d="M124.291 182.11H99.3711L138.751 59.1699H167.661L207.201 182.11H181.451L172.811 150.54H132.941L124.301 182.11H124.291ZM158.431 98.0399C156.711 91.1699 154.911 84.4199 153.031 77.7699H152.371C150.821 84.5299 149.161 91.3099 147.391 98.1199C145.621 104.93 143.791 111.55 141.911 117.97L138.251 131.43H167.491L163.841 117.97C161.961 111.55 160.161 104.9 158.441 98.0299L158.431 98.0399Z" fill="#FFD600" stroke="#FFD600" stroke-width="2" stroke-linecap="round" stroke-linejoin="round"/>
<path d="M265.67 116.65C267 120.53 268.27 124.46 269.49 128.45L273.14 140.41H273.97C275.3 136.42 276.54 132.44 277.71 128.45C278.87 124.46 280.12 120.53 281.45 116.65L301.89 59.1699H329.14V182.11H306.71V130.77C306.71 127.89 306.79 124.71 306.96 121.22C307.13 117.73 307.37 114.19 307.71 110.59C308.04 106.99 308.38 103.45 308.71 99.9599C309.04 96.4699 309.37 93.2899 309.71 90.4099H309.05L299.08 119.32L280.14 170.99H266.02L246.91 119.32L237.11 90.4099H236.44C236.77 93.2899 237.13 96.4699 237.52 99.9599C237.91 103.45 238.24 106.99 238.52 110.59C238.79 114.19 239.04 117.73 239.27 121.22C239.49 124.71 239.6 127.89 239.6 130.77V182.11H217.5V59.1599H244.75L265.68 116.64L265.67 116.65Z" fill="#FFD600" stroke="#FFD600" stroke-width="2" stroke-linecap="round" stroke-linejoin="round"/>
<path d="M414.529 61.0799C420.399 62.3499 425.489 64.4899 429.819 67.4799C434.139 70.4699 437.539 74.4299 440.039 79.3599C442.529 84.2899 443.779 90.4099 443.779 97.7199C443.779 105.03 442.529 110.76 440.039 115.91C437.549 121.06 434.169 125.3 429.909 128.62C425.639 131.94 420.629 134.41 414.869 136.01C409.109 137.62 402.909 138.42 396.259 138.42H379.809V182.11H355.219V59.1599H395.589C402.339 59.1599 408.659 59.7999 414.529 61.0699V61.0799ZM419.679 97.7099C419.679 90.5099 417.489 85.5299 413.119 82.7599C408.739 79.9899 402.289 78.6099 393.759 78.6099H379.799V118.98H394.589C411.309 118.98 419.679 111.89 419.679 97.7099Z" fill="#FFD600" stroke="#FFD600" stroke-width="2" stroke-linecap="round" stroke-linejoin="round"/>
</g>
<defs>
<clipPath id="clip0_127_369">
<rect width="448.77" height="187.11" fill="white"/>
</clipPath>
</defs>
</svg>
