<svg width="455"  viewBox="0 0 455 359" fill="none" xmlns="http://www.w3.org/2000/svg">
<g clip-path="url(#clip0_429_305)">
<path d="M276.997 268.285C276.997 268.285 331.062 237.012 355.426 214.365C355.426 214.365 355.445 214.356 355.454 214.346C362.124 207.016 370.155 199.32 379.799 191.727C398.59 176.926 411.03 195.228 411.03 195.228C422.71 209.466 430.778 225.44 402.277 249.11C397.342 253.211 392.689 256.703 388.298 259.669C388.298 259.669 328.445 299.923 283.226 295.746C239.255 291.692 277.006 268.285 277.006 268.285H276.997Z" fill="#F9D549"/>
<path d="M290.11 297.905C287.69 297.905 285.335 297.801 283.055 297.586C269.058 296.29 261.6 292.921 260.277 287.29C258.119 278.111 274.19 267.843 276.028 266.707C276.047 266.707 276.057 266.689 276.075 266.679C276.61 266.369 330.188 235.275 354.138 213.041C361.531 204.923 369.777 197.264 378.652 190.272C384.863 185.373 391.12 183.374 397.246 184.322C406.374 185.729 411.881 193.219 412.5 194.111C418.035 200.859 423.655 209.052 423.561 218.654C423.458 228.95 416.881 239.386 403.457 250.546C398.644 254.544 393.888 258.129 389.328 261.217C389.178 261.32 374.008 271.475 353.491 280.973C329.146 292.236 307.869 297.933 290.101 297.933L290.11 297.905ZM277.952 269.87C271.882 273.643 262.707 281.471 263.879 286.436C264.386 288.594 267.595 292.433 283.384 293.888C306.312 296.009 333.293 286.201 351.877 277.604C372.132 268.237 387.105 258.213 387.255 258.12C391.711 255.107 396.364 251.597 401.083 247.674C428.833 224.614 420.503 209.7 409.583 196.391C409.545 196.344 409.517 196.307 409.479 196.26C409.433 196.194 404.535 189.174 396.636 187.973C391.58 187.203 386.289 188.949 380.932 193.172C372.198 200.052 364.083 207.598 356.812 215.585C356.765 215.632 356.709 215.697 356.653 215.735C332.533 238.11 279.378 269.026 277.942 269.861L277.952 269.87Z" fill="black"/>
<path d="M402.824 207.521C402.824 207.521 393.837 198.858 397.58 189.867C401.323 180.866 403.378 175.104 403.031 168.515C402.684 161.927 412.825 156.633 415.245 163.888C417.666 171.143 415.714 174.785 415.714 174.785C415.714 174.785 432.62 152.372 444.628 163.916C456.646 175.46 455.182 189.97 442.179 200.013C429.177 210.055 413.866 220.886 402.815 207.531L402.824 207.521Z" fill="white"/>
<path d="M415.054 215.65C410.251 215.65 405.598 213.744 401.461 208.779C400.457 207.785 391.845 198.84 395.869 189.154C399.293 180.905 401.517 175.02 401.189 168.61C400.926 163.645 405.204 159.468 409.36 158.68C412.897 158.004 415.833 159.778 417.015 163.297C417.756 165.512 418.122 167.436 418.263 169.06C422.315 164.893 428.911 159.337 435.74 158.792C439.559 158.483 443.002 159.759 445.929 162.565C452.036 168.431 455.057 175.208 454.681 182.172C454.297 189.258 450.263 196.118 443.33 201.478C435.496 207.522 424.97 215.65 415.064 215.659L415.054 215.65ZM410.823 162.237C410.579 162.237 410.317 162.265 410.045 162.312C407.483 162.8 404.725 165.503 404.885 168.403C405.26 175.602 402.915 181.853 399.293 190.572C396.094 198.277 404.04 206.105 404.116 206.18C404.162 206.227 404.209 206.283 404.256 206.33C413.872 217.949 427.147 209.268 441.06 198.531C447.223 193.772 450.647 188.047 450.976 181.965C451.295 176.118 448.659 170.327 443.358 165.24C441.2 163.166 438.808 162.265 436.031 162.49C426.856 163.222 417.296 175.771 417.203 175.893C416.621 176.662 415.533 176.859 414.726 176.334C413.91 175.808 413.628 174.748 414.088 173.894C414.088 173.894 415.58 170.721 413.497 164.461C413 162.969 412.118 162.237 410.833 162.237H410.823Z" fill="black"/>
<path d="M177.702 268.283C177.702 268.283 123.636 237.01 99.2728 214.363C99.2728 214.363 99.254 214.354 99.2447 214.344C92.5745 207.014 84.5439 199.318 74.8998 191.725C56.1088 176.924 43.669 195.226 43.669 195.226C31.9891 209.464 23.921 225.438 52.4219 249.108C57.3565 253.209 62.0097 256.701 66.4002 259.667C66.4002 259.667 126.254 299.921 171.472 295.744C215.443 291.69 177.692 268.283 177.692 268.283H177.702Z" fill="#F9D549"/>
<path d="M164.594 297.904C146.835 297.904 125.558 292.216 101.204 280.944C80.6961 271.446 65.517 261.291 65.3669 261.197C60.7981 258.109 56.0417 254.524 51.2384 250.526C37.8042 239.367 31.2278 228.939 31.134 218.634C31.0402 209.033 36.669 200.839 42.1947 194.091C42.8232 193.2 48.3208 185.71 57.4489 184.302C63.575 183.354 69.8324 185.353 76.0429 190.253C84.9178 197.245 93.1641 204.913 100.566 213.031C100.566 213.031 100.566 213.031 100.575 213.04C124.461 235.237 178.085 266.35 178.62 266.66C178.638 266.66 178.657 266.678 178.667 266.688C180.505 267.833 196.576 278.091 194.418 287.27C193.086 292.911 185.637 296.28 171.64 297.566C169.351 297.772 166.996 297.885 164.585 297.885L164.594 297.904ZM60.3947 187.803C59.6066 187.803 58.828 187.859 58.0587 187.981C50.1595 189.183 45.2624 196.203 45.2155 196.269C45.1874 196.316 45.1498 196.362 45.1217 196.4C34.2017 209.699 25.871 224.622 53.6213 247.682C58.3308 251.596 62.9934 255.116 67.4495 258.128C67.5996 258.222 82.563 268.246 102.818 277.613C121.402 286.21 148.374 296.027 171.311 293.896C187.1 292.442 190.309 288.603 190.816 286.444C191.988 281.479 182.813 273.652 176.743 269.879C175.308 269.053 122.04 238.062 98.0049 215.725C97.9861 215.706 97.9486 215.668 97.9298 215.659C90.6029 207.606 82.488 200.06 73.7539 193.181C69.2132 189.605 64.7289 187.803 60.3853 187.803H60.3947Z" fill="black"/>
<path d="M51.8788 207.521C51.8788 207.521 60.8662 198.858 57.123 189.867C53.3798 180.876 51.3253 175.104 51.6724 168.515C52.0195 161.927 41.8782 156.633 39.4578 163.888C37.0373 171.143 38.9887 174.785 38.9887 174.785C38.9887 174.785 22.0833 152.372 10.0751 163.916C-1.93317 175.46 -0.479045 189.97 12.5236 200.013C25.5263 210.055 40.8368 220.886 51.8882 207.531L51.8788 207.521Z" fill="white"/>
<path d="M39.6544 215.65C29.7382 215.65 19.2122 207.522 11.3881 201.468C4.44582 196.118 0.411803 189.258 0.0271635 182.172C-0.348094 175.208 2.68211 168.431 8.78005 162.565C11.7071 159.75 15.1407 158.483 18.9683 158.792C25.798 159.337 32.4025 164.893 36.4459 169.06C36.5866 167.436 36.9525 165.512 37.6937 163.297C38.8663 159.778 41.8027 158.004 45.3489 158.68C49.5049 159.468 53.7828 163.645 53.5201 168.61C53.1824 175.02 55.4058 180.905 58.8394 189.154C62.8641 198.84 54.2425 207.794 53.2481 208.779C49.1109 213.744 44.4483 215.65 39.6544 215.65ZM17.8707 162.453C15.4409 162.453 13.3019 163.373 11.3506 165.24C6.05005 170.337 3.41386 176.118 3.73283 181.965C4.06118 188.047 7.48541 193.772 13.649 198.531C27.5617 209.277 40.8458 217.949 50.4524 206.33C50.4993 206.274 50.5462 206.227 50.5931 206.18C50.6776 206.105 58.6237 198.268 55.4152 190.572C51.794 181.853 49.4486 175.602 49.8239 168.403C49.974 165.503 47.2252 162.8 44.6641 162.312C42.9379 161.983 41.8121 162.687 41.2211 164.461C39.129 170.721 40.6207 173.894 40.6394 173.922C41.0616 174.776 40.7708 175.836 39.9546 176.334C39.1384 176.831 38.0877 176.653 37.5154 175.883C37.4216 175.761 27.8338 163.204 18.6869 162.481C18.4148 162.462 18.1521 162.453 17.8801 162.453H17.8707Z" fill="black"/>
<path d="M312.99 367.018C312.99 416.161 274.648 420.806 227.356 420.806C180.065 420.806 141.723 416.161 141.723 367.018C141.723 317.876 180.065 240.023 227.356 240.023C274.648 240.023 312.99 317.885 312.99 367.018Z" fill="white"/>
<path d="M227.347 422.665C181.237 422.665 139.855 418.413 139.855 367.019C139.855 341.734 149.565 309.974 165.204 284.135C183.141 254.496 205.207 238.175 227.347 238.175C249.487 238.175 271.552 254.496 289.489 284.135C305.128 309.974 314.838 341.734 314.838 367.019C314.838 418.404 273.457 422.665 227.347 422.665ZM227.347 241.882C215.31 241.882 191.641 247.626 168.375 286.059C153.299 310.969 143.561 342.748 143.561 367.028C143.561 415.053 181.509 418.958 227.347 418.958C273.185 418.958 311.132 415.053 311.132 367.028C311.132 342.748 301.395 310.969 286.319 286.059C263.053 247.626 239.393 241.882 227.347 241.882Z" fill="black"/>
<path d="M10.7063 36.3789C12.4794 35.844 14.2618 35.309 16.0349 34.7834C16.0349 34.7646 16.0255 34.7459 16.0162 34.7365C20.6881 33.3568 25.3788 32.0241 30.0696 30.7383C39.376 28.1948 46.1587 31.5173 47.9037 38.547C48.8418 42.2636 47.6222 45.924 44.789 48.2891C49.5736 49.0024 53.0729 52.3061 54.1236 56.5389C56.1218 64.6574 52.0597 70.833 43.3443 73.1888C36.721 74.9814 30.1165 76.8773 23.5401 78.8764C19.2528 64.7137 14.9654 50.5416 10.6875 36.3789H10.7063ZM33.5688 48.3642C38.4753 47.0221 39.0851 44.7508 38.344 41.9539C37.6029 39.157 35.4451 37.8806 32.6588 38.6408C29.3284 39.5512 25.998 40.4898 22.677 41.4471C23.5682 44.5255 24.4501 47.604 25.3413 50.6824C28.0807 49.894 30.8295 49.115 33.5782 48.3642H33.5688ZM41.5618 65.0797C44.2449 64.357 45.3801 62.0482 44.5545 58.8947C43.7289 55.7505 41.5055 54.033 36.646 55.3657C33.5688 56.2104 30.4917 57.0739 27.424 57.9561C28.409 61.3724 29.3941 64.7888 30.3792 68.2051C34.1036 67.1351 37.828 66.0933 41.5712 65.0797H41.5618Z" fill="black"/>
<path d="M44.1863 76.2297C37.5911 78.0224 31.0241 79.9089 24.4665 81.8892C22.7685 82.4054 20.9766 81.4856 20.4606 79.8244C16.1076 65.6805 11.764 51.5366 7.41104 37.3833C6.89506 35.722 7.96455 33.92 9.78455 33.3663C11.37 32.8876 12.9555 32.409 14.5409 31.9397C14.7192 31.8458 14.9162 31.7708 15.1226 31.7144C19.8133 30.3348 24.5228 28.9927 29.2417 27.7068C40.1898 24.7129 49.0365 28.8894 51.1849 37.7305C51.9541 40.8371 51.5414 43.9813 50.1529 46.6749C53.7648 48.5238 56.354 51.7524 57.3297 55.7506C59.6844 65.5303 54.4965 73.4329 44.1863 76.2297ZM25.7611 74.9252C31.3431 73.2639 36.9344 71.6684 42.5445 70.148C49.5806 68.2427 52.5733 63.7565 50.9597 57.3368C50.1623 54.1926 47.5824 51.9026 44.2144 51.4052C42.9573 51.2175 41.9441 50.3634 41.6064 49.1902C41.2687 48.0264 41.6815 46.7594 42.6571 45.9334C44.5522 44.3473 45.3027 41.8977 44.6554 39.3636C43.2763 33.9482 38.1259 31.7895 30.9116 33.7605C26.4366 34.99 21.9617 36.257 17.5055 37.5616C17.3272 37.6461 17.1302 37.7211 16.9332 37.7868C16.2577 37.9839 15.5823 38.1904 14.8974 38.3875C18.5187 50.5605 22.1399 62.7334 25.7611 74.9064V74.9252ZM42.3851 68.1113C38.67 69.1156 34.955 70.1573 31.2493 71.2273C29.5231 71.7247 27.7313 70.7862 27.234 69.1156C26.2302 65.6992 25.2358 62.2923 24.232 58.876C23.7441 57.2054 24.7761 55.4315 26.5492 54.9247C29.6357 54.0331 32.7222 53.1696 35.8087 52.3249C42.0098 50.6262 46.3722 52.7661 47.7325 58.0595C48.9802 62.893 46.8225 66.91 42.3851 68.1113ZM32.6565 64.2727C35.349 63.5124 38.0415 62.7616 40.7339 62.0295C41.1373 61.9169 41.9066 61.7104 41.3719 59.7301C41.0341 58.4818 40.7715 57.4869 37.4692 58.388C35.4616 58.9323 33.4633 59.4954 31.4651 60.0586C31.8591 61.457 32.2625 62.8648 32.6565 64.2633V64.2727ZM34.4015 51.3864C31.6621 52.1372 28.9321 52.9162 26.2021 53.6952C24.429 54.202 22.5996 53.2729 22.1118 51.6023C21.2111 48.5238 20.3105 45.4548 19.4099 42.3763C18.9221 40.7057 19.9916 38.9225 21.8022 38.4063C25.142 37.449 28.4818 36.5104 31.8309 35.5906C36.4185 34.333 40.4431 36.623 41.6064 41.0718C42.3663 44.0094 42.432 49.1808 34.4108 51.377L34.4015 51.3864ZM27.6937 46.7218C29.373 46.2432 31.0523 45.7739 32.7316 45.314C34.8987 44.7133 35.5554 44.5444 35.0863 42.8175C34.6829 41.3439 34.0731 41.5035 33.4821 41.6724C31.2493 42.2825 29.0165 42.9019 26.7931 43.5308C27.0933 44.5913 27.3935 45.6613 27.6937 46.7218Z" fill="black"/>
<path d="M63.3695 22.4879C68.5106 21.3241 73.6704 20.226 78.8302 19.1748C86.082 32.8025 93.0899 46.5241 99.8446 60.3207C96.3265 60.9683 92.8179 61.6535 89.3092 62.3574C87.9958 59.6356 86.673 56.9232 85.3409 54.2108C80.8284 55.1306 76.3347 56.0973 71.841 57.1015C71.7378 60.1236 71.644 63.1458 71.5595 66.1585C68.0696 66.9563 64.5797 67.7728 61.0898 68.6269C61.5964 53.2722 62.3563 37.8894 63.3789 22.4879H63.3695ZM81.7478 46.7869C81.2693 45.8296 80.7909 44.8722 80.3124 43.9243C77.1978 37.6454 75.0119 32.474 72.9105 27.7625C72.7228 27.8001 72.5446 27.8376 72.357 27.8845C72.3663 33.0465 72.4883 38.6591 72.2162 45.6606C72.1693 46.7306 72.1224 47.8005 72.0755 48.8704C75.2933 48.1572 78.5206 47.4626 81.7478 46.7963V46.7869Z" fill="black"/>
<path d="M100.409 63.4183C96.9101 64.0659 93.4108 64.7417 89.9209 65.4456C88.4856 65.7365 87.0315 65.0326 86.4029 63.7374C85.4366 61.7571 84.4703 59.7862 83.4947 57.8058C80.6615 58.3971 77.8283 59.0072 74.9951 59.6266C74.9106 61.8228 74.8356 64.0284 74.7699 66.2246C74.723 67.6699 73.691 68.9088 72.2557 69.2279C68.7752 70.0163 65.304 70.8422 61.8329 71.6869C60.8572 71.9216 59.8347 71.7057 59.056 71.0956C58.2773 70.4856 57.8364 69.5564 57.8646 68.571C58.3055 53.2069 59.0091 37.8241 59.966 22.4226C60.0504 20.996 61.1668 19.7665 62.6772 19.4286C67.8464 18.2648 73.0156 17.1573 78.2035 16.0968C79.7233 15.787 81.2337 16.4534 81.8998 17.7205C89.0954 31.3763 96.047 45.126 102.745 58.9508C103.177 59.8331 103.149 60.8655 102.698 61.7477C102.239 62.6206 101.404 63.24 100.419 63.4277L100.409 63.4183ZM91.1499 58.7819C92.4727 58.5191 93.7861 58.2657 95.1089 58.0123C89.2267 46.2054 83.1569 34.4641 76.9089 22.7886C73.4659 23.5019 70.0323 24.234 66.5987 24.9942C65.6981 38.2089 64.9757 51.4049 64.4503 64.5821C65.7637 64.2724 67.0771 63.9627 68.3905 63.6624C68.4468 61.4568 68.5125 59.2606 68.5782 57.055C68.6251 55.6096 69.6758 54.3613 71.1393 54.0329C75.6518 53.0192 80.1736 52.0525 84.7049 51.1234C86.1777 50.823 87.6506 51.5269 88.2792 52.8315C89.2361 54.8119 90.193 56.7922 91.1499 58.7819ZM82.3876 49.8751C79.1698 50.5415 75.9614 51.2266 72.7529 51.9399C71.7679 52.1558 70.7359 51.9305 69.9572 51.3205C69.1786 50.7104 68.747 49.7812 68.7846 48.8051C68.8221 47.7352 68.869 46.6653 68.9065 45.5953C69.1035 39.9077 69.0379 35.0273 68.9909 30.7193C68.9909 29.8089 68.9722 28.8986 68.9628 27.9882C68.9628 26.4771 70.0886 25.1444 71.6834 24.8065C71.871 24.7689 72.0493 24.7314 72.2369 24.6845C73.8224 24.3466 75.4078 25.0974 76.0176 26.4771C76.3835 27.3124 76.7494 28.1477 77.1153 28.9736C78.8321 32.9155 80.774 37.3924 83.2883 42.5263C83.7667 43.4742 84.2358 44.4315 84.7049 45.3794C85.1364 46.2523 85.1176 47.2753 84.6673 48.1482C84.2076 49.021 83.3633 49.6498 82.3783 49.8563L82.3876 49.8751ZM75.5392 44.8914C76.0083 44.7882 76.4773 44.6849 76.9558 44.5911C76.4961 43.6713 76.0645 42.7703 75.6424 41.8974C75.6142 42.8735 75.5861 43.8684 75.5486 44.9008L75.5392 44.8914Z" fill="black"/>
<path d="M96.8649 15.7395C99.7637 15.2233 102.663 14.7259 105.561 14.2378C111.359 22.2905 117.016 30.409 122.514 38.5931C122.636 38.5743 122.767 38.5556 122.898 38.5368C125.797 29.1138 128.856 19.7095 132.083 10.3147C135 9.93926 137.909 9.57323 140.826 9.23535C142.562 23.933 144.288 38.6307 146.014 53.3283C143.022 53.685 140.029 54.051 137.036 54.4452C136.286 48.6825 135.526 42.9104 134.775 37.1478C134.438 34.5949 134.165 30.3902 134.203 27.6309C132.148 34.6606 130.169 41.6997 128.274 48.7482C125.619 49.1236 122.955 49.5178 120.3 49.9308C116.453 43.7364 112.522 37.5701 108.517 31.432C109.352 34.0599 110.299 38.1708 110.721 40.7048C111.669 46.4394 112.616 52.1833 113.564 57.9178C110.581 58.4059 107.607 58.9221 104.633 59.4476C102.034 44.8814 99.4447 30.3057 96.8555 15.7395H96.8649Z" fill="black"/>
<path d="M146.38 56.4541C143.396 56.8013 140.422 57.1768 137.448 57.5616C135.703 57.7868 134.099 56.5855 133.865 54.8679C133.433 51.6863 133.002 48.4952 132.57 45.3135C132.176 46.7213 131.791 48.1198 131.407 49.5276C131.069 50.7571 130.009 51.6769 128.724 51.8646C126.078 52.24 123.433 52.6342 120.787 53.0378C119.502 53.2349 118.216 52.6623 117.541 51.583C116.772 50.3441 115.993 49.1146 115.214 47.8851C115.721 51.0574 116.228 54.2297 116.744 57.4114C117.016 59.1289 115.824 60.7432 114.089 61.0342C111.124 61.5222 108.16 62.0291 105.195 62.564C103.459 62.8737 101.799 61.7475 101.48 60.0393C98.8156 45.4825 96.1607 30.9256 93.4963 16.3593C93.1868 14.6512 94.4345 12.9899 96.3014 12.6521C99.2096 12.1359 102.127 11.629 105.036 11.1504C106.358 10.9345 107.672 11.4413 108.403 12.4644C112.907 18.7714 117.325 25.1066 121.65 31.4887C123.949 24.1305 126.331 16.7817 128.817 9.45162C129.221 8.26905 130.328 7.3962 131.66 7.21787C134.587 6.84246 137.514 6.47642 140.441 6.12916C142.317 5.90391 143.997 7.1334 144.194 8.86033C145.854 23.5674 147.524 38.2744 149.185 52.9815C149.382 54.7084 148.115 56.2664 146.37 56.4728L146.38 56.4541ZM139.822 50.9166C140.694 50.804 141.567 50.7008 142.449 50.5882C140.91 37.9835 139.362 25.3694 137.824 12.7647C136.764 12.8961 135.703 13.0275 134.643 13.1589C131.641 21.8874 128.771 30.6346 126.041 39.4007C125.665 40.5832 124.624 41.4655 123.357 41.6532C123.236 41.672 123.104 41.6907 122.982 41.7095C121.716 41.8972 120.459 41.3622 119.764 40.3298C114.614 32.737 109.342 25.1911 103.929 17.7015C102.878 17.8798 101.818 18.0581 100.767 18.2458C102.934 30.7566 105.101 43.2769 107.278 55.7877C108.15 55.6375 109.023 55.4874 109.886 55.3372C109.088 50.6351 108.291 45.9423 107.493 41.2402C107.071 38.7343 106.105 34.7549 105.345 32.3803C104.857 30.8693 105.645 29.2362 107.174 28.5604C108.704 27.8847 110.505 28.3915 111.377 29.7242C114.98 35.2804 118.517 40.8648 121.988 46.4679C123.226 46.2802 124.455 46.1019 125.693 45.9236C127.401 39.5508 129.165 33.1875 131.003 26.8241C131.444 25.2943 133.02 24.2901 134.681 24.4965C136.341 24.6936 137.561 26.0358 137.533 27.6219C137.495 30.1184 137.72 34.2011 138.039 36.7164C138.64 41.4467 139.231 46.177 139.831 50.8979L139.822 50.9166Z" fill="black"/>
<path d="M149.297 8.28808C156.305 7.54662 163.322 6.89903 170.339 6.34528C180.331 5.57568 185.885 10.2027 186.4 19.4756C186.916 28.8235 182.123 33.948 172.553 34.6894C168.989 34.971 165.433 35.2713 161.877 35.5998C162.375 40.9026 162.862 46.2054 163.36 51.5082C160.236 51.7991 157.112 52.1089 153.997 52.4373C152.43 37.7209 150.864 23.0045 149.306 8.28808H149.297ZM171.522 26.4396C174.993 26.1674 176.663 23.9994 176.381 20.0199C176.109 16.0874 174.111 14.1728 170.574 14.4449C167.047 14.7265 163.519 15.0268 159.992 15.3553C160.367 19.3536 160.733 23.3424 161.108 27.3406C164.579 27.0215 168.05 26.7211 171.522 26.449V26.4396Z" fill="black"/>
<path d="M163.65 54.6423C160.545 54.9332 157.43 55.2429 154.325 55.5714C152.57 55.7591 151.004 54.5109 150.807 52.7839C149.174 38.0769 147.542 23.3605 145.909 8.65342C145.712 6.92649 147.082 5.35912 148.958 5.15264C155.995 4.4018 163.04 3.7542 170.095 3.20046C182.019 2.28068 189.177 8.29678 189.73 19.2778C190.284 30.3245 184.101 36.9412 172.797 37.8141C170.339 38.0018 167.871 38.2083 165.414 38.4241C165.789 42.6852 166.164 46.9462 166.539 51.1978C166.689 52.9341 165.395 54.4545 163.64 54.6235L163.65 54.6423ZM156.858 48.9828C157.861 48.8796 158.856 48.7857 159.86 48.6825C159.447 44.4309 159.034 40.1698 158.612 35.9182C158.443 34.1913 159.766 32.6427 161.586 32.4738C165.16 32.1453 168.735 31.8355 172.309 31.554C180.105 30.9533 183.529 27.246 183.069 19.6814C182.619 12.173 178.641 8.86929 170.592 9.48873C164.729 9.94862 158.865 10.4742 153.002 11.0749C154.287 23.7077 155.572 36.35 156.858 48.9828ZM171.765 29.583C168.303 29.8552 164.851 30.1555 161.398 30.4747C159.588 30.6436 157.983 29.3859 157.805 27.659C157.421 23.6702 157.026 19.672 156.642 15.6831C156.473 13.9562 157.843 12.3982 159.7 12.2293C163.237 11.9008 166.783 11.6005 170.329 11.3189C176.803 10.8215 179.42 15.3922 179.711 19.794C180.086 25.5379 177.112 29.1701 171.765 29.583ZM164.128 23.9048C166.511 23.6983 168.894 23.4919 171.268 23.3041C172.29 23.2197 173.266 23.154 173.05 20.2633C172.834 17.4288 171.859 17.5039 170.817 17.5884C168.416 17.7761 166.014 17.9732 163.622 18.1891C163.791 20.0943 163.959 21.9996 164.128 23.9048Z" fill="black"/>
<path d="M203.015 32.0617C202.884 28.4765 202.762 24.8819 202.631 21.2966C202.162 9.33951 209.46 3.27649 221.713 3.15448C232.079 3.06063 239.181 8.65437 240.41 18.0211C237.004 18.4903 233.608 18.9878 230.212 19.5134C229.499 14.5203 226.638 11.5169 221.572 11.5639C216.281 11.6202 212.81 14.8019 212.96 21.3717C213.035 24.8912 213.11 28.4108 213.185 31.9303C213.316 37.7681 216.525 40.9404 222.022 40.8841C227.576 40.8372 230.118 38.1248 230.569 32.653C233.955 33.0097 237.333 33.3945 240.71 33.7981C239.922 43.8405 234.021 49.2466 222.107 49.3404C210.295 49.4718 203.475 43.8405 203.015 32.0617Z" fill="black"/>
<path d="M222.132 52.484C208.482 52.6341 200.321 45.4448 199.739 32.1832C199.598 28.5979 199.448 25.0127 199.307 21.418C198.716 8.20328 206.869 0.159931 221.682 0.000378356C233.878 -0.112247 242.359 6.80485 243.719 17.6357C243.935 19.3345 242.678 20.8831 240.895 21.1271C237.499 21.5964 234.122 22.0938 230.735 22.61C229.853 22.7414 228.943 22.5349 228.23 22.0375C227.508 21.5307 227.03 20.7798 226.908 19.9351C226.223 15.2705 223.709 14.6793 221.598 14.7074C219.262 14.7262 216.175 15.4583 216.278 21.3054C216.335 24.825 216.4 28.3445 216.457 31.8641C216.55 37.1293 219.459 37.7581 221.992 37.73C225.247 37.7018 226.964 36.8853 227.311 32.4084C227.377 31.5637 227.799 30.7753 228.484 30.231C229.169 29.6866 230.05 29.4332 230.932 29.5271C234.328 29.8837 237.724 30.2685 241.12 30.6721C242.856 30.8786 244.113 32.3615 243.972 34.0321C242.969 46.008 235.229 52.3713 222.142 52.484H222.132ZM221.738 6.29803C210.781 6.42004 205.621 11.4037 205.949 21.1834C206.062 24.7686 206.175 28.3633 206.287 31.9485C206.616 41.7564 211.775 46.2989 222.076 46.1863C230.735 46.1112 235.539 43.0985 237.03 36.5286C235.782 36.3879 234.525 36.2471 233.268 36.1063C231.476 42.526 226.354 43.9807 222.048 44.0276C214.777 44.1027 210.124 39.5602 209.908 32.0048C209.815 28.4853 209.721 24.9657 209.627 21.4462C209.402 13.553 213.961 8.49423 221.532 8.40976C226.983 8.35345 231.017 11.1409 232.743 15.9369C233.962 15.7586 235.182 15.5803 236.402 15.4019C234.441 9.55479 229.225 6.22295 221.738 6.29803Z" fill="black"/>
<path d="M257.867 4.61816C263.101 4.81526 268.336 5.07805 273.571 5.38777C277.061 20.4233 280.288 35.4776 283.262 50.5507C279.707 50.2785 276.151 50.0345 272.596 49.8092C272.033 46.8434 271.451 43.8776 270.869 40.9118C266.301 40.649 261.722 40.4238 257.144 40.2454C256.272 43.1362 255.409 46.0363 254.555 48.927C250.999 48.7956 247.434 48.6924 243.879 48.6173C248.288 33.9102 252.941 19.2407 257.857 4.61816H257.867ZM269.321 32.8215C269.106 31.7703 268.89 30.7286 268.674 29.6774C267.286 22.8166 266.507 17.251 265.691 12.1547C265.503 12.1547 265.315 12.1359 265.128 12.1265C263.814 17.1102 262.501 22.5726 260.447 29.2738C260.128 30.2968 259.809 31.3105 259.49 32.3335C262.764 32.4743 266.047 32.6338 269.321 32.8121V32.8215Z" fill="black"/>
<path d="M283.029 53.676C279.492 53.4039 275.955 53.1598 272.409 52.944C270.955 52.8501 269.735 51.799 269.463 50.3817C269.041 48.2231 268.619 46.0644 268.178 43.9058C265.298 43.7462 262.418 43.6054 259.537 43.4834C258.899 45.5858 258.262 47.6975 257.633 49.8092C257.22 51.1889 255.907 52.1181 254.453 52.0711C250.907 51.9397 247.36 51.8459 243.824 51.7708C242.829 51.752 241.9 51.2734 241.309 50.485C240.718 49.6966 240.531 48.683 240.812 47.735C245.156 33.0092 249.762 18.3116 254.622 3.67024C255.072 2.31873 256.451 1.40834 257.989 1.47404C263.252 1.68052 268.506 1.93393 273.76 2.24365C275.298 2.3375 276.584 3.36991 276.902 4.75896C280.327 19.8039 283.498 34.8769 286.415 49.9594C286.603 50.9261 286.321 51.921 285.655 52.6436C284.989 53.3757 284.023 53.7511 283.029 53.676ZM275.298 46.8153C276.63 46.8997 277.972 46.9936 279.304 47.0874C276.659 34.1636 273.825 21.2586 270.805 8.37236C267.315 8.17527 263.825 8.00633 260.325 7.85616C256.076 20.3952 252.023 32.9623 248.148 45.567C249.49 45.6045 250.831 45.6421 252.164 45.689C252.783 43.5773 253.402 41.4655 254.031 39.3538C254.443 37.9648 255.775 37.0356 257.267 37.0919C261.864 37.2702 266.461 37.4955 271.048 37.7677C272.54 37.8521 273.778 38.9127 274.051 40.3299C274.473 42.4886 274.885 44.6566 275.289 46.8153H275.298ZM269.144 35.9563C265.879 35.778 262.615 35.6184 259.35 35.4776C258.346 35.4401 257.417 34.952 256.826 34.1637C256.235 33.3753 256.057 32.371 256.338 31.4325C256.648 30.4095 256.967 29.3864 257.276 28.3634C258.918 22.9105 260.11 18.1802 261.16 14.0036C261.386 13.1214 261.611 12.2392 261.836 11.3569C262.211 9.9022 263.647 8.89795 265.26 8.97303C265.448 8.97303 265.635 8.99181 265.823 9.00119C267.437 9.07627 268.769 10.2119 269.003 11.7042C269.144 12.6052 269.275 13.5062 269.416 14.3978C270.063 18.6495 270.786 23.483 271.893 29.0861C272.109 30.1279 272.315 31.1697 272.531 32.2115C272.728 33.1688 272.446 34.1543 271.78 34.8769C271.114 35.609 270.138 36.0032 269.135 35.9469L269.144 35.9563ZM263.834 29.3771C264.313 29.3958 264.791 29.424 265.27 29.4428C265.063 28.4385 264.875 27.453 264.697 26.4957C264.425 27.4249 264.134 28.3916 263.834 29.3677V29.3771Z" fill="black"/>
<path d="M291.819 6.68419C298.461 7.23793 305.094 7.88553 311.726 8.6176C321.689 9.72508 326.296 15.3094 325.132 24.0004C324.382 29.7349 321.643 33.5548 317.139 35.1128C319.288 41.6545 321.371 48.2055 323.369 54.766C319.916 54.3061 316.473 53.865 313.012 53.452C311.595 47.5673 310.122 41.6826 308.602 35.8073C305.441 35.4601 302.289 35.1316 299.127 34.8218C298.583 40.4719 298.029 46.122 297.485 51.7626C294.361 51.4623 291.237 51.1807 288.113 50.9179C289.342 36.1734 290.581 21.4194 291.81 6.6748L291.819 6.68419ZM309.25 27.5293C312.711 27.9141 314.766 26.0934 315.179 22.6489C315.582 19.2607 313.978 16.9988 310.451 16.614C307.298 16.2668 304.156 15.9383 301.003 15.6379C300.647 19.2795 300.3 22.9211 299.943 26.572C303.049 26.8723 306.154 27.1915 309.259 27.5387L309.25 27.5293Z" fill="black"/>
<path d="M322.947 57.8904C319.514 57.4305 316.08 56.9894 312.637 56.5859C311.305 56.4263 310.207 55.469 309.898 54.1832C308.631 49.0212 307.327 43.8592 305.986 38.7065C304.682 38.5657 303.378 38.4343 302.074 38.2936C301.605 42.8924 301.136 47.5007 300.676 52.0996C300.498 53.8265 298.94 55.0842 297.186 54.9152C294.081 54.6149 290.966 54.3333 287.851 54.0705C286.097 53.9204 284.784 52.4093 284.924 50.673C286.088 35.919 287.26 21.1651 288.424 6.41111C288.555 4.6748 290.197 3.38899 292.073 3.54854C298.743 4.10228 305.404 4.74988 312.065 5.49133C323.782 6.79591 329.89 14.0321 328.445 24.4406C327.516 31.2451 324.317 34.8397 321.099 36.7637C322.938 42.4701 324.711 48.1765 326.437 53.8828C326.747 54.9059 326.503 56.0133 325.799 56.8205C325.096 57.6276 324.017 58.0312 322.947 57.8811V57.8904ZM315.62 50.6073C316.699 50.7387 317.769 50.8701 318.848 51.0109C317.281 46.0178 315.667 41.0247 314.007 36.0411C313.472 34.4361 314.335 32.728 315.977 32.1555C319.26 31.0104 321.231 28.1385 321.812 23.5771C322.713 16.5662 319.307 12.6337 311.371 11.7514C305.892 11.1414 300.413 10.597 294.925 10.1184C293.809 22.77 292.692 35.4216 291.576 48.0732C292.58 48.1577 293.583 48.2516 294.578 48.3454C295 43.7371 295.432 39.1289 295.854 34.53C296.013 32.8031 297.608 31.5266 299.419 31.705C302.59 32.0147 305.77 32.3432 308.941 32.6904C310.32 32.8406 311.455 33.8073 311.783 35.0931C313.097 40.2645 314.373 45.4359 315.611 50.6073H315.62ZM308.894 30.6632C305.808 30.3253 302.712 30.0062 299.625 29.7059C297.815 29.5275 296.464 27.9883 296.623 26.2614C296.961 22.6198 297.299 18.9689 297.636 15.3273C297.796 13.6004 299.428 12.3333 301.295 12.5117C304.457 12.8214 307.627 13.1499 310.789 13.4971C316.118 14.0884 319.139 17.8708 318.491 23.0609C317.844 28.2887 314.082 31.2451 308.903 30.6726L308.894 30.6632ZM303.547 23.7649C305.564 23.9713 307.571 24.1778 309.579 24.4031C310.564 24.5063 311.577 24.6283 311.84 22.2726C312.102 19.9731 311.08 19.8511 310.085 19.7479C308.059 19.5226 306.033 19.3068 304.016 19.1097C303.856 20.6676 303.697 22.2162 303.547 23.7742V23.7649Z" fill="black"/>
<path d="M334.343 11.4707C344.522 12.9067 354.673 14.5585 364.805 16.4168C364.326 19.0354 363.848 21.6539 363.37 24.2725C356.643 23.043 349.898 21.898 343.143 20.8562C342.646 24.0379 342.158 27.2289 341.661 30.4106C347.552 31.321 353.444 32.3065 359.326 33.367C358.857 35.9856 358.388 38.6041 357.91 41.232C352.093 40.1809 346.267 39.2142 340.441 38.3038C339.897 41.8139 339.353 45.3335 338.809 48.8437C345.629 49.9042 352.431 51.0586 359.223 52.3069C358.735 54.963 358.247 57.6097 357.75 60.2658C347.909 58.445 338.03 56.8401 328.133 55.4417C330.206 40.7909 332.27 26.1308 334.334 11.4801L334.343 11.4707Z" fill="black"/>
<path d="M357.188 63.3528C347.384 61.5414 337.552 59.9365 327.702 58.5474C325.957 58.3034 324.728 56.7079 324.962 54.9903C326.961 40.3302 328.968 25.6607 330.966 11.0006C331.201 9.2737 332.908 8.09113 334.785 8.35393C345.001 9.79929 355.208 11.4511 365.368 13.3188C367.235 13.6567 368.483 15.3273 368.154 17.0355L366.682 24.8817C366.363 26.5899 364.618 27.6974 362.798 27.3595C357.197 26.3365 351.596 25.3698 345.977 24.4782C345.798 25.5857 345.62 26.7025 345.442 27.81C350.255 28.5796 355.067 29.3962 359.88 30.2596C361.7 30.5881 362.92 32.2493 362.601 33.9575C362.113 36.576 361.634 39.1946 361.146 41.8131C360.828 43.5213 359.129 44.6382 357.347 44.3191C352.638 43.4744 347.919 42.6672 343.19 41.9164C342.965 43.3524 342.731 44.7977 342.506 46.2337C348.275 47.1535 354.035 48.1483 359.786 49.2089C361.559 49.5374 362.732 51.1986 362.413 52.8974C361.916 55.5441 361.409 58.2002 360.912 60.8469C360.584 62.555 358.914 63.6719 357.178 63.3528H357.188ZM331.773 52.7754C339.579 53.911 347.375 55.1874 355.161 56.5859C355.264 55.9946 355.377 55.4033 355.48 54.8214C349.776 53.7984 344.063 52.8411 338.34 51.9495C336.576 51.6773 335.357 50.0724 335.61 48.3454C336.136 44.8259 336.67 41.3157 337.196 37.7962C337.449 36.0786 339.128 34.9054 340.929 35.187C345.695 35.9285 350.461 36.7168 355.217 37.5428C355.311 36.989 355.414 36.4353 355.508 35.8721C350.742 35.0368 345.967 34.2485 341.192 33.507C339.382 33.2254 338.124 31.6111 338.387 29.8936C338.866 26.7025 339.344 23.5209 339.822 20.3298C340.076 18.6123 341.793 17.4391 343.641 17.73C349.307 18.6122 354.964 19.5508 360.612 20.5644C360.715 20.0107 360.809 19.4569 360.912 18.9032C353.05 17.4954 345.17 16.219 337.28 15.0739C335.451 27.6411 333.612 40.2082 331.783 52.7848L331.773 52.7754Z" fill="black"/>
<path d="M372.65 17.8896C382.763 19.8512 392.838 22.0286 402.886 24.4126C402.276 27.0029 401.657 29.5933 401.047 32.1837C394.377 30.5976 387.679 29.1053 380.98 27.7162C380.324 30.8698 379.667 34.0233 379.01 37.1768C384.864 38.3969 390.709 39.6921 396.535 41.053C395.925 43.6434 395.324 46.2338 394.715 48.8336C388.945 47.4821 383.166 46.2056 377.378 45.0043C376.655 48.4863 375.933 51.9683 375.201 55.4503C381.975 56.8581 388.729 58.3692 395.465 59.9741C394.837 62.6021 394.217 65.2206 393.589 67.8485C383.823 65.5209 374.019 63.3998 364.188 61.4852C367.011 46.9565 369.826 32.4277 372.65 17.899V17.8896Z" fill="black"/>
<path d="M392.859 70.8982C383.139 68.58 373.383 66.4683 363.588 64.563C361.853 64.2251 360.708 62.5733 361.037 60.8651C363.795 46.327 366.544 31.7795 369.302 17.2414C369.621 15.5333 371.394 14.4352 373.251 14.7918C383.402 16.7628 393.525 18.9496 403.619 21.3429C405.467 21.784 406.63 23.5109 406.218 25.2003C405.589 27.7907 404.97 30.3717 404.341 32.9621C403.929 34.6515 402.137 35.6651 400.326 35.2334C394.772 33.9194 389.209 32.6618 383.637 31.4792C383.402 32.5773 383.167 33.6754 382.933 34.7829C387.717 35.8059 392.493 36.8665 397.258 37.9833C399.069 38.4057 400.204 40.1232 399.791 41.8126C399.172 44.403 398.553 46.9934 397.934 49.5838C397.53 51.2732 395.767 52.3056 394.003 51.8926C389.331 50.7945 384.65 49.7527 379.959 48.7579C379.659 50.1845 379.349 51.611 379.049 53.0376C384.781 54.2578 390.494 55.5529 396.198 56.9138C397.962 57.3362 399.05 59.0537 398.637 60.7431C398 63.3617 397.362 65.9802 396.724 68.6081C396.311 70.2975 394.585 71.3299 392.859 70.917V70.8982ZM367.96 59.0068C375.719 60.546 383.458 62.226 391.17 64.028C391.311 63.4461 391.442 62.8642 391.583 62.2823C385.926 60.959 380.25 59.7013 374.565 58.5188C372.82 58.1527 371.675 56.4821 372.022 54.7833C372.735 51.3013 373.439 47.8193 374.152 44.3279C374.499 42.6292 376.235 41.5404 378.026 41.9159C382.764 42.9013 387.483 43.9337 392.211 45.0131C392.333 44.4593 392.464 43.915 392.586 43.3612C387.858 42.2819 383.121 41.2401 378.374 40.2546C376.582 39.8792 375.4 38.1992 375.747 36.5004C376.385 33.3469 377.032 30.184 377.67 27.0305C378.017 25.3223 379.781 24.2524 381.62 24.6278C387.248 25.801 392.859 27.0399 398.469 28.3445C398.6 27.7907 398.722 27.2464 398.853 26.6926C391.057 24.8812 383.233 23.1918 375.4 21.6338C372.923 34.0884 370.446 46.5523 367.97 59.0068H367.96Z" fill="black"/>
<path d="M410.661 26.2984C417.172 27.9127 423.664 29.6209 430.147 31.4135C439.884 34.1259 443.581 40.386 441.048 48.7673C439.387 54.3047 436.057 57.6365 431.329 58.4531C432.436 65.2669 433.458 72.0714 434.406 78.8759C431.047 77.8622 427.679 76.8674 424.311 75.9007C423.833 69.8564 423.307 63.8122 422.726 57.7679C419.639 56.9139 416.553 56.0786 413.457 55.262C412.012 60.7525 410.577 66.243 409.132 71.7241C406.074 70.917 403.015 70.138 399.957 69.3778C403.522 55.018 407.087 40.6488 410.661 26.2891V26.2984ZM424.677 49.6964C428.064 50.635 430.39 49.1709 431.347 45.839C432.286 42.5541 431.047 40.0669 427.604 39.1096C424.527 38.2555 421.45 37.4296 418.363 36.6131C417.435 40.1514 416.506 43.6897 415.577 47.2374C418.617 48.0352 421.647 48.8517 424.687 49.6964H424.677Z" fill="black"/>
<path d="M433.496 81.8883C430.156 80.8747 426.798 79.8892 423.448 78.9225C422.154 78.5471 421.216 77.4302 421.103 76.1069C420.662 70.8041 420.184 65.5013 419.668 60.1891C418.392 59.8419 417.116 59.4946 415.84 59.1567C414.649 63.6242 413.448 68.0917 412.256 72.5592C411.806 74.2392 410.052 75.2247 408.335 74.7742C405.295 73.9764 402.246 73.1974 399.197 72.4372C397.481 72.0054 396.421 70.2973 396.824 68.6079C400.323 54.2294 403.822 39.8508 407.331 25.4723C407.744 23.7829 409.573 22.7786 411.412 23.2385C417.951 24.8622 424.471 26.5797 430.972 28.3818C442.418 31.5634 447.352 39.7006 444.266 49.7525C442.258 56.3223 438.506 59.3538 435.006 60.7335C435.926 66.6651 436.798 72.5873 437.605 78.5096C437.755 79.5701 437.333 80.6213 436.498 81.3064C435.663 81.9916 434.537 82.2075 433.487 81.8883H433.496ZM427.361 73.5071C428.411 73.8075 429.462 74.1172 430.503 74.4269C429.734 69.2367 428.918 64.0559 428.064 58.8658C427.783 57.1952 428.918 55.6466 430.644 55.3462C434.087 54.7456 436.507 52.2302 437.811 47.8191C439.819 41.0428 437.052 36.6128 429.302 34.4542C423.955 32.9713 418.589 31.5447 413.213 30.1838C410.099 42.4975 406.975 54.8113 403.86 67.125C404.845 67.369 405.821 67.6224 406.806 67.8758C407.96 63.399 409.114 58.9221 410.268 54.4358C410.699 52.7558 412.491 51.761 414.264 52.2209C417.369 53.0374 420.475 53.8727 423.57 54.7362C424.912 55.1116 425.897 56.2472 426.019 57.5706C426.507 62.8828 426.957 68.1949 427.37 73.5071H427.361ZM423.833 52.7277C420.812 51.8924 417.791 51.0758 414.771 50.2781C412.998 49.8088 411.909 48.0725 412.341 46.3925C413.251 42.8448 414.17 39.3064 415.08 35.7587C415.512 34.0787 417.341 33.0933 419.161 33.5719C422.257 34.3885 425.353 35.2238 428.439 36.0778C433.637 37.5138 436.048 41.7467 434.584 46.7679C433.111 51.8267 428.899 54.1355 423.833 52.7277ZM419.611 45.0504C421.582 45.5759 423.552 46.1109 425.512 46.6553C426.469 46.9181 427.464 47.1996 428.102 44.919C428.73 42.6852 427.726 42.4037 426.76 42.1409C424.781 41.5965 422.801 41.0521 420.822 40.5266C420.418 42.0376 420.015 43.5487 419.611 45.0504Z" fill="black"/>
<path d="M10.332 36.1999C12.0957 35.6556 13.8688 35.1206 15.6419 34.5856C15.6419 34.5669 15.6325 34.5481 15.6232 34.5387C20.2764 33.1403 24.9389 31.7982 29.6203 30.4936C38.8798 27.922 45.6625 31.2163 47.445 38.2366C48.3925 41.9532 47.2011 45.6136 44.396 47.9881C49.1712 48.6826 52.6705 51.9769 53.74 56.2098C55.7757 64.3188 51.7605 70.5039 43.092 72.8878C36.5063 74.7086 29.9392 76.6232 23.391 78.6317C19.038 64.4878 14.6944 50.3439 10.3414 36.1906L10.332 36.1999ZM33.1852 48.1007C38.0636 46.7398 38.664 44.4686 37.9041 41.6717C37.1536 38.8842 34.9958 37.6078 32.2189 38.3868C28.8979 39.3065 25.5863 40.2545 22.284 41.2212C23.1846 44.2996 24.0852 47.3687 24.9858 50.4471C27.7158 49.6493 30.4458 48.861 33.1852 48.1007ZM41.2439 64.7881C43.9082 64.056 45.034 61.7472 44.1897 58.5937C43.3453 55.4496 41.1313 53.7508 36.2905 55.0929C33.2321 55.947 30.1738 56.8198 27.1154 57.7115C28.1099 61.1278 29.1137 64.5347 30.1081 67.951C33.8138 66.8623 37.5195 65.8111 41.2345 64.7881H41.2439Z" fill="#F9D549"/>
<path d="M62.9889 22.085C68.1112 20.9118 73.2429 19.7949 78.3839 18.7344C85.6639 32.3433 92.7 46.0367 99.4734 59.824C95.9741 60.481 92.4842 61.1661 88.9849 61.8794C87.6621 59.167 86.3393 56.4546 85.0072 53.7422C80.5229 54.6714 76.0385 55.6474 71.5636 56.6705C71.4698 59.6926 71.3947 62.7147 71.3197 65.7274C67.8391 66.5346 64.368 67.3605 60.9062 68.224C61.3378 52.8694 62.032 37.4866 62.9795 22.085H62.9889ZM81.4047 46.3371C80.9263 45.3797 80.4384 44.4318 79.96 43.4745C76.8359 37.205 74.6313 32.043 72.5111 27.3409C72.3235 27.3784 72.1452 27.4253 71.9576 27.4629C71.9857 32.6155 72.1358 38.2374 71.8919 45.239C71.845 46.3089 71.8075 47.3788 71.77 48.4394C74.9784 47.7167 78.1869 47.0222 81.4047 46.3371Z" fill="#F9D549"/>
<path d="M96.568 15.2042C99.4575 14.6786 102.347 14.1812 105.236 13.6932C111.044 21.7365 116.701 29.8456 122.207 38.0109C122.329 37.9922 122.461 37.9734 122.583 37.9546C125.444 28.5316 128.465 19.118 131.645 9.7231C134.544 9.3383 137.452 8.97226 140.361 8.625C142.124 23.3227 143.888 38.0109 145.642 52.7086C142.659 53.0652 139.685 53.4406 136.711 53.8348C135.942 48.0722 135.182 42.3095 134.413 36.5468C134.075 33.9939 133.794 29.7892 133.822 27.0299C131.795 34.069 129.844 41.1081 127.977 48.1566C125.331 48.5414 122.686 48.9356 120.04 49.3486C116.185 43.1636 112.254 37.0067 108.238 30.878C109.073 33.5059 110.04 37.6073 110.462 40.1508C111.419 45.8853 112.385 51.6199 113.342 57.3544C110.377 57.8518 107.413 58.368 104.458 58.903C101.822 44.3367 99.1948 29.7799 96.5586 15.2136L96.568 15.2042Z" fill="#F9D549"/>
<path d="M149.027 7.63076C156.007 6.87992 162.996 6.22294 169.995 5.65981C179.949 4.88082 185.493 9.49847 186.018 18.7713C186.544 28.1193 181.778 33.2531 172.246 33.9946C168.7 34.2761 165.154 34.5858 161.617 34.9237C162.114 40.2265 162.621 45.5293 163.118 50.8227C160.013 51.1137 156.898 51.4328 153.793 51.7706C152.208 37.0542 150.613 22.3378 149.027 7.63076ZM171.205 25.7541C174.657 25.4819 176.327 23.3045 176.037 19.3251C175.755 15.3925 173.766 13.4779 170.248 13.7595C166.73 14.041 163.221 14.3508 159.703 14.6793C160.079 18.6681 160.454 22.6663 160.839 26.6551C164.291 26.3266 167.753 26.0263 171.205 25.7541Z" fill="#F9D549"/>
<path d="M203.019 31.3289C202.888 27.7437 202.757 24.1491 202.635 20.5638C202.166 8.60671 209.427 2.54369 221.642 2.4123C231.97 2.31844 239.053 7.91218 240.264 17.2883C236.868 17.7575 233.481 18.255 230.104 18.7806C229.4 13.7875 226.539 10.7841 221.491 10.8311C216.219 10.8874 212.757 14.0691 212.917 20.6389C212.992 24.1584 213.067 27.678 213.151 31.1975C213.292 37.0353 216.482 40.2076 221.951 40.1513C227.486 40.1044 230.01 37.392 230.46 31.9202C233.828 32.2769 237.196 32.6617 240.555 33.0653C239.766 43.1077 233.894 48.5137 222.026 48.6076C210.271 48.739 203.479 43.1077 203.01 31.3383L203.019 31.3289Z" fill="#F9D549"/>
<path d="M257.892 3.89551C263.108 4.10199 268.324 4.3554 273.54 4.6745C277.002 19.71 280.201 34.7643 283.137 49.8374C279.6 49.5652 276.063 49.3118 272.517 49.096C271.954 46.1301 271.382 43.1643 270.81 40.1985C266.26 39.9263 261.7 39.7011 257.15 39.5228C256.278 42.4135 255.415 45.3136 254.571 48.2043C251.024 48.0729 247.478 47.9697 243.941 47.8946C248.332 33.1876 252.985 18.5181 257.901 3.89551H257.892ZM269.271 32.1082C269.056 31.0571 268.84 30.0153 268.624 28.9641C267.245 22.1033 266.476 16.5377 265.669 11.4414C265.481 11.4414 265.294 11.4227 265.106 11.4133C263.793 16.397 262.479 21.8593 260.425 28.5512C260.106 29.5742 259.787 30.5878 259.468 31.6108C262.732 31.7516 265.997 31.9112 269.262 32.0989L269.271 32.1082Z" fill="#F9D549"/>
<path d="M291.944 6.00684C298.558 6.56996 305.172 7.22695 311.776 7.9684C321.702 9.09466 326.28 14.679 325.107 23.37C324.338 29.1045 321.608 32.915 317.114 34.473C319.244 41.024 321.299 47.5751 323.269 54.1356C319.835 53.6663 316.401 53.2252 312.968 52.8122C311.57 46.9275 310.125 41.0428 308.624 35.1675C305.481 34.8109 302.329 34.4824 299.186 34.1726C298.633 39.8227 298.07 45.4634 297.517 51.1134C294.411 50.8037 291.297 50.5221 288.191 50.2593C289.449 35.5148 290.706 20.7702 291.953 6.01622L291.944 6.00684ZM309.272 26.8801C312.724 27.2649 314.769 25.4535 315.191 22.0091C315.595 18.6209 314.009 16.359 310.491 15.9648C307.358 15.6176 304.215 15.2797 301.072 14.97C300.716 18.6115 300.35 22.2531 299.993 25.8947C303.089 26.2044 306.176 26.5235 309.272 26.8707V26.8801Z" fill="#F9D549"/>
<path d="M334.536 10.8779C344.678 12.3327 354.791 14.0033 364.876 15.8804C364.388 18.4989 363.9 21.1175 363.412 23.736C356.714 22.4878 349.997 21.3333 343.27 20.2728C342.773 23.4545 342.267 26.6361 341.769 29.8272C347.642 30.7564 353.506 31.7512 359.36 32.8212C358.881 35.4397 358.403 38.0583 357.924 40.6768C352.136 39.6163 346.338 38.6308 340.531 37.7204C339.978 41.2306 339.424 44.7407 338.871 48.2603C345.653 49.3302 352.436 50.494 359.191 51.7704C358.694 54.4171 358.196 57.0732 357.699 59.7199C347.905 57.8804 338.073 56.2567 328.223 54.8395C330.324 40.1888 332.426 25.538 334.527 10.8873L334.536 10.8779Z" fill="#F9D549"/>
<path d="M372.914 17.4199C382.98 19.4096 393.028 21.6152 403.028 24.0273C402.409 26.6177 401.78 29.2081 401.161 31.7891C394.519 30.1842 387.858 28.6825 381.179 27.2653C380.513 30.4188 379.847 33.5723 379.181 36.7258C385.006 37.9647 390.823 39.2693 396.63 40.649C396.011 43.2394 395.401 45.8298 394.782 48.4201C389.04 47.0592 383.29 45.7641 377.52 44.5439C376.788 48.026 376.047 51.4986 375.315 54.9806C382.051 56.4072 388.778 57.937 395.476 59.5607C394.838 62.1793 394.21 64.8072 393.572 67.4257C383.852 65.07 374.105 62.9207 364.32 60.9873C367.191 46.468 370.052 31.9486 372.923 17.4293L372.914 17.4199Z" fill="#F9D549"/>
<path d="M410.985 25.9889C417.467 27.6313 423.931 29.3583 430.386 31.1697C440.077 33.9102 443.735 40.1797 441.165 48.5609C439.476 54.089 436.146 57.4021 431.427 58.2092C432.487 65.0231 433.472 71.8275 434.382 78.632C431.042 77.5996 427.693 76.6047 424.344 75.6287C423.903 69.5938 423.406 63.5402 422.862 57.4959C419.794 56.6325 416.717 55.7878 413.64 54.9618C412.176 60.443 410.713 65.9241 409.249 71.4052C406.21 70.5887 403.17 69.8003 400.121 69.0307C403.742 54.6803 407.373 40.3299 410.994 25.9795L410.985 25.9889ZM424.841 49.4244C428.209 50.3723 430.545 48.9176 431.511 45.5857C432.459 42.3102 431.239 39.8137 427.815 38.847C424.757 37.9835 421.689 37.1482 418.612 36.3223C417.664 39.8606 416.726 43.3989 415.779 46.9279C418.8 47.735 421.82 48.5609 424.841 49.415V49.4244Z" fill="#F9D549"/>
<path d="M341.361 112.607H113.336V271.579H341.361V112.607Z" fill="white"/>
<path d="M341.363 273.456H113.337C112.305 273.456 111.461 272.611 111.461 271.579V112.608C111.461 111.575 112.305 110.73 113.337 110.73H341.363C342.395 110.73 343.239 111.575 343.239 112.608V271.579C343.239 272.611 342.395 273.456 341.363 273.456ZM115.214 269.702H339.486V114.485H115.214V269.702Z" fill="black"/>
<path d="M270.446 193.557C276.705 193.557 281.779 188.481 281.779 182.219C281.779 175.958 276.705 170.882 270.446 170.882C264.187 170.882 259.113 175.958 259.113 182.219C259.113 188.481 264.187 193.557 270.446 193.557Z" fill="black"/>
<path d="M184.259 193.557C190.517 193.557 195.591 188.481 195.591 182.219C195.591 175.958 190.517 170.882 184.259 170.882C178 170.882 172.926 175.958 172.926 182.219C172.926 188.481 178 193.557 184.259 193.557Z" fill="black"/>
<path d="M246.34 197.771C246.34 200.915 242.381 211.633 227.361 211.633C212.342 211.633 208.383 200.915 208.383 197.771C208.383 194.626 216.882 192.083 227.361 192.083C237.841 192.083 246.34 194.626 246.34 197.771Z" fill="#962222"/>
<path d="M227.351 213.51C211.44 213.51 206.496 201.975 206.496 197.771C206.496 192.571 217.304 190.206 227.351 190.206C237.399 190.206 248.206 192.571 248.206 197.771C248.206 201.975 243.262 213.51 227.351 213.51ZM227.351 193.96C216.206 193.96 210.521 196.738 210.239 197.79C210.239 199.629 213.401 209.747 227.351 209.747C241.301 209.747 244.435 199.789 244.453 197.78C244.144 196.72 238.468 193.96 227.351 193.96Z" fill="black"/>
<path d="M210.461 203.543C212.994 207.448 218.097 211.643 227.329 211.643C236.56 211.643 241.757 207.476 244.244 203.581C241.11 201.732 234.721 200.465 227.329 200.465C219.936 200.465 213.613 201.723 210.461 203.553V203.543Z" fill="#E55E5E"/>
<path d="M227.331 213.51C216.336 213.51 211.055 207.898 208.887 204.557C208.606 204.125 208.522 203.599 208.634 203.102C208.756 202.604 209.075 202.173 209.516 201.919C213.062 199.855 219.883 198.578 227.322 198.578C234.762 198.578 241.657 199.873 245.194 201.957C245.635 202.22 245.944 202.642 246.066 203.139C246.188 203.637 246.094 204.153 245.822 204.585C243.693 207.917 238.458 213.52 227.322 213.52L227.331 213.51ZM213.381 204.266C215.67 206.819 219.92 209.756 227.331 209.756C234.743 209.756 238.927 207.081 241.366 204.294C238.045 203.074 232.848 202.323 227.331 202.323C221.815 202.323 216.712 203.064 213.381 204.266Z" fill="black"/>
<path d="M199.036 346.671V349.946H202.076C203.108 349.946 203.943 350.594 203.943 351.589C203.943 352.762 203.108 353.691 202.076 353.691H199.036V349.946H194.824V364.926H203.014C206.11 364.926 208.624 362.87 208.624 359.782C208.624 357.643 207.198 356.009 205.303 355.193C205.303 355.09 205.303 355.08 205.303 354.977C206.748 354.339 207.686 353.175 207.686 351.354C207.686 348.313 205.172 346.671 202.076 346.671H199.036ZM202.545 361.181H199.036V356.967H202.076C203.483 356.967 204.881 357.905 204.881 359.304C204.881 360.702 203.577 361.171 202.545 361.171V361.181Z" fill="#373936"/>
<path d="M219.62 346.671H215.876L209.328 364.926H214.009L215.276 360.712H221.168L222.434 364.926H227.115L220.567 346.671H219.629H219.62ZM216.392 356.967L218.212 350.885L220.032 356.967H216.383H216.392Z" fill="#373936"/>
<path d="M240.476 363.987H236.732L233.092 354.414L232.867 354.461L232.98 355.587C233.299 358.684 233.458 361.8 233.458 364.926H229.246V346.671H233.927L238.609 358.9L243.29 346.671H247.971V364.926H243.759C243.759 361.81 243.919 358.694 244.238 355.587L244.35 354.461L244.125 354.414L240.485 363.987H240.476Z" fill="#373936"/>
<path d="M258.58 346.671H251.938V364.926H256.15V358.872C256.197 358.825 256.225 358.806 256.281 358.759C260.062 359.135 265.512 359.829 265.512 352.574C265.512 348.182 261.985 346.68 258.589 346.68L258.58 346.671ZM256.15 355.625V350.04H257.829C259.565 350.04 261.76 350.51 261.76 352.621C261.76 356.488 258.195 355.934 256.15 355.625Z" fill="#373936"/>
<path d="M197.169 343.864H192.957V348.078H197.169V343.864Z" fill="#ECBF47"/>
<path d="M206.973 302.015V329.12L227.809 338.496L248.645 329.12V302.015L227.809 292.639L206.973 302.015Z" fill="#373936"/>
<path d="M227.806 310.668L245.293 302.793L227.806 294.919L210.328 302.793L227.806 310.668Z" fill="#ECBF47"/>
<path d="M228.852 312.48V335.737L246.564 327.769V304.512L228.852 312.48Z" fill="white"/>
<path d="M226.767 312.48L209.055 304.512V327.769L226.767 335.737V312.48Z" fill="white"/>
</g>
<defs>
<clipPath id="clip0_429_305">
<rect width="455" height="359" fill="white"/>
</clipPath>
</defs>
</svg>
