<svg width="100%" viewBox="0 0 297 138" fill="none" xmlns="http://www.w3.org/2000/svg">
<path d="M62.12 64.72H59.48V46.3H62.12V64.72ZM53.98 51.26C53.98 52.0067 54.0733 52.76 54.26 53.52C54.4467 54.2667 54.7267 54.9733 55.1 55.64C55.4867 56.3067 55.96 56.9067 56.52 57.44C57.0933 57.9733 57.7667 58.4 58.54 58.72L57.1 60.8C56.02 60.3333 55.1133 59.68 54.38 58.84C53.66 57.9867 53.0933 56.9933 52.68 55.86C52.2667 57.0733 51.6867 58.1533 50.94 59.1C50.2067 60.0467 49.3 60.7667 48.22 61.26L46.72 59.16C47.4933 58.8133 48.1667 58.3533 48.74 57.78C49.3133 57.2067 49.7867 56.5733 50.16 55.88C50.5467 55.1733 50.8333 54.4267 51.02 53.64C51.2067 52.84 51.3 52.0467 51.3 51.26V50.24H47.46V48.06H57.78V50.24H53.98V51.26ZM82.1984 53.68H79.7584V59.54H77.1184V46.3H79.7584V51.46H82.1984V53.68ZM76.0184 55.76C74.4851 56.0667 73.0251 56.28 71.6384 56.4C70.2651 56.5067 68.9118 56.56 67.5784 56.56H65.9984V47.52H68.6384V54.36C69.7718 54.3333 70.9184 54.2733 72.0784 54.18C73.2384 54.0733 74.4451 53.8933 75.6984 53.64L76.0184 55.76ZM80.3584 62.3V64.4H67.8984V58.32H70.5384V62.3H80.3584ZM92.2481 50.5L91.7481 53.42C92.0548 53.3667 92.3481 53.3333 92.6281 53.32C92.9215 53.2933 93.2015 53.28 93.4681 53.28C94.2681 53.28 94.9748 53.4 95.5881 53.64C96.2015 53.88 96.7148 54.2133 97.1281 54.64C97.5415 55.0533 97.8548 55.5467 98.0681 56.12C98.2815 56.68 98.3881 57.2933 98.3881 57.96C98.3881 58.76 98.2415 59.4933 97.9481 60.16C97.6681 60.8267 97.2748 61.4 96.7681 61.88C96.2615 62.3467 95.6615 62.7133 94.9681 62.98C94.2748 63.2333 93.5281 63.36 92.7281 63.36C91.8081 63.36 90.9548 63.18 90.1681 62.82C89.3815 62.46 88.7348 62.04 88.2281 61.56L89.6281 59.52C90.0948 59.9067 90.5948 60.2467 91.1281 60.54C91.6615 60.8333 92.2481 60.98 92.8881 60.98C93.8081 60.98 94.5081 60.72 94.9881 60.2C95.4681 59.6667 95.7081 58.96 95.7081 58.08C95.7081 57.28 95.4748 56.6533 95.0081 56.2C94.5415 55.7467 93.8481 55.5333 92.9281 55.56C92.5548 55.5867 92.1881 55.64 91.8281 55.72C91.4681 55.7867 91.1081 55.8867 90.7481 56.02L89.0681 55.52C89.3748 53.5867 89.6281 52.02 89.8281 50.82C90.0415 49.6067 90.2015 48.68 90.3081 48.04H97.8681V50.5H92.2481ZM108.402 53.86V51.78H112.862V50.42H108.402V48.34H112.862V46.3H115.502V59.84H112.862V53.86H108.402ZM110.502 56.88C109.142 57.1333 107.822 57.3 106.542 57.38C105.276 57.4467 103.956 57.48 102.582 57.48H101.102V47.46H103.722V55.32C104.842 55.2933 105.922 55.24 106.962 55.16C108.016 55.08 109.109 54.94 110.242 54.74L110.502 56.88ZM115.922 64.4H103.362V58.64H106.002V62.3H115.922V64.4ZM139.972 53.6H137.512V59.48H134.872V46.3H137.512V51.44H139.972V53.6ZM132.552 47.68C132.552 50.1867 131.812 52.2867 130.332 53.98C128.852 55.6733 126.739 56.92 123.992 57.72L122.892 55.62C124.985 55.06 126.585 54.2733 127.692 53.26C128.812 52.2333 129.479 51.0733 129.692 49.78H123.692V47.68H132.552ZM138.152 62.3V64.4H125.632V58.16H128.272V62.3H138.152ZM156.79 64.76H154.15V46.28H156.79V64.76ZM147.35 47.52C148.07 47.52 148.737 47.6333 149.35 47.86C149.977 48.0867 150.517 48.4 150.97 48.8C151.424 49.2 151.777 49.68 152.03 50.24C152.297 50.7867 152.43 51.3933 152.43 52.06C152.43 52.7133 152.297 53.32 152.03 53.88C151.777 54.44 151.424 54.92 150.97 55.32C150.517 55.72 149.977 56.0333 149.35 56.26C148.737 56.4867 148.07 56.6 147.35 56.6C146.63 56.6 145.957 56.4867 145.33 56.26C144.717 56.0333 144.184 55.72 143.73 55.32C143.29 54.92 142.937 54.44 142.67 53.88C142.417 53.32 142.29 52.7133 142.29 52.06C142.29 51.3933 142.417 50.7867 142.67 50.24C142.937 49.68 143.29 49.2 143.73 48.8C144.184 48.4 144.717 48.0867 145.33 47.86C145.957 47.6333 146.63 47.52 147.35 47.52ZM147.35 49.78C146.63 49.78 146.03 49.98 145.55 50.38C145.084 50.78 144.85 51.34 144.85 52.06C144.85 52.78 145.084 53.34 145.55 53.74C146.03 54.14 146.63 54.34 147.35 54.34C148.07 54.34 148.664 54.14 149.13 53.74C149.61 53.34 149.85 52.78 149.85 52.06C149.85 51.34 149.61 50.78 149.13 50.38C148.664 49.98 148.07 49.78 147.35 49.78ZM141.51 58.88C142.324 58.88 143.204 58.88 144.15 58.88C145.097 58.8667 146.077 58.84 147.09 58.8C148.104 58.76 149.124 58.7 150.15 58.62C151.177 58.54 152.177 58.4267 153.15 58.28L153.31 60.18C152.324 60.38 151.317 60.54 150.29 60.66C149.277 60.7667 148.277 60.8467 147.29 60.9C146.304 60.9533 145.35 60.9867 144.43 61C143.51 61.0133 142.65 61.02 141.85 61.02L141.51 58.88ZM179.42 54.96C177.807 54.72 176.433 54.2533 175.3 53.56C174.18 52.8533 173.32 52 172.72 51C172.12 52 171.253 52.8533 170.12 53.56C168.987 54.2533 167.613 54.72 166 54.96L165 52.84C166.053 52.6933 166.973 52.4467 167.76 52.1C168.547 51.7533 169.2 51.3467 169.72 50.88C170.253 50.4 170.647 49.8867 170.9 49.34C171.167 48.7933 171.3 48.2533 171.3 47.72V46.84H174.12V47.72C174.12 48.2533 174.253 48.7933 174.52 49.34C174.787 49.8867 175.18 50.4 175.7 50.88C176.233 51.3467 176.893 51.7533 177.68 52.1C178.467 52.4467 179.38 52.6933 180.42 52.84L179.42 54.96ZM173.96 58.46V64.74H171.32V58.46H164.38V56.32H181.02V58.46H173.96ZM199.698 52.76H197.258V57.2H194.618V46.32H197.258V50.58H199.698V52.76ZM192.238 56.5C191.265 56.18 190.438 55.7267 189.758 55.14C189.092 54.5533 188.565 53.86 188.178 53.06C187.778 53.98 187.218 54.78 186.498 55.46C185.792 56.14 184.912 56.66 183.858 57.02L182.478 54.94C183.252 54.6867 183.912 54.3533 184.458 53.94C185.005 53.5133 185.452 53.04 185.798 52.52C186.145 51.9867 186.398 51.42 186.558 50.82C186.718 50.2067 186.798 49.5867 186.798 48.96V47.3H189.478V49.18C189.478 49.74 189.558 50.2867 189.718 50.82C189.878 51.3533 190.125 51.8533 190.458 52.32C190.792 52.7733 191.218 53.1867 191.738 53.56C192.272 53.9333 192.898 54.2333 193.618 54.46L192.238 56.5ZM191.238 57.62C192.198 57.62 193.058 57.7 193.818 57.86C194.592 58.02 195.245 58.2533 195.778 58.56C196.325 58.8667 196.738 59.24 197.018 59.68C197.312 60.1067 197.458 60.6 197.458 61.16C197.458 61.72 197.312 62.22 197.018 62.66C196.738 63.1 196.325 63.4733 195.778 63.78C195.245 64.0867 194.592 64.32 193.818 64.48C193.058 64.64 192.198 64.72 191.238 64.72C190.278 64.72 189.412 64.64 188.638 64.48C187.865 64.32 187.205 64.0867 186.658 63.78C186.125 63.4733 185.712 63.1 185.418 62.66C185.138 62.22 184.998 61.72 184.998 61.16C184.998 60.6 185.138 60.1067 185.418 59.68C185.712 59.24 186.125 58.8667 186.658 58.56C187.205 58.2533 187.865 58.02 188.638 57.86C189.412 57.7 190.278 57.62 191.238 57.62ZM191.238 62.68C192.412 62.68 193.305 62.56 193.918 62.32C194.532 62.0667 194.838 61.68 194.838 61.16C194.838 60.6533 194.532 60.28 193.918 60.04C193.305 59.7867 192.412 59.66 191.238 59.66C188.825 59.66 187.618 60.16 187.618 61.16C187.618 62.1733 188.825 62.68 191.238 62.68ZM221.028 64.7H218.368V46.28H221.028V64.7ZM215.548 48.2C215.548 49.6 215.415 50.94 215.148 52.22C214.881 53.5 214.421 54.7067 213.768 55.84C213.128 56.96 212.268 58.0067 211.188 58.98C210.108 59.94 208.748 60.8133 207.108 61.6L205.728 59.52C206.901 58.96 207.915 58.36 208.768 57.72C209.621 57.0667 210.335 56.36 210.908 55.6C211.481 54.84 211.921 54.02 212.228 53.14C212.548 52.26 212.755 51.3133 212.848 50.3H206.708V48.2H215.548ZM240.767 58.26H224.087V56.16H231.107V54.84H226.167V49.78H236.127V48.66H226.127V46.66H238.727V51.64H228.767V52.84H239.107V54.84H233.747V56.16H240.767V58.26ZM238.847 59.3V64.66H236.207V61.38H225.927V59.3H238.847ZM245.745 60.46L244.265 64.64H242.005L242.825 60.46H245.745ZM61.28 80.28V89.76H58.64V71.3H61.28V78.1H63.96V80.28H61.28ZM50.2 83.14C51.5067 83.1267 52.7333 83.08 53.88 83C55.0267 82.9067 56.1933 82.76 57.38 82.56L57.64 84.74C56.9467 84.86 56.26 84.96 55.58 85.04C54.9133 85.12 54.2333 85.18 53.54 85.22C52.86 85.26 52.1533 85.2933 51.42 85.32C50.7 85.3333 49.94 85.34 49.14 85.34H47.56V73H56.16V75.14H50.2V83.14ZM73.5784 71.66C74.6051 71.66 75.5251 71.7467 76.3384 71.92C77.1651 72.08 77.8651 72.3133 78.4384 72.62C79.0251 72.9267 79.4718 73.3 79.7784 73.74C80.0984 74.18 80.2584 74.68 80.2584 75.24C80.2584 75.8 80.0984 76.3 79.7784 76.74C79.4718 77.18 79.0251 77.56 78.4384 77.88C77.8651 78.1867 77.1651 78.42 76.3384 78.58C75.5251 78.74 74.6051 78.82 73.5784 78.82C72.5651 78.82 71.6451 78.74 70.8184 78.58C70.0051 78.42 69.3051 78.1867 68.7184 77.88C68.1451 77.56 67.6984 77.18 67.3784 76.74C67.0718 76.3 66.9184 75.8 66.9184 75.24C66.9184 74.68 67.0718 74.18 67.3784 73.74C67.6984 73.3 68.1451 72.9267 68.7184 72.62C69.3051 72.3133 70.0051 72.08 70.8184 71.92C71.6451 71.7467 72.5651 71.66 73.5784 71.66ZM73.5784 73.68C72.3251 73.68 71.3518 73.8133 70.6584 74.08C69.9784 74.3333 69.6384 74.72 69.6384 75.24C69.6384 75.76 69.9784 76.1533 70.6584 76.42C71.3518 76.6733 72.3251 76.8 73.5784 76.8C74.8718 76.8 75.8518 76.6733 76.5184 76.42C77.1984 76.1533 77.5384 75.76 77.5384 75.24C77.5384 74.72 77.1984 74.3333 76.5184 74.08C75.8518 73.8133 74.8718 73.68 73.5784 73.68ZM81.8984 81.96H65.2584V79.88H81.8984V81.96ZM79.9184 89.5H67.1984V83.26H79.9184V89.5ZM69.7784 87.44H77.3184V85.32H69.7784V87.44ZM88.9881 78.36C89.9348 78.24 90.7615 78.0467 91.4681 77.78C92.1881 77.5133 92.7948 77.2 93.2881 76.84C93.7948 76.48 94.1815 76.0867 94.4481 75.66C94.7281 75.22 94.9015 74.78 94.9681 74.34H89.6681V72.24H103.328V74.34H98.1081C98.1748 74.78 98.3415 75.22 98.6081 75.66C98.8881 76.0867 99.2748 76.48 99.7681 76.84C100.261 77.2 100.861 77.5133 101.568 77.78C102.288 78.0467 103.115 78.24 104.048 78.36L103.108 80.42C101.495 80.1933 100.135 79.76 99.0281 79.12C97.9215 78.48 97.0881 77.68 96.5281 76.72C95.9681 77.68 95.1348 78.48 94.0281 79.12C92.9215 79.76 91.5615 80.1933 89.9481 80.42L88.9881 78.36ZM97.7881 83.58V89.76H95.1481V83.58H88.2081V81.48H104.848V83.58H97.7881ZM119.227 84.54V71.32H121.887V84.54H119.227ZM116.867 77.16C116.867 77.8267 116.74 78.4467 116.487 79.02C116.233 79.5933 115.88 80.0867 115.427 80.5C114.973 80.9133 114.44 81.24 113.827 81.48C113.227 81.7067 112.573 81.82 111.867 81.82C111.16 81.82 110.5 81.7067 109.887 81.48C109.273 81.24 108.74 80.9133 108.287 80.5C107.847 80.0867 107.493 79.5933 107.227 79.02C106.973 78.4467 106.847 77.8267 106.847 77.16C106.847 76.48 106.973 75.8533 107.227 75.28C107.493 74.7067 107.847 74.2133 108.287 73.8C108.74 73.3867 109.273 73.0667 109.887 72.84C110.5 72.6 111.16 72.48 111.867 72.48C112.573 72.48 113.227 72.6 113.827 72.84C114.44 73.0667 114.973 73.3867 115.427 73.8C115.88 74.2133 116.233 74.7067 116.487 75.28C116.74 75.8533 116.867 76.48 116.867 77.16ZM109.427 77.16C109.427 77.92 109.66 78.5067 110.127 78.92C110.607 79.3333 111.187 79.54 111.867 79.54C112.56 79.54 113.133 79.3333 113.587 78.92C114.053 78.5067 114.287 77.92 114.287 77.16C114.287 76.4 114.053 75.8133 113.587 75.4C113.133 74.9733 112.56 74.76 111.867 74.76C111.187 74.76 110.607 74.9733 110.127 75.4C109.66 75.8133 109.427 76.4 109.427 77.16ZM122.347 89.4H109.627V83.24H112.267V87.3H122.347V89.4ZM136.525 78.3C136.738 77.46 136.872 76.72 136.925 76.08C136.978 75.44 137.005 74.8133 137.005 74.2H126.885V72.12H139.645V73.64C139.645 74.3733 139.618 75.14 139.565 75.94C139.525 76.7267 139.378 77.6 139.125 78.56L136.525 78.3ZM141.605 81.62H125.025V79.54H131.165V76.32H133.805V79.54H141.605V81.62ZM133.205 82.78C134.205 82.78 135.105 82.86 135.905 83.02C136.705 83.18 137.392 83.4133 137.965 83.72C138.538 84.0133 138.978 84.3733 139.285 84.8C139.592 85.2267 139.745 85.7133 139.745 86.26C139.745 86.7933 139.592 87.2733 139.285 87.7C138.978 88.1267 138.538 88.4867 137.965 88.78C137.392 89.0867 136.705 89.32 135.905 89.48C135.105 89.64 134.205 89.72 133.205 89.72C132.218 89.72 131.318 89.64 130.505 89.48C129.705 89.32 129.018 89.0867 128.445 88.78C127.885 88.4867 127.452 88.1267 127.145 87.7C126.838 87.2733 126.685 86.7933 126.685 86.26C126.685 85.7133 126.838 85.2267 127.145 84.8C127.452 84.3733 127.885 84.0133 128.445 83.72C129.018 83.4133 129.705 83.18 130.505 83.02C131.318 82.86 132.218 82.78 133.205 82.78ZM133.205 87.74C134.458 87.74 135.425 87.62 136.105 87.38C136.785 87.1267 137.125 86.7533 137.125 86.26C137.125 85.7533 136.785 85.38 136.105 85.14C135.425 84.8867 134.458 84.76 133.205 84.76C131.952 84.76 130.985 84.8867 130.305 85.14C129.638 85.38 129.305 85.7533 129.305 86.26C129.305 86.7533 129.638 87.1267 130.305 87.38C130.985 87.62 131.952 87.74 133.205 87.74ZM151.703 79.44C150.703 79.44 149.79 79.3533 148.963 79.18C148.15 79.0067 147.45 78.7533 146.863 78.42C146.29 78.0867 145.843 77.6867 145.523 77.22C145.203 76.7533 145.043 76.2267 145.043 75.64C145.043 75.0533 145.203 74.5267 145.523 74.06C145.843 73.5933 146.29 73.1933 146.863 72.86C147.45 72.5267 148.15 72.2733 148.963 72.1C149.79 71.9267 150.703 71.84 151.703 71.84C152.703 71.84 153.617 71.9267 154.443 72.1C155.27 72.2733 155.97 72.5267 156.543 72.86C157.13 73.1933 157.583 73.5933 157.903 74.06C158.223 74.5267 158.383 75.0533 158.383 75.64C158.383 76.2267 158.223 76.7533 157.903 77.22C157.583 77.6867 157.13 78.0867 156.543 78.42C155.97 78.7533 155.27 79.0067 154.443 79.18C153.617 79.3533 152.703 79.44 151.703 79.44ZM151.703 73.92C150.45 73.92 149.477 74.0667 148.783 74.36C148.103 74.6533 147.763 75.08 147.763 75.64C147.763 76.2133 148.103 76.64 148.783 76.92C149.477 77.2 150.45 77.34 151.703 77.34C152.957 77.34 153.93 77.2 154.623 76.92C155.317 76.64 155.663 76.2133 155.663 75.64C155.663 75.08 155.317 74.6533 154.623 74.36C153.93 74.0667 152.957 73.92 151.703 73.92ZM160.023 82.8H143.383V80.7H160.023V82.8ZM158.163 87.3V89.4H145.403V84.04H148.043V87.3H158.163ZM180.733 80.36V89.72H178.093V71.32H180.733V78.16H183.413V80.36H180.733ZM175.813 72.76V85.46H166.873V72.76H169.493V77.22H173.193V72.76H175.813ZM169.493 79.28V83.36H173.193V79.28H169.493ZM201.392 87.7H184.712V85.54H191.712V82.8H186.632V76.56H196.912V74.58H186.612V72.48H199.512V78.62H189.252V80.68H199.932V82.8H194.352V85.54H201.392V87.7ZM224.581 77.8H222.181V81.94H219.521V71.28H222.181V75.66H224.581V77.8ZM218.341 80.4C217.781 80.52 217.215 80.62 216.641 80.7C216.068 80.78 215.448 80.84 214.781 80.88C214.128 80.92 213.395 80.9533 212.581 80.98C211.781 80.9933 210.868 81 209.841 81H208.281V72.54H216.541V74.64H210.901V78.88C211.728 78.88 212.475 78.8733 213.141 78.86C213.808 78.8333 214.421 78.8 214.981 78.76C215.555 78.7067 216.088 78.6467 216.581 78.58C217.088 78.5 217.588 78.4067 218.081 78.3L218.341 80.4ZM216.101 82.26C217.061 82.26 217.921 82.3467 218.681 82.52C219.455 82.6933 220.108 82.94 220.641 83.26C221.188 83.58 221.608 83.9733 221.901 84.44C222.195 84.8933 222.341 85.4133 222.341 86C222.341 86.5733 222.195 87.0933 221.901 87.56C221.608 88.0267 221.188 88.42 220.641 88.74C220.108 89.06 219.455 89.3067 218.681 89.48C217.921 89.6533 217.061 89.74 216.101 89.74C215.155 89.74 214.295 89.6533 213.521 89.48C212.761 89.3067 212.108 89.06 211.561 88.74C211.028 88.42 210.615 88.0267 210.321 87.56C210.028 87.0933 209.881 86.5733 209.881 86C209.881 85.4133 210.028 84.8933 210.321 84.44C210.615 83.9733 211.028 83.58 211.561 83.26C212.108 82.94 212.761 82.6933 213.521 82.52C214.295 82.3467 215.155 82.26 216.101 82.26ZM216.101 87.64C217.275 87.64 218.175 87.5067 218.801 87.24C219.428 86.9733 219.741 86.56 219.741 86C219.741 85.44 219.428 85.0267 218.801 84.76C218.175 84.4933 217.275 84.36 216.101 84.36C214.928 84.36 214.028 84.4933 213.401 84.76C212.788 85.0267 212.481 85.44 212.481 86C212.481 86.56 212.788 86.9733 213.401 87.24C214.028 87.5067 214.928 87.64 216.101 87.64ZM238.68 84.74V71.32H241.34V84.74H238.68ZM235.98 81.96C234.94 81.6133 234.073 81.12 233.38 80.48C232.686 79.8267 232.14 79.06 231.74 78.18C231.313 79.1133 230.74 79.94 230.02 80.66C229.3 81.3667 228.4 81.9067 227.32 82.28L225.98 80.18C226.74 79.9267 227.393 79.58 227.94 79.14C228.5 78.7 228.96 78.2133 229.32 77.68C229.68 77.1333 229.94 76.5533 230.1 75.94C230.273 75.3267 230.36 74.72 230.36 74.12V72.32H233.04V74.12C233.04 74.72 233.12 75.3133 233.28 75.9C233.453 76.4867 233.713 77.0333 234.06 77.54C234.406 78.0467 234.846 78.5 235.38 78.9C235.926 79.3 236.573 79.62 237.32 79.86L235.98 81.96ZM241.8 89.4H229.08V83.46H231.72V87.3H241.8V89.4ZM246.318 83.76L245.898 75.58L245.798 72.8H248.758L248.658 75.58L248.238 83.76H246.318ZM245.838 88.28V85.44H248.758V88.28H245.838Z" fill="black"/>
<path d="M18.6718 111.245C16.9863 117.313 14.41 123.54 11.3779 129.319C10.0864 131.781 4.2773 138.485 11.3779 135.032C18.461 131.587 25.3452 128.223 32.6808 125.056C34.9065 124.096 40.3706 120.463 43.1585 121.604C57.613 127.517 76.5707 127.576 92.7688 128.296C122.748 129.63 153.682 130.212 183.19 125.866C215.001 121.181 251.938 115.833 277.548 99.82C297.46 87.3701 298.958 67.7169 288.952 50.7965C277.936 32.1685 248.983 16.4619 222.902 11.4924C189.915 5.20723 158.203 -0.79752 124.039 3.39556C102.695 6.0152 76.1084 12.2101 56.998 19.9745C50.813 22.4796 24.2097 39.2796 20.6979 43.8053C15.9135 49.9709 8.52152 57.2353 6.39951 64.2673C4.32626 71.1377 2 78.0464 2 85.1556C2 89.2777 2.0508 95.215 4.31553 98.9674C6.17814 102.054 17.229 113.842 22.8398 109.71" stroke="black" stroke-width="3" stroke-linecap="round"/>
</svg>
