<svg width="340" height="60" fill="none" xmlns="http://www.w3.org/2000/svg"><g clip-path="url(#a)" fill="#FFD600"><path d="M94.01 8.75c1.67.62 3.11 1.47 4.3 2.57a11.68 11.68 0 0 1 2.8 3.96c.67 1.54 1.01 3.23 1.01 5.08-.04 1.5-.32 2.95-.84 4.36-.52 1.41-1.18 2.74-1.99 4.01-.81 1.27-1.72 2.5-2.74 3.7a74.318 74.318 0 0 1-3.15 3.46l-8.95 9.01c.77-.19 1.51-.32 2.22-.38.71-.06 1.4-.09 2.05-.09h13.86v7.28H72.5v-4.62l14.49-14.26c2.19-2.19 3.93-4.23 5.2-6.12 1.27-1.89 1.91-3.95 1.91-6.18 0-2-.55-3.51-1.65-4.53-1.1-1.02-2.59-1.53-4.47-1.53-1.62 0-2.98.47-4.1 1.41-1.12.94-1.91 2.05-2.37 3.32-.15.42-.26.87-.32 1.33-.06.46-.11.98-.14 1.56l-7.56-1.27c.69-4.43 2.38-7.7 5.05-9.82s6-3.18 9.96-3.18c2 0 3.84.31 5.51.92v.01zM136.762 40.19c-.81 2.79-1.93 5.1-3.38 6.93s-3.15 3.19-5.11 4.07c-1.96.88-4.1 1.33-6.41 1.33-2.31 0-4.32-.44-6.27-1.33-1.95-.89-3.64-2.24-5.08-4.07s-2.57-4.14-3.38-6.93-1.21-6.09-1.21-9.9c0-3.81.4-7.17 1.21-9.96.81-2.79 1.93-5.1 3.38-6.93 1.44-1.83 3.14-3.18 5.08-4.07 1.94-.89 4.03-1.33 6.27-1.33 2.24 0 4.45.44 6.41 1.33 1.96.89 3.67 2.24 5.11 4.07 1.44 1.83 2.57 4.14 3.38 6.93s1.21 6.11 1.21 9.96c0 3.85-.4 7.11-1.21 9.9zm-7.54-17.55c-.44-2.02-1.03-3.62-1.76-4.79s-1.59-2-2.57-2.48c-.98-.48-1.99-.72-3.03-.72-1.04 0-1.97.24-2.92.72-.94.48-1.78 1.31-2.51 2.48-.73 1.17-1.32 2.77-1.76 4.79-.44 2.02-.66 4.57-.66 7.65s.22 5.56.66 7.56c.44 2 1.03 3.6 1.76 4.79s1.57 2.02 2.51 2.48c.94.46 1.91.69 2.92.69s2.05-.23 3.03-.69c.98-.46 1.84-1.29 2.57-2.48.73-1.19 1.32-2.79 1.76-4.79.44-2 .66-4.52.66-7.56s-.22-5.63-.66-7.65zM171.182 40.19c-.81 2.79-1.93 5.1-3.38 6.93s-3.15 3.19-5.11 4.07c-1.96.88-4.1 1.33-6.41 1.33-2.31 0-4.32-.44-6.26-1.33-1.94-.88-3.64-2.24-5.08-4.07s-2.57-4.14-3.38-6.93-1.21-6.09-1.21-9.9c0-3.81.4-7.17 1.21-9.96.81-2.79 1.93-5.1 3.38-6.93 1.44-1.83 3.14-3.18 5.08-4.07 1.94-.89 4.03-1.33 6.26-1.33 2.23 0 4.45.44 6.41 1.33 1.96.89 3.67 2.24 5.11 4.07 1.44 1.83 2.57 4.14 3.38 6.93s1.21 6.11 1.21 9.96c0 3.85-.4 7.11-1.21 9.9zm-7.54-17.55c-.44-2.02-1.03-3.62-1.76-4.79s-1.59-2-2.57-2.48c-.98-.48-1.99-.72-3.03-.72-1.04 0-1.97.24-2.92.72-.94.48-1.78 1.31-2.51 2.48-.73 1.17-1.32 2.77-1.76 4.79-.44 2.02-.66 4.57-.66 7.65s.22 5.56.66 7.56c.44 2 1.03 3.6 1.76 4.79s1.57 2.02 2.51 2.48c.94.46 1.92.69 2.92.69s2.05-.23 3.03-.69c.98-.46 1.84-1.29 2.57-2.48.73-1.19 1.32-2.79 1.76-4.79.44-2 .66-4.52.66-7.56s-.22-5.63-.66-7.65zM175.801 27.12h11.66v-12.3h6.29v12.3h11.66v6.01h-11.66v12.3h-6.29v-12.3h-11.66v-6.01zM250.83 40.86c2.14-.15 4.24-.38 6.32-.69l.58 5.49c-2.89.54-5.81.95-8.78 1.24-2.96.29-5.87.51-8.72.66a184 184 0 0 1-8.29.26c-2.68.02-5.19.03-7.54.03l-.92-6.18h6.29c2.19 0 4.5-.04 6.93-.12v-4.5c-2.89-.54-5.18-1.65-6.87-3.35-1.69-1.69-2.54-3.77-2.54-6.24 0-1.5.33-2.87.98-4.1.65-1.23 1.56-2.29 2.71-3.18 1.16-.88 2.54-1.57 4.16-2.05 1.62-.48 3.41-.72 5.37-.72s3.7.24 5.31.72c1.62.48 3 1.17 4.16 2.05 1.16.89 2.06 1.94 2.71 3.18.65 1.23.98 2.6.98 4.1 0 2.46-.84 4.54-2.51 6.24-1.67 1.69-3.96 2.81-6.84 3.35v4.21c2.19-.12 4.36-.25 6.5-.4h.01zm-26.3-31.47h12.18V3.67h7.62v5.72h12.12v5.95h-31.93V9.39h.01zm11.69 21.19c1.1.73 2.53 1.1 4.3 1.1s3.3-.37 4.36-1.1c1.06-.73 1.59-1.77 1.59-3.12s-.53-2.44-1.59-3.18c-1.06-.73-2.51-1.1-4.36-1.1-1.85 0-3.2.37-4.3 1.1-1.1.73-1.65 1.79-1.65 3.18 0 1.39.55 2.39 1.65 3.12zm23.7 26.1V3.5h7.62v53.18h-7.62z" stroke="#000" stroke-width="5"/><path d="M94.01 8.75c1.67.62 3.11 1.47 4.3 2.57a11.68 11.68 0 0 1 2.8 3.96c.67 1.54 1.01 3.23 1.01 5.08-.04 1.5-.32 2.95-.84 4.36-.52 1.41-1.18 2.74-1.99 4.01-.81 1.27-1.72 2.5-2.74 3.7a74.318 74.318 0 0 1-3.15 3.46l-8.95 9.01c.77-.19 1.51-.32 2.22-.38.71-.06 1.4-.09 2.05-.09h13.86v7.28H72.5v-4.62l14.49-14.26c2.19-2.19 3.93-4.23 5.2-6.12 1.27-1.89 1.91-3.95 1.91-6.18 0-2-.55-3.51-1.65-4.53-1.1-1.02-2.59-1.53-4.47-1.53-1.62 0-2.98.47-4.1 1.41-1.12.94-1.91 2.05-2.37 3.32-.15.42-.26.87-.32 1.33-.06.46-.11.98-.14 1.56l-7.56-1.27c.69-4.43 2.38-7.7 5.05-9.82s6-3.18 9.96-3.18c2 0 3.84.31 5.51.92v.01zM136.762 40.19c-.81 2.79-1.93 5.1-3.38 6.93s-3.15 3.19-5.11 4.07c-1.96.88-4.1 1.33-6.41 1.33-2.31 0-4.32-.44-6.27-1.33-1.95-.89-3.64-2.24-5.08-4.07s-2.57-4.14-3.38-6.93-1.21-6.09-1.21-9.9c0-3.81.4-7.17 1.21-9.96.81-2.79 1.93-5.1 3.38-6.93 1.44-1.83 3.14-3.18 5.08-4.07 1.94-.89 4.03-1.33 6.27-1.33 2.24 0 4.45.44 6.41 1.33 1.96.89 3.67 2.24 5.11 4.07 1.44 1.83 2.57 4.14 3.38 6.93s1.21 6.11 1.21 9.96c0 3.85-.4 7.11-1.21 9.9zm-7.54-17.55c-.44-2.02-1.03-3.62-1.76-4.79s-1.59-2-2.57-2.48c-.98-.48-1.99-.72-3.03-.72-1.04 0-1.97.24-2.92.72-.94.48-1.78 1.31-2.51 2.48-.73 1.17-1.32 2.77-1.76 4.79-.44 2.02-.66 4.57-.66 7.65s.22 5.56.66 7.56c.44 2 1.03 3.6 1.76 4.79s1.57 2.02 2.51 2.48c.94.46 1.91.69 2.92.69s2.05-.23 3.03-.69c.98-.46 1.84-1.29 2.57-2.48.73-1.19 1.32-2.79 1.76-4.79.44-2 .66-4.52.66-7.56s-.22-5.63-.66-7.65zM171.182 40.19c-.81 2.79-1.93 5.1-3.38 6.93s-3.15 3.19-5.11 4.07c-1.96.88-4.1 1.33-6.41 1.33-2.31 0-4.32-.44-6.26-1.33-1.94-.88-3.64-2.24-5.08-4.07s-2.57-4.14-3.38-6.93-1.21-6.09-1.21-9.9c0-3.81.4-7.17 1.21-9.96.81-2.79 1.93-5.1 3.38-6.93 1.44-1.83 3.14-3.18 5.08-4.07 1.94-.89 4.03-1.33 6.26-1.33 2.23 0 4.45.44 6.41 1.33 1.96.89 3.67 2.24 5.11 4.07 1.44 1.83 2.57 4.14 3.38 6.93s1.21 6.11 1.21 9.96c0 3.85-.4 7.11-1.21 9.9zm-7.54-17.55c-.44-2.02-1.03-3.62-1.76-4.79s-1.59-2-2.57-2.48c-.98-.48-1.99-.72-3.03-.72-1.04 0-1.97.24-2.92.72-.94.48-1.78 1.31-2.51 2.48-.73 1.17-1.32 2.77-1.76 4.79-.44 2.02-.66 4.57-.66 7.65s.22 5.56.66 7.56c.44 2 1.03 3.6 1.76 4.79s1.57 2.02 2.51 2.48c.94.46 1.92.69 2.92.69s2.05-.23 3.03-.69c.98-.46 1.84-1.29 2.57-2.48.73-1.19 1.32-2.79 1.76-4.79.44-2 .66-4.52.66-7.56s-.22-5.63-.66-7.65zM175.801 27.12h11.66v-12.3h6.29v12.3h11.66v6.01h-11.66v12.3h-6.29v-12.3h-11.66v-6.01zM250.83 40.86c2.14-.15 4.24-.38 6.32-.69l.58 5.49c-2.89.54-5.81.95-8.78 1.24-2.96.29-5.87.51-8.72.66a184 184 0 0 1-8.29.26c-2.68.02-5.19.03-7.54.03l-.92-6.18h6.29c2.19 0 4.5-.04 6.93-.12v-4.5c-2.89-.54-5.18-1.65-6.87-3.35-1.69-1.69-2.54-3.77-2.54-6.24 0-1.5.33-2.87.98-4.1.65-1.23 1.56-2.29 2.71-3.18 1.16-.88 2.54-1.57 4.16-2.05 1.62-.48 3.41-.72 5.37-.72s3.7.24 5.31.72c1.62.48 3 1.17 4.16 2.05 1.16.89 2.06 1.94 2.71 3.18.65 1.23.98 2.6.98 4.1 0 2.46-.84 4.54-2.51 6.24-1.67 1.69-3.96 2.81-6.84 3.35v4.21c2.19-.12 4.36-.25 6.5-.4h.01zm-26.3-31.47h12.18V3.67h7.62v5.72h12.12v5.95h-31.93V9.39h.01zm11.69 21.19c1.1.73 2.53 1.1 4.3 1.1s3.3-.37 4.36-1.1c1.06-.73 1.59-1.77 1.59-3.12s-.53-2.44-1.59-3.18c-1.06-.73-2.51-1.1-4.36-1.1-1.85 0-3.2.37-4.3 1.1-1.1.73-1.65 1.79-1.65 3.18 0 1.39.55 2.39 1.65 3.12zm23.7 26.1V3.5h7.62v53.18h-7.62z"/></g><defs><clipPath id="a"><path fill="#fff" transform="translate(70 1)" d="M0 0h200.04v58.18H0z"/></clipPath></defs></svg>