<svg width="340" height="60" viewBox="0 0 340 60" fill="none" xmlns="http://www.w3.org/2000/svg">
<path d="M83.4356 24.0497C84.3156 23.8997 85.1756 23.7897 86.0056 23.7297C86.8356 23.6697 87.6356 23.6398 88.4056 23.6398C90.7156 23.6398 92.7556 23.9897 94.5256 24.6797C96.2956 25.3697 97.7756 26.3297 98.9756 27.5397C100.166 28.7497 101.076 30.1798 101.686 31.8098C102.306 33.4498 102.606 35.2298 102.606 37.1498C102.606 39.4598 102.196 41.5798 101.366 43.4998C100.536 45.4198 99.3956 47.0698 97.9256 48.4398C96.4656 49.8098 94.7256 50.8598 92.7256 51.6198C90.7256 52.3698 88.5656 52.7498 86.2556 52.7498C83.5956 52.7498 81.1356 52.2298 78.8656 51.1898C76.5956 50.1498 74.7256 48.9397 73.2656 47.5497L77.3056 41.6597C78.6556 42.7797 80.0956 43.7597 81.6356 44.5997C83.1756 45.4497 84.8656 45.8698 86.7156 45.8698C89.3756 45.8698 91.3956 45.1098 92.7756 43.5898C94.1556 42.0698 94.8556 40.0398 94.8556 37.4998C94.8556 35.1898 94.1856 33.3798 92.8356 32.0698C91.4856 30.7598 89.4856 30.1498 86.8356 30.2198C85.7556 30.2998 84.6956 30.4398 83.6556 30.6498C82.6156 30.8598 81.5756 31.1597 80.5356 31.5497L75.6856 30.1097C76.5756 24.5297 77.3156 19.9998 77.9056 16.5098C78.5056 13.0298 78.9556 10.3598 79.2656 8.50977H101.096V15.6097H84.8856L83.4456 24.0397L83.4356 24.0497Z" fill="#FFD600"/>
<path fill-rule="evenodd" clip-rule="evenodd" d="M77.1503 6.00977H103.596V18.1097H86.9954L86.4684 21.1951C87.1288 21.1584 87.7749 21.1398 88.4063 21.1398C90.9661 21.1398 93.3232 21.5275 95.4343 22.3505C97.5028 23.1569 99.2856 24.3014 100.751 25.7793L100.759 25.7867C102.198 27.2499 103.296 28.9788 104.026 30.9299C104.765 32.8851 105.106 34.9678 105.106 37.1498C105.106 39.7603 104.642 42.2233 103.661 44.4918C102.704 46.7052 101.372 48.6456 99.6334 50.2662C97.9096 51.8827 95.882 53.095 93.6143 53.9567L93.6041 53.9606C91.3041 54.823 88.8448 55.2498 86.2563 55.2498C83.2601 55.2498 80.4422 54.6616 77.825 53.4626C75.3664 52.3362 73.2475 50.9837 71.5424 49.3604L70 47.8919L76.7942 37.9865L78.9025 39.7357C80.1306 40.7545 81.4372 41.6434 82.8334 42.405L82.8443 42.411C83.9921 43.0444 85.2625 43.3698 86.7163 43.3698C88.8923 43.3698 90.1497 42.7636 90.9253 41.9093C91.7993 40.9466 92.3563 39.5637 92.3563 37.4998C92.3563 35.6964 91.8507 34.5969 91.0953 33.8639C90.4084 33.1974 89.1901 32.6682 86.9605 32.7175C85.996 32.7912 85.0603 32.9167 84.1511 33.1003C83.2473 33.2828 82.3353 33.5451 81.4141 33.8906L80.6287 34.1851L72.872 31.882L73.2175 29.716C74.1081 24.1319 74.8495 19.5936 75.4412 16.093L75.4426 16.085C76.0417 12.6099 76.4911 9.94395 76.8006 8.09661L77.1503 6.00977ZM81.1158 22.8353L82.7771 13.1097H98.5963V11.0098H81.3809C81.1099 12.6153 80.7741 14.59 80.3706 16.9305C79.994 19.1581 79.5558 21.8126 79.0559 24.8973L81.1158 22.8353ZM78.5014 28.3377C78.5521 28.0218 78.6022 27.7097 78.6518 27.4013L83.8563 26.5142C84.6714 26.3753 85.4503 26.2764 86.1865 26.2232C86.9612 26.1672 87.7009 26.1398 88.4063 26.1398C90.4664 26.1398 92.1894 26.452 93.6182 27.009C95.0877 27.5819 96.2638 28.356 97.1974 29.2964C98.1358 30.2515 98.8562 31.3802 99.3448 32.686L99.3478 32.6938C99.8482 34.0174 100.106 35.4933 100.106 37.1498C100.106 39.1592 99.7509 40.9362 99.0715 42.5078C98.3689 44.1332 97.4223 45.492 96.2218 46.6109L96.2156 46.6167C95.0213 47.7373 93.5719 48.6233 91.8435 49.2808C90.1447 49.9171 88.2857 50.2498 86.2563 50.2498C83.9325 50.2498 81.8304 49.7979 79.9076 48.9169C78.6501 48.3408 77.5607 47.7232 76.6273 47.0694L77.8889 45.2301C78.7081 45.792 79.5562 46.3126 80.4342 46.7918C82.3648 47.8561 84.4724 48.3698 86.7163 48.3698C89.8603 48.3698 92.6428 47.456 94.6272 45.2703C96.5132 43.1929 97.3563 40.5158 97.3563 37.4998C97.3563 34.6831 96.5219 32.1626 94.5772 30.2756C92.5701 28.3279 89.8036 27.6405 86.7702 27.7207L86.7108 27.7222L86.6516 27.7266C85.4775 27.8136 84.3133 27.9667 83.1614 28.1992C82.2586 28.3815 81.3607 28.6228 80.4681 28.9216L78.5014 28.3377Z" fill="black"/>
<path d="M137.074 40.19C136.264 42.98 135.144 45.29 133.694 47.12C132.254 48.95 130.544 50.31 128.584 51.19C126.624 52.07 124.484 52.52 122.174 52.52C119.864 52.52 117.854 52.08 115.904 51.19C113.964 50.3 112.264 48.95 110.824 47.12C109.384 45.29 108.254 42.98 107.444 40.19C106.634 37.4 106.234 34.1 106.234 30.29C106.234 26.48 106.634 23.12 107.444 20.33C108.254 17.54 109.374 15.23 110.824 13.4C112.264 11.57 113.964 10.21 115.904 9.33002C117.844 8.45002 119.934 8 122.174 8C124.414 8 126.624 8.44002 128.584 9.33002C130.544 10.22 132.254 11.57 133.694 13.4C135.134 15.23 136.264 17.54 137.074 20.33C137.884 23.12 138.284 26.44 138.284 30.29C138.284 34.14 137.884 37.4 137.074 40.19ZM129.534 22.64C129.094 20.62 128.504 19.02 127.774 17.85C127.044 16.68 126.184 15.85 125.204 15.37C124.224 14.89 123.214 14.65 122.174 14.65C121.134 14.65 120.204 14.89 119.254 15.37C118.314 15.85 117.474 16.68 116.744 17.85C116.014 19.02 115.424 20.62 114.984 22.64C114.544 24.66 114.324 27.21 114.324 30.29C114.324 33.37 114.544 35.85 114.984 37.85C115.424 39.85 116.014 41.45 116.744 42.64C117.474 43.83 118.314 44.66 119.254 45.12C120.194 45.58 121.164 45.81 122.174 45.81C123.184 45.81 124.224 45.58 125.204 45.12C126.184 44.66 127.044 43.83 127.774 42.64C128.504 41.45 129.094 39.85 129.534 37.85C129.974 35.85 130.194 33.33 130.194 30.29C130.194 27.25 129.974 24.66 129.534 22.64Z" fill="#FFD600"/>
<path fill-rule="evenodd" clip-rule="evenodd" d="M122.174 10.5C120.28 10.5 118.543 10.8783 116.937 11.6067C115.393 12.307 114.004 13.4023 112.789 14.946L112.784 14.9526L112.784 14.9526C111.581 16.4708 110.588 18.4683 109.845 21.027C109.119 23.5277 108.734 26.64 108.734 30.29C108.734 33.9358 109.118 36.9893 109.845 39.493C110.586 42.0451 111.588 44.0483 112.789 45.574C113.999 47.1115 115.389 48.2027 116.945 48.917C118.558 49.6525 120.212 50.02 122.174 50.02C124.151 50.02 125.94 49.6368 127.56 48.9093C129.123 48.2076 130.519 47.1125 131.73 45.574L131.735 45.5674C132.938 44.0492 133.931 42.0517 134.674 39.493C135.401 36.9883 135.784 33.9744 135.784 30.29C135.784 26.6013 135.4 23.5287 134.674 21.027C133.933 18.4749 132.93 16.4717 131.73 14.946C130.523 13.4131 129.127 12.322 127.551 11.6063C125.947 10.8783 124.095 10.5 122.174 10.5ZM114.872 7.0533C117.146 6.02176 119.589 5.5 122.174 5.5C124.734 5.5 127.301 6.00171 129.618 7.0537C131.962 8.11801 133.985 9.72693 135.659 11.854C137.338 13.9883 138.596 16.6052 139.475 19.633C140.369 22.7114 140.784 26.2786 140.784 30.29C140.784 34.3055 140.368 37.8117 139.475 40.887C138.598 43.907 137.352 46.5285 135.656 48.6698C133.987 50.7894 131.964 52.413 129.608 53.4707C127.309 54.5032 124.818 55.02 122.174 55.02C119.518 55.02 117.153 54.5079 114.866 53.4643L114.862 53.4623C112.539 52.3966 110.529 50.788 108.86 48.666C107.18 46.5317 105.923 43.9149 105.044 40.887C104.15 37.8107 103.734 34.2641 103.734 30.29C103.734 26.32 104.15 22.7123 105.044 19.633C105.92 16.6132 107.167 13.9919 108.862 11.8507C110.527 9.73602 112.537 8.11247 114.872 7.0533ZM118.127 13.1386C119.394 12.4985 120.708 12.15 122.174 12.15C123.614 12.15 124.999 12.4856 126.304 13.1248C127.802 13.8585 128.983 15.0638 129.895 16.5266C130.832 18.0274 131.503 19.9301 131.977 22.1079C132.469 24.3661 132.694 27.1504 132.694 30.29C132.694 33.4326 132.469 36.1481 131.976 38.3871C131.501 40.5476 130.831 42.4386 129.905 43.9473C128.993 45.4339 127.8 46.6632 126.267 47.3831C124.963 47.9949 123.561 48.31 122.174 48.31C120.768 48.31 119.423 47.9858 118.155 47.3655C116.669 46.6382 115.511 45.4099 114.613 43.9473C113.688 42.4386 113.018 40.5476 112.543 38.3871C112.05 36.149 111.824 33.474 111.824 30.29C111.824 27.109 112.05 24.3653 112.542 22.1079C113.016 19.93 113.687 18.0274 114.623 16.5266C115.521 15.0872 116.668 13.8838 118.117 13.1435L118.127 13.1386L118.127 13.1386ZM120.387 17.5987C119.958 17.8192 119.425 18.2758 118.865 19.1733C118.342 20.0126 117.833 21.31 117.427 23.1721C117.039 24.9548 116.824 27.3109 116.824 30.29C116.824 33.2659 117.038 35.551 117.426 37.3128C117.831 39.1523 118.341 40.4614 118.875 41.3328C119.438 42.2502 119.96 42.6818 120.353 42.8745C120.966 43.1742 121.561 43.31 122.174 43.31C122.807 43.31 123.486 43.1651 124.142 42.8569C124.568 42.6568 125.095 42.2261 125.643 41.3328C126.178 40.4614 126.688 39.1523 127.093 37.3128C127.48 35.5519 127.694 33.2273 127.694 30.29C127.694 27.3496 127.48 24.9539 127.092 23.1721C126.686 21.31 126.177 20.0126 125.653 19.1733C125.106 18.2962 124.567 17.8415 124.105 17.6152C123.45 17.2944 122.814 17.15 122.174 17.15C121.563 17.15 121.018 17.2808 120.387 17.5987Z" fill="black"/>
<path d="M171.496 40.19C170.686 42.98 169.566 45.29 168.116 47.12C166.676 48.95 164.966 50.31 163.006 51.19C161.046 52.07 158.906 52.52 156.596 52.52C154.286 52.52 152.276 52.08 150.326 51.19C148.386 50.3 146.686 48.95 145.246 47.12C143.806 45.29 142.676 42.98 141.866 40.19C141.056 37.4 140.656 34.1 140.656 30.29C140.656 26.48 141.056 23.12 141.866 20.33C142.676 17.54 143.796 15.23 145.246 13.4C146.686 11.57 148.386 10.21 150.326 9.33002C152.266 8.45002 154.356 8 156.596 8C158.836 8 161.046 8.44002 163.006 9.33002C164.966 10.22 166.676 11.57 168.116 13.4C169.556 15.23 170.686 17.54 171.496 20.33C172.306 23.12 172.706 26.44 172.706 30.29C172.706 34.14 172.306 37.4 171.496 40.19ZM163.956 22.64C163.516 20.62 162.926 19.02 162.196 17.85C161.466 16.68 160.606 15.85 159.626 15.37C158.646 14.89 157.636 14.65 156.596 14.65C155.556 14.65 154.626 14.89 153.676 15.37C152.736 15.85 151.896 16.68 151.166 17.85C150.436 19.02 149.846 20.62 149.406 22.64C148.966 24.66 148.746 27.21 148.746 30.29C148.746 33.37 148.966 35.85 149.406 37.85C149.846 39.85 150.436 41.45 151.166 42.64C151.896 43.83 152.736 44.66 153.676 45.12C154.616 45.58 155.586 45.81 156.596 45.81C157.606 45.81 158.646 45.58 159.626 45.12C160.606 44.66 161.466 43.83 162.196 42.64C162.926 41.45 163.516 39.85 163.956 37.85C164.396 35.85 164.616 33.33 164.616 30.29C164.616 27.25 164.396 24.66 163.956 22.64Z" fill="#FFD600"/>
<path fill-rule="evenodd" clip-rule="evenodd" d="M156.596 10.5C154.702 10.5 152.965 10.8783 151.359 11.6067C149.815 12.307 148.426 13.4023 147.211 14.946L147.206 14.9526L147.206 14.9526C146.003 16.4708 145.01 18.4683 144.267 21.027C143.541 23.5277 143.156 26.64 143.156 30.29C143.156 33.9358 143.54 36.9893 144.267 39.493C145.008 42.0451 146.01 44.0483 147.211 45.574C148.421 47.1115 149.811 48.2027 151.367 48.917C152.98 49.6525 154.634 50.02 156.596 50.02C158.573 50.02 160.362 49.6368 161.982 48.9093C163.545 48.2076 164.941 47.1125 166.152 45.574L166.157 45.5674C167.36 44.0492 168.353 42.0517 169.095 39.493C169.823 36.9883 170.206 33.9744 170.206 30.29C170.206 26.6013 169.822 23.5287 169.095 21.027C168.354 18.4749 167.352 16.4717 166.152 14.946C164.945 13.4131 163.549 12.322 161.973 11.6063C160.369 10.8783 158.517 10.5 156.596 10.5ZM149.294 7.0533C151.568 6.02176 154.011 5.5 156.596 5.5C159.156 5.5 161.723 6.00171 164.04 7.0537C166.384 8.11801 168.407 9.72693 170.081 11.854C171.76 13.9883 173.018 16.6052 173.897 19.633C174.791 22.7114 175.206 26.2786 175.206 30.29C175.206 34.3055 174.79 37.8117 173.897 40.887C173.02 43.907 171.774 46.5285 170.078 48.6698C168.409 50.7894 166.386 52.413 164.03 53.4707C161.731 54.5032 159.239 55.02 156.596 55.02C153.94 55.02 151.575 54.5079 149.288 53.4643L149.284 53.4623C146.961 52.3966 144.951 50.788 143.282 48.666C141.602 46.5317 140.344 43.9149 139.465 40.887C138.572 37.8107 138.156 34.2641 138.156 30.29C138.156 26.32 138.571 22.7123 139.465 19.633C140.342 16.6132 141.588 13.9919 143.284 11.8507C144.949 9.73602 146.959 8.11247 149.294 7.0533ZM152.549 13.1386C153.816 12.4985 155.13 12.15 156.596 12.15C158.036 12.15 159.421 12.4856 160.726 13.1248C162.224 13.8585 163.405 15.0638 164.317 16.5266C165.254 18.0274 165.925 19.9301 166.399 22.1079C166.891 24.3661 167.116 27.1504 167.116 30.29C167.116 33.4326 166.89 36.1481 166.398 38.3871C165.923 40.5476 165.253 42.4386 164.327 43.9473C163.415 45.4339 162.222 46.6632 160.689 47.3831C159.385 47.9949 157.983 48.31 156.596 48.31C155.189 48.31 153.845 47.9858 152.577 47.3655C151.091 46.6382 149.932 45.4099 149.035 43.9473C148.11 42.4386 147.44 40.5476 146.965 38.3871C146.472 36.149 146.246 33.474 146.246 30.29C146.246 27.109 146.472 24.3653 146.964 22.1079C147.438 19.93 148.109 18.0274 149.045 16.5266C149.943 15.0872 151.09 13.8838 152.539 13.1435L152.549 13.1386L152.549 13.1386ZM154.809 17.5987C154.379 17.8192 153.847 18.2758 153.287 19.1733C152.764 20.0126 152.255 21.31 151.849 23.1721C151.461 24.9548 151.246 27.3109 151.246 30.29C151.246 33.2659 151.46 35.551 151.848 37.3128C152.253 39.1523 152.763 40.4614 153.297 41.3328C153.86 42.2502 154.381 42.6818 154.775 42.8745C155.388 43.1742 155.983 43.31 156.596 43.31C157.229 43.31 157.907 43.1651 158.564 42.8569C158.99 42.6568 159.517 42.2261 160.065 41.3328C160.6 40.4614 161.11 39.1523 161.515 37.3128C161.902 35.5519 162.116 33.2273 162.116 30.29C162.116 27.3496 161.902 24.9539 161.514 23.1721C161.108 21.31 160.599 20.0126 160.075 19.1733C159.528 18.2962 158.989 17.8415 158.527 17.6152C157.872 17.2944 157.236 17.15 156.596 17.15C155.985 17.15 155.44 17.2808 154.809 17.5987Z" fill="black"/>
<path d="M176.105 27.11H187.765V14.8101H194.055V27.11H205.715V33.11H194.055V45.41H187.765V33.11H176.105V27.11Z" fill="#FFD600"/>
<path fill-rule="evenodd" clip-rule="evenodd" d="M185.265 12.3101H196.555V24.61H208.215V35.61H196.555V47.91H185.265V35.61H173.605V24.61H185.265V12.3101ZM190.265 17.3101V29.61H178.605V30.61H190.265V42.91H191.555V30.61H203.215V29.61H191.555V17.3101H190.265Z" fill="black"/>
<path d="M225.707 7.31H250.767V11.18H260.347V3.5H267.967V34.68H260.347V27.87H250.767V31.8H225.707V7.32001V7.31ZM257.607 36.7C259.857 37.16 261.767 37.84 263.327 38.72C264.887 39.61 266.087 40.69 266.937 41.98C267.787 43.27 268.207 44.72 268.207 46.34C268.207 47.96 267.787 49.41 266.937 50.7C266.087 51.99 264.887 53.08 263.327 53.96C261.767 54.84 259.867 55.52 257.607 55.98C255.357 56.44 252.807 56.67 249.957 56.67C247.107 56.67 244.617 56.44 242.367 55.98C240.117 55.52 238.207 54.84 236.647 53.96C235.087 53.07 233.887 51.99 233.037 50.7C232.187 49.41 231.767 47.96 231.767 46.34C231.767 44.72 232.187 43.27 233.037 41.98C233.887 40.69 235.087 39.6 236.647 38.72C238.207 37.84 240.107 37.16 242.367 36.7C244.627 36.24 247.147 36.01 249.957 36.01C252.767 36.01 255.357 36.24 257.607 36.7ZM233.217 25.79H243.317V13.38H233.217V25.79ZM260.587 46.35C260.587 43.35 257.047 41.85 249.967 41.85C242.887 41.85 239.397 43.35 239.397 46.35C239.397 49.35 242.917 50.85 249.967 50.85C257.017 50.85 260.587 49.35 260.587 46.35ZM260.357 21.81V17.25H250.777V21.81H260.357Z" fill="#FFD600"/>
<path fill-rule="evenodd" clip-rule="evenodd" d="M257.847 1H270.467V37.18H265.582C266.97 38.1196 268.133 39.2514 269.025 40.6045C270.159 42.3264 270.707 44.2601 270.707 46.34C270.707 48.4199 270.159 50.3536 269.025 52.0755C267.927 53.7407 266.413 55.0895 264.555 56.1375C262.722 57.1717 260.565 57.929 258.108 58.4293C255.659 58.9299 252.937 59.17 249.957 59.17C246.973 59.17 244.312 58.9293 241.866 58.4293C239.422 57.9296 237.254 57.1729 235.419 56.1375L235.408 56.1315C233.566 55.0806 232.051 53.7468 230.949 52.0755C229.815 50.3536 229.267 48.4199 229.267 46.34C229.267 44.2601 229.815 42.3264 230.949 40.6045C232.047 38.9392 233.561 37.5905 235.419 36.5426C237.193 35.5418 239.27 34.8002 241.629 34.3H223.207V4.81H253.267V8.67999H257.847V1ZM248.267 9.81H228.207V29.3H248.267V25.37H262.847V32.18H265.467V6H262.847V13.68H248.267V9.81ZM253.267 30.37V33.618C254.879 33.7269 256.415 33.9191 257.847 34.1986V30.37H253.267ZM230.717 10.88H245.817V28.29H230.717V10.88ZM235.717 15.88V23.29H240.817V15.88H235.717ZM248.277 14.75H262.857V24.31H248.277V14.75ZM249.957 38.51C247.281 38.51 244.931 38.7293 242.866 39.1498C240.804 39.5695 239.161 40.172 237.875 40.8975C236.613 41.6095 235.727 42.4408 235.125 43.3555C234.559 44.2136 234.267 45.1799 234.267 46.34C234.267 47.5001 234.559 48.4664 235.125 49.3245C235.723 50.232 236.605 51.0572 237.881 51.7856C239.164 52.5088 240.815 53.1109 242.868 53.5306C244.922 53.9507 247.241 54.17 249.957 54.17C252.677 54.17 255.055 53.95 257.106 53.5306L257.108 53.5302C259.171 53.1105 260.813 52.508 262.099 51.7826C263.361 51.0705 264.247 50.2393 264.849 49.3245C265.415 48.4664 265.707 47.5001 265.707 46.34C265.707 45.1799 265.415 44.2136 264.849 43.3555C264.251 42.4479 263.369 41.6228 262.093 40.8943C260.809 40.1711 259.159 39.5691 257.106 39.1493C255.056 38.7302 252.639 38.51 249.957 38.51ZM241.046 40.6756C243.276 39.7241 246.328 39.35 249.967 39.35C253.608 39.35 256.669 39.7245 258.907 40.6731C260.053 41.1584 261.111 41.8472 261.888 42.8355C262.695 43.8609 263.087 45.0682 263.087 46.35C263.087 47.6368 262.69 48.8455 261.88 49.8695C261.1 50.8559 260.04 51.5432 258.894 52.0276C256.654 52.9751 253.594 53.35 249.967 53.35C246.341 53.35 243.291 52.9755 241.059 52.0251C239.917 51.5387 238.862 50.8485 238.088 49.8594C237.286 48.8338 236.897 47.6282 236.897 46.35C236.897 45.0768 237.281 43.8726 238.08 42.8457C238.852 41.8546 239.904 41.163 241.046 40.6756ZM242.026 45.9168C241.949 46.0149 241.897 46.1231 241.897 46.35C241.897 46.5718 241.948 46.6786 242.026 46.7781C242.132 46.9139 242.399 47.1613 243.018 47.4248C244.308 47.9745 246.543 48.35 249.967 48.35C253.39 48.35 255.641 47.9748 256.947 47.4224C257.575 47.1568 257.849 46.9066 257.958 46.768C258.038 46.667 258.087 46.5632 258.087 46.35C258.087 46.1317 258.037 46.0266 257.958 45.9269C257.851 45.7902 257.581 45.5415 256.957 45.2769C255.655 44.7255 253.406 44.35 249.967 44.35C246.527 44.35 244.294 44.7259 243.008 45.2744C242.393 45.537 242.13 45.7829 242.026 45.9168Z" fill="black"/>
<path d="M83.4356 24.0497C84.3156 23.8997 85.1756 23.7897 86.0056 23.7297C86.8356 23.6697 87.6356 23.6398 88.4056 23.6398C90.7156 23.6398 92.7556 23.9897 94.5256 24.6797C96.2956 25.3697 97.7756 26.3297 98.9756 27.5397C100.166 28.7497 101.076 30.1798 101.686 31.8098C102.306 33.4498 102.606 35.2298 102.606 37.1498C102.606 39.4598 102.196 41.5798 101.366 43.4998C100.536 45.4198 99.3956 47.0698 97.9256 48.4398C96.4656 49.8098 94.7256 50.8598 92.7256 51.6198C90.7256 52.3698 88.5656 52.7498 86.2556 52.7498C83.5956 52.7498 81.1356 52.2298 78.8656 51.1898C76.5956 50.1498 74.7256 48.9397 73.2656 47.5497L77.3056 41.6597C78.6556 42.7797 80.0956 43.7597 81.6356 44.5997C83.1756 45.4497 84.8656 45.8698 86.7156 45.8698C89.3756 45.8698 91.3956 45.1098 92.7756 43.5898C94.1556 42.0698 94.8556 40.0398 94.8556 37.4998C94.8556 35.1898 94.1856 33.3798 92.8356 32.0698C91.4856 30.7598 89.4856 30.1498 86.8356 30.2198C85.7556 30.2998 84.6956 30.4398 83.6556 30.6498C82.6156 30.8598 81.5756 31.1597 80.5356 31.5497L75.6856 30.1097C76.5756 24.5297 77.3156 19.9998 77.9056 16.5098C78.5056 13.0298 78.9556 10.3598 79.2656 8.50977H101.096V15.6097H84.8856L83.4456 24.0397L83.4356 24.0497Z" fill="#FFD600"/>
<path d="M137.074 40.19C136.264 42.98 135.144 45.29 133.694 47.12C132.254 48.95 130.544 50.31 128.584 51.19C126.624 52.07 124.484 52.52 122.174 52.52C119.864 52.52 117.854 52.08 115.904 51.19C113.964 50.3 112.264 48.95 110.824 47.12C109.384 45.29 108.254 42.98 107.444 40.19C106.634 37.4 106.234 34.1 106.234 30.29C106.234 26.48 106.634 23.12 107.444 20.33C108.254 17.54 109.374 15.23 110.824 13.4C112.264 11.57 113.964 10.21 115.904 9.33002C117.844 8.45002 119.934 8 122.174 8C124.414 8 126.624 8.44002 128.584 9.33002C130.544 10.22 132.254 11.57 133.694 13.4C135.134 15.23 136.264 17.54 137.074 20.33C137.884 23.12 138.284 26.44 138.284 30.29C138.284 34.14 137.884 37.4 137.074 40.19ZM129.534 22.64C129.094 20.62 128.504 19.02 127.774 17.85C127.044 16.68 126.184 15.85 125.204 15.37C124.224 14.89 123.214 14.65 122.174 14.65C121.134 14.65 120.204 14.89 119.254 15.37C118.314 15.85 117.474 16.68 116.744 17.85C116.014 19.02 115.424 20.62 114.984 22.64C114.544 24.66 114.324 27.21 114.324 30.29C114.324 33.37 114.544 35.85 114.984 37.85C115.424 39.85 116.014 41.45 116.744 42.64C117.474 43.83 118.314 44.66 119.254 45.12C120.194 45.58 121.164 45.81 122.174 45.81C123.184 45.81 124.224 45.58 125.204 45.12C126.184 44.66 127.044 43.83 127.774 42.64C128.504 41.45 129.094 39.85 129.534 37.85C129.974 35.85 130.194 33.33 130.194 30.29C130.194 27.25 129.974 24.66 129.534 22.64Z" fill="#FFD600"/>
<path d="M171.496 40.19C170.686 42.98 169.566 45.29 168.116 47.12C166.676 48.95 164.966 50.31 163.006 51.19C161.046 52.07 158.906 52.52 156.596 52.52C154.286 52.52 152.276 52.08 150.326 51.19C148.386 50.3 146.686 48.95 145.246 47.12C143.806 45.29 142.676 42.98 141.866 40.19C141.056 37.4 140.656 34.1 140.656 30.29C140.656 26.48 141.056 23.12 141.866 20.33C142.676 17.54 143.796 15.23 145.246 13.4C146.686 11.57 148.386 10.21 150.326 9.33002C152.266 8.45002 154.356 8 156.596 8C158.836 8 161.046 8.44002 163.006 9.33002C164.966 10.22 166.676 11.57 168.116 13.4C169.556 15.23 170.686 17.54 171.496 20.33C172.306 23.12 172.706 26.44 172.706 30.29C172.706 34.14 172.306 37.4 171.496 40.19ZM163.956 22.64C163.516 20.62 162.926 19.02 162.196 17.85C161.466 16.68 160.606 15.85 159.626 15.37C158.646 14.89 157.636 14.65 156.596 14.65C155.556 14.65 154.626 14.89 153.676 15.37C152.736 15.85 151.896 16.68 151.166 17.85C150.436 19.02 149.846 20.62 149.406 22.64C148.966 24.66 148.746 27.21 148.746 30.29C148.746 33.37 148.966 35.85 149.406 37.85C149.846 39.85 150.436 41.45 151.166 42.64C151.896 43.83 152.736 44.66 153.676 45.12C154.616 45.58 155.586 45.81 156.596 45.81C157.606 45.81 158.646 45.58 159.626 45.12C160.606 44.66 161.466 43.83 162.196 42.64C162.926 41.45 163.516 39.85 163.956 37.85C164.396 35.85 164.616 33.33 164.616 30.29C164.616 27.25 164.396 24.66 163.956 22.64Z" fill="#FFD600"/>
<path d="M176.105 27.11H187.765V14.8101H194.055V27.11H205.715V33.11H194.055V45.41H187.765V33.11H176.105V27.11Z" fill="#FFD600"/>
<path d="M225.707 7.31H250.767V11.18H260.347V3.5H267.967V34.68H260.347V27.87H250.767V31.8H225.707V7.32001V7.31ZM257.607 36.7C259.857 37.16 261.767 37.84 263.327 38.72C264.887 39.61 266.087 40.69 266.937 41.98C267.787 43.27 268.207 44.72 268.207 46.34C268.207 47.96 267.787 49.41 266.937 50.7C266.087 51.99 264.887 53.08 263.327 53.96C261.767 54.84 259.867 55.52 257.607 55.98C255.357 56.44 252.807 56.67 249.957 56.67C247.107 56.67 244.617 56.44 242.367 55.98C240.117 55.52 238.207 54.84 236.647 53.96C235.087 53.07 233.887 51.99 233.037 50.7C232.187 49.41 231.767 47.96 231.767 46.34C231.767 44.72 232.187 43.27 233.037 41.98C233.887 40.69 235.087 39.6 236.647 38.72C238.207 37.84 240.107 37.16 242.367 36.7C244.627 36.24 247.147 36.01 249.957 36.01C252.767 36.01 255.357 36.24 257.607 36.7ZM233.217 25.79H243.317V13.38H233.217V25.79ZM260.587 46.35C260.587 43.35 257.047 41.85 249.967 41.85C242.887 41.85 239.397 43.35 239.397 46.35C239.397 49.35 242.917 50.85 249.967 50.85C257.017 50.85 260.587 49.35 260.587 46.35ZM260.357 21.81V17.25H250.777V21.81H260.357Z" fill="#FFD600"/>
</svg>
