<svg width="340" height="60" fill="none" xmlns="http://www.w3.org/2000/svg"><path d="M83.436 24.05c.88-.15 1.74-.26 2.57-.32.83-.06 1.63-.09 2.4-.09 2.31 0 4.35.35 6.12 1.04 1.77.69 3.25 1.65 4.45 2.86 1.19 1.21 2.1 2.64 2.71 4.27.62 1.64.92 3.42.92 5.34 0 2.31-.41 4.43-1.24 6.35-.83 1.92-1.97 3.57-3.44 4.94-1.46 1.37-3.2 2.42-5.2 3.18-2 .75-4.16 1.13-6.47 1.13-2.66 0-5.12-.52-7.39-1.56-2.27-1.04-4.14-2.25-5.6-3.64l4.04-5.89c1.35 1.12 2.79 2.1 4.33 2.94 1.54.85 3.23 1.27 5.08 1.27 2.66 0 4.68-.76 6.06-2.28 1.38-1.52 2.08-3.55 2.08-6.09 0-2.31-.67-4.12-2.02-5.43-1.35-1.31-3.35-1.92-6-1.85-1.08.08-2.14.22-3.18.43s-2.08.51-3.12.9l-4.85-1.44c.89-5.58 1.63-10.11 2.22-13.6.6-3.48 1.05-6.15 1.36-8h21.83v7.1h-16.21l-1.44 8.43-.01.01z" fill="#FFD600"/><path fill-rule="evenodd" clip-rule="evenodd" d="M77.15 6.01h26.446v12.1h-16.6l-.528 3.085c.66-.037 1.307-.055 1.938-.055 2.56 0 4.917.387 7.028 1.21 2.069.807 3.852 1.951 5.317 3.43l.008.007a14.55 14.55 0 0 1 3.267 5.143c.739 1.955 1.08 4.038 1.08 6.22 0 2.61-.464 5.073-1.445 7.342-.957 2.213-2.289 4.154-4.028 5.774-1.723 1.617-3.751 2.829-6.019 3.69l-.01.005c-2.3.862-4.76 1.289-7.348 1.289-2.996 0-5.814-.588-8.431-1.787-2.459-1.127-4.578-2.48-6.283-4.103L70 47.892l6.794-9.906 2.109 1.75a24.554 24.554 0 0 0 3.93 2.669l.011.006c1.148.633 2.419.959 3.872.959 2.176 0 3.434-.606 4.21-1.46.873-.963 1.43-2.346 1.43-4.41 0-1.804-.505-2.903-1.26-3.636-.688-.667-1.906-1.196-4.136-1.146-.964.073-1.9.199-2.809.382-.904.183-1.816.445-2.737.79l-.785.295-7.757-2.303.346-2.166c.89-5.584 1.632-10.122 2.223-13.623l.002-.008c.599-3.475 1.048-6.141 1.358-7.988l.35-2.087zm3.966 16.825 1.661-9.725h15.82v-2.1H81.38c-.271 1.605-.607 3.58-1.01 5.92a1206.37 1206.37 0 0 0-1.315 7.967l2.06-2.062zM78.5 28.338l.15-.937 5.205-.887a24.418 24.418 0 0 1 2.33-.29 30.818 30.818 0 0 1 2.22-.084c2.06 0 3.783.312 5.212.869 1.47.573 2.646 1.347 3.58 2.287a9.56 9.56 0 0 1 2.147 3.39l.003.008c.5 1.323.758 2.8.758 4.456 0 2.01-.355 3.786-1.034 5.358-.703 1.625-1.65 2.984-2.85 4.103l-.006.006c-1.195 1.12-2.644 2.006-4.372 2.664-1.7.636-3.558.969-5.588.969-2.323 0-4.426-.452-6.348-1.333-1.258-.576-2.347-1.194-3.28-1.848l1.26-1.839a29.38 29.38 0 0 0 2.546 1.562c1.93 1.064 4.038 1.578 6.282 1.578 3.144 0 5.927-.914 7.911-3.1 1.886-2.077 2.73-4.754 2.73-7.77 0-2.817-.835-5.337-2.78-7.224-2.007-1.948-4.773-2.636-7.807-2.555l-.06.001-.058.005c-1.174.087-2.339.24-3.49.472-.903.182-1.801.424-2.694.723l-1.967-.584z" fill="#000"/><path d="M137.074 40.19c-.81 2.79-1.93 5.1-3.38 6.93-1.44 1.83-3.15 3.19-5.11 4.07-1.96.88-4.1 1.33-6.41 1.33-2.31 0-4.32-.44-6.27-1.33-1.94-.89-3.64-2.24-5.08-4.07s-2.57-4.14-3.38-6.93-1.21-6.09-1.21-9.9c0-3.81.4-7.17 1.21-9.96.81-2.79 1.93-5.1 3.38-6.93 1.44-1.83 3.14-3.19 5.08-4.07 1.94-.88 4.03-1.33 6.27-1.33 2.24 0 4.45.44 6.41 1.33 1.96.89 3.67 2.24 5.11 4.07 1.44 1.83 2.57 4.14 3.38 6.93s1.21 6.11 1.21 9.96c0 3.85-.4 7.11-1.21 9.9zm-7.54-17.55c-.44-2.02-1.03-3.62-1.76-4.79s-1.59-2-2.57-2.48c-.98-.48-1.99-.72-3.03-.72-1.04 0-1.97.24-2.92.72-.94.48-1.78 1.31-2.51 2.48-.73 1.17-1.32 2.77-1.76 4.79-.44 2.02-.66 4.57-.66 7.65s.22 5.56.66 7.56c.44 2 1.03 3.6 1.76 4.79s1.57 2.02 2.51 2.48c.94.46 1.91.69 2.92.69s2.05-.23 3.03-.69c.98-.46 1.84-1.29 2.57-2.48.73-1.19 1.32-2.79 1.76-4.79.44-2 .66-4.52.66-7.56s-.22-5.63-.66-7.65z" fill="#FFD600"/><path fill-rule="evenodd" clip-rule="evenodd" d="M122.174 10.5c-1.894 0-3.631.378-5.237 1.107-1.544.7-2.933 1.795-4.148 3.339l-.005.007c-1.203 1.518-2.196 3.515-2.939 6.074-.726 2.5-1.111 5.613-1.111 9.263 0 3.646.384 6.7 1.111 9.203.741 2.552 1.743 4.555 2.944 6.081 1.21 1.538 2.6 2.629 4.156 3.343 1.613.736 3.267 1.103 5.229 1.103 1.977 0 3.766-.383 5.386-1.11 1.563-.702 2.959-1.797 4.17-3.336l.005-.007c1.203-1.518 2.196-3.515 2.939-6.074.727-2.505 1.11-5.519 1.11-9.203 0-3.689-.384-6.761-1.11-9.263-.741-2.552-1.744-4.555-2.944-6.081-1.207-1.533-2.603-2.624-4.179-3.34-1.604-.728-3.456-1.106-5.377-1.106zm-7.302-3.447c2.274-1.031 4.717-1.553 7.302-1.553 2.56 0 5.127.502 7.444 1.554 2.344 1.064 4.367 2.673 6.041 4.8 1.679 2.134 2.937 4.751 3.816 7.779.894 3.078 1.309 6.646 1.309 10.657 0 4.016-.416 7.522-1.309 10.597-.877 3.02-2.123 5.642-3.819 7.783-1.669 2.12-3.692 3.743-6.048 4.8-2.299 1.033-4.79 1.55-7.434 1.55-2.656 0-5.021-.512-7.308-1.556l-.004-.002c-2.323-1.065-4.333-2.674-6.002-4.796-1.68-2.134-2.937-4.751-3.816-7.779-.894-3.076-1.31-6.623-1.31-10.597 0-3.97.416-7.578 1.31-10.657.876-3.02 2.123-5.641 3.818-7.782 1.665-2.115 3.675-3.739 6.01-4.798zm3.255 6.086c1.267-.64 2.581-.989 4.047-.989 1.44 0 2.825.336 4.13.975 1.498.733 2.679 1.939 3.591 3.402.937 1.5 1.608 3.403 2.082 5.58.492 2.26.717 5.043.717 8.183 0 3.143-.225 5.858-.718 8.097-.475 2.16-1.145 4.052-2.071 5.56-.912 1.487-2.105 2.716-3.638 3.436a9.66 9.66 0 0 1-4.093.927 9.06 9.06 0 0 1-4.019-.945c-1.486-.727-2.644-1.955-3.542-3.418-.925-1.508-1.595-3.4-2.07-5.56-.493-2.238-.719-4.913-.719-8.097 0-3.181.226-5.925.718-8.182.474-2.178 1.145-4.08 2.081-5.581.898-1.44 2.045-2.643 3.494-3.384l.01-.004zm2.26 4.46c-.429.22-.962.677-1.522 1.574-.523.84-1.032 2.137-1.438 4-.388 1.782-.603 4.138-.603 7.117 0 2.976.214 5.261.602 7.023.405 1.84.915 3.148 1.449 4.02.563.917 1.085 1.349 1.478 1.541a4.06 4.06 0 0 0 1.821.436c.633 0 1.312-.145 1.968-.453.426-.2.953-.63 1.501-1.524.535-.872 1.045-2.18 1.45-4.02.387-1.761.601-4.086.601-7.023 0-2.94-.214-5.336-.602-7.118-.406-1.862-.915-3.16-1.439-3.999-.547-.877-1.086-1.331-1.548-1.558a4.318 4.318 0 0 0-1.931-.465c-.611 0-1.156.13-1.787.449z" fill="#000"/><path d="M171.496 40.19c-.81 2.79-1.93 5.1-3.38 6.93-1.44 1.83-3.15 3.19-5.11 4.07-1.96.88-4.1 1.33-6.41 1.33-2.31 0-4.32-.44-6.27-1.33-1.94-.89-3.64-2.24-5.08-4.07s-2.57-4.14-3.38-6.93-1.21-6.09-1.21-9.9c0-3.81.4-7.17 1.21-9.96.81-2.79 1.93-5.1 3.38-6.93 1.44-1.83 3.14-3.19 5.08-4.07 1.94-.88 4.03-1.33 6.27-1.33 2.24 0 4.45.44 6.41 1.33 1.96.89 3.67 2.24 5.11 4.07 1.44 1.83 2.57 4.14 3.38 6.93s1.21 6.11 1.21 9.96c0 3.85-.4 7.11-1.21 9.9zm-7.54-17.55c-.44-2.02-1.03-3.62-1.76-4.79s-1.59-2-2.57-2.48c-.98-.48-1.99-.72-3.03-.72-1.04 0-1.97.24-2.92.72-.94.48-1.78 1.31-2.51 2.48-.73 1.17-1.32 2.77-1.76 4.79-.44 2.02-.66 4.57-.66 7.65s.22 5.56.66 7.56c.44 2 1.03 3.6 1.76 4.79s1.57 2.02 2.51 2.48c.94.46 1.91.69 2.92.69s2.05-.23 3.03-.69c.98-.46 1.84-1.29 2.57-2.48.73-1.19 1.32-2.79 1.76-4.79.44-2 .66-4.52.66-7.56s-.22-5.63-.66-7.65z" fill="#FFD600"/><path fill-rule="evenodd" clip-rule="evenodd" d="M156.596 10.5c-1.894 0-3.631.378-5.237 1.107-1.544.7-2.933 1.795-4.148 3.339l-.005.007c-1.203 1.518-2.196 3.515-2.939 6.074-.726 2.5-1.111 5.613-1.111 9.263 0 3.646.384 6.7 1.111 9.203.741 2.552 1.743 4.555 2.944 6.081 1.21 1.538 2.6 2.629 4.156 3.343 1.613.736 3.267 1.103 5.229 1.103 1.977 0 3.766-.383 5.386-1.11 1.563-.702 2.959-1.797 4.17-3.336l.005-.007c1.203-1.518 2.196-3.515 2.938-6.074.728-2.505 1.111-5.519 1.111-9.203 0-3.689-.384-6.761-1.111-9.263-.741-2.552-1.743-4.555-2.943-6.081-1.207-1.533-2.603-2.624-4.179-3.34-1.604-.728-3.456-1.106-5.377-1.106zm-7.302-3.447c2.274-1.031 4.717-1.553 7.302-1.553 2.56 0 5.127.502 7.444 1.554 2.344 1.064 4.367 2.673 6.041 4.8 1.679 2.134 2.937 4.751 3.816 7.779.894 3.078 1.309 6.646 1.309 10.657 0 4.016-.416 7.522-1.309 10.597-.877 3.02-2.123 5.642-3.819 7.783-1.669 2.12-3.692 3.743-6.048 4.8-2.299 1.033-4.791 1.55-7.434 1.55-2.656 0-5.021-.512-7.308-1.556l-.004-.002c-2.323-1.065-4.333-2.674-6.002-4.796-1.68-2.134-2.938-4.751-3.817-7.779-.893-3.076-1.309-6.623-1.309-10.597 0-3.97.415-7.578 1.309-10.657.877-3.02 2.123-5.641 3.819-7.782 1.665-2.115 3.675-3.739 6.01-4.798zm3.255 6.086c1.267-.64 2.581-.989 4.047-.989 1.44 0 2.825.336 4.13.975 1.498.733 2.679 1.939 3.591 3.402.937 1.5 1.608 3.403 2.082 5.58.492 2.26.717 5.043.717 8.183 0 3.143-.226 5.858-.718 8.097-.475 2.16-1.145 4.052-2.071 5.56-.912 1.487-2.105 2.716-3.638 3.436a9.66 9.66 0 0 1-4.093.927 9.057 9.057 0 0 1-4.019-.945c-1.486-.727-2.645-1.955-3.542-3.418-.925-1.508-1.595-3.4-2.07-5.56-.493-2.238-.719-4.913-.719-8.097 0-3.181.226-5.925.718-8.182.474-2.178 1.145-4.08 2.081-5.581.898-1.44 2.045-2.643 3.494-3.384l.01-.004zm2.26 4.46c-.43.22-.962.677-1.522 1.574-.523.84-1.032 2.137-1.438 4-.388 1.782-.603 4.138-.603 7.117 0 2.976.214 5.261.602 7.023.405 1.84.915 3.148 1.449 4.02.563.917 1.084 1.349 1.478 1.541a4.06 4.06 0 0 0 1.821.436c.633 0 1.311-.145 1.968-.453.426-.2.953-.63 1.501-1.524.535-.872 1.045-2.18 1.45-4.02.387-1.761.601-4.086.601-7.023 0-2.94-.214-5.336-.602-7.118-.406-1.862-.915-3.16-1.439-3.999-.547-.877-1.086-1.331-1.548-1.558a4.318 4.318 0 0 0-1.931-.465c-.611 0-1.156.13-1.787.449z" fill="#000"/><path d="M176.105 27.11h11.66v-12.3h6.29v12.3h11.66v6h-11.66v12.3h-6.29v-12.3h-11.66v-6z" fill="#FFD600"/><path fill-rule="evenodd" clip-rule="evenodd" d="M185.265 12.31h11.29v12.3h11.66v11h-11.66v12.3h-11.29v-12.3h-11.66v-11h11.66v-12.3zm5 5v12.3h-11.66v1h11.66v12.3h1.29v-12.3h11.66v-1h-11.66v-12.3h-1.29z" fill="#000"/><path d="M225.707 7.31h25.06v3.87h9.58V3.5h7.62v31.18h-7.62v-6.81h-9.58v3.93h-25.06V7.31zm31.9 29.39c2.25.46 4.16 1.14 5.72 2.02 1.56.89 2.76 1.97 3.61 3.26.85 1.29 1.27 2.74 1.27 4.36s-.42 3.07-1.27 4.36c-.85 1.29-2.05 2.38-3.61 3.26-1.56.88-3.46 1.56-5.72 2.02-2.25.46-4.8.69-7.65.69-2.85 0-5.34-.23-7.59-.69-2.25-.46-4.16-1.14-5.72-2.02-1.56-.89-2.76-1.97-3.61-3.26-.85-1.29-1.27-2.74-1.27-4.36s.42-3.07 1.27-4.36c.85-1.29 2.05-2.38 3.61-3.26 1.56-.88 3.46-1.56 5.72-2.02 2.26-.46 4.78-.69 7.59-.69 2.81 0 5.4.23 7.65.69zm-24.39-10.91h10.1V13.38h-10.1v12.41zm27.37 20.56c0-3-3.54-4.5-10.62-4.5-7.08 0-10.57 1.5-10.57 4.5s3.52 4.5 10.57 4.5c7.05 0 10.62-1.5 10.62-4.5zm-.23-24.54v-4.56h-9.58v4.56h9.58z" fill="#FFD600"/><path fill-rule="evenodd" clip-rule="evenodd" d="M257.847 1h12.62v36.18h-4.885c1.388.94 2.551 2.071 3.443 3.425 1.134 1.721 1.682 3.655 1.682 5.735 0 2.08-.548 4.014-1.682 5.735-1.098 1.666-2.612 3.014-4.47 4.063-1.833 1.034-3.99 1.791-6.447 2.291-2.449.5-5.171.741-8.151.741-2.984 0-5.645-.24-8.091-.74-2.444-.5-4.612-1.257-6.447-2.292l-.011-.006c-1.842-1.051-3.357-2.385-4.459-4.056-1.134-1.722-1.682-3.656-1.682-5.736 0-2.08.548-4.014 1.682-5.736 1.098-1.665 2.612-3.014 4.47-4.061 1.774-1.001 3.851-1.743 6.21-2.243h-18.422V4.81h30.06v3.87h4.58V1zm-9.58 8.81h-20.06V29.3h20.06v-3.93h14.58v6.81h2.62V6h-2.62v7.68h-14.58V9.81zm5 20.56v3.248c1.612.109 3.148.301 4.58.58V30.37h-4.58zm-22.55-19.49h15.1v17.41h-15.1V10.88zm5 5v7.41h5.1v-7.41h-5.1zm12.56-1.13h14.58v9.56h-14.58v-9.56zm1.68 23.76c-2.676 0-5.026.22-7.091.64-2.062.42-3.705 1.022-4.991 1.748-1.262.711-2.148 1.543-2.75 2.457-.566.859-.858 1.825-.858 2.985s.292 2.126.858 2.984c.598.908 1.48 1.733 2.756 2.462 1.283.723 2.934 1.325 4.987 1.745 2.054.42 4.373.639 7.089.639 2.72 0 5.098-.22 7.149-.64h.002c2.063-.42 3.705-1.022 4.991-1.747 1.262-.712 2.148-1.544 2.75-2.459.566-.858.858-1.824.858-2.984s-.292-2.126-.858-2.985c-.598-.907-1.48-1.732-2.756-2.46-1.284-.724-2.934-1.326-4.987-1.746-2.05-.419-4.467-.639-7.149-.639zm-8.911 2.166c2.23-.952 5.282-1.326 8.921-1.326 3.641 0 6.702.374 8.94 1.323 1.146.485 2.204 1.174 2.981 2.163.807 1.025 1.199 2.232 1.199 3.514 0 1.287-.397 2.495-1.207 3.52-.78.986-1.84 1.673-2.986 2.158-2.24.947-5.3 1.322-8.927 1.322-3.626 0-6.676-.375-8.908-1.325-1.142-.486-2.197-1.176-2.971-2.166-.802-1.025-1.191-2.23-1.191-3.509 0-1.273.384-2.477 1.183-3.504.772-.991 1.824-1.683 2.966-2.17zm.98 5.24c-.077.099-.129.207-.129.434 0 .222.051.329.129.428.106.136.373.383.992.647 1.29.55 3.525.925 6.949.925 3.423 0 5.674-.375 6.98-.928.628-.265.902-.515 1.011-.654.08-.101.129-.205.129-.418 0-.218-.05-.323-.129-.423-.107-.137-.377-.386-1.001-.65-1.302-.552-3.551-.927-6.99-.927-3.44 0-5.673.376-6.959.924-.615.263-.878.509-.982.643z" fill="#000"/><path d="M83.436 24.05c.88-.15 1.74-.26 2.57-.32.83-.06 1.63-.09 2.4-.09 2.31 0 4.35.35 6.12 1.04 1.77.69 3.25 1.65 4.45 2.86 1.19 1.21 2.1 2.64 2.71 4.27.62 1.64.92 3.42.92 5.34 0 2.31-.41 4.43-1.24 6.35-.83 1.92-1.97 3.57-3.44 4.94-1.46 1.37-3.2 2.42-5.2 3.18-2 .75-4.16 1.13-6.47 1.13-2.66 0-5.12-.52-7.39-1.56-2.27-1.04-4.14-2.25-5.6-3.64l4.04-5.89c1.35 1.12 2.79 2.1 4.33 2.94 1.54.85 3.23 1.27 5.08 1.27 2.66 0 4.68-.76 6.06-2.28 1.38-1.52 2.08-3.55 2.08-6.09 0-2.31-.67-4.12-2.02-5.43-1.35-1.31-3.35-1.92-6-1.85-1.08.08-2.14.22-3.18.43s-2.08.51-3.12.9l-4.85-1.44c.89-5.58 1.63-10.11 2.22-13.6.6-3.48 1.05-6.15 1.36-8h21.83v7.1h-16.21l-1.44 8.43-.01.01zM137.074 40.19c-.81 2.79-1.93 5.1-3.38 6.93-1.44 1.83-3.15 3.19-5.11 4.07-1.96.88-4.1 1.33-6.41 1.33-2.31 0-4.32-.44-6.27-1.33-1.94-.89-3.64-2.24-5.08-4.07s-2.57-4.14-3.38-6.93-1.21-6.09-1.21-9.9c0-3.81.4-7.17 1.21-9.96.81-2.79 1.93-5.1 3.38-6.93 1.44-1.83 3.14-3.19 5.08-4.07 1.94-.88 4.03-1.33 6.27-1.33 2.24 0 4.45.44 6.41 1.33 1.96.89 3.67 2.24 5.11 4.07 1.44 1.83 2.57 4.14 3.38 6.93s1.21 6.11 1.21 9.96c0 3.85-.4 7.11-1.21 9.9zm-7.54-17.55c-.44-2.02-1.03-3.62-1.76-4.79s-1.59-2-2.57-2.48c-.98-.48-1.99-.72-3.03-.72-1.04 0-1.97.24-2.92.72-.94.48-1.78 1.31-2.51 2.48-.73 1.17-1.32 2.77-1.76 4.79-.44 2.02-.66 4.57-.66 7.65s.22 5.56.66 7.56c.44 2 1.03 3.6 1.76 4.79s1.57 2.02 2.51 2.48c.94.46 1.91.69 2.92.69s2.05-.23 3.03-.69c.98-.46 1.84-1.29 2.57-2.48.73-1.19 1.32-2.79 1.76-4.79.44-2 .66-4.52.66-7.56s-.22-5.63-.66-7.65zM171.496 40.19c-.81 2.79-1.93 5.1-3.38 6.93-1.44 1.83-3.15 3.19-5.11 4.07-1.96.88-4.1 1.33-6.41 1.33-2.31 0-4.32-.44-6.27-1.33-1.94-.89-3.64-2.24-5.08-4.07s-2.57-4.14-3.38-6.93-1.21-6.09-1.21-9.9c0-3.81.4-7.17 1.21-9.96.81-2.79 1.93-5.1 3.38-6.93 1.44-1.83 3.14-3.19 5.08-4.07 1.94-.88 4.03-1.33 6.27-1.33 2.24 0 4.45.44 6.41 1.33 1.96.89 3.67 2.24 5.11 4.07 1.44 1.83 2.57 4.14 3.38 6.93s1.21 6.11 1.21 9.96c0 3.85-.4 7.11-1.21 9.9zm-7.54-17.55c-.44-2.02-1.03-3.62-1.76-4.79s-1.59-2-2.57-2.48c-.98-.48-1.99-.72-3.03-.72-1.04 0-1.97.24-2.92.72-.94.48-1.78 1.31-2.51 2.48-.73 1.17-1.32 2.77-1.76 4.79-.44 2.02-.66 4.57-.66 7.65s.22 5.56.66 7.56c.44 2 1.03 3.6 1.76 4.79s1.57 2.02 2.51 2.48c.94.46 1.91.69 2.92.69s2.05-.23 3.03-.69c.98-.46 1.84-1.29 2.57-2.48.73-1.19 1.32-2.79 1.76-4.79.44-2 .66-4.52.66-7.56s-.22-5.63-.66-7.65zM176.105 27.11h11.66v-12.3h6.29v12.3h11.66v6h-11.66v12.3h-6.29v-12.3h-11.66v-6zM225.707 7.31h25.06v3.87h9.58V3.5h7.62v31.18h-7.62v-6.81h-9.58v3.93h-25.06V7.31zm31.9 29.39c2.25.46 4.16 1.14 5.72 2.02 1.56.89 2.76 1.97 3.61 3.26.85 1.29 1.27 2.74 1.27 4.36s-.42 3.07-1.27 4.36c-.85 1.29-2.05 2.38-3.61 3.26-1.56.88-3.46 1.56-5.72 2.02-2.25.46-4.8.69-7.65.69-2.85 0-5.34-.23-7.59-.69-2.25-.46-4.16-1.14-5.72-2.02-1.56-.89-2.76-1.97-3.61-3.26-.85-1.29-1.27-2.74-1.27-4.36s.42-3.07 1.27-4.36c.85-1.29 2.05-2.38 3.61-3.26 1.56-.88 3.46-1.56 5.72-2.02 2.26-.46 4.78-.69 7.59-.69 2.81 0 5.4.23 7.65.69zm-24.39-10.91h10.1V13.38h-10.1v12.41zm27.37 20.56c0-3-3.54-4.5-10.62-4.5-7.08 0-10.57 1.5-10.57 4.5s3.52 4.5 10.57 4.5c7.05 0 10.62-1.5 10.62-4.5zm-.23-24.54v-4.56h-9.58v4.56h9.58z" fill="#FFD600"/></svg>