<svg width="220" height="237" fill="none" xmlns="http://www.w3.org/2000/svg"><g clip-path="url(#a)"><path d="M200.751 67.82s26.86 7.85 11.03 36.77c-21.22 38.77-57.73 22.26-57.64 20.64.09-1.62 46.61-57.41 46.61-57.41zm-35.23 50.89c-.13 1.13 22.52 11.03 37.79-16.85 11.38-20.8-5.47-25.09-5.47-25.09s-32.19 40.82-32.32 41.95v-.01zM105.993 15.95s-21.09-18.39-36.92 10.52c-21.22 38.77 12.35 60.62 13.67 59.68 1.32-.95 23.24-70.2 23.24-70.2h.01zm-23.88 57.1c-.89.72-21.43-13.03-6.17-40.92 11.38-20.8 24.09-8.92 24.09-8.92s-17.04 49.12-17.92 49.83v.01zM79.097 148.533l24.63 13.484a3.45 3.45 0 0 1 1.369 4.683l-2.257 4.123-30.683-16.798 2.257-4.123a3.45 3.45 0 0 1 4.684-1.369z" fill="#FFD600" stroke="#000" stroke-width="6" stroke-linecap="round" stroke-linejoin="round"/><path d="m72.456 152.473 31.542 17.268a3.943 3.943 0 0 1 1.564 5.349l-2.185 3.991-38.454-21.053 2.185-3.991a3.94 3.94 0 0 1 5.348-1.564zM211.069 60.95c2.13-3.9-19.48-19.84-48.27-35.6-28.8-15.77-53.87-25.38-56.01-21.48-1.94 3.55-54.29 81.68-17.88 120.97l-8.74 24.57 22.26 12.18 16.17-20.84c49.46 6.83 90.54-76.28 92.47-79.8z" fill="#FFD600" stroke="#000" stroke-width="6" stroke-linecap="round" stroke-linejoin="round"/><path d="M88.91 124.84s5.94 6.72 16.75 11.51l-16.75-11.51z" fill="#FFD600"/><path d="M88.91 124.84s5.94 6.72 16.75 11.51" stroke="#000" stroke-width="6" stroke-linecap="round" stroke-linejoin="round"/><path d="m114.567 185.215-60.856-33.318-21.245 38.805 60.856 33.318 21.245-38.805z" fill="#534741" stroke="#000" stroke-width="6" stroke-linecap="round" stroke-linejoin="round"/><path d="m95.908 225.428-66.006-36.137a1.67 1.67 0 0 0-2.267.663l-2.938 5.368a1.67 1.67 0 0 0 .662 2.267l66.006 36.136a1.67 1.67 0 0 0 2.267-.662l2.938-5.369a1.669 1.669 0 0 0-.662-2.266z" fill="#534741" stroke="#000" stroke-width="6" stroke-linecap="round" stroke-linejoin="round"/><path d="M21.82 109.28c0-15.6-8.42-28.25-18.82-28.25 10.39 0 18.82-12.65 18.82-28.25 0 15.6 8.42 28.25 18.82 28.25-10.39 0-18.82 12.65-18.82 28.25z" fill="#FFD600" stroke="#000" stroke-width="6" stroke-linecap="round" stroke-linejoin="round"/></g><defs><clipPath id="a"><path fill="#fff" d="M0 0h219.78v236.92H0z"/></clipPath></defs></svg>