<svg width="117" height="53" fill="none" xmlns="http://www.w3.org/2000/svg"><g clip-path="url(#a)" fill="#B1B1B1"><path d="M37.913 26.758a5.99 5.99 0 0 0 .613 1.534 5.39 5.39 0 0 0 1.024 1.297c.411.384.892.69 1.449.92l-1.038 1.5a5.219 5.219 0 0 1-1.95-1.423 6.967 6.967 0 0 1-1.233-2.14c-.3.871-.71 1.652-1.246 2.336a5.2 5.2 0 0 1-1.964 1.555l-1.08-1.513a4.744 4.744 0 0 0 1.456-.998c.41-.418.759-.871 1.03-1.373.272-.503.481-1.047.613-1.611a7.581 7.581 0 0 0 .202-1.709v-.732h-2.764v-1.57h7.43v1.57H37.72v.732c0 .537.07 1.08.201 1.625h-.007zm3.761 8.082V21.562h1.901V34.84h-1.9zM47.446 34.602v-3.947h1.845v-1.771c-.585.028-1.149.049-1.699.056-.55.007-1.072.014-1.567.014l-.244-1.514c.606 0 1.254 0 1.943-.014.69-.006 1.4-.027 2.131-.055.732-.028 1.463-.07 2.201-.126a50.382 50.382 0 0 0 2.159-.209l.132 1.353c-.515.098-1.037.174-1.56.23-.522.056-1.058.105-1.602.146v2.511h-1.824v1.813h7.932v1.514h-9.847zm1.267-8.026a3.612 3.612 0 0 1-1.044-.481 2.288 2.288 0 0 1-.683-.74 1.963 1.963 0 0 1-.244-.969c0-.356.084-.676.244-.97.16-.292.39-.543.683-.753.292-.209.64-.37 1.044-.48.404-.12.85-.175 1.337-.175.488 0 .92.056 1.324.174.404.119.752.28 1.044.482.293.209.523.453.683.753.16.293.243.62.243.969s-.083.677-.243.97a2.22 2.22 0 0 1-.683.739c-.292.209-.64.37-1.044.48a4.673 4.673 0 0 1-1.324.175c-.48 0-.933-.056-1.337-.174zm.237-2.936a.823.823 0 0 0-.41.739c0 .32.138.572.41.732.272.16.64.244 1.1.244.46 0 .801-.083 1.08-.244a.797.797 0 0 0 .418-.732c0-.32-.14-.572-.418-.74-.279-.166-.64-.25-1.08-.25-.438 0-.828.084-1.1.25zm8.044-2.085v10.063h-1.901v-1.053h-2.494v-1.297h2.494v-7.713h1.9zM66.724 25.035h-7.716v-1.513h2.939v-1.73h1.901v1.73h2.876v1.513zm-2.486.984c.41.153.76.376 1.059.655.299.286.529.62.696 1.004.167.384.25.81.25 1.27 0 .46-.083.9-.25 1.29-.167.39-.404.725-.696 1.01-.3.287-.648.503-1.059.656-.41.154-.85.23-1.33.23-.48 0-.926-.076-1.337-.23a3.106 3.106 0 0 1-1.073-.655c-.3-.286-.536-.62-.703-1.011a3.229 3.229 0 0 1-.25-1.29c0-.475.083-.886.25-1.27.167-.383.404-.718.703-1.004.3-.286.662-.502 1.073-.655.41-.154.856-.23 1.337-.23.48 0 .926.076 1.33.23zm-.216 4.128c.286-.286.425-.683.425-1.206 0-.523-.14-.893-.425-1.186-.285-.286-.655-.432-1.114-.432-.46 0-.836.14-1.121.425-.286.286-.432.684-.432 1.207s.146.92.432 1.2c.285.278.661.418 1.12.418.46 0 .837-.14 1.115-.426zm5.46 4.693h-1.901V21.562h1.901v5.189h1.901v1.569h-1.9v6.52zM79.134 25.823a8.849 8.849 0 0 1-.989 2.601c-.467.816-1.086 1.57-1.866 2.267-.78.697-1.755 1.332-2.94 1.896l-.995-1.499c.842-.405 1.574-.837 2.187-1.304a7.962 7.962 0 0 0 1.539-1.52c.41-.551.73-1.137.96-1.772.224-.634.37-1.318.44-2.05h-4.423V22.93h6.365c0 1.011-.097 1.973-.285 2.9l.007-.006zm2.319 8.996V21.54h1.915v13.278h-1.915z"/><path d="M89.858 46.333c-6.713 1.988-13.754 2.86-20.719 3.382-8.14.607-16.338.649-24.493.147-7.194-.447-14.465-1.263-21.429-3.187-8.086-2.239-17.334-6.27-20.315-14.833-1.4-4.031-.947-8.257 1.54-11.751 2.332-3.278 5.96-5.488 9.52-7.21 4.282-2.072 8.837-3.648 13.378-5.029a119.139 119.139 0 0 1 14.61-3.43 117.98 117.98 0 0 1 29.655-1.2c5 .425 9.966 1.185 14.869 2.266 4.164.92 8.315 2.078 12.222 3.8 3.907 1.723 7.382 3.83 10.314 6.772 3.134 3.138 5.808 7.392 5.815 11.96 0 4.233-2.354 8.069-5.411 10.837-3.524 3.187-8.106 4.86-12.64 6.005-2.291.578-4.61 1.032-6.93 1.478-1.316.251-.759 2.273.557 2.015 9.249-1.785 19.807-4.219 24.647-13.264 2.263-4.226 2.361-8.912.46-13.298-1.797-4.136-4.938-7.56-8.539-10.21C99.587 6.158 90.22 3.85 81.334 2.357A119.296 119.296 0 0 0 50.05 1.248c-10.37 1.004-20.614 3.32-30.378 6.988C12.053 11.095 2.387 15.209.346 24.059c-1.03 4.477.3 9.212 2.87 12.93 2.737 3.967 6.81 6.75 11.15 8.716 7.124 3.222 14.84 4.694 22.564 5.572 8.42.956 16.937 1.193 25.398.9 7.87-.279 15.802-.976 23.505-2.657a64.67 64.67 0 0 0 4.575-1.165c1.289-.383.739-2.399-.557-2.015l.007-.007z"/></g><defs><clipPath id="a"><path fill="#fff" transform="translate(0 .697)" d="M0 0h116.861v51.598H0z"/></clipPath></defs></svg>