<svg width="117" height="53" viewBox="0 0 117 53" fill="none" xmlns="http://www.w3.org/2000/svg">
<g clip-path="url(#clip0_175_154)">
<path d="M90.4962 47.6911C73.0716 52.8934 38.6541 52.9771 21.3339 47.44C16.0132 45.7384 10.7134 43.458 6.7507 39.5249C2.78106 35.5917 0.378378 29.7059 1.81302 24.3013C3.59588 17.5857 10.4069 13.6246 16.8211 10.9746C39.1903 1.72752 64.4428 -0.37853 88.0309 5.02608C97.9411 7.2995 108.283 11.4279 113.625 20.0892C115.073 22.4324 116.104 25.0894 116.222 27.844C116.48 33.7786 112.413 39.225 107.343 42.3074C102.273 45.3898 96.3114 46.5683 90.4893 47.6911" fill="white"/>
<path d="M28.5 27.0091H31.9334V23.3828H33.7859V27.0091H37.2193V28.7804H33.7859V32.4068H31.9334V28.7804H28.5V27.0091Z" fill="black"/>
<path d="M49.5124 24.8962H49.582C49.979 24.4778 50.4108 24.1152 50.8774 23.8223C51.344 23.5294 51.8872 23.376 52.507 23.376C53.1895 23.376 53.7397 23.5155 54.1575 23.8014C54.5754 24.0873 54.9027 24.4987 55.1256 25.0427C55.5574 24.5685 56.01 24.171 56.4975 23.8502C56.9781 23.5294 57.5283 23.376 58.155 23.376C59.1788 23.376 59.924 23.7107 60.3975 24.3872C60.8711 25.0636 61.1149 26.0051 61.1149 27.2045V33.1461H58.6147V27.5114C58.6147 26.7652 58.5033 26.2422 58.2943 25.9562C58.0784 25.6633 57.7442 25.5239 57.2915 25.5239C56.7483 25.5239 56.1354 25.8795 55.4529 26.5978V33.1531H52.9527V27.5183C52.9527 26.7722 52.8483 26.2491 52.6324 25.9632C52.4165 25.6703 52.0822 25.5308 51.6295 25.5308C51.0863 25.5308 50.4734 25.8865 49.7909 26.6048V33.1601H47.3047V23.6201H49.3452L49.5124 24.8962Z" fill="black"/>
<path d="M65.535 33.0553C64.9779 32.8252 64.4904 32.5044 64.0725 32.079C63.6547 31.6536 63.3134 31.1306 63.0627 30.5099C62.812 29.8893 62.6797 29.1919 62.6797 28.4039C62.6797 27.6158 62.805 26.8975 63.0627 26.2769C63.3204 25.6562 63.6547 25.1262 64.0725 24.7008C64.4904 24.2754 64.9779 23.9477 65.535 23.7245C66.0922 23.4944 66.6633 23.3828 67.2552 23.3828C67.8472 23.3828 68.4322 23.4944 68.9824 23.7245C69.5325 23.9547 70.02 24.2754 70.4379 24.7008C70.8558 25.1262 71.197 25.6493 71.4477 26.2769C71.6984 26.9045 71.8308 27.6089 71.8308 28.4039C71.8308 29.1989 71.7054 29.8893 71.4477 30.5099C71.19 31.1306 70.8558 31.6536 70.4379 32.079C70.02 32.5044 69.5325 32.8322 68.9824 33.0553C68.4322 33.2854 67.8542 33.397 67.2552 33.397C66.6563 33.397 66.0922 33.2854 65.535 33.0553ZM68.7525 30.5518C69.1008 30.0148 69.2818 29.3035 69.2818 28.4039C69.2818 27.5043 69.1077 26.7581 68.7525 26.2211C68.4043 25.6841 67.9029 25.4191 67.2552 25.4191C66.6075 25.4191 66.1131 25.6841 65.7579 26.2211C65.4097 26.7581 65.2286 27.4833 65.2286 28.4039C65.2286 29.3244 65.4027 30.0148 65.7579 30.5518C66.1131 31.0887 66.6075 31.3537 67.2552 31.3537C67.9029 31.3537 68.3974 31.0887 68.7525 30.5518Z" fill="black"/>
<path d="M75.7021 25.3076H75.7717C76.1199 24.6799 76.5378 24.2057 77.0044 23.8779C77.478 23.5502 77.9655 23.3828 78.4739 23.3828C78.7315 23.3828 78.9474 23.4037 79.1215 23.4456C79.2887 23.4874 79.4489 23.5362 79.5951 23.592L79.1494 25.7539C78.9892 25.6981 78.836 25.6562 78.6828 25.6353C78.5296 25.6144 78.3555 25.6004 78.1674 25.6004C77.7914 25.6004 77.4014 25.7399 76.9905 26.0189C76.5796 26.2978 76.2383 26.786 75.9667 27.4764V33.1669H73.4805V23.6269H75.521L75.6881 25.3145L75.7021 25.3076Z" fill="black"/>
<path d="M82.7669 33.0553C82.1888 32.8252 81.6874 32.5044 81.2626 32.079C80.8378 31.6536 80.5035 31.1306 80.2597 30.5099C80.016 29.8893 79.8906 29.1919 79.8906 28.4039C79.8906 27.6158 80.016 26.9394 80.2667 26.3187C80.5174 25.6981 80.8447 25.1751 81.2626 24.7357C81.6804 24.2964 82.1471 23.9616 82.6833 23.7315C83.2196 23.5014 83.7697 23.3828 84.3338 23.3828C84.9885 23.3828 85.5665 23.4944 86.061 23.7245C86.5554 23.9547 86.9663 24.2685 87.3006 24.6799C87.6349 25.0914 87.8856 25.5726 88.0597 26.1304C88.2269 26.6883 88.3174 27.2951 88.3174 27.9506C88.3174 28.1807 88.3035 28.3969 88.2826 28.6061C88.2617 28.8153 88.2338 28.9757 88.199 29.0943H82.3281C82.4326 29.8753 82.7181 30.4681 83.1847 30.8726C83.6583 31.277 84.2503 31.4793 84.9606 31.4793C85.3576 31.4793 85.7267 31.4235 86.0749 31.3119C86.4231 31.2003 86.7644 31.0329 87.1056 30.8168L87.9553 32.351C87.4817 32.6787 86.9594 32.9368 86.3883 33.1251C85.8242 33.3133 85.2322 33.404 84.6194 33.404C83.9578 33.404 83.3449 33.2924 82.7669 33.0623V33.0553ZM85.7267 25.8933C85.4342 25.5098 84.9746 25.3215 84.3687 25.3215C83.8672 25.3215 83.4215 25.5028 83.0246 25.8585C82.6276 26.2141 82.3838 26.7441 82.2933 27.4345H86.1724C86.1724 26.786 86.0262 26.2769 85.7337 25.8933H85.7267Z" fill="black"/>
<path d="M89.8582 46.333C83.1447 48.3205 76.1038 49.1922 69.1395 49.7152C60.9982 50.322 52.8013 50.3638 44.6461 49.8617C37.452 49.4154 30.1813 48.5995 23.217 46.6747C15.1314 44.4362 5.88287 40.4054 2.90215 31.8417C1.50233 27.8109 1.95501 23.5848 4.44126 20.091C6.7743 16.8134 10.4027 14.6027 13.9614 12.8802C18.2445 10.8091 22.7991 9.233 27.3398 7.85221C32.1313 6.40168 37.0132 5.258 41.9509 4.42116C51.7288 2.76839 61.7295 2.37787 71.6048 3.22168C76.6052 3.64708 81.5707 4.40721 86.4736 5.48813C90.6382 6.40866 94.7889 7.56629 98.6959 9.28879C102.603 11.0113 106.078 13.1173 109.01 16.0602C112.144 19.1984 114.818 23.4523 114.825 28.0201C114.825 32.2531 112.471 36.0887 109.414 38.8572C105.89 42.0442 101.308 43.7179 96.7738 44.8616C94.4825 45.4404 92.1634 45.8937 89.8443 46.34C88.528 46.591 89.0852 48.6134 90.4014 48.3554C99.65 46.5701 110.208 44.1363 115.048 35.0914C117.311 30.8654 117.409 26.1791 115.508 21.7926C113.711 17.6572 110.57 14.2331 106.969 11.5831C99.5873 6.1576 90.2204 3.84931 81.3339 2.35695C71.0198 0.620499 60.4759 0.236946 50.0504 1.24813C39.6248 2.25931 29.4361 4.5676 19.6722 8.23576C12.0532 11.095 2.3868 15.2094 0.346261 24.0591C-0.684453 28.5362 0.645725 33.2713 3.21555 36.9883C5.95251 40.9563 10.0266 43.7388 14.3654 45.7054C21.4898 48.9272 29.2063 50.3987 36.9297 51.2773C45.3495 52.2327 53.8668 52.4698 62.3284 52.177C70.1981 51.898 78.1304 51.2006 85.8329 49.52C87.372 49.1852 88.8972 48.8017 90.4084 48.3554C91.6968 47.9718 91.1466 45.9564 89.8513 46.34L89.8582 46.333Z" fill="black"/>
</g>
<defs>
<clipPath id="clip0_175_154">
<rect width="116.861" height="51.5983" fill="white" transform="translate(0 0.697266)"/>
</clipPath>
</defs>
</svg>
