<svg width="449" height="188" fill="none" xmlns="http://www.w3.org/2000/svg"><g clip-path="url(#a)"><path d="M22.52 18.28v10.04h-4.06v-6.86H2.56v-3.17h8.12v-3.97H0v-3.2h17.88c.26-1.28.43-2.45.5-3.49.07-1.05.11-2.04.11-2.97H3.14V1.4h19.31v2.26c0 1.06-.02 2.18-.06 3.37-.04 1.19-.2 2.55-.49 4.07h3.54v3.2H14.7v3.97h7.81l.01.01zM35.9 17.79c1.21-.1 2.49-.27 3.83-.52l.34 3.39c-1.85.35-3.58.57-5.19.67-1.61.1-3.11.15-4.52.15h-1.95V3.33h4.03v14.68c1.1-.04 2.25-.11 3.46-.21v-.01zm11.64 10.5v-14h-2.53v12.69h-3.75V.7h3.75v10.31h2.53V.18h3.84v28.1h-3.84v.01zM75.389 19.31c1.08-.1 2.17-.23 3.26-.4l.24 2.93c-1.51.31-3.04.54-4.59.72-1.56.17-3.09.3-4.61.38-1.52.08-2.97.13-4.38.15-1.4.02-2.71.03-3.91.03l-.52-3.26c1.04 0 2.16 0 3.36-.02 1.2-.01 2.44-.04 3.72-.08v-4.27h4.06v4.09c1.16-.08 2.28-.17 3.36-.27h.01zm-11.17-7.14c.77-.45 1.43-.96 1.97-1.54.54-.58.95-1.21 1.24-1.88.28-.67.46-1.35.52-2.04h-5.61v-3.2h5.64V.46h4.06v3.05h5.71v3.2h-5.68c.06.67.24 1.33.53 1.97.29.64.71 1.24 1.24 1.78.53.55 1.18 1.04 1.95 1.48.77.44 1.68.79 2.72 1.05l-1.77 3.05c-1.65-.41-3.02-1.04-4.1-1.91a9.827 9.827 0 0 1-2.58-3.04c-.63 1.22-1.5 2.28-2.61 3.19-1.11.91-2.49 1.58-4.13 2.03l-1.8-3.08c1.04-.26 1.94-.62 2.72-1.07l-.02.01zm15.96 16.2V.18h4.03v28.19h-4.03zM88.09 25.11v-3.26H98.8v-5.43h4.03v5.43h10.71v3.26H88.09zm5.02-11.87c1.19-.47 2.19-1.02 2.99-1.65.8-.63 1.42-1.33 1.86-2.09.44-.76.7-1.52.78-2.27h-8.45v-3.2h8.51V.58h4.03v3.45h8.51v3.2h-8.45c.08.75.34 1.51.78 2.27s1.06 1.46 1.86 2.09c.8.63 1.8 1.18 2.99 1.65 1.19.47 2.59.79 4.2.98l-1.43 3.17c-2.64-.35-4.82-1-6.51-1.97-1.7-.97-3.02-2.18-3.95-3.65-.94 1.46-2.25 2.68-3.95 3.65-1.7.97-3.87 1.62-6.51 1.97l-1.43-3.17c1.61-.18 3.01-.51 4.2-.98h-.03zM130.159 18.47c1.22-.09 2.5-.26 3.84-.5l.31 3.26c-1.71.33-3.36.53-4.94.63-1.59.09-3.28.14-5.06.14h-1.95V3.45h10.4v3.26h-6.44v11.96c1.34-.04 2.62-.11 3.84-.2zm11.69 9.84V14.24h-2.53v12.75h-3.75V.73h3.75v10.28h2.53V.18h3.81v28.13h-3.81zM148.862 2.69h6.22V.06h4.06v2.62h6.25v3.17h-16.54V2.68l.01.01zm14.66 11.3c-.34.64-.81 1.19-1.42 1.65-.61.46-1.34.81-2.18 1.07-.84.25-1.77.38-2.79.38s-1.95-.13-2.79-.38c-.84-.25-1.57-.61-2.18-1.07a4.964 4.964 0 0 1-1.42-1.65c-.34-.64-.5-1.34-.5-2.09 0-.75.17-1.47.5-2.11.34-.63.81-1.17 1.42-1.62.61-.45 1.34-.8 2.18-1.05.84-.25 1.77-.38 2.79-.38s1.95.13 2.79.38c.84.25 1.57.61 2.18 1.05.61.45 1.08.99 1.42 1.62.34.63.5 1.33.5 2.11 0 .78-.17 1.45-.5 2.09zm7.46 14.36h-4.03v-6.13h-14.71v-3.23h18.73v9.37l.01-.01zm-16.06-14.84c.56.36 1.3.53 2.21.53.91 0 1.65-.18 2.21-.53.56-.36.84-.89.84-1.6 0-.71-.28-1.24-.84-1.59-.56-.35-1.3-.52-2.21-.52-.91 0-1.65.17-2.21.52s-.84.87-.84 1.59c0 .72.28 1.25.84 1.6zm16.06 4.32h-4.03V.21h4.03v7.23h3.72v3.33h-3.72v7.06zM185.231 13.87a9.469 9.469 0 0 1-1.98-2.73c-.51 1.22-1.2 2.3-2.07 3.25-.88.95-1.96 1.69-3.26 2.24l-2.14-3.11c.98-.43 1.81-.96 2.5-1.59.69-.63 1.26-1.31 1.69-2.04.44-.73.76-1.5.96-2.32.2-.81.31-1.62.31-2.41V1.89h3.88v3.26a9 9 0 0 0 .29 2.24c.19.74.5 1.44.93 2.11.43.66.97 1.27 1.63 1.82.66.55 1.45 1.01 2.36 1.37l-2.14 3.05c-1.16-.47-2.15-1.09-2.96-1.88v.01zm9.35 4.32c1.19.24 2.21.59 3.05 1.04.84.45 1.49 1 1.94 1.65.45.65.67 1.38.67 2.2 0 .82-.22 1.55-.67 2.21-.45.66-1.09 1.22-1.94 1.66-.84.45-1.86.79-3.05 1.04-1.19.25-2.52.37-3.98.37s-2.82-.12-4.01-.37-2.21-.59-3.05-1.04c-.84-.45-1.5-1-1.95-1.66-.46-.66-.69-1.4-.69-2.21s.23-1.55.69-2.2c.46-.65 1.11-1.2 1.95-1.65.84-.45 1.86-.79 3.05-1.04 1.19-.24 2.53-.37 4.01-.37s2.79.12 3.98.37zm1.63 4.88c0-1.48-1.87-2.23-5.61-2.23-1.85 0-3.26.18-4.23.55-.97.37-1.45.93-1.45 1.68 0 .75.48 1.31 1.45 1.68.97.37 2.37.55 4.23.55 3.74 0 5.61-.74 5.61-2.23zM190.351.74h3.75v6.32h2.2V.21h3.81v17.18h-3.81v-7.11h-2.2v6.22h-3.75V.73v.01zM209.699 15.96v-3.17h9.37V7.88h4.03v4.91h11.9v3.17h-25.3zm16.6 2.14c1.22.24 2.27.59 3.14 1.05.87.46 1.55 1.01 2.01 1.66.47.65.7 1.39.7 2.23 0 .84-.23 1.55-.7 2.2-.47.65-1.14 1.21-2.01 1.66-.88.46-1.92.81-3.14 1.05-1.22.24-2.59.37-4.12.37-1.53 0-2.87-.12-4.1-.37-1.23-.24-2.28-.59-3.14-1.05-.86-.46-1.53-1.01-2-1.66-.47-.65-.7-1.38-.7-2.2 0-.82.23-1.58.7-2.23.47-.65 1.13-1.21 2-1.66.87-.45 1.91-.81 3.14-1.05 1.23-.24 2.6-.37 4.1-.37 1.5 0 2.9.12 4.12.37zm1.56-10.59c.08-.98.12-1.93.12-2.87h-15.44V1.46h19.47v2.32c0 1.12-.04 2.28-.11 3.49-.07 1.21-.3 2.55-.69 4.01l-3.97-.4c.33-1.28.53-2.41.61-3.39l.01.02zm-1.25 17.22c1.04-.38 1.56-.94 1.56-1.69s-.52-1.35-1.56-1.72c-1.04-.38-2.51-.56-4.42-.56-1.91 0-3.38.19-4.41.56-1.03.38-1.54.95-1.54 1.72s.51 1.32 1.54 1.69c1.03.38 2.5.56 4.41.56 1.91 0 3.39-.19 4.42-.56zM236.949 25.05v-3.26h10.68v-5.71h-7.99V2.29h19.98v13.79h-7.96v5.71h10.74v3.26h-25.45zm18.73-19.59h-12.11v7.44h12.11V5.46zM275.329 14.89c-1.06-.96-1.88-2.07-2.47-3.36-.63 1.4-1.5 2.63-2.61 3.69-1.11 1.06-2.49 1.86-4.13 2.41l-2.01-3.2c1.16-.37 2.16-.86 2.99-1.5.83-.63 1.52-1.33 2.06-2.11.54-.77.94-1.6 1.19-2.49.25-.88.38-1.76.38-2.64v-.4h-5.52v-3.2h15.1v3.2h-5.46v.37c0 .83.12 1.66.37 2.49.24.82.62 1.6 1.14 2.33.52.73 1.18 1.4 1.98 2 .8.6 1.75 1.08 2.85 1.45l-1.95 3.14c-1.55-.51-2.85-1.24-3.91-2.2v.02zm-6.1 12.94v-8.82h4.03v5.61h15.13v3.2h-19.16v.01zM287.749.21v20.5h-4.03v-9.98h-4.39V7.47h4.39V.21h4.03zM308.54 15.84c-.95.41-1.97.61-3.07.61-1.04 0-2-.18-2.9-.55-.9-.37-1.68-.87-2.35-1.53a7.07 7.07 0 0 1-1.57-2.3c-.38-.88-.56-1.86-.56-2.91s.19-2 .56-2.9c.38-.9.9-1.66 1.57-2.3.67-.64 1.45-1.14 2.35-1.51.9-.37 1.86-.55 2.9-.55 1.1 0 2.11.19 3.04.58.93.39 1.73.94 2.43 1.65h6.25V.21h4.03v20.56h-4.03v-6.62H311c-.69.71-1.51 1.27-2.46 1.68v.01zm-5.63-3.91c.67.67 1.53 1.01 2.56 1.01s1.9-.34 2.58-1.01c.68-.67 1.02-1.6 1.02-2.78 0-1.18-.34-2.07-1.02-2.75-.68-.67-1.54-1.01-2.58-1.01s-1.89.34-2.56 1.01c-.67.67-1.01 1.59-1.01 2.75s.34 2.11 1.01 2.78zm-.21 15.9v-9.06h4.03v5.86h15.13v3.2H302.7zm10.13-19.62c.04.31.06.62.06.95 0 .79-.07 1.39-.21 1.8h4.52V7.33h-4.52c.06.28.11.58.15.88zM325 2.69h6.25V0h4.06v2.69h6.29l-.03 3.14H325V2.69zm14.69 10.89a4.81 4.81 0 0 1-1.42 1.57c-.61.44-1.34.78-2.18 1.02-.84.24-1.77.37-2.79.37s-1.95-.12-2.79-.37c-.84-.24-1.57-.58-2.18-1.02a4.81 4.81 0 0 1-1.42-1.57c-.34-.61-.5-1.28-.5-2.01 0-.73.17-1.43.5-2.04.34-.61.81-1.13 1.42-1.57.61-.44 1.34-.77 2.18-1.01.84-.23 1.77-.35 2.79-.35s1.95.12 2.79.35c.84.23 1.57.57 2.18 1.01.61.44 1.08.96 1.42 1.57.34.61.5 1.29.5 2.04s-.17 1.4-.5 2.01zm7.46 14.43h-18.28V17.73h4v2.14h10.28v-2.14h4v10.28zm-16.06-14.92c.56.35 1.3.52 2.21.52.91 0 1.65-.17 2.21-.52s.84-.85.84-1.53-.28-1.18-.84-1.53c-.56-.35-1.3-.52-2.21-.52-.91 0-1.65.17-2.21.52s-.84.85-.84 1.53.28 1.18.84 1.53zm1.79 11.78h10.28v-1.95h-10.28v1.95zm14.28-8.21h-4.03V.21h4.03v6.74h3.72v3.3h-3.72v6.41zM358.541 16.63v-3.2h10.68v-2.32h-7.6V1.4h19.28v3.2h-15.29v3.3h15.44v3.2h-7.81v2.32h10.71v3.2h-25.42l.01.01zm16.69 1.71c1.2.22 2.22.56 3.07 1.01.84.45 1.49.99 1.94 1.63.45.64.67 1.38.67 2.21 0 .83-.22 1.54-.67 2.18-.45.64-1.09 1.18-1.94 1.63-.84.45-1.87.78-3.07 1.01-1.2.22-2.56.34-4.09.34-1.53 0-2.89-.11-4.09-.34-1.2-.22-2.22-.56-3.05-1.01-.83-.45-1.47-.99-1.92-1.63-.45-.64-.67-1.37-.67-2.18s.22-1.57.67-2.21c.45-.64 1.09-1.18 1.92-1.63.83-.45 1.85-.78 3.05-1.01 1.2-.22 2.56-.34 4.09-.34 1.53 0 2.89.11 4.09.34zm.18 6.45c.94-.34 1.4-.87 1.4-1.6 0-1.42-1.89-2.14-5.68-2.14s-5.67.71-5.67 2.14c0 .73.47 1.27 1.4 1.6.94.34 2.36.5 4.27.5 1.91 0 3.34-.17 4.27-.5h.01zM396.289 2.87c.9.47 1.68 1.13 2.33 2 .65.86 1.16 1.91 1.54 3.14.38 1.23.56 2.62.56 4.16s-.19 2.94-.56 4.18c-.38 1.24-.89 2.3-1.54 3.17-.65.87-1.43 1.55-2.33 2.01-.91.47-1.89.7-2.94.7a6.28 6.28 0 0 1-2.94-.7c-.91-.47-1.69-1.14-2.35-2.01-.66-.87-1.17-1.93-1.54-3.17-.37-1.24-.55-2.63-.55-4.18 0-1.55.18-2.93.55-4.16.37-1.23.88-2.28 1.54-3.14.66-.86 1.44-1.53 2.35-2 .9-.47 1.89-.7 2.94-.7s2.04.23 2.94.7zm-.41 14.08c.65-1.09.98-2.68.98-4.78s-.33-3.68-.98-4.76c-.65-1.08-1.5-1.62-2.53-1.62-1.03 0-1.91.54-2.55 1.62-.64 1.08-.96 2.66-.96 4.76 0 2.1.32 3.69.96 4.78.64 1.09 1.49 1.63 2.55 1.63 1.06 0 1.88-.54 2.53-1.63zm11.93 11.37h-4.03V.21h4.03V10.8h4.09v3.33h-4.09v14.19zM424.738 18.31c1.87-.14 3.79-.38 5.77-.7l.43 3.26c-1.16.2-2.29.37-3.39.5s-2.21.23-3.33.31c-1.12.07-2.26.12-3.42.14-1.16.02-2.38.03-3.66.03h-2.53V10.29h9.12V5.8h-9.15V2.6h13.27v10.86h-9.12v5.06c2.14 0 4.14-.07 6.01-.21zm7.72 10.07V.18h4.03v28.19h-4.03v.01z" fill="#000"/><path d="M64.48 60.66c5.43 1 10.13 2.66 14.12 4.98 3.99 2.32 7.12 5.43 9.39 9.3 2.27 3.88 3.41 8.7 3.41 14.45 0 2.77-.39 5.54-1.16 8.31-.78 2.77-1.88 5.37-3.32 7.81a26.93 26.93 0 0 1-5.23 6.4 19.84 19.84 0 0 1-7.06 4.07v.83c6.65 1.55 12.15 4.71 16.53 9.47 4.37 4.76 6.56 11.3 6.56 19.6 0 6.2-1.22 11.58-3.66 16.12-2.44 4.54-5.79 8.31-10.05 11.3-4.27 2.99-9.3 5.21-15.12 6.65-5.81 1.44-12.1 2.16-18.86 2.16H6.16V59.16h40.7c6.31 0 12.18.5 17.61 1.5h.01zm-2.24 44.19c3.49-2.88 5.23-6.81 5.23-11.8 0-5.43-1.83-9.3-5.48-11.63-3.65-2.33-9.19-3.49-16.61-3.49H30.76v31.23h14.29c7.97 0 13.71-1.44 17.2-4.32l-.01.01zm4.9 53.75c4.43-3.04 6.65-7.78 6.65-14.2 0-5.98-2.16-10.3-6.48-12.96s-10.8-3.99-19.44-3.99H30.76v35.72h17.11c8.42 0 14.84-1.52 19.27-4.57zM124.291 182.11h-24.92l39.38-122.94h28.91l39.54 122.94h-25.75l-8.64-31.57h-39.87l-8.64 31.57h-.01zm34.14-84.07c-1.72-6.87-3.52-13.62-5.4-20.27h-.66c-1.55 6.76-3.21 13.54-4.98 20.35-1.77 6.81-3.6 13.43-5.48 19.85l-3.66 13.46h29.24l-3.65-13.46c-1.88-6.42-3.68-13.07-5.4-19.94l-.01.01zM265.67 116.65c1.33 3.88 2.6 7.81 3.82 11.8l3.65 11.96h.83c1.33-3.99 2.57-7.97 3.74-11.96 1.16-3.99 2.41-7.92 3.74-11.8l20.44-57.48h27.25v122.94h-22.43v-51.34c0-2.88.08-6.06.25-9.55.17-3.49.41-7.03.75-10.63.33-3.6.67-7.14 1-10.63.33-3.49.66-6.67 1-9.55h-.66l-9.97 28.91-18.94 51.67h-14.12l-19.11-51.67-9.8-28.91h-.67c.33 2.88.69 6.06 1.08 9.55.39 3.49.72 7.03 1 10.63.27 3.6.52 7.14.75 10.63.22 3.49.33 6.67.33 9.55v51.34h-22.1V59.16h27.25l20.93 57.48-.01.01zM414.529 61.08c5.87 1.27 10.96 3.41 15.29 6.4 4.32 2.99 7.72 6.95 10.22 11.88 2.49 4.93 3.74 11.05 3.74 18.36 0 7.31-1.25 13.04-3.74 18.19-2.49 5.15-5.87 9.39-10.13 12.71-4.27 3.32-9.28 5.79-15.04 7.39-5.76 1.61-11.96 2.41-18.61 2.41h-16.45v43.69h-24.59V59.16h40.37c6.75 0 13.07.64 18.94 1.91v.01zm5.15 36.63c0-7.2-2.19-12.18-6.56-14.95-4.38-2.77-10.83-4.15-19.36-4.15h-13.96v40.37h14.79c16.72 0 25.09-7.09 25.09-21.27z" fill="#FFD600" stroke="#030000" stroke-width="10" stroke-linecap="round" stroke-linejoin="round"/><path d="M64.48 60.66c5.43 1 10.13 2.66 14.12 4.98 3.99 2.32 7.12 5.43 9.39 9.3 2.27 3.88 3.41 8.7 3.41 14.45 0 2.77-.39 5.54-1.16 8.31-.78 2.77-1.88 5.37-3.32 7.81a26.93 26.93 0 0 1-5.23 6.4 19.84 19.84 0 0 1-7.06 4.07v.83c6.65 1.55 12.15 4.71 16.53 9.47 4.37 4.76 6.56 11.3 6.56 19.6 0 6.2-1.22 11.58-3.66 16.12-2.44 4.54-5.79 8.31-10.05 11.3-4.27 2.99-9.3 5.21-15.12 6.65-5.81 1.44-12.1 2.16-18.86 2.16H6.16V59.16h40.7c6.31 0 12.18.5 17.61 1.5h.01zm-2.24 44.19c3.49-2.88 5.23-6.81 5.23-11.8 0-5.43-1.83-9.3-5.48-11.63-3.65-2.33-9.19-3.49-16.61-3.49H30.76v31.23h14.29c7.97 0 13.71-1.44 17.2-4.32l-.01.01zm4.9 53.75c4.43-3.04 6.65-7.78 6.65-14.2 0-5.98-2.16-10.3-6.48-12.96s-10.8-3.99-19.44-3.99H30.76v35.72h17.11c8.42 0 14.84-1.52 19.27-4.57zM124.291 182.11h-24.92l39.38-122.94h28.91l39.54 122.94h-25.75l-8.64-31.57h-39.87l-8.64 31.57h-.01zm34.14-84.07c-1.72-6.87-3.52-13.62-5.4-20.27h-.66c-1.55 6.76-3.21 13.54-4.98 20.35-1.77 6.81-3.6 13.43-5.48 19.85l-3.66 13.46h29.24l-3.65-13.46c-1.88-6.42-3.68-13.07-5.4-19.94l-.01.01zM265.67 116.65c1.33 3.88 2.6 7.81 3.82 11.8l3.65 11.96h.83c1.33-3.99 2.57-7.97 3.74-11.96 1.16-3.99 2.41-7.92 3.74-11.8l20.44-57.48h27.25v122.94h-22.43v-51.34c0-2.88.08-6.06.25-9.55.17-3.49.41-7.03.75-10.63.33-3.6.67-7.14 1-10.63.33-3.49.66-6.67 1-9.55h-.66l-9.97 28.91-18.94 51.67h-14.12l-19.11-51.67-9.8-28.91h-.67c.33 2.88.69 6.06 1.08 9.55.39 3.49.72 7.03 1 10.63.27 3.6.52 7.14.75 10.63.22 3.49.33 6.67.33 9.55v51.34h-22.1V59.16h27.25l20.93 57.48-.01.01zM414.529 61.08c5.87 1.27 10.96 3.41 15.29 6.4 4.32 2.99 7.72 6.95 10.22 11.88 2.49 4.93 3.74 11.05 3.74 18.36 0 7.31-1.25 13.04-3.74 18.19-2.49 5.15-5.87 9.39-10.13 12.71-4.27 3.32-9.28 5.79-15.04 7.39-5.76 1.61-11.96 2.41-18.61 2.41h-16.45v43.69h-24.59V59.16h40.37c6.75 0 13.07.64 18.94 1.91v.01zm5.15 36.63c0-7.2-2.19-12.18-6.56-14.95-4.38-2.77-10.83-4.15-19.36-4.15h-13.96v40.37h14.79c16.72 0 25.09-7.09 25.09-21.27z" fill="#FFD600" stroke="#FFD600" stroke-width="2" stroke-linecap="round" stroke-linejoin="round"/></g><defs><clipPath id="a"><path fill="#fff" d="M0 0h448.77v187.11H0z"/></clipPath></defs></svg>