<svg width="385" height="450" viewBox="0 0 385 450" fill="none" xmlns="http://www.w3.org/2000/svg">
<g clip-path="url(#clip0_127_128)">
<path d="M291.417 4.85823C308.216 6.42362 325.003 7.98901 341.802 9.5544L354.075 10.6974C357.295 10.9956 361.921 10.8713 363.612 14.2257C365.303 17.5801 364.706 22.0154 364.88 25.4816C365.079 29.6187 365.278 33.7434 365.465 37.8805C367.069 71.6855 368.673 105.503 370.165 139.32C371.657 173.138 373.062 206.955 374.293 240.772C375.524 274.59 376.221 308.37 377.365 342.15C378.322 370.389 383.594 398.492 379.839 426.756C379.317 430.706 378.633 434.632 377.85 438.533L379.155 437.229C372.304 438.359 365.291 438.72 358.377 439.242C352.234 439.701 346.079 440.136 339.924 440.596C317.368 442.31 294.762 443.416 272.143 443.727C237.239 444.211 202.422 442.348 167.556 441.118C128.996 439.763 90.4985 440.335 52.0258 443.391C45.7339 443.888 39.442 444.447 33.1625 445.056C30.1409 445.342 27.1193 445.652 24.0977 445.963C21.7725 446.199 18.5395 446.758 16.5748 445.093C14.6101 443.428 14.6723 439.304 14.3241 436.943C13.8143 433.477 13.3169 430.011 12.8444 426.545C11.974 420.097 11.1782 413.636 10.4445 407.164C7.53484 381.26 5.74426 355.245 4.76193 329.205C2.83456 278.193 3.99098 227.144 5.1847 176.144C5.794 150.129 6.41573 124.114 6.66442 98.0859C6.78877 85.0783 6.81364 72.0582 6.71416 59.0505C6.66442 52.6399 6.57738 46.2293 6.45303 39.831C6.39086 36.6133 6.30382 33.3955 6.24164 30.1778C6.17947 27.2085 6.00539 23.879 7.63432 21.2451C10.4072 16.7602 16.8608 15.9029 21.7352 15.1699C24.334 14.7848 27.3805 14.4369 30.3772 14.1263C39.6161 13.1697 48.8674 12.474 58.1312 11.8155C85.0521 9.90226 112.01 8.5108 138.969 7.28085C167.842 5.96394 196.727 4.88307 225.625 4.22462C245.272 3.77736 265.08 3.06921 284.714 4.22462C285.97 4.29916 287.239 4.38613 288.495 4.51036C289.75 4.6346 290.024 4.65945 290.932 4.82096C293.282 5.21852 294.289 1.62806 291.927 1.2305C286.045 0.236598 279.94 0.249022 273.996 0.137208C263.675 -0.0491476 253.354 0.0378186 243.034 0.186903C214.944 0.596887 186.854 1.55351 158.789 2.70892C130.724 3.86433 101.565 5.28063 72.9906 7.10692C62.0108 7.80265 51.0311 8.5605 40.0762 9.5047C33.1874 10.101 26.2489 10.6601 19.4348 11.7907C13.1677 12.8343 5.88104 14.8718 3.45629 21.4315C2.561 23.8665 2.46153 26.5252 2.49883 29.0845C2.54857 32.3768 2.66048 35.6691 2.72265 38.9489C2.85943 45.6453 2.94648 52.3542 3.00865 59.0505C3.23247 85.5504 2.87187 112.038 2.33718 138.525C1.24294 190.432 -0.535211 242.363 0.161126 294.306C0.509295 320.483 1.49163 346.672 3.48116 372.775C4.48837 385.981 5.74426 399.175 7.31102 412.332C8.08196 418.854 8.92752 425.364 9.83524 431.862C10.2829 435.042 10.7305 438.235 11.2404 441.403C11.6383 443.938 12.2849 446.435 14.3987 448.1C18.4027 451.255 24.7195 449.615 29.2954 449.156C35.5376 448.535 41.7673 447.963 48.0219 447.441C59.5612 446.485 71.1129 445.702 82.6771 445.13C102.137 444.174 121.622 443.863 141.095 444.149C175.315 444.646 209.473 446.957 243.68 447.441C282.501 447.975 321.16 445.801 359.844 442.857C366.596 442.335 373.435 441.938 380.138 440.819C380.722 440.72 381.319 440.099 381.443 439.515C384.365 424.954 385.435 410.22 384.825 395.386C384.216 380.552 382.525 367.271 381.63 353.195C380.56 336.286 380.523 319.29 380.026 302.357C379.528 285.076 378.969 267.782 378.359 250.5C377.141 215.788 375.723 181.076 374.206 146.377C372.689 111.827 371.073 77.2762 369.419 42.7258C369.021 34.3149 369.058 25.7425 368.151 17.3689C367.84 14.4245 366.994 11.5298 364.569 9.64136C361.958 7.60387 358.563 7.36782 355.38 7.06965C338.295 5.46699 321.21 3.88918 304.112 2.29894L291.404 1.11868C289.017 0.895056 289.029 4.62218 291.404 4.8458L291.417 4.85823Z" fill="black"/>
</g>
<defs>
<clipPath id="clip0_127_128">
<rect width="385" height="450" fill="white"/>
</clipPath>
</defs>
</svg>
