<svg width="340" height="60" viewBox="0 0 340 60" fill="none" xmlns="http://www.w3.org/2000/svg">
<path d="M19.118 53.6036C16.2261 52.4511 13.665 50.8078 11.4453 48.6735L16.685 42.3881C18.3283 43.9034 20.1638 45.1306 22.2021 46.059C24.2403 46.9874 26.2572 47.4463 28.2741 47.4463C30.6538 47.4463 32.4679 46.9767 33.6951 46.027C34.9223 45.0879 35.5412 43.8074 35.5412 42.2066C35.5412 41.3423 35.3812 40.6273 35.0503 40.051C34.7195 39.4748 34.2607 38.9626 33.6631 38.5144C33.0655 38.0662 32.3505 37.65 31.5075 37.2872C30.6644 36.9137 29.7254 36.5081 28.7009 36.0599L22.5969 33.4668C20.9962 32.8052 19.5022 31.9515 18.1256 30.8737C16.749 29.8065 15.6071 28.4833 14.7107 26.9039C13.8037 25.3246 13.3555 23.4251 13.3555 21.2054C13.3555 19.3593 13.7503 17.6198 14.5293 15.9978C15.3084 14.3758 16.3968 12.9778 17.7948 11.804C19.1927 10.6301 20.8575 9.71237 22.789 9.0294C24.7205 8.34644 26.8334 8.01562 29.1384 8.01562C31.849 8.01562 34.4421 8.51718 36.9285 9.52029C39.4149 10.5234 41.5812 11.9747 43.4274 13.8635L38.8067 19.594C37.366 18.3989 35.872 17.4811 34.314 16.8195C32.756 16.1579 31.0273 15.8377 29.1384 15.8377C27.1215 15.8377 25.5208 16.2646 24.3363 17.0969C23.1411 17.94 22.5542 19.1245 22.5542 20.6398C22.5542 21.4188 22.7463 22.1018 23.1411 22.6781C23.5359 23.2543 24.0482 23.7665 24.6778 24.2147C25.3181 24.6629 26.0651 25.0898 26.9295 25.474C27.7938 25.8688 28.7116 26.2423 29.704 26.6158L35.68 29.1449C38.5186 30.2974 40.7488 31.8127 42.3922 33.7016C44.0356 35.5904 44.8573 38.1942 44.8573 41.5237C44.8573 43.3698 44.4731 45.1413 43.7155 46.8273C42.9578 48.5134 41.8587 49.9754 40.4181 51.2346C38.9774 52.4832 37.2273 53.4863 35.1464 54.2226C33.0761 54.9589 30.7178 55.3324 28.0926 55.3324C25.0086 55.3324 22.0206 54.7562 19.1287 53.6036H19.118Z" fill="#FFD600"/>
<path fill-rule="evenodd" clip-rule="evenodd" d="M29.1383 10.6838C27.09 10.6838 25.2835 10.9774 23.6782 11.545C22.0026 12.1375 20.6288 12.9081 19.5102 13.8474C18.3982 14.7812 17.5466 15.8778 16.9341 17.1531C16.3309 18.4089 16.0232 19.7529 16.0232 21.2058C16.0232 23.0661 16.3972 24.4842 17.024 25.5756L17.0308 25.5874C17.7586 26.8698 18.6705 27.921 19.7599 28.7655L19.7701 28.7734C20.9442 29.6926 22.2253 30.4269 23.6158 31.0016L23.6279 31.0066L29.757 33.6104L29.7701 33.6161C30.1282 33.7728 30.4807 33.9264 30.8245 34.0761C31.4423 34.3452 32.0318 34.602 32.5756 34.8428C33.5901 35.2806 34.4866 35.7977 35.2636 36.3804C36.1239 37.0257 36.8364 37.8044 37.3639 38.7232C37.9907 39.8151 38.2089 41.0245 38.2089 42.207C38.2089 44.6014 37.232 46.6774 35.3218 48.1417C33.432 49.6013 30.9341 50.1145 28.2739 50.1145C25.8375 50.1145 23.4452 49.5573 21.096 48.4872C19.6554 47.831 18.3046 47.0422 17.0424 46.1259L15.1792 48.361C16.565 49.4088 18.0765 50.2768 19.7163 50.9664L20.1162 51.1257C22.6969 52.1542 25.35 52.6649 28.0925 52.6649C30.4677 52.6649 32.5164 52.3267 34.2522 51.7094L34.2563 51.7079C36.0565 51.0709 37.5058 50.2274 38.6664 49.2226C39.831 48.2036 40.6904 47.0504 41.2819 45.7342C41.8869 44.3877 42.1893 42.9886 42.1893 41.524C42.1893 38.6244 41.4784 36.7162 40.3794 35.4531C39.0652 33.9426 37.2109 32.6463 34.6762 31.6171L34.6581 31.6098L28.7132 29.0938C27.704 28.7131 26.7482 28.3242 25.8331 27.9066C24.8248 27.4575 23.9316 26.9494 23.1477 26.4007L23.1391 26.3946L23.1305 26.3885C22.2726 25.7778 21.53 25.0472 20.9402 24.1864C20.1973 23.1022 19.8862 21.8744 19.8862 20.6402C19.8862 18.3133 20.8504 16.2913 22.7984 14.9172L22.8023 14.9145C24.5734 13.67 26.7683 13.1702 29.1383 13.1702C31.3312 13.1702 33.4223 13.5428 35.3566 14.3643C36.3779 14.7979 37.3673 15.3228 38.3268 15.9391L39.7567 14.1658C38.6004 13.2819 37.3268 12.5582 35.9302 11.9947C33.7639 11.1208 31.5099 10.6838 29.1383 10.6838ZM21.8994 6.51453C24.1571 5.71623 26.5765 5.34814 29.1383 5.34814C32.1877 5.34814 35.1199 5.91431 37.9265 7.04656C40.7526 8.1867 43.2293 9.84459 45.3351 11.9991L46.9915 13.6938L39.1852 23.375L37.1031 21.6476C35.8462 20.6049 34.5724 19.8281 33.2711 19.2754C32.0893 18.7736 30.723 18.5059 29.1383 18.5059C27.4763 18.5059 26.4702 18.8591 25.872 19.2787C25.431 19.5904 25.2219 19.9375 25.2219 20.6402C25.2219 20.964 25.2949 21.1021 25.3417 21.1705C25.5402 21.4602 25.8195 21.7519 26.2166 22.0358C26.7082 22.3791 27.3019 22.7205 28.0128 23.0364L28.0253 23.042L28.0378 23.0477C28.8323 23.4106 29.6911 23.7609 30.6435 24.1193L30.694 24.1383L36.702 26.6809C39.8362 27.9561 42.436 29.688 44.4048 31.9508C46.5925 34.4653 47.525 37.7648 47.525 41.524C47.525 43.7518 47.059 45.8955 46.1487 47.9212C45.2256 49.9756 43.8881 51.745 42.1736 53.2436L42.1651 53.251C40.4457 54.7412 38.3968 55.9024 36.0382 56.7373C33.6341 57.592 30.9667 58.0006 28.0925 58.0006C24.8409 58.0006 21.6817 57.4223 18.6298 56.2718H18.6058L18.1302 56.0823C14.9232 54.8042 12.0683 52.9741 9.59605 50.5969L7.80469 48.8744L16.4314 38.5259L18.4933 40.4271C19.9327 41.7544 21.5319 42.8226 23.3078 43.6315C25.035 44.4183 26.6765 44.7788 28.2739 44.7788C30.3703 44.7788 31.4982 44.354 32.0621 43.9175L32.0736 43.9086C32.6142 43.495 32.8732 43.0116 32.8732 42.207C32.8732 41.6607 32.7713 41.4402 32.7365 41.3796C32.6023 41.1459 32.3971 40.9001 32.0622 40.649C31.6475 40.338 31.1186 40.0247 30.4527 39.738L30.4396 39.7324L30.4267 39.7267C29.8931 39.4903 29.3271 39.2438 28.7168 38.978C28.3741 38.8287 28.0173 38.6733 27.6444 38.5101L21.5652 35.9276C19.7609 35.1806 18.0599 34.2102 16.4858 32.9785C14.826 31.6908 13.4571 30.0988 12.3936 28.2269C11.2088 26.161 10.6875 23.7822 10.6875 21.2058C10.6875 18.9663 11.1694 16.8315 12.1243 14.8432C13.0698 12.8744 14.3952 11.1752 16.079 9.76123C17.7563 8.35285 19.712 7.288 21.8994 6.51453Z" fill="black"/>
<path d="M60.3084 19.9676V54.4681H51.3125V19.9676H60.3084ZM51.3765 5.66797H60.3725V14.4185H51.3765V5.66797Z" fill="#FFD600"/>
<path fill-rule="evenodd" clip-rule="evenodd" d="M48.7086 3H63.0402V17.0862H48.7086V3ZM54.0442 8.33568V11.7505H57.7045V8.33568H54.0442ZM48.6445 17.2996H62.9762V57.1358H48.6445V17.2996ZM53.9802 22.6353V51.8001H57.6405V22.6353H53.9802Z" fill="black"/>
<path d="M77.191 24.5241H77.4365C78.9518 23.0408 80.6166 21.7709 82.4307 20.7037C84.2341 19.6366 86.315 19.103 88.652 19.103C92.387 19.103 95.0976 20.3302 96.7837 22.774C98.4697 25.2177 99.3128 28.6219 99.3128 32.9758V54.4786H90.2527V34.0856C90.2527 31.4178 89.8686 29.5503 89.111 28.4831C88.3533 27.416 87.1047 26.8824 85.3866 26.8824C83.946 26.8824 82.7188 27.2133 81.6944 27.8642C80.6699 28.5258 79.496 29.4863 78.1834 30.7561V54.4786H69.1875V19.9674H76.5827L77.2017 24.5241H77.191Z" fill="#FFD600"/>
<path fill-rule="evenodd" clip-rule="evenodd" d="M88.6519 21.7707C86.734 21.7707 85.1333 22.2042 83.7891 22.9996L83.7832 23.0031C82.45 23.7874 81.2087 24.692 80.0569 25.7239L80.0599 25.7456C80.1224 25.704 80.1848 25.6631 80.2469 25.623L80.2551 25.6176L80.2635 25.6124C81.7826 24.647 83.5248 24.2145 85.3865 24.2145C87.664 24.2145 89.8744 24.9502 91.2861 26.9385C92.5566 28.7279 92.9204 31.3309 92.9204 34.0855V51.8106H96.6448V32.9757C96.6448 28.9223 95.8534 26.1234 94.5876 24.2889C93.5268 22.7513 91.7606 21.7707 88.6519 21.7707ZM78.1471 27.1918C77.5576 27.6863 76.9508 28.2364 76.3283 28.8386L75.5155 29.625V51.8106H71.8552V22.6351H74.2527L74.558 24.883L77.1909 24.5254V27.1918H78.1471ZM79.224 19.5919C79.8247 19.1736 80.4418 18.7784 81.0751 18.4057C83.3371 17.0681 85.8971 16.4351 88.6519 16.4351C93.0132 16.4351 96.6682 17.9089 98.9794 21.2588C101.086 24.3117 101.98 28.3212 101.98 32.9757V57.1463H87.5848V34.0855C87.5848 31.5044 87.1804 30.3724 86.9355 30.0275C86.8319 29.8815 86.5452 29.5502 85.3865 29.5502C84.3717 29.5502 83.6615 29.777 83.1326 30.111C82.4922 30.5255 81.7308 31.1168 80.8512 31.9121V57.1463H66.5195V17.2994H78.9126L79.224 19.5919Z" fill="black"/>
<path d="M116.686 54.0944C114.638 53.2727 112.855 52.0882 111.361 50.5515C109.857 49.0148 108.683 47.126 107.819 44.885C106.954 42.644 106.527 40.1043 106.527 37.2763C106.527 34.4484 107.008 31.834 107.979 29.5716C108.939 27.3093 110.23 25.4098 111.831 23.8731C113.432 22.3364 115.299 21.1519 117.434 20.3302C119.568 19.5085 121.809 19.103 124.146 19.103C126.28 19.103 128.169 19.4765 129.812 20.2128C131.456 20.9492 132.918 21.8562 134.188 22.9234L129.876 28.7819C129.012 28.0456 128.158 27.48 127.315 27.0852C126.472 26.6904 125.554 26.4983 124.573 26.4983C121.947 26.4983 119.813 27.4694 118.191 29.3902C116.569 31.3217 115.758 33.9469 115.758 37.2763C115.758 38.5889 115.918 39.8802 116.249 41.1607C116.58 42.4306 117.092 43.5724 117.786 44.5756C118.479 45.5787 119.376 46.3897 120.464 47.0086C121.553 47.6276 122.833 47.937 124.317 47.937C125.554 47.937 126.739 47.6809 127.891 47.1687C129.044 46.6565 130.09 45.9842 131.039 45.1625L134.614 51.1384C132.971 52.5791 131.178 53.6355 129.225 54.3078C127.272 54.9908 125.309 55.3216 123.345 55.3216C120.966 55.3216 118.746 54.9054 116.686 54.0837V54.0944Z" fill="#FFD600"/>
<path fill-rule="evenodd" clip-rule="evenodd" d="M124.146 21.7707C122.124 21.7707 120.209 22.1202 118.392 22.8198C116.582 23.5167 115.018 24.5115 113.678 25.7975C112.36 27.0633 111.266 28.6547 110.434 30.614L110.43 30.6238C109.626 32.4972 109.195 34.7431 109.195 37.2762C109.195 39.8376 109.582 42.0429 110.308 43.9248C111.059 45.8741 112.05 47.4412 113.268 48.6849L113.274 48.6917C114.388 49.8371 115.7 50.75 117.217 51.423L117.675 51.6057C119.401 52.2945 121.284 52.6536 123.345 52.6536C125.003 52.6536 126.669 52.3753 128.344 51.7894L128.357 51.7851C129.308 51.4576 130.221 51.0173 131.098 50.4572L130.217 48.9847C129.815 49.2095 129.401 49.4169 128.975 49.6065C127.491 50.266 125.938 50.6047 124.316 50.6047C122.455 50.6047 120.703 50.2132 119.145 49.3276C117.723 48.5188 116.522 47.4389 115.591 46.0928C114.705 44.8115 114.07 43.3789 113.667 41.8331L113.666 41.8279C113.278 40.3249 113.09 38.8093 113.09 37.2762C113.09 33.521 114.009 30.2212 116.148 27.6744L116.153 27.6688C118.304 25.1213 121.197 23.8303 124.573 23.8303C125.911 23.8303 127.219 24.0943 128.447 24.6691C128.726 24.7998 129.002 24.943 129.275 25.0979L130.43 23.5277C129.893 23.2112 129.324 22.9173 128.721 22.6473C127.474 22.0887 125.967 21.7707 124.146 21.7707ZM119.354 57.6234V58.0386L115.693 56.5704C113.311 55.6151 111.214 54.2259 109.452 52.4142C107.662 50.5853 106.306 48.376 105.329 45.845C104.326 43.2449 103.859 40.3706 103.859 37.2762C103.859 34.1554 104.388 31.1742 105.525 28.5242C106.614 25.9609 108.102 23.7549 109.983 21.9484C111.845 20.1611 114.016 18.7869 116.475 17.8404C118.926 16.8966 121.493 16.4351 124.146 16.4351C126.593 16.4351 128.863 16.8641 130.903 17.7781C132.755 18.6077 134.43 19.6427 135.904 20.8808L137.819 22.4899L130.327 32.6704L128.146 30.8127C127.425 30.1983 126.77 29.7755 126.184 29.5011C125.725 29.2862 125.198 29.166 124.573 29.166C122.699 29.166 121.324 29.8162 120.232 31.1086C119.128 32.4248 118.426 34.3747 118.426 37.2762C118.426 38.3673 118.558 39.4333 118.831 40.4906C119.09 41.4835 119.479 42.3337 119.98 43.0581C120.436 43.7182 121.028 44.2603 121.783 44.6894C122.402 45.0416 123.212 45.2691 124.316 45.2691C125.171 45.2691 125.987 45.0956 126.808 44.7307C127.712 44.329 128.536 43.8008 129.294 43.1448L131.697 41.0654L138.046 51.6779L136.373 53.1444C134.488 54.7968 132.399 56.0358 130.1 56.8281C127.871 57.6068 125.612 57.9893 123.345 57.9893C121.978 57.9893 120.646 57.8677 119.354 57.6234Z" fill="black"/>
<path d="M147.56 54.0944C145.468 53.2727 143.643 52.0882 142.107 50.5515C140.57 49.0148 139.354 47.126 138.468 44.885C137.582 42.644 137.145 40.1043 137.145 37.2763C137.145 34.4484 137.593 31.962 138.5 29.7317C139.407 27.4907 140.602 25.5805 142.107 24.0012C143.611 22.4218 145.319 21.2053 147.25 20.3622C149.182 19.5192 151.177 19.103 153.226 19.103C155.606 19.103 157.698 19.5192 159.48 20.3302C161.262 21.1519 162.766 22.3044 163.972 23.7771C165.178 25.2604 166.096 26.9998 166.715 29.0167C167.334 31.0336 167.643 33.2319 167.643 35.6116C167.643 36.4333 167.601 37.223 167.515 37.9807C167.43 38.7383 167.334 39.3252 167.206 39.7414H145.948C146.322 42.58 147.357 44.7249 149.064 46.1763C150.772 47.6382 152.917 48.3639 155.499 48.3639C156.94 48.3639 158.285 48.1611 159.533 47.7449C160.782 47.3394 162.03 46.7418 163.257 45.9628L166.341 51.5119C164.613 52.7071 162.724 53.6355 160.675 54.3185C158.615 55.0015 156.481 55.3323 154.272 55.3323C151.892 55.3323 149.651 54.9161 147.56 54.0944ZM158.284 28.1844C157.217 26.8077 155.574 26.1248 153.354 26.1248C151.551 26.1248 149.929 26.7757 148.488 28.067C147.048 29.3582 146.162 31.2577 145.842 33.7655H159.896C159.896 31.4284 159.362 29.561 158.295 28.1844H158.284Z" fill="#FFD600"/>
<path fill-rule="evenodd" clip-rule="evenodd" d="M153.226 21.7707C151.55 21.7707 149.917 22.1091 148.317 22.8072C146.731 23.4996 145.313 24.5031 144.038 25.8413C142.794 27.1475 141.77 28.7621 140.973 30.7325L140.971 30.7366C140.214 32.5986 139.812 34.7355 139.812 37.2762C139.812 39.8303 140.207 42.0283 140.949 43.9043C141.714 45.8394 142.739 47.4107 143.993 48.6649C145.261 49.9325 146.772 50.9185 148.535 51.6112C150.301 52.3049 152.21 52.6643 154.272 52.6643C156.209 52.6643 158.058 52.3751 159.833 51.7868C160.86 51.4445 161.834 51.0356 162.759 50.5574L162.206 49.5629C161.6 49.838 160.986 50.0775 160.367 50.2791C158.818 50.7939 157.189 51.0316 155.499 51.0316C152.387 51.0316 149.597 50.1429 147.333 48.2056C144.993 46.2151 143.737 43.3897 143.303 40.0893L142.906 37.0735H164.921C164.957 36.605 164.975 36.1179 164.975 35.6115C164.975 33.4636 164.696 31.5325 164.164 29.7993C163.639 28.0872 162.877 26.6601 161.905 25.4637C160.967 24.3186 159.793 23.4135 158.369 22.7556C156.995 22.1317 155.294 21.7707 153.226 21.7707ZM146.183 17.917C148.446 16.9291 150.805 16.4351 153.226 16.4351C155.915 16.4351 158.395 16.9054 160.585 17.9019L160.597 17.9074C162.732 18.892 164.565 20.2898 166.036 22.0868L166.042 22.0941C167.481 23.8635 168.553 25.914 169.265 28.2339C169.971 30.5345 170.311 32.9999 170.311 35.6115C170.311 36.5253 170.264 37.4151 170.166 38.2792C170.078 39.0574 169.962 39.8556 169.756 40.5259L169.176 42.4091H164.334L169.848 52.3304L167.858 53.7062C165.91 55.0533 163.792 56.0914 161.518 56.8493L161.514 56.8506C159.171 57.6277 156.752 58 154.272 58C151.575 58 149.001 57.527 146.584 56.5774C144.164 55.6266 142.026 54.2436 140.22 52.4378C138.401 50.6187 136.993 48.4124 135.987 45.8655C134.957 43.2595 134.477 40.3779 134.477 37.2762C134.477 34.1619 134.971 31.3266 136.028 28.7284C137.044 26.2178 138.411 24.0128 140.175 22.1608C141.91 20.3403 143.906 18.9107 146.183 17.917ZM163.877 42.4091H149.453C149.822 43.1408 150.277 43.7056 150.792 44.1434L150.8 44.1496C151.949 45.1342 153.448 45.6959 155.499 45.6959C156.687 45.6959 157.744 45.5291 158.689 45.2139L158.699 45.2106L158.709 45.2074C159.723 44.8782 160.769 44.3821 161.827 43.7103L163.877 42.4091ZM146.707 26.0802C148.595 24.3888 150.838 23.4568 153.354 23.4568C155.659 23.4568 157.793 24.0622 159.429 25.5164H159.602L160.404 26.5497C161.941 28.5334 162.564 31.041 162.564 33.7653V36.4332H142.812L143.195 33.4275C143.572 30.4777 144.662 27.9137 146.707 26.0802ZM153.354 28.7925C152.263 28.7925 151.263 29.1624 150.269 30.0535C149.961 30.3297 149.673 30.6719 149.42 31.0975H156.852C156.709 30.6716 156.531 30.316 156.331 30.0192L156.176 29.8187C155.752 29.2714 155.003 28.7925 153.354 28.7925Z" fill="black"/>
<path d="M209.454 8.62378C211.236 9.28541 212.773 10.1925 214.043 11.3663C215.313 12.5402 216.316 13.9488 217.031 15.5922C217.746 17.2356 218.109 19.039 218.109 21.0132C218.066 22.6139 217.767 24.1613 217.212 25.6659C216.657 27.1706 215.953 28.5899 215.089 29.9451C214.224 31.3004 213.253 32.613 212.165 33.8935C211.076 35.1634 209.956 36.4013 208.803 37.5858L199.252 47.2007C200.074 46.998 200.864 46.8592 201.621 46.7952C202.379 46.7312 203.105 46.6992 203.809 46.6992H218.599V54.4679H186.5V49.5378L201.963 34.3204C204.3 31.9834 206.157 29.8064 207.512 27.7895C208.867 25.7726 209.55 23.5743 209.55 21.1946C209.55 19.0604 208.963 17.449 207.789 16.3605C206.616 15.272 205.026 14.7278 203.019 14.7278C201.291 14.7278 199.839 15.2294 198.644 16.2325C197.449 17.2356 196.606 18.4201 196.115 19.7753C195.955 20.2235 195.837 20.7038 195.773 21.1946C195.709 21.6855 195.656 22.2404 195.624 22.8594L187.557 21.5041C188.293 16.7767 190.096 13.2872 192.946 11.0248C195.805 8.76251 199.348 7.63135 203.574 7.63135C205.708 7.63135 207.672 7.96216 209.454 8.61311V8.62378Z" fill="#FFD600"/>
<path fill-rule="evenodd" clip-rule="evenodd" d="M203.574 10.2991C199.85 10.2991 196.918 11.2844 194.603 13.1154C192.897 14.4704 191.567 16.4784 190.751 19.3354L193.333 19.7691C193.409 19.465 193.499 19.1671 193.602 18.8779L193.606 18.8667C194.269 17.0373 195.401 15.4708 196.929 14.1888C198.654 12.7408 200.731 12.0598 203.019 12.0598C205.52 12.0598 207.82 12.7502 209.603 14.4041C211.486 16.1499 212.218 18.5764 212.218 21.1945C212.218 24.1201 211.368 26.8339 209.726 29.2774C208.245 31.4815 206.264 33.7923 203.849 36.2067L203.842 36.2143L189.168 50.6552V51.8H190.923L206.9 35.7155C208.004 34.5812 209.082 33.3903 210.135 32.1615C211.146 30.9717 212.043 29.7582 212.839 28.5104C213.601 27.3158 214.22 26.0679 214.709 24.7427C215.16 23.5208 215.402 22.2728 215.441 20.9774C215.436 19.3533 215.137 17.9274 214.584 16.6564C214.015 15.348 213.227 14.2451 212.232 13.3253C211.252 12.42 210.028 11.6826 208.525 11.1247L208.126 10.9765C206.771 10.5353 205.258 10.2991 203.574 10.2991ZM191.749 51.8H215.931V49.3669H203.809C203.186 49.3669 202.535 49.3952 201.846 49.4535C201.253 49.5035 200.604 49.6149 199.891 49.7907L191.749 51.8ZM191.29 8.93237C194.694 6.23976 198.847 4.96338 203.574 4.96338C205.986 4.96338 208.263 5.33778 210.369 6.10708L212.122 6.74722V6.86897C213.493 7.54374 214.746 8.38332 215.854 9.40712C217.398 10.8349 218.616 12.5493 219.477 14.5277C220.35 16.5342 220.776 18.7036 220.776 21.0131V21.0487L220.775 21.0842C220.725 22.9776 220.37 24.8126 219.715 26.5889C219.094 28.273 218.305 29.8638 217.338 31.3796C216.406 32.841 215.362 34.2512 214.197 35.6212L214.19 35.6296C213.071 36.9356 211.912 38.2157 210.715 39.4461L210.705 39.456L206.161 44.0312H221.267V57.1356H183.832V48.42L200.084 32.4264C202.34 30.1698 204.069 28.1291 205.297 26.3015C206.366 24.7111 206.882 23.0283 206.882 21.1945C206.882 19.5441 206.44 18.7478 205.975 18.3166C205.411 17.7936 204.53 17.3955 203.019 17.3955C201.85 17.3955 201.024 17.7176 200.359 18.2758C199.498 18.9985 198.945 19.7991 198.625 20.6779C198.529 20.9481 198.458 21.2414 198.419 21.5396C198.363 21.9629 198.317 22.4487 198.288 22.997L198.134 25.9861L184.515 23.6982L184.92 21.0934C185.728 15.9111 187.768 11.7291 191.286 8.93538L191.29 8.93237Z" fill="black"/>
<path d="M255.076 42.1743C254.211 45.1516 253.016 47.6167 251.469 49.5696C249.932 51.5224 248.107 52.9737 246.016 53.9128C243.924 54.8519 241.64 55.3321 239.175 55.3321C236.71 55.3321 234.565 54.8626 232.495 53.9128C230.425 52.9631 228.611 51.5224 227.074 49.5696C225.537 47.6167 224.331 45.1516 223.467 42.1743C222.603 39.197 222.176 35.6755 222.176 31.6097C222.176 27.5439 222.603 23.9583 223.467 20.981C224.331 18.0037 225.527 15.5386 227.074 13.5858C228.611 11.6329 230.425 10.1923 232.495 9.24253C234.565 8.29278 236.796 7.82324 239.175 7.82324C241.555 7.82324 243.924 8.29278 246.016 9.24253C248.107 10.1923 249.932 11.6329 251.469 13.5858C253.005 15.5386 254.211 18.0037 255.076 20.981C255.94 23.9583 256.367 27.5012 256.367 31.6097C256.367 35.7182 255.94 39.197 255.076 42.1743ZM247.029 23.4461C246.56 21.2905 245.93 19.5831 245.151 18.3345C244.372 17.086 243.454 16.2003 242.409 15.688C241.363 15.1758 240.285 14.9197 239.175 14.9197C238.065 14.9197 237.073 15.1758 236.059 15.688C235.056 16.2003 234.16 17.086 233.381 18.3345C232.602 19.5831 231.972 21.2905 231.503 23.4461C231.033 25.6017 230.798 28.3229 230.798 31.6097C230.798 34.8965 231.033 37.543 231.503 39.6772C231.972 41.8115 232.602 43.5189 233.381 44.7888C234.16 46.0587 235.056 46.9444 236.059 47.4353C237.062 47.9262 238.108 48.1716 239.175 48.1716C240.242 48.1716 241.363 47.9262 242.409 47.4353C243.454 46.9444 244.372 46.0587 245.151 44.7888C245.93 43.5189 246.56 41.8115 247.029 39.6772C247.499 37.543 247.734 34.8538 247.734 31.6097C247.734 28.3656 247.499 25.6017 247.029 23.4461Z" fill="#FFD600"/>
<path fill-rule="evenodd" clip-rule="evenodd" d="M239.175 10.4914C237.157 10.4914 235.308 10.8873 233.607 11.6677C231.946 12.43 230.462 13.5946 229.17 15.2359L229.165 15.243L229.165 15.2429C227.881 16.8631 226.822 18.9947 226.029 21.7252C225.254 24.3937 224.843 27.715 224.843 31.61C224.843 35.5007 225.253 38.7592 226.029 41.4309C226.82 44.1544 227.889 46.292 229.17 47.9202C230.462 49.5614 231.946 50.7261 233.607 51.4883C235.315 52.2716 237.079 52.6646 239.175 52.6646C241.285 52.6646 243.194 52.2557 244.923 51.4794C246.591 50.7305 248.08 49.5619 249.372 47.9202L249.377 47.9131C250.661 46.293 251.721 44.1614 252.513 41.4309C253.289 38.7581 253.699 35.5418 253.699 31.61C253.699 27.6738 253.288 24.3948 252.513 21.7252C251.723 19.0017 250.653 16.8641 249.372 15.2359C248.085 13.6001 246.594 12.4358 244.912 11.672C243.202 10.8955 241.215 10.4914 239.175 10.4914ZM231.382 6.81805C233.822 5.69894 236.434 5.15576 239.175 5.15576C241.895 5.15576 244.645 5.69081 247.118 6.81376C249.62 7.94952 251.779 9.66644 253.565 11.9364C255.357 14.2139 256.699 17.0064 257.637 20.2376C258.591 23.5226 259.034 27.3294 259.034 31.61C259.034 35.8952 258.59 39.6367 257.637 42.9185C256.702 46.1412 255.372 48.9387 253.562 51.2237C251.781 53.4857 249.622 55.2183 247.108 56.347C244.654 57.4488 241.996 58.0003 239.175 58.0003C236.342 58.0003 233.815 57.4542 231.382 56.338C228.903 55.2008 226.759 53.4842 224.977 51.2197C223.185 48.9421 221.843 46.1496 220.905 42.9185C219.952 39.6356 219.508 35.851 219.508 31.61C219.508 27.3736 219.951 23.5237 220.905 20.2376C221.84 17.0151 223.17 14.2178 224.98 11.9328C226.761 9.67013 228.905 7.95472 231.382 6.81805ZM234.856 13.3072C236.208 12.6241 237.61 12.2522 239.175 12.2522C240.712 12.2522 242.189 12.6104 243.582 13.2925C245.18 14.0754 246.44 15.3616 247.414 16.9227C248.414 18.5242 249.13 20.5545 249.636 22.8787C250.161 25.2885 250.401 28.2597 250.401 31.61C250.401 34.9637 250.16 37.8614 249.635 40.2508C249.128 42.5564 248.413 44.5743 247.425 46.1842C246.452 47.7707 245.179 49.0825 243.542 49.8507C242.149 50.5044 240.643 50.8398 239.175 50.8398C237.687 50.8398 236.241 50.4949 234.886 49.832C233.3 49.0557 232.064 47.7449 231.107 46.1842C230.119 44.5743 229.404 42.5564 228.897 40.2508C228.371 37.8624 228.13 35.0079 228.13 31.61C228.13 28.2155 228.371 25.2875 228.896 22.8787C229.402 20.5545 230.118 18.5242 231.117 16.9227C232.076 15.3867 233.299 14.1025 234.846 13.3124L234.856 13.3072L234.856 13.3072ZM237.268 18.0667C236.81 18.302 236.242 18.7892 235.644 19.7471C235.085 20.6427 234.542 22.0272 234.109 24.0143C233.695 25.9166 233.466 28.431 233.466 31.61C233.466 34.7858 233.694 37.2242 234.108 39.1044C234.54 41.0673 235.084 42.4643 235.655 43.3942C236.255 44.3732 236.812 44.8338 237.232 45.0394C237.883 45.3582 238.529 45.5042 239.175 45.5042C239.842 45.5042 240.576 45.3487 241.275 45.0206C241.73 44.8071 242.292 44.3475 242.877 43.3942C243.447 42.4643 243.992 41.0673 244.424 39.1044C244.837 37.2252 245.066 34.7446 245.066 31.61C245.066 28.4722 244.837 25.9157 244.422 24.0143C243.99 22.0272 243.446 20.6427 242.888 19.7471C242.304 18.811 241.728 18.3258 241.235 18.0843C240.536 17.7419 239.858 17.5879 239.175 17.5879C238.522 17.5879 237.941 17.7274 237.268 18.0667Z" fill="black"/>
<path d="M291.802 42.1743C290.938 45.1516 289.743 47.6167 288.195 49.5696C286.659 51.5224 284.834 52.9737 282.742 53.9128C280.651 54.8519 278.367 55.3321 275.902 55.3321C273.437 55.3321 271.292 54.8626 269.222 53.9128C267.151 52.9631 265.337 51.5224 263.8 49.5696C262.264 47.6167 261.058 45.1516 260.194 42.1743C259.329 39.197 258.902 35.6755 258.902 31.6097C258.902 27.5439 259.329 23.9583 260.194 20.981C261.058 18.0037 262.253 15.5386 263.8 13.5858C265.337 11.6329 267.151 10.1923 269.222 9.24253C271.292 8.29278 273.522 7.82324 275.902 7.82324C278.282 7.82324 280.651 8.29278 282.742 9.24253C284.834 10.1923 286.659 11.6329 288.195 13.5858C289.732 15.5386 290.938 18.0037 291.802 20.981C292.667 23.9583 293.093 27.5012 293.093 31.6097C293.093 35.7182 292.667 39.197 291.802 42.1743ZM283.756 23.4461C283.286 21.2905 282.657 19.5831 281.878 18.3345C281.099 17.086 280.181 16.2003 279.135 15.688C278.089 15.1758 277.012 14.9197 275.902 14.9197C274.792 14.9197 273.8 15.1758 272.786 15.688C271.783 16.2003 270.886 17.086 270.107 18.3345C269.328 19.5831 268.699 21.2905 268.229 23.4461C267.76 25.6017 267.525 28.3229 267.525 31.6097C267.525 34.8965 267.76 37.543 268.229 39.6772C268.699 41.8115 269.328 43.5189 270.107 44.7888C270.886 46.0587 271.783 46.9444 272.786 47.4353C273.789 47.9262 274.835 48.1716 275.902 48.1716C276.969 48.1716 278.089 47.9262 279.135 47.4353C280.181 46.9444 281.099 46.0587 281.878 44.7888C282.657 43.5189 283.286 41.8115 283.756 39.6772C284.225 37.543 284.46 34.8538 284.46 31.6097C284.46 28.3656 284.225 25.6017 283.756 23.4461Z" fill="#FFD600"/>
<path fill-rule="evenodd" clip-rule="evenodd" d="M275.902 10.4914C273.883 10.4914 272.035 10.8873 270.334 11.6677C268.672 12.43 267.188 13.5946 265.897 15.2359L265.891 15.243L265.891 15.2429C264.608 16.8631 263.548 18.9947 262.755 21.7252C261.981 24.3937 261.57 27.715 261.57 31.61C261.57 35.5007 261.98 38.7592 262.755 41.4309C263.546 44.1544 264.616 46.292 265.897 47.9202C267.188 49.5614 268.672 50.7261 270.334 51.4883C272.041 52.2716 273.805 52.6646 275.902 52.6646C278.011 52.6646 279.92 52.2557 281.649 51.4794C283.317 50.7305 284.807 49.5619 286.099 47.9202L286.104 47.9131C287.388 46.293 288.447 44.1614 289.24 41.4309C290.016 38.7581 290.425 35.5419 290.425 31.61C290.425 27.6737 290.015 24.3948 289.24 21.7252C288.449 19.0017 287.38 16.8641 286.099 15.2359C284.811 13.6001 283.321 12.4358 281.639 11.672C279.929 10.8955 277.941 10.4914 275.902 10.4914ZM268.109 6.81805C270.548 5.69894 273.161 5.15576 275.902 5.15576C278.621 5.15576 281.372 5.69081 283.845 6.81376C286.346 7.94951 288.505 9.66641 290.292 11.9364C292.084 14.2139 293.426 17.0064 294.364 20.2376C295.318 23.5226 295.761 27.3294 295.761 31.61C295.761 35.8952 295.317 39.6367 294.364 42.9185C293.428 46.1412 292.098 48.9387 290.288 51.2237C288.508 53.4858 286.348 55.2183 283.835 56.347C281.381 57.4488 278.722 58.0003 275.902 58.0003C273.068 58.0003 270.542 57.4542 268.109 56.338C265.63 55.2008 263.486 53.4842 261.704 51.2197C259.912 48.9421 258.569 46.1496 257.631 42.9185C256.678 39.6356 256.234 35.851 256.234 31.61C256.234 27.3736 256.677 23.5237 257.631 20.2376C258.567 17.0151 259.897 14.2178 261.707 11.9328C263.488 9.67013 265.631 7.95472 268.109 6.81805ZM271.583 13.3072C272.935 12.6241 274.337 12.2522 275.902 12.2522C277.438 12.2522 278.916 12.6104 280.309 13.2925C281.907 14.0754 283.167 15.3616 284.141 16.9227C285.14 18.5242 285.856 20.5545 286.362 22.8787C286.887 25.2885 287.128 28.2597 287.128 31.61C287.128 34.9637 286.887 37.8615 286.361 40.2508C285.854 42.5564 285.139 44.5743 284.152 46.1842C283.178 47.7707 281.905 49.0825 280.269 49.8507C278.876 50.5044 277.369 50.8398 275.902 50.8398C274.413 50.8398 272.968 50.4948 271.613 49.832C270.027 49.0558 268.791 47.745 267.833 46.1842C266.845 44.5743 266.131 42.5564 265.623 40.2508C265.098 37.8624 264.857 35.0078 264.857 31.61C264.857 28.2156 265.098 25.2876 265.622 22.8787C266.128 20.5545 266.844 18.5242 267.844 16.9227C268.802 15.3866 270.025 14.1024 271.572 13.3124L271.583 13.3072L271.583 13.3072ZM273.994 18.0667C273.536 18.302 272.968 18.7892 272.371 19.7471C271.812 20.6427 271.269 22.0272 270.836 24.0143C270.421 25.9166 270.193 28.431 270.193 31.61C270.193 34.7858 270.421 37.2242 270.834 39.1044C271.266 41.0673 271.811 42.4643 272.381 43.3942C272.982 44.3731 273.538 44.8338 273.958 45.0394C274.61 45.3583 275.256 45.5042 275.902 45.5042C276.568 45.5042 277.303 45.3487 278.001 45.0206C278.456 44.8071 279.019 44.3475 279.604 43.3942C280.174 42.4643 280.718 41.0673 281.15 39.1044C281.564 37.2252 281.792 34.7446 281.792 31.61C281.792 28.4723 281.563 25.9157 281.149 24.0143C280.716 22.0272 280.173 20.6427 279.614 19.7471C279.03 18.811 278.455 18.3258 277.962 18.0843C277.263 17.7419 276.585 17.5879 275.902 17.5879C275.249 17.5879 274.668 17.7274 273.994 18.0667Z" fill="black"/>
<path d="M320.668 26.6798C322.333 27.256 323.805 28.1311 325.075 29.2943C326.345 30.4681 327.38 31.9301 328.159 33.7015C328.938 35.473 329.333 37.5219 329.333 39.8589C329.333 42.0359 328.928 44.0848 328.127 45.9949C327.327 47.9051 326.206 49.5805 324.766 51.0211C323.325 52.4618 321.586 53.5929 319.526 54.4146C317.467 55.2363 315.215 55.6418 312.75 55.6418C310.285 55.6418 307.991 55.2363 306.006 54.436C304.021 53.6356 302.313 52.5151 300.926 51.0745C299.528 49.6339 298.45 47.8944 297.693 45.8349C296.935 43.786 296.551 41.5236 296.551 39.0586C296.551 36.967 297.02 34.7473 297.97 32.3996C298.92 30.0626 300.275 27.6509 302.036 25.1858L314.543 8.30371H324.894C322.557 11.1743 320.273 14.0236 318.054 16.8408C315.834 19.658 313.593 22.4966 311.341 25.3779L309.805 26.8612L310.477 26.5517C311.918 26.0608 313.582 25.8154 315.471 25.8154C317.36 25.8154 319.014 26.1035 320.679 26.6798H320.668ZM306.87 46.4538C308.332 47.9371 310.253 48.6734 312.633 48.6734C313.828 48.6734 314.927 48.4814 315.93 48.0865C316.933 47.6917 317.83 47.1261 318.609 46.3898C319.388 45.6535 319.996 44.7677 320.423 43.7433C320.849 42.7188 321.074 41.5877 321.074 40.3498C321.074 37.6393 320.305 35.601 318.758 34.2458C317.221 32.8905 315.194 32.2075 312.686 32.2075C310.178 32.2075 308.268 32.9332 306.827 34.3952C305.387 35.8571 304.672 37.81 304.672 40.2751C304.672 42.9002 305.397 44.9598 306.859 46.4325L306.87 46.4538Z" fill="#FFD600"/>
<path fill-rule="evenodd" clip-rule="evenodd" d="M313.199 5.63623H330.506L326.963 9.98841C324.634 12.8486 322.359 15.6868 320.149 18.4922C319.785 18.9546 319.42 19.4173 319.055 19.8804C318.193 20.9743 317.329 22.0709 316.463 23.1718C318.255 23.2596 319.904 23.5889 321.551 24.1591L321.551 24.1626C323.549 24.8559 325.336 25.916 326.877 27.3273L326.886 27.3355C328.445 28.7763 329.686 30.5469 330.601 32.6279C331.555 34.796 332.001 37.2218 332.001 39.8593C332.001 42.3756 331.531 44.7763 330.588 47.0263C329.656 49.2508 328.342 51.2181 326.652 52.9079C324.937 54.6231 322.886 55.947 320.515 56.8929C318.105 57.8543 315.513 58.31 312.75 58.31C310 58.31 307.359 57.8586 305.008 56.9106C302.711 55.9845 300.68 54.6644 299.008 52.9288C297.332 51.2012 296.065 49.1373 295.189 46.7584C294.311 44.3815 293.883 41.8025 293.883 39.0589C293.883 36.5642 294.443 34.004 295.497 31.3995L295.498 31.3956C296.539 28.8342 298.004 26.2406 299.865 23.6355L299.878 23.6167L313.199 5.63623ZM319.796 29.1977C318.416 28.7212 317.06 28.4836 315.471 28.4836C313.868 28.4836 312.543 28.685 311.459 29.0368L310.92 29.285L307.952 24.9421L309.354 23.5883C311.202 21.225 313.042 18.8899 314.865 16.5763C315.23 16.1134 315.594 15.6513 315.958 15.1901C317.06 13.7913 318.178 12.3848 319.31 10.9719H315.886L304.193 26.7554C302.54 29.0731 301.299 31.296 300.442 33.4025C299.597 35.4926 299.218 37.3711 299.218 39.0589C299.218 41.2447 299.559 43.1897 300.195 44.9099L300.196 44.9141C300.836 46.6518 301.722 48.0647 302.841 49.217L302.848 49.2243C303.949 50.3684 305.332 51.2881 307.003 51.9621C308.622 52.6148 310.569 52.9744 312.75 52.9744C314.917 52.9744 316.828 52.6191 318.538 51.9371C320.286 51.2396 321.713 50.3012 322.879 49.1351C324.071 47.9437 324.998 46.5601 325.667 44.9643C326.325 43.3939 326.665 41.6969 326.665 39.8593C326.665 37.8227 326.322 36.1507 325.717 34.7758C325.075 33.3163 324.248 32.1642 323.269 31.2579C322.273 30.3472 321.12 29.6597 319.795 29.2012L319.796 29.1977ZM304.927 32.523C306.966 30.4536 309.615 29.5401 312.686 29.5401C315.693 29.5401 318.395 30.3703 320.519 32.2426C322.816 34.2565 323.741 37.1385 323.741 40.3501C323.741 41.9169 323.456 43.3993 322.885 44.7697C322.319 46.1288 321.5 47.3283 320.441 48.3289C319.409 49.3042 318.221 50.0521 316.907 50.5693C315.553 51.1022 314.117 51.3416 312.632 51.3416C309.654 51.3416 307.009 50.3959 304.97 48.3269L304.673 48.026L304.649 47.9774C302.791 45.9169 302.004 43.2369 302.004 40.2754C302.004 37.2614 302.897 34.5827 304.927 32.523ZM312.686 34.8757C310.741 34.8757 309.569 35.4135 308.727 36.2681C307.876 37.1323 307.339 38.3594 307.339 40.2754C307.339 42.4011 307.914 43.7089 308.753 44.5532L308.977 44.7798C309.84 45.5562 310.987 46.006 312.632 46.006C313.538 46.006 314.3 45.8612 314.953 45.6044C315.645 45.3319 316.25 44.9487 316.776 44.4513C317.275 43.9793 317.672 43.4073 317.96 42.7175C318.243 42.0391 318.406 41.2591 318.406 40.3501C318.406 38.1426 317.795 36.9495 317 36.253L316.993 36.247C316.045 35.4106 314.692 34.8757 312.686 34.8757Z" fill="black"/>
<path d="M19.1141 53.6036C16.2222 52.4511 13.661 50.8078 11.4414 48.6735L16.681 42.3881C18.3244 43.9034 20.1599 45.1306 22.1981 46.059C24.2364 46.9874 26.2533 47.4463 28.2702 47.4463C30.6499 47.4463 32.464 46.9767 33.6912 46.027C34.9184 45.0879 35.5373 43.8074 35.5373 42.2066C35.5373 41.3423 35.3772 40.6273 35.0464 40.051C34.7156 39.4748 34.2568 38.9626 33.6592 38.5144C33.0616 38.0662 32.3466 37.65 31.5036 37.2872C30.6605 36.9137 29.7214 36.5081 28.697 36.0599L22.593 33.4668C20.9923 32.8052 19.4983 31.9515 18.1217 30.8737C16.7451 29.8065 15.6032 28.4833 14.7068 26.9039C13.7998 25.3246 13.3516 23.4251 13.3516 21.2054C13.3516 19.3593 13.7464 17.6198 14.5254 15.9978C15.3045 14.3758 16.3929 12.9778 17.7909 11.804C19.1888 10.6301 20.8535 9.71237 22.7851 9.0294C24.7166 8.34644 26.8295 8.01562 29.1345 8.01562C31.8451 8.01562 34.4382 8.51718 36.9246 9.52029C39.411 10.5234 41.5773 11.9747 43.4235 13.8635L38.8028 19.594C37.3621 18.3989 35.8681 17.4811 34.3101 16.8195C32.7521 16.1579 31.0234 15.8377 29.1345 15.8377C27.1176 15.8377 25.5169 16.2646 24.3324 17.0969C23.1372 17.94 22.5503 19.1245 22.5503 20.6398C22.5503 21.4188 22.7424 22.1018 23.1372 22.6781C23.532 23.2543 24.0443 23.7665 24.6739 24.2147C25.3142 24.6629 26.0612 25.0898 26.9256 25.474C27.7899 25.8688 28.7077 26.2423 29.7001 26.6158L35.6761 29.1449C38.5147 30.2974 40.7449 31.8127 42.3883 33.7016C44.0317 35.5904 44.8534 38.1942 44.8534 41.5237C44.8534 43.3698 44.4692 45.1413 43.7116 46.8273C42.9539 48.5134 41.8548 49.9754 40.4142 51.2346C38.9735 52.4832 37.2234 53.4863 35.1425 54.2226C33.0722 54.9589 30.7139 55.3324 28.0887 55.3324C25.0047 55.3324 22.0167 54.7562 19.1248 53.6036H19.1141Z" fill="#FFD600"/>
<path d="M60.3045 19.9671V54.4676H51.3086V19.9671H60.3045ZM51.3726 5.66748H60.3686V14.418H51.3726V5.66748Z" fill="#FFD600"/>
<path d="M77.1871 24.5236H77.4326C78.9479 23.0403 80.6127 21.7704 82.4268 20.7032C84.2302 19.6361 86.3111 19.1025 88.6481 19.1025C92.3831 19.1025 95.0937 20.3297 96.7798 22.7735C98.4658 25.2172 99.3089 28.6214 99.3089 32.9753V54.4781H90.2488V34.0851C90.2488 31.4173 89.8647 29.5498 89.1071 28.4827C88.3494 27.4155 87.1008 26.882 85.3827 26.882C83.9421 26.882 82.7149 27.2128 81.6905 27.8637C80.666 28.5253 79.4921 29.4858 78.1795 30.7557V54.4781H69.1836V19.9669H76.5788L77.1978 24.5236H77.1871Z" fill="#FFD600"/>
<path d="M116.683 54.0939C114.634 53.2722 112.852 52.0877 111.358 50.551C109.853 49.0143 108.679 47.1255 107.815 44.8845C106.95 42.6435 106.523 40.1038 106.523 37.2759C106.523 34.4479 107.004 31.8335 107.975 29.5711C108.935 27.3088 110.226 25.4093 111.827 23.8726C113.428 22.336 115.295 21.1514 117.43 20.3297C119.564 19.5081 121.805 19.1025 124.142 19.1025C126.276 19.1025 128.165 19.476 129.808 20.2124C131.452 20.9487 132.914 21.8557 134.184 22.9229L129.872 28.7815C129.008 28.0451 128.154 27.4796 127.311 27.0847C126.468 26.6899 125.55 26.4978 124.569 26.4978C121.944 26.4978 119.809 27.4689 118.187 29.3897C116.565 31.3212 115.754 33.9464 115.754 37.2759C115.754 38.5884 115.914 39.8797 116.245 41.1602C116.576 42.4301 117.088 43.572 117.782 44.5751C118.475 45.5782 119.372 46.3892 120.46 47.0081C121.549 47.6271 122.829 47.9365 124.313 47.9365C125.551 47.9365 126.735 47.6804 127.888 47.1682C129.04 46.656 130.086 45.9837 131.036 45.162L134.61 51.1379C132.967 52.5786 131.174 53.635 129.221 54.3073C127.269 54.9903 125.305 55.3211 123.342 55.3211C120.962 55.3211 118.742 54.9049 116.683 54.0832V54.0939Z" fill="#FFD600"/>
<path d="M147.552 54.0939C145.46 53.2722 143.636 52.0877 142.099 50.551C140.562 49.0143 139.346 47.1255 138.46 44.8845C137.574 42.6435 137.137 40.1038 137.137 37.2759C137.137 34.4479 137.585 31.9615 138.492 29.7312C139.399 27.4902 140.594 25.5801 142.099 24.0007C143.604 22.4213 145.311 21.2048 147.243 20.3618C149.174 19.5187 151.17 19.1025 153.218 19.1025C155.598 19.1025 157.69 19.5187 159.472 20.3297C161.254 21.1514 162.759 22.3039 163.965 23.7766C165.17 25.2599 166.088 26.9993 166.707 29.0162C167.326 31.0331 167.635 33.2314 167.635 35.6111C167.635 36.4328 167.593 37.2225 167.507 37.9802C167.422 38.7378 167.326 39.3248 167.198 39.7409H145.941C146.314 42.5795 147.349 44.7245 149.057 46.1758C150.764 47.6377 152.909 48.3634 155.491 48.3634C156.932 48.3634 158.277 48.1606 159.525 47.7445C160.774 47.3389 162.022 46.7413 163.25 45.9623L166.334 51.5114C164.605 52.7066 162.716 53.635 160.667 54.318C158.608 55.001 156.473 55.3318 154.264 55.3318C151.885 55.3318 149.644 54.9156 147.552 54.0939ZM158.277 28.1839C157.21 26.8073 155.566 26.1243 153.347 26.1243C151.543 26.1243 149.921 26.7752 148.48 28.0665C147.04 29.3577 146.154 31.2572 145.834 33.765H159.888C159.888 31.428 159.354 29.5605 158.287 28.1839H158.277Z" fill="#FFD600"/>
<path d="M209.446 8.6233C211.228 9.28492 212.765 10.192 214.035 11.3658C215.305 12.5397 216.308 13.9483 217.023 15.5917C217.738 17.2351 218.101 19.0385 218.101 21.0127C218.058 22.6134 217.759 24.1608 217.204 25.6654C216.649 27.1701 215.945 28.5894 215.081 29.9447C214.216 31.2999 213.245 32.6125 212.157 33.8931C211.068 35.163 209.948 36.4008 208.795 37.5853L199.244 47.2002C200.066 46.9975 200.856 46.8588 201.614 46.7947C202.371 46.7307 203.097 46.6987 203.801 46.6987H218.592V54.4674H186.492V49.5373L201.955 34.3199C204.292 31.9829 206.149 29.8059 207.504 27.789C208.859 25.7722 209.542 23.5739 209.542 21.1941C209.542 19.0599 208.955 17.4485 207.782 16.36C206.608 15.2715 205.018 14.7273 203.011 14.7273C201.283 14.7273 199.831 15.2289 198.636 16.232C197.441 17.2351 196.598 18.4196 196.107 19.7749C195.947 20.2231 195.83 20.7033 195.766 21.1941C195.702 21.685 195.648 22.2399 195.616 22.8589L187.549 21.5036C188.285 16.7762 190.088 13.2867 192.938 11.0243C195.798 8.76202 199.34 7.63086 203.566 7.63086C205.701 7.63086 207.664 7.96167 209.446 8.61262V8.6233Z" fill="#FFD600"/>
<path d="M255.068 42.1743C254.203 45.1516 253.008 47.6167 251.461 49.5696C249.924 51.5224 248.099 52.9737 246.008 53.9128C243.916 54.8519 241.633 55.3321 239.167 55.3321C236.702 55.3321 234.557 54.8626 232.487 53.9128C230.417 52.9631 228.603 51.5224 227.066 49.5696C225.529 47.6167 224.324 45.1516 223.459 42.1743C222.595 39.197 222.168 35.6755 222.168 31.6097C222.168 27.5439 222.595 23.9583 223.459 20.981C224.324 18.0037 225.519 15.5386 227.066 13.5858C228.603 11.6329 230.417 10.1923 232.487 9.24253C234.557 8.29278 236.788 7.82324 239.167 7.82324C241.547 7.82324 243.916 8.29278 246.008 9.24253C248.099 10.1923 249.924 11.6329 251.461 13.5858C252.997 15.5386 254.203 18.0037 255.068 20.981C255.932 23.9583 256.359 27.5012 256.359 31.6097C256.359 35.7182 255.932 39.197 255.068 42.1743ZM247.022 23.4461C246.552 21.2905 245.922 19.5831 245.143 18.3345C244.364 17.086 243.447 16.2003 242.401 15.688C241.355 15.1758 240.277 14.9197 239.167 14.9197C238.058 14.9197 237.065 15.1758 236.051 15.688C235.048 16.2003 234.152 17.086 233.373 18.3345C232.594 19.5831 231.964 21.2905 231.495 23.4461C231.025 25.6017 230.79 28.3229 230.79 31.6097C230.79 34.8965 231.025 37.543 231.495 39.6772C231.964 41.8115 232.594 43.5189 233.373 44.7888C234.152 46.0587 235.048 46.9444 236.051 47.4353C237.054 47.9262 238.1 48.1716 239.167 48.1716C240.235 48.1716 241.355 47.9262 242.401 47.4353C243.447 46.9444 244.364 46.0587 245.143 44.7888C245.922 43.5189 246.552 41.8115 247.022 39.6772C247.491 37.543 247.726 34.8538 247.726 31.6097C247.726 28.3656 247.491 25.6017 247.022 23.4461Z" fill="#FFD600"/>
<path d="M291.798 42.1743C290.934 45.1516 289.739 47.6167 288.191 49.5696C286.655 51.5224 284.83 52.9737 282.738 53.9128C280.647 54.8519 278.363 55.3321 275.898 55.3321C273.433 55.3321 271.288 54.8626 269.218 53.9128C267.147 52.9631 265.333 51.5224 263.797 49.5696C262.26 47.6167 261.054 45.1516 260.19 42.1743C259.325 39.197 258.898 35.6755 258.898 31.6097C258.898 27.5439 259.325 23.9583 260.19 20.981C261.054 18.0037 262.249 15.5386 263.797 13.5858C265.333 11.6329 267.147 10.1923 269.218 9.24253C271.288 8.29278 273.518 7.82324 275.898 7.82324C278.278 7.82324 280.647 8.29278 282.738 9.24253C284.83 10.1923 286.655 11.6329 288.191 13.5858C289.728 15.5386 290.934 18.0037 291.798 20.981C292.663 23.9583 293.089 27.5012 293.089 31.6097C293.089 35.7182 292.663 39.197 291.798 42.1743ZM283.752 23.4461C283.282 21.2905 282.653 19.5831 281.874 18.3345C281.095 17.086 280.177 16.2003 279.131 15.688C278.085 15.1758 277.008 14.9197 275.898 14.9197C274.788 14.9197 273.796 15.1758 272.782 15.688C271.779 16.2003 270.882 17.086 270.103 18.3345C269.324 19.5831 268.695 21.2905 268.225 23.4461C267.756 25.6017 267.521 28.3229 267.521 31.6097C267.521 34.8965 267.756 37.543 268.225 39.6772C268.695 41.8115 269.324 43.5189 270.103 44.7888C270.882 46.0587 271.779 46.9444 272.782 47.4353C273.785 47.9262 274.831 48.1716 275.898 48.1716C276.965 48.1716 278.085 47.9262 279.131 47.4353C280.177 46.9444 281.095 46.0587 281.874 44.7888C282.653 43.5189 283.282 41.8115 283.752 39.6772C284.222 37.543 284.456 34.8538 284.456 31.6097C284.456 28.3656 284.222 25.6017 283.752 23.4461Z" fill="#FFD600"/>
<path d="M320.668 26.6798C322.333 27.256 323.805 28.1311 325.075 29.2943C326.345 30.4681 327.38 31.9301 328.159 33.7015C328.938 35.473 329.333 37.5219 329.333 39.8589C329.333 42.0359 328.928 44.0848 328.127 45.9949C327.327 47.9051 326.206 49.5805 324.766 51.0211C323.325 52.4618 321.586 53.5929 319.526 54.4146C317.467 55.2363 315.215 55.6418 312.75 55.6418C310.285 55.6418 307.991 55.2363 306.006 54.436C304.021 53.6356 302.313 52.5151 300.926 51.0745C299.528 49.6339 298.45 47.8944 297.693 45.8349C296.935 43.786 296.551 41.5236 296.551 39.0586C296.551 36.967 297.02 34.7473 297.97 32.3996C298.92 30.0626 300.275 27.6509 302.036 25.1858L314.543 8.30371H324.894C322.557 11.1743 320.273 14.0236 318.054 16.8408C315.834 19.658 313.593 22.4966 311.341 25.3779L309.805 26.8612L310.477 26.5517C311.918 26.0608 313.582 25.8154 315.471 25.8154C317.36 25.8154 319.014 26.1035 320.679 26.6798H320.668ZM306.87 46.4538C308.332 47.9371 310.253 48.6734 312.633 48.6734C313.828 48.6734 314.927 48.4814 315.93 48.0865C316.933 47.6917 317.83 47.1261 318.609 46.3898C319.388 45.6535 319.996 44.7677 320.423 43.7433C320.849 42.7188 321.074 41.5877 321.074 40.3498C321.074 37.6393 320.305 35.601 318.758 34.2458C317.221 32.8905 315.194 32.2075 312.686 32.2075C310.178 32.2075 308.268 32.9332 306.827 34.3952C305.387 35.8571 304.672 37.81 304.672 40.2751C304.672 42.9002 305.397 44.9598 306.859 46.4325L306.87 46.4538Z" fill="#FFD600"/>
</svg>
