<svg width="340" height="60" fill="none" xmlns="http://www.w3.org/2000/svg"><path d="M19.118 53.604a23.534 23.534 0 0 1-7.673-4.93l5.24-6.286a20.824 20.824 0 0 0 5.517 3.671c2.038.928 4.055 1.387 6.072 1.387 2.38 0 4.194-.47 5.421-1.419 1.227-.94 1.846-2.22 1.846-3.82 0-.865-.16-1.58-.49-2.156a5.082 5.082 0 0 0-1.388-1.537 10.492 10.492 0 0 0-2.155-1.227c-.844-.373-1.783-.779-2.807-1.227l-6.104-2.593a18.938 18.938 0 0 1-4.471-2.593 13.223 13.223 0 0 1-3.415-3.97c-.907-1.58-1.356-3.479-1.356-5.699 0-1.846.395-3.585 1.174-5.207a12.474 12.474 0 0 1 3.266-4.194c1.398-1.174 3.063-2.092 4.994-2.775 1.931-.683 4.044-1.013 6.35-1.013 2.71 0 5.303.501 7.79 1.504a18.853 18.853 0 0 1 6.498 4.344l-4.62 5.73c-1.441-1.195-2.935-2.113-4.493-2.774-1.558-.662-3.287-.982-5.176-.982-2.017 0-3.617.427-4.802 1.259-1.195.843-1.782 2.027-1.782 3.543 0 .779.192 1.462.587 2.038a6.18 6.18 0 0 0 1.537 1.537c.64.448 1.387.875 2.252 1.259.864.395 1.782.768 2.774 1.142l5.976 2.529c2.839 1.152 5.069 2.668 6.712 4.557 1.644 1.888 2.465 4.492 2.465 7.822 0 1.846-.384 3.617-1.142 5.303-.757 1.686-1.856 3.148-3.297 4.408-1.44 1.248-3.19 2.251-5.272 2.988-2.07.736-4.428 1.11-7.053 1.11a24 24 0 0 1-8.964-1.73h-.011z" fill="#FFD600"/><path fill-rule="evenodd" clip-rule="evenodd" d="M29.138 10.684c-2.048 0-3.855.293-5.46.861-1.675.592-3.05 1.363-4.168 2.302a9.807 9.807 0 0 0-2.576 3.306 9.221 9.221 0 0 0-.91 4.053c0 1.86.373 3.278 1 4.37l.007.011a10.554 10.554 0 0 0 2.729 3.178l.01.008a16.272 16.272 0 0 0 3.846 2.229l.012.005 6.129 2.603.013.006 1.055.46c.617.27 1.207.526 1.75.767 1.015.438 1.912.955 2.689 1.537a7.748 7.748 0 0 1 2.1 2.343c.627 1.092.845 2.302.845 3.484 0 2.394-.977 4.47-2.887 5.935-1.89 1.46-4.388 1.972-7.048 1.972-2.437 0-4.829-.557-7.178-1.627a23.38 23.38 0 0 1-4.054-2.361L15.18 48.36a20.956 20.956 0 0 0 4.537 2.605l.4.16a21.335 21.335 0 0 0 7.977 1.539c2.375 0 4.423-.338 6.16-.956l.003-.001c1.8-.637 3.25-1.48 4.41-2.485 1.165-1.02 2.024-2.173 2.616-3.489.605-1.346.907-2.745.907-4.21 0-2.9-.71-4.808-1.81-6.07-1.314-1.511-3.168-2.808-5.703-3.837l-.018-.007-5.945-2.516c-1.009-.38-1.965-.77-2.88-1.187a16.086 16.086 0 0 1-2.685-1.506l-.009-.006-.008-.006a8.843 8.843 0 0 1-2.19-2.203c-.744-1.084-1.055-2.312-1.055-3.546 0-2.327.964-4.349 2.912-5.723l.004-.002c1.771-1.245 3.966-1.745 6.336-1.745 2.193 0 4.284.373 6.219 1.194 1.02.434 2.01.959 2.97 1.575l1.43-1.773a16.315 16.315 0 0 0-3.827-2.171 17.95 17.95 0 0 0-6.792-1.311zM21.9 6.514c2.258-.798 4.677-1.166 7.24-1.166 3.049 0 5.98.566 8.787 1.699a21.52 21.52 0 0 1 7.41 4.952l1.656 1.695-7.807 9.681-2.082-1.727c-1.257-1.043-2.53-1.82-3.832-2.373-1.182-.501-2.548-.77-4.133-.77-1.662 0-2.668.354-3.266.774-.441.311-.65.659-.65 1.361 0 .324.073.462.12.53.198.29.478.582.875.866.491.343 1.085.684 1.796 1l.012.006.013.006c.794.363 1.653.713 2.605 1.071l.051.02 6.008 2.542c3.134 1.275 5.734 3.007 7.703 5.27 2.188 2.514 3.12 5.814 3.12 9.573 0 2.228-.466 4.371-1.376 6.397-.923 2.055-2.26 3.824-3.975 5.323l-.009.007c-1.72 1.49-3.768 2.651-6.127 3.486-2.404.855-5.071 1.264-7.945 1.264-3.252 0-6.411-.579-9.463-1.73h-.024l-.476-.189a26.201 26.201 0 0 1-8.534-5.485l-1.791-1.723 8.626-10.348 2.062 1.901a18.157 18.157 0 0 0 4.815 3.205c1.727.786 3.369 1.147 4.966 1.147 2.096 0 3.224-.425 3.788-.862l.012-.008c.54-.414.8-.897.8-1.702 0-.546-.103-.767-.138-.827a2.424 2.424 0 0 0-.674-.731 7.842 7.842 0 0 0-1.61-.911l-.012-.006-.013-.005c-.534-.237-1.1-.483-1.71-.749l-1.073-.468-6.079-2.582a21.603 21.603 0 0 1-5.08-2.95 15.89 15.89 0 0 1-4.091-4.751c-1.185-2.066-1.707-4.445-1.707-7.021 0-2.24.482-4.375 1.437-6.363a15.142 15.142 0 0 1 3.955-5.082c1.677-1.408 3.633-2.473 5.82-3.246z" fill="#000"/><path d="M60.308 19.968v34.5h-8.995v-34.5h8.995zm-8.931-14.3h8.995v8.75h-8.995v-8.75z" fill="#FFD600"/><path fill-rule="evenodd" clip-rule="evenodd" d="M48.709 3H63.04v14.086H48.71V3zm5.335 5.336v3.415h3.66V8.335h-3.66zm-5.4 8.964h14.332v39.836H48.645V17.3zm5.336 5.335V51.8h3.66V22.635h-3.66z" fill="#000"/><path d="M77.191 24.524h.245a25.835 25.835 0 0 1 4.995-3.82c1.803-1.067 3.884-1.601 6.221-1.601 3.735 0 6.446 1.227 8.132 3.671s2.529 5.848 2.529 10.202v21.503h-9.06V34.086c0-2.668-.384-4.536-1.142-5.603-.758-1.067-2.006-1.6-3.724-1.6-1.441 0-2.668.33-3.693.981-1.024.662-2.198 1.622-3.51 2.892V54.48h-8.996V19.967h7.395l.619 4.557h-.011z" fill="#FFD600"/><path fill-rule="evenodd" clip-rule="evenodd" d="M88.652 21.77c-1.918 0-3.519.434-4.863 1.23l-.006.003a23.176 23.176 0 0 0-3.726 2.72l.003.023c.062-.042.125-.083.187-.123l.008-.005.008-.006c1.52-.965 3.262-1.397 5.123-1.397 2.278 0 4.488.735 5.9 2.724 1.27 1.789 1.634 4.392 1.634 7.147V51.81h3.725V32.976c0-4.054-.792-6.853-2.057-8.687-1.061-1.538-2.827-2.518-5.936-2.518zm-10.505 5.422a34.765 34.765 0 0 0-1.819 1.647l-.813.786v22.186h-3.66V22.635h2.398l.305 2.248 2.633-.358v2.667h.956zm1.077-7.6c.6-.418 1.218-.814 1.851-1.186 2.262-1.338 4.822-1.97 7.577-1.97 4.361 0 8.016 1.473 10.327 4.823 2.107 3.053 3.001 7.062 3.001 11.717v24.17H87.585v-23.06c0-2.582-.405-3.714-.65-4.058-.103-.146-.39-.478-1.549-.478-1.014 0-1.724.227-2.253.561-.64.415-1.402 1.006-2.282 1.801v25.234H66.52V17.3h12.394l.311 2.293z" fill="#000"/><path d="M116.686 54.094c-2.048-.821-3.831-2.006-5.325-3.543-1.504-1.536-2.678-3.425-3.542-5.666-.865-2.241-1.292-4.78-1.292-7.609 0-2.828.481-5.442 1.452-7.704.96-2.263 2.251-4.162 3.852-5.699a16.63 16.63 0 0 1 5.603-3.543 18.528 18.528 0 0 1 6.712-1.227c2.134 0 4.023.373 5.666 1.11 1.644.736 3.106 1.643 4.376 2.71l-4.312 5.859c-.864-.736-1.718-1.302-2.561-1.697s-1.761-.587-2.742-.587c-2.626 0-4.76.971-6.382 2.892-1.622 1.932-2.433 4.557-2.433 7.886 0 1.313.16 2.604.491 3.885.331 1.27.843 2.411 1.537 3.415a8.037 8.037 0 0 0 2.678 2.433c1.089.619 2.369.928 3.853.928a8.686 8.686 0 0 0 3.574-.768 12.602 12.602 0 0 0 3.148-2.006l3.575 5.975c-1.643 1.441-3.436 2.498-5.389 3.17a17.706 17.706 0 0 1-5.88 1.014c-2.379 0-4.599-.417-6.659-1.238v.01z" fill="#FFD600"/><path fill-rule="evenodd" clip-rule="evenodd" d="M124.146 21.77c-2.022 0-3.937.35-5.754 1.05a13.973 13.973 0 0 0-4.714 2.977c-1.318 1.266-2.412 2.858-3.244 4.817l-.004.01c-.804 1.873-1.235 4.12-1.235 6.652 0 2.562.387 4.767 1.113 6.649.751 1.95 1.742 3.516 2.96 4.76l.006.007a12.528 12.528 0 0 0 3.943 2.731l.458.183c1.726.688 3.609 1.048 5.67 1.048 1.658 0 3.324-.279 4.999-.865l.013-.004a12.843 12.843 0 0 0 2.741-1.328l-.881-1.472a15.24 15.24 0 0 1-1.242.621c-1.484.66-3.037.999-4.659.999-1.861 0-3.613-.392-5.171-1.277a10.713 10.713 0 0 1-3.554-3.235c-.886-1.282-1.521-2.714-1.924-4.26l-.001-.005a18.124 18.124 0 0 1-.576-4.552c0-3.755.919-7.055 3.058-9.602l.005-.005c2.151-2.548 5.044-3.839 8.42-3.839 1.338 0 2.646.264 3.874.84.279.13.555.273.828.428l1.155-1.57a17.224 17.224 0 0 0-1.709-.88c-1.247-.56-2.754-.877-4.575-.877zm-4.792 35.853v.416l-3.661-1.469c-2.382-.955-4.479-2.344-6.241-4.156-1.79-1.829-3.146-4.038-4.123-6.569-1.003-2.6-1.47-5.474-1.47-8.569 0-3.12.529-6.102 1.666-8.752 1.089-2.563 2.577-4.77 4.458-6.576a19.298 19.298 0 0 1 6.492-4.108 21.194 21.194 0 0 1 7.671-1.405c2.447 0 4.717.43 6.757 1.343 1.852.83 3.527 1.865 5.001 3.103l1.915 1.609-7.492 10.18-2.181-1.857c-.721-.615-1.376-1.037-1.962-1.312-.459-.215-.986-.335-1.611-.335-1.874 0-3.249.65-4.341 1.943-1.104 1.316-1.806 3.266-1.806 6.167 0 1.091.132 2.157.405 3.215.259.992.648 1.843 1.149 2.567a5.366 5.366 0 0 0 1.803 1.631c.619.353 1.429.58 2.533.58.855 0 1.671-.173 2.492-.538a9.95 9.95 0 0 0 2.486-1.586l2.403-2.08 6.349 10.613-1.673 1.466c-1.885 1.653-3.974 2.892-6.273 3.684a20.378 20.378 0 0 1-6.755 1.161 21.45 21.45 0 0 1-3.991-.366z" fill="#000"/><path d="M147.56 54.094c-2.092-.821-3.917-2.006-5.453-3.543-1.537-1.536-2.753-3.425-3.639-5.666-.886-2.241-1.323-4.78-1.323-7.609 0-2.828.448-5.314 1.355-7.544.907-2.241 2.102-4.151 3.607-5.73 1.504-1.58 3.212-2.797 5.143-3.64a14.802 14.802 0 0 1 5.976-1.259c2.38 0 4.472.416 6.254 1.227 1.782.822 3.286 1.974 4.492 3.447 1.206 1.483 2.124 3.223 2.743 5.24.619 2.017.928 4.215.928 6.595 0 .821-.042 1.611-.128 2.369-.085.757-.181 1.344-.309 1.76h-21.258c.374 2.839 1.409 4.984 3.116 6.435 1.708 1.462 3.853 2.188 6.435 2.188 1.441 0 2.786-.203 4.034-.62 1.249-.405 2.497-1.002 3.724-1.781l3.084 5.549a22.27 22.27 0 0 1-5.666 2.806 20.203 20.203 0 0 1-6.403 1.014c-2.38 0-4.621-.416-6.712-1.238zm10.724-25.91c-1.067-1.376-2.71-2.06-4.93-2.06-1.803 0-3.425.652-4.866 1.943-1.44 1.291-2.326 3.19-2.646 5.699h14.054c0-2.338-.534-4.205-1.601-5.582h-.011z" fill="#FFD600"/><path fill-rule="evenodd" clip-rule="evenodd" d="M153.226 21.77c-1.676 0-3.309.34-4.909 1.037-1.586.693-3.004 1.696-4.279 3.034-1.244 1.306-2.268 2.921-3.065 4.892l-.002.004c-.757 1.862-1.159 3.999-1.159 6.54 0 2.553.395 4.751 1.137 6.627.765 1.935 1.79 3.507 3.044 4.76 1.268 1.268 2.779 2.255 4.542 2.947 1.766.694 3.675 1.053 5.737 1.053 1.937 0 3.786-.289 5.561-.877a20.403 20.403 0 0 0 2.926-1.23l-.553-.994c-.606.275-1.22.514-1.839.716-1.549.515-3.178.753-4.868.753-3.112 0-5.902-.89-8.166-2.826-2.34-1.99-3.596-4.816-4.03-8.117l-.397-3.015h22.015c.036-.469.054-.956.054-1.462 0-2.148-.279-4.08-.811-5.813-.525-1.712-1.287-3.139-2.259-4.335-.938-1.145-2.112-2.05-3.536-2.708-1.374-.624-3.075-.985-5.143-.985zm-7.043-3.853a17.466 17.466 0 0 1 7.043-1.482c2.689 0 5.169.47 7.359 1.467l.012.005c2.135.985 3.968 2.383 5.439 4.18l.006.007c1.439 1.77 2.511 3.82 3.223 6.14.706 2.3 1.046 4.766 1.046 7.377 0 .914-.047 1.804-.145 2.668-.088.778-.204 1.577-.41 2.247l-.58 1.883h-4.842l5.514 9.921-1.99 1.376a24.94 24.94 0 0 1-6.34 3.143l-.004.002A22.864 22.864 0 0 1 154.272 58c-2.697 0-5.271-.473-7.688-1.423-2.42-.95-4.558-2.333-6.364-4.14-1.819-1.818-3.227-4.025-4.233-6.572-1.03-2.605-1.51-5.487-1.51-8.589 0-3.114.494-5.95 1.551-8.548 1.016-2.51 2.383-4.715 4.147-6.567 1.735-1.82 3.731-3.25 6.008-4.244zm17.694 24.492h-14.424a5.464 5.464 0 0 0 1.339 1.734l.008.007c1.149.984 2.648 1.546 4.699 1.546 1.188 0 2.245-.167 3.19-.482l.01-.003.01-.004c1.014-.329 2.06-.825 3.118-1.497l2.05-1.3zm-17.17-16.329c1.888-1.691 4.131-2.623 6.647-2.623 2.305 0 4.439.605 6.075 2.06h.173l.802 1.033c1.537 1.983 2.16 4.491 2.16 7.215v2.668h-19.752l.383-3.005c.377-2.95 1.467-5.514 3.512-7.348zm6.647 2.713c-1.091 0-2.091.37-3.085 1.26a4.425 4.425 0 0 0-.849 1.044h7.432a4.453 4.453 0 0 0-.521-1.078l-.155-.2c-.424-.548-1.173-1.026-2.822-1.026z" fill="#000"/><path d="M209.454 8.624c1.782.661 3.319 1.569 4.589 2.742a12.464 12.464 0 0 1 2.988 4.226c.715 1.644 1.078 3.447 1.078 5.421a14.464 14.464 0 0 1-.897 4.653 22.224 22.224 0 0 1-2.123 4.28 36.004 36.004 0 0 1-2.924 3.948 79.318 79.318 0 0 1-3.362 3.692l-9.551 9.615a15.325 15.325 0 0 1 2.369-.406 25.97 25.97 0 0 1 2.188-.096h14.79v7.769H186.5v-4.93l15.463-15.218c2.337-2.337 4.194-4.514 5.549-6.53 1.355-2.017 2.038-4.216 2.038-6.595 0-2.135-.587-3.746-1.761-4.835-1.173-1.088-2.763-1.632-4.77-1.632-1.728 0-3.18.501-4.375 1.505-1.195 1.003-2.038 2.187-2.529 3.542-.16.449-.278.929-.342 1.42-.064.49-.117 1.045-.149 1.664l-8.067-1.355c.736-4.727 2.539-8.217 5.389-10.48 2.859-2.261 6.402-3.393 10.628-3.393 2.134 0 4.098.331 5.88.982v.01z" fill="#FFD600"/><path fill-rule="evenodd" clip-rule="evenodd" d="M203.574 10.3c-3.724 0-6.656.984-8.971 2.815-1.706 1.355-3.036 3.363-3.852 6.22l2.582.434c.076-.304.166-.602.269-.891l.004-.011c.663-1.83 1.795-3.396 3.323-4.678 1.725-1.448 3.802-2.13 6.09-2.13 2.501 0 4.801.691 6.584 2.345 1.883 1.746 2.615 4.172 2.615 6.79 0 2.926-.85 5.64-2.492 8.083-1.481 2.204-3.462 4.515-5.877 6.93l-.007.007-14.674 14.441V51.8h1.755L206.9 35.716a75.996 75.996 0 0 0 3.235-3.555 33.226 33.226 0 0 0 2.704-3.65 19.546 19.546 0 0 0 1.87-3.768c.451-1.222.693-2.47.732-3.766-.005-1.624-.304-3.05-.857-4.32a9.793 9.793 0 0 0-2.352-3.332c-.98-.905-2.204-1.642-3.707-2.2l-.399-.149c-1.355-.44-2.868-.677-4.552-.677zm-11.825 41.5h24.182v-2.433h-12.122c-.623 0-1.274.028-1.963.087a12.65 12.65 0 0 0-1.955.337l-8.142 2.009zm-.459-42.868c3.404-2.692 7.557-3.969 12.284-3.969 2.412 0 4.689.375 6.795 1.144l1.753.64v.122a15.637 15.637 0 0 1 3.732 2.538 15.143 15.143 0 0 1 3.623 5.12c.873 2.007 1.299 4.177 1.299 6.486v.036l-.001.035a17.114 17.114 0 0 1-1.06 5.505 24.851 24.851 0 0 1-2.377 4.79 38.47 38.47 0 0 1-3.141 4.242l-.007.009a81.813 81.813 0 0 1-3.475 3.816l-.01.01-4.544 4.575h15.106v13.105h-37.435V48.42l16.252-15.994c2.256-2.256 3.985-4.297 5.213-6.125 1.069-1.59 1.585-3.273 1.585-5.106 0-1.65-.442-2.447-.907-2.878-.564-.523-1.445-.922-2.956-.922-1.169 0-1.995.323-2.66.88-.861.724-1.414 1.524-1.734 2.403-.096.27-.167.563-.206.862-.056.423-.102.909-.131 1.457l-.154 2.99-13.619-2.289.405-2.605c.808-5.182 2.848-9.364 6.366-12.158l.004-.003z" fill="#000"/><path d="M255.076 42.174c-.865 2.978-2.06 5.443-3.607 7.396-1.537 1.952-3.362 3.404-5.453 4.343-2.092.939-4.376 1.42-6.841 1.42s-4.61-.47-6.68-1.42c-2.07-.95-3.884-2.39-5.421-4.343-1.537-1.953-2.743-4.418-3.607-7.396-.864-2.977-1.291-6.498-1.291-10.564s.427-7.652 1.291-10.629c.864-2.977 2.06-5.442 3.607-7.395 1.537-1.953 3.351-3.394 5.421-4.343 2.07-.95 4.301-1.42 6.68-1.42 2.38 0 4.749.47 6.841 1.42 2.091.95 3.916 2.39 5.453 4.343 1.536 1.953 2.742 4.418 3.607 7.395.864 2.977 1.291 6.52 1.291 10.629 0 4.108-.427 7.587-1.291 10.564zm-8.047-18.728c-.469-2.155-1.099-3.863-1.878-5.112-.779-1.248-1.697-2.134-2.742-2.646a7.273 7.273 0 0 0-3.234-.768c-1.11 0-2.102.256-3.116.768-1.003.512-1.899 1.398-2.678 2.646-.779 1.25-1.409 2.957-1.878 5.112-.47 2.156-.705 4.877-.705 8.164s.235 5.933.705 8.067c.469 2.135 1.099 3.842 1.878 5.112.779 1.27 1.675 2.155 2.678 2.646a7.03 7.03 0 0 0 3.116.737 7.675 7.675 0 0 0 3.234-.737c1.045-.49 1.963-1.376 2.742-2.646.779-1.27 1.409-2.977 1.878-5.112.47-2.134.705-4.823.705-8.067 0-3.244-.235-6.008-.705-8.164z" fill="#FFD600"/><path fill-rule="evenodd" clip-rule="evenodd" d="M239.175 10.491c-2.018 0-3.867.396-5.568 1.177-1.661.762-3.145 1.927-4.437 3.568l-.005.007c-1.284 1.62-2.343 3.752-3.136 6.482-.775 2.669-1.186 5.99-1.186 9.885 0 3.89.41 7.15 1.186 9.82.791 2.724 1.86 4.862 3.141 6.49 1.292 1.641 2.776 2.806 4.437 3.568 1.708.784 3.472 1.177 5.568 1.177 2.11 0 4.019-.41 5.748-1.186 1.668-.748 3.157-1.917 4.449-3.559l.005-.007c1.284-1.62 2.344-3.752 3.136-6.482.776-2.673 1.186-5.89 1.186-9.821 0-3.936-.411-7.215-1.186-9.885-.79-2.723-1.86-4.86-3.141-6.49-1.287-1.635-2.778-2.8-4.46-3.563-1.71-.777-3.697-1.18-5.737-1.18zm-7.793-3.673c2.44-1.12 5.052-1.662 7.793-1.662 2.72 0 5.47.535 7.943 1.658 2.502 1.136 4.661 2.852 6.447 5.122 1.792 2.278 3.134 5.07 4.072 8.302.954 3.285 1.397 7.091 1.397 11.372 0 4.285-.444 8.027-1.397 11.309-.935 3.222-2.265 6.02-4.075 8.305-1.781 2.262-3.94 3.994-6.454 5.123-2.454 1.102-5.112 1.653-7.933 1.653-2.833 0-5.36-.546-7.793-1.662-2.479-1.137-4.623-2.854-6.405-5.118-1.792-2.278-3.134-5.07-4.072-8.301-.953-3.283-1.397-7.068-1.397-11.309 0-4.236.443-8.086 1.397-11.372.935-3.223 2.265-6.02 4.075-8.305 1.781-2.263 3.925-3.978 6.402-5.115zm3.474 6.49c1.352-.684 2.754-1.056 4.319-1.056 1.537 0 3.014.358 4.407 1.04 1.598.783 2.858 2.07 3.832 3.63 1 1.602 1.716 3.633 2.222 5.957.525 2.41.765 5.38.765 8.731 0 3.354-.241 6.251-.766 8.64-.507 2.306-1.222 4.324-2.21 5.934-.973 1.587-2.246 2.899-3.883 3.667-1.393.653-2.899.989-4.367.989a9.702 9.702 0 0 1-4.289-1.008c-1.586-.776-2.822-2.087-3.779-3.648-.988-1.61-1.703-3.628-2.21-5.933-.526-2.389-.767-5.243-.767-8.641 0-3.395.241-6.322.766-8.731.506-2.325 1.222-4.355 2.221-5.956.959-1.536 2.182-2.82 3.729-3.61l.01-.006zm2.412 4.759c-.458.235-1.026.722-1.624 1.68-.559.896-1.102 2.28-1.535 4.267-.414 1.903-.643 4.417-.643 7.596 0 3.176.228 5.614.642 7.494.432 1.963.976 3.36 1.547 4.29.6.98 1.157 1.44 1.577 1.645a4.361 4.361 0 0 0 1.943.465c.667 0 1.401-.155 2.1-.483.455-.214 1.017-.674 1.602-1.627.57-.93 1.115-2.327 1.547-4.29.413-1.879.642-4.36.642-7.494 0-3.138-.229-5.694-.644-7.596-.432-1.987-.976-3.371-1.534-4.267-.584-.936-1.16-1.421-1.653-1.663a4.604 4.604 0 0 0-2.06-.496c-.653 0-1.234.14-1.907.479z" fill="#000"/><path d="M291.802 42.174c-.864 2.978-2.059 5.443-3.607 7.396-1.536 1.952-3.361 3.404-5.453 4.343-2.091.939-4.375 1.42-6.84 1.42s-4.61-.47-6.68-1.42c-2.071-.95-3.885-2.39-5.422-4.343-1.536-1.953-2.742-4.418-3.606-7.396-.865-2.977-1.292-6.498-1.292-10.564s.427-7.652 1.292-10.629c.864-2.977 2.059-5.442 3.606-7.395 1.537-1.953 3.351-3.394 5.422-4.343 2.07-.95 4.3-1.42 6.68-1.42s4.749.47 6.84 1.42c2.092.95 3.917 2.39 5.453 4.343 1.537 1.953 2.743 4.418 3.607 7.395.865 2.977 1.291 6.52 1.291 10.629 0 4.108-.426 7.587-1.291 10.564zm-8.046-18.728c-.47-2.155-1.099-3.863-1.878-5.112-.779-1.248-1.697-2.134-2.743-2.646a7.269 7.269 0 0 0-3.233-.768c-1.11 0-2.102.256-3.116.768-1.003.512-1.9 1.398-2.679 2.646-.779 1.25-1.408 2.957-1.878 5.112-.469 2.156-.704 4.877-.704 8.164s.235 5.933.704 8.067c.47 2.135 1.099 3.842 1.878 5.112.779 1.27 1.676 2.155 2.679 2.646a7.03 7.03 0 0 0 3.116.737 7.67 7.67 0 0 0 3.233-.737c1.046-.49 1.964-1.376 2.743-2.646.779-1.27 1.408-2.977 1.878-5.112.469-2.134.704-4.823.704-8.067 0-3.244-.235-6.008-.704-8.164z" fill="#FFD600"/><path fill-rule="evenodd" clip-rule="evenodd" d="M275.902 10.491c-2.019 0-3.867.396-5.568 1.177-1.662.762-3.146 1.927-4.437 3.568l-.006.007c-1.283 1.62-2.343 3.752-3.136 6.482-.774 2.669-1.185 5.99-1.185 9.885 0 3.89.41 7.15 1.185 9.82.791 2.724 1.861 4.862 3.142 6.49 1.291 1.641 2.775 2.806 4.437 3.568 1.707.784 3.471 1.177 5.568 1.177 2.109 0 4.018-.41 5.747-1.186 1.668-.748 3.158-1.917 4.45-3.559l.005-.007c1.284-1.62 2.343-3.752 3.136-6.482.776-2.673 1.185-5.89 1.185-9.821 0-3.936-.41-7.215-1.185-9.885-.791-2.723-1.86-4.86-3.141-6.49-1.288-1.635-2.778-2.8-4.46-3.563-1.71-.777-3.698-1.18-5.737-1.18zm-7.793-3.673c2.439-1.12 5.052-1.662 7.793-1.662 2.719 0 5.47.535 7.943 1.658 2.501 1.136 4.66 2.852 6.447 5.122 1.792 2.278 3.134 5.07 4.072 8.302.954 3.285 1.397 7.091 1.397 11.372 0 4.285-.444 8.027-1.397 11.309-.936 3.222-2.266 6.02-4.076 8.305-1.78 2.262-3.94 3.994-6.453 5.123-2.454 1.102-5.113 1.653-7.933 1.653-2.834 0-5.36-.546-7.793-1.662-2.479-1.137-4.623-2.854-6.405-5.118-1.792-2.278-3.135-5.07-4.073-8.301-.953-3.283-1.397-7.068-1.397-11.309 0-4.236.443-8.086 1.397-11.372.936-3.223 2.266-6.02 4.076-8.305 1.781-2.263 3.924-3.978 6.402-5.115zm3.474 6.49c1.352-.684 2.754-1.056 4.319-1.056a9.94 9.94 0 0 1 4.407 1.04c1.598.783 2.858 2.07 3.832 3.63.999 1.602 1.715 3.633 2.221 5.957.525 2.41.766 5.38.766 8.731 0 3.354-.241 6.252-.767 8.64-.507 2.306-1.222 4.324-2.209 5.934-.974 1.587-2.247 2.899-3.883 3.667-1.393.653-2.9.989-4.367.989a9.7 9.7 0 0 1-4.289-1.008c-1.586-.776-2.822-2.087-3.78-3.648-.988-1.61-1.702-3.628-2.21-5.933-.525-2.389-.766-5.243-.766-8.641 0-3.394.241-6.322.765-8.731.506-2.325 1.222-4.355 2.222-5.956.958-1.536 2.181-2.82 3.728-3.61l.011-.006zm2.411 4.759c-.458.235-1.026.722-1.623 1.68-.559.896-1.102 2.28-1.535 4.267-.415 1.903-.643 4.417-.643 7.596 0 3.176.228 5.614.641 7.494.432 1.963.977 3.36 1.547 4.29.601.98 1.157 1.44 1.577 1.645a4.367 4.367 0 0 0 1.944.465 5 5 0 0 0 2.099-.483c.455-.214 1.018-.674 1.603-1.627.57-.93 1.114-2.327 1.546-4.29.414-1.879.642-4.36.642-7.494 0-3.138-.229-5.694-.643-7.596-.433-1.987-.976-3.371-1.535-4.267-.584-.936-1.159-1.421-1.652-1.663a4.604 4.604 0 0 0-2.06-.496c-.653 0-1.234.14-1.908.479z" fill="#000"/><path d="M320.668 26.68a12.522 12.522 0 0 1 4.407 2.614c1.27 1.174 2.305 2.636 3.084 4.408.779 1.771 1.174 3.82 1.174 6.157 0 2.177-.405 4.226-1.206 6.136a15.515 15.515 0 0 1-3.361 5.026c-1.441 1.44-3.18 2.572-5.24 3.394-2.059.821-4.311 1.227-6.776 1.227s-4.759-.406-6.744-1.206c-1.985-.8-3.693-1.92-5.08-3.361-1.398-1.441-2.476-3.18-3.233-5.24-.758-2.049-1.142-4.311-1.142-6.776 0-2.092.469-4.312 1.419-6.66.95-2.336 2.305-4.748 4.066-7.213l12.507-16.882h10.351a679.454 679.454 0 0 0-6.84 8.537c-2.22 2.817-4.461 5.656-6.713 8.537l-1.536 1.483.672-.31c1.441-.49 3.105-.736 4.994-.736 1.889 0 3.543.288 5.208.865h-.011zM306.87 46.454c1.462 1.483 3.383 2.22 5.763 2.22 1.195 0 2.294-.193 3.297-.587a8.285 8.285 0 0 0 2.679-1.697 7.656 7.656 0 0 0 1.814-2.647c.426-1.024.651-2.155.651-3.393 0-2.71-.769-4.749-2.316-6.104-1.537-1.355-3.564-2.038-6.072-2.038s-4.418.725-5.859 2.187c-1.44 1.462-2.155 3.415-2.155 5.88 0 2.625.725 4.685 2.187 6.157l.011.022z" fill="#FFD600"/><path fill-rule="evenodd" clip-rule="evenodd" d="M313.199 5.636h17.307l-3.543 4.352a675.373 675.373 0 0 0-6.814 8.504l-1.094 1.388c-.862 1.094-1.726 2.19-2.592 3.292 1.792.088 3.441.417 5.088.987v.004a15.199 15.199 0 0 1 5.326 3.164l.009.008c1.559 1.441 2.8 3.212 3.715 5.293.954 2.168 1.4 4.594 1.4 7.231 0 2.517-.47 4.917-1.413 7.167a18.177 18.177 0 0 1-3.936 5.882c-1.715 1.715-3.766 3.039-6.137 3.985-2.41.961-5.002 1.417-7.765 1.417-2.75 0-5.391-.451-7.742-1.4-2.297-.925-4.328-2.246-6-3.981-1.676-1.728-2.943-3.792-3.819-6.17-.878-2.377-1.306-4.956-1.306-7.7 0-2.495.56-5.055 1.614-7.66l.001-.003c1.041-2.562 2.506-5.155 4.367-7.76l.013-.02 13.321-17.98zm6.597 23.562a12.793 12.793 0 0 0-4.325-.714c-1.603 0-2.928.201-4.012.553l-.539.248-2.968-4.343 1.402-1.354c1.848-2.363 3.688-4.698 5.511-7.012l1.093-1.386a657.574 657.574 0 0 1 3.352-4.218h-3.424l-11.693 15.783c-1.653 2.318-2.894 4.541-3.751 6.648-.845 2.09-1.224 3.968-1.224 5.656 0 2.186.341 4.13.977 5.85l.001.005c.64 1.738 1.526 3.15 2.645 4.303l.007.007c1.101 1.144 2.484 2.064 4.155 2.738 1.619.653 3.566 1.012 5.747 1.012 2.167 0 4.078-.355 5.788-1.037 1.748-.697 3.175-1.636 4.341-2.802a12.843 12.843 0 0 0 2.788-4.17c.658-1.571.998-3.268.998-5.106 0-2.036-.343-3.708-.948-5.083-.642-1.46-1.469-2.612-2.448-3.518a9.862 9.862 0 0 0-3.474-2.057l.001-.003zm-14.869 3.325c2.039-2.07 4.688-2.983 7.759-2.983 3.007 0 5.709.83 7.833 2.703 2.297 2.014 3.222 4.895 3.222 8.107 0 1.567-.285 3.05-.856 4.42a10.311 10.311 0 0 1-2.444 3.559 10.95 10.95 0 0 1-3.534 2.24c-1.354.533-2.79.773-4.275.773-2.978 0-5.623-.946-7.662-3.015l-.297-.301-.024-.049c-1.858-2.06-2.645-4.74-2.645-7.702 0-3.014.893-5.692 2.923-7.752zm7.759 2.353c-1.945 0-3.117.538-3.959 1.392-.851.864-1.388 2.091-1.388 4.007 0 2.126.575 3.434 1.414 4.278l.224.227c.863.776 2.01 1.226 3.655 1.226.906 0 1.668-.145 2.321-.402a5.615 5.615 0 0 0 1.823-1.153 5 5 0 0 0 1.184-1.733c.283-.679.446-1.459.446-2.368 0-2.207-.611-3.4-1.406-4.097l-.007-.006c-.948-.836-2.301-1.371-4.307-1.371z" fill="#000"/><path d="M19.114 53.604a23.533 23.533 0 0 1-7.673-4.93l5.24-6.286a20.828 20.828 0 0 0 5.517 3.671c2.038.928 4.055 1.387 6.072 1.387 2.38 0 4.194-.47 5.421-1.419 1.227-.94 1.846-2.22 1.846-3.82 0-.865-.16-1.58-.49-2.156a5.082 5.082 0 0 0-1.388-1.537 10.492 10.492 0 0 0-2.155-1.227c-.844-.373-1.783-.779-2.807-1.227l-6.104-2.593a18.938 18.938 0 0 1-4.471-2.593 13.223 13.223 0 0 1-3.415-3.97c-.907-1.58-1.355-3.479-1.355-5.699 0-1.846.394-3.585 1.173-5.207a12.474 12.474 0 0 1 3.266-4.194c1.398-1.174 3.063-2.092 4.994-2.775 1.932-.683 4.044-1.013 6.35-1.013 2.71 0 5.303.501 7.79 1.504a18.853 18.853 0 0 1 6.498 4.344l-4.62 5.73c-1.44-1.195-2.935-2.113-4.493-2.774-1.558-.662-3.287-.982-5.176-.982-2.016 0-3.617.427-4.802 1.259-1.195.843-1.782 2.027-1.782 3.543 0 .779.192 1.462.587 2.038a6.18 6.18 0 0 0 1.537 1.537c.64.448 1.387.875 2.252 1.259.864.395 1.782.768 2.774 1.142l5.976 2.529c2.839 1.152 5.069 2.668 6.712 4.557 1.644 1.888 2.465 4.492 2.465 7.822 0 1.846-.384 3.617-1.141 5.303-.758 1.686-1.857 3.148-3.298 4.408-1.44 1.248-3.19 2.251-5.272 2.988-2.07.736-4.428 1.11-7.053 1.11a24 24 0 0 1-8.964-1.73h-.01zM60.304 19.967v34.5H51.31v-34.5h8.995zm-8.931-14.3h8.996v8.751h-8.996v-8.75zM77.187 24.524h.246a25.835 25.835 0 0 1 4.994-3.82c1.803-1.068 3.884-1.602 6.221-1.602 3.735 0 6.446 1.228 8.132 3.671 1.686 2.444 2.529 5.848 2.529 10.202v21.503h-9.06V34.085c0-2.668-.384-4.535-1.142-5.602-.758-1.067-2.006-1.601-3.724-1.601-1.44 0-2.668.33-3.692.982-1.025.661-2.199 1.622-3.511 2.892v23.722h-8.996V19.967h7.395l.619 4.557h-.01zM116.683 54.094c-2.049-.822-3.831-2.006-5.325-3.543-1.505-1.537-2.679-3.425-3.543-5.666-.865-2.241-1.292-4.781-1.292-7.61 0-2.827.481-5.441 1.452-7.704.96-2.262 2.251-4.162 3.852-5.698a16.632 16.632 0 0 1 5.603-3.543 18.53 18.53 0 0 1 6.712-1.227c2.134 0 4.023.373 5.666 1.11 1.644.736 3.106 1.643 4.376 2.71l-4.312 5.859c-.864-.737-1.718-1.302-2.561-1.697s-1.761-.587-2.742-.587c-2.625 0-4.76.97-6.382 2.892-1.622 1.931-2.433 4.556-2.433 7.886 0 1.312.16 2.604.491 3.884.331 1.27.843 2.412 1.537 3.415a8.037 8.037 0 0 0 2.678 2.433c1.089.62 2.369.928 3.853.928a8.69 8.69 0 0 0 3.575-.768 12.638 12.638 0 0 0 3.148-2.006l3.574 5.976c-1.643 1.44-3.436 2.497-5.389 3.17a17.7 17.7 0 0 1-5.879 1.013c-2.38 0-4.6-.416-6.659-1.238v.01zM147.552 54.094c-2.092-.822-3.916-2.006-5.453-3.543-1.537-1.537-2.753-3.425-3.639-5.666-.886-2.241-1.323-4.781-1.323-7.61 0-2.827.448-5.313 1.355-7.544.907-2.24 2.102-4.15 3.607-5.73 1.505-1.58 3.212-2.796 5.144-3.64a14.796 14.796 0 0 1 5.975-1.259c2.38 0 4.472.417 6.254 1.228 1.782.821 3.287 1.974 4.493 3.447 1.205 1.483 2.123 3.222 2.742 5.24.619 2.016.928 4.214.928 6.594 0 .822-.042 1.611-.128 2.37-.085.757-.181 1.344-.309 1.76h-21.257c.373 2.839 1.408 4.983 3.116 6.435 1.707 1.462 3.852 2.187 6.434 2.187 1.441 0 2.786-.202 4.034-.618 1.249-.406 2.497-1.004 3.725-1.783l3.084 5.55a22.292 22.292 0 0 1-5.667 2.806 20.199 20.199 0 0 1-6.403 1.014c-2.379 0-4.62-.416-6.712-1.238zm10.725-25.91c-1.067-1.377-2.711-2.06-4.93-2.06-1.804 0-3.426.651-4.867 1.943-1.44 1.29-2.326 3.19-2.646 5.698h14.054c0-2.337-.534-4.204-1.601-5.581h-.01zM209.446 8.623c1.782.662 3.319 1.569 4.589 2.743a12.464 12.464 0 0 1 2.988 4.226c.715 1.643 1.078 3.446 1.078 5.42a14.464 14.464 0 0 1-.897 4.653 22.228 22.228 0 0 1-2.123 4.28 36.023 36.023 0 0 1-2.924 3.948 79.316 79.316 0 0 1-3.362 3.692l-9.551 9.615a15.329 15.329 0 0 1 2.37-.405 25.928 25.928 0 0 1 2.187-.096h14.791v7.768h-32.1v-4.93l15.463-15.217c2.337-2.337 4.194-4.514 5.549-6.531 1.355-2.017 2.038-4.215 2.038-6.595 0-2.134-.587-3.745-1.76-4.834-1.174-1.088-2.764-1.633-4.771-1.633-1.728 0-3.18.502-4.375 1.505-1.195 1.003-2.038 2.188-2.529 3.543-.16.448-.277.928-.341 1.42-.064.49-.118 1.045-.15 1.664l-8.067-1.355c.736-4.728 2.539-8.217 5.389-10.48 2.86-2.262 6.402-3.393 10.628-3.393 2.135 0 4.098.33 5.88.982v.01zM255.068 42.174c-.865 2.978-2.06 5.443-3.607 7.396-1.537 1.952-3.362 3.404-5.453 4.343-2.092.939-4.375 1.42-6.841 1.42-2.465 0-4.61-.47-6.68-1.42-2.07-.95-3.884-2.39-5.421-4.343-1.537-1.953-2.742-4.418-3.607-7.396-.864-2.977-1.291-6.498-1.291-10.564s.427-7.652 1.291-10.629c.865-2.977 2.06-5.442 3.607-7.395 1.537-1.953 3.351-3.394 5.421-4.343 2.07-.95 4.301-1.42 6.68-1.42 2.38 0 4.749.47 6.841 1.42 2.091.95 3.916 2.39 5.453 4.343 1.536 1.953 2.742 4.418 3.607 7.395.864 2.977 1.291 6.52 1.291 10.629 0 4.108-.427 7.587-1.291 10.564zm-8.046-18.728c-.47-2.155-1.1-3.863-1.879-5.112-.779-1.248-1.696-2.134-2.742-2.646a7.273 7.273 0 0 0-3.234-.768c-1.109 0-2.102.256-3.116.768-1.003.512-1.899 1.398-2.678 2.646-.779 1.25-1.409 2.957-1.878 5.112-.47 2.156-.705 4.877-.705 8.164s.235 5.933.705 8.067c.469 2.135 1.099 3.842 1.878 5.112.779 1.27 1.675 2.155 2.678 2.646a7.03 7.03 0 0 0 3.116.737 7.671 7.671 0 0 0 3.234-.737c1.046-.49 1.963-1.376 2.742-2.646.779-1.27 1.409-2.977 1.879-5.112.469-2.134.704-4.823.704-8.067 0-3.244-.235-6.008-.704-8.164zM291.798 42.174c-.864 2.978-2.059 5.443-3.607 7.396-1.536 1.952-3.361 3.404-5.453 4.343-2.091.939-4.375 1.42-6.84 1.42s-4.61-.47-6.68-1.42c-2.071-.95-3.885-2.39-5.421-4.343-1.537-1.953-2.743-4.418-3.607-7.396-.865-2.977-1.292-6.498-1.292-10.564s.427-7.652 1.292-10.629c.864-2.977 2.059-5.442 3.607-7.395 1.536-1.953 3.35-3.394 5.421-4.343 2.07-.95 4.3-1.42 6.68-1.42s4.749.47 6.84 1.42c2.092.95 3.917 2.39 5.453 4.343 1.537 1.953 2.743 4.418 3.607 7.395.865 2.977 1.291 6.52 1.291 10.629 0 4.108-.426 7.587-1.291 10.564zm-8.046-18.728c-.47-2.155-1.099-3.863-1.878-5.112-.779-1.248-1.697-2.134-2.743-2.646a7.269 7.269 0 0 0-3.233-.768c-1.11 0-2.102.256-3.116.768-1.003.512-1.9 1.398-2.679 2.646-.779 1.25-1.408 2.957-1.878 5.112-.469 2.156-.704 4.877-.704 8.164s.235 5.933.704 8.067c.47 2.135 1.099 3.842 1.878 5.112.779 1.27 1.676 2.155 2.679 2.646a7.03 7.03 0 0 0 3.116.737 7.67 7.67 0 0 0 3.233-.737c1.046-.49 1.964-1.376 2.743-2.646.779-1.27 1.408-2.977 1.878-5.112.47-2.134.704-4.823.704-8.067 0-3.244-.234-6.008-.704-8.164zM320.668 26.68a12.522 12.522 0 0 1 4.407 2.614c1.27 1.174 2.305 2.636 3.084 4.408.779 1.771 1.174 3.82 1.174 6.157 0 2.177-.405 4.226-1.206 6.136a15.515 15.515 0 0 1-3.361 5.026c-1.441 1.44-3.18 2.572-5.24 3.394-2.059.821-4.311 1.227-6.776 1.227s-4.759-.406-6.744-1.206c-1.985-.8-3.693-1.92-5.08-3.361-1.398-1.441-2.476-3.18-3.233-5.24-.758-2.049-1.142-4.311-1.142-6.776 0-2.092.469-4.312 1.419-6.66.95-2.336 2.305-4.748 4.066-7.213l12.507-16.882h10.351a679.454 679.454 0 0 0-6.84 8.537c-2.22 2.817-4.461 5.656-6.713 8.537l-1.536 1.483.672-.31c1.441-.49 3.105-.736 4.994-.736 1.889 0 3.543.288 5.208.865h-.011zM306.87 46.454c1.462 1.483 3.383 2.22 5.763 2.22 1.195 0 2.294-.193 3.297-.587a8.285 8.285 0 0 0 2.679-1.697 7.656 7.656 0 0 0 1.814-2.647c.426-1.024.651-2.155.651-3.393 0-2.71-.769-4.749-2.316-6.104-1.537-1.355-3.564-2.038-6.072-2.038s-4.418.725-5.859 2.187c-1.44 1.462-2.155 3.415-2.155 5.88 0 2.625.725 4.685 2.187 6.157l.011.022z" fill="#FFD600"/></svg>