<svg width="301" viewBox="0 0 301 159" fill="none" xmlns="http://www.w3.org/2000/svg">
<path d="M69.12 65.72H66.48V47.3H69.12V65.72ZM60.98 52.26C60.98 53.0067 61.0733 53.76 61.26 54.52C61.4467 55.2667 61.7267 55.9733 62.1 56.64C62.4867 57.3067 62.96 57.9067 63.52 58.44C64.0933 58.9733 64.7667 59.4 65.54 59.72L64.1 61.8C63.02 61.3333 62.1133 60.68 61.38 59.84C60.66 58.9867 60.0933 57.9933 59.68 56.86C59.2667 58.0733 58.6867 59.1533 57.94 60.1C57.2067 61.0467 56.3 61.7667 55.22 62.26L53.72 60.16C54.4933 59.8133 55.1667 59.3533 55.74 58.78C56.3133 58.2067 56.7867 57.5733 57.16 56.88C57.5467 56.1733 57.8333 55.4267 58.02 54.64C58.2067 53.84 58.3 53.0467 58.3 52.26V51.24H54.46V49.06H64.78V51.24H60.98V52.26ZM89.1984 54.68H86.7584V60.54H84.1184V47.3H86.7584V52.46H89.1984V54.68ZM83.0184 56.76C81.4851 57.0667 80.0251 57.28 78.6384 57.4C77.2651 57.5067 75.9118 57.56 74.5784 57.56H72.9984V48.52H75.6384V55.36C76.7718 55.3333 77.9184 55.2733 79.0784 55.18C80.2384 55.0733 81.4451 54.8933 82.6984 54.64L83.0184 56.76ZM87.3584 63.3V65.4H74.8984V59.32H77.5384V63.3H87.3584ZM99.2481 51.5L98.7481 54.42C99.0548 54.3667 99.3481 54.3333 99.6281 54.32C99.9215 54.2933 100.201 54.28 100.468 54.28C101.268 54.28 101.975 54.4 102.588 54.64C103.201 54.88 103.715 55.2133 104.128 55.64C104.541 56.0533 104.855 56.5467 105.068 57.12C105.281 57.68 105.388 58.2933 105.388 58.96C105.388 59.76 105.241 60.4933 104.948 61.16C104.668 61.8267 104.275 62.4 103.768 62.88C103.261 63.3467 102.661 63.7133 101.968 63.98C101.275 64.2333 100.528 64.36 99.7281 64.36C98.8081 64.36 97.9548 64.18 97.1681 63.82C96.3815 63.46 95.7348 63.04 95.2281 62.56L96.6281 60.52C97.0948 60.9067 97.5948 61.2467 98.1281 61.54C98.6615 61.8333 99.2481 61.98 99.8881 61.98C100.808 61.98 101.508 61.72 101.988 61.2C102.468 60.6667 102.708 59.96 102.708 59.08C102.708 58.28 102.475 57.6533 102.008 57.2C101.541 56.7467 100.848 56.5333 99.9281 56.56C99.5548 56.5867 99.1881 56.64 98.8281 56.72C98.4681 56.7867 98.1081 56.8867 97.7481 57.02L96.0681 56.52C96.3748 54.5867 96.6281 53.02 96.8281 51.82C97.0415 50.6067 97.2015 49.68 97.3081 49.04H104.868V51.5H99.2481ZM115.402 54.86V52.78H119.862V51.42H115.402V49.34H119.862V47.3H122.502V60.84H119.862V54.86H115.402ZM117.502 57.88C116.142 58.1333 114.822 58.3 113.542 58.38C112.276 58.4467 110.956 58.48 109.582 58.48H108.102V48.46H110.722V56.32C111.842 56.2933 112.922 56.24 113.962 56.16C115.016 56.08 116.109 55.94 117.242 55.74L117.502 57.88ZM122.922 65.4H110.362V59.64H113.002V63.3H122.922V65.4ZM146.972 54.6H144.512V60.48H141.872V47.3H144.512V52.44H146.972V54.6ZM139.552 48.68C139.552 51.1867 138.812 53.2867 137.332 54.98C135.852 56.6733 133.739 57.92 130.992 58.72L129.892 56.62C131.985 56.06 133.585 55.2733 134.692 54.26C135.812 53.2333 136.479 52.0733 136.692 50.78H130.692V48.68H139.552ZM145.152 63.3V65.4H132.632V59.16H135.272V63.3H145.152ZM163.79 65.76H161.15V47.28H163.79V65.76ZM154.35 48.52C155.07 48.52 155.737 48.6333 156.35 48.86C156.977 49.0867 157.517 49.4 157.97 49.8C158.424 50.2 158.777 50.68 159.03 51.24C159.297 51.7867 159.43 52.3933 159.43 53.06C159.43 53.7133 159.297 54.32 159.03 54.88C158.777 55.44 158.424 55.92 157.97 56.32C157.517 56.72 156.977 57.0333 156.35 57.26C155.737 57.4867 155.07 57.6 154.35 57.6C153.63 57.6 152.957 57.4867 152.33 57.26C151.717 57.0333 151.184 56.72 150.73 56.32C150.29 55.92 149.937 55.44 149.67 54.88C149.417 54.32 149.29 53.7133 149.29 53.06C149.29 52.3933 149.417 51.7867 149.67 51.24C149.937 50.68 150.29 50.2 150.73 49.8C151.184 49.4 151.717 49.0867 152.33 48.86C152.957 48.6333 153.63 48.52 154.35 48.52ZM154.35 50.78C153.63 50.78 153.03 50.98 152.55 51.38C152.084 51.78 151.85 52.34 151.85 53.06C151.85 53.78 152.084 54.34 152.55 54.74C153.03 55.14 153.63 55.34 154.35 55.34C155.07 55.34 155.664 55.14 156.13 54.74C156.61 54.34 156.85 53.78 156.85 53.06C156.85 52.34 156.61 51.78 156.13 51.38C155.664 50.98 155.07 50.78 154.35 50.78ZM148.51 59.88C149.324 59.88 150.204 59.88 151.15 59.88C152.097 59.8667 153.077 59.84 154.09 59.8C155.104 59.76 156.124 59.7 157.15 59.62C158.177 59.54 159.177 59.4267 160.15 59.28L160.31 61.18C159.324 61.38 158.317 61.54 157.29 61.66C156.277 61.7667 155.277 61.8467 154.29 61.9C153.304 61.9533 152.35 61.9867 151.43 62C150.51 62.0133 149.65 62.02 148.85 62.02L148.51 59.88ZM186.42 55.96C184.807 55.72 183.433 55.2533 182.3 54.56C181.18 53.8533 180.32 53 179.72 52C179.12 53 178.253 53.8533 177.12 54.56C175.987 55.2533 174.613 55.72 173 55.96L172 53.84C173.053 53.6933 173.973 53.4467 174.76 53.1C175.547 52.7533 176.2 52.3467 176.72 51.88C177.253 51.4 177.647 50.8867 177.9 50.34C178.167 49.7933 178.3 49.2533 178.3 48.72V47.84H181.12V48.72C181.12 49.2533 181.253 49.7933 181.52 50.34C181.787 50.8867 182.18 51.4 182.7 51.88C183.233 52.3467 183.893 52.7533 184.68 53.1C185.467 53.4467 186.38 53.6933 187.42 53.84L186.42 55.96ZM180.96 59.46V65.74H178.32V59.46H171.38V57.32H188.02V59.46H180.96ZM206.698 53.76H204.258V58.2H201.618V47.32H204.258V51.58H206.698V53.76ZM199.238 57.5C198.265 57.18 197.438 56.7267 196.758 56.14C196.092 55.5533 195.565 54.86 195.178 54.06C194.778 54.98 194.218 55.78 193.498 56.46C192.792 57.14 191.912 57.66 190.858 58.02L189.478 55.94C190.252 55.6867 190.912 55.3533 191.458 54.94C192.005 54.5133 192.452 54.04 192.798 53.52C193.145 52.9867 193.398 52.42 193.558 51.82C193.718 51.2067 193.798 50.5867 193.798 49.96V48.3H196.478V50.18C196.478 50.74 196.558 51.2867 196.718 51.82C196.878 52.3533 197.125 52.8533 197.458 53.32C197.792 53.7733 198.218 54.1867 198.738 54.56C199.272 54.9333 199.898 55.2333 200.618 55.46L199.238 57.5ZM198.238 58.62C199.198 58.62 200.058 58.7 200.818 58.86C201.592 59.02 202.245 59.2533 202.778 59.56C203.325 59.8667 203.738 60.24 204.018 60.68C204.312 61.1067 204.458 61.6 204.458 62.16C204.458 62.72 204.312 63.22 204.018 63.66C203.738 64.1 203.325 64.4733 202.778 64.78C202.245 65.0867 201.592 65.32 200.818 65.48C200.058 65.64 199.198 65.72 198.238 65.72C197.278 65.72 196.412 65.64 195.638 65.48C194.865 65.32 194.205 65.0867 193.658 64.78C193.125 64.4733 192.712 64.1 192.418 63.66C192.138 63.22 191.998 62.72 191.998 62.16C191.998 61.6 192.138 61.1067 192.418 60.68C192.712 60.24 193.125 59.8667 193.658 59.56C194.205 59.2533 194.865 59.02 195.638 58.86C196.412 58.7 197.278 58.62 198.238 58.62ZM198.238 63.68C199.412 63.68 200.305 63.56 200.918 63.32C201.532 63.0667 201.838 62.68 201.838 62.16C201.838 61.6533 201.532 61.28 200.918 61.04C200.305 60.7867 199.412 60.66 198.238 60.66C195.825 60.66 194.618 61.16 194.618 62.16C194.618 63.1733 195.825 63.68 198.238 63.68ZM228.028 65.7H225.368V47.28H228.028V65.7ZM222.548 49.2C222.548 50.6 222.415 51.94 222.148 53.22C221.881 54.5 221.421 55.7067 220.768 56.84C220.128 57.96 219.268 59.0067 218.188 59.98C217.108 60.94 215.748 61.8133 214.108 62.6L212.728 60.52C213.901 59.96 214.915 59.36 215.768 58.72C216.621 58.0667 217.335 57.36 217.908 56.6C218.481 55.84 218.921 55.02 219.228 54.14C219.548 53.26 219.755 52.3133 219.848 51.3H213.708V49.2H222.548ZM247.767 59.26H231.087V57.16H238.107V55.84H233.167V50.78H243.127V49.66H233.127V47.66H245.727V52.64H235.767V53.84H246.107V55.84H240.747V57.16H247.767V59.26ZM245.847 60.3V65.66H243.207V62.38H232.927V60.3H245.847ZM252.745 61.46L251.265 65.64H249.005L249.825 61.46H252.745ZM68.28 81.28V90.76H65.64V72.3H68.28V79.1H70.96V81.28H68.28ZM57.2 84.14C58.5067 84.1267 59.7333 84.08 60.88 84C62.0267 83.9067 63.1933 83.76 64.38 83.56L64.64 85.74C63.9467 85.86 63.26 85.96 62.58 86.04C61.9133 86.12 61.2333 86.18 60.54 86.22C59.86 86.26 59.1533 86.2933 58.42 86.32C57.7 86.3333 56.94 86.34 56.14 86.34H54.56V74H63.16V76.14H57.2V84.14ZM80.5784 72.66C81.6051 72.66 82.5251 72.7467 83.3384 72.92C84.1651 73.08 84.8651 73.3133 85.4384 73.62C86.0251 73.9267 86.4718 74.3 86.7784 74.74C87.0984 75.18 87.2584 75.68 87.2584 76.24C87.2584 76.8 87.0984 77.3 86.7784 77.74C86.4718 78.18 86.0251 78.56 85.4384 78.88C84.8651 79.1867 84.1651 79.42 83.3384 79.58C82.5251 79.74 81.6051 79.82 80.5784 79.82C79.5651 79.82 78.6451 79.74 77.8184 79.58C77.0051 79.42 76.3051 79.1867 75.7184 78.88C75.1451 78.56 74.6984 78.18 74.3784 77.74C74.0718 77.3 73.9184 76.8 73.9184 76.24C73.9184 75.68 74.0718 75.18 74.3784 74.74C74.6984 74.3 75.1451 73.9267 75.7184 73.62C76.3051 73.3133 77.0051 73.08 77.8184 72.92C78.6451 72.7467 79.5651 72.66 80.5784 72.66ZM80.5784 74.68C79.3251 74.68 78.3518 74.8133 77.6584 75.08C76.9784 75.3333 76.6384 75.72 76.6384 76.24C76.6384 76.76 76.9784 77.1533 77.6584 77.42C78.3518 77.6733 79.3251 77.8 80.5784 77.8C81.8718 77.8 82.8518 77.6733 83.5184 77.42C84.1984 77.1533 84.5384 76.76 84.5384 76.24C84.5384 75.72 84.1984 75.3333 83.5184 75.08C82.8518 74.8133 81.8718 74.68 80.5784 74.68ZM88.8984 82.96H72.2584V80.88H88.8984V82.96ZM86.9184 90.5H74.1984V84.26H86.9184V90.5ZM76.7784 88.44H84.3184V86.32H76.7784V88.44ZM95.9881 79.36C96.9348 79.24 97.7615 79.0467 98.4681 78.78C99.1881 78.5133 99.7948 78.2 100.288 77.84C100.795 77.48 101.181 77.0867 101.448 76.66C101.728 76.22 101.901 75.78 101.968 75.34H96.6681V73.24H110.328V75.34H105.108C105.175 75.78 105.341 76.22 105.608 76.66C105.888 77.0867 106.275 77.48 106.768 77.84C107.261 78.2 107.861 78.5133 108.568 78.78C109.288 79.0467 110.115 79.24 111.048 79.36L110.108 81.42C108.495 81.1933 107.135 80.76 106.028 80.12C104.921 79.48 104.088 78.68 103.528 77.72C102.968 78.68 102.135 79.48 101.028 80.12C99.9215 80.76 98.5615 81.1933 96.9481 81.42L95.9881 79.36ZM104.788 84.58V90.76H102.148V84.58H95.2081V82.48H111.848V84.58H104.788ZM126.227 85.54V72.32H128.887V85.54H126.227ZM123.867 78.16C123.867 78.8267 123.74 79.4467 123.487 80.02C123.233 80.5933 122.88 81.0867 122.427 81.5C121.973 81.9133 121.44 82.24 120.827 82.48C120.227 82.7067 119.573 82.82 118.867 82.82C118.16 82.82 117.5 82.7067 116.887 82.48C116.273 82.24 115.74 81.9133 115.287 81.5C114.847 81.0867 114.493 80.5933 114.227 80.02C113.973 79.4467 113.847 78.8267 113.847 78.16C113.847 77.48 113.973 76.8533 114.227 76.28C114.493 75.7067 114.847 75.2133 115.287 74.8C115.74 74.3867 116.273 74.0667 116.887 73.84C117.5 73.6 118.16 73.48 118.867 73.48C119.573 73.48 120.227 73.6 120.827 73.84C121.44 74.0667 121.973 74.3867 122.427 74.8C122.88 75.2133 123.233 75.7067 123.487 76.28C123.74 76.8533 123.867 77.48 123.867 78.16ZM116.427 78.16C116.427 78.92 116.66 79.5067 117.127 79.92C117.607 80.3333 118.187 80.54 118.867 80.54C119.56 80.54 120.133 80.3333 120.587 79.92C121.053 79.5067 121.287 78.92 121.287 78.16C121.287 77.4 121.053 76.8133 120.587 76.4C120.133 75.9733 119.56 75.76 118.867 75.76C118.187 75.76 117.607 75.9733 117.127 76.4C116.66 76.8133 116.427 77.4 116.427 78.16ZM129.347 90.4H116.627V84.24H119.267V88.3H129.347V90.4ZM143.525 79.3C143.738 78.46 143.872 77.72 143.925 77.08C143.978 76.44 144.005 75.8133 144.005 75.2H133.885V73.12H146.645V74.64C146.645 75.3733 146.618 76.14 146.565 76.94C146.525 77.7267 146.378 78.6 146.125 79.56L143.525 79.3ZM148.605 82.62H132.025V80.54H138.165V77.32H140.805V80.54H148.605V82.62ZM140.205 83.78C141.205 83.78 142.105 83.86 142.905 84.02C143.705 84.18 144.392 84.4133 144.965 84.72C145.538 85.0133 145.978 85.3733 146.285 85.8C146.592 86.2267 146.745 86.7133 146.745 87.26C146.745 87.7933 146.592 88.2733 146.285 88.7C145.978 89.1267 145.538 89.4867 144.965 89.78C144.392 90.0867 143.705 90.32 142.905 90.48C142.105 90.64 141.205 90.72 140.205 90.72C139.218 90.72 138.318 90.64 137.505 90.48C136.705 90.32 136.018 90.0867 135.445 89.78C134.885 89.4867 134.452 89.1267 134.145 88.7C133.838 88.2733 133.685 87.7933 133.685 87.26C133.685 86.7133 133.838 86.2267 134.145 85.8C134.452 85.3733 134.885 85.0133 135.445 84.72C136.018 84.4133 136.705 84.18 137.505 84.02C138.318 83.86 139.218 83.78 140.205 83.78ZM140.205 88.74C141.458 88.74 142.425 88.62 143.105 88.38C143.785 88.1267 144.125 87.7533 144.125 87.26C144.125 86.7533 143.785 86.38 143.105 86.14C142.425 85.8867 141.458 85.76 140.205 85.76C138.952 85.76 137.985 85.8867 137.305 86.14C136.638 86.38 136.305 86.7533 136.305 87.26C136.305 87.7533 136.638 88.1267 137.305 88.38C137.985 88.62 138.952 88.74 140.205 88.74ZM158.703 80.44C157.703 80.44 156.79 80.3533 155.963 80.18C155.15 80.0067 154.45 79.7533 153.863 79.42C153.29 79.0867 152.843 78.6867 152.523 78.22C152.203 77.7533 152.043 77.2267 152.043 76.64C152.043 76.0533 152.203 75.5267 152.523 75.06C152.843 74.5933 153.29 74.1933 153.863 73.86C154.45 73.5267 155.15 73.2733 155.963 73.1C156.79 72.9267 157.703 72.84 158.703 72.84C159.703 72.84 160.617 72.9267 161.443 73.1C162.27 73.2733 162.97 73.5267 163.543 73.86C164.13 74.1933 164.583 74.5933 164.903 75.06C165.223 75.5267 165.383 76.0533 165.383 76.64C165.383 77.2267 165.223 77.7533 164.903 78.22C164.583 78.6867 164.13 79.0867 163.543 79.42C162.97 79.7533 162.27 80.0067 161.443 80.18C160.617 80.3533 159.703 80.44 158.703 80.44ZM158.703 74.92C157.45 74.92 156.477 75.0667 155.783 75.36C155.103 75.6533 154.763 76.08 154.763 76.64C154.763 77.2133 155.103 77.64 155.783 77.92C156.477 78.2 157.45 78.34 158.703 78.34C159.957 78.34 160.93 78.2 161.623 77.92C162.317 77.64 162.663 77.2133 162.663 76.64C162.663 76.08 162.317 75.6533 161.623 75.36C160.93 75.0667 159.957 74.92 158.703 74.92ZM167.023 83.8H150.383V81.7H167.023V83.8ZM165.163 88.3V90.4H152.403V85.04H155.043V88.3H165.163ZM187.733 81.36V90.72H185.093V72.32H187.733V79.16H190.413V81.36H187.733ZM182.813 73.76V86.46H173.873V73.76H176.493V78.22H180.193V73.76H182.813ZM176.493 80.28V84.36H180.193V80.28H176.493ZM208.392 88.7H191.712V86.54H198.712V83.8H193.632V77.56H203.912V75.58H193.612V73.48H206.512V79.62H196.252V81.68H206.932V83.8H201.352V86.54H208.392V88.7ZM231.581 78.8H229.181V82.94H226.521V72.28H229.181V76.66H231.581V78.8ZM225.341 81.4C224.781 81.52 224.215 81.62 223.641 81.7C223.068 81.78 222.448 81.84 221.781 81.88C221.128 81.92 220.395 81.9533 219.581 81.98C218.781 81.9933 217.868 82 216.841 82H215.281V73.54H223.541V75.64H217.901V79.88C218.728 79.88 219.475 79.8733 220.141 79.86C220.808 79.8333 221.421 79.8 221.981 79.76C222.555 79.7067 223.088 79.6467 223.581 79.58C224.088 79.5 224.588 79.4067 225.081 79.3L225.341 81.4ZM223.101 83.26C224.061 83.26 224.921 83.3467 225.681 83.52C226.455 83.6933 227.108 83.94 227.641 84.26C228.188 84.58 228.608 84.9733 228.901 85.44C229.195 85.8933 229.341 86.4133 229.341 87C229.341 87.5733 229.195 88.0933 228.901 88.56C228.608 89.0267 228.188 89.42 227.641 89.74C227.108 90.06 226.455 90.3067 225.681 90.48C224.921 90.6533 224.061 90.74 223.101 90.74C222.155 90.74 221.295 90.6533 220.521 90.48C219.761 90.3067 219.108 90.06 218.561 89.74C218.028 89.42 217.615 89.0267 217.321 88.56C217.028 88.0933 216.881 87.5733 216.881 87C216.881 86.4133 217.028 85.8933 217.321 85.44C217.615 84.9733 218.028 84.58 218.561 84.26C219.108 83.94 219.761 83.6933 220.521 83.52C221.295 83.3467 222.155 83.26 223.101 83.26ZM223.101 88.64C224.275 88.64 225.175 88.5067 225.801 88.24C226.428 87.9733 226.741 87.56 226.741 87C226.741 86.44 226.428 86.0267 225.801 85.76C225.175 85.4933 224.275 85.36 223.101 85.36C221.928 85.36 221.028 85.4933 220.401 85.76C219.788 86.0267 219.481 86.44 219.481 87C219.481 87.56 219.788 87.9733 220.401 88.24C221.028 88.5067 221.928 88.64 223.101 88.64ZM245.68 85.74V72.32H248.34V85.74H245.68ZM242.98 82.96C241.94 82.6133 241.073 82.12 240.38 81.48C239.686 80.8267 239.14 80.06 238.74 79.18C238.313 80.1133 237.74 80.94 237.02 81.66C236.3 82.3667 235.4 82.9067 234.32 83.28L232.98 81.18C233.74 80.9267 234.393 80.58 234.94 80.14C235.5 79.7 235.96 79.2133 236.32 78.68C236.68 78.1333 236.94 77.5533 237.1 76.94C237.273 76.3267 237.36 75.72 237.36 75.12V73.32H240.04V75.12C240.04 75.72 240.12 76.3133 240.28 76.9C240.453 77.4867 240.713 78.0333 241.06 78.54C241.406 79.0467 241.846 79.5 242.38 79.9C242.926 80.3 243.573 80.62 244.32 80.86L242.98 82.96ZM248.8 90.4H236.08V84.46H238.72V88.3H248.8V90.4ZM253.318 84.76L252.898 76.58L252.798 73.8H255.758L255.658 76.58L255.238 84.76H253.318ZM252.838 89.28V86.44H255.758V89.28H252.838Z" fill="black"/>
<g clip-path="url(#clip0_429_650)">
<path d="M299.59 67.7804C299.59 31.1287 232.838 1.42285 150.506 1.42285C68.1738 1.42285 1.42188 31.1287 1.42188 67.7804C1.42188 102.067 59.8475 130.283 134.803 133.77L150.506 157.577L162.483 133.921C239.217 131.207 299.59 102.632 299.59 67.7804Z" stroke="black" stroke-width="3.01" stroke-linecap="round" stroke-linejoin="round"/>
</g>
<defs>
<clipPath id="clip0_429_650">
<rect width="301" height="159" fill="white"/>
</clipPath>
</defs>
</svg>
