<svg width="301" viewBox="0 0 301 159" fill="none" xmlns="http://www.w3.org/2000/svg">
<g clip-path="url(#clip0_429_654)">
<path d="M299.59 67.7804C299.59 31.1287 232.838 1.42285 150.506 1.42285C68.1738 1.42285 1.42188 31.1287 1.42188 67.7804C1.42188 102.067 59.8475 130.283 134.803 133.77L150.506 157.577L162.483 133.921C239.217 131.207 299.59 102.632 299.59 67.7804Z" stroke="black" stroke-width="3.01" stroke-linecap="round" stroke-linejoin="round"/>
<path d="M77.28 49.8C77.9733 49.8 78.6067 49.9067 79.18 50.12C79.7667 50.3333 80.2667 50.6333 80.68 51.02C81.0933 51.3933 81.4133 51.8467 81.64 52.38C81.88 52.9133 82 53.5 82 54.14C81.9867 54.66 81.8867 55.1667 81.7 55.66C81.5267 56.14 81.3 56.6 81.02 57.04C80.74 57.48 80.42 57.9067 80.06 58.32C79.7133 58.7333 79.3533 59.1333 78.98 59.52L75.88 62.64C76.1467 62.5733 76.4 62.5333 76.64 62.52C76.8933 62.4933 77.1333 62.48 77.36 62.48H82.16V65H71.74V63.4L76.76 58.46C77.52 57.7 78.12 56.9933 78.56 56.34C79 55.6867 79.22 54.9733 79.22 54.2C79.22 53.5067 79.0267 52.9867 78.64 52.64C78.2667 52.28 77.7533 52.1 77.1 52.1C76.54 52.1 76.0667 52.2667 75.68 52.6C75.2933 52.92 75.02 53.3 74.86 53.74C74.8067 53.8867 74.7667 54.04 74.74 54.2C74.7267 54.36 74.7133 54.54 74.7 54.74L72.08 54.3C72.32 52.7667 72.9 51.6333 73.82 50.9C74.7533 50.1667 75.9067 49.8 77.28 49.8ZM94.4141 57.58C94.4141 58.9 94.2741 60.0467 93.9941 61.02C93.7141 61.98 93.3207 62.78 92.8141 63.42C92.3207 64.0467 91.7341 64.5133 91.0541 64.82C90.3741 65.1267 89.6341 65.28 88.8341 65.28C88.0607 65.28 87.3341 65.1267 86.6541 64.82C85.9874 64.5133 85.4007 64.0467 84.8941 63.42C84.4007 62.78 84.0141 61.98 83.7341 61.02C83.4541 60.0467 83.3141 58.9 83.3141 57.58C83.3141 56.2467 83.4541 55.1 83.7341 54.14C84.0141 53.1667 84.4007 52.3667 84.8941 51.74C85.4007 51.1 85.9874 50.6267 86.6541 50.32C87.3341 50.0133 88.0607 49.86 88.8341 49.86C89.6341 49.86 90.3741 50.0133 91.0541 50.32C91.7341 50.6267 92.3207 51.1 92.8141 51.74C93.3207 52.3667 93.7141 53.1667 93.9941 54.14C94.2741 55.1 94.4141 56.2467 94.4141 57.58ZM91.6141 57.58C91.6141 56.5133 91.5341 55.6333 91.3741 54.94C91.2274 54.2333 91.0274 53.68 90.7741 53.28C90.5207 52.8667 90.2207 52.58 89.8741 52.42C89.5407 52.2467 89.1941 52.16 88.8341 52.16C88.4874 52.16 88.1474 52.2467 87.8141 52.42C87.4941 52.58 87.2074 52.8667 86.9541 53.28C86.7007 53.68 86.4941 54.2333 86.3341 54.94C86.1874 55.6333 86.1141 56.5133 86.1141 57.58C86.1141 58.6333 86.1874 59.5067 86.3341 60.2C86.4941 60.8933 86.7007 61.4467 86.9541 61.86C87.2074 62.2733 87.4941 62.56 87.8141 62.72C88.1474 62.88 88.4874 62.96 88.8341 62.96C89.1941 62.96 89.5407 62.88 89.8741 62.72C90.2207 62.56 90.5207 62.2733 90.7741 61.86C91.0274 61.4467 91.2274 60.8933 91.3741 60.2C91.5341 59.5067 91.6141 58.6333 91.6141 57.58ZM106.328 57.58C106.328 58.9 106.188 60.0467 105.908 61.02C105.628 61.98 105.235 62.78 104.728 63.42C104.235 64.0467 103.648 64.5133 102.968 64.82C102.288 65.1267 101.548 65.28 100.748 65.28C99.9748 65.28 99.2481 65.1267 98.5681 64.82C97.9015 64.5133 97.3148 64.0467 96.8081 63.42C96.3148 62.78 95.9281 61.98 95.6481 61.02C95.3681 60.0467 95.2281 58.9 95.2281 57.58C95.2281 56.2467 95.3681 55.1 95.6481 54.14C95.9281 53.1667 96.3148 52.3667 96.8081 51.74C97.3148 51.1 97.9015 50.6267 98.5681 50.32C99.2481 50.0133 99.9748 49.86 100.748 49.86C101.548 49.86 102.288 50.0133 102.968 50.32C103.648 50.6267 104.235 51.1 104.728 51.74C105.235 52.3667 105.628 53.1667 105.908 54.14C106.188 55.1 106.328 56.2467 106.328 57.58ZM103.528 57.58C103.528 56.5133 103.448 55.6333 103.288 54.94C103.141 54.2333 102.941 53.68 102.688 53.28C102.435 52.8667 102.135 52.58 101.788 52.42C101.455 52.2467 101.108 52.16 100.748 52.16C100.401 52.16 100.061 52.2467 99.7281 52.42C99.4081 52.58 99.1215 52.8667 98.8681 53.28C98.6148 53.68 98.4081 54.2333 98.2481 54.94C98.1015 55.6333 98.0281 56.5133 98.0281 57.58C98.0281 58.6333 98.1015 59.5067 98.2481 60.2C98.4081 60.8933 98.6148 61.4467 98.8681 61.86C99.1215 62.2733 99.4081 62.56 99.7281 62.72C100.061 62.88 100.401 62.96 100.748 62.96C101.108 62.96 101.455 62.88 101.788 62.72C102.135 62.56 102.435 62.2733 102.688 61.86C102.941 61.4467 103.141 60.8933 103.288 60.2C103.448 59.5067 103.528 58.6333 103.528 57.58ZM113.582 55.7C114.169 55.7 114.729 55.7933 115.262 55.98C115.809 56.1667 116.289 56.4533 116.702 56.84C117.116 57.2133 117.449 57.6867 117.702 58.26C117.956 58.8333 118.082 59.5 118.082 60.26C118.082 60.9667 117.949 61.6333 117.682 62.26C117.429 62.8733 117.069 63.4133 116.602 63.88C116.136 64.3467 115.569 64.7133 114.902 64.98C114.236 65.2467 113.502 65.38 112.702 65.38C111.889 65.38 111.156 65.2533 110.502 65C109.862 64.7333 109.316 64.3667 108.862 63.9C108.409 63.4333 108.056 62.8667 107.802 62.2C107.562 61.5333 107.442 60.8 107.442 60C107.442 59.32 107.596 58.6 107.902 57.84C108.209 57.08 108.649 56.3 109.222 55.5L113.282 50.02H116.642C115.882 50.9533 115.142 51.88 114.422 52.8C113.702 53.7067 112.976 54.6267 112.242 55.56L111.742 56.04L111.962 55.94C112.429 55.78 112.969 55.7 113.582 55.7ZM110.082 60.4C110.082 61.2533 110.316 61.92 110.782 62.4C111.262 62.88 111.889 63.12 112.662 63.12C113.049 63.12 113.402 63.06 113.722 62.94C114.056 62.8067 114.349 62.62 114.602 62.38C114.856 62.14 115.049 61.8533 115.182 61.52C115.329 61.1867 115.402 60.82 115.402 60.42C115.402 59.54 115.149 58.88 114.642 58.44C114.149 58 113.496 57.78 112.682 57.78C111.882 57.78 111.249 58.02 110.782 58.5C110.316 58.9667 110.082 59.6 110.082 60.4ZM127.816 55.86V53.78H132.276V52.42H127.816V50.34H132.276V48.3H134.916V61.84H132.276V55.86H127.816ZM129.916 58.88C128.556 59.1333 127.236 59.3 125.956 59.38C124.69 59.4467 123.37 59.48 121.996 59.48H120.516V49.46H123.136V57.32C124.256 57.2933 125.336 57.24 126.376 57.16C127.43 57.08 128.523 56.94 129.656 56.74L129.916 58.88ZM135.336 66.4H122.776V60.64H125.416V64.3H135.336V66.4ZM144.346 57.16V49H146.966V51.1H154.546V49H157.146V57.16H144.346ZM146.966 53.16V55.06H154.546V53.16H146.966ZM152.046 61V66.74H149.406V61H142.446V58.9H159.126V61H152.046ZM176.304 66.76H173.664V56.9H170.504V54.78H173.664V48.28H176.304V66.76ZM164.304 60.46C165.544 60.4467 166.698 60.4133 167.764 60.36C168.831 60.2933 169.931 60.1667 171.064 59.98L171.304 62.1C170.638 62.2067 169.984 62.2933 169.344 62.36C168.704 62.4133 168.058 62.46 167.404 62.5C166.751 62.5267 166.078 62.5467 165.384 62.56C164.691 62.5733 163.958 62.58 163.184 62.58H161.684V49.84H170.204V51.96H164.304V54.96H169.584V57.02H164.304V60.46ZM199.034 66.76H196.394V48.28H199.034V66.76ZM190.914 52.4C190.914 53.2533 191.007 54.0933 191.194 54.92C191.381 55.7467 191.661 56.52 192.034 57.24C192.407 57.96 192.881 58.6067 193.454 59.18C194.041 59.74 194.721 60.1867 195.494 60.52L193.994 62.66C192.914 62.18 192.021 61.5067 191.314 60.64C190.607 59.76 190.047 58.7533 189.634 57.62C189.221 58.8733 188.647 59.9733 187.914 60.92C187.181 61.8533 186.247 62.58 185.114 63.1L183.534 60.92C184.334 60.5733 185.034 60.1067 185.634 59.52C186.234 58.92 186.727 58.2467 187.114 57.5C187.501 56.74 187.787 55.9267 187.974 55.06C188.174 54.18 188.274 53.2933 188.274 52.4V49.72H190.914V52.4ZM216.673 54.92V59.4H214.033V48.3H216.673V52.74H219.113V54.92H216.673ZM211.833 58.76C210.833 58.44 209.986 57.9733 209.293 57.36C208.599 56.7333 208.053 56.0133 207.653 55.2C207.239 56.0933 206.673 56.88 205.953 57.56C205.246 58.24 204.353 58.7533 203.273 59.1L201.893 57.04C202.639 56.8 203.286 56.4867 203.833 56.1C204.379 55.7 204.826 55.2533 205.173 54.76C205.533 54.2667 205.799 53.74 205.973 53.18C206.146 52.62 206.239 52.0533 206.253 51.48H202.593V49.38H212.553V51.48H208.953C208.966 52.0133 209.059 52.5467 209.233 53.08C209.406 53.6 209.659 54.0933 209.993 54.56C210.339 55.0133 210.773 55.4267 211.293 55.8C211.826 56.1733 212.453 56.48 213.173 56.72L211.833 58.76ZM216.673 60.22V66.74H214.033V62.32H204.373V60.22H216.673ZM233.251 62.16V48.28H235.911V62.16H233.251ZM232.331 59.44C230.424 59.7067 228.538 59.88 226.671 59.96C224.818 60.04 222.924 60.08 220.991 60.08L220.651 57.98H222.931C223.718 57.98 224.518 57.9667 225.331 57.94V56.04H222.171V49.4H231.071V51.5H224.811V53.94H231.191V56.04H227.971V57.84C228.691 57.8133 229.398 57.78 230.091 57.74C230.784 57.6867 231.471 57.6267 232.151 57.56L232.331 59.44ZM236.391 66.4H223.431V61.16H226.091V64.3H236.391V66.4ZM86.36 79.54V83.82H83.72V73.3H86.36V77.38H88.8V79.54H86.36ZM72.4 82.96V74.28H75V76.56H78.62V74.28H81.22V82.96H72.4ZM75 78.58V80.88H78.62V78.58H75ZM86.36 84.68V91.5H74.38V84.68H86.36ZM83.78 89.44V86.76H76.98V89.44H83.78ZM91.5584 77V74.9H105.558V77H103.058V82.52H105.498V84.62H91.6584V82.52H94.0584V77H91.5584ZM96.6784 77V82.52H100.438V77H96.6784ZM106.938 89.58H90.2584V87.44H106.938V89.58ZM124.017 91.76H121.377V73.28H124.017V91.76ZM114.577 74.52C115.297 74.52 115.964 74.6333 116.577 74.86C117.204 75.0867 117.744 75.4 118.197 75.8C118.65 76.2 119.004 76.68 119.257 77.24C119.524 77.7867 119.657 78.3933 119.657 79.06C119.657 79.7133 119.524 80.32 119.257 80.88C119.004 81.44 118.65 81.92 118.197 82.32C117.744 82.72 117.204 83.0333 116.577 83.26C115.964 83.4867 115.297 83.6 114.577 83.6C113.857 83.6 113.184 83.4867 112.557 83.26C111.944 83.0333 111.41 82.72 110.957 82.32C110.517 81.92 110.164 81.44 109.897 80.88C109.644 80.32 109.517 79.7133 109.517 79.06C109.517 78.3933 109.644 77.7867 109.897 77.24C110.164 76.68 110.517 76.2 110.957 75.8C111.41 75.4 111.944 75.0867 112.557 74.86C113.184 74.6333 113.857 74.52 114.577 74.52ZM114.577 76.78C113.857 76.78 113.257 76.98 112.777 77.38C112.31 77.78 112.077 78.34 112.077 79.06C112.077 79.78 112.31 80.34 112.777 80.74C113.257 81.14 113.857 81.34 114.577 81.34C115.297 81.34 115.89 81.14 116.357 80.74C116.837 80.34 117.077 79.78 117.077 79.06C117.077 78.34 116.837 77.78 116.357 77.38C115.89 76.98 115.297 76.78 114.577 76.78ZM108.737 85.88C109.55 85.88 110.43 85.88 111.377 85.88C112.324 85.8667 113.304 85.84 114.317 85.8C115.33 85.76 116.35 85.7 117.377 85.62C118.404 85.54 119.404 85.4267 120.377 85.28L120.537 87.18C119.55 87.38 118.544 87.54 117.517 87.66C116.504 87.7667 115.504 87.8467 114.517 87.9C113.53 87.9533 112.577 87.9867 111.657 88C110.737 88.0133 109.877 88.02 109.077 88.02L108.737 85.88ZM146.847 91.76H144.207V73.28H146.847V91.76ZM136.947 74.58C137.64 74.58 138.28 74.7333 138.867 75.04C139.467 75.3467 139.98 75.7867 140.407 76.36C140.833 76.92 141.167 77.6067 141.407 78.42C141.66 79.22 141.787 80.1267 141.787 81.14C141.787 82.1533 141.66 83.0667 141.407 83.88C141.167 84.6933 140.833 85.3867 140.407 85.96C139.98 86.5333 139.467 86.9733 138.867 87.28C138.28 87.5867 137.64 87.74 136.947 87.74C136.253 87.74 135.607 87.5867 135.007 87.28C134.42 86.9733 133.913 86.5333 133.487 85.96C133.06 85.3867 132.72 84.6933 132.467 83.88C132.227 83.0667 132.107 82.1533 132.107 81.14C132.107 80.1267 132.227 79.22 132.467 78.42C132.72 77.6067 133.06 76.92 133.487 76.36C133.913 75.7867 134.42 75.3467 135.007 75.04C135.607 74.7333 136.253 74.58 136.947 74.58ZM136.947 76.96C136.267 76.96 135.713 77.3133 135.287 78.02C134.86 78.7267 134.647 79.7667 134.647 81.14C134.647 82.5133 134.86 83.56 135.287 84.28C135.713 84.9867 136.267 85.34 136.947 85.34C137.627 85.34 138.18 84.9867 138.607 84.28C139.033 83.56 139.247 82.5133 139.247 81.14C139.247 79.7667 139.033 78.7267 138.607 78.02C138.18 77.3133 137.627 76.96 136.947 76.96ZM164.405 82.98H166.945V85.14H164.405V91.72H161.765V73.3H164.405V77.6H166.945V79.76H164.405V82.98ZM154.925 74.58C155.618 74.58 156.258 74.7333 156.845 75.04C157.445 75.3467 157.958 75.7867 158.385 76.36C158.812 76.92 159.145 77.6067 159.385 78.42C159.638 79.22 159.765 80.1267 159.765 81.14C159.765 82.1533 159.638 83.0667 159.385 83.88C159.145 84.6933 158.812 85.3867 158.385 85.96C157.958 86.5333 157.445 86.9733 156.845 87.28C156.258 87.5867 155.618 87.74 154.925 87.74C154.232 87.74 153.585 87.5867 152.985 87.28C152.398 86.9733 151.885 86.5333 151.445 85.96C151.018 85.3867 150.685 84.6933 150.445 83.88C150.205 83.0667 150.085 82.1533 150.085 81.14C150.085 80.1267 150.205 79.22 150.445 78.42C150.685 77.6067 151.018 76.92 151.445 76.36C151.885 75.7867 152.398 75.3467 152.985 75.04C153.585 74.7333 154.232 74.58 154.925 74.58ZM154.925 85.34C155.605 85.34 156.158 84.9867 156.585 84.28C157.012 83.56 157.225 82.5133 157.225 81.14C157.225 79.7667 157.012 78.7267 156.585 78.02C156.158 77.3133 155.605 76.96 154.925 76.96C154.232 76.96 153.672 77.3133 153.245 78.02C152.832 78.7267 152.625 79.7667 152.625 81.14C152.625 82.5133 152.832 83.56 153.245 84.28C153.672 84.9867 154.232 85.34 154.925 85.34ZM183.723 91.7H181.063V73.28H183.723V91.7ZM178.243 75.2C178.243 76.6 178.11 77.94 177.843 79.22C177.577 80.5 177.117 81.7067 176.463 82.84C175.823 83.96 174.963 85.0067 173.883 85.98C172.803 86.94 171.443 87.8133 169.803 88.6L168.423 86.52C169.597 85.96 170.61 85.36 171.463 84.72C172.317 84.0667 173.03 83.36 173.603 82.6C174.177 81.84 174.617 81.02 174.923 80.14C175.243 79.26 175.45 78.3133 175.543 77.3H169.403V75.2H178.243ZM193.762 84.44C193.295 84.44 192.889 84.3467 192.542 84.16C192.195 83.9733 191.869 83.7733 191.562 83.56C191.269 83.3333 190.982 83.1333 190.702 82.96C190.435 82.7733 190.142 82.68 189.822 82.68C189.195 82.68 188.642 83.12 188.162 84L186.622 82.84C187.142 82 187.675 81.4133 188.222 81.08C188.769 80.7467 189.322 80.58 189.882 80.58C190.335 80.58 190.735 80.6733 191.082 80.86C191.442 81.0333 191.769 81.2333 192.062 81.46C192.369 81.6733 192.655 81.8733 192.922 82.06C193.202 82.2467 193.495 82.34 193.802 82.34C194.429 82.34 194.982 81.9067 195.462 81.04L197.002 82.2C196.495 83.0133 195.969 83.5933 195.422 83.94C194.875 84.2733 194.322 84.44 193.762 84.44ZM205.539 84.44C205.073 84.44 204.666 84.3467 204.319 84.16C203.973 83.9733 203.646 83.7733 203.339 83.56C203.046 83.3333 202.759 83.1333 202.479 82.96C202.213 82.7733 201.919 82.68 201.599 82.68C200.973 82.68 200.419 83.12 199.939 84L198.399 82.84C198.919 82 199.453 81.4133 199.999 81.08C200.546 80.7467 201.099 80.58 201.659 80.58C202.113 80.58 202.513 80.6733 202.859 80.86C203.219 81.0333 203.546 81.2333 203.839 81.46C204.146 81.6733 204.433 81.8733 204.699 82.06C204.979 82.2467 205.273 82.34 205.579 82.34C206.206 82.34 206.759 81.9067 207.239 81.04L208.779 82.2C208.273 83.0133 207.746 83.5933 207.199 83.94C206.653 84.2733 206.099 84.44 205.539 84.44ZM214.157 93.24C213.21 91.6933 212.477 90.0867 211.957 88.42C211.437 86.74 211.177 84.8933 211.177 82.88C211.177 80.88 211.437 79.0467 211.957 77.38C212.477 75.7 213.21 74.0867 214.157 72.54L215.997 73.32C215.157 74.8133 214.537 76.3533 214.137 77.94C213.75 79.5133 213.557 81.16 213.557 82.88C213.557 84.6267 213.75 86.2867 214.137 87.86C214.537 89.4333 215.157 90.9667 215.997 92.46L214.157 93.24ZM220.815 85.8C220.708 84.9333 220.702 84.2133 220.795 83.64C220.902 83.0667 221.062 82.5867 221.275 82.2C221.488 81.8 221.735 81.4733 222.015 81.22C222.308 80.9533 222.582 80.7 222.835 80.46C223.088 80.2067 223.302 79.94 223.475 79.66C223.648 79.3667 223.735 79.0067 223.735 78.58C223.735 78.06 223.608 77.6267 223.355 77.28C223.102 76.92 222.695 76.74 222.135 76.74C221.575 76.74 221.115 76.9333 220.755 77.32C220.395 77.7067 220.188 78.3 220.135 79.1H217.635C217.688 78.22 217.862 77.48 218.155 76.88C218.462 76.28 218.828 75.8 219.255 75.44C219.695 75.08 220.175 74.8333 220.695 74.7C221.215 74.5533 221.722 74.4933 222.215 74.52C222.802 74.5467 223.348 74.6533 223.855 74.84C224.375 75.0133 224.822 75.2667 225.195 75.6C225.568 75.92 225.862 76.3133 226.075 76.78C226.288 77.2467 226.395 77.78 226.395 78.38C226.395 79.1 226.295 79.68 226.095 80.12C225.908 80.56 225.675 80.9267 225.395 81.22C225.115 81.5133 224.815 81.78 224.495 82.02C224.188 82.2467 223.908 82.5133 223.655 82.82C223.415 83.1267 223.235 83.5133 223.115 83.98C222.995 84.4333 222.982 85.04 223.075 85.8H220.815ZM220.475 90.28V87.44H223.395V90.28H220.475ZM228.349 92.46C229.189 90.9667 229.802 89.4333 230.189 87.86C230.589 86.2867 230.789 84.6267 230.789 82.88C230.789 81.16 230.589 79.5133 230.189 77.94C229.802 76.3533 229.189 74.8133 228.349 73.32L230.169 72.54C231.129 74.0867 231.869 75.7 232.389 77.38C232.909 79.0467 233.169 80.88 233.169 82.88C233.169 84.8933 232.902 86.74 232.369 88.42C231.849 90.0867 231.115 91.6933 230.169 93.24L228.349 92.46Z" fill="black"/>
</g>
<defs>
<clipPath id="clip0_429_654">
<rect width="301" height="159" fill="white"/>
</clipPath>
</defs>
</svg>
