<svg viewBox="0 0 252 226" fill="none" xmlns="http://www.w3.org/2000/svg">
<path d="M243.763 143.094H7.97713C4.12377 143.094 1 146.218 1 150.071V217.654C1 221.507 4.12377 224.631 7.97713 224.631H243.763C247.617 224.631 250.74 221.507 250.74 217.654V150.071C250.74 146.218 247.617 143.094 243.763 143.094Z" fill="white" stroke="#524740" stroke-width="2" stroke-linecap="round" stroke-linejoin="round"/>
<path d="M243.763 8.5498H7.97713C4.12377 8.5498 1 11.6736 1 15.5269V49.5189C1 53.3722 4.12377 56.496 7.97713 56.496H243.763C247.617 56.496 250.74 53.3722 250.74 49.5189V15.5269C250.74 11.6736 247.617 8.5498 243.763 8.5498Z" fill="white" stroke="#524740" stroke-width="2" stroke-linecap="round" stroke-linejoin="round"/>
<path d="M244.021 72.2197H8.23492C4.38156 72.2197 1.25781 75.3435 1.25781 79.1968V122.225C1.25781 126.078 4.38156 129.202 8.23492 129.202H244.021C247.874 129.202 250.998 126.078 250.998 122.225V79.1968C250.998 75.3435 247.874 72.2197 244.021 72.2197Z" fill="white" stroke="#524740" stroke-width="2" stroke-linecap="round" stroke-linejoin="round"/>
<path d="M48.0352 1.32031H12.8045C8.98173 1.32031 5.88281 4.41924 5.88281 8.24197V8.95694C5.88281 12.7797 8.98173 15.8786 12.8045 15.8786H48.0352C51.858 15.8786 54.9569 12.7797 54.9569 8.95694V8.24197C54.9569 4.41924 51.858 1.32031 48.0352 1.32031Z" fill="#FDC335" stroke="#534741" stroke-width="2" stroke-miterlimit="10"/>
<path d="M58.4825 64.8857H12.8045C8.98173 64.8857 5.88281 67.9847 5.88281 71.8074V72.5224C5.88281 76.3451 8.98173 79.444 12.8045 79.444H58.4825C62.3052 79.444 65.4041 76.3451 65.4041 72.5224V71.8074C65.4041 67.9847 62.3052 64.8857 58.4825 64.8857Z" fill="#FDC335" stroke="#534741" stroke-width="2" stroke-miterlimit="10"/>
<path d="M61.2622 136.023H12.8045C8.98173 136.023 5.88281 139.122 5.88281 142.945V143.66C5.88281 147.483 8.98173 150.582 12.8045 150.582H61.2622C65.0849 150.582 68.1839 147.483 68.1839 143.66V142.945C68.1839 139.122 65.0849 136.023 61.2622 136.023Z" fill="#FDC335" stroke="#534741" stroke-width="2" stroke-miterlimit="10"/>
<path d="M15.6436 8.64741H15.6621L17.3201 6.47168H18.4234L16.8887 8.44401L18.6946 11.4888H17.5913L16.297 9.23911L15.6375 10.0773V11.4888H14.6328V6.47168H15.6375V8.64741H15.6436Z" fill="#534741"/>
<path d="M19.8417 11.4528C19.6137 11.3603 19.4103 11.2309 19.2439 11.0645C19.0775 10.8981 18.9418 10.6885 18.8432 10.442C18.7446 10.1954 18.6953 9.91808 18.6953 9.60374C18.6953 9.2894 18.7446 9.0182 18.8432 8.77166C18.9418 8.52512 19.0775 8.31556 19.2377 8.14298C19.4041 7.9704 19.589 7.8348 19.8048 7.74235C20.0205 7.64989 20.2362 7.60059 20.4642 7.60059C20.7293 7.60059 20.9573 7.64373 21.1546 7.73618C21.3518 7.82864 21.5182 7.95191 21.6477 8.11832C21.7771 8.28474 21.8819 8.47581 21.9497 8.6977C22.0175 8.91958 22.0544 9.15996 22.0544 9.42499C22.0544 9.51745 22.0544 9.60374 22.0421 9.68386C22.0298 9.77015 22.0236 9.83179 22.0051 9.87493H19.6692C19.7123 10.1893 19.8232 10.4235 20.0143 10.5837C20.2054 10.744 20.4396 10.8241 20.7231 10.8241C20.8834 10.8241 21.0313 10.7995 21.1669 10.7563C21.3025 10.7132 21.4442 10.6454 21.5798 10.5591L21.9189 11.1693C21.7278 11.2987 21.5182 11.4035 21.2963 11.4775C21.0683 11.5514 20.8341 11.5884 20.5937 11.5884C20.3287 11.5884 20.0821 11.5453 19.8541 11.4528H19.8417ZM21.019 8.59908C20.9019 8.44499 20.7231 8.37103 20.4766 8.37103C20.2794 8.37103 20.1006 8.44499 19.9403 8.58675C19.7801 8.72851 19.6877 8.93807 19.6507 9.21543H21.1977C21.1977 8.95656 21.1361 8.75317 21.019 8.59908Z" fill="#534741"/>
<path d="M23.727 11.5144L22.2539 7.69922H23.2586L23.8626 9.46199C23.9242 9.63457 23.9735 9.80715 24.0229 9.98589C24.0722 10.1646 24.1276 10.3434 24.1769 10.5344H24.2078C24.2509 10.3557 24.3002 10.177 24.3434 9.99822C24.3865 9.81948 24.4358 9.64073 24.479 9.46199L25.0029 7.69922H25.9582L24.6454 11.6069L24.1769 13.0245H23.1908L23.7208 11.5206L23.727 11.5144Z" fill="#534741"/>
<path d="M29.0264 11.4158C28.7429 11.3049 28.5025 11.1384 28.2929 10.9227C28.0834 10.707 27.9231 10.4358 27.7998 10.1153C27.6827 9.79479 27.6211 9.42498 27.6211 9.00585C27.6211 8.58673 27.6827 8.22308 27.806 7.89642C27.9293 7.56975 28.0957 7.29855 28.3114 7.0705C28.5271 6.84245 28.7737 6.66987 29.051 6.55277C29.3346 6.43566 29.6304 6.37402 29.9509 6.37402C30.2714 6.37402 30.5611 6.43566 30.8077 6.56509C31.0542 6.69453 31.2576 6.84245 31.424 7.01503L30.894 7.64988C30.7645 7.52661 30.6289 7.42799 30.481 7.34786C30.3331 7.26774 30.1605 7.23076 29.9756 7.23076C29.7907 7.23076 29.6119 7.26774 29.4455 7.34786C29.2853 7.42799 29.1435 7.53893 29.0264 7.69302C28.9093 7.84095 28.8168 8.02585 28.749 8.23541C28.6812 8.44497 28.6442 8.69151 28.6442 8.96271C28.6442 9.23391 28.6751 9.48045 28.7367 9.69617C28.7983 9.9119 28.8846 10.0968 29.0017 10.2509C29.1188 10.405 29.2544 10.5159 29.4147 10.596C29.5749 10.6762 29.7537 10.7132 29.9509 10.7132C30.1666 10.7132 30.3639 10.6638 30.5303 10.5714C30.6967 10.4789 30.8508 10.3618 30.9864 10.2139L31.5165 10.8364C31.1035 11.3295 30.5734 11.5761 29.9139 11.5761C29.5996 11.5761 29.2976 11.5206 29.0202 11.4096L29.0264 11.4158Z" fill="#534741"/>
<path d="M32.984 11.4528C32.7621 11.3603 32.571 11.2309 32.3985 11.0645C32.232 10.8981 32.0965 10.6885 31.9978 10.442C31.8992 10.1954 31.8438 9.91808 31.8438 9.60374C31.8438 9.2894 31.8931 9.00587 31.9978 8.75317C32.1026 8.50046 32.232 8.29707 32.3985 8.12449C32.5649 7.95807 32.7621 7.82247 32.984 7.73618C33.2059 7.64373 33.4339 7.60059 33.6682 7.60059C33.9024 7.60059 34.1366 7.64373 34.3585 7.73618C34.5804 7.82864 34.7714 7.95807 34.9378 8.12449C35.1043 8.2909 35.2399 8.50046 35.3385 8.75317C35.4371 9.00587 35.4926 9.28323 35.4926 9.60374C35.4926 9.92424 35.4432 10.1954 35.3385 10.442C35.2337 10.6885 35.1043 10.8981 34.9378 11.0645C34.7714 11.2371 34.5804 11.3665 34.3585 11.4528C34.1366 11.5453 33.9085 11.5884 33.6682 11.5884C33.4278 11.5884 33.2059 11.5453 32.984 11.4528ZM34.266 10.4543C34.4078 10.2447 34.4756 9.95506 34.4756 9.59757C34.4756 9.24009 34.4078 8.94424 34.266 8.72851C34.1243 8.51895 33.927 8.40801 33.6682 8.40801C33.4093 8.40801 33.212 8.51279 33.0703 8.72851C32.9285 8.93807 32.8607 9.22776 32.8607 9.59757C32.8607 9.96739 32.9285 10.2386 33.0703 10.4543C33.212 10.6639 33.4093 10.7748 33.6682 10.7748C33.927 10.7748 34.1243 10.67 34.266 10.4543Z" fill="#534741"/>
<path d="M37.1408 6.07812V11.4897H36.1484V6.07812H37.1408Z" fill="#534741"/>
<path d="M39.0231 11.4528C38.8012 11.3603 38.6101 11.2309 38.4375 11.0645C38.2711 10.8981 38.1355 10.6885 38.0369 10.442C37.9383 10.1954 37.8828 9.91808 37.8828 9.60374C37.8828 9.2894 37.9321 9.00587 38.0369 8.75317C38.1417 8.50046 38.2711 8.29707 38.4375 8.12449C38.6039 7.95807 38.8012 7.82247 39.0231 7.73618C39.245 7.64373 39.473 7.60059 39.7072 7.60059C39.9414 7.60059 40.1756 7.64373 40.3975 7.73618C40.6194 7.82864 40.8105 7.95807 40.9769 8.12449C41.1433 8.2909 41.2789 8.50046 41.3775 8.75317C41.4762 9.00587 41.5316 9.28323 41.5316 9.60374C41.5316 9.92424 41.4823 10.1954 41.3775 10.442C41.2728 10.6885 41.1433 10.8981 40.9769 11.0645C40.8105 11.2371 40.6194 11.3665 40.3975 11.4528C40.1756 11.5453 39.9476 11.5884 39.7072 11.5884C39.4668 11.5884 39.245 11.5453 39.0231 11.4528ZM40.3051 10.4543C40.4468 10.2447 40.5146 9.95506 40.5146 9.59757C40.5146 9.24009 40.4468 8.94424 40.3051 8.72851C40.1633 8.51895 39.9661 8.40801 39.7072 8.40801C39.4483 8.40801 39.2511 8.51279 39.1094 8.72851C38.9676 8.93807 38.8998 9.22776 38.8998 9.59757C38.8998 9.96739 38.9676 10.2386 39.1094 10.4543C39.2511 10.6639 39.4483 10.7748 39.7072 10.7748C39.9661 10.7748 40.1633 10.67 40.3051 10.4543Z" fill="#534741"/>
<path d="M43.079 8.36486H43.1036C43.2454 8.11832 43.4056 7.92725 43.5967 7.79782C43.7816 7.66838 43.9788 7.60059 44.1822 7.60059C44.287 7.60059 44.3733 7.60675 44.4411 7.62524C44.5089 7.64373 44.5705 7.66222 44.6322 7.68071L44.4534 8.54361C44.3918 8.51895 44.3302 8.50663 44.2685 8.4943C44.2069 8.48197 44.1391 8.48197 44.059 8.48197C43.911 8.48197 43.7508 8.53744 43.5905 8.64839C43.4303 8.75933 43.2947 8.9504 43.1837 9.22776V11.4898H42.1914V7.69304H43.005L43.0728 8.36486H43.079Z" fill="#534741"/>
<path d="M17.7302 70.7513H15.6531V71.9101H17.4159V72.7483H15.6531V74.092H17.8042V74.9302H14.6484V69.9131H17.724V70.7452L17.7302 70.7513Z" fill="#534741"/>
<path d="M18.9745 71.14L19.3567 71.8179C19.4183 71.9289 19.4738 72.0337 19.5231 72.1384C19.5786 72.2432 19.634 72.348 19.6957 72.4528H19.7203C19.7635 72.348 19.8128 72.2432 19.8621 72.1323C19.9114 72.0213 19.9545 71.9166 20.0039 71.8118L20.3244 71.1338H21.3537L20.2442 73.0691L21.4276 74.9305H20.3552L19.936 74.2402C19.8744 74.1293 19.8128 74.0122 19.7511 73.9012C19.6895 73.7903 19.634 73.6793 19.5662 73.5684H19.5292C19.4738 73.6793 19.4245 73.7841 19.369 73.8951C19.3197 74.006 19.2642 74.1231 19.2088 74.2402L18.8574 74.9305H17.8281L19.0177 72.952L17.9082 71.1338H18.9807L18.9745 71.14Z" fill="#534741"/>
<path d="M22.7782 71.5338H22.8028C22.9631 71.3982 23.1357 71.2811 23.3267 71.1886C23.5178 71.0962 23.715 71.0469 23.9184 71.0469C24.1526 71.0469 24.3622 71.0962 24.5471 71.1886C24.732 71.2811 24.8861 71.4105 25.0155 71.5769C25.145 71.7434 25.2436 71.9468 25.3114 72.181C25.3792 72.4213 25.4162 72.6864 25.4162 72.9761C25.4162 73.3027 25.373 73.5924 25.2806 73.8451C25.1881 74.0978 25.071 74.3136 24.9231 74.4861C24.7752 74.6587 24.6026 74.7943 24.4053 74.8868C24.2081 74.9792 24.0109 75.0285 23.8013 75.0285C23.6349 75.0285 23.4685 74.9915 23.3144 74.9176C23.1603 74.8436 23.0062 74.745 22.8583 74.6094L22.8829 75.2319V76.3845H21.8906V71.127H22.7042L22.772 71.5215L22.7782 71.5338ZM24.1588 73.9191C24.3129 73.7219 24.393 73.4137 24.393 72.9946C24.393 72.6309 24.3314 72.3474 24.2143 72.1563C24.0972 71.9652 23.9061 71.8666 23.6411 71.8666C23.5116 71.8666 23.3822 71.8974 23.2651 71.9652C23.148 72.033 23.0185 72.1317 22.8891 72.2611V73.9314C23.0124 74.0362 23.1295 74.1102 23.2466 74.1533C23.3637 74.1964 23.4746 74.2149 23.5794 74.2149C23.8075 74.2149 24.0047 74.1163 24.1588 73.9191Z" fill="#534741"/>
<path d="M26.9735 71.8112H26.9981C27.1399 71.5646 27.3002 71.3735 27.4912 71.2441C27.6761 71.1147 27.8734 71.0469 28.0767 71.0469C28.1815 71.0469 28.2678 71.053 28.3356 71.0715C28.4034 71.09 28.4651 71.1085 28.5267 71.127L28.3479 71.9899C28.2863 71.9652 28.2247 71.9529 28.163 71.9406C28.1014 71.9283 28.0336 71.9283 27.9535 71.9283C27.8056 71.9283 27.6453 71.9837 27.4851 72.0947C27.3248 72.2056 27.1892 72.3967 27.0783 72.674V74.9361H26.0859V71.1393H26.8995L26.9673 71.8112H26.9735Z" fill="#534741"/>
<path d="M29.787 74.8932C29.559 74.8008 29.3556 74.6713 29.1892 74.5049C29.0228 74.3385 28.8872 74.1289 28.7885 73.8824C28.6899 73.6359 28.6406 73.3585 28.6406 73.0442C28.6406 72.7298 28.6899 72.4586 28.7885 72.2121C28.8872 71.9655 29.0228 71.756 29.183 71.5834C29.3494 71.4108 29.5343 71.2752 29.7501 71.1828C29.9658 71.0903 30.1815 71.041 30.4096 71.041C30.6746 71.041 30.9026 71.0842 31.0999 71.1766C31.2971 71.2691 31.4635 71.3923 31.593 71.5588C31.7224 71.7252 31.8272 71.9162 31.895 72.1381C31.9628 72.36 31.9998 72.6004 31.9998 72.8654C31.9998 72.9579 31.9997 73.0442 31.9874 73.1243C31.9751 73.2106 31.9689 73.2722 31.9504 73.3154H29.6145C29.6576 73.6297 29.7685 73.8639 29.9596 74.0242C30.1507 74.1844 30.3849 74.2645 30.6684 74.2645C30.8287 74.2645 30.9766 74.2399 31.1122 74.1967C31.2478 74.1536 31.3896 74.0858 31.5252 73.9995L31.8642 74.6097C31.6731 74.7391 31.4635 74.8439 31.2416 74.9179C31.0136 74.9918 30.7794 75.0288 30.539 75.0288C30.274 75.0288 30.0274 74.9857 29.7994 74.8932H29.787ZM30.9643 72.0395C30.8472 71.8854 30.6684 71.8115 30.4219 71.8115C30.2246 71.8115 30.0459 71.8854 29.8857 72.0272C29.7254 72.1689 29.6329 72.3785 29.596 72.6559H31.143C31.143 72.397 31.0814 72.1936 30.9643 72.0395Z" fill="#534741"/>
<path d="M32.9687 74.8813C32.7098 74.7827 32.4879 74.6532 32.2969 74.493L32.753 73.8704C32.9255 73.9999 33.092 74.1047 33.2584 74.1786C33.4248 74.2526 33.5912 74.2896 33.77 74.2896C33.961 74.2896 34.0966 74.2526 34.1891 74.1786C34.2754 74.1047 34.3185 74.006 34.3185 73.8889C34.3185 73.815 34.2939 73.7533 34.2507 73.704C34.2076 73.6547 34.1459 73.6054 34.072 73.5623C33.998 73.5191 33.9117 73.476 33.8193 73.439C33.7268 73.402 33.6282 73.3589 33.5296 73.3219C33.4063 73.2787 33.283 73.2233 33.1659 73.1616C33.0426 73.1 32.9317 73.026 32.8331 72.9398C32.7345 72.8535 32.6543 72.7487 32.5865 72.6316C32.5249 72.5145 32.4941 72.3789 32.4941 72.2186C32.4941 72.046 32.5249 71.892 32.5927 71.7502C32.6605 71.6084 32.753 71.4852 32.8762 71.3804C32.9995 71.2756 33.1474 71.1955 33.32 71.14C33.4926 71.0845 33.6898 71.0537 33.8994 71.0537C34.1829 71.0537 34.4295 71.103 34.639 71.2016C34.8486 71.3003 35.0335 71.405 35.1937 71.5221L34.7438 72.1262C34.6082 72.0337 34.4726 71.9536 34.3432 71.892C34.2137 71.8303 34.072 71.7995 33.924 71.7995C33.7515 71.7995 33.6282 71.8365 33.5419 71.9043C33.4556 71.9721 33.4186 72.0584 33.4186 72.1693C33.4186 72.2371 33.4371 72.2987 33.4803 72.3481C33.5234 72.3974 33.5789 72.4405 33.6528 72.4837C33.7268 72.5268 33.8069 72.5638 33.8994 72.5946C33.9918 72.6254 34.0905 72.6624 34.1891 72.6994C34.3185 72.7487 34.4418 72.8042 34.5651 72.8596C34.6883 72.9213 34.7993 72.9891 34.904 73.0754C35.0088 73.1616 35.0889 73.2664 35.1506 73.3897C35.2122 73.513 35.243 73.667 35.243 73.8396C35.243 74.0122 35.2122 74.1601 35.1444 74.3081C35.0766 74.4498 34.9842 74.5793 34.8547 74.6902C34.7253 74.8011 34.5712 74.8874 34.3863 74.9491C34.2014 75.0107 33.9795 75.0415 33.733 75.0415C33.4864 75.0415 33.2152 74.9922 32.9625 74.8936L32.9687 74.8813Z" fill="#534741"/>
<path d="M36.1523 74.8813C35.8934 74.7827 35.6715 74.6532 35.4805 74.493L35.9366 73.8704C36.1091 73.9999 36.2756 74.1047 36.442 74.1786C36.6084 74.2526 36.7748 74.2896 36.9536 74.2896C37.1446 74.2896 37.2802 74.2526 37.3727 74.1786C37.459 74.1047 37.5021 74.006 37.5021 73.8889C37.5021 73.815 37.4775 73.7533 37.4343 73.704C37.3912 73.6547 37.3295 73.6054 37.2556 73.5623C37.1816 73.5191 37.0953 73.476 37.0029 73.439C36.9104 73.402 36.8118 73.3589 36.7132 73.3219C36.5899 73.2787 36.4666 73.2233 36.3495 73.1616C36.2263 73.1 36.1153 73.026 36.0167 72.9398C35.9181 72.8535 35.838 72.7487 35.7702 72.6316C35.7085 72.5145 35.6777 72.3789 35.6777 72.2186C35.6777 72.046 35.7085 71.892 35.7763 71.7502C35.8441 71.6084 35.9366 71.4852 36.0598 71.3804C36.1831 71.2756 36.331 71.1955 36.5036 71.14C36.6762 71.0845 36.8734 71.0537 37.083 71.0537C37.3665 71.0537 37.613 71.103 37.8226 71.2016C38.0322 71.3003 38.2171 71.405 38.3773 71.5221L37.9274 72.1262C37.7918 72.0337 37.6562 71.9536 37.5268 71.892C37.3973 71.8303 37.2556 71.7995 37.1077 71.7995C36.9351 71.7995 36.8118 71.8365 36.7255 71.9043C36.6392 71.9721 36.6022 72.0584 36.6022 72.1693C36.6022 72.2371 36.6207 72.2987 36.6639 72.3481C36.707 72.3974 36.7625 72.4405 36.8365 72.4837C36.9104 72.5268 36.9905 72.5638 37.083 72.5946C37.1754 72.6254 37.2741 72.6624 37.3727 72.6994C37.5021 72.7487 37.6254 72.8042 37.7486 72.8596C37.8719 72.9213 37.9829 72.9891 38.0877 73.0754C38.1924 73.1616 38.2726 73.2664 38.3342 73.3897C38.3958 73.513 38.4266 73.667 38.4266 73.8396C38.4266 74.0122 38.3958 74.1601 38.328 74.3081C38.2602 74.4498 38.1678 74.5793 38.0383 74.6902C37.9089 74.8011 37.7548 74.8874 37.5699 74.9491C37.385 75.0107 37.1631 75.0415 36.9166 75.0415C36.67 75.0415 36.3988 74.9922 36.1461 74.8936L36.1523 74.8813Z" fill="#534741"/>
<path d="M39.9181 71.1401V74.9368H38.9258V71.1401H39.9181ZM38.9381 69.5684H39.9304V70.5299H38.9381V69.5684Z" fill="#534741"/>
<path d="M41.6285 74.8932C41.4067 74.8008 41.2156 74.6713 41.043 74.5049C40.8766 74.3385 40.741 74.1289 40.6424 73.8824C40.5438 73.6359 40.4883 73.3585 40.4883 73.0442C40.4883 72.7298 40.5376 72.4463 40.6424 72.1936C40.7471 71.9409 40.8766 71.7375 41.043 71.5649C41.2094 71.3985 41.4067 71.2629 41.6285 71.1766C41.8504 71.0842 42.0785 71.041 42.3127 71.041C42.5469 71.041 42.7811 71.0842 43.003 71.1766C43.2249 71.2691 43.416 71.3985 43.5824 71.5649C43.7488 71.7313 43.8844 71.9409 43.983 72.1936C44.0816 72.4463 44.1371 72.7237 44.1371 73.0442C44.1371 73.3647 44.0878 73.6359 43.983 73.8824C43.8782 74.1289 43.7488 74.3385 43.5824 74.5049C43.416 74.6775 43.2249 74.8069 43.003 74.8932C42.7811 74.9857 42.5531 75.0288 42.3127 75.0288C42.0723 75.0288 41.8504 74.9857 41.6285 74.8932ZM42.9105 73.8947C43.0523 73.6852 43.1201 73.3955 43.1201 73.038C43.1201 72.6805 43.0523 72.3847 42.9105 72.1689C42.7688 71.9594 42.5716 71.8484 42.3127 71.8484C42.0538 71.8484 41.8566 71.9532 41.7148 72.1689C41.5731 72.3785 41.5053 72.6682 41.5053 73.038C41.5053 73.4078 41.5731 73.679 41.7148 73.8947C41.8566 74.1043 42.0538 74.2152 42.3127 74.2152C42.5716 74.2152 42.7688 74.1105 42.9105 73.8947Z" fill="#534741"/>
<path d="M45.6789 71.6389H45.7035C45.8699 71.4786 46.0548 71.3369 46.2521 71.2198C46.4493 71.1027 46.6774 71.041 46.9362 71.041C47.3492 71.041 47.645 71.1766 47.8299 71.4416C48.0149 71.7128 48.1073 72.0827 48.1073 72.5634V74.9302H47.1088V72.6867C47.1088 72.3908 47.0657 72.1874 46.9855 72.0703C46.8993 71.9532 46.7636 71.8916 46.5726 71.8916C46.4123 71.8916 46.2767 71.9286 46.1658 72.0025C46.0548 72.0765 45.9254 72.1813 45.7775 72.323V74.9302H44.7852V71.1335H45.5987L45.6665 71.6327L45.6789 71.6389Z" fill="#534741"/>
<path d="M49.2851 74.8813C49.0262 74.7827 48.8044 74.6532 48.6133 74.493L49.0694 73.8704C49.242 73.9999 49.4084 74.1047 49.5748 74.1786C49.7412 74.2526 49.9076 74.2896 50.0864 74.2896C50.2774 74.2896 50.413 74.2526 50.5055 74.1786C50.5918 74.1047 50.6349 74.006 50.6349 73.8889C50.6349 73.815 50.6103 73.7533 50.5671 73.704C50.524 73.6547 50.4623 73.6054 50.3884 73.5623C50.3144 73.5191 50.2281 73.476 50.1357 73.439C50.0432 73.402 49.9446 73.3589 49.846 73.3219C49.7227 73.2787 49.5994 73.2233 49.4823 73.1616C49.3591 73.1 49.2481 73.026 49.1495 72.9398C49.0509 72.8535 48.9708 72.7487 48.903 72.6316C48.8413 72.5145 48.8105 72.3789 48.8105 72.2186C48.8105 72.046 48.8413 71.892 48.9091 71.7502C48.9769 71.6084 49.0694 71.4852 49.1927 71.3804C49.3159 71.2756 49.4639 71.1955 49.6364 71.14C49.809 71.0845 50.0062 71.0537 50.2158 71.0537C50.4993 71.0537 50.7459 71.103 50.9554 71.2016C51.165 71.3003 51.3499 71.405 51.5102 71.5221L51.0602 72.1262C50.9246 72.0337 50.789 71.9536 50.6596 71.892C50.5301 71.8303 50.3884 71.7995 50.2405 71.7995C50.0679 71.7995 49.9446 71.8365 49.8583 71.9043C49.772 71.9721 49.735 72.0584 49.735 72.1693C49.735 72.2371 49.7535 72.2987 49.7967 72.3481C49.8398 72.3974 49.8953 72.4405 49.9693 72.4837C50.0432 72.5268 50.1234 72.5638 50.2158 72.5946C50.3083 72.6254 50.4069 72.6624 50.5055 72.6994C50.6349 72.7487 50.7582 72.8042 50.8815 72.8596C51.0047 72.9213 51.1157 72.9891 51.2205 73.0754C51.3252 73.1616 51.4054 73.2664 51.467 73.3897C51.5286 73.513 51.5595 73.667 51.5595 73.8396C51.5595 74.0122 51.5286 74.1601 51.4608 74.3081C51.393 74.4498 51.3006 74.5793 51.1711 74.6902C51.0417 74.8011 50.8876 74.8874 50.7027 74.9491C50.5178 75.0107 50.2959 75.0415 50.0494 75.0415C49.8029 75.0415 49.5317 74.9922 49.279 74.8936L49.2851 74.8813Z" fill="#534741"/>
<path d="M14.2344 141.518H18.0743V142.35H16.6505V146.535H15.6458V142.35H14.2344V141.518Z" fill="#534741"/>
<path d="M18.543 146.226C18.3581 145.955 18.2656 145.585 18.2656 145.11V142.737H19.2641V144.981C19.2641 145.277 19.3073 145.486 19.3874 145.603C19.4675 145.72 19.6031 145.776 19.7942 145.776C19.9544 145.776 20.09 145.739 20.201 145.665C20.3119 145.591 20.4352 145.474 20.5646 145.301V142.737H21.5631V146.534H20.7495L20.6756 145.992H20.6509C20.4907 146.189 20.3119 146.343 20.1209 146.454C19.9298 146.571 19.7017 146.626 19.4367 146.626C19.0299 146.626 18.734 146.491 18.5491 146.226H18.543Z" fill="#534741"/>
<path d="M23.3368 143.403H23.3614C23.5032 143.156 23.6634 142.965 23.8545 142.836C24.0394 142.706 24.2366 142.639 24.44 142.639C24.5448 142.639 24.6311 142.645 24.6989 142.663C24.7667 142.682 24.8283 142.7 24.89 142.719L24.7112 143.582C24.6496 143.557 24.588 143.545 24.5263 143.532C24.4647 143.52 24.3969 143.52 24.3168 143.52C24.1688 143.52 24.0086 143.576 23.8483 143.686C23.6881 143.797 23.5525 143.988 23.4415 144.266V146.528H22.4492V142.731H23.2628L23.3306 143.403H23.3368Z" fill="#534741"/>
<path d="M26.1203 143.237H26.1449C26.3114 143.076 26.4963 142.935 26.6935 142.817C26.8907 142.7 27.1188 142.639 27.3777 142.639C27.7906 142.639 28.0864 142.774 28.2714 143.039C28.4563 143.31 28.5487 143.68 28.5487 144.161V146.528H27.5502V144.284C27.5502 143.988 27.5071 143.785 27.427 143.668C27.3407 143.551 27.2051 143.489 27.014 143.489C26.8537 143.489 26.7182 143.526 26.6072 143.6C26.4963 143.674 26.3668 143.779 26.2189 143.921V146.528H25.2266V142.731H26.0402L26.1079 143.23L26.1203 143.237Z" fill="#534741"/>
<path d="M29.8868 146.521C29.745 146.472 29.6279 146.392 29.5293 146.299C29.4307 146.207 29.3567 146.083 29.3013 145.948C29.2458 145.812 29.2211 145.664 29.2211 145.498C29.1965 145.029 29.3629 144.69 29.7081 144.462C30.0532 144.241 30.6203 144.117 31.4092 144.093C31.4277 143.932 31.3969 143.772 31.3229 143.612C31.2428 143.495 31.0579 143.433 30.7682 143.433C30.5895 143.433 30.4107 143.464 30.2135 143.526C30.0224 143.587 29.8375 143.68 29.6649 143.791L29.3691 143.082C29.5786 142.952 29.819 142.848 30.0902 142.761C30.3614 142.675 30.6511 142.632 30.9469 142.632C31.9208 142.632 32.4077 143.193 32.4077 144.308V146.527H31.5941L31.5201 146.139H31.5016C31.3414 146.281 31.1627 146.392 30.9716 146.472C30.7805 146.552 30.5771 146.595 30.3552 146.595C30.1888 146.595 30.0347 146.57 29.893 146.515L29.8868 146.521ZM31.0517 145.738C31.1688 145.677 31.2921 145.59 31.4092 145.473V144.709C31.2921 144.715 31.175 144.727 31.0579 144.74C30.9408 144.752 30.8298 144.764 30.725 144.783C30.5093 144.814 30.3552 144.882 30.2689 144.98C30.1826 145.079 30.1395 145.196 30.1457 145.331C30.1457 145.492 30.2011 145.615 30.2998 145.701C30.3984 145.794 30.5155 145.837 30.6634 145.837C30.8052 145.837 30.9408 145.8 31.0579 145.738H31.0517Z" fill="#534741"/>
<path d="M34.1376 143.403H34.1622C34.304 143.156 34.4642 142.965 34.6553 142.836C34.8402 142.706 35.0374 142.639 35.2408 142.639C35.3456 142.639 35.4319 142.645 35.4997 142.663C35.5675 142.682 35.6291 142.7 35.6908 142.719L35.512 143.582C35.4504 143.557 35.3887 143.545 35.3271 143.532C35.2655 143.52 35.1977 143.52 35.1176 143.52C34.9696 143.52 34.8094 143.576 34.6491 143.686C34.4889 143.797 34.3533 143.988 34.2423 144.266V146.528H33.25V142.731H34.0636L34.1314 143.403H34.1376Z" fill="#534741"/>
<path d="M36.941 146.491C36.7192 146.398 36.5281 146.269 36.3555 146.103C36.1891 145.936 36.0535 145.727 35.9549 145.48C35.8563 145.234 35.8008 144.956 35.8008 144.642C35.8008 144.327 35.8501 144.044 35.9549 143.791C36.0596 143.539 36.1891 143.335 36.3555 143.163C36.5219 142.996 36.7192 142.861 36.941 142.774C37.1629 142.682 37.391 142.639 37.6252 142.639C37.8594 142.639 38.0936 142.682 38.3155 142.774C38.5374 142.867 38.7285 142.996 38.8949 143.163C39.0613 143.329 39.1969 143.539 39.2955 143.791C39.3941 144.044 39.4496 144.321 39.4496 144.642C39.4496 144.962 39.4003 145.234 39.2955 145.48C39.1907 145.727 39.0613 145.936 38.8949 146.103C38.7285 146.275 38.5374 146.405 38.3155 146.491C38.0936 146.583 37.8656 146.626 37.6252 146.626C37.3848 146.626 37.1629 146.583 36.941 146.491ZM38.2231 145.492C38.3648 145.283 38.4326 144.993 38.4326 144.636C38.4326 144.278 38.3648 143.982 38.2231 143.767C38.0813 143.557 37.8841 143.446 37.6252 143.446C37.3663 143.446 37.1691 143.551 37.0273 143.767C36.8856 143.976 36.8178 144.266 36.8178 144.636C36.8178 145.005 36.8856 145.277 37.0273 145.492C37.1691 145.702 37.3663 145.813 37.6252 145.813C37.8841 145.813 38.0813 145.708 38.2231 145.492Z" fill="#534741"/>
<path d="M40.3516 146.226C40.1667 145.955 40.0742 145.585 40.0742 145.11V142.737H41.0727V144.981C41.0727 145.277 41.1158 145.486 41.196 145.603C41.2761 145.72 41.4117 145.776 41.6028 145.776C41.763 145.776 41.8986 145.739 42.0096 145.665C42.1205 145.591 42.2438 145.474 42.3732 145.301V142.737H43.3717V146.534H42.5581L42.4842 145.992H42.4595C42.2993 146.189 42.1205 146.343 41.9294 146.454C41.7384 146.571 41.5103 146.626 41.2453 146.626C40.8385 146.626 40.5426 146.491 40.3577 146.226H40.3516Z" fill="#534741"/>
<path d="M45.1437 143.237H45.1684C45.3348 143.076 45.5197 142.935 45.7169 142.817C45.9142 142.7 46.1422 142.639 46.4011 142.639C46.814 142.639 47.1099 142.774 47.2948 143.039C47.4797 143.31 47.5721 143.68 47.5721 144.161V146.528H46.5736V144.284C46.5736 143.988 46.5305 143.785 46.4504 143.668C46.3641 143.551 46.2285 143.489 46.0374 143.489C45.8772 143.489 45.7416 143.526 45.6306 143.6C45.5197 143.674 45.3902 143.779 45.2423 143.921V146.528H44.25V142.731H45.0636L45.1314 143.23L45.1437 143.237Z" fill="#534741"/>
<path d="M49.141 146.491C48.9499 146.398 48.7835 146.269 48.6479 146.096C48.5123 145.924 48.4076 145.714 48.3336 145.474C48.2596 145.233 48.2227 144.95 48.2227 144.642C48.2227 144.334 48.2658 144.05 48.3521 143.804C48.4384 143.557 48.5616 143.347 48.7096 143.175C48.8575 143.002 49.0301 142.873 49.2211 142.78C49.4122 142.688 49.6094 142.639 49.8128 142.639C50.0286 142.639 50.2135 142.676 50.3552 142.75C50.497 142.824 50.6388 142.922 50.7744 143.052L50.7312 142.454V141.116H51.7297V146.528H50.9223L50.8422 146.133H50.8237C50.6819 146.269 50.5217 146.386 50.3429 146.478C50.1642 146.571 49.9731 146.62 49.7697 146.62C49.5355 146.62 49.3198 146.577 49.1287 146.485L49.141 146.491ZM50.4107 145.72C50.5278 145.659 50.6388 145.56 50.7435 145.412V143.742C50.6264 143.637 50.5093 143.563 50.3922 143.52C50.2751 143.477 50.158 143.458 50.0409 143.458C49.9299 143.458 49.8313 143.483 49.7327 143.532C49.6341 143.582 49.554 143.656 49.4862 143.754C49.4184 143.853 49.3567 143.976 49.3198 144.118C49.2766 144.26 49.2581 144.432 49.2581 144.617C49.2581 145.406 49.517 145.794 50.0471 145.794C50.1765 145.794 50.2998 145.764 50.4169 145.708L50.4107 145.72Z" fill="#534741"/>
<path d="M52.9492 146.479C52.6903 146.38 52.4684 146.251 52.2773 146.091L52.7334 145.468C52.906 145.598 53.0724 145.702 53.2389 145.776C53.4053 145.85 53.5717 145.887 53.7504 145.887C53.9415 145.887 54.0771 145.85 54.1696 145.776C54.2558 145.702 54.299 145.604 54.299 145.487C54.299 145.413 54.2743 145.351 54.2312 145.302C54.188 145.252 54.1264 145.203 54.0524 145.16C53.9785 145.117 53.8922 145.074 53.7997 145.037C53.7073 145 53.6087 144.957 53.5101 144.92C53.3868 144.876 53.2635 144.821 53.1464 144.759C53.0231 144.698 52.9122 144.624 52.8136 144.537C52.715 144.451 52.6348 144.346 52.567 144.229C52.5054 144.112 52.4746 143.977 52.4746 143.816C52.4746 143.644 52.5054 143.49 52.5732 143.348C52.641 143.206 52.7334 143.083 52.8567 142.978C52.98 142.873 53.1279 142.793 53.3005 142.738C53.4731 142.682 53.6703 142.651 53.8799 142.651C54.1634 142.651 54.4099 142.701 54.6195 142.799C54.829 142.898 55.014 143.003 55.1742 143.12L54.7243 143.724C54.5887 143.631 54.4531 143.551 54.3236 143.49C54.1942 143.428 54.0525 143.397 53.9045 143.397C53.7319 143.397 53.6087 143.434 53.5224 143.502C53.4361 143.57 53.3991 143.656 53.3991 143.767C53.3991 143.835 53.4176 143.896 53.4608 143.946C53.5039 143.995 53.5594 144.038 53.6333 144.081C53.7073 144.124 53.7874 144.161 53.8799 144.192C53.9723 144.223 54.0709 144.26 54.1696 144.297C54.299 144.346 54.4223 144.402 54.5455 144.457C54.6688 144.519 54.7797 144.587 54.8845 144.673C54.9893 144.759 55.0694 144.864 55.1311 144.987C55.1927 145.111 55.2235 145.265 55.2235 145.437C55.2235 145.61 55.1927 145.758 55.1249 145.906C55.0571 146.047 54.9646 146.177 54.8352 146.288C54.7058 146.399 54.5517 146.485 54.3668 146.547C54.1819 146.608 53.96 146.639 53.7135 146.639C53.4669 146.639 53.1957 146.59 52.943 146.491L52.9492 146.479Z" fill="#534741"/>
<path d="M54.9259 95.2764H26.0312V115.764H54.9259V95.2764Z" fill="white" stroke="#524740" stroke-width="0.51" stroke-linecap="round" stroke-linejoin="round"/>
<path d="M51.1785 90.1729H29.7725L26.0312 95.2763H54.9259L51.1785 90.1729Z" fill="#F0D246" stroke="#524740" stroke-width="0.51" stroke-linecap="round" stroke-linejoin="round"/>
<path d="M42.6241 106.051C42.205 106.581 41.5085 107.043 40.4176 107.025C39.3883 107.006 38.7349 106.618 38.3281 106.143" stroke="#524740" stroke-width="0.51" stroke-linecap="round" stroke-linejoin="round"/>
<path d="M46.8158 105.89C47.7928 105.89 48.5848 105.098 48.5848 104.121C48.5848 103.145 47.7928 102.353 46.8158 102.353C45.8389 102.353 45.0469 103.145 45.0469 104.121C45.0469 105.098 45.8389 105.89 46.8158 105.89Z" fill="#524740"/>
<path d="M34.1361 105.89C35.1131 105.89 35.9051 105.098 35.9051 104.121C35.9051 103.145 35.1131 102.353 34.1361 102.353C33.1592 102.353 32.3672 103.145 32.3672 104.121C32.3672 105.098 33.1592 105.89 34.1361 105.89Z" fill="#524740"/>
<path d="M98.6251 95.2764H69.7305V115.764H98.6251V95.2764Z" fill="white" stroke="#524740" stroke-width="0.51" stroke-linecap="round" stroke-linejoin="round"/>
<path d="M94.8839 90.1729H73.4779L69.7305 95.2763H98.6251L94.8839 90.1729Z" fill="#F0D246" stroke="#524740" stroke-width="0.51" stroke-linecap="round" stroke-linejoin="round"/>
<path d="M86.3311 106.052C85.912 106.582 85.2155 107.044 84.1246 107.026C83.0953 107.007 82.4419 106.619 82.0352 106.144" stroke="#524740" stroke-width="0.51" stroke-linecap="round" stroke-linejoin="round"/>
<path d="M90.5228 105.891C91.4998 105.891 92.2918 105.099 92.2918 104.122C92.2918 103.145 91.4998 102.354 90.5228 102.354C89.5459 102.354 88.7539 103.145 88.7539 104.122C88.7539 105.099 89.5459 105.891 90.5228 105.891Z" fill="#524740"/>
<path d="M77.8432 105.891C78.8201 105.891 79.6121 105.099 79.6121 104.122C79.6121 103.145 78.8201 102.354 77.8432 102.354C76.8662 102.354 76.0742 103.145 76.0742 104.122C76.0742 105.099 76.8662 105.891 77.8432 105.891Z" fill="#524740"/>
<path d="M142.344 95.2764H113.449V115.764H142.344V95.2764Z" fill="white" stroke="#524740" stroke-width="0.51" stroke-linecap="round" stroke-linejoin="round"/>
<path d="M138.596 90.1729H117.19L113.449 95.2763H142.338L138.596 90.1729Z" fill="#F0D246" stroke="#524740" stroke-width="0.51" stroke-linecap="round" stroke-linejoin="round"/>
<path d="M125.746 107.024C126.165 106.494 126.862 106.032 127.953 106.05C128.982 106.069 129.635 106.457 130.042 106.932" stroke="#524740" stroke-width="0.51" stroke-linecap="round" stroke-linejoin="round"/>
<path d="M134.226 105.891C135.203 105.891 135.995 105.099 135.995 104.122C135.995 103.145 135.203 102.354 134.226 102.354C133.249 102.354 132.457 103.145 132.457 104.122C132.457 105.099 133.249 105.891 134.226 105.891Z" fill="#524740"/>
<path d="M121.546 105.891C122.523 105.891 123.315 105.099 123.315 104.122C123.315 103.145 122.523 102.354 121.546 102.354C120.569 102.354 119.777 103.145 119.777 104.122C119.777 105.099 120.569 105.891 121.546 105.891Z" fill="#524740"/>
<path d="M135.813 106.119C136.385 106.119 136.848 105.851 136.848 105.521C136.848 105.191 136.385 104.923 135.813 104.923C135.241 104.923 134.777 105.191 134.777 105.521C134.777 105.851 135.241 106.119 135.813 106.119Z" fill="#8FCAD8"/>
<path d="M120.184 106.119C120.756 106.119 121.219 105.851 121.219 105.521C121.219 105.191 120.756 104.923 120.184 104.923C119.612 104.923 119.148 105.191 119.148 105.521C119.148 105.851 119.612 106.119 120.184 106.119Z" fill="#8FCAD8"/>
<path d="M186.051 95.2764H157.156V115.764H186.051V95.2764Z" fill="white" stroke="#524740" stroke-width="0.51" stroke-linecap="round" stroke-linejoin="round"/>
<path d="M182.304 90.1729H160.904L157.156 95.2763H186.051L182.304 90.1729Z" fill="#F0D246" stroke="#524740" stroke-width="0.51" stroke-linecap="round" stroke-linejoin="round"/>
<path d="M173.749 106.052C173.33 106.582 172.634 107.044 171.543 107.026C170.513 107.007 169.86 106.619 169.453 106.144" stroke="#524740" stroke-width="0.51" stroke-linecap="round" stroke-linejoin="round"/>
<path d="M229.758 95.2764H200.863V115.764H229.758V95.2764Z" fill="white" stroke="#524740" stroke-width="0.51" stroke-linecap="round" stroke-linejoin="round"/>
<path d="M226.011 90.1729H204.605L200.863 95.2763H229.752L226.011 90.1729Z" fill="#F0D246" stroke="#524740" stroke-width="0.51" stroke-linecap="round" stroke-linejoin="round"/>
<path d="M34.0472 43.1533V43.6587H32.3892V44.8236H33.8006V45.329H32.3892V46.9747H31.7852V43.1595H34.0472V43.1533Z" fill="#534741"/>
<path d="M37.0931 45.7467C37.05 45.9809 36.9699 46.1905 36.8651 46.3754C36.7603 46.5603 36.6124 46.7144 36.4336 46.8315C36.2549 46.9486 36.033 47.0102 35.768 47.0102C35.5029 47.0102 35.2811 46.9486 35.1023 46.8315C34.9236 46.7144 34.7818 46.5603 34.6709 46.3754C34.5599 46.1905 34.486 45.9747 34.4428 45.7467C34.3997 45.5186 34.375 45.2844 34.375 45.0564C34.375 44.8283 34.3997 44.6003 34.4428 44.3661C34.486 44.1318 34.5661 43.9223 34.6709 43.7374C34.7756 43.5525 34.9236 43.3984 35.1023 43.2813C35.2811 43.1642 35.5029 43.1025 35.768 43.1025C36.033 43.1025 36.261 43.1642 36.4398 43.2813C36.6185 43.3984 36.7603 43.5586 36.8712 43.7497C36.976 43.9408 37.0561 44.1503 37.0993 44.3846C37.1424 44.6188 37.1671 44.8407 37.1671 45.0625C37.1671 45.2844 37.1424 45.5186 37.0993 45.7529L37.0931 45.7467ZM36.5446 44.6003C36.5261 44.4339 36.4891 44.2674 36.4336 44.1195C36.3781 43.9654 36.298 43.8422 36.1871 43.7374C36.0823 43.6326 35.9405 43.5833 35.7618 43.5833C35.5831 43.5833 35.4413 43.6326 35.3365 43.7374C35.2317 43.8422 35.1516 43.9716 35.09 44.1195C35.0345 44.2736 34.9975 44.4339 34.979 44.6003C34.9605 44.7667 34.9544 44.9208 34.9544 45.0564C34.9544 45.192 34.9605 45.3461 34.979 45.5125C34.9975 45.6789 35.0345 45.8453 35.09 45.9932C35.1454 46.1473 35.2317 46.2706 35.3365 46.3754C35.4413 46.4802 35.5831 46.5295 35.7618 46.5295C35.9405 46.5295 36.0823 46.4802 36.1871 46.3754C36.2919 46.2706 36.372 46.1412 36.4336 45.9932C36.4891 45.8391 36.5261 45.6789 36.5446 45.5125C36.5631 45.3461 36.5692 45.192 36.5692 45.0564C36.5692 44.9208 36.5631 44.7667 36.5446 44.6003Z" fill="#534741"/>
<path d="M37.8768 46.6537C37.6673 46.401 37.5625 46.0312 37.5625 45.5443C37.5625 45.3101 37.5933 45.1005 37.6611 44.9156C37.7289 44.7307 37.8214 44.5766 37.9323 44.441C38.0494 44.3116 38.1788 44.213 38.3268 44.1452C38.4747 44.0774 38.6288 44.0404 38.7829 44.0404C38.937 44.0404 39.091 44.0712 39.202 44.1267C39.3191 44.1822 39.4301 44.2623 39.5472 44.3609L39.5225 43.8863V42.8262H40.1204V46.9557H39.6334L39.5841 46.6352H39.5657C39.4609 46.7462 39.3376 46.8386 39.1958 46.9126C39.0541 46.9866 38.9 47.0235 38.7397 47.0235C38.3761 47.0235 38.0864 46.8941 37.8768 46.6414V46.6537ZM39.5287 46.1976V44.8047C39.4239 44.7061 39.3191 44.6383 39.2143 44.6013C39.1095 44.5643 39.0109 44.5458 38.9 44.5458C38.8014 44.5458 38.7027 44.5705 38.6165 44.6136C38.5302 44.6629 38.45 44.7245 38.3884 44.8108C38.3268 44.8971 38.2713 45.0019 38.2343 45.119C38.1973 45.2423 38.1789 45.3779 38.1789 45.5381C38.1789 45.8648 38.2405 46.1113 38.3576 46.2839C38.4747 46.4565 38.6534 46.5428 38.8815 46.5428C39.1095 46.5428 39.3314 46.4257 39.5287 46.1976Z" fill="#534741"/>
<path d="M40.8164 46.968V46.6352L42.1046 45.3408C42.197 45.2484 42.2772 45.1621 42.3573 45.0696C42.4374 44.9772 42.5114 44.8786 42.5792 44.7738C42.647 44.6567 42.6963 44.5272 42.7271 44.3916C42.7579 44.256 42.7579 44.1266 42.7333 44.0033C42.7086 43.8862 42.647 43.7814 42.5545 43.7013C42.4621 43.6212 42.3203 43.578 42.1354 43.578C42.0306 43.578 41.9382 43.5965 41.8519 43.6335C41.7656 43.6705 41.6916 43.7198 41.63 43.7814C41.5683 43.8431 41.519 43.917 41.4882 44.0033C41.4574 44.0896 41.4451 44.1821 41.4513 44.2869L40.8842 44.1821C40.9335 43.8369 41.0691 43.5657 41.2972 43.3746C41.5252 43.1836 41.8149 43.085 42.1724 43.085C42.3326 43.085 42.4867 43.1096 42.6285 43.1528C42.7702 43.1959 42.8935 43.2699 42.9983 43.3623C43.1031 43.4548 43.1894 43.5657 43.251 43.7013C43.3126 43.8369 43.3434 43.991 43.3434 44.1636C43.3434 44.3115 43.3188 44.4409 43.2757 44.5704C43.2325 44.6936 43.1709 44.8108 43.0969 44.9279C43.0229 45.045 42.9367 45.1436 42.8442 45.2484C42.7517 45.347 42.6531 45.4456 42.5607 45.5442L41.5868 46.5304C41.667 46.5119 41.7471 46.4934 41.8334 46.4811C41.9197 46.4687 41.9998 46.4626 42.0861 46.4626H43.4113V46.968H40.8164Z" fill="#534741"/>
<path d="M46.1347 45.9989V46.9665H45.6354V45.9989H43.7617V45.5859L45.6046 43.1328H46.1408V45.5551H46.6709V45.9989H46.1408H46.1347ZM45.6354 44.156C45.6354 44.0943 45.6354 44.0389 45.6416 43.9772C45.6416 43.9156 45.6539 43.8539 45.6601 43.7861L44.3719 45.5551H45.6293V44.156H45.6354Z" fill="#534741"/>
<path d="M47.9223 44.7415C48.101 44.6429 48.2982 44.5936 48.5016 44.5936C48.6742 44.5936 48.8283 44.6244 48.9701 44.6799C49.1118 44.7353 49.2289 44.8155 49.3276 44.9202C49.4262 45.025 49.5001 45.1421 49.5556 45.2839C49.6111 45.4256 49.6357 45.5797 49.6357 45.74C49.6357 45.9249 49.5987 46.0975 49.5309 46.2516C49.4631 46.4057 49.3645 46.5412 49.2474 46.6522C49.1303 46.7631 48.9824 46.8494 48.8221 46.9111C48.6619 46.9727 48.4831 47.0035 48.2982 47.0035C48.101 47.0035 47.9223 46.9727 47.762 46.9111C47.6018 46.8494 47.4662 46.757 47.3552 46.646C47.2443 46.5289 47.158 46.3872 47.0964 46.2269C47.0347 46.0605 47.0039 45.8818 47.0039 45.6722C47.0039 45.4626 47.0471 45.2654 47.1395 45.0682C47.232 44.8709 47.3367 44.6922 47.46 44.5319L48.5078 43.1328H49.2166L47.9223 44.7415ZM48.5941 46.4796C48.6865 46.4426 48.7728 46.3933 48.8406 46.3255C48.9084 46.2577 48.9639 46.1776 49.0071 46.0851C49.0502 45.9927 49.0687 45.8879 49.0687 45.777C49.0687 45.5489 49.0009 45.364 48.8591 45.2284C48.7235 45.0928 48.5386 45.025 48.3106 45.025C48.2058 45.025 48.101 45.0435 48.0086 45.0805C47.9161 45.1175 47.836 45.1729 47.7682 45.2346C47.7004 45.3024 47.6449 45.3763 47.6079 45.4688C47.5709 45.5612 47.5525 45.6599 47.5525 45.7646C47.5525 45.9865 47.6141 46.1714 47.7435 46.3194C47.8668 46.4611 48.0517 46.5351 48.2921 46.5351C48.3969 46.5351 48.5016 46.5166 48.5941 46.4796Z" fill="#534741"/>
<path d="M39.4223 37.6054C44.0178 37.6054 47.7431 33.8801 47.7431 29.2846C47.7431 24.6892 44.0178 20.9639 39.4223 20.9639C34.8269 20.9639 31.1016 24.6892 31.1016 29.2846C31.1016 33.8801 34.8269 37.6054 39.4223 37.6054Z" fill="#F0D246" stroke="#524740" stroke-width="1.05" stroke-linecap="round" stroke-linejoin="round"/>
<path d="M73.635 46.419C73.7829 46.4868 73.9309 46.5176 74.085 46.5176C74.2082 46.5176 74.3192 46.4929 74.424 46.4498C74.5226 46.4066 74.6089 46.345 74.6767 46.271C74.7445 46.1971 74.7938 46.1108 74.8308 46.006C74.8677 45.9012 74.8862 45.7964 74.8862 45.6793C74.8862 45.439 74.8184 45.2602 74.6767 45.1431C74.5349 45.026 74.35 44.9644 74.1096 44.9644C74.011 44.9644 73.9124 44.9767 73.8138 44.9952C73.7151 45.0137 73.6165 45.0383 73.5179 45.063L73.1666 44.9644L73.4748 43.1338H75.33V43.6577H73.8754L73.7213 44.5514C73.8939 44.5144 74.0665 44.4959 74.2267 44.4959C74.4055 44.4959 74.5657 44.5206 74.7136 44.5699C74.8616 44.6192 74.991 44.6932 75.1019 44.7918C75.2129 44.8904 75.2992 45.0137 75.3608 45.1554C75.4224 45.2972 75.4533 45.4636 75.4533 45.6547C75.4533 45.8581 75.4163 46.0368 75.3485 46.2094C75.2807 46.3758 75.1821 46.5176 75.0588 46.6347C74.9355 46.7518 74.7876 46.8442 74.615 46.912C74.4424 46.9798 74.2514 47.0107 74.048 47.0107C73.9 47.0107 73.746 46.986 73.5857 46.9429C73.4255 46.8997 73.2899 46.8319 73.1666 46.7395C73.0865 46.6902 73.0187 46.6347 72.957 46.5792L73.2529 46.1662C73.3638 46.271 73.4933 46.3573 73.635 46.4251V46.419Z" fill="#534741"/>
<path d="M75.9961 46.968V46.6352L77.2843 45.3408C77.3767 45.2484 77.4569 45.1621 77.537 45.0696C77.6171 44.9772 77.6911 44.8786 77.7589 44.7738C77.8267 44.6567 77.876 44.5272 77.9068 44.3916C77.9376 44.256 77.9376 44.1266 77.913 44.0033C77.8883 43.8862 77.8267 43.7814 77.7342 43.7013C77.6418 43.6212 77.5 43.578 77.3151 43.578C77.2103 43.578 77.1179 43.5965 77.0316 43.6335C76.9453 43.6705 76.8713 43.7198 76.8097 43.7814C76.7481 43.8431 76.6987 43.917 76.6679 44.0033C76.6371 44.0896 76.6248 44.1821 76.6309 44.2869L76.0639 44.1821C76.1132 43.8369 76.2488 43.5657 76.4768 43.3746C76.7049 43.1836 76.9946 43.085 77.3521 43.085C77.5123 43.085 77.6664 43.1096 77.8082 43.1528C77.9499 43.1959 78.0732 43.2699 78.178 43.3623C78.2828 43.4548 78.3691 43.5657 78.4307 43.7013C78.4923 43.8369 78.5231 43.991 78.5231 44.1636C78.5231 44.3115 78.4985 44.4409 78.4553 44.5704C78.4122 44.6936 78.3506 44.8108 78.2766 44.9279C78.2026 45.045 78.1164 45.1436 78.0239 45.2484C77.9315 45.347 77.8328 45.4456 77.7404 45.5442L76.7665 46.5304C76.8467 46.5119 76.9268 46.4934 77.0131 46.4811C77.0994 46.4687 77.1795 46.4626 77.2658 46.4626H78.5909V46.968H75.9961Z" fill="#534741"/>
<path d="M81.3066 45.9998V46.9675H80.8073V45.9998H78.9336V45.5869L80.7765 43.1338H81.3127V45.5561H81.8428V45.9998H81.3127H81.3066ZM80.8073 44.1569C80.8073 44.0953 80.8073 44.0398 80.8135 43.9782C80.8135 43.9166 80.8258 43.8549 80.832 43.7871L79.5438 45.5561H80.8011V44.1569H80.8073Z" fill="#534741"/>
<path d="M83.1227 46.9675H82.5002L84.0472 43.9351C84.0904 43.8364 84.152 43.744 84.226 43.6577H82.1797V43.1338H84.8054V43.5406L83.1227 46.9675Z" fill="#534741"/>
<path d="M87.4862 45.9998V46.9675H86.987V45.9998H85.1133V45.5869L86.9562 43.1338H87.4924V45.5561H88.0225V45.9998H87.4924H87.4862ZM86.987 44.1569C86.987 44.0953 86.987 44.0398 86.9932 43.9782C86.9932 43.9166 87.0055 43.8549 87.0116 43.7871L85.7235 45.5561H86.9808V44.1569H86.987Z" fill="#534741"/>
<path d="M90.9798 45.7467C90.9367 45.9809 90.8566 46.1905 90.7518 46.3754C90.647 46.5603 90.4991 46.7144 90.3203 46.8315C90.1416 46.9486 89.9197 47.0102 89.6547 47.0102C89.3897 47.0102 89.1678 46.9486 88.989 46.8315C88.8103 46.7144 88.6685 46.5603 88.5576 46.3754C88.4466 46.1905 88.3727 45.9747 88.3295 45.7467C88.2864 45.5186 88.2617 45.2844 88.2617 45.0564C88.2617 44.8283 88.2864 44.6003 88.3295 44.3661C88.3727 44.1318 88.4528 43.9223 88.5576 43.7374C88.6624 43.5525 88.8103 43.3984 88.989 43.2813C89.1678 43.1642 89.3897 43.1025 89.6547 43.1025C89.9197 43.1025 90.1478 43.1642 90.3265 43.2813C90.5053 43.3984 90.647 43.5586 90.758 43.7497C90.8627 43.9408 90.9429 44.1503 90.986 44.3846C91.0292 44.6188 91.0538 44.8407 91.0538 45.0625C91.0538 45.2844 91.0292 45.5186 90.986 45.7529L90.9798 45.7467ZM90.4313 44.6003C90.4128 44.4339 90.3758 44.2674 90.3203 44.1195C90.2649 43.9654 90.1847 43.8422 90.0738 43.7374C89.969 43.6326 89.8273 43.5833 89.6485 43.5833C89.4698 43.5833 89.328 43.6326 89.2232 43.7374C89.1184 43.8422 89.0383 43.9716 88.9767 44.1195C88.9212 44.2736 88.8842 44.4339 88.8658 44.6003C88.8473 44.7667 88.8411 44.9208 88.8411 45.0564C88.8411 45.192 88.8473 45.3461 88.8658 45.5125C88.8842 45.6789 88.9212 45.8453 88.9767 45.9932C89.0322 46.1473 89.1184 46.2706 89.2232 46.3754C89.328 46.4802 89.4698 46.5295 89.6485 46.5295C89.8273 46.5295 89.969 46.4802 90.0738 46.3754C90.1786 46.2706 90.2587 46.1412 90.3203 45.9932C90.3758 45.8391 90.4128 45.6789 90.4313 45.5125C90.4498 45.3461 90.4559 45.192 90.4559 45.0564C90.4559 44.9208 90.4498 44.7667 90.4313 44.6003Z" fill="#534741"/>
<path d="M81.0864 37.6054C85.6818 37.6054 89.4072 33.8801 89.4072 29.2846C89.4072 24.6892 85.6818 20.9639 81.0864 20.9639C76.491 20.9639 72.7656 24.6892 72.7656 29.2846C72.7656 33.8801 76.491 37.6054 81.0864 37.6054Z" fill="#524740" stroke="#524740" stroke-width="1.05" stroke-miterlimit="10"/>
<path d="M117.992 43.1523V43.6578H116.335V44.8227H117.746V45.3281H116.335V46.9737H115.73V43.1585H117.992V43.1523Z" fill="#534741"/>
<path d="M120.926 43.1523V43.6578H119.268V44.8227H120.68V45.3281H119.268V46.9737H118.664V43.1585H120.926V43.1523Z" fill="#534741"/>
<path d="M123.864 43.1523V43.6578H122.206V44.8227H123.617V45.3281H122.206V46.9737H121.602V43.1585H123.864V43.1523Z" fill="#534741"/>
<path d="M126.793 43.1523V43.6578H125.135V44.8227H126.547V45.3281H125.135V46.9737H124.531V43.1585H126.793V43.1523Z" fill="#534741"/>
<path d="M129.727 43.1523V43.6578H128.069V44.8227H129.48V45.3281H128.069V46.9737H127.465V43.1585H129.727V43.1523Z" fill="#534741"/>
<path d="M132.664 43.1523V43.6578H131.006V44.8227H132.418V45.3281H131.006V46.9737H130.402V43.1585H132.664V43.1523Z" fill="#534741"/>
<path d="M123.504 37.6054C128.1 37.6054 131.825 33.8801 131.825 29.2846C131.825 24.6892 128.1 20.9639 123.504 20.9639C118.909 20.9639 115.184 24.6892 115.184 29.2846C115.184 33.8801 118.909 37.6054 123.504 37.6054Z" fill="white" stroke="#524740" stroke-width="1.05" stroke-linecap="round" stroke-linejoin="round"/>
<path d="M156.658 46.0737C156.707 46.1661 156.769 46.2401 156.843 46.3079C156.917 46.3757 156.997 46.425 157.09 46.4681C157.182 46.5113 157.281 46.5298 157.373 46.5298C157.466 46.5298 157.564 46.5113 157.65 46.4805C157.737 46.4496 157.817 46.4065 157.885 46.351C157.952 46.2956 158.008 46.2278 158.045 46.1415C158.082 46.0552 158.107 45.9689 158.107 45.8703C158.107 45.7223 158.082 45.6114 158.026 45.5251C157.971 45.4388 157.903 45.371 157.817 45.3279C157.731 45.2847 157.632 45.2539 157.521 45.2416C157.41 45.2293 157.299 45.2231 157.176 45.2231V44.8101C157.281 44.8101 157.385 44.804 157.49 44.7855C157.595 44.767 157.687 44.7362 157.768 44.6869C157.848 44.6376 157.909 44.5759 157.965 44.4958C158.014 44.4157 158.039 44.3109 158.039 44.1876C158.039 44.0027 157.983 43.8548 157.878 43.75C157.768 43.6452 157.62 43.5898 157.429 43.5898C157.33 43.5898 157.237 43.6083 157.151 43.6452C157.065 43.6822 156.985 43.7315 156.923 43.7932C156.862 43.8548 156.812 43.9288 156.781 44.015C156.751 44.1013 156.738 44.1938 156.744 44.2986L156.177 44.2C156.227 43.8548 156.362 43.5898 156.584 43.3925C156.806 43.1953 157.102 43.0967 157.453 43.0967C157.601 43.0967 157.737 43.1152 157.878 43.1583C158.014 43.2015 158.137 43.2631 158.242 43.3432C158.347 43.4233 158.433 43.5281 158.495 43.6514C158.556 43.7747 158.593 43.9164 158.593 44.0767C158.593 44.2986 158.544 44.4835 158.446 44.6252C158.347 44.7732 158.187 44.8779 157.965 44.9457C158.193 45.0135 158.372 45.1183 158.495 45.2662C158.618 45.4142 158.68 45.6052 158.68 45.8518C158.68 46.0367 158.643 46.1969 158.575 46.3387C158.507 46.4805 158.415 46.6037 158.298 46.7023C158.18 46.801 158.045 46.8811 157.885 46.9304C157.724 46.9797 157.558 47.0105 157.385 47.0105C157.034 47.0105 156.751 46.9304 156.541 46.764C156.331 46.6037 156.171 46.3449 156.066 45.9997L156.572 45.7901C156.584 45.8888 156.615 45.9812 156.664 46.0675L156.658 46.0737Z" fill="#534741"/>
<path d="M159.752 46.0737C159.801 46.1661 159.863 46.2401 159.937 46.3079C160.011 46.3757 160.091 46.425 160.183 46.4681C160.276 46.5113 160.374 46.5298 160.467 46.5298C160.559 46.5298 160.658 46.5113 160.744 46.4805C160.83 46.4496 160.911 46.4065 160.978 46.351C161.046 46.2956 161.102 46.2278 161.139 46.1415C161.176 46.0552 161.2 45.9689 161.2 45.8703C161.2 45.7223 161.176 45.6114 161.12 45.5251C161.065 45.4388 160.997 45.371 160.911 45.3279C160.824 45.2847 160.726 45.2539 160.615 45.2416C160.504 45.2293 160.393 45.2231 160.27 45.2231V44.8101C160.374 44.8101 160.479 44.804 160.584 44.7855C160.689 44.767 160.781 44.7362 160.861 44.6869C160.941 44.6376 161.003 44.5759 161.059 44.4958C161.108 44.4157 161.132 44.3109 161.132 44.1876C161.132 44.0027 161.077 43.8548 160.972 43.75C160.861 43.6452 160.713 43.5898 160.522 43.5898C160.424 43.5898 160.331 43.6083 160.245 43.6452C160.159 43.6822 160.079 43.7315 160.017 43.7932C159.955 43.8548 159.906 43.9288 159.875 44.015C159.844 44.1013 159.832 44.1938 159.838 44.2986L159.271 44.2C159.32 43.8548 159.456 43.5898 159.678 43.3925C159.9 43.1953 160.196 43.0967 160.547 43.0967C160.695 43.0967 160.83 43.1152 160.972 43.1583C161.108 43.2015 161.231 43.2631 161.336 43.3432C161.441 43.4233 161.527 43.5281 161.589 43.6514C161.65 43.7747 161.687 43.9164 161.687 44.0767C161.687 44.2986 161.638 44.4835 161.539 44.6252C161.441 44.7732 161.28 44.8779 161.059 44.9457C161.287 45.0135 161.465 45.1183 161.589 45.2662C161.712 45.4142 161.774 45.6052 161.774 45.8518C161.774 46.0367 161.737 46.1969 161.669 46.3387C161.601 46.4805 161.508 46.6037 161.391 46.7023C161.274 46.801 161.139 46.8811 160.978 46.9304C160.818 46.9797 160.652 47.0105 160.479 47.0105C160.128 47.0105 159.844 46.9304 159.635 46.764C159.425 46.6037 159.265 46.3449 159.16 45.9997L159.666 45.7901C159.678 45.8888 159.709 45.9812 159.758 46.0675L159.752 46.0737Z" fill="#534741"/>
<path d="M162.838 46.0737C162.887 46.1661 162.949 46.2401 163.023 46.3079C163.097 46.3757 163.177 46.425 163.269 46.4681C163.362 46.5113 163.46 46.5298 163.553 46.5298C163.645 46.5298 163.744 46.5113 163.83 46.4805C163.916 46.4496 163.997 46.4065 164.064 46.351C164.132 46.2956 164.188 46.2278 164.225 46.1415C164.262 46.0552 164.286 45.9689 164.286 45.8703C164.286 45.7223 164.262 45.6114 164.206 45.5251C164.151 45.4388 164.083 45.371 163.997 45.3279C163.91 45.2847 163.812 45.2539 163.701 45.2416C163.59 45.2293 163.479 45.2231 163.356 45.2231V44.8101C163.46 44.8101 163.565 44.804 163.67 44.7855C163.775 44.767 163.867 44.7362 163.947 44.6869C164.027 44.6376 164.089 44.5759 164.144 44.4958C164.194 44.4157 164.218 44.3109 164.218 44.1876C164.218 44.0027 164.163 43.8548 164.058 43.75C163.947 43.6452 163.799 43.5898 163.608 43.5898C163.51 43.5898 163.417 43.6083 163.331 43.6452C163.245 43.6822 163.164 43.7315 163.103 43.7932C163.041 43.8548 162.992 43.9288 162.961 44.015C162.93 44.1013 162.918 44.1938 162.924 44.2986L162.357 44.2C162.406 43.8548 162.542 43.5898 162.764 43.3925C162.986 43.1953 163.282 43.0967 163.633 43.0967C163.781 43.0967 163.916 43.1152 164.058 43.1583C164.194 43.2015 164.317 43.2631 164.422 43.3432C164.527 43.4233 164.613 43.5281 164.675 43.6514C164.736 43.7747 164.773 43.9164 164.773 44.0767C164.773 44.2986 164.724 44.4835 164.625 44.6252C164.527 44.7732 164.366 44.8779 164.144 44.9457C164.373 45.0135 164.551 45.1183 164.675 45.2662C164.798 45.4142 164.859 45.6052 164.859 45.8518C164.859 46.0367 164.822 46.1969 164.755 46.3387C164.687 46.4805 164.594 46.6037 164.477 46.7023C164.36 46.801 164.225 46.8811 164.064 46.9304C163.904 46.9797 163.738 47.0105 163.565 47.0105C163.214 47.0105 162.93 46.9304 162.721 46.764C162.511 46.6037 162.351 46.3449 162.246 45.9997L162.752 45.7901C162.764 45.8888 162.795 45.9812 162.844 46.0675L162.838 46.0737Z" fill="#534741"/>
<path d="M165.928 46.0737C165.977 46.1661 166.039 46.2401 166.113 46.3079C166.187 46.3757 166.267 46.425 166.359 46.4681C166.452 46.5113 166.55 46.5298 166.643 46.5298C166.735 46.5298 166.834 46.5113 166.92 46.4805C167.006 46.4496 167.086 46.4065 167.154 46.351C167.222 46.2956 167.277 46.2278 167.314 46.1415C167.351 46.0552 167.376 45.9689 167.376 45.8703C167.376 45.7223 167.351 45.6114 167.296 45.5251C167.24 45.4388 167.173 45.371 167.086 45.3279C167 45.2847 166.901 45.2539 166.791 45.2416C166.68 45.2293 166.569 45.2231 166.445 45.2231V44.8101C166.55 44.8101 166.655 44.804 166.76 44.7855C166.864 44.767 166.957 44.7362 167.037 44.6869C167.117 44.6376 167.179 44.5759 167.234 44.4958C167.284 44.4157 167.308 44.3109 167.308 44.1876C167.308 44.0027 167.253 43.8548 167.148 43.75C167.037 43.6452 166.889 43.5898 166.698 43.5898C166.599 43.5898 166.507 43.6083 166.421 43.6452C166.334 43.6822 166.254 43.7315 166.193 43.7932C166.131 43.8548 166.082 43.9288 166.051 44.015C166.02 44.1013 166.008 44.1938 166.014 44.2986L165.447 44.2C165.496 43.8548 165.632 43.5898 165.854 43.3925C166.076 43.1953 166.371 43.0967 166.723 43.0967C166.871 43.0967 167.006 43.1152 167.148 43.1583C167.284 43.2015 167.407 43.2631 167.512 43.3432C167.616 43.4233 167.703 43.5281 167.764 43.6514C167.826 43.7747 167.863 43.9164 167.863 44.0767C167.863 44.2986 167.814 44.4835 167.715 44.6252C167.616 44.7732 167.456 44.8779 167.234 44.9457C167.462 45.0135 167.641 45.1183 167.764 45.2662C167.888 45.4142 167.949 45.6052 167.949 45.8518C167.949 46.0367 167.912 46.1969 167.845 46.3387C167.777 46.4805 167.684 46.6037 167.567 46.7023C167.45 46.801 167.314 46.8811 167.154 46.9304C166.994 46.9797 166.828 47.0105 166.655 47.0105C166.304 47.0105 166.02 46.9304 165.811 46.764C165.601 46.6037 165.441 46.3449 165.336 45.9997L165.841 45.7901C165.854 45.8888 165.885 45.9812 165.934 46.0675L165.928 46.0737Z" fill="#534741"/>
<path d="M169.017 46.0737C169.067 46.1661 169.128 46.2401 169.202 46.3079C169.276 46.3757 169.356 46.425 169.449 46.4681C169.541 46.5113 169.64 46.5298 169.732 46.5298C169.825 46.5298 169.924 46.5113 170.01 46.4805C170.096 46.4496 170.176 46.4065 170.244 46.351C170.312 46.2956 170.367 46.2278 170.404 46.1415C170.441 46.0552 170.466 45.9689 170.466 45.8703C170.466 45.7223 170.441 45.6114 170.386 45.5251C170.33 45.4388 170.263 45.371 170.176 45.3279C170.09 45.2847 169.991 45.2539 169.88 45.2416C169.769 45.2293 169.658 45.2231 169.535 45.2231V44.8101C169.64 44.8101 169.745 44.804 169.85 44.7855C169.954 44.767 170.047 44.7362 170.127 44.6869C170.207 44.6376 170.269 44.5759 170.324 44.4958C170.373 44.4157 170.398 44.3109 170.398 44.1876C170.398 44.0027 170.343 43.8548 170.238 43.75C170.127 43.6452 169.979 43.5898 169.788 43.5898C169.689 43.5898 169.597 43.6083 169.511 43.6452C169.424 43.6822 169.344 43.7315 169.283 43.7932C169.221 43.8548 169.172 43.9288 169.141 44.015C169.11 44.1013 169.098 44.1938 169.104 44.2986L168.537 44.2C168.586 43.8548 168.722 43.5898 168.944 43.3925C169.165 43.1953 169.461 43.0967 169.813 43.0967C169.961 43.0967 170.096 43.1152 170.238 43.1583C170.373 43.2015 170.497 43.2631 170.602 43.3432C170.706 43.4233 170.793 43.5281 170.854 43.6514C170.916 43.7747 170.953 43.9164 170.953 44.0767C170.953 44.2986 170.904 44.4835 170.805 44.6252C170.706 44.7732 170.546 44.8779 170.324 44.9457C170.552 45.0135 170.731 45.1183 170.854 45.2662C170.977 45.4142 171.039 45.6052 171.039 45.8518C171.039 46.0367 171.002 46.1969 170.934 46.3387C170.867 46.4805 170.774 46.6037 170.657 46.7023C170.54 46.801 170.404 46.8811 170.244 46.9304C170.084 46.9797 169.917 47.0105 169.745 47.0105C169.393 47.0105 169.11 46.9304 168.9 46.764C168.691 46.6037 168.531 46.3449 168.426 45.9997L168.931 45.7901C168.944 45.8888 168.974 45.9812 169.024 46.0675L169.017 46.0737Z" fill="#534741"/>
<path d="M172.111 46.0737C172.161 46.1661 172.222 46.2401 172.296 46.3079C172.37 46.3757 172.45 46.425 172.543 46.4681C172.635 46.5113 172.734 46.5298 172.826 46.5298C172.919 46.5298 173.017 46.5113 173.104 46.4805C173.19 46.4496 173.27 46.4065 173.338 46.351C173.406 46.2956 173.461 46.2278 173.498 46.1415C173.535 46.0552 173.56 45.9689 173.56 45.8703C173.56 45.7223 173.535 45.6114 173.48 45.5251C173.424 45.4388 173.356 45.371 173.27 45.3279C173.184 45.2847 173.085 45.2539 172.974 45.2416C172.863 45.2293 172.752 45.2231 172.629 45.2231V44.8101C172.734 44.8101 172.839 44.804 172.943 44.7855C173.048 44.767 173.141 44.7362 173.221 44.6869C173.301 44.6376 173.362 44.5759 173.418 44.4958C173.467 44.4157 173.492 44.3109 173.492 44.1876C173.492 44.0027 173.436 43.8548 173.332 43.75C173.221 43.6452 173.073 43.5898 172.882 43.5898C172.783 43.5898 172.691 43.6083 172.604 43.6452C172.518 43.6822 172.438 43.7315 172.376 43.7932C172.315 43.8548 172.265 43.9288 172.234 44.015C172.204 44.1013 172.191 44.1938 172.198 44.2986L171.63 44.2C171.68 43.8548 171.815 43.5898 172.037 43.3925C172.259 43.1953 172.555 43.0967 172.906 43.0967C173.054 43.0967 173.19 43.1152 173.332 43.1583C173.467 43.2015 173.59 43.2631 173.695 43.3432C173.8 43.4233 173.886 43.5281 173.948 43.6514C174.01 43.7747 174.047 43.9164 174.047 44.0767C174.047 44.2986 173.997 44.4835 173.899 44.6252C173.8 44.7732 173.64 44.8779 173.418 44.9457C173.646 45.0135 173.825 45.1183 173.948 45.2662C174.071 45.4142 174.133 45.6052 174.133 45.8518C174.133 46.0367 174.096 46.1969 174.028 46.3387C173.96 46.4805 173.868 46.6037 173.751 46.7023C173.634 46.801 173.498 46.8811 173.338 46.9304C173.177 46.9797 173.011 47.0105 172.839 47.0105C172.487 47.0105 172.204 46.9304 171.994 46.764C171.785 46.6037 171.624 46.3449 171.52 45.9997L172.025 45.7901C172.037 45.8888 172.068 45.9812 172.117 46.0675L172.111 46.0737Z" fill="#534741"/>
<path d="M164.872 37.6054C169.467 37.6054 173.192 33.8801 173.192 29.2846C173.192 24.6892 169.467 20.9639 164.872 20.9639C160.276 20.9639 156.551 24.6892 156.551 29.2846C156.551 33.8801 160.276 37.6054 164.872 37.6054Z" fill="#333333" stroke="#524740" stroke-width="1.05" stroke-linecap="round" stroke-linejoin="round"/>
<path d="M200.242 43.1523V43.6578H198.584V44.8227H199.996V45.3281H198.584V46.9737H197.98V43.1585H200.242V43.1523Z" fill="#534741"/>
<path d="M203.176 43.1523V43.6578H201.518V44.8227H202.93V45.3281H201.518V46.9737H200.914V43.1585H203.176V43.1523Z" fill="#534741"/>
<path d="M205.179 45.4635L205.358 45.2169C205.259 45.2847 205.154 45.334 205.037 45.371C204.92 45.408 204.809 45.4203 204.686 45.4203C204.526 45.4203 204.384 45.3957 204.248 45.3402C204.119 45.2847 204.002 45.2108 203.909 45.1122C203.817 45.0135 203.743 44.8964 203.693 44.7608C203.644 44.6252 203.613 44.4773 203.613 44.3232C203.613 44.1445 203.644 43.9781 203.712 43.8301C203.78 43.6822 203.872 43.5528 203.989 43.4418C204.106 43.3371 204.242 43.2508 204.396 43.1891C204.55 43.1275 204.723 43.0967 204.901 43.0967C205.08 43.0967 205.253 43.1275 205.407 43.183C205.561 43.2384 205.69 43.3247 205.801 43.4295C205.912 43.5343 205.999 43.6699 206.06 43.824C206.122 43.9781 206.153 44.1506 206.153 44.3479C206.153 44.5821 206.11 44.7917 206.029 44.9827C205.949 45.1676 205.844 45.3587 205.709 45.5498L204.717 46.9735H203.989L205.167 45.4696L205.179 45.4635ZM204.378 44.7917C204.501 44.9149 204.667 44.9827 204.889 44.9827C204.994 44.9827 205.093 44.9642 205.185 44.9334C205.271 44.8964 205.351 44.8533 205.413 44.7917C205.475 44.73 205.53 44.6561 205.561 44.5698C205.598 44.4835 205.616 44.391 205.616 44.2862C205.616 44.0767 205.555 43.9041 205.425 43.7685C205.296 43.6329 205.123 43.5713 204.901 43.5713C204.797 43.5713 204.704 43.5898 204.618 43.6206C204.532 43.6514 204.458 43.7007 204.396 43.7685C204.334 43.8301 204.285 43.9041 204.248 43.9904C204.211 44.0767 204.193 44.1753 204.193 44.2801C204.193 44.4958 204.254 44.6684 204.371 44.7978L204.378 44.7917Z" fill="#534741"/>
<path d="M209.115 45.3094C209.238 45.4696 209.294 45.6669 209.294 45.9011C209.294 46.0922 209.257 46.2586 209.183 46.3942C209.109 46.5298 209.01 46.6469 208.887 46.7393C208.764 46.8318 208.622 46.8996 208.468 46.9427C208.307 46.9859 208.147 47.0105 207.981 47.0105C207.814 47.0105 207.636 46.9859 207.475 46.9427C207.315 46.8996 207.18 46.8256 207.056 46.7332C206.939 46.6407 206.841 46.5236 206.773 46.388C206.705 46.2524 206.668 46.086 206.668 45.9011C206.668 45.6607 206.73 45.4573 206.853 45.3032C206.976 45.1491 207.149 45.0382 207.377 44.9642C207.186 44.8903 207.038 44.7793 206.939 44.6376C206.841 44.4896 206.791 44.3171 206.791 44.1137C206.791 43.9534 206.822 43.8055 206.89 43.6822C206.958 43.5589 207.044 43.448 207.149 43.3617C207.26 43.2754 207.383 43.2076 207.525 43.1645C207.666 43.1213 207.814 43.0967 207.968 43.0967C208.123 43.0967 208.27 43.1213 208.412 43.1645C208.554 43.2076 208.683 43.2754 208.788 43.3617C208.899 43.448 208.985 43.5528 209.047 43.6822C209.109 43.8116 209.146 43.9534 209.146 44.1137C209.146 44.3171 209.096 44.4958 208.998 44.6376C208.899 44.7855 208.757 44.8964 208.566 44.9642C208.794 45.032 208.967 45.1491 209.09 45.3032L209.115 45.3094ZM208.264 46.5174C208.351 46.4928 208.431 46.4496 208.492 46.388C208.56 46.3325 208.609 46.2586 208.646 46.1784C208.683 46.0983 208.702 45.9997 208.702 45.8888C208.702 45.6607 208.634 45.4881 208.492 45.3772C208.357 45.2662 208.184 45.2108 207.975 45.2108C207.765 45.2108 207.593 45.2662 207.457 45.3772C207.321 45.4881 207.247 45.6607 207.247 45.8888C207.247 46.0983 207.315 46.2647 207.451 46.3818C207.586 46.499 207.759 46.5606 207.975 46.5606C208.073 46.5606 208.172 46.5483 208.258 46.5174H208.264ZM207.531 43.6884C207.414 43.7932 207.358 43.9349 207.358 44.126C207.358 44.3294 207.414 44.4835 207.525 44.5944C207.636 44.7054 207.79 44.7608 207.987 44.7608C208.184 44.7608 208.332 44.7054 208.443 44.5944C208.554 44.4835 208.609 44.3294 208.609 44.126C208.609 43.9349 208.548 43.7932 208.431 43.6884C208.314 43.5836 208.16 43.5343 207.987 43.5343C207.802 43.5343 207.648 43.5836 207.531 43.6884Z" fill="#534741"/>
<path d="M211.358 45.4635L211.537 45.2169C211.439 45.2847 211.334 45.334 211.217 45.371C211.1 45.408 210.989 45.4203 210.865 45.4203C210.705 45.4203 210.563 45.3957 210.428 45.3402C210.298 45.2847 210.181 45.2108 210.089 45.1122C209.996 45.0135 209.922 44.8964 209.873 44.7608C209.824 44.6252 209.793 44.4773 209.793 44.3232C209.793 44.1445 209.824 43.9781 209.892 43.8301C209.959 43.6822 210.052 43.5528 210.169 43.4418C210.286 43.3371 210.422 43.2508 210.576 43.1891C210.73 43.1275 210.902 43.0967 211.081 43.0967C211.26 43.0967 211.432 43.1275 211.587 43.183C211.741 43.2384 211.87 43.3247 211.981 43.4295C212.092 43.5343 212.178 43.6699 212.24 43.824C212.302 43.9781 212.332 44.1506 212.332 44.3479C212.332 44.5821 212.289 44.7917 212.209 44.9827C212.129 45.1676 212.024 45.3587 211.889 45.5498L210.896 46.9735H210.169L211.346 45.4696L211.358 45.4635ZM210.557 44.7917C210.681 44.9149 210.847 44.9827 211.069 44.9827C211.174 44.9827 211.272 44.9642 211.365 44.9334C211.451 44.8964 211.531 44.8533 211.593 44.7917C211.654 44.73 211.71 44.6561 211.741 44.5698C211.778 44.4835 211.796 44.391 211.796 44.2862C211.796 44.0767 211.734 43.9041 211.605 43.7685C211.476 43.6329 211.303 43.5713 211.081 43.5713C210.976 43.5713 210.884 43.5898 210.798 43.6206C210.711 43.6514 210.637 43.7007 210.576 43.7685C210.514 43.8301 210.465 43.9041 210.428 43.9904C210.391 44.0767 210.372 44.1753 210.372 44.2801C210.372 44.4958 210.434 44.6684 210.551 44.7978L210.557 44.7917Z" fill="#534741"/>
<path d="M215.295 45.3094C215.418 45.4696 215.473 45.6669 215.473 45.9011C215.473 46.0922 215.436 46.2586 215.362 46.3942C215.288 46.5298 215.19 46.6469 215.067 46.7393C214.943 46.8318 214.801 46.8996 214.647 46.9427C214.487 46.9859 214.327 47.0105 214.16 47.0105C213.994 47.0105 213.815 46.9859 213.655 46.9427C213.495 46.8996 213.359 46.8256 213.236 46.7332C213.119 46.6407 213.02 46.5236 212.952 46.388C212.885 46.2524 212.848 46.086 212.848 45.9011C212.848 45.6607 212.909 45.4573 213.033 45.3032C213.156 45.1491 213.328 45.0382 213.556 44.9642C213.365 44.8903 213.217 44.7793 213.119 44.6376C213.02 44.4896 212.971 44.3171 212.971 44.1137C212.971 43.9534 213.002 43.8055 213.07 43.6822C213.137 43.5589 213.224 43.448 213.328 43.3617C213.439 43.2754 213.563 43.2076 213.704 43.1645C213.846 43.1213 213.994 43.0967 214.148 43.0967C214.302 43.0967 214.45 43.1213 214.592 43.1645C214.734 43.2076 214.863 43.2754 214.968 43.3617C215.079 43.448 215.165 43.5528 215.227 43.6822C215.288 43.8116 215.325 43.9534 215.325 44.1137C215.325 44.3171 215.276 44.4958 215.177 44.6376C215.079 44.7855 214.937 44.8964 214.746 44.9642C214.974 45.032 215.147 45.1491 215.27 45.3032L215.295 45.3094ZM214.444 46.5174C214.53 46.4928 214.61 46.4496 214.672 46.388C214.74 46.3325 214.789 46.2586 214.826 46.1784C214.863 46.0983 214.882 45.9997 214.882 45.8888C214.882 45.6607 214.814 45.4881 214.672 45.3772C214.536 45.2662 214.364 45.2108 214.154 45.2108C213.945 45.2108 213.772 45.2662 213.637 45.3772C213.501 45.4881 213.427 45.6607 213.427 45.8888C213.427 46.0983 213.495 46.2647 213.63 46.3818C213.766 46.499 213.939 46.5606 214.154 46.5606C214.253 46.5606 214.352 46.5483 214.438 46.5174H214.444ZM213.711 43.6884C213.593 43.7932 213.538 43.9349 213.538 44.126C213.538 44.3294 213.593 44.4835 213.704 44.5944C213.815 44.7054 213.969 44.7608 214.167 44.7608C214.364 44.7608 214.512 44.7054 214.623 44.5944C214.734 44.4835 214.789 44.3294 214.789 44.126C214.789 43.9349 214.728 43.7932 214.61 43.6884C214.493 43.5836 214.339 43.5343 214.167 43.5343C213.982 43.5343 213.828 43.5836 213.711 43.6884Z" fill="#534741"/>
<path d="M206.68 37.6054C211.276 37.6054 215.001 33.8801 215.001 29.2846C215.001 24.6892 211.276 20.9639 206.68 20.9639C202.085 20.9639 198.359 24.6892 198.359 29.2846C198.359 33.8801 202.085 37.6054 206.68 37.6054Z" fill="#FF9898" stroke="#524740" stroke-width="1.05" stroke-miterlimit="10"/>
<path d="M13.6953 159.52H238.356" stroke="#847974" stroke-width="0.29" stroke-miterlimit="10"/>
<path d="M13.6953 164.303H238.356" stroke="#847974" stroke-width="0.29" stroke-miterlimit="10"/>
<path opacity="0.56" d="M13.6953 170.972H238.356" stroke="#847974" stroke-width="0.29" stroke-miterlimit="10"/>
<path opacity="0.56" d="M13.6953 174.202H238.356" stroke="#847974" stroke-width="0.29" stroke-miterlimit="10"/>
<path opacity="0.56" d="M13.6953 202.485H238.356" stroke="#847974" stroke-width="0.29" stroke-miterlimit="10"/>
<path opacity="0.56" d="M13.6953 198.646H238.356" stroke="#847974" stroke-width="0.29" stroke-miterlimit="10"/>
<path opacity="0.56" d="M13.6953 209.759H238.356" stroke="#847974" stroke-width="0.29" stroke-miterlimit="10"/>
<path opacity="0.56" d="M13.6953 200.667H238.356" stroke="#847974" stroke-width="0.29" stroke-miterlimit="10"/>
<path d="M13.6953 183.496H238.356" stroke="#847974" stroke-width="0.29" stroke-miterlimit="10"/>
<path d="M13.6953 212.994H238.356" stroke="#847974" stroke-width="0.29" stroke-miterlimit="10"/>
<path d="M47.4219 210.363L47.4465 208.575L50.7872 208.692L50.6516 210.258L47.4219 210.363Z" fill="#F0D246" stroke="#524740" stroke-width="0.48" stroke-linecap="round" stroke-linejoin="round"/>
<path d="M44.8982 210.363L44.8797 208.575L41.5391 208.692L41.6685 210.258L44.8982 210.363Z" fill="#F0D246" stroke="#524740" stroke-width="0.48" stroke-linecap="round" stroke-linejoin="round"/>
<path d="M37.582 195.237C37.582 195.237 38.975 202.917 39.9735 206.202C40.9781 209.481 41.2432 209.099 42.4512 209.21C43.6593 209.321 45.2495 209.21 45.2495 208.224C45.2495 207.238 44.4605 200.458 45.8843 200.458H46.3096C47.7334 200.458 46.9444 207.238 46.9444 208.224C46.9444 209.21 48.5285 209.315 49.7427 209.21C50.9569 209.105 51.2219 209.481 52.2204 206.202C53.2189 202.923 54.6304 195.324 54.6304 195.324L37.582 195.243V195.237Z" fill="#333333" stroke="#524740" stroke-width="0.47" stroke-linecap="round" stroke-linejoin="round"/>
<path d="M47.7487 209.858H50.5901C51.3174 209.858 51.9091 210.45 51.9091 211.177V212.879H46.4297V211.177C46.4297 210.45 47.0214 209.858 47.7487 209.858Z" fill="#333333" stroke="#524740" stroke-width="0.49" stroke-linecap="round" stroke-linejoin="round"/>
<path d="M41.6832 209.858H44.8759C45.5046 209.858 46.0224 210.37 46.0224 211.005V212.879H40.543V211.005C40.543 210.376 41.0546 209.858 41.6894 209.858H41.6832Z" fill="#333333" stroke="#524740" stroke-width="0.49" stroke-linecap="round" stroke-linejoin="round"/>
<path d="M34.2344 195.811C34.2344 195.811 33.9879 196.224 33.2914 196.859C32.5949 197.494 31.3869 198.277 31.9786 199.096C32.4408 199.731 33.1003 198.905 33.1003 198.905C33.1003 198.905 32.1573 201.198 33.5626 201.987C35.3439 202.992 37.5935 201.956 37.5134 199.546C37.4333 197.136 37.4518 195.99 36.5334 195.768C35.6212 195.54 34.444 195.343 34.2406 195.811H34.2344Z" fill="white" stroke="#524740" stroke-width="0.43" stroke-linecap="round" stroke-linejoin="round"/>
<path d="M38.5765 182.51C38.5765 182.51 35.8892 185.117 34.1326 190.22C32.376 195.324 32.8629 196.532 34.3607 197.043C35.8584 197.555 37.6458 198.03 37.7136 196.353C37.7814 194.677 38.3916 189.351 39.384 187.145C40.6845 184.242 41.0173 182.867 40.0249 182.202C39.5072 181.85 38.9586 182.159 38.5765 182.516V182.51Z" fill="#F0D246" stroke="#524740" stroke-width="0.48" stroke-linecap="round" stroke-linejoin="round"/>
<path d="M57.9881 195.811C57.9881 195.811 58.2347 196.224 58.9311 196.859C59.6276 197.494 60.8357 198.277 60.244 199.096C59.7817 199.731 59.1222 198.905 59.1222 198.905C59.1222 198.905 60.0652 201.198 58.6599 201.987C56.8787 202.992 54.629 201.956 54.7091 199.546C54.7892 197.136 54.7707 195.99 55.6891 195.768C56.6013 195.54 57.7786 195.343 57.982 195.811H57.9881Z" fill="white" stroke="#524740" stroke-width="0.43" stroke-linecap="round" stroke-linejoin="round"/>
<path d="M53.6472 182.51C53.6472 182.51 56.3345 185.117 58.0911 190.22C59.8477 195.324 59.3608 196.532 57.8631 197.043C56.3653 197.555 54.5779 198.03 54.5101 196.353C54.4423 194.677 53.8321 189.351 52.8398 187.145C51.5393 184.242 51.2064 182.867 52.1988 182.202C52.7165 181.85 53.2651 182.159 53.6472 182.516V182.51Z" fill="#F0D246" stroke="#524740" stroke-width="0.48" stroke-linecap="round" stroke-linejoin="round"/>
<path d="M55.1092 193.968C55.103 198.695 50.9796 198.683 46.0056 198.603C41.0317 198.522 37.0993 198.837 37.1055 193.684C37.1116 187.829 41.3645 179.477 46.3384 179.557C51.3124 179.637 55.1215 188.112 55.1092 193.968Z" fill="white" stroke="#524740" stroke-width="0.46" stroke-miterlimit="10"/>
<path d="M41.7701 191.279L41.2031 191.27L41.194 191.837L41.761 191.846L41.7701 191.279Z" fill="#E9AA30"/>
<path d="M44.1112 187.362L44.0742 189.742L45.8925 190.598L47.7415 189.803L47.7785 187.418L45.9603 186.567L44.1112 187.362Z" fill="#2F322E"/>
<path d="M42.0259 191.646V192.09L42.4327 192.096C42.5744 192.096 42.6854 192.189 42.6854 192.324C42.6854 192.485 42.5683 192.608 42.4265 192.608H42.0136L42.0197 192.096H41.4527L41.4219 194.112H41.4835L42.5313 194.13C42.9504 194.137 43.2956 193.865 43.3017 193.446C43.3017 193.157 43.1168 192.935 42.8641 192.818C42.8641 192.805 42.8641 192.805 42.8641 192.787C43.0614 192.707 43.1908 192.546 43.197 192.3C43.2031 191.887 42.8641 191.659 42.445 191.653H42.0321L42.0259 191.646ZM42.4697 193.619H41.9951L42.0012 193.039H42.4142C42.6053 193.052 42.7902 193.181 42.7902 193.366C42.7902 193.551 42.6114 193.619 42.4697 193.613V193.619Z" fill="#2F322E"/>
<path d="M44.815 191.69H44.4329L44.3034 191.684L43.3789 194.137L44.0138 194.149L44.1925 193.582L44.9876 193.594L45.1478 194.167L45.7827 194.18L44.9383 191.696H44.8089L44.815 191.69ZM44.3528 193.077L44.6116 192.257L44.8458 193.083H44.3528V193.077Z" fill="#2F322E"/>
<path d="M47.6005 194.081H47.0951L46.6205 192.768H46.5897L46.602 192.928C46.639 193.347 46.6513 193.772 46.6452 194.192H46.0781L46.1151 191.714H46.2445L46.6267 191.72H46.7561L47.3601 193.39L48.0196 191.745H48.1491L48.5312 191.751H48.6606L48.6237 194.222H48.0566V194.216C48.0628 193.797 48.0936 193.372 48.1429 192.953L48.1614 192.799H48.1306L47.619 194.081H47.6005Z" fill="#2F322E"/>
<path d="M50.0853 191.775H49.7278L49.1854 191.763L49.1484 194.234H49.7155L49.7278 193.427C49.734 193.421 49.7401 193.415 49.7463 193.408C50.2579 193.47 50.9913 193.575 51.0098 192.589C51.0222 191.997 50.5476 191.781 50.0853 191.775ZM49.734 192.983L49.7463 192.225H49.9743C50.2086 192.231 50.5044 192.299 50.4983 192.589C50.4921 193.113 50.0052 193.026 49.734 192.983Z" fill="#2F322E"/>
<path d="M45.9348 188.152L47.4819 187.481L45.9533 186.766L44.4062 187.431L45.9348 188.152Z" fill="#E9AA30"/>
<path d="M46.023 188.313L45.9922 190.359L47.5577 189.681L47.5947 187.635L46.023 188.313Z" fill="white"/>
<path d="M45.8396 188.313L44.2925 187.586L44.2617 189.632L45.8088 190.36L45.8396 188.313Z" fill="white"/>
<path d="M59.6254 164.32H32.5859V183.495H59.6254V164.32Z" fill="white" stroke="#524740" stroke-width="0.48" stroke-linecap="round" stroke-linejoin="round"/>
<path d="M56.1245 159.544H36.0868L32.5859 164.321H59.6254L56.1245 159.544Z" fill="#F0D246" stroke="#524740" stroke-width="0.48" stroke-linecap="round" stroke-linejoin="round"/>
<path d="M48.1202 174.404C47.7257 174.897 47.0786 175.329 46.0554 175.316C45.0877 175.298 44.4775 174.934 44.1016 174.491" stroke="#524740" stroke-width="0.48" stroke-linecap="round" stroke-linejoin="round"/>
<path d="M52.0369 174.255C52.9526 174.255 53.6949 173.513 53.6949 172.597C53.6949 171.682 52.9526 170.939 52.0369 170.939C51.1212 170.939 50.3789 171.682 50.3789 172.597C50.3789 173.513 51.1212 174.255 52.0369 174.255Z" fill="#524740"/>
<path d="M40.1736 174.255C41.0893 174.255 41.8316 173.513 41.8316 172.597C41.8316 171.682 41.0893 170.939 40.1736 170.939C39.2579 170.939 38.5156 171.682 38.5156 172.597C38.5156 173.513 39.2579 174.255 40.1736 174.255Z" fill="#524740"/>
<path d="M153.756 210.363L153.737 208.575L150.391 208.692L150.526 210.258L153.756 210.363Z" fill="#F0D246" stroke="#524740" stroke-width="0.48" stroke-linecap="round" stroke-linejoin="round"/>
<path d="M156.277 210.363L156.302 208.575L159.643 208.692L159.507 210.258L156.277 210.363Z" fill="#F0D246" stroke="#524740" stroke-width="0.48" stroke-linecap="round" stroke-linejoin="round"/>
<path d="M163.599 195.237C163.599 195.237 162.206 202.917 161.208 206.202C160.209 209.487 159.938 209.099 158.73 209.21C157.516 209.321 155.932 209.21 155.932 208.224C155.932 207.238 156.721 200.458 155.297 200.458H154.872C153.448 200.458 154.237 207.238 154.237 208.224C154.237 209.21 152.653 209.315 151.438 209.21C150.224 209.105 149.959 209.481 148.961 206.202C147.962 202.923 146.551 195.324 146.551 195.324L163.599 195.243V195.237Z" fill="#333333" stroke="#524740" stroke-width="0.47" stroke-linecap="round" stroke-linejoin="round"/>
<path d="M154.746 212.871H149.267V211.17C149.267 210.443 149.858 209.851 150.586 209.851H153.427C154.154 209.851 154.746 210.443 154.746 211.17V212.871Z" fill="#333333" stroke="#524740" stroke-width="0.49" stroke-linecap="round" stroke-linejoin="round"/>
<path d="M160.642 212.871H155.163V210.997C155.163 210.369 155.674 209.851 156.309 209.851H159.502C160.131 209.851 160.648 210.363 160.648 210.997V212.871H160.642Z" fill="#333333" stroke="#524740" stroke-width="0.49" stroke-linecap="round" stroke-linejoin="round"/>
<path d="M146.074 193.968C146.08 198.695 150.204 198.683 155.178 198.603C160.152 198.522 164.084 198.837 164.078 193.684C164.072 187.829 159.819 179.477 154.845 179.557C149.871 179.637 146.062 188.112 146.074 193.968Z" fill="white" stroke="#524740" stroke-width="0.46" stroke-miterlimit="10"/>
<path d="M166.945 195.811C166.945 195.811 167.192 196.224 167.888 196.859C168.585 197.494 169.793 198.277 169.201 199.096C168.739 199.731 168.079 198.905 168.079 198.905C168.079 198.905 169.022 201.198 167.617 201.987C165.836 202.992 163.586 201.956 163.666 199.546C163.746 197.136 163.728 195.99 164.646 195.768C165.558 195.54 166.736 195.343 166.939 195.811H166.945Z" fill="white" stroke="#524740" stroke-width="0.43" stroke-linecap="round" stroke-linejoin="round"/>
<path d="M162.6 182.51C162.6 182.51 165.288 185.117 167.044 190.22C168.801 195.324 168.314 196.532 166.816 197.043C165.318 197.555 163.531 198.03 163.463 196.353C163.395 194.677 162.785 189.351 161.793 187.145C160.492 184.242 160.16 182.867 161.152 182.202C161.67 181.85 162.218 182.159 162.6 182.516V182.51Z" fill="#F0D246" stroke="#524740" stroke-width="0.48" stroke-linecap="round" stroke-linejoin="round"/>
<path d="M143.203 195.811C143.203 195.811 142.957 196.224 142.26 196.859C141.564 197.494 140.356 198.277 140.947 199.096C141.41 199.731 142.069 198.905 142.069 198.905C142.069 198.905 141.126 201.198 142.531 201.987C144.313 202.992 146.562 201.956 146.482 199.546C146.402 197.136 146.421 195.99 145.502 195.768C144.59 195.54 143.413 195.343 143.209 195.811H143.203Z" fill="white" stroke="#524740" stroke-width="0.43" stroke-linecap="round" stroke-linejoin="round"/>
<path d="M147.545 182.51C147.545 182.51 144.858 185.117 143.101 190.22C141.345 195.324 141.832 196.532 143.329 197.043C144.827 197.555 146.615 198.03 146.682 196.353C146.75 194.677 147.36 189.351 148.353 187.145C149.653 184.242 149.986 182.867 148.994 182.202C148.476 181.85 147.927 182.159 147.545 182.516V182.51Z" fill="#F0D246" stroke="#524740" stroke-width="0.48" stroke-linecap="round" stroke-linejoin="round"/>
<path d="M155.159 188.316L155.196 190.362L153.625 189.684L153.594 187.638L155.159 188.316Z" fill="white"/>
<path d="M141.55 183.495H168.59V164.32H141.55V183.495Z" fill="white" stroke="#524740" stroke-width="0.48" stroke-linecap="round" stroke-linejoin="round"/>
<path d="M145.054 159.544H165.085L168.592 164.321H141.547L145.054 159.544Z" fill="#F0D246" stroke="#524740" stroke-width="0.48" stroke-linecap="round" stroke-linejoin="round"/>
<path d="M99.75 210.362L99.7685 208.574L103.109 208.691L102.98 210.257L99.75 210.362Z" fill="#F0D246" stroke="#524740" stroke-width="0.48" stroke-linecap="round" stroke-linejoin="round"/>
<path d="M94.8711 194.967C94.8711 194.967 97.2687 202.677 97.8111 206.314C98.3227 209.71 99.8512 209.1 101.164 209.204C102.471 209.315 104.184 209.204 104.184 208.218C104.184 207.232 106.514 196.982 105.787 194.825C105.787 194.825 98.1131 192.834 95.0252 195.312" fill="#333333"/>
<path d="M94.8711 194.967C94.8711 194.967 97.2687 202.677 97.8111 206.314C98.3227 209.71 99.8512 209.1 101.164 209.204C102.471 209.315 104.184 209.204 104.184 208.218C104.184 207.232 106.514 196.982 105.787 194.825C105.787 194.825 98.1131 192.834 95.0252 195.312" stroke="#524740" stroke-width="0.47" stroke-linecap="round" stroke-linejoin="round"/>
<path d="M97.9792 209.858H103.046C103.403 209.858 103.699 210.148 103.699 210.512V212.879H96.6602V211.177C96.6602 210.45 97.2519 209.858 97.9792 209.858Z" fill="#333333" stroke="#524740" stroke-width="0.49" stroke-linecap="round" stroke-linejoin="round"/>
<path d="M107.73 193.937C107.712 198.664 104.439 198.664 100.494 198.603C96.5496 198.541 93.4247 198.868 93.4494 193.709C93.474 187.853 96.8763 179.489 100.815 179.551C104.753 179.613 107.755 188.081 107.724 193.937H107.73Z" fill="white" stroke="#524740" stroke-width="0.48" stroke-linecap="round" stroke-linejoin="round"/>
<path d="M103.228 196.1L103.628 199.372C103.628 199.372 104.023 201.819 102.476 202.269C100.51 202.842 98.562 201.32 99.1845 198.99C99.807 196.66 100.054 195.545 100.997 195.532C101.94 195.52 103.129 195.594 103.222 196.1H103.228Z" fill="white" stroke="#524740" stroke-width="0.48" stroke-linecap="round" stroke-linejoin="round"/>
<path d="M101.567 182.226C101.567 182.226 103.589 185.375 104.137 190.744C104.686 196.112 103.934 197.179 102.362 197.333C100.791 197.487 99.2682 197.579 99.2559 195.897C99.2435 193.992 99.2867 188.827 99.0463 186.417C98.7443 183.385 99.1141 182.01 100.23 181.591C100.815 181.369 101.278 181.794 101.567 182.226Z" fill="#F0D246" stroke="#524740" stroke-width="0.48" stroke-linecap="round" stroke-linejoin="round"/>
<path d="M114.106 164.321H87.0664V183.496H114.106V164.321Z" fill="white" stroke="#524740" stroke-width="0.48" stroke-linecap="round" stroke-linejoin="round"/>
<mask id="mask0_517_2259" style="mask-type:luminance" maskUnits="userSpaceOnUse" x="93" y="179" width="15" height="20">
<path d="M107.875 194.093C107.856 198.821 104.583 198.821 100.639 198.759C96.6942 198.697 93.5692 199.024 93.5939 193.865C93.6185 188.01 97.0208 179.646 100.959 179.707C104.904 179.769 107.899 188.238 107.869 194.093H107.875Z" fill="white"/>
</mask>
<g mask="url(#mask0_517_2259)">
<path d="M94.0946 187.44L93.7617 189.807L94.2486 190.713L94.9636 189.98L95.3026 187.613L94.8157 186.707L94.0946 187.44Z" fill="#2F322E"/>
<path d="M93.741 191.768L93.6177 191.749H93.5746L92.9336 194.153L93.1432 194.184L93.2788 193.623L93.5438 193.66L93.5191 194.233L93.7287 194.264L93.7842 191.768H93.741ZM93.402 193.13L93.5992 192.322L93.5623 193.154L93.402 193.13Z" fill="#2F322E"/>
<path d="M94.338 194.226L94.1716 194.201L94.1901 192.894H94.1778L94.1593 193.049C94.1162 193.468 94.0607 193.887 94.0052 194.306L93.8203 194.281L94.1655 191.828H94.2086L94.3319 191.853H94.375L94.3504 193.535L94.7941 191.921H94.8373L94.9606 191.945H95.0037L94.6585 194.404L94.4736 194.38C94.5353 193.961 94.5969 193.542 94.6709 193.129L94.6955 192.981H94.6894L94.3442 194.238L94.338 194.226Z" fill="#2F322E"/>
<path d="M95.473 192.014L95.3559 191.995L95.1772 191.971L94.832 194.424L95.0169 194.448L95.134 193.635C95.134 193.635 95.134 193.629 95.1402 193.623C95.3005 193.696 95.5285 193.826 95.6703 192.846C95.7566 192.254 95.6271 192.032 95.473 192.008V192.014ZM95.1957 193.203L95.3005 192.451L95.3744 192.464C95.4546 192.476 95.5408 192.55 95.4977 192.834C95.4237 193.351 95.2758 193.259 95.1895 193.203H95.1957Z" fill="#2F322E"/>
<path d="M94.5927 188.28L95.1967 187.663L94.7837 186.905L94.1797 187.522L94.5927 188.28Z" fill="#E9AA30"/>
<path d="M94.5983 188.445L94.3086 190.479L94.9188 189.85L95.2085 187.822L94.5983 188.445Z" fill="white"/>
<path d="M94.5347 188.439L94.1217 187.669L93.832 189.697L94.245 190.467L94.5347 188.439Z" fill="white"/>
</g>
<path d="M207.088 210.363L207.063 208.575L203.723 208.692L203.858 210.258L207.088 210.363Z" fill="#F0D246" stroke="#524740" stroke-width="0.48" stroke-linecap="round" stroke-linejoin="round"/>
<path d="M211.963 194.968C211.963 194.968 209.565 202.678 209.023 206.315C208.511 209.711 206.982 209.101 205.67 209.205C204.363 209.316 202.649 209.205 202.649 208.219C202.649 207.233 200.32 196.983 201.047 194.826C201.047 194.826 208.721 192.835 211.808 195.313" fill="#333333"/>
<path d="M211.963 194.968C211.963 194.968 209.565 202.678 209.023 206.315C208.511 209.711 206.982 209.101 205.67 209.205C204.363 209.316 202.649 209.205 202.649 208.219C202.649 207.233 200.32 196.983 201.047 194.826C201.047 194.826 208.721 192.835 211.808 195.313" stroke="#524740" stroke-width="0.47" stroke-linecap="round" stroke-linejoin="round"/>
<path d="M210.176 212.872H203.137V210.505C203.137 210.148 203.427 209.852 203.79 209.852H208.857C209.584 209.852 210.176 210.444 210.176 211.171V212.872Z" fill="#333333" stroke="#524740" stroke-width="0.49" stroke-linecap="round" stroke-linejoin="round"/>
<path d="M199.113 193.937C199.132 198.664 202.405 198.664 206.349 198.603C210.294 198.541 213.419 198.868 213.394 193.709C213.37 187.853 209.967 179.489 206.029 179.551C202.084 179.613 199.089 188.081 199.119 193.937H199.113Z" fill="white" stroke="#524740" stroke-width="0.48" stroke-linecap="round" stroke-linejoin="round"/>
<path d="M203.602 196.1L203.201 199.373C203.201 199.373 202.807 201.82 204.354 202.27C206.32 202.843 208.268 201.321 207.645 198.991C207.023 196.661 206.776 195.546 205.833 195.533C204.89 195.521 203.701 195.595 203.608 196.1H203.602Z" fill="white" stroke="#524740" stroke-width="0.48" stroke-linecap="round" stroke-linejoin="round"/>
<path d="M205.264 182.227C205.264 182.227 203.243 185.376 202.694 190.745C202.145 196.113 202.897 197.18 204.469 197.334C206.041 197.488 207.563 197.58 207.576 195.898C207.588 193.993 207.545 188.828 207.785 186.418C208.087 183.386 207.717 182.011 206.602 181.592C206.016 181.37 205.554 181.795 205.264 182.227Z" fill="#F0D246" stroke="#524740" stroke-width="0.48" stroke-linecap="round" stroke-linejoin="round"/>
<path d="M192.73 183.497H219.77V164.322H192.73V183.497Z" fill="white" stroke="#524740" stroke-width="0.48" stroke-linecap="round" stroke-linejoin="round"/>
<mask id="mask1_517_2259" style="mask-type:luminance" maskUnits="userSpaceOnUse" x="198" y="179" width="16" height="20">
<path d="M198.953 194.093C198.972 198.821 202.244 198.821 206.189 198.759C210.134 198.697 213.259 199.024 213.234 193.865C213.209 188.01 209.807 179.646 205.869 179.707C201.924 179.769 198.928 188.238 198.959 194.093H198.953Z" fill="white"/>
</mask>
<g mask="url(#mask1_517_2259)">
<path d="M211.235 192.035L211.007 192.066L210.945 191.499L211.173 191.468L211.235 192.035Z" fill="#E9AA30"/>
<path d="M211.641 187.444L211.906 189.804L212.725 190.526L213.36 189.607L213.101 187.247L212.282 186.525L211.641 187.444Z" fill="#2F322E"/>
<path d="M211.319 191.833L211.369 192.27L211.535 192.246C211.591 192.239 211.646 192.32 211.658 192.449C211.677 192.603 211.646 192.739 211.591 192.745L211.424 192.769L211.369 192.27L211.141 192.301L211.363 194.31H211.387L211.8 194.249C211.967 194.224 212.071 193.934 212.028 193.515C211.997 193.232 211.893 193.022 211.782 192.924C211.782 192.911 211.782 192.911 211.782 192.893C211.849 192.794 211.88 192.634 211.856 192.387C211.812 191.981 211.652 191.777 211.486 191.802L211.319 191.826V191.833ZM211.726 193.749L211.535 193.774L211.473 193.207L211.64 193.182C211.714 193.17 211.806 193.287 211.825 193.478C211.843 193.669 211.782 193.737 211.726 193.743V193.749Z" fill="#2F322E"/>
<path d="M212.424 191.684L212.27 191.703H212.221L212.141 194.205L212.393 194.168V193.595L212.714 193.552L212.843 194.106L213.096 194.07L212.473 191.672H212.424V191.684ZM212.406 193.09V192.257L212.603 193.059L212.406 193.083V193.09Z" fill="#2F322E"/>
<path d="M213.804 193.854L213.601 193.878L213.262 192.621H213.25L213.274 192.781C213.336 193.194 213.391 193.613 213.441 194.033L213.213 194.063L212.941 191.616H212.991L213.145 191.592H213.194L213.626 193.194L213.693 191.518H213.743L213.897 191.493H213.946L214.217 193.934L213.989 193.965C213.94 193.546 213.903 193.127 213.878 192.707L213.866 192.553H213.854L213.798 193.86L213.804 193.854Z" fill="#2F322E"/>
<path d="M212.456 188.096L212.992 187.332L212.302 186.728L211.766 187.498L212.456 188.096Z" fill="#E9AA30"/>
<path d="M212.508 188.25L212.73 190.278L213.272 189.501L213.05 187.474L212.508 188.25Z" fill="white"/>
<path d="M212.431 188.263L211.734 187.652L211.956 189.68L212.659 190.29L212.431 188.263Z" fill="white"/>
</g>
<path d="M222.486 102.543L219.367 104.404L222.776 105.378" fill="white"/>
<path d="M222.486 102.543L219.367 104.404L222.776 105.378" stroke="#524740" stroke-width="0.5" stroke-linecap="round" stroke-linejoin="round"/>
<path d="M208.064 102.543L210.98 104.404L207.793 105.378" fill="white"/>
<path d="M208.064 102.543L210.98 104.404L207.793 105.378" stroke="#524740" stroke-width="0.5" stroke-linecap="round" stroke-linejoin="round"/>
<path d="M217.977 105.422C217.977 105.909 217.416 107.795 215.234 107.788C212.942 107.788 212.504 105.896 212.504 105.403C212.504 104.91 213.73 104.855 215.241 104.861C216.751 104.867 217.977 104.935 217.977 105.422Z" fill="#FF9898" stroke="#524740" stroke-width="0.51" stroke-linecap="round" stroke-linejoin="round"/>
<path d="M87.2671 105.724C87.2671 106.254 86.6569 108.312 84.2778 108.306C81.7754 108.3 81.3008 106.241 81.3008 105.711C81.3008 105.181 82.6383 105.113 84.2839 105.12C85.9296 105.12 87.2671 105.2 87.2609 105.73L87.2671 105.724Z" fill="#FF9898" stroke="#524740" stroke-width="0.56" stroke-linecap="round" stroke-linejoin="round"/>
<path d="M180.345 107.013C181.39 107.013 182.238 106.378 182.238 105.595C182.238 104.812 181.39 104.178 180.345 104.178C179.3 104.178 178.453 104.812 178.453 105.595C178.453 106.378 179.3 107.013 180.345 107.013Z" fill="#FF9898"/>
<path d="M163.275 107.013C164.32 107.013 165.167 106.378 165.167 105.595C165.167 104.812 164.32 104.178 163.275 104.178C162.23 104.178 161.383 104.812 161.383 105.595C161.383 106.378 162.23 107.013 163.275 107.013Z" fill="#FF9898"/>
<path d="M177.937 105.891C178.914 105.891 179.706 105.099 179.706 104.122C179.706 103.145 178.914 102.354 177.937 102.354C176.96 102.354 176.168 103.145 176.168 104.122C176.168 105.099 176.96 105.891 177.937 105.891Z" fill="#524740"/>
<path d="M165.265 105.891C166.242 105.891 167.034 105.099 167.034 104.122C167.034 103.145 166.242 102.354 165.265 102.354C164.288 102.354 163.496 103.145 163.496 104.122C163.496 105.099 164.288 105.891 165.265 105.891Z" fill="#524740"/>
</svg>
