<svg width="504" height="450" viewBox="0 0 504 450" fill="none" xmlns="http://www.w3.org/2000/svg">
<path d="M488.499 285.153H15.9177C8.1945 285.153 1.93359 291.414 1.93359 299.137V434.593C1.93359 442.316 8.1945 448.577 15.9177 448.577H488.499C496.222 448.577 502.483 442.316 502.483 434.593V299.137C502.483 291.414 496.222 285.153 488.499 285.153Z" fill="white" stroke="#524740" stroke-width="2" stroke-linecap="round" stroke-linejoin="round"/>
<path d="M488.499 15.4912H15.9177C8.1945 15.4912 1.93359 21.7521 1.93359 29.4753V97.6046C1.93359 105.328 8.1945 111.589 15.9177 111.589H488.499C496.222 111.589 502.483 105.328 502.483 97.6046V29.4753C502.483 21.7521 496.222 15.4912 488.499 15.4912Z" fill="white" stroke="#524740" stroke-width="2" stroke-linecap="round" stroke-linejoin="round"/>
<path d="M489.019 143.103H16.4372C8.714 143.103 2.45312 149.363 2.45312 157.087V243.326C2.45312 251.049 8.714 257.31 16.4372 257.31H489.019C496.742 257.31 503.003 251.049 503.003 243.326V157.087C503.003 149.363 496.742 143.103 489.019 143.103Z" fill="white" stroke="#524740" stroke-width="2" stroke-linecap="round" stroke-linejoin="round"/>
<path d="M96.204 1H25.5917C17.9298 1 11.7188 7.21112 11.7188 14.8729V16.3059C11.7188 23.9677 17.9298 30.1789 25.5917 30.1789H96.204C103.866 30.1789 110.077 23.9677 110.077 16.3059V14.8729C110.077 7.21112 103.866 1 96.204 1Z" fill="#FDC335" stroke="#534741" stroke-width="2" stroke-miterlimit="10"/>
<path d="M117.143 128.401H25.5917C17.9298 128.401 11.7188 134.612 11.7188 142.274V143.707C11.7188 151.369 17.9298 157.58 25.5917 157.58H117.143C124.805 157.58 131.016 151.369 131.016 143.707V142.274C131.016 134.612 124.805 128.401 117.143 128.401Z" fill="#FDC335" stroke="#534741" stroke-width="2" stroke-miterlimit="10"/>
<path d="M122.715 270.984H25.5917C17.9298 270.984 11.7188 277.195 11.7188 284.857V286.29C11.7188 293.952 17.9298 300.163 25.5917 300.163H122.715C130.376 300.163 136.587 293.952 136.587 286.29V284.857C136.587 277.195 130.376 270.984 122.715 270.984Z" fill="#FDC335" stroke="#534741" stroke-width="2" stroke-miterlimit="10"/>
<path d="M31.2955 15.6869H31.3326L34.6556 11.3262H36.8669L33.7909 15.2793L37.4105 21.3819H35.1992L32.605 16.8729L31.2832 18.5529V21.3819H29.2695V11.3262H31.2832V15.6869H31.2955Z" fill="#534741"/>
<path d="M39.7079 21.3078C39.2508 21.1225 38.8432 20.8631 38.5096 20.5296C38.1761 20.196 37.9043 19.776 37.7066 19.2819C37.509 18.7877 37.4102 18.2318 37.4102 17.6018C37.4102 16.9718 37.509 16.4282 37.7066 15.9341C37.9043 15.4399 38.1761 15.0199 38.4973 14.674C38.8308 14.3281 39.2014 14.0563 39.6338 13.871C40.0662 13.6857 40.4985 13.5869 40.9556 13.5869C41.4868 13.5869 41.9439 13.6734 42.3392 13.8587C42.7345 14.044 43.068 14.2911 43.3275 14.6246C43.5869 14.9581 43.7969 15.3411 43.9328 15.7858C44.0687 16.2306 44.1428 16.7123 44.1428 17.2435C44.1428 17.4288 44.1428 17.6018 44.1181 17.7624C44.0934 17.9353 44.081 18.0589 44.044 18.1453H39.362C39.4485 18.7754 39.6709 19.2448 40.0538 19.566C40.4368 19.8872 40.9062 20.0478 41.4745 20.0478C41.7956 20.0478 42.0921 19.9984 42.3639 19.9119C42.6357 19.8254 42.9198 19.6895 43.1916 19.5166L43.871 20.7396C43.4881 20.999 43.068 21.209 42.6233 21.3572C42.1662 21.5055 41.6968 21.5796 41.215 21.5796C40.6838 21.5796 40.1897 21.4931 39.7326 21.3078H39.7079ZM42.0674 15.5882C41.8327 15.2793 41.4745 15.1311 40.9803 15.1311C40.585 15.1311 40.2267 15.2793 39.9055 15.5635C39.5844 15.8476 39.3991 16.2676 39.325 16.8235H42.4257C42.4257 16.3047 42.3021 15.897 42.0674 15.5882Z" fill="#534741"/>
<path d="M47.4916 21.4319L44.5391 13.7852H46.5527L47.7633 17.3182C47.8869 17.6641 47.9857 18.01 48.0845 18.3683C48.1834 18.7265 48.2945 19.0848 48.3934 19.4677H48.4551C48.5416 19.1095 48.6404 18.7512 48.7269 18.393C48.8134 18.0347 48.9122 17.6765 48.9987 17.3182L50.0487 13.7852H51.9635L49.3322 21.6172L48.3934 24.4585H46.4168L47.4792 21.4443L47.4916 21.4319Z" fill="#534741"/>
<path d="M58.1252 21.235C57.5569 21.0126 57.0752 20.6791 56.6552 20.2467C56.2351 19.8144 55.9139 19.2708 55.6669 18.6284C55.4321 17.986 55.3086 17.2448 55.3086 16.4048C55.3086 15.5648 55.4322 14.8359 55.6792 14.1812C55.9263 13.5265 56.2598 12.9829 56.6922 12.5258C57.1246 12.0687 57.6187 11.7228 58.1746 11.4881C58.7429 11.2534 59.3358 11.1299 59.9782 11.1299C60.6206 11.1299 61.2012 11.2534 61.6953 11.5128C62.1895 11.7723 62.5971 12.0687 62.9307 12.4146L61.8683 13.687C61.6089 13.44 61.3371 13.2423 61.0406 13.0817C60.7441 12.9211 60.3982 12.847 60.0276 12.847C59.657 12.847 59.2988 12.9211 58.9652 13.0817C58.6441 13.2423 58.3599 13.4647 58.1252 13.7735C57.8905 14.07 57.7052 14.4406 57.5693 14.8606C57.4334 15.2806 57.3593 15.7748 57.3593 16.3183C57.3593 16.8619 57.4211 17.356 57.5446 17.7884C57.6681 18.2208 57.8411 18.5914 58.0758 18.9002C58.3105 19.209 58.5823 19.4314 58.9035 19.592C59.2246 19.7526 59.5829 19.8267 59.9782 19.8267C60.4106 19.8267 60.8059 19.7279 61.1394 19.5426C61.473 19.3573 61.7818 19.1226 62.0536 18.8261L63.116 20.0738C62.2883 21.0621 61.2259 21.5562 59.9041 21.5562C59.2741 21.5562 58.6688 21.445 58.1129 21.2227L58.1252 21.235Z" fill="#534741"/>
<path d="M66.0471 21.3078C65.6024 21.1225 65.2194 20.8631 64.8735 20.5296C64.54 20.196 64.2682 19.776 64.0706 19.2819C63.8729 18.7877 63.7617 18.2318 63.7617 17.6018C63.7617 16.9718 63.8605 16.4035 64.0706 15.897C64.2806 15.3905 64.54 14.9829 64.8735 14.637C65.2071 14.3034 65.6024 14.0316 66.0471 13.8587C66.4918 13.6734 66.9489 13.5869 67.4183 13.5869C67.8878 13.5869 68.3572 13.6734 68.8019 13.8587C69.2466 14.044 69.6296 14.3034 69.9631 14.637C70.2967 14.9705 70.5685 15.3905 70.7661 15.897C70.9638 16.4035 71.0749 16.9594 71.0749 17.6018C71.0749 18.2442 70.9761 18.7877 70.7661 19.2819C70.5561 19.776 70.2967 20.196 69.9631 20.5296C69.6296 20.8755 69.2466 21.1349 68.8019 21.3078C68.3572 21.4931 67.9001 21.5796 67.4183 21.5796C66.9365 21.5796 66.4918 21.4931 66.0471 21.3078ZM68.6166 19.3066C68.9007 18.8865 69.0366 18.3059 69.0366 17.5894C69.0366 16.8729 68.9007 16.28 68.6166 15.8476C68.3325 15.4276 67.9372 15.2052 67.4183 15.2052C66.8995 15.2052 66.5042 15.4152 66.22 15.8476C65.9359 16.2676 65.8 16.8482 65.8 17.5894C65.8 18.3306 65.9359 18.8742 66.22 19.3066C66.5042 19.7266 66.8995 19.9489 67.4183 19.9489C67.9372 19.9489 68.3325 19.7389 68.6166 19.3066Z" fill="#534741"/>
<path d="M74.3834 10.5361V21.3825H72.3945V10.5361H74.3834Z" fill="#534741"/>
<path d="M78.1487 21.3078C77.704 21.1225 77.321 20.8631 76.9751 20.5296C76.6415 20.196 76.3698 19.776 76.1721 19.2819C75.9745 18.7877 75.8633 18.2318 75.8633 17.6018C75.8633 16.9718 75.9621 16.4035 76.1721 15.897C76.3821 15.3905 76.6415 14.9829 76.9751 14.637C77.3086 14.3034 77.704 14.0316 78.1487 13.8587C78.5934 13.6734 79.0505 13.5869 79.5199 13.5869C79.9893 13.5869 80.4588 13.6734 80.9035 13.8587C81.3482 14.044 81.7312 14.3034 82.0647 14.637C82.3982 14.9705 82.6701 15.3905 82.8677 15.897C83.0654 16.4035 83.1765 16.9594 83.1765 17.6018C83.1765 18.2442 83.0777 18.7877 82.8677 19.2819C82.6577 19.776 82.3982 20.196 82.0647 20.5296C81.7312 20.8755 81.3482 21.1349 80.9035 21.3078C80.4588 21.4931 80.0017 21.5796 79.5199 21.5796C79.0381 21.5796 78.5934 21.4931 78.1487 21.3078ZM80.7182 19.3066C81.0023 18.8865 81.1382 18.3059 81.1382 17.5894C81.1382 16.8729 81.0023 16.28 80.7182 15.8476C80.4341 15.4276 80.0387 15.2052 79.5199 15.2052C79.001 15.2052 78.6057 15.4152 78.3216 15.8476C78.0375 16.2676 77.9016 16.8482 77.9016 17.5894C77.9016 18.3306 78.0375 18.8742 78.3216 19.3066C78.6057 19.7266 79.001 19.9489 79.5199 19.9489C80.0387 19.9489 80.4341 19.7389 80.7182 19.3066Z" fill="#534741"/>
<path d="M86.2828 15.1187H86.3322C86.6164 14.6246 86.9375 14.2416 87.3205 13.9822C87.6911 13.7228 88.0864 13.5869 88.4941 13.5869C88.7041 13.5869 88.877 13.5993 89.0129 13.6363C89.1488 13.6734 89.2724 13.7104 89.3959 13.7475L89.0376 15.477C88.9141 15.4276 88.7905 15.4029 88.667 15.3782C88.5435 15.3535 88.4076 15.3535 88.247 15.3535C87.9505 15.3535 87.6294 15.4646 87.3082 15.687C86.987 15.9094 86.7152 16.2923 86.4928 16.8482V21.3819H84.5039V13.7722H86.1346L86.2705 15.1187H86.2828Z" fill="#534741"/>
<path d="M35.4619 140.162H31.2988V142.484H34.8318V144.164H31.2988V146.857H35.6101V148.537H29.2852V138.481H35.4495V140.149L35.4619 140.162Z" fill="#534741"/>
<path d="M37.9579 140.94L38.7238 142.299C38.8473 142.521 38.9585 142.731 39.0574 142.941C39.1685 143.151 39.2797 143.361 39.4033 143.571H39.4526C39.5391 143.361 39.638 143.151 39.7368 142.929C39.8356 142.707 39.9221 142.497 40.0209 142.287L40.6633 140.928H42.7263L40.5027 144.807L42.8746 148.537H40.725L39.885 147.154C39.7615 146.932 39.638 146.697 39.5144 146.474C39.3909 146.252 39.2797 146.03 39.1438 145.807H39.0697C38.9585 146.03 38.8597 146.24 38.7485 146.462C38.6497 146.684 38.5385 146.919 38.4273 147.154L37.7232 148.537H35.6602L38.0444 144.572L35.8207 140.928H37.9702L37.9579 140.94Z" fill="#534741"/>
<path d="M45.5797 141.731H45.6291C45.9503 141.459 46.2962 141.224 46.6791 141.039C47.0621 140.854 47.4574 140.755 47.865 140.755C48.3345 140.755 48.7545 140.854 49.1251 141.039C49.4957 141.224 49.8045 141.484 50.064 141.817C50.3234 142.151 50.521 142.558 50.6569 143.028C50.7928 143.51 50.867 144.041 50.867 144.622C50.867 145.276 50.7805 145.857 50.5952 146.363C50.4099 146.87 50.1751 147.302 49.8787 147.648C49.5822 147.994 49.2363 148.266 48.841 148.451C48.4457 148.636 48.0503 148.735 47.6303 148.735C47.2968 148.735 46.9633 148.661 46.6544 148.513C46.3456 148.365 46.0367 148.167 45.7402 147.895L45.7897 149.143V151.453H43.8008V140.915H45.4314L45.5673 141.706L45.5797 141.731ZM48.3468 146.512C48.6557 146.116 48.8163 145.499 48.8163 144.659C48.8163 143.93 48.6927 143.361 48.458 142.979C48.2233 142.596 47.8404 142.398 47.3092 142.398C47.0497 142.398 46.7903 142.46 46.5556 142.596C46.3209 142.731 46.0615 142.929 45.802 143.189V146.536C46.0491 146.746 46.2838 146.895 46.5185 146.981C46.7532 147.068 46.9756 147.105 47.1856 147.105C47.6427 147.105 48.038 146.907 48.3468 146.512Z" fill="#534741"/>
<path d="M53.9898 142.287H54.0392C54.3234 141.793 54.6446 141.41 55.0275 141.15C55.3981 140.891 55.7934 140.755 56.2011 140.755C56.4111 140.755 56.5841 140.767 56.7199 140.804C56.8558 140.841 56.9794 140.878 57.1029 140.915L56.7446 142.645C56.6211 142.596 56.4976 142.571 56.374 142.546C56.2505 142.521 56.1146 142.521 55.954 142.521C55.6575 142.521 55.3363 142.633 55.0152 142.855C54.694 143.077 54.4222 143.46 54.1998 144.016V148.55H52.2109V140.94H53.8416L53.9775 142.287H53.9898Z" fill="#534741"/>
<path d="M59.6376 148.463C59.1805 148.278 58.7728 148.018 58.4393 147.685C58.1057 147.351 57.834 146.931 57.6363 146.437C57.4387 145.943 57.3398 145.387 57.3398 144.757C57.3398 144.127 57.4387 143.583 57.6363 143.089C57.834 142.595 58.1058 142.175 58.427 141.829C58.7605 141.483 59.1311 141.212 59.5635 141.026C59.9958 140.841 60.4282 140.742 60.8853 140.742C61.4165 140.742 61.8735 140.829 62.2689 141.014C62.6642 141.199 62.9977 141.446 63.2572 141.78C63.5166 142.113 63.7266 142.496 63.8625 142.941C63.9984 143.386 64.0725 143.868 64.0725 144.399C64.0725 144.584 64.0725 144.757 64.0478 144.918C64.0231 145.091 64.0107 145.214 63.9736 145.301H59.2917C59.3781 145.931 59.6005 146.4 59.9835 146.721C60.3664 147.042 60.8359 147.203 61.4041 147.203C61.7253 147.203 62.0218 147.154 62.2936 147.067C62.5654 146.981 62.8495 146.845 63.1213 146.672L63.8007 147.895C63.4178 148.154 62.9977 148.364 62.553 148.513C62.0959 148.661 61.6265 148.735 61.1447 148.735C60.6135 148.735 60.1194 148.648 59.6623 148.463H59.6376ZM61.9971 142.743C61.7624 142.435 61.4041 142.286 60.91 142.286C60.5147 142.286 60.1564 142.435 59.8352 142.719C59.514 143.003 59.3287 143.423 59.2546 143.979H62.3553C62.3553 143.46 62.2318 143.052 61.9971 142.743Z" fill="#534741"/>
<path d="M65.9989 148.439C65.48 148.241 65.0353 147.982 64.6523 147.661L65.5665 146.413C65.9124 146.673 66.2459 146.883 66.5795 147.031C66.913 147.179 67.2465 147.253 67.6048 147.253C67.9878 147.253 68.2595 147.179 68.4448 147.031C68.6178 146.883 68.7043 146.685 68.7043 146.45C68.7043 146.302 68.6548 146.178 68.5684 146.08C68.4819 145.981 68.3583 145.882 68.2101 145.795C68.0619 145.709 67.8889 145.622 67.7036 145.548C67.5183 145.474 67.3207 145.388 67.123 145.314C66.876 145.227 66.6289 145.116 66.3941 144.992C66.1471 144.869 65.9247 144.721 65.7271 144.548C65.5294 144.375 65.3688 144.165 65.2329 143.93C65.1094 143.695 65.0476 143.424 65.0476 143.102C65.0476 142.756 65.1094 142.448 65.2453 142.164C65.3812 141.879 65.5665 141.632 65.8135 141.422C66.0606 141.212 66.3571 141.052 66.703 140.941C67.0489 140.829 67.4442 140.768 67.8642 140.768C68.4325 140.768 68.9266 140.866 69.3466 141.064C69.7667 141.262 70.1373 141.472 70.4584 141.706L69.5566 142.917C69.2849 142.732 69.0131 142.571 68.7537 142.448C68.4942 142.324 68.2101 142.262 67.9136 142.262C67.5677 142.262 67.3207 142.336 67.1477 142.472C66.9748 142.608 66.9006 142.781 66.9006 143.004C66.9006 143.139 66.9377 143.263 67.0242 143.362C67.1107 143.461 67.2218 143.547 67.3701 143.634C67.5183 143.72 67.6789 143.794 67.8642 143.856C68.0495 143.918 68.2472 143.992 68.4448 144.066C68.7042 144.165 68.9513 144.276 69.1984 144.387C69.4455 144.511 69.6678 144.647 69.8778 144.82C70.0878 144.992 70.2484 145.202 70.372 145.45C70.4955 145.697 70.5573 146.005 70.5573 146.351C70.5573 146.697 70.4955 146.994 70.3596 147.29C70.2237 147.574 70.0384 147.834 69.779 148.056C69.5196 148.278 69.2107 148.451 68.8401 148.575C68.4695 148.698 68.0248 148.76 67.5307 148.76C67.0365 148.76 66.493 148.661 65.9865 148.464L65.9989 148.439Z" fill="#534741"/>
<path d="M72.3856 148.439C71.8667 148.241 71.422 147.982 71.0391 147.661L71.9532 146.413C72.2991 146.673 72.6327 146.883 72.9662 147.031C73.2997 147.179 73.6333 147.253 73.9916 147.253C74.3745 147.253 74.6463 147.179 74.8316 147.031C75.0045 146.883 75.091 146.685 75.091 146.45C75.091 146.302 75.0416 146.178 74.9551 146.08C74.8687 145.981 74.7451 145.882 74.5969 145.795C74.4486 145.709 74.2757 145.622 74.0904 145.548C73.9051 145.474 73.7074 145.388 73.5098 145.314C73.2627 145.227 73.0156 145.116 72.7809 144.992C72.5338 144.869 72.3115 144.721 72.1138 144.548C71.9162 144.375 71.7556 144.165 71.6197 143.93C71.4961 143.695 71.4344 143.424 71.4344 143.102C71.4344 142.756 71.4962 142.448 71.632 142.164C71.7679 141.879 71.9532 141.632 72.2003 141.422C72.4474 141.212 72.7438 141.052 73.0897 140.941C73.4356 140.829 73.831 140.768 74.251 140.768C74.8192 140.768 75.3133 140.866 75.7334 141.064C76.1534 141.262 76.524 141.472 76.8452 141.706L75.9434 142.917C75.6716 142.732 75.3998 142.571 75.1404 142.448C74.881 142.324 74.5969 142.262 74.3004 142.262C73.9545 142.262 73.7074 142.336 73.5344 142.472C73.3615 142.608 73.2874 142.781 73.2874 143.004C73.2874 143.139 73.3245 143.263 73.4109 143.362C73.4974 143.461 73.6086 143.547 73.7568 143.634C73.9051 143.72 74.0657 143.794 74.251 143.856C74.4363 143.918 74.6339 143.992 74.8316 144.066C75.091 144.165 75.3381 144.276 75.5851 144.387C75.8322 144.511 76.0546 144.647 76.2646 144.82C76.4746 144.992 76.6352 145.202 76.7587 145.45C76.8823 145.697 76.944 146.005 76.944 146.351C76.944 146.697 76.8822 146.994 76.7464 147.29C76.6105 147.574 76.4252 147.834 76.1657 148.056C75.9063 148.278 75.5975 148.451 75.2269 148.575C74.8563 148.698 74.4116 148.76 73.9174 148.76C73.4233 148.76 72.8797 148.661 72.3733 148.464L72.3856 148.439Z" fill="#534741"/>
<path d="M79.9342 140.94V148.55H77.9453V140.94H79.9342ZM77.97 137.79H79.9589V139.717H77.97V137.79Z" fill="#534741"/>
<path d="M83.3596 148.463C82.9149 148.278 82.5319 148.018 82.186 147.685C81.8525 147.351 81.5807 146.931 81.3831 146.437C81.1854 145.943 81.0742 145.387 81.0742 144.757C81.0742 144.127 81.173 143.559 81.3831 143.052C81.5931 142.546 81.8525 142.138 82.186 141.792C82.5196 141.459 82.9149 141.187 83.3596 141.014C83.8043 140.829 84.2614 140.742 84.7309 140.742C85.2003 140.742 85.6697 140.829 86.1144 141.014C86.5592 141.199 86.9421 141.459 87.2757 141.792C87.6092 142.126 87.881 142.546 88.0786 143.052C88.2763 143.559 88.3875 144.115 88.3875 144.757C88.3875 145.399 88.2887 145.943 88.0786 146.437C87.8686 146.931 87.6092 147.351 87.2757 147.685C86.9421 148.031 86.5592 148.29 86.1144 148.463C85.6697 148.648 85.2127 148.735 84.7309 148.735C84.2491 148.735 83.8043 148.648 83.3596 148.463ZM85.9291 146.462C86.2132 146.042 86.3492 145.461 86.3492 144.745C86.3492 144.028 86.2132 143.435 85.9291 143.003C85.645 142.583 85.2497 142.36 84.7309 142.36C84.212 142.36 83.8167 142.571 83.5326 143.003C83.2485 143.423 83.1125 144.004 83.1125 144.745C83.1125 145.486 83.2485 146.029 83.5326 146.462C83.8167 146.882 84.212 147.104 84.7309 147.104C85.2497 147.104 85.645 146.894 85.9291 146.462Z" fill="#534741"/>
<path d="M91.4826 141.94H91.5321C91.8656 141.619 92.2362 141.335 92.6315 141.1C93.0268 140.866 93.4839 140.742 94.0028 140.742C94.8304 140.742 95.4234 141.014 95.794 141.545C96.1646 142.089 96.3499 142.83 96.3499 143.793V148.537H94.3486V144.041C94.3486 143.448 94.2622 143.04 94.1016 142.805C93.9287 142.571 93.6569 142.447 93.2739 142.447C92.9527 142.447 92.6809 142.521 92.4586 142.669C92.2362 142.818 91.9768 143.028 91.6803 143.312V148.537H89.6914V140.927H91.3221L91.4579 141.928L91.4826 141.94Z" fill="#534741"/>
<path d="M98.7098 148.439C98.191 148.241 97.7462 147.982 97.3633 147.661L98.2774 146.413C98.6233 146.673 98.9569 146.883 99.2904 147.031C99.624 147.179 99.9575 147.253 100.316 147.253C100.699 147.253 100.97 147.179 101.156 147.031C101.329 146.883 101.415 146.685 101.415 146.45C101.415 146.302 101.366 146.178 101.279 146.08C101.193 145.981 101.069 145.882 100.921 145.795C100.773 145.709 100.6 145.622 100.415 145.548C100.229 145.474 100.032 145.388 99.834 145.314C99.5869 145.227 99.3398 145.116 99.1051 144.992C98.8581 144.869 98.6357 144.721 98.438 144.548C98.2404 144.375 98.0798 144.165 97.9439 143.93C97.8204 143.695 97.7586 143.424 97.7586 143.102C97.7586 142.756 97.8204 142.448 97.9563 142.164C98.0921 141.879 98.2774 141.632 98.5245 141.422C98.7716 141.212 99.0681 141.052 99.414 140.941C99.7599 140.829 100.155 140.768 100.575 140.768C101.143 140.768 101.638 140.866 102.058 141.064C102.478 141.262 102.848 141.472 103.169 141.706L102.268 142.917C101.996 142.732 101.724 142.571 101.465 142.448C101.205 142.324 100.921 142.262 100.625 142.262C100.279 142.262 100.032 142.336 99.8587 142.472C99.6858 142.608 99.6116 142.781 99.6116 143.004C99.6116 143.139 99.6487 143.263 99.7352 143.362C99.8216 143.461 99.9328 143.547 100.081 143.634C100.229 143.72 100.39 143.794 100.575 143.856C100.76 143.918 100.958 143.992 101.156 144.066C101.415 144.165 101.662 144.276 101.909 144.387C102.156 144.511 102.379 144.647 102.589 144.82C102.799 144.992 102.959 145.202 103.083 145.45C103.206 145.697 103.268 146.005 103.268 146.351C103.268 146.697 103.206 146.994 103.071 147.29C102.935 147.574 102.749 147.834 102.49 148.056C102.231 148.278 101.922 148.451 101.551 148.575C101.181 148.698 100.736 148.76 100.242 148.76C99.7475 148.76 99.204 148.661 98.6975 148.464L98.7098 148.439Z" fill="#534741"/>
<path d="M28.4531 281.992H36.1493V283.66H33.2957V292.048H31.2821V283.66H28.4531V281.992Z" fill="#534741"/>
<path d="M37.0871 291.43C36.7165 290.886 36.5312 290.145 36.5312 289.194V284.438H38.5325V288.934C38.5325 289.527 38.619 289.947 38.7796 290.182C38.9402 290.417 39.2119 290.528 39.5949 290.528C39.9161 290.528 40.1879 290.454 40.4102 290.305C40.6326 290.157 40.8796 289.922 41.1391 289.577V284.438H43.1404V292.047H41.5097L41.3615 290.96H41.312C40.9908 291.355 40.6326 291.664 40.2497 291.887C39.8667 292.121 39.4096 292.233 38.8784 292.233C38.0631 292.233 37.4701 291.961 37.0995 291.43H37.0871Z" fill="#534741"/>
<path d="M46.6968 285.771H46.7463C47.0304 285.277 47.3516 284.894 47.7346 284.635C48.1052 284.375 48.5004 284.239 48.9081 284.239C49.1181 284.239 49.2911 284.252 49.427 284.289C49.5629 284.326 49.6864 284.363 49.8099 284.4L49.4517 286.129C49.3281 286.08 49.2046 286.055 49.0811 286.031C48.9575 286.006 48.8217 286.006 48.6611 286.006C48.3646 286.006 48.0434 286.117 47.7222 286.339C47.401 286.562 47.1292 286.945 46.9069 287.501V292.034H44.918V284.425H46.5486L46.6845 285.771H46.6968Z" fill="#534741"/>
<path d="M52.2835 285.438H52.3329C52.6664 285.116 53.037 284.832 53.4323 284.597C53.8276 284.363 54.2847 284.239 54.8036 284.239C55.6313 284.239 56.2242 284.511 56.5948 285.042C56.9654 285.586 57.1507 286.327 57.1507 287.291V292.034H55.1495V287.538C55.1495 286.945 55.063 286.537 54.9024 286.302C54.7294 286.068 54.4576 285.944 54.0747 285.944C53.7535 285.944 53.4817 286.018 53.2594 286.166C53.037 286.315 52.7776 286.525 52.4811 286.809V292.034H50.4922V284.425H52.1229L52.2587 285.425L52.2835 285.438Z" fill="#534741"/>
<path d="M59.8311 292.023C59.547 291.924 59.3123 291.763 59.1146 291.578C58.917 291.393 58.7688 291.145 58.6576 290.874C58.5464 290.602 58.497 290.305 58.497 289.972C58.4476 289.033 58.7811 288.354 59.4729 287.896C60.1647 287.452 61.3012 287.205 62.8824 287.155C62.9195 286.834 62.8578 286.513 62.7095 286.192C62.5489 285.957 62.1783 285.833 61.5977 285.833C61.2395 285.833 60.8812 285.895 60.4859 286.019C60.1029 286.142 59.7323 286.328 59.3864 286.55L58.7934 285.129C59.2135 284.87 59.6953 284.66 60.2388 284.487C60.7824 284.314 61.363 284.228 61.9559 284.228C63.9078 284.228 64.8837 285.352 64.8837 287.588V292.035H63.2531L63.1048 291.257H63.0677C62.7465 291.541 62.3883 291.763 62.0054 291.924C61.6224 292.084 61.2147 292.171 60.77 292.171C60.4365 292.171 60.1276 292.121 59.8435 292.01L59.8311 292.023ZM62.166 290.454C62.4007 290.33 62.6477 290.157 62.8824 289.922V288.391C62.6477 288.403 62.413 288.428 62.1783 288.452C61.9436 288.477 61.7212 288.502 61.5112 288.539C61.0789 288.601 60.77 288.737 60.597 288.934C60.4241 289.132 60.3376 289.367 60.35 289.638C60.35 289.96 60.4612 290.207 60.6588 290.38C60.8565 290.565 61.0912 290.651 61.3877 290.651C61.6718 290.651 61.9436 290.577 62.1783 290.454H62.166Z" fill="#534741"/>
<path d="M68.3453 285.771H68.3947C68.6789 285.277 69 284.894 69.383 284.635C69.7536 284.375 70.1489 284.239 70.5566 284.239C70.7666 284.239 70.9395 284.252 71.0754 284.289C71.2113 284.326 71.3348 284.363 71.4584 284.4L71.1001 286.129C70.9766 286.08 70.853 286.055 70.7295 286.031C70.606 286.006 70.4701 286.006 70.3095 286.006C70.013 286.006 69.6918 286.117 69.3706 286.339C69.0494 286.562 68.7777 286.945 68.5553 287.501V292.034H66.5664V284.425H68.1971L68.3329 285.771H68.3453Z" fill="#534741"/>
<path d="M73.9612 291.96C73.5165 291.775 73.1335 291.515 72.7876 291.182C72.4541 290.848 72.1823 290.428 71.9846 289.934C71.787 289.44 71.6758 288.884 71.6758 288.254C71.6758 287.624 71.7746 287.056 71.9846 286.549C72.1946 286.043 72.4541 285.635 72.7876 285.289C73.1212 284.956 73.5165 284.684 73.9612 284.511C74.4059 284.326 74.863 284.239 75.3324 284.239C75.8019 284.239 76.2713 284.326 76.716 284.511C77.1607 284.696 77.5437 284.956 77.8772 285.289C78.2108 285.623 78.4826 286.043 78.6802 286.549C78.8779 287.056 78.989 287.612 78.989 288.254C78.989 288.897 78.8902 289.44 78.6802 289.934C78.4702 290.428 78.2108 290.848 77.8772 291.182C77.5437 291.528 77.1607 291.787 76.716 291.96C76.2713 292.145 75.8142 292.232 75.3324 292.232C74.8506 292.232 74.4059 292.145 73.9612 291.96ZM76.5307 289.959C76.8148 289.539 76.9507 288.958 76.9507 288.242C76.9507 287.525 76.8148 286.932 76.5307 286.5C76.2466 286.08 75.8513 285.858 75.3324 285.858C74.8136 285.858 74.4183 286.068 74.1341 286.5C73.85 286.92 73.7141 287.501 73.7141 288.242C73.7141 288.983 73.85 289.527 74.1341 289.959C74.4183 290.379 74.8136 290.601 75.3324 290.601C75.8513 290.601 76.2466 290.391 76.5307 289.959Z" fill="#534741"/>
<path d="M80.7981 291.43C80.4275 290.886 80.2422 290.145 80.2422 289.194V284.438H82.2434V288.934C82.2434 289.527 82.3299 289.947 82.4905 290.182C82.6511 290.417 82.9229 290.528 83.3058 290.528C83.627 290.528 83.8988 290.454 84.1212 290.305C84.3435 290.157 84.5906 289.922 84.85 289.577V284.438H86.8513V292.047H85.2206L85.0724 290.96H85.023C84.7018 291.355 84.3435 291.664 83.9606 291.887C83.5776 292.121 83.1205 292.233 82.5893 292.233C81.774 292.233 81.181 291.961 80.8104 291.43H80.7981Z" fill="#534741"/>
<path d="M90.4045 285.438H90.4539C90.7875 285.116 91.1581 284.832 91.5534 284.597C91.9487 284.363 92.4058 284.239 92.9246 284.239C93.7523 284.239 94.3453 284.511 94.7159 285.042C95.0865 285.586 95.2718 286.327 95.2718 287.291V292.034H93.2705V287.538C93.2705 286.945 93.184 286.537 93.0234 286.302C92.8505 286.068 92.5787 285.944 92.1958 285.944C91.8746 285.944 91.6028 286.018 91.3804 286.166C91.1581 286.315 90.8987 286.525 90.6022 286.809V292.034H88.6133V284.425H90.2439L90.3798 285.425L90.4045 285.438Z" fill="#534741"/>
<path d="M98.411 291.961C98.028 291.775 97.6945 291.516 97.4227 291.17C97.1509 290.824 96.9409 290.404 96.7927 289.922C96.6444 289.441 96.5703 288.872 96.5703 288.255C96.5703 287.637 96.6568 287.069 96.8297 286.575C97.0027 286.08 97.2497 285.66 97.5462 285.315C97.8427 284.969 98.1886 284.709 98.5716 284.524C98.9545 284.339 99.3498 284.24 99.7575 284.24C100.19 284.24 100.56 284.314 100.845 284.462C101.129 284.61 101.413 284.808 101.685 285.067L101.598 283.869V281.188H103.599V292.035H101.981L101.821 291.244H101.783C101.499 291.516 101.178 291.751 100.82 291.936C100.462 292.121 100.079 292.22 99.671 292.22C99.2016 292.22 98.7692 292.134 98.3863 291.948L98.411 291.961ZM100.956 290.417C101.19 290.293 101.413 290.095 101.623 289.799V286.451C101.388 286.241 101.153 286.093 100.919 286.006C100.684 285.92 100.449 285.883 100.215 285.883C99.9922 285.883 99.7945 285.932 99.5969 286.031C99.3992 286.13 99.2386 286.278 99.1028 286.476C98.9669 286.673 98.8433 286.92 98.7692 287.205C98.6828 287.489 98.6457 287.835 98.6457 288.205C98.6457 289.786 99.1645 290.565 100.227 290.565C100.486 290.565 100.733 290.503 100.968 290.392L100.956 290.417Z" fill="#534741"/>
<path d="M106.042 291.936C105.523 291.738 105.078 291.479 104.695 291.158L105.609 289.91C105.955 290.17 106.289 290.38 106.622 290.528C106.956 290.676 107.29 290.75 107.648 290.75C108.031 290.75 108.303 290.676 108.488 290.528C108.661 290.38 108.747 290.182 108.747 289.947C108.747 289.799 108.698 289.675 108.611 289.577C108.525 289.478 108.401 289.379 108.253 289.292C108.105 289.206 107.932 289.12 107.747 289.045C107.561 288.971 107.364 288.885 107.166 288.811C106.919 288.724 106.672 288.613 106.437 288.49C106.19 288.366 105.968 288.218 105.77 288.045C105.572 287.872 105.412 287.662 105.276 287.427C105.152 287.192 105.091 286.921 105.091 286.599C105.091 286.254 105.152 285.945 105.288 285.661C105.424 285.376 105.609 285.129 105.857 284.919C106.104 284.709 106.4 284.549 106.746 284.438C107.092 284.326 107.487 284.265 107.907 284.265C108.475 284.265 108.97 284.363 109.39 284.561C109.81 284.759 110.18 284.969 110.501 285.204L109.6 286.414C109.328 286.229 109.056 286.068 108.797 285.945C108.537 285.821 108.253 285.759 107.957 285.759C107.611 285.759 107.364 285.834 107.191 285.969C107.018 286.105 106.944 286.278 106.944 286.501C106.944 286.637 106.981 286.76 107.067 286.859C107.154 286.958 107.265 287.044 107.413 287.131C107.561 287.217 107.722 287.291 107.907 287.353C108.093 287.415 108.29 287.489 108.488 287.563C108.747 287.662 108.994 287.773 109.241 287.884C109.488 288.008 109.711 288.144 109.921 288.317C110.131 288.49 110.291 288.7 110.415 288.947C110.539 289.194 110.6 289.503 110.6 289.848C110.6 290.194 110.538 290.491 110.403 290.787C110.267 291.071 110.081 291.331 109.822 291.553C109.563 291.776 109.254 291.948 108.883 292.072C108.513 292.196 108.068 292.257 107.574 292.257C107.08 292.257 106.536 292.159 106.03 291.961L106.042 291.936Z" fill="#534741"/>
<path d="M110.015 189.316H52.1016V230.379H110.015V189.316Z" fill="white" stroke="#524740" stroke-width="0.51" stroke-linecap="round" stroke-linejoin="round"/>
<path d="M102.504 179.088H59.6001L52.1016 189.317H110.015L102.504 179.088Z" fill="#F0D246" stroke="#524740" stroke-width="0.51" stroke-linecap="round" stroke-linejoin="round"/>
<path d="M85.3565 210.91C84.5164 211.973 83.1205 212.899 80.9339 212.862C78.8709 212.825 77.5614 212.047 76.7461 211.095" stroke="#524740" stroke-width="0.51" stroke-linecap="round" stroke-linejoin="round"/>
<path d="M93.7525 210.589C95.7106 210.589 97.2979 209.002 97.2979 207.043C97.2979 205.085 95.7106 203.498 93.7525 203.498C91.7944 203.498 90.207 205.085 90.207 207.043C90.207 209.002 91.7944 210.589 93.7525 210.589Z" fill="#524740"/>
<path d="M68.3423 210.589C70.3004 210.589 71.8877 209.002 71.8877 207.043C71.8877 205.085 70.3004 203.498 68.3423 203.498C66.3842 203.498 64.7969 205.085 64.7969 207.043C64.7969 209.002 66.3842 210.589 68.3423 210.589Z" fill="#524740"/>
<path d="M197.612 189.316H139.699V230.379H197.612V189.316Z" fill="white" stroke="#524740" stroke-width="0.51" stroke-linecap="round" stroke-linejoin="round"/>
<path d="M190.114 179.088H147.21L139.699 189.317H197.612L190.114 179.088Z" fill="#F0D246" stroke="#524740" stroke-width="0.51" stroke-linecap="round" stroke-linejoin="round"/>
<path d="M172.966 210.91C172.126 211.973 170.73 212.899 168.543 212.862C166.48 212.825 165.171 212.047 164.355 211.095" stroke="#524740" stroke-width="0.51" stroke-linecap="round" stroke-linejoin="round"/>
<path d="M181.366 210.589C183.324 210.589 184.911 209.002 184.911 207.043C184.911 205.085 183.324 203.498 181.366 203.498C179.408 203.498 177.82 205.085 177.82 207.043C177.82 209.002 179.408 210.589 181.366 210.589Z" fill="#524740"/>
<path d="M155.956 210.589C157.914 210.589 159.501 209.002 159.501 207.043C159.501 205.085 157.914 203.498 155.956 203.498C153.997 203.498 152.41 205.085 152.41 207.043C152.41 209.002 153.997 210.589 155.956 210.589Z" fill="#524740"/>
<path d="M285.226 189.316H227.312V230.379H285.226V189.316Z" fill="white" stroke="#524740" stroke-width="0.51" stroke-linecap="round" stroke-linejoin="round"/>
<path d="M277.715 179.088H234.811L227.312 189.317H285.213L277.715 179.088Z" fill="#F0D246" stroke="#524740" stroke-width="0.51" stroke-linecap="round" stroke-linejoin="round"/>
<path d="M251.957 212.861C252.797 211.799 254.193 210.872 256.38 210.909C258.443 210.946 259.752 211.725 260.567 212.676" stroke="#524740" stroke-width="0.51" stroke-linecap="round" stroke-linejoin="round"/>
<path d="M268.963 210.589C270.922 210.589 272.509 209.002 272.509 207.043C272.509 205.085 270.922 203.498 268.963 203.498C267.005 203.498 265.418 205.085 265.418 207.043C265.418 209.002 267.005 210.589 268.963 210.589Z" fill="#524740"/>
<path d="M243.553 210.589C245.511 210.589 247.099 209.002 247.099 207.043C247.099 205.085 245.511 203.498 243.553 203.498C241.595 203.498 240.008 205.085 240.008 207.043C240.008 209.002 241.595 210.589 243.553 210.589Z" fill="#524740"/>
<path d="M272.142 211.046C273.288 211.046 274.217 210.509 274.217 209.848C274.217 209.186 273.288 208.649 272.142 208.649C270.996 208.649 270.066 209.186 270.066 209.848C270.066 210.509 270.996 211.046 272.142 211.046Z" fill="#8FCAD8"/>
<path d="M240.814 211.046C241.96 211.046 242.889 210.509 242.889 209.848C242.889 209.186 241.96 208.649 240.814 208.649C239.667 208.649 238.738 209.186 238.738 209.848C238.738 210.509 239.667 211.046 240.814 211.046Z" fill="#8FCAD8"/>
<path d="M372.823 189.316H314.91V230.379H372.823V189.316Z" fill="white" stroke="#524740" stroke-width="0.51" stroke-linecap="round" stroke-linejoin="round"/>
<path d="M365.312 179.088H322.421L314.91 189.317H372.823L365.312 179.088Z" fill="#F0D246" stroke="#524740" stroke-width="0.51" stroke-linecap="round" stroke-linejoin="round"/>
<path d="M348.165 210.91C347.325 211.973 345.929 212.899 343.743 212.862C341.68 212.825 340.37 212.047 339.555 211.095" stroke="#524740" stroke-width="0.51" stroke-linecap="round" stroke-linejoin="round"/>
<path d="M460.433 189.316H402.52V230.379H460.433V189.316Z" fill="white" stroke="#524740" stroke-width="0.51" stroke-linecap="round" stroke-linejoin="round"/>
<path d="M452.922 179.088H410.018L402.52 189.317H460.42L452.922 179.088Z" fill="#F0D246" stroke="#524740" stroke-width="0.51" stroke-linecap="round" stroke-linejoin="round"/>
<path d="M68.1743 84.8438V85.8567H64.8512V88.1915H67.6802V89.2045H64.8512V92.5029H63.6406V84.8561H68.1743V84.8438Z" fill="#534741"/>
<path d="M74.276 90.0438C74.1895 90.5132 74.0289 90.9332 73.8189 91.3038C73.6089 91.6744 73.3124 91.9833 72.9542 92.218C72.5959 92.4527 72.1512 92.5762 71.62 92.5762C71.0888 92.5762 70.6441 92.4527 70.2859 92.218C69.9276 91.9833 69.6435 91.6744 69.4211 91.3038C69.1987 90.9332 69.0505 90.5008 68.964 90.0438C68.8776 89.5867 68.8281 89.1173 68.8281 88.6602C68.8281 88.2031 68.8776 87.746 68.964 87.2766C69.0505 86.8072 69.2111 86.3871 69.4211 86.0165C69.6311 85.6459 69.9276 85.3371 70.2859 85.1024C70.6441 84.8677 71.0888 84.7441 71.62 84.7441C72.1512 84.7441 72.6083 84.8677 72.9665 85.1024C73.3248 85.3371 73.6089 85.6583 73.8313 86.0412C74.0413 86.4242 74.2019 86.8442 74.2884 87.3137C74.3748 87.7831 74.4242 88.2278 74.4242 88.6725C74.4242 89.1173 74.3748 89.5867 74.2884 90.0561L74.276 90.0438ZM73.1766 87.746C73.1395 87.4125 73.0654 87.0789 72.9542 86.7825C72.843 86.4736 72.6824 86.2266 72.46 86.0165C72.25 85.8065 71.9659 85.7077 71.6077 85.7077C71.2494 85.7077 70.9653 85.8065 70.7553 86.0165C70.5453 86.2266 70.3847 86.486 70.2611 86.7825C70.1499 87.0913 70.0758 87.4125 70.0388 87.746C70.0017 88.0796 69.9894 88.3884 69.9894 88.6602C69.9894 88.932 70.0017 89.2408 70.0388 89.5743C70.0758 89.9079 70.1499 90.2414 70.2611 90.5379C70.3723 90.8467 70.5453 91.0938 70.7553 91.3038C70.9653 91.5138 71.2494 91.6127 71.6077 91.6127C71.9659 91.6127 72.25 91.5138 72.46 91.3038C72.6701 91.0938 72.8306 90.8344 72.9542 90.5379C73.0654 90.2291 73.1395 89.9079 73.1766 89.5743C73.2136 89.2408 73.226 88.932 73.226 88.6602C73.226 88.3884 73.2136 88.0796 73.1766 87.746Z" fill="#534741"/>
<path d="M75.8566 91.86C75.4365 91.3535 75.2266 90.6123 75.2266 89.6364C75.2266 89.1669 75.2883 88.7469 75.4242 88.3763C75.5601 88.0057 75.7454 87.6969 75.9677 87.4251C76.2025 87.1657 76.4619 86.968 76.7584 86.8321C77.0549 86.6962 77.3637 86.6221 77.6725 86.6221C77.9814 86.6221 78.2902 86.6839 78.5125 86.7951C78.7473 86.9062 78.9697 87.0668 79.2044 87.2645L79.155 86.3133V84.1885H80.3532V92.4653H79.3773L79.2785 91.8229H79.2414C79.0314 92.0453 78.7844 92.2306 78.5002 92.3788C78.2161 92.5271 77.9072 92.6012 77.586 92.6012C76.8572 92.6012 76.2766 92.3418 75.8566 91.8353V91.86ZM79.1673 90.9458V88.1539C78.9573 87.9563 78.7473 87.8204 78.5373 87.7463C78.3273 87.6722 78.1296 87.6351 77.9072 87.6351C77.7096 87.6351 77.5119 87.6845 77.339 87.771C77.166 87.8698 77.0055 87.9933 76.8819 88.1663C76.7584 88.3392 76.6472 88.5492 76.5731 88.784C76.499 89.031 76.4619 89.3028 76.4619 89.624C76.4619 90.2787 76.5854 90.7729 76.8201 91.1188C77.0548 91.4647 77.4131 91.6376 77.8702 91.6376C78.3273 91.6376 78.772 91.4029 79.1673 90.9458Z" fill="#534741"/>
<path d="M81.75 92.4897V91.8226L84.3319 89.2284C84.5172 89.0431 84.6778 88.8701 84.8384 88.6848C84.999 88.4995 85.1472 88.3019 85.2831 88.0919C85.419 87.8572 85.5178 87.5977 85.5795 87.326C85.6413 87.0542 85.6413 86.7948 85.5919 86.5477C85.5425 86.313 85.4189 86.103 85.2336 85.9424C85.0483 85.7818 84.7642 85.6953 84.3936 85.6953C84.1836 85.6953 83.9983 85.7324 83.8254 85.8065C83.6524 85.8806 83.5042 85.9794 83.3806 86.103C83.2571 86.2265 83.1583 86.3748 83.0965 86.5477C83.0348 86.7207 83.0101 86.906 83.0224 87.116L81.8859 86.906C81.9847 86.2142 82.2565 85.6706 82.7136 85.2876C83.1706 84.9047 83.7512 84.707 84.4677 84.707C84.7889 84.707 85.0978 84.7564 85.3819 84.8429C85.666 84.9294 85.9131 85.0776 86.1231 85.2629C86.3331 85.4482 86.5061 85.6706 86.6296 85.9424C86.7531 86.2142 86.8149 86.523 86.8149 86.8689C86.8149 87.1654 86.7655 87.4248 86.679 87.6842C86.5925 87.9313 86.469 88.166 86.3208 88.4007C86.1725 88.6354 85.9996 88.8331 85.8143 89.0431C85.629 89.2408 85.4313 89.4384 85.246 89.6361L83.2942 91.6126C83.4548 91.5756 83.6154 91.5385 83.7883 91.5138C83.9613 91.4891 84.1219 91.4767 84.2948 91.4767H86.9508V92.4897H81.75Z" fill="#534741"/>
<path d="M92.4006 90.55V92.4895H91.4V90.55H87.6445V89.7223L91.3382 84.8057H92.4129V89.6606H93.4754V90.55H92.4129H92.4006ZM91.4 86.8563C91.4 86.7328 91.4 86.6216 91.4123 86.4981C91.4123 86.3746 91.437 86.251 91.4494 86.1151L88.8675 89.6606H91.3876V86.8563H91.4Z" fill="#534741"/>
<path d="M95.9852 88.0299C96.3434 87.8323 96.7387 87.7334 97.1464 87.7334C97.4923 87.7334 97.8012 87.7952 98.0853 87.9064C98.3694 88.0176 98.6041 88.1782 98.8018 88.3882C98.9994 88.5982 99.1477 88.8329 99.2588 89.117C99.37 89.4011 99.4194 89.71 99.4194 90.0312C99.4194 90.4018 99.3453 90.7477 99.2094 91.0565C99.0735 91.3653 98.8759 91.6371 98.6412 91.8595C98.4065 92.0818 98.11 92.2548 97.7888 92.3783C97.4676 92.5019 97.1093 92.5636 96.7387 92.5636C96.3434 92.5636 95.9852 92.5019 95.664 92.3783C95.3428 92.2548 95.071 92.0695 94.8486 91.8471C94.6263 91.6124 94.4534 91.3283 94.3298 91.0071C94.2063 90.6736 94.1445 90.3153 94.1445 89.8953C94.1445 89.4753 94.231 89.08 94.4163 88.6846C94.6016 88.2893 94.8116 87.9311 95.0587 87.6099L97.1588 84.8057H98.5794L95.9852 88.0299ZM97.3317 91.5136C97.517 91.4395 97.6899 91.3406 97.8258 91.2048C97.9617 91.0689 98.0729 90.9083 98.1594 90.723C98.2459 90.5377 98.2829 90.3277 98.2829 90.1053C98.2829 89.6482 98.147 89.2776 97.8629 89.0058C97.5911 88.7341 97.2205 88.5982 96.7635 88.5982C96.5534 88.5982 96.3435 88.6352 96.1582 88.7094C95.9728 88.7835 95.8122 88.8947 95.6763 89.0182C95.5405 89.1541 95.4293 89.3023 95.3551 89.4876C95.281 89.6729 95.244 89.8706 95.244 90.0806C95.244 90.5253 95.3675 90.8959 95.6269 91.1924C95.874 91.4765 96.2446 91.6248 96.7264 91.6248C96.9364 91.6248 97.1464 91.5877 97.3317 91.5136Z" fill="#534741"/>
<path d="M78.9467 73.7254C88.1572 73.7254 95.6239 66.2588 95.6239 57.0483C95.6239 47.8377 88.1572 40.3711 78.9467 40.3711C69.7362 40.3711 62.2695 47.8377 62.2695 57.0483C62.2695 66.2588 69.7362 73.7254 78.9467 73.7254Z" fill="#F0D246" stroke="#524740" stroke-width="1.05" stroke-linecap="round" stroke-linejoin="round"/>
<path d="M147.496 91.3891C147.792 91.525 148.089 91.5867 148.397 91.5867C148.644 91.5867 148.867 91.5373 149.077 91.4509C149.275 91.3644 149.447 91.2408 149.583 91.0926C149.719 90.9444 149.818 90.7714 149.892 90.5614C149.966 90.3514 150.003 90.1414 150.003 89.9067C150.003 89.4249 149.867 89.0666 149.583 88.8319C149.299 88.5972 148.929 88.4737 148.447 88.4737C148.249 88.4737 148.051 88.4984 147.854 88.5354C147.656 88.5725 147.459 88.6219 147.261 88.6713L146.557 88.4737L147.174 84.8047H150.893V85.8547H147.977L147.669 87.646C148.014 87.5719 148.36 87.5348 148.682 87.5348C149.04 87.5348 149.361 87.5842 149.657 87.683C149.954 87.7819 150.213 87.9301 150.436 88.1278C150.658 88.3254 150.831 88.5725 150.955 88.8566C151.078 89.1407 151.14 89.4743 151.14 89.8573C151.14 90.2649 151.066 90.6232 150.93 90.9691C150.794 91.3026 150.596 91.5867 150.349 91.8215C150.102 92.0562 149.806 92.2415 149.46 92.3774C149.114 92.5132 148.731 92.575 148.323 92.575C148.027 92.575 147.718 92.5256 147.397 92.4391C147.076 92.3526 146.804 92.2168 146.557 92.0315C146.396 91.9326 146.26 91.8215 146.137 91.7103L146.73 90.8826C146.952 91.0926 147.211 91.2656 147.496 91.4014V91.3891Z" fill="#534741"/>
<path d="M152.227 92.4887V91.8216L154.808 89.2274C154.994 89.0421 155.154 88.8692 155.315 88.6839C155.476 88.4986 155.624 88.3009 155.76 88.0909C155.896 87.8562 155.994 87.5968 156.056 87.325C156.118 87.0532 156.118 86.7938 156.069 86.5467C156.019 86.312 155.896 86.102 155.71 85.9414C155.525 85.7808 155.241 85.6943 154.87 85.6943C154.66 85.6943 154.475 85.7314 154.302 85.8055C154.129 85.8796 153.981 85.9785 153.857 86.102C153.734 86.2255 153.635 86.3738 153.573 86.5467C153.511 86.7197 153.487 86.905 153.499 87.115L152.362 86.905C152.461 86.2132 152.733 85.6696 153.19 85.2867C153.647 84.9037 154.228 84.7061 154.944 84.7061C155.266 84.7061 155.574 84.7555 155.858 84.8419C156.143 84.9284 156.39 85.0767 156.6 85.262C156.81 85.4473 156.983 85.6696 157.106 85.9414C157.23 86.2132 157.291 86.522 157.291 86.8679C157.291 87.1644 157.242 87.4238 157.156 87.6832C157.069 87.9303 156.946 88.165 156.797 88.3997C156.649 88.6345 156.476 88.8321 156.291 89.0421C156.106 89.2398 155.908 89.4374 155.723 89.6351L153.771 91.6116C153.931 91.5746 154.092 91.5375 154.265 91.5128C154.438 91.4881 154.598 91.4758 154.771 91.4758H157.427V92.4887H152.227Z" fill="#534741"/>
<path d="M162.873 90.549V92.4885H161.873V90.549H158.117V89.7214L161.811 84.8047H162.886V89.6596H163.948V90.549H162.886H162.873ZM161.873 86.8554C161.873 86.7318 161.873 86.6206 161.885 86.4971C161.885 86.3736 161.91 86.25 161.922 86.1142L159.34 89.6596H161.86V86.8554H161.873Z" fill="#534741"/>
<path d="M166.507 92.4885H165.26L168.36 86.4106C168.447 86.213 168.57 86.0277 168.719 85.8547H164.617V84.8047H169.88V85.62L166.507 92.4885Z" fill="#534741"/>
<path d="M175.252 90.549V92.4885H174.252V90.549H170.496V89.7214L174.19 84.8047H175.265V89.6596H176.327V90.549H175.265H175.252ZM174.252 86.8554C174.252 86.7318 174.252 86.6206 174.264 86.4971C174.264 86.3736 174.289 86.25 174.301 86.1142L171.719 89.6596H174.239V86.8554H174.252Z" fill="#534741"/>
<path d="M182.256 90.0428C182.17 90.5122 182.009 90.9322 181.799 91.3028C181.589 91.6734 181.293 91.9823 180.935 92.217C180.576 92.4517 180.132 92.5753 179.6 92.5753C179.069 92.5753 178.625 92.4517 178.266 92.217C177.908 91.9823 177.624 91.6734 177.402 91.3028C177.179 90.9322 177.031 90.4999 176.945 90.0428C176.858 89.5857 176.809 89.1163 176.809 88.6592C176.809 88.2021 176.858 87.745 176.945 87.2756C177.031 86.8062 177.192 86.3862 177.402 86.0156C177.612 85.645 177.908 85.3361 178.266 85.1014C178.625 84.8667 179.069 84.7432 179.6 84.7432C180.132 84.7432 180.589 84.8667 180.947 85.1014C181.305 85.3361 181.589 85.6573 181.812 86.0403C182.022 86.4232 182.182 86.8432 182.269 87.3127C182.355 87.7821 182.405 88.2268 182.405 88.6716C182.405 89.1163 182.355 89.5857 182.269 90.0551L182.256 90.0428ZM181.157 87.7451C181.12 87.4115 181.046 87.078 180.935 86.7815C180.823 86.4726 180.663 86.2256 180.441 86.0156C180.231 85.8056 179.946 85.7067 179.588 85.7067C179.23 85.7067 178.946 85.8056 178.736 86.0156C178.526 86.2256 178.365 86.485 178.242 86.7815C178.13 87.0903 178.056 87.4115 178.019 87.7451C177.982 88.0786 177.97 88.3874 177.97 88.6592C177.97 88.931 177.982 89.2398 178.019 89.5734C178.056 89.9069 178.13 90.2404 178.242 90.5369C178.353 90.8458 178.526 91.0928 178.736 91.3028C178.946 91.5129 179.23 91.6117 179.588 91.6117C179.946 91.6117 180.231 91.5129 180.441 91.3028C180.651 91.0928 180.811 90.8334 180.935 90.5369C181.046 90.2281 181.12 89.9069 181.157 89.5734C181.194 89.2398 181.206 88.931 181.206 88.6592C181.206 88.3874 181.194 88.0786 181.157 87.7451Z" fill="#534741"/>
<path d="M162.443 73.7244C171.653 73.7244 179.12 66.2578 179.12 57.0473C179.12 47.8367 171.653 40.3701 162.443 40.3701C153.232 40.3701 145.766 47.8367 145.766 57.0473C145.766 66.2578 153.232 73.7244 162.443 73.7244Z" fill="#524740" stroke="#524740" stroke-width="1.05" stroke-miterlimit="10"/>
<path d="M236.432 84.8418V85.8548H233.109V88.1896H235.938V89.2026H233.109V92.5009H231.898V84.8542H236.432V84.8418Z" fill="#534741"/>
<path d="M242.315 84.8418V85.8548H238.992V88.1896H241.821V89.2026H238.992V92.5009H237.781V84.8542H242.315V84.8418Z" fill="#534741"/>
<path d="M248.194 84.8418V85.8548H244.871V88.1896H247.7V89.2026H244.871V92.5009H243.66V84.8542H248.194V84.8418Z" fill="#534741"/>
<path d="M254.073 84.8418V85.8548H250.75V88.1896H253.579V89.2026H250.75V92.5009H249.539V84.8542H254.073V84.8418Z" fill="#534741"/>
<path d="M259.952 84.8418V85.8548H256.629V88.1896H259.458V89.2026H256.629V92.5009H255.418V84.8542H259.952V84.8418Z" fill="#534741"/>
<path d="M265.834 84.8418V85.8548H262.511V88.1896H265.34V89.2026H262.511V92.5009H261.301V84.8542H265.834V84.8418Z" fill="#534741"/>
<path d="M247.474 73.7244C256.685 73.7244 264.151 66.2578 264.151 57.0473C264.151 47.8367 256.685 40.3701 247.474 40.3701C238.263 40.3701 230.797 47.8367 230.797 57.0473C230.797 66.2578 238.263 73.7244 247.474 73.7244Z" fill="white" stroke="#524740" stroke-width="1.05" stroke-linecap="round" stroke-linejoin="round"/>
<path d="M313.905 90.6982C314.003 90.8835 314.127 91.0317 314.275 91.1676C314.424 91.3035 314.584 91.4023 314.769 91.4888C314.955 91.5753 315.152 91.6123 315.338 91.6123C315.523 91.6123 315.721 91.5753 315.894 91.5135C316.067 91.4517 316.227 91.3652 316.363 91.2541C316.499 91.1429 316.61 91.007 316.684 90.8341C316.758 90.6611 316.808 90.4882 316.808 90.2905C316.808 89.994 316.758 89.7717 316.647 89.5987C316.536 89.4258 316.4 89.2899 316.227 89.2034C316.054 89.1169 315.857 89.0551 315.634 89.0304C315.412 89.0057 315.189 88.9934 314.942 88.9934V88.1657C315.152 88.1657 315.362 88.1533 315.572 88.1163C315.782 88.0792 315.968 88.0175 316.128 87.9186C316.289 87.8198 316.412 87.6963 316.524 87.5357C316.622 87.3751 316.672 87.1651 316.672 86.918C316.672 86.5474 316.561 86.2509 316.351 86.0409C316.128 85.8309 315.832 85.7197 315.449 85.7197C315.251 85.7197 315.066 85.7568 314.893 85.8309C314.72 85.905 314.559 86.0038 314.436 86.1274C314.312 86.2509 314.213 86.3992 314.152 86.5721C314.09 86.7451 314.065 86.9304 314.078 87.1404L312.941 86.9427C313.04 86.2509 313.312 85.7197 313.756 85.3244C314.201 84.9291 314.794 84.7314 315.498 84.7314C315.795 84.7314 316.067 84.7685 316.351 84.855C316.622 84.9415 316.869 85.065 317.079 85.2256C317.289 85.3862 317.462 85.5962 317.586 85.8433C317.71 86.0903 317.784 86.3745 317.784 86.6956C317.784 87.1404 317.685 87.511 317.487 87.7951C317.29 88.0916 316.968 88.3016 316.524 88.4375C316.981 88.5734 317.339 88.7834 317.586 89.0799C317.833 89.3763 317.957 89.7593 317.957 90.2534C317.957 90.624 317.883 90.9452 317.747 91.2294C317.611 91.5135 317.425 91.7606 317.191 91.9582C316.956 92.1559 316.684 92.3165 316.363 92.4153C316.042 92.5141 315.708 92.5759 315.362 92.5759C314.658 92.5759 314.09 92.4153 313.67 92.0817C313.25 91.7606 312.929 91.2417 312.719 90.5499L313.732 90.1299C313.756 90.3276 313.818 90.5129 313.917 90.6858L313.905 90.6982Z" fill="#534741"/>
<path d="M320.104 90.6982C320.203 90.8835 320.326 91.0317 320.475 91.1676C320.623 91.3035 320.783 91.4023 320.969 91.4888C321.154 91.5753 321.352 91.6123 321.537 91.6123C321.722 91.6123 321.92 91.5753 322.093 91.5135C322.266 91.4517 322.426 91.3652 322.562 91.2541C322.698 91.1429 322.809 91.007 322.883 90.8341C322.958 90.6611 323.007 90.4882 323.007 90.2905C323.007 89.994 322.958 89.7717 322.846 89.5987C322.735 89.4258 322.599 89.2899 322.426 89.2034C322.253 89.1169 322.056 89.0551 321.833 89.0304C321.611 89.0057 321.389 88.9934 321.142 88.9934V88.1657C321.352 88.1657 321.562 88.1533 321.772 88.1163C321.982 88.0792 322.167 88.0175 322.328 87.9186C322.488 87.8198 322.612 87.6963 322.723 87.5357C322.822 87.3751 322.871 87.1651 322.871 86.918C322.871 86.5474 322.76 86.2509 322.55 86.0409C322.328 85.8309 322.031 85.7197 321.648 85.7197C321.45 85.7197 321.265 85.7568 321.092 85.8309C320.919 85.905 320.759 86.0038 320.635 86.1274C320.512 86.2509 320.413 86.3992 320.351 86.5721C320.289 86.7451 320.265 86.9304 320.277 87.1404L319.14 86.9427C319.239 86.2509 319.511 85.7197 319.956 85.3244C320.4 84.9291 320.993 84.7314 321.697 84.7314C321.994 84.7314 322.266 84.7685 322.55 84.855C322.822 84.9415 323.069 85.065 323.279 85.2256C323.489 85.3862 323.662 85.5962 323.785 85.8433C323.909 86.0903 323.983 86.3745 323.983 86.6956C323.983 87.1404 323.884 87.511 323.686 87.7951C323.489 88.0916 323.168 88.3016 322.723 88.4375C323.18 88.5734 323.538 88.7834 323.785 89.0799C324.032 89.3763 324.156 89.7593 324.156 90.2534C324.156 90.624 324.082 90.9452 323.946 91.2294C323.81 91.5135 323.625 91.7606 323.39 91.9582C323.155 92.1559 322.883 92.3165 322.562 92.4153C322.241 92.5141 321.908 92.5759 321.562 92.5759C320.857 92.5759 320.289 92.4153 319.869 92.0817C319.449 91.7606 319.128 91.2417 318.918 90.5499L319.931 90.1299C319.956 90.3276 320.017 90.5129 320.116 90.6858L320.104 90.6982Z" fill="#534741"/>
<path d="M326.295 90.6982C326.394 90.8835 326.518 91.0317 326.666 91.1676C326.814 91.3035 326.975 91.4023 327.16 91.4888C327.345 91.5753 327.543 91.6123 327.728 91.6123C327.914 91.6123 328.111 91.5753 328.284 91.5135C328.457 91.4517 328.618 91.3652 328.754 91.2541C328.89 91.1429 329.001 91.007 329.075 90.8341C329.149 90.6611 329.198 90.4882 329.198 90.2905C329.198 89.994 329.149 89.7717 329.038 89.5987C328.927 89.4258 328.791 89.2899 328.618 89.2034C328.445 89.1169 328.247 89.0551 328.025 89.0304C327.802 89.0057 327.58 88.9934 327.333 88.9934V88.1657C327.543 88.1657 327.753 88.1533 327.963 88.1163C328.173 88.0792 328.358 88.0175 328.519 87.9186C328.68 87.8198 328.803 87.6963 328.914 87.5357C329.013 87.3751 329.062 87.1651 329.062 86.918C329.062 86.5474 328.951 86.2509 328.741 86.0409C328.519 85.8309 328.222 85.7197 327.84 85.7197C327.642 85.7197 327.457 85.7568 327.284 85.8309C327.111 85.905 326.95 86.0038 326.827 86.1274C326.703 86.2509 326.604 86.3992 326.542 86.5721C326.481 86.7451 326.456 86.9304 326.468 87.1404L325.332 86.9427C325.431 86.2509 325.702 85.7197 326.147 85.3244C326.592 84.9291 327.185 84.7314 327.889 84.7314C328.185 84.7314 328.457 84.7685 328.741 84.855C329.013 84.9415 329.26 85.065 329.47 85.2256C329.68 85.3862 329.853 85.5962 329.977 85.8433C330.1 86.0903 330.174 86.3745 330.174 86.6956C330.174 87.1404 330.076 87.511 329.878 87.7951C329.68 88.0916 329.359 88.3016 328.914 88.4375C329.371 88.5734 329.73 88.7834 329.977 89.0799C330.224 89.3763 330.347 89.7593 330.347 90.2534C330.347 90.624 330.273 90.9452 330.137 91.2294C330.001 91.5135 329.816 91.7606 329.581 91.9582C329.347 92.1559 329.075 92.3165 328.754 92.4153C328.432 92.5141 328.099 92.5759 327.753 92.5759C327.049 92.5759 326.481 92.4153 326.061 92.0817C325.641 91.7606 325.319 91.2417 325.109 90.5499L326.122 90.1299C326.147 90.3276 326.209 90.5129 326.308 90.6858L326.295 90.6982Z" fill="#534741"/>
<path d="M332.483 90.6982C332.582 90.8835 332.705 91.0317 332.853 91.1676C333.002 91.3035 333.162 91.4023 333.348 91.4888C333.533 91.5753 333.73 91.6123 333.916 91.6123C334.101 91.6123 334.299 91.5753 334.472 91.5135C334.645 91.4517 334.805 91.3652 334.941 91.2541C335.077 91.1429 335.188 91.007 335.262 90.8341C335.336 90.6611 335.386 90.4882 335.386 90.2905C335.386 89.994 335.336 89.7717 335.225 89.5987C335.114 89.4258 334.978 89.2899 334.805 89.2034C334.632 89.1169 334.435 89.0551 334.212 89.0304C333.99 89.0057 333.768 88.9934 333.52 88.9934V88.1657C333.73 88.1657 333.941 88.1533 334.151 88.1163C334.361 88.0792 334.546 88.0175 334.706 87.9186C334.867 87.8198 334.991 87.6963 335.102 87.5357C335.201 87.3751 335.25 87.1651 335.25 86.918C335.25 86.5474 335.139 86.2509 334.929 86.0409C334.706 85.8309 334.41 85.7197 334.027 85.7197C333.829 85.7197 333.644 85.7568 333.471 85.8309C333.298 85.905 333.138 86.0038 333.014 86.1274C332.89 86.2509 332.792 86.3992 332.73 86.5721C332.668 86.7451 332.643 86.9304 332.656 87.1404L331.519 86.9427C331.618 86.2509 331.89 85.7197 332.335 85.3244C332.779 84.9291 333.372 84.7314 334.076 84.7314C334.373 84.7314 334.645 84.7685 334.929 84.855C335.201 84.9415 335.448 85.065 335.658 85.2256C335.868 85.3862 336.041 85.5962 336.164 85.8433C336.288 86.0903 336.362 86.3745 336.362 86.6956C336.362 87.1404 336.263 87.511 336.065 87.7951C335.868 88.0916 335.546 88.3016 335.102 88.4375C335.559 88.5734 335.917 88.7834 336.164 89.0799C336.411 89.3763 336.535 89.7593 336.535 90.2534C336.535 90.624 336.461 90.9452 336.325 91.2294C336.189 91.5135 336.004 91.7606 335.769 91.9582C335.534 92.1559 335.262 92.3165 334.941 92.4153C334.62 92.5141 334.286 92.5759 333.941 92.5759C333.236 92.5759 332.668 92.4153 332.248 92.0817C331.828 91.7606 331.507 91.2417 331.297 90.5499L332.31 90.1299C332.335 90.3276 332.396 90.5129 332.495 90.6858L332.483 90.6982Z" fill="#534741"/>
<path d="M338.674 90.6982C338.773 90.8835 338.897 91.0317 339.045 91.1676C339.193 91.3035 339.354 91.4023 339.539 91.4888C339.724 91.5753 339.922 91.6123 340.107 91.6123C340.293 91.6123 340.49 91.5753 340.663 91.5135C340.836 91.4517 340.997 91.3652 341.133 91.2541C341.268 91.1429 341.38 91.007 341.454 90.8341C341.528 90.6611 341.577 90.4882 341.577 90.2905C341.577 89.994 341.528 89.7717 341.417 89.5987C341.305 89.4258 341.17 89.2899 340.997 89.2034C340.824 89.1169 340.626 89.0551 340.404 89.0304C340.181 89.0057 339.959 88.9934 339.712 88.9934V88.1657C339.922 88.1657 340.132 88.1533 340.342 88.1163C340.552 88.0792 340.737 88.0175 340.898 87.9186C341.058 87.8198 341.182 87.6963 341.293 87.5357C341.392 87.3751 341.441 87.1651 341.441 86.918C341.441 86.5474 341.33 86.2509 341.12 86.0409C340.898 85.8309 340.601 85.7197 340.218 85.7197C340.021 85.7197 339.835 85.7568 339.663 85.8309C339.49 85.905 339.329 86.0038 339.205 86.1274C339.082 86.2509 338.983 86.3992 338.921 86.5721C338.859 86.7451 338.835 86.9304 338.847 87.1404L337.711 86.9427C337.809 86.2509 338.081 85.7197 338.526 85.3244C338.971 84.9291 339.564 84.7314 340.268 84.7314C340.564 84.7314 340.836 84.7685 341.12 84.855C341.392 84.9415 341.639 85.065 341.849 85.2256C342.059 85.3862 342.232 85.5962 342.356 85.8433C342.479 86.0903 342.553 86.3745 342.553 86.6956C342.553 87.1404 342.454 87.511 342.257 87.7951C342.059 88.0916 341.738 88.3016 341.293 88.4375C341.75 88.5734 342.108 88.7834 342.356 89.0799C342.603 89.3763 342.726 89.7593 342.726 90.2534C342.726 90.624 342.652 90.9452 342.516 91.2294C342.38 91.5135 342.195 91.7606 341.96 91.9582C341.726 92.1559 341.454 92.3165 341.133 92.4153C340.811 92.5141 340.478 92.5759 340.132 92.5759C339.428 92.5759 338.86 92.4153 338.44 92.0817C338.02 91.7606 337.698 91.2417 337.488 90.5499L338.501 90.1299C338.526 90.3276 338.588 90.5129 338.687 90.6858L338.674 90.6982Z" fill="#534741"/>
<path d="M344.873 90.6982C344.972 90.8835 345.096 91.0317 345.244 91.1676C345.392 91.3035 345.553 91.4023 345.738 91.4888C345.923 91.5753 346.121 91.6123 346.306 91.6123C346.492 91.6123 346.689 91.5753 346.862 91.5135C347.035 91.4517 347.196 91.3652 347.332 91.2541C347.468 91.1429 347.579 91.007 347.653 90.8341C347.727 90.6611 347.776 90.4882 347.776 90.2905C347.776 89.994 347.727 89.7717 347.616 89.5987C347.505 89.4258 347.369 89.2899 347.196 89.2034C347.023 89.1169 346.825 89.0551 346.603 89.0304C346.381 89.0057 346.158 88.9934 345.911 88.9934V88.1657C346.121 88.1657 346.331 88.1533 346.541 88.1163C346.751 88.0792 346.936 88.0175 347.097 87.9186C347.258 87.8198 347.381 87.6963 347.492 87.5357C347.591 87.3751 347.641 87.1651 347.641 86.918C347.641 86.5474 347.529 86.2509 347.319 86.0409C347.097 85.8309 346.801 85.7197 346.418 85.7197C346.22 85.7197 346.035 85.7568 345.862 85.8309C345.689 85.905 345.528 86.0038 345.405 86.1274C345.281 86.2509 345.182 86.3992 345.12 86.5721C345.059 86.7451 345.034 86.9304 345.046 87.1404L343.91 86.9427C344.009 86.2509 344.28 85.7197 344.725 85.3244C345.17 84.9291 345.763 84.7314 346.467 84.7314C346.764 84.7314 347.035 84.7685 347.319 84.855C347.591 84.9415 347.838 85.065 348.048 85.2256C348.258 85.3862 348.431 85.5962 348.555 85.8433C348.678 86.0903 348.752 86.3745 348.752 86.6956C348.752 87.1404 348.654 87.511 348.456 87.7951C348.258 88.0916 347.937 88.3016 347.492 88.4375C347.949 88.5734 348.308 88.7834 348.555 89.0799C348.802 89.3763 348.925 89.7593 348.925 90.2534C348.925 90.624 348.851 90.9452 348.715 91.2294C348.579 91.5135 348.394 91.7606 348.159 91.9582C347.925 92.1559 347.653 92.3165 347.332 92.4153C347.011 92.5141 346.677 92.5759 346.331 92.5759C345.627 92.5759 345.059 92.4153 344.639 92.0817C344.219 91.7606 343.898 91.2417 343.688 90.5499L344.7 90.1299C344.725 90.3276 344.787 90.5129 344.886 90.6858L344.873 90.6982Z" fill="#534741"/>
<path d="M330.372 73.7244C339.583 73.7244 347.05 66.2578 347.05 57.0473C347.05 47.8367 339.583 40.3701 330.372 40.3701C321.162 40.3701 313.695 47.8367 313.695 57.0473C313.695 66.2578 321.162 73.7244 330.372 73.7244Z" fill="#333333" stroke="#524740" stroke-width="1.05" stroke-linecap="round" stroke-linejoin="round"/>
<path d="M401.272 84.8428V85.8558H397.949V88.1906H400.778V89.2035H397.949V92.5019H396.738V84.8551H401.272V84.8428Z" fill="#534741"/>
<path d="M407.155 84.8428V85.8558H403.832V88.1906H406.661V89.2035H403.832V92.5019H402.621V84.8551H407.155V84.8428Z" fill="#534741"/>
<path d="M411.169 89.4752L411.527 88.981C411.33 89.1169 411.12 89.2158 410.885 89.2899C410.65 89.364 410.428 89.3887 410.181 89.3887C409.86 89.3887 409.575 89.3393 409.304 89.2281C409.044 89.1169 408.81 88.9687 408.624 88.771C408.439 88.5734 408.291 88.3387 408.192 88.0669C408.093 87.7951 408.031 87.4986 408.031 87.1898C408.031 86.8315 408.093 86.498 408.229 86.2015C408.365 85.905 408.55 85.6456 408.785 85.4232C409.02 85.2132 409.291 85.0403 409.6 84.9167C409.909 84.7932 410.255 84.7314 410.613 84.7314C410.971 84.7314 411.317 84.7932 411.626 84.9044C411.935 85.0156 412.194 85.1885 412.417 85.3985C412.639 85.6085 412.812 85.8803 412.936 86.1892C413.059 86.498 413.121 86.8439 413.121 87.2392C413.121 87.7086 413.034 88.1286 412.874 88.5116C412.713 88.8822 412.503 89.2652 412.231 89.6481L410.243 92.5018H408.785L411.144 89.4875L411.169 89.4752ZM409.563 88.1286C409.81 88.3757 410.144 88.5116 410.588 88.5116C410.798 88.5116 410.996 88.4745 411.181 88.4128C411.354 88.3386 411.515 88.2522 411.639 88.1286C411.762 88.0051 411.873 87.8569 411.935 87.6839C412.009 87.511 412.046 87.3257 412.046 87.1157C412.046 86.6956 411.923 86.3497 411.663 86.078C411.404 85.8062 411.058 85.6827 410.613 85.6827C410.403 85.6827 410.218 85.7197 410.045 85.7815C409.872 85.8433 409.724 85.9421 409.6 86.078C409.477 86.2015 409.378 86.3497 409.304 86.5227C409.23 86.6956 409.192 86.8933 409.192 87.1033C409.192 87.5357 409.316 87.8816 409.551 88.141L409.563 88.1286Z" fill="#534741"/>
<path d="M419.049 89.1663C419.296 89.4875 419.407 89.8828 419.407 90.3523C419.407 90.7352 419.333 91.0688 419.185 91.3405C419.037 91.6123 418.839 91.847 418.592 92.0323C418.345 92.2176 418.061 92.3535 417.752 92.44C417.431 92.5265 417.109 92.5759 416.776 92.5759C416.442 92.5759 416.084 92.5265 415.763 92.44C415.442 92.3535 415.17 92.2053 414.923 92.02C414.688 91.8347 414.49 91.6 414.355 91.3282C414.219 91.0564 414.145 90.7229 414.145 90.3523C414.145 89.8705 414.268 89.4628 414.515 89.154C414.762 88.8451 415.108 88.6228 415.565 88.4745C415.182 88.3263 414.886 88.1039 414.688 87.8198C414.49 87.5233 414.392 87.1774 414.392 86.7698C414.392 86.4486 414.453 86.1521 414.589 85.905C414.725 85.658 414.898 85.4356 415.108 85.2626C415.33 85.0897 415.578 84.9538 415.862 84.8673C416.146 84.7809 416.442 84.7314 416.751 84.7314C417.06 84.7314 417.356 84.7809 417.641 84.8673C417.925 84.9538 418.184 85.0897 418.394 85.2626C418.616 85.4356 418.789 85.6456 418.913 85.905C419.036 86.1644 419.111 86.4486 419.111 86.7698C419.111 87.1774 419.012 87.5357 418.814 87.8198C418.617 88.1163 418.332 88.3387 417.949 88.4745C418.406 88.6104 418.752 88.8451 418.999 89.154L419.049 89.1663ZM417.344 91.5876C417.517 91.5382 417.678 91.4517 417.801 91.3282C417.937 91.217 418.036 91.0688 418.11 90.9082C418.184 90.7476 418.221 90.5499 418.221 90.3276C418.221 89.8705 418.085 89.5246 417.801 89.3022C417.529 89.0799 417.183 88.9687 416.763 88.9687C416.343 88.9687 415.998 89.0799 415.726 89.3022C415.454 89.5246 415.306 89.8705 415.306 90.3276C415.306 90.7476 415.442 91.0811 415.713 91.3158C415.985 91.5506 416.331 91.6741 416.763 91.6741C416.961 91.6741 417.159 91.6494 417.332 91.5876H417.344ZM415.874 85.9174C415.639 86.1274 415.528 86.4115 415.528 86.7945C415.528 87.2021 415.639 87.511 415.862 87.7333C416.084 87.9557 416.393 88.0669 416.788 88.0669C417.183 88.0669 417.48 87.9557 417.702 87.7333C417.925 87.511 418.036 87.2021 418.036 86.7945C418.036 86.4115 417.912 86.1274 417.678 85.9174C417.443 85.7074 417.134 85.6085 416.788 85.6085C416.418 85.6085 416.109 85.7074 415.874 85.9174Z" fill="#534741"/>
<path d="M423.544 89.4752L423.902 88.981C423.705 89.1169 423.495 89.2158 423.26 89.2899C423.025 89.364 422.803 89.3887 422.556 89.3887C422.235 89.3887 421.95 89.3393 421.679 89.2281C421.419 89.1169 421.184 88.9687 420.999 88.771C420.814 88.5734 420.666 88.3387 420.567 88.0669C420.468 87.7951 420.406 87.4986 420.406 87.1898C420.406 86.8315 420.468 86.498 420.604 86.2015C420.74 85.905 420.925 85.6456 421.16 85.4232C421.395 85.2132 421.666 85.0403 421.975 84.9167C422.284 84.7932 422.63 84.7314 422.988 84.7314C423.346 84.7314 423.692 84.7932 424.001 84.9044C424.31 85.0156 424.569 85.1885 424.792 85.3985C425.014 85.6085 425.187 85.8803 425.311 86.1892C425.434 86.498 425.496 86.8439 425.496 87.2392C425.496 87.7086 425.409 88.1286 425.249 88.5116C425.088 88.8822 424.878 89.2652 424.606 89.6481L422.617 92.5018H421.16L423.519 89.4875L423.544 89.4752ZM421.938 88.1286C422.185 88.3757 422.519 88.5116 422.963 88.5116C423.173 88.5116 423.371 88.4745 423.556 88.4128C423.729 88.3386 423.89 88.2522 424.013 88.1286C424.137 88.0051 424.248 87.8569 424.31 87.6839C424.384 87.511 424.421 87.3257 424.421 87.1157C424.421 86.6956 424.298 86.3497 424.038 86.078C423.779 85.8062 423.433 85.6827 422.988 85.6827C422.778 85.6827 422.593 85.7197 422.42 85.7815C422.247 85.8433 422.099 85.9421 421.975 86.078C421.852 86.2015 421.753 86.3497 421.679 86.5227C421.605 86.6956 421.567 86.8933 421.567 87.1033C421.567 87.5357 421.691 87.8816 421.926 88.141L421.938 88.1286Z" fill="#534741"/>
<path d="M431.439 89.1663C431.687 89.4875 431.798 89.8828 431.798 90.3523C431.798 90.7352 431.724 91.0688 431.575 91.3405C431.427 91.6123 431.229 91.847 430.982 92.0323C430.735 92.2176 430.451 92.3535 430.142 92.44C429.821 92.5265 429.5 92.5759 429.166 92.5759C428.833 92.5759 428.475 92.5265 428.153 92.44C427.832 92.3535 427.56 92.2053 427.313 92.02C427.079 91.8347 426.881 91.6 426.745 91.3282C426.609 91.0564 426.535 90.7229 426.535 90.3523C426.535 89.8705 426.659 89.4628 426.906 89.154C427.153 88.8451 427.499 88.6228 427.956 88.4745C427.573 88.3263 427.276 88.1039 427.079 87.8198C426.881 87.5233 426.782 87.1774 426.782 86.7698C426.782 86.4486 426.844 86.1521 426.98 85.905C427.116 85.658 427.289 85.4356 427.499 85.2626C427.721 85.0897 427.968 84.9538 428.252 84.8673C428.536 84.7809 428.833 84.7314 429.142 84.7314C429.451 84.7314 429.747 84.7809 430.031 84.8673C430.315 84.9538 430.575 85.0897 430.785 85.2626C431.007 85.4356 431.18 85.6456 431.304 85.905C431.427 86.1644 431.501 86.4486 431.501 86.7698C431.501 87.1774 431.402 87.5357 431.205 87.8198C431.007 88.1163 430.723 88.3387 430.34 88.4745C430.797 88.6104 431.143 88.8451 431.39 89.154L431.439 89.1663ZM429.735 91.5876C429.908 91.5382 430.068 91.4517 430.192 91.3282C430.328 91.217 430.426 91.0688 430.501 90.9082C430.575 90.7476 430.612 90.5499 430.612 90.3276C430.612 89.8705 430.476 89.5246 430.192 89.3022C429.92 89.0799 429.574 88.9687 429.154 88.9687C428.734 88.9687 428.388 89.0799 428.116 89.3022C427.845 89.5246 427.696 89.8705 427.696 90.3276C427.696 90.7476 427.832 91.0811 428.104 91.3158C428.376 91.5506 428.722 91.6741 429.154 91.6741C429.352 91.6741 429.549 91.6494 429.722 91.5876H429.735ZM428.265 85.9174C428.03 86.1274 427.919 86.4115 427.919 86.7945C427.919 87.2021 428.03 87.511 428.252 87.7333C428.475 87.9557 428.783 88.0669 429.179 88.0669C429.574 88.0669 429.871 87.9557 430.093 87.7333C430.315 87.511 430.426 87.2021 430.426 86.7945C430.426 86.4115 430.303 86.1274 430.068 85.9174C429.834 85.7074 429.525 85.6085 429.179 85.6085C428.808 85.6085 428.499 85.7074 428.265 85.9174Z" fill="#534741"/>
<path d="M414.165 73.7244C423.376 73.7244 430.843 66.2578 430.843 57.0473C430.843 47.8367 423.376 40.3701 414.165 40.3701C404.955 40.3701 397.488 47.8367 397.488 57.0473C397.488 66.2578 404.955 73.7244 414.165 73.7244Z" fill="#FF9898" stroke="#524740" stroke-width="1.05" stroke-miterlimit="10"/>
<path d="M27.3828 318.076H477.666" stroke="#847974" stroke-width="0.29" stroke-miterlimit="10"/>
<path d="M27.3828 327.662H477.666" stroke="#847974" stroke-width="0.29" stroke-miterlimit="10"/>
<path opacity="0.56" d="M27.3828 341.029H477.666" stroke="#847974" stroke-width="0.29" stroke-miterlimit="10"/>
<path opacity="0.56" d="M27.3828 347.503H477.666" stroke="#847974" stroke-width="0.29" stroke-miterlimit="10"/>
<path opacity="0.56" d="M27.3828 404.192H477.666" stroke="#847974" stroke-width="0.29" stroke-miterlimit="10"/>
<path opacity="0.56" d="M27.3828 396.496H477.666" stroke="#847974" stroke-width="0.29" stroke-miterlimit="10"/>
<path opacity="0.56" d="M27.3828 418.769H477.666" stroke="#847974" stroke-width="0.29" stroke-miterlimit="10"/>
<path opacity="0.56" d="M27.3828 400.548H477.666" stroke="#847974" stroke-width="0.29" stroke-miterlimit="10"/>
<path d="M27.3828 366.132H477.666" stroke="#847974" stroke-width="0.29" stroke-miterlimit="10"/>
<path d="M27.3828 425.255H477.666" stroke="#847974" stroke-width="0.29" stroke-miterlimit="10"/>
<path d="M94.9805 419.979L95.0299 416.396L101.725 416.631L101.454 419.769L94.9805 419.979Z" fill="#F0D246" stroke="#524740" stroke-width="0.48" stroke-linecap="round" stroke-linejoin="round"/>
<path d="M89.928 419.979L89.8909 416.396L83.1953 416.631L83.4547 419.769L89.928 419.979Z" fill="#F0D246" stroke="#524740" stroke-width="0.48" stroke-linecap="round" stroke-linejoin="round"/>
<path d="M75.2617 389.664C75.2617 389.664 78.0536 405.056 80.0548 411.641C82.0684 418.213 82.5997 417.447 85.0209 417.669C87.4422 417.892 90.6294 417.669 90.6294 415.693C90.6294 413.716 89.0482 400.127 91.9018 400.127H92.7542C95.6079 400.127 94.0266 413.716 94.0266 415.693C94.0266 417.669 97.2014 417.879 99.6351 417.669C102.069 417.459 102.6 418.213 104.601 411.641C106.602 405.069 109.431 389.837 109.431 389.837L75.2617 389.676V389.664Z" fill="#333333" stroke="#524740" stroke-width="0.47" stroke-linecap="round" stroke-linejoin="round"/>
<path d="M95.6358 418.966H101.331C102.788 418.966 103.974 420.152 103.974 421.609V425.019H92.9922V421.609C92.9922 420.152 94.1781 418.966 95.6358 418.966Z" fill="#333333" stroke="#524740" stroke-width="0.49" stroke-linecap="round" stroke-linejoin="round"/>
<path d="M83.4768 418.966H89.8759C91.1359 418.966 92.1736 419.991 92.1736 421.264V425.019H81.1914V421.264C81.1914 420.004 82.2168 418.966 83.4892 418.966H83.4768Z" fill="#333333" stroke="#524740" stroke-width="0.49" stroke-linecap="round" stroke-linejoin="round"/>
<path d="M68.5456 390.813C68.5456 390.813 68.0514 391.641 66.6555 392.913C65.2596 394.186 62.8383 395.755 64.0242 397.398C64.9507 398.67 66.2725 397.015 66.2725 397.015C66.2725 397.015 64.3825 401.61 67.1991 403.191C70.7692 405.205 75.2782 403.13 75.1176 398.299C74.957 393.469 74.9941 391.171 73.1534 390.727C71.3251 390.27 68.9656 389.874 68.5579 390.813H68.5456Z" fill="white" stroke="#524740" stroke-width="0.43" stroke-linecap="round" stroke-linejoin="round"/>
<path d="M77.2432 364.154C77.2432 364.154 71.8571 369.38 68.3364 379.609C64.8157 389.837 65.7916 392.259 68.7935 393.284C71.7954 394.309 75.3779 395.26 75.5138 391.9C75.6497 388.54 76.8727 377.867 78.8616 373.444C81.4682 367.626 82.1352 364.871 80.1463 363.537C79.1086 362.833 78.0092 363.45 77.2432 364.167V364.154Z" fill="#F0D246" stroke="#524740" stroke-width="0.48" stroke-linecap="round" stroke-linejoin="round"/>
<path d="M116.147 390.813C116.147 390.813 116.641 391.641 118.037 392.913C119.433 394.186 121.854 395.755 120.668 397.398C119.741 398.67 118.42 397.015 118.42 397.015C118.42 397.015 120.31 401.61 117.493 403.191C113.923 405.205 109.414 403.13 109.574 398.299C109.735 393.469 109.698 391.171 111.539 390.727C113.367 390.27 115.727 389.874 116.134 390.813H116.147Z" fill="white" stroke="#524740" stroke-width="0.43" stroke-linecap="round" stroke-linejoin="round"/>
<path d="M107.452 364.154C107.452 364.154 112.838 369.38 116.358 379.609C119.879 389.837 118.903 392.259 115.901 393.284C112.899 394.309 109.317 395.26 109.181 391.9C109.045 388.54 107.822 377.867 105.833 373.444C103.227 367.626 102.56 364.871 104.548 363.537C105.586 362.833 106.686 363.45 107.452 364.167V364.154Z" fill="#F0D246" stroke="#524740" stroke-width="0.48" stroke-linecap="round" stroke-linejoin="round"/>
<path d="M110.389 387.119C110.377 396.594 102.112 396.569 92.1431 396.409C82.1739 396.248 74.2923 396.878 74.3047 386.551C74.3171 374.815 82.8409 358.076 92.8102 358.236C102.779 358.397 110.414 375.383 110.389 387.119Z" fill="white" stroke="#524740" stroke-width="0.46" stroke-miterlimit="10"/>
<path d="M83.6442 381.733L82.5078 381.715L82.4896 382.851L83.6259 382.869L83.6442 381.733Z" fill="#E9AA30"/>
<path d="M88.3358 373.89L88.2617 378.658L91.906 380.375L95.612 378.781L95.6862 374.001L92.0419 372.296L88.3358 373.89Z" fill="#2F322E"/>
<path d="M84.1598 382.476V383.365L84.9752 383.377C85.2593 383.377 85.4817 383.563 85.4817 383.834C85.4817 384.156 85.2469 384.403 84.9628 384.403H84.1351L84.1475 383.377H83.011L82.9492 387.417H83.0727L85.1728 387.454C86.0129 387.466 86.7047 386.923 86.717 386.083C86.717 385.502 86.3464 385.057 85.8399 384.823C85.8399 384.798 85.8399 384.798 85.8399 384.761C86.2352 384.6 86.4946 384.279 86.507 383.785C86.5193 382.957 85.8399 382.5 84.9999 382.488H84.1722L84.1598 382.476ZM85.0493 386.429H84.0981L84.1104 385.267H84.9381C85.3211 385.292 85.6917 385.552 85.6917 385.922C85.6917 386.293 85.3334 386.429 85.0493 386.416V386.429Z" fill="#2F322E"/>
<path d="M89.7456 382.561H88.9796L88.7202 382.549L86.8672 387.466L88.1396 387.49L88.4979 386.354L90.0915 386.378L90.4126 387.527L91.685 387.552L89.9926 382.574H89.7332L89.7456 382.561ZM88.8191 385.341L89.3379 383.698L89.8073 385.353H88.8191V385.341Z" fill="#2F322E"/>
<path d="M95.3365 387.354H94.3235L93.3723 384.723H93.3105L93.3352 385.044C93.4093 385.884 93.434 386.736 93.4217 387.576H92.2852L92.3593 382.61H92.6187L93.3846 382.623H93.644L94.8547 385.97L96.1765 382.672H96.4359L97.2018 382.684H97.4613L97.3871 387.638H96.2506V387.626C96.263 386.786 96.3247 385.933 96.4235 385.093L96.4606 384.785H96.3988L95.3735 387.354H95.3365Z" fill="#2F322E"/>
<path d="M100.315 382.735H99.5987L98.5116 382.71L98.4375 387.664H99.574L99.5987 386.045C99.6111 386.033 99.6234 386.021 99.6358 386.008C100.661 386.132 102.131 386.342 102.168 384.365C102.193 383.179 101.242 382.747 100.315 382.735ZM99.6111 385.156L99.6358 383.636H100.093C100.562 383.649 101.155 383.785 101.143 384.365C101.131 385.415 100.155 385.242 99.6111 385.156Z" fill="#2F322E"/>
<path d="M91.9933 375.471L95.094 374.124L92.0304 372.691L88.9297 374.026L91.9933 375.471Z" fill="#E9AA30"/>
<path d="M92.1673 375.792L92.1055 379.894L95.2433 378.535L95.3174 374.434L92.1673 375.792Z" fill="white"/>
<path d="M91.7992 375.792L88.6985 374.334L88.6367 378.435L91.7374 379.893L91.7992 375.792Z" fill="white"/>
<path d="M119.441 327.699H65.2461V366.131H119.441V327.699Z" fill="white" stroke="#524740" stroke-width="0.48" stroke-linecap="round" stroke-linejoin="round"/>
<path d="M112.424 318.125H72.2628L65.2461 327.699H119.441L112.424 318.125Z" fill="#F0D246" stroke="#524740" stroke-width="0.48" stroke-linecap="round" stroke-linejoin="round"/>
<path d="M96.3748 347.91C95.5842 348.898 94.287 349.763 92.2364 349.738C90.2969 349.701 89.0739 348.973 88.3203 348.083" stroke="#524740" stroke-width="0.48" stroke-linecap="round" stroke-linejoin="round"/>
<path d="M104.233 347.613C106.069 347.613 107.556 346.125 107.556 344.29C107.556 342.455 106.069 340.967 104.233 340.967C102.398 340.967 100.91 342.455 100.91 344.29C100.91 346.125 102.398 347.613 104.233 347.613Z" fill="#524740"/>
<path d="M80.452 347.613C82.2873 347.613 83.7751 346.125 83.7751 344.29C83.7751 342.455 82.2873 340.967 80.452 340.967C78.6167 340.967 77.1289 342.455 77.1289 344.29C77.1289 346.125 78.6167 347.613 80.452 347.613Z" fill="#524740"/>
<path d="M308.089 419.979L308.052 416.396L301.344 416.631L301.616 419.769L308.089 419.979Z" fill="#F0D246" stroke="#524740" stroke-width="0.48" stroke-linecap="round" stroke-linejoin="round"/>
<path d="M313.145 419.979L313.194 416.396L319.89 416.631L319.618 419.769L313.145 419.979Z" fill="#F0D246" stroke="#524740" stroke-width="0.48" stroke-linecap="round" stroke-linejoin="round"/>
<path d="M327.818 389.664C327.818 389.664 325.026 405.056 323.025 411.641C321.024 418.225 320.48 417.447 318.059 417.669C315.625 417.892 312.45 417.669 312.45 415.693C312.45 413.716 314.032 400.127 311.178 400.127H310.326C307.472 400.127 309.053 413.716 309.053 415.693C309.053 417.669 305.878 417.879 303.445 417.669C301.011 417.459 300.48 418.213 298.479 411.641C296.477 405.069 293.648 389.837 293.648 389.837L327.818 389.676V389.664Z" fill="#333333" stroke="#524740" stroke-width="0.47" stroke-linecap="round" stroke-linejoin="round"/>
<path d="M310.078 425.008H299.096V421.598C299.096 420.141 300.282 418.955 301.74 418.955H307.434C308.892 418.955 310.078 420.141 310.078 421.598V425.008Z" fill="#333333" stroke="#524740" stroke-width="0.49" stroke-linecap="round" stroke-linejoin="round"/>
<path d="M321.89 425.008H310.908V421.252C310.908 419.992 311.933 418.955 313.205 418.955H319.605C320.865 418.955 321.902 419.98 321.902 421.252V425.008H321.89Z" fill="#333333" stroke="#524740" stroke-width="0.49" stroke-linecap="round" stroke-linejoin="round"/>
<path d="M292.699 387.119C292.712 396.594 300.976 396.569 310.945 396.409C320.915 396.248 328.796 396.878 328.784 386.551C328.771 374.815 320.247 358.076 310.278 358.236C300.309 358.397 292.675 375.383 292.699 387.119Z" fill="white" stroke="#524740" stroke-width="0.46" stroke-miterlimit="10"/>
<path d="M334.529 390.813C334.529 390.813 335.023 391.641 336.419 392.913C337.815 394.186 340.237 395.755 339.051 397.398C338.124 398.67 336.802 397.015 336.802 397.015C336.802 397.015 338.692 401.61 335.876 403.191C332.306 405.205 327.797 403.13 327.957 398.299C328.118 393.469 328.081 391.171 329.921 390.727C331.75 390.27 334.109 389.874 334.517 390.813H334.529Z" fill="white" stroke="#524740" stroke-width="0.43" stroke-linecap="round" stroke-linejoin="round"/>
<path d="M325.83 364.154C325.83 364.154 331.217 369.38 334.737 379.609C338.258 389.837 337.282 392.259 334.28 393.284C331.278 394.309 327.696 395.26 327.56 391.9C327.424 388.54 326.201 377.867 324.212 373.444C321.606 367.626 320.938 364.871 322.927 363.537C323.965 362.833 325.064 363.45 325.83 364.167V364.154Z" fill="#F0D246" stroke="#524740" stroke-width="0.48" stroke-linecap="round" stroke-linejoin="round"/>
<path d="M286.944 390.813C286.944 390.813 286.45 391.641 285.054 392.913C283.658 394.186 281.237 395.755 282.423 397.398C283.349 398.67 284.671 397.015 284.671 397.015C284.671 397.015 282.781 401.61 285.597 403.191C289.168 405.205 293.677 403.13 293.516 398.299C293.356 393.469 293.393 391.171 291.552 390.727C289.724 390.27 287.364 389.874 286.956 390.813H286.944Z" fill="white" stroke="#524740" stroke-width="0.43" stroke-linecap="round" stroke-linejoin="round"/>
<path d="M295.642 364.154C295.642 364.154 290.256 369.38 286.735 379.609C283.214 389.837 284.19 392.259 287.192 393.284C290.194 394.309 293.776 395.26 293.912 391.9C294.048 388.54 295.271 377.867 297.26 373.444C299.867 367.626 300.534 364.871 298.545 363.537C297.507 362.833 296.408 363.45 295.642 364.167V364.154Z" fill="#F0D246" stroke="#524740" stroke-width="0.48" stroke-linecap="round" stroke-linejoin="round"/>
<path d="M310.907 375.791L310.981 379.893L307.831 378.534L307.77 374.433L310.907 375.791Z" fill="white"/>
<path d="M283.645 366.131H337.84V327.699H283.645V366.131Z" fill="white" stroke="#524740" stroke-width="0.48" stroke-linecap="round" stroke-linejoin="round"/>
<path d="M290.662 318.125H330.811L337.84 327.699H283.633L290.662 318.125Z" fill="#F0D246" stroke="#524740" stroke-width="0.48" stroke-linecap="round" stroke-linejoin="round"/>
<path d="M199.859 419.979L199.896 416.396L206.592 416.631L206.333 419.769L199.859 419.979Z" fill="#F0D246" stroke="#524740" stroke-width="0.48" stroke-linecap="round" stroke-linejoin="round"/>
<path d="M190.078 389.121C190.078 389.121 194.884 404.575 195.971 411.863C196.996 418.67 200.06 417.447 202.691 417.657C205.31 417.879 208.744 417.657 208.744 415.68C208.744 413.704 213.414 393.16 211.956 388.836C211.956 388.836 196.576 384.846 190.387 389.812" fill="#333333"/>
<path d="M190.078 389.121C190.078 389.121 194.884 404.575 195.971 411.863C196.996 418.67 200.06 417.447 202.691 417.657C205.31 417.879 208.744 417.657 208.744 415.68C208.744 413.704 213.414 393.16 211.956 388.836C211.956 388.836 196.576 384.846 190.387 389.812" stroke="#524740" stroke-width="0.47" stroke-linecap="round" stroke-linejoin="round"/>
<path d="M196.316 418.967H206.47C207.187 418.967 207.78 419.547 207.78 420.276V425.02H193.672V421.61C193.672 420.153 194.858 418.967 196.316 418.967Z" fill="#333333" stroke="#524740" stroke-width="0.49" stroke-linecap="round" stroke-linejoin="round"/>
<path d="M215.85 387.057C215.813 396.532 209.253 396.532 201.347 396.409C193.441 396.285 187.177 396.94 187.227 386.6C187.276 374.864 194.095 358.101 201.989 358.224C209.883 358.348 215.899 375.322 215.837 387.057H215.85Z" fill="white" stroke="#524740" stroke-width="0.48" stroke-linecap="round" stroke-linejoin="round"/>
<path d="M206.837 391.393L207.64 397.953C207.64 397.953 208.43 402.857 205.33 403.759C201.389 404.908 197.485 401.856 198.733 397.187C199.98 392.517 200.475 390.281 202.365 390.256C204.255 390.232 206.639 390.38 206.824 391.393H206.837Z" fill="white" stroke="#524740" stroke-width="0.48" stroke-linecap="round" stroke-linejoin="round"/>
<path d="M203.505 363.587C203.505 363.587 207.557 369.899 208.656 380.659C209.756 391.419 208.249 393.556 205.099 393.865C201.948 394.174 198.897 394.359 198.872 390.987C198.848 387.169 198.934 376.817 198.452 371.987C197.847 365.909 198.588 363.154 200.824 362.314C201.998 361.869 202.924 362.722 203.505 363.587Z" fill="#F0D246" stroke="#524740" stroke-width="0.48" stroke-linecap="round" stroke-linejoin="round"/>
<path d="M228.632 327.699H174.438V366.131H228.632V327.699Z" fill="white" stroke="#524740" stroke-width="0.48" stroke-linecap="round" stroke-linejoin="round"/>
<mask id="mask0_517_1978" style="mask-type:luminance" maskUnits="userSpaceOnUse" x="187" y="358" width="30" height="39">
<path d="M216.158 387.365C216.121 396.84 209.562 396.84 201.655 396.716C193.749 396.593 187.486 397.248 187.535 386.908C187.585 375.172 194.404 358.408 202.298 358.532C210.204 358.655 216.208 375.629 216.146 387.365H216.158Z" fill="white"/>
</mask>
<g mask="url(#mask0_517_1978)">
<path d="M188.53 374.036L187.863 378.78L188.839 380.596L190.272 379.126L190.952 374.382L189.976 372.566L188.53 374.036Z" fill="#2F322E"/>
<path d="M187.825 382.708L187.578 382.671H187.492L186.207 387.489L186.627 387.551L186.899 386.426L187.43 386.5L187.381 387.649L187.801 387.711L187.912 382.708H187.825ZM187.146 385.438L187.541 383.82L187.467 385.487L187.146 385.438Z" fill="#2F322E"/>
<path d="M189.022 387.638L188.688 387.588L188.726 384.969H188.701L188.664 385.278C188.577 386.118 188.466 386.958 188.355 387.798L187.984 387.749L188.676 382.832H188.763L189.01 382.881H189.096L189.047 386.254L189.936 383.017H190.023L190.27 383.067H190.356L189.664 387.996L189.294 387.946C189.417 387.106 189.541 386.266 189.689 385.439L189.739 385.142H189.726L189.034 387.662L189.022 387.638Z" fill="#2F322E"/>
<path d="M191.296 383.203L191.062 383.166L190.704 383.116L190.012 388.033L190.382 388.082L190.617 386.452C190.617 386.452 190.617 386.439 190.629 386.427C190.951 386.575 191.408 386.835 191.692 384.87C191.865 383.684 191.605 383.24 191.296 383.19V383.203ZM190.741 385.587L190.951 384.08L191.099 384.104C191.259 384.129 191.432 384.277 191.346 384.846C191.198 385.883 190.901 385.698 190.728 385.587H190.741Z" fill="#2F322E"/>
<path d="M189.531 375.717L190.741 374.481L189.914 372.962L188.703 374.197L189.531 375.717Z" fill="#E9AA30"/>
<path d="M189.545 376.049L188.965 380.126L190.188 378.866L190.768 374.802L189.545 376.049Z" fill="white"/>
<path d="M189.416 376.037L188.588 374.493L188.008 378.557L188.836 380.102L189.416 376.037Z" fill="white"/>
</g>
<path d="M414.995 419.979L414.946 416.396L408.25 416.631L408.522 419.769L414.995 419.979Z" fill="#F0D246" stroke="#524740" stroke-width="0.48" stroke-linecap="round" stroke-linejoin="round"/>
<path d="M424.769 389.121C424.769 389.121 419.964 404.575 418.877 411.863C417.851 418.67 414.788 417.447 412.156 417.657C409.537 417.879 406.103 417.657 406.103 415.68C406.103 413.704 401.434 393.16 402.891 388.836C402.891 388.836 418.271 384.846 424.46 389.812" fill="#333333"/>
<path d="M424.769 389.121C424.769 389.121 419.964 404.575 418.877 411.863C417.851 418.67 414.788 417.447 412.156 417.657C409.537 417.879 406.103 417.657 406.103 415.68C406.103 413.704 401.434 393.16 402.891 388.836C402.891 388.836 418.271 384.846 424.46 389.812" stroke="#524740" stroke-width="0.47" stroke-linecap="round" stroke-linejoin="round"/>
<path d="M421.184 425.007H407.076V420.263C407.076 419.547 407.657 418.954 408.385 418.954H418.54C419.998 418.954 421.184 420.14 421.184 421.597V425.007Z" fill="#333333" stroke="#524740" stroke-width="0.49" stroke-linecap="round" stroke-linejoin="round"/>
<path d="M399 387.056C399.037 396.531 405.597 396.531 413.503 396.408C421.409 396.284 427.672 396.939 427.623 386.599C427.574 374.863 420.754 358.1 412.861 358.223C404.954 358.347 398.951 375.321 399.012 387.056H399Z" fill="white" stroke="#524740" stroke-width="0.48" stroke-linecap="round" stroke-linejoin="round"/>
<path d="M408.006 391.393L407.203 397.953C407.203 397.953 406.413 402.857 409.514 403.759C413.454 404.908 417.358 401.856 416.11 397.187C414.863 392.517 414.368 390.281 412.478 390.256C410.588 390.232 408.204 390.38 408.019 391.393H408.006Z" fill="white" stroke="#524740" stroke-width="0.48" stroke-linecap="round" stroke-linejoin="round"/>
<path d="M411.337 363.587C411.337 363.587 407.285 369.899 406.186 380.659C405.086 391.419 406.593 393.556 409.743 393.865C412.893 394.174 415.945 394.359 415.97 390.987C415.994 387.169 415.908 376.817 416.39 371.987C416.995 365.909 416.254 363.154 414.018 362.314C412.844 361.869 411.918 362.722 411.337 363.587Z" fill="#F0D246" stroke="#524740" stroke-width="0.48" stroke-linecap="round" stroke-linejoin="round"/>
<path d="M386.216 366.131H440.41V327.699H386.216V366.131Z" fill="white" stroke="#524740" stroke-width="0.48" stroke-linecap="round" stroke-linejoin="round"/>
<mask id="mask1_517_1978" style="mask-type:luminance" maskUnits="userSpaceOnUse" x="398" y="358" width="30" height="39">
<path d="M398.703 387.365C398.74 396.84 405.3 396.84 413.206 396.716C421.112 396.593 427.375 397.248 427.326 386.908C427.277 375.172 420.458 358.408 412.564 358.532C404.658 358.655 398.654 375.629 398.715 387.365H398.703Z" fill="white"/>
</mask>
<g mask="url(#mask1_517_1978)">
<path d="M423.323 383.239L422.866 383.301L422.742 382.164L423.199 382.103L423.323 383.239Z" fill="#E9AA30"/>
<path d="M424.125 374.036L424.656 378.767L426.299 380.213L427.572 378.372L427.053 373.641L425.41 372.195L424.125 374.036Z" fill="#2F322E"/>
<path d="M423.483 382.831L423.582 383.708L423.916 383.659C424.027 383.647 424.138 383.807 424.163 384.067C424.2 384.376 424.138 384.647 424.027 384.66L423.693 384.709L423.582 383.708L423.125 383.77L423.57 387.797H423.619L424.447 387.674C424.78 387.625 424.99 387.044 424.904 386.204C424.842 385.636 424.632 385.216 424.41 385.018C424.41 384.993 424.41 384.993 424.41 384.956C424.546 384.759 424.607 384.437 424.558 383.943C424.471 383.128 424.15 382.72 423.817 382.77L423.483 382.819V382.831ZM424.299 386.673L423.916 386.723L423.792 385.586L424.126 385.537C424.274 385.512 424.459 385.747 424.496 386.13C424.533 386.513 424.41 386.649 424.299 386.661V386.673Z" fill="#2F322E"/>
<path d="M425.697 382.534L425.388 382.572H425.29L425.129 387.587L425.635 387.513V386.364L426.278 386.278L426.537 387.389L427.044 387.315L425.796 382.51H425.697V382.534ZM425.66 385.351V383.683L426.055 385.289L425.66 385.339V385.351Z" fill="#2F322E"/>
<path d="M428.464 386.883L428.056 386.932L427.377 384.412H427.352L427.402 384.733C427.525 385.561 427.636 386.401 427.735 387.241L427.278 387.303L426.734 382.398H426.833L427.142 382.349H427.241L428.106 385.561L428.242 382.201H428.34L428.649 382.151H428.748L429.292 387.043L428.834 387.105C428.736 386.265 428.662 385.425 428.612 384.585L428.587 384.276H428.563L428.452 386.895L428.464 386.883Z" fill="#2F322E"/>
<path d="M425.759 375.345L426.833 373.813L425.45 372.603L424.375 374.147L425.759 375.345Z" fill="#E9AA30"/>
<path d="M425.867 375.654L426.312 379.719L427.399 378.162L426.954 374.098L425.867 375.654Z" fill="white"/>
<path d="M425.716 375.679L424.32 374.456L424.765 378.52L426.173 379.743L425.716 375.679Z" fill="white"/>
</g>
<path d="M445.845 203.881L439.594 207.612L446.425 209.563" fill="white"/>
<path d="M445.845 203.881L439.594 207.612L446.425 209.563" stroke="#524740" stroke-width="0.5" stroke-linecap="round" stroke-linejoin="round"/>
<path d="M416.934 203.881L422.777 207.612L416.391 209.563" fill="white"/>
<path d="M416.934 203.881L422.777 207.612L416.391 209.563" stroke="#524740" stroke-width="0.5" stroke-linecap="round" stroke-linejoin="round"/>
<path d="M436.798 209.65C436.798 210.626 435.674 214.406 431.301 214.394C426.705 214.394 425.828 210.602 425.828 209.613C425.828 208.625 428.286 208.514 431.313 208.526C434.34 208.539 436.798 208.674 436.798 209.65Z" fill="#FF9898" stroke="#524740" stroke-width="0.51" stroke-linecap="round" stroke-linejoin="round"/>
<path d="M174.833 210.255C174.833 211.318 173.61 215.444 168.842 215.431C163.826 215.419 162.875 211.293 162.875 210.231C162.875 209.168 165.556 209.032 168.854 209.045C172.152 209.045 174.833 209.205 174.821 210.268L174.833 210.255Z" fill="#FF9898" stroke="#524740" stroke-width="0.56" stroke-linecap="round" stroke-linejoin="round"/>
<path d="M361.394 212.837C363.489 212.837 365.187 211.565 365.187 209.996C365.187 208.426 363.489 207.154 361.394 207.154C359.299 207.154 357.602 208.426 357.602 209.996C357.602 211.565 359.299 212.837 361.394 212.837Z" fill="#FF9898"/>
<path d="M327.175 212.837C329.27 212.837 330.968 211.565 330.968 209.996C330.968 208.426 329.27 207.154 327.175 207.154C325.081 207.154 323.383 208.426 323.383 209.996C323.383 211.565 325.081 212.837 327.175 212.837Z" fill="#FF9898"/>
<path d="M356.565 210.589C358.523 210.589 360.11 209.002 360.11 207.043C360.11 205.085 358.523 203.498 356.565 203.498C354.607 203.498 353.02 205.085 353.02 207.043C353.02 209.002 354.607 210.589 356.565 210.589Z" fill="#524740"/>
<path d="M331.167 210.589C333.125 210.589 334.712 209.002 334.712 207.043C334.712 205.085 333.125 203.498 331.167 203.498C329.208 203.498 327.621 205.085 327.621 207.043C327.621 209.002 329.208 210.589 331.167 210.589Z" fill="#524740"/>
</svg>
