<svg viewBox="0 0 254 367" fill="none" xmlns="http://www.w3.org/2000/svg">
<path d="M241.085 15.7979H13.3183C7.05443 15.7979 1.97656 20.8757 1.97656 27.1396V354.266C1.97656 360.53 7.05443 365.608 13.3183 365.608H241.085C247.349 365.608 252.426 360.53 252.426 354.266V27.1396C252.426 20.8757 247.349 15.7979 241.085 15.7979Z" fill="white" stroke="#524740" stroke-width="2" stroke-linecap="round" stroke-linejoin="round"/>
<path d="M150.179 1H104.231C96.4621 1 90.1641 7.29799 90.1641 15.067V16.5097C90.1641 24.2787 96.4621 30.5767 104.231 30.5767H150.179C157.948 30.5767 164.246 24.2787 164.246 16.5097V15.067C164.246 7.29799 157.948 1 150.179 1Z" fill="#FDC335" stroke="#534741" stroke-width="2" stroke-miterlimit="10"/>
<path d="M115.854 9.73701H117.767V11.4202H120.433V9.73701H122.346V16.1393H115.844V9.73701H115.854ZM126.143 22.4313H117.307V17.4017H126.143V22.4313ZM117.767 14.5963H120.433V12.9031H117.767V14.5963ZM124.24 18.9346H119.23V20.9084H124.24V18.9346ZM126.143 16.7705H124.2V9.01562H126.143V12.0214H127.947V13.6144H126.143V16.7705Z" fill="#534741"/>
<path d="M133.036 17.7524C133.537 17.7423 133.997 17.7123 134.448 17.6822C134.889 17.6522 135.31 17.6121 135.721 17.562C136.121 17.5119 136.532 17.4518 136.943 17.3716L137.123 18.9747C136.663 19.0649 136.202 19.135 135.741 19.1851C135.28 19.2352 134.799 19.2853 134.288 19.3053C133.777 19.3354 133.226 19.3554 132.635 19.3655C132.044 19.3755 131.382 19.3755 130.661 19.3755H129.469V10.2079H136.031V11.7809H131.412V17.7524C132.004 17.7524 132.545 17.7524 133.046 17.7323L133.036 17.7524ZM137.955 22.6417V9.01562H139.899V22.6417H137.955Z" fill="#534741"/>
<path d="M133.562 316.725L133.663 308.108L149.794 308.659L149.152 316.224L133.562 316.725Z" fill="#F0D246" stroke="#524740" stroke-width="1.42" stroke-linecap="round" stroke-linejoin="round"/>
<path d="M121.393 316.725L121.293 308.108L105.152 308.659L105.794 316.224L121.393 316.725Z" fill="#F0D246" stroke="#524740" stroke-width="1.42" stroke-linecap="round" stroke-linejoin="round"/>
<path d="M86.0418 243.715C86.0418 243.715 92.7546 280.806 97.5939 296.647C102.433 312.487 103.706 310.643 109.567 311.164C115.428 311.695 123.073 311.164 123.073 306.415C123.073 301.666 119.245 268.923 126.129 268.923H128.162C135.046 268.923 131.218 301.656 131.218 306.415C131.218 311.164 138.863 311.695 144.724 311.164C150.585 310.633 151.858 312.487 156.697 296.647C161.536 280.806 168.319 244.106 168.319 244.106L86.0117 243.705L86.0418 243.715Z" fill="#333333" stroke="#524740" stroke-width="1.39" stroke-linecap="round" stroke-linejoin="round"/>
<path d="M134.336 314.281H149.646C152.722 314.281 155.226 316.776 155.226 319.862V328.859H128.766V319.862C128.766 316.786 131.26 314.281 134.346 314.281H134.336Z" fill="#333333" stroke="#524740" stroke-width="1.46" stroke-linecap="round" stroke-linejoin="round"/>
<path d="M105.891 314.281H121.2C124.276 314.281 126.781 316.776 126.781 319.862V328.859H100.32V319.862C100.32 316.786 102.815 314.281 105.901 314.281H105.891Z" fill="#333333" stroke="#524740" stroke-width="1.46" stroke-linecap="round" stroke-linejoin="round"/>
<path d="M69.8776 246.46C69.8776 246.46 68.6753 248.464 65.3289 251.529C61.9825 254.595 56.1212 258.363 58.9968 262.32C61.221 265.396 64.3971 261.398 64.3971 261.398C64.3971 261.398 59.8584 272.47 66.6214 276.277C75.2379 281.126 86.0686 276.117 85.6979 264.484C85.3272 252.852 85.3873 247.321 80.9689 246.239C76.5504 245.147 70.8795 244.185 69.8876 246.46H69.8776Z" fill="white" stroke="#524740" stroke-width="1.28" stroke-linecap="round" stroke-linejoin="round"/>
<path d="M90.83 182.236C90.83 182.236 77.8652 194.81 69.3789 219.458C60.9027 244.095 63.2472 249.936 70.481 252.391C77.7149 254.846 86.3514 257.16 86.662 249.054C86.9726 240.939 89.9383 215.25 94.7175 204.579C101.01 190.552 102.613 183.94 97.8134 180.723C95.2986 179.04 92.6736 180.523 90.82 182.236H90.83Z" fill="#F0D246" stroke="#524740" stroke-width="1.42" stroke-linecap="round" stroke-linejoin="round"/>
<path d="M184.529 246.459C184.529 246.459 185.731 248.463 189.078 251.529C192.424 254.595 198.285 258.362 195.41 262.32C193.185 265.396 190.009 261.398 190.009 261.398C190.009 261.398 194.548 272.469 187.785 276.276C179.169 281.126 168.338 276.116 168.708 264.484C169.079 252.862 169.019 247.321 173.438 246.239C177.856 245.157 183.527 244.185 184.519 246.459H184.529Z" fill="white" stroke="#524740" stroke-width="1.28" stroke-linecap="round" stroke-linejoin="round"/>
<path d="M163.564 182.236C163.564 182.236 176.529 194.81 185.016 219.458C193.492 244.095 191.147 249.936 183.913 252.391C176.68 254.846 168.043 257.16 167.732 249.054C167.422 240.939 164.456 215.25 159.677 204.579C153.385 190.552 151.782 183.94 156.581 180.723C159.096 179.04 161.721 180.523 163.574 182.236H163.564Z" fill="#F0D246" stroke="#524740" stroke-width="1.42" stroke-linecap="round" stroke-linejoin="round"/>
<path d="M170.657 237.574C170.627 260.408 150.709 260.328 126.713 259.947C102.717 259.566 83.7004 261.069 83.7305 236.192C83.7706 207.917 104.29 167.61 128.296 167.991C152.302 168.372 170.697 209.31 170.657 237.584V237.574Z" fill="white" stroke="#524740" stroke-width="1.35" stroke-miterlimit="10"/>
<path d="M106.29 224.54L103.535 224.496L103.491 227.251L106.246 227.295L106.29 224.54Z" fill="#E9AA30"/>
<path d="M117.55 205.68L117.359 217.192L126.156 221.32L135.073 217.483L135.254 205.971L126.467 201.843L117.55 205.68Z" fill="#2F322E"/>
<path d="M107.5 226.38L107.47 228.524L109.454 228.554C110.125 228.564 110.666 228.995 110.656 229.646C110.646 230.408 110.085 231.009 109.414 230.999L107.43 230.969L107.47 228.524L104.715 228.484L104.555 238.273H104.865L109.915 238.363C111.939 238.393 113.602 237.08 113.642 235.057C113.662 233.664 112.75 232.572 111.518 232.021C111.518 231.951 111.518 231.951 111.518 231.88C112.47 231.48 113.101 230.728 113.111 229.536C113.141 227.552 111.518 226.45 109.494 226.42L107.51 226.39L107.5 226.38ZM109.644 235.898L107.35 235.858L107.39 233.103L109.374 233.133C110.296 233.143 111.197 233.774 111.187 234.696C111.177 235.618 110.316 235.908 109.634 235.898H109.644Z" fill="#2F322E"/>
<path d="M120.952 226.6L119.119 226.57H118.508L114.039 238.413L117.095 238.463L117.967 235.728L121.824 235.788L122.605 238.553L125.661 238.603L121.574 226.61H120.962L120.952 226.6ZM118.738 233.293L119.99 229.336L121.123 233.333L118.738 233.293Z" fill="#2F322E"/>
<path d="M134.413 238.132L131.968 238.092L129.684 231.8L129.533 231.83L129.593 232.561C129.774 234.595 129.844 236.629 129.814 238.663L127.059 238.623L127.249 226.7H127.86L129.694 226.74H130.305L133.23 234.796L136.417 226.85H137.028L138.861 226.891H139.472L139.282 238.823L136.527 238.783C136.557 236.749 136.697 234.716 136.938 232.692L137.028 231.96L136.877 231.93L134.393 238.142L134.413 238.132Z" fill="#2F322E"/>
<path d="M146.423 227.001L144.71 226.971L142.085 226.931L141.895 238.854L144.65 238.894L144.71 234.936C144.71 234.936 144.76 234.896 144.8 234.866C147.265 235.156 150.822 235.667 150.892 230.918C150.942 228.053 148.647 227.031 146.423 227.001ZM144.74 232.822L144.8 229.175L145.902 229.195C147.034 229.215 148.467 229.546 148.447 230.918C148.407 233.443 146.083 233.042 144.75 232.822H144.74Z" fill="#2F322E"/>
<path d="M126.345 209.498L133.819 206.272L126.445 202.815L118.961 206.042L126.345 209.498Z" fill="#E9AA30"/>
<path d="M126.774 210.28L126.613 220.159L134.188 216.893L134.348 207.014L126.774 210.28Z" fill="white"/>
<path d="M125.886 210.26L118.412 206.753L118.262 216.642L125.726 220.149L125.886 210.26Z" fill="white"/>
<path d="M192.478 94.4287H61.918V187.026H192.478V94.4287Z" fill="white" stroke="#524740" stroke-width="1.42" stroke-linecap="round" stroke-linejoin="round"/>
<path d="M175.566 71.375H78.8304L61.918 94.4292H192.478L175.566 71.375Z" fill="#F0D246" stroke="#524740" stroke-width="1.42" stroke-linecap="round" stroke-linejoin="round"/>
<path d="M136.905 143.123C135.002 145.508 131.876 147.592 126.926 147.521C122.257 147.451 119.312 145.678 117.488 143.544" stroke="#524740" stroke-width="1.42" stroke-linecap="round" stroke-linejoin="round"/>
<path d="M155.839 142.391C160.255 142.391 163.834 138.811 163.834 134.396C163.834 129.98 160.255 126.4 155.839 126.4C151.423 126.4 147.844 129.98 147.844 134.396C147.844 138.811 151.423 142.391 155.839 142.391Z" fill="#524740"/>
<path d="M98.55 142.391C102.966 142.391 106.545 138.811 106.545 134.396C106.545 129.98 102.966 126.4 98.55 126.4C94.1343 126.4 90.5547 129.98 90.5547 134.396C90.5547 138.811 94.1343 142.391 98.55 142.391Z" fill="#524740"/>
</svg>
