<svg width="290" height="144" viewBox="0 0 290 144" fill="none" xmlns="http://www.w3.org/2000/svg">
<path d="M88.2411 66.3723H85.6011V47.8923H88.2411V66.3723ZM80.1211 52.0123C80.1211 52.8656 80.2144 53.7056 80.4011 54.5323C80.5878 55.359 80.8678 56.1323 81.2411 56.8523C81.6144 57.5723 82.0878 58.219 82.6611 58.7923C83.2478 59.3523 83.9278 59.799 84.7011 60.1323L83.2011 62.2723C82.1211 61.7923 81.2278 61.119 80.5211 60.2523C79.8144 59.3723 79.2544 58.3656 78.8411 57.2323C78.4278 58.4856 77.8544 59.5856 77.1211 60.5323C76.3878 61.4656 75.4544 62.1923 74.3211 62.7123L72.7411 60.5323C73.5411 60.1856 74.2411 59.719 74.8411 59.1323C75.4411 58.5323 75.9344 57.859 76.3211 57.1123C76.7078 56.3523 76.9944 55.539 77.1811 54.6723C77.3811 53.7923 77.4811 52.9056 77.4811 52.0123V49.3323H80.1211V52.0123ZM105.88 54.5323V59.0123H103.24V47.9123H105.88V52.3523H108.32V54.5323H105.88ZM101.04 58.3723C100.04 58.0523 99.1929 57.5856 98.4995 56.9723C97.8062 56.3456 97.2595 55.6256 96.8595 54.8123C96.4462 55.7056 95.8795 56.4923 95.1595 57.1723C94.4529 57.8523 93.5595 58.3656 92.4795 58.7123L91.0995 56.6523C91.8462 56.4123 92.4929 56.099 93.0395 55.7123C93.5862 55.3123 94.0329 54.8656 94.3795 54.3723C94.7395 53.879 95.0062 53.3523 95.1795 52.7923C95.3529 52.2323 95.4462 51.6656 95.4595 51.0923H91.7995V48.9923H101.76V51.0923H98.1595C98.1729 51.6256 98.2662 52.159 98.4395 52.6923C98.6129 53.2123 98.8662 53.7056 99.1995 54.1723C99.5462 54.6256 99.9795 55.039 100.5 55.4123C101.033 55.7856 101.66 56.0923 102.38 56.3323L101.04 58.3723ZM105.88 59.8323V66.3523H103.24V61.9323H93.5795V59.8323H105.88ZM111.678 56.7723V48.6123H114.298V50.7123H121.878V48.6123H124.478V56.7723H111.678ZM114.298 52.7723V54.6723H121.878V52.7723H114.298ZM119.378 60.6123V66.3523H116.738V60.6123H109.778V58.5123H126.458V60.6123H119.378ZM143.636 66.3723H140.996V56.5123H137.836V54.3923H140.996V47.8923H143.636V66.3723ZM131.636 60.0723C132.876 60.059 134.03 60.0256 135.096 59.9723C136.163 59.9056 137.263 59.779 138.396 59.5923L138.636 61.7123C137.97 61.819 137.316 61.9056 136.676 61.9723C136.036 62.0256 135.39 62.0723 134.736 62.1123C134.083 62.139 133.41 62.159 132.716 62.1723C132.023 62.1856 131.29 62.1923 130.516 62.1923H129.016V49.4523H137.536V51.5723H131.636V54.5723H136.916V56.6323H131.636V60.0723ZM167.786 64.1923H151.106V62.0523H158.106V58.9323C157.293 58.839 156.546 58.6523 155.866 58.3723C155.186 58.0923 154.599 57.739 154.106 57.3123C153.626 56.8856 153.246 56.3856 152.966 55.8123C152.699 55.239 152.566 54.6123 152.566 53.9323C152.566 53.159 152.739 52.459 153.086 51.8323C153.433 51.2056 153.913 50.6723 154.526 50.2323C155.139 49.7923 155.866 49.4523 156.706 49.2123C157.546 48.9723 158.453 48.8523 159.426 48.8523C160.413 48.8523 161.326 48.9723 162.166 49.2123C163.006 49.4523 163.733 49.7923 164.346 50.2323C164.959 50.6723 165.439 51.2056 165.786 51.8323C166.133 52.459 166.306 53.159 166.306 53.9323C166.306 54.6123 166.166 55.239 165.886 55.8123C165.619 56.3856 165.239 56.8856 164.746 57.3123C164.253 57.739 163.666 58.0923 162.986 58.3723C162.306 58.6523 161.559 58.839 160.746 58.9323V62.0523H167.786V64.1923ZM155.166 53.9323C155.166 54.399 155.266 54.819 155.466 55.1923C155.679 55.5656 155.973 55.879 156.346 56.1323C156.719 56.3856 157.166 56.579 157.686 56.7123C158.219 56.8456 158.799 56.9123 159.426 56.9123C160.066 56.9123 160.646 56.8456 161.166 56.7123C161.686 56.579 162.133 56.3856 162.506 56.1323C162.893 55.879 163.186 55.5656 163.386 55.1923C163.599 54.819 163.706 54.399 163.706 53.9323C163.706 53.4656 163.599 53.0456 163.386 52.6723C163.186 52.299 162.893 51.9856 162.506 51.7323C162.133 51.479 161.686 51.2856 161.166 51.1523C160.646 51.019 160.066 50.9523 159.426 50.9523C158.799 50.9523 158.219 51.019 157.686 51.1523C157.166 51.2856 156.719 51.479 156.346 51.7323C155.973 51.9856 155.679 52.299 155.466 52.6723C155.266 53.0456 155.166 53.4656 155.166 53.9323ZM171.565 53.6923V48.0923H174.205V51.6123H184.265V53.6923H171.565ZM186.185 56.9523H169.505V54.8723H186.185V56.9523ZM184.745 64.1323V66.1123H171.405V61.1123H181.565V60.0723H171.385V58.0923H184.225V62.9723H174.065V64.1323H184.745ZM202.543 57.2923V66.3123H199.883V47.8923H202.543V55.1123H204.923V57.2923H202.543ZM193.323 49.7923C193.323 51.059 193.276 52.2656 193.183 53.4123C193.103 54.5456 192.93 55.6323 192.663 56.6723C192.41 57.7123 192.036 58.7123 191.543 59.6723C191.05 60.6323 190.396 61.5656 189.583 62.4723L187.523 60.9723C188.136 60.2923 188.643 59.6123 189.043 58.9323C189.456 58.2523 189.783 57.5456 190.023 56.8123C190.276 56.079 190.463 55.3123 190.583 54.5123C190.703 53.699 190.783 52.8323 190.823 51.9123H188.343V49.7923H193.323ZM198.403 49.7923C198.403 51.1256 198.363 52.4123 198.283 53.6523C198.203 54.879 198.036 56.0656 197.783 57.2123C197.53 58.359 197.163 59.4656 196.683 60.5323C196.203 61.599 195.563 62.6323 194.763 63.6323L192.683 62.1723C193.296 61.399 193.803 60.6256 194.203 59.8523C194.603 59.0656 194.923 58.259 195.163 57.4323C195.403 56.5923 195.576 55.719 195.683 54.8123C195.803 53.9056 195.883 52.939 195.923 51.9123H193.943V49.7923H198.403ZM221.561 66.3323H218.921V47.9123H221.561V66.3323ZM213.421 52.8723C213.421 53.619 213.515 54.3723 213.701 55.1323C213.888 55.879 214.168 56.5856 214.541 57.2523C214.928 57.919 215.401 58.519 215.961 59.0523C216.535 59.5856 217.208 60.0123 217.981 60.3323L216.541 62.4123C215.461 61.9456 214.555 61.2923 213.821 60.4523C213.101 59.599 212.535 58.6056 212.121 57.4723C211.708 58.6856 211.128 59.7656 210.381 60.7123C209.648 61.659 208.741 62.379 207.661 62.8723L206.161 60.7723C206.935 60.4256 207.608 59.9656 208.181 59.3923C208.755 58.819 209.228 58.1856 209.601 57.4923C209.988 56.7856 210.275 56.039 210.461 55.2523C210.648 54.4523 210.741 53.659 210.741 52.8723V51.8523H206.901V49.6723H217.221V51.8523H213.421V52.8723ZM48.3386 82.2523V91.3323H45.6986V72.9323H48.3386V80.0723H51.0186V82.2523H48.3386ZM40.5786 78.6523C40.5786 79.3056 40.6586 79.9723 40.8186 80.6523C40.9919 81.319 41.2453 81.9656 41.5786 82.5923C41.9253 83.2056 42.3586 83.779 42.8786 84.3123C43.4119 84.8323 44.0386 85.2656 44.7586 85.6123L43.3586 87.6123C42.3586 87.159 41.5253 86.5323 40.8586 85.7323C40.2053 84.919 39.6853 83.9923 39.2986 82.9523C38.8986 84.0856 38.3453 85.0856 37.6386 85.9523C36.9319 86.8056 36.0586 87.4656 35.0186 87.9323L33.5986 85.9123C34.3453 85.5656 34.9919 85.1256 35.5386 84.5923C36.0853 84.0456 36.5386 83.4523 36.8986 82.8123C37.2586 82.159 37.5253 81.479 37.6986 80.7723C37.8719 80.0523 37.9586 79.3456 37.9586 78.6523V78.0123H34.2186V75.9123H37.9586V73.3523H40.5986V75.9123H44.2386V78.0123H40.5786V78.6523ZM63.897 80.1523C64.0837 79.2723 64.197 78.499 64.237 77.8323C64.2904 77.1523 64.3237 76.5123 64.337 75.9123H54.217V73.8123H66.977V75.1323C66.977 75.8256 66.957 76.6056 66.917 77.4723C66.877 78.3256 66.737 79.299 66.497 80.3923L63.897 80.1523ZM68.957 83.4523H52.337V81.3523H58.497V77.9323H61.137V81.3523H68.957V83.4523ZM66.817 85.0323V91.3523H64.177V87.1123H54.057V85.0323H66.817ZM85.1355 82.2523V91.3323H82.4955V72.9323H85.1355V80.0723H87.8155V82.2523H85.1355ZM77.3755 78.6523C77.3755 79.3056 77.4555 79.9723 77.6155 80.6523C77.7888 81.319 78.0421 81.9656 78.3755 82.5923C78.7221 83.2056 79.1555 83.779 79.6755 84.3123C80.2088 84.8323 80.8355 85.2656 81.5555 85.6123L80.1555 87.6123C79.1555 87.159 78.3221 86.5323 77.6555 85.7323C77.0021 84.919 76.4821 83.9923 76.0955 82.9523C75.6955 84.0856 75.1421 85.0856 74.4355 85.9523C73.7288 86.8056 72.8555 87.4656 71.8155 87.9323L70.3955 85.9123C71.1421 85.5656 71.7888 85.1256 72.3355 84.5923C72.8821 84.0456 73.3355 83.4523 73.6955 82.8123C74.0555 82.159 74.3221 81.479 74.4955 80.7723C74.6688 80.0523 74.7555 79.3456 74.7555 78.6523V78.0123H71.0155V75.9123H74.7555V73.3523H77.3955V75.9123H81.0355V78.0123H77.3755V78.6523ZM100.694 80.1523C100.881 79.2723 100.994 78.499 101.034 77.8323C101.087 77.1523 101.121 76.5123 101.134 75.9123H91.0139V73.8123H103.774V75.1323C103.774 75.8256 103.754 76.6056 103.714 77.4723C103.674 78.3256 103.534 79.299 103.294 80.3923L100.694 80.1523ZM105.754 83.4523H89.1339V81.3523H95.2939V77.9323H97.9339V81.3523H105.754V83.4523ZM103.614 85.0323V91.3523H100.974V87.1123H90.8539V85.0323H103.614ZM128.984 78.7123H127.104V82.5523H124.464V72.9323H127.104V76.5523H128.984V78.7123ZM123.024 81.6523C122.384 81.3056 121.857 80.8723 121.444 80.3523C121.044 79.8323 120.73 79.2323 120.504 78.5523C120.277 79.2323 119.97 79.859 119.584 80.4323C119.197 81.0056 118.684 81.4856 118.044 81.8723C117.404 81.4856 116.89 80.999 116.504 80.4123C116.117 79.8256 115.81 79.1856 115.584 78.4923C115.344 79.1723 115.017 79.7856 114.604 80.3323C114.204 80.8656 113.684 81.3056 113.044 81.6523L111.684 79.8123C112.204 79.519 112.63 79.1656 112.964 78.7523C113.31 78.3256 113.584 77.8656 113.784 77.3723C113.997 76.879 114.144 76.3656 114.224 75.8323C114.304 75.2856 114.344 74.7456 114.344 74.2123V73.5723H116.824V74.2123C116.824 74.9723 116.904 75.759 117.064 76.5723C117.237 77.3856 117.564 78.1323 118.044 78.8123C118.537 78.1323 118.864 77.3856 119.024 76.5723C119.184 75.759 119.264 74.9723 119.264 74.2123V73.5723H121.724V74.2123C121.724 74.759 121.764 75.3056 121.844 75.8523C121.937 76.399 122.084 76.919 122.284 77.4123C122.484 77.8923 122.75 78.339 123.084 78.7523C123.43 79.1656 123.864 79.519 124.384 79.8123L123.024 81.6523ZM127.604 83.4323V85.3923H114.384V83.4323H119.664V81.9523H122.304V83.4323H127.604ZM120.984 86.0123C124.704 86.0123 126.564 86.899 126.564 88.6723C126.564 90.4456 124.704 91.3323 120.984 91.3323C119.13 91.3323 117.737 91.1056 116.804 90.6523C115.87 90.2123 115.404 89.5523 115.404 88.6723C115.404 87.7923 115.87 87.1323 116.804 86.6923C117.737 86.239 119.13 86.0123 120.984 86.0123ZM120.984 89.5123C122.024 89.5123 122.777 89.4456 123.244 89.3123C123.724 89.179 123.964 88.9656 123.964 88.6723C123.964 88.379 123.724 88.1656 123.244 88.0323C122.777 87.899 122.024 87.8323 120.984 87.8323C119.944 87.8323 119.184 87.899 118.704 88.0323C118.237 88.1656 118.004 88.379 118.004 88.6723C118.004 88.9656 118.237 89.179 118.704 89.3123C119.184 89.4456 119.944 89.5123 120.984 89.5123ZM143.082 86.1523V72.9323H145.742V86.1523H143.082ZM140.722 78.7723C140.722 79.439 140.595 80.059 140.342 80.6323C140.089 81.2056 139.735 81.699 139.282 82.1123C138.829 82.5256 138.295 82.8523 137.682 83.0923C137.082 83.319 136.429 83.4323 135.722 83.4323C135.015 83.4323 134.355 83.319 133.742 83.0923C133.129 82.8523 132.595 82.5256 132.142 82.1123C131.702 81.699 131.349 81.2056 131.082 80.6323C130.829 80.059 130.702 79.439 130.702 78.7723C130.702 78.0923 130.829 77.4656 131.082 76.8923C131.349 76.319 131.702 75.8256 132.142 75.4123C132.595 74.999 133.129 74.679 133.742 74.4523C134.355 74.2123 135.015 74.0923 135.722 74.0923C136.429 74.0923 137.082 74.2123 137.682 74.4523C138.295 74.679 138.829 74.999 139.282 75.4123C139.735 75.8256 140.089 76.319 140.342 76.8923C140.595 77.4656 140.722 78.0923 140.722 78.7723ZM133.282 78.7723C133.282 79.5323 133.515 80.119 133.982 80.5323C134.462 80.9456 135.042 81.1523 135.722 81.1523C136.415 81.1523 136.989 80.9456 137.442 80.5323C137.909 80.119 138.142 79.5323 138.142 78.7723C138.142 78.0123 137.909 77.4256 137.442 77.0123C136.989 76.5856 136.415 76.3723 135.722 76.3723C135.042 76.3723 134.462 76.5856 133.982 77.0123C133.515 77.4256 133.282 78.0123 133.282 78.7723ZM146.202 91.0123H133.482V84.8523H136.122V88.9123H146.202V91.0123ZM167.872 79.1523V83.4323H165.232V72.9123H167.872V76.9923H170.312V79.1523H167.872ZM153.912 82.5723V73.8923H156.512V76.1723H160.132V73.8923H162.732V82.5723H153.912ZM156.512 78.1923V80.4923H160.132V78.1923H156.512ZM167.872 84.2923V91.1123H155.892V84.2923H167.872ZM165.292 89.0523V86.3723H158.492V89.0523H165.292ZM173.07 76.6123V74.5123H187.07V76.6123H184.57V82.1323H187.01V84.2323H173.17V82.1323H175.57V76.6123H173.07ZM178.19 76.6123V82.1323H181.95V76.6123H178.19ZM188.45 89.1923H171.77V87.0523H188.45V89.1923ZM205.529 91.3723H202.889V72.8923H205.529V91.3723ZM196.089 74.1323C196.809 74.1323 197.475 74.2456 198.089 74.4723C198.715 74.699 199.255 75.0123 199.709 75.4123C200.162 75.8123 200.515 76.2923 200.769 76.8523C201.035 77.399 201.169 78.0056 201.169 78.6723C201.169 79.3256 201.035 79.9323 200.769 80.4923C200.515 81.0523 200.162 81.5323 199.709 81.9323C199.255 82.3323 198.715 82.6456 198.089 82.8723C197.475 83.099 196.809 83.2123 196.089 83.2123C195.369 83.2123 194.695 83.099 194.069 82.8723C193.455 82.6456 192.922 82.3323 192.469 81.9323C192.029 81.5323 191.675 81.0523 191.409 80.4923C191.155 79.9323 191.029 79.3256 191.029 78.6723C191.029 78.0056 191.155 77.399 191.409 76.8523C191.675 76.2923 192.029 75.8123 192.469 75.4123C192.922 75.0123 193.455 74.699 194.069 74.4723C194.695 74.2456 195.369 74.1323 196.089 74.1323ZM196.089 76.3923C195.369 76.3923 194.769 76.5923 194.289 76.9923C193.822 77.3923 193.589 77.9523 193.589 78.6723C193.589 79.3923 193.822 79.9523 194.289 80.3523C194.769 80.7523 195.369 80.9523 196.089 80.9523C196.809 80.9523 197.402 80.7523 197.869 80.3523C198.349 79.9523 198.589 79.3923 198.589 78.6723C198.589 77.9523 198.349 77.3923 197.869 76.9923C197.402 76.5923 196.809 76.3923 196.089 76.3923ZM190.249 85.4923C191.062 85.4923 191.942 85.4923 192.889 85.4923C193.835 85.479 194.815 85.4523 195.829 85.4123C196.842 85.3723 197.862 85.3123 198.889 85.2323C199.915 85.1523 200.915 85.039 201.889 84.8923L202.049 86.7923C201.062 86.9923 200.055 87.1523 199.029 87.2723C198.015 87.379 197.015 87.459 196.029 87.5123C195.042 87.5656 194.089 87.599 193.169 87.6123C192.249 87.6256 191.389 87.6323 190.589 87.6323L190.249 85.4923ZM228.358 91.3723H225.718V72.8923H228.358V91.3723ZM218.458 74.1923C219.152 74.1923 219.792 74.3456 220.378 74.6523C220.978 74.959 221.492 75.399 221.918 75.9723C222.345 76.5323 222.678 77.219 222.918 78.0323C223.172 78.8323 223.298 79.739 223.298 80.7523C223.298 81.7656 223.172 82.679 222.918 83.4923C222.678 84.3056 222.345 84.999 221.918 85.5723C221.492 86.1456 220.978 86.5856 220.378 86.8923C219.792 87.199 219.152 87.3523 218.458 87.3523C217.765 87.3523 217.118 87.199 216.518 86.8923C215.932 86.5856 215.425 86.1456 214.998 85.5723C214.572 84.999 214.232 84.3056 213.978 83.4923C213.738 82.679 213.618 81.7656 213.618 80.7523C213.618 79.739 213.738 78.8323 213.978 78.0323C214.232 77.219 214.572 76.5323 214.998 75.9723C215.425 75.399 215.932 74.959 216.518 74.6523C217.118 74.3456 217.765 74.1923 218.458 74.1923ZM218.458 76.5723C217.778 76.5723 217.225 76.9256 216.798 77.6323C216.372 78.339 216.158 79.379 216.158 80.7523C216.158 82.1256 216.372 83.1723 216.798 83.8923C217.225 84.599 217.778 84.9523 218.458 84.9523C219.138 84.9523 219.692 84.599 220.118 83.8923C220.545 83.1723 220.758 82.1256 220.758 80.7523C220.758 79.379 220.545 78.339 220.118 77.6323C219.692 76.9256 219.138 76.5723 218.458 76.5723ZM245.917 82.5923H248.457V84.7523H245.917V91.3323H243.277V72.9123H245.917V77.2123H248.457V79.3723H245.917V82.5923ZM236.437 74.1923C237.13 74.1923 237.77 74.3456 238.357 74.6523C238.957 74.959 239.47 75.399 239.897 75.9723C240.323 76.5323 240.657 77.219 240.897 78.0323C241.15 78.8323 241.277 79.739 241.277 80.7523C241.277 81.7656 241.15 82.679 240.897 83.4923C240.657 84.3056 240.323 84.999 239.897 85.5723C239.47 86.1456 238.957 86.5856 238.357 86.8923C237.77 87.199 237.13 87.3523 236.437 87.3523C235.743 87.3523 235.097 87.199 234.497 86.8923C233.91 86.5856 233.397 86.1456 232.957 85.5723C232.53 84.999 232.197 84.3056 231.957 83.4923C231.717 82.679 231.597 81.7656 231.597 80.7523C231.597 79.739 231.717 78.8323 231.957 78.0323C232.197 77.219 232.53 76.5323 232.957 75.9723C233.397 75.399 233.91 74.959 234.497 74.6523C235.097 74.3456 235.743 74.1923 236.437 74.1923ZM236.437 84.9523C237.117 84.9523 237.67 84.599 238.097 83.8923C238.523 83.1723 238.737 82.1256 238.737 80.7523C238.737 79.379 238.523 78.339 238.097 77.6323C237.67 76.9256 237.117 76.5723 236.437 76.5723C235.743 76.5723 235.183 76.9256 234.757 77.6323C234.343 78.339 234.137 79.379 234.137 80.7523C234.137 82.1256 234.343 83.1723 234.757 83.8923C235.183 84.599 235.743 84.9523 236.437 84.9523ZM265.235 91.3123H262.575V72.8923H265.235V91.3123ZM259.755 74.8123C259.755 76.2123 259.622 77.5523 259.355 78.8323C259.088 80.1123 258.628 81.319 257.975 82.4523C257.335 83.5723 256.475 84.619 255.395 85.5923C254.315 86.5523 252.955 87.4256 251.315 88.2123L249.935 86.1323C251.108 85.5723 252.122 84.9723 252.975 84.3323C253.828 83.679 254.542 82.9723 255.115 82.2123C255.688 81.4523 256.128 80.6323 256.435 79.7523C256.755 78.8723 256.962 77.9256 257.055 76.9123H250.915V74.8123H259.755Z" fill="black"/>
<path d="M2.03336 66.3641C3.47159 27.8336 68.65 -0.883248 147.615 2.23119C226.571 5.33622 289.423 39.0963 287.975 77.6363C287.517 89.9811 280.5 101.319 268.591 110.926L279.236 139.041L246.45 124.325C219.93 136.557 182.985 143.369 142.394 141.769C63.4284 138.655 0.585986 104.895 2.02422 66.3641H2.03336Z" stroke="black" stroke-width="3" stroke-linecap="round" stroke-linejoin="round"/>
</svg>
