<svg width="311" height="452" viewBox="0 0 311 452" fill="none" xmlns="http://www.w3.org/2000/svg">
<path d="M295.815 19.2451H14.9841C7.2609 19.2451 1 25.506 1 33.2292V436.57C1 444.293 7.2609 450.554 14.9841 450.554H295.815C303.538 450.554 309.799 444.293 309.799 436.57V33.2292C309.799 25.506 303.538 19.2451 295.815 19.2451Z" fill="white" stroke="#524740" stroke-width="2" stroke-linecap="round" stroke-linejoin="round"/>
<path d="M183.732 1H127.079C117.5 1 109.734 8.76529 109.734 18.3443V20.1231C109.734 29.7021 117.5 37.4674 127.079 37.4674H183.732C193.311 37.4674 201.076 29.7021 201.076 20.1231V18.3443C201.076 8.76529 193.311 1 183.732 1Z" fill="#FDC335" stroke="#534741" stroke-width="2" stroke-miterlimit="10"/>
<path d="M141.407 11.7723H143.766V13.8476H147.052V11.7723H149.412V19.6661H141.395V11.7723H141.407ZM154.094 27.4241H143.198V21.2227H154.094V27.4241ZM143.766 17.7637H147.052V15.676H143.766V17.7637ZM151.747 23.1127H145.57V25.5464H151.747V23.1127ZM154.094 20.4444H151.697V10.8828H154.094V14.5888H156.318V16.553H154.094V20.4444Z" fill="#534741"/>
<path d="M162.593 21.655C163.211 21.6427 163.779 21.6056 164.335 21.5686C164.879 21.5315 165.397 21.4821 165.904 21.4203C166.398 21.3585 166.904 21.2844 167.411 21.1856L167.633 23.1621C167.065 23.2733 166.497 23.3598 165.929 23.4216C165.36 23.4833 164.767 23.5451 164.137 23.5698C163.507 23.6069 162.828 23.6316 162.099 23.6439C161.37 23.6563 160.555 23.6563 159.665 23.6563H158.195V12.3529H166.287V14.2924H160.592V21.655C161.321 21.655 161.988 21.655 162.605 21.6303L162.593 21.655ZM168.659 27.6835V10.8828H171.055V27.6835H168.659Z" fill="#534741"/>
<path d="M163.246 390.283L163.37 379.659L183.259 380.339L182.468 389.665L163.246 390.283Z" fill="#F0D246" stroke="#524740" stroke-width="1.42" stroke-linecap="round" stroke-linejoin="round"/>
<path d="M148.24 390.283L148.116 379.659L128.215 380.339L129.005 389.665L148.24 390.283Z" fill="#F0D246" stroke="#524740" stroke-width="1.42" stroke-linecap="round" stroke-linejoin="round"/>
<path d="M104.654 300.263C104.654 300.263 112.931 345.996 118.898 365.527C124.865 385.057 126.433 382.784 133.66 383.427C140.887 384.082 150.313 383.427 150.313 377.571C150.313 371.716 145.594 331.345 154.08 331.345H156.588C165.075 331.345 160.356 371.703 160.356 377.571C160.356 383.427 169.782 384.082 177.008 383.427C184.235 382.772 185.804 385.057 191.771 365.527C197.738 345.996 206.101 300.745 206.101 300.745L104.617 300.251L104.654 300.263Z" fill="#333333" stroke="#524740" stroke-width="1.39" stroke-linecap="round" stroke-linejoin="round"/>
<path d="M164.201 387.27H183.077C186.869 387.27 189.958 390.346 189.958 394.15V405.244H157.332V394.15C157.332 390.358 160.408 387.27 164.213 387.27H164.201Z" fill="#333333" stroke="#524740" stroke-width="1.46" stroke-linecap="round" stroke-linejoin="round"/>
<path d="M129.126 387.27H148.002C151.795 387.27 154.883 390.346 154.883 394.15V405.244H122.258V394.15C122.258 390.358 125.334 387.27 129.139 387.27H129.126Z" fill="#333333" stroke="#524740" stroke-width="1.46" stroke-linecap="round" stroke-linejoin="round"/>
<path d="M84.7209 303.647C84.7209 303.647 83.2385 306.118 79.1125 309.898C74.9864 313.678 67.7597 318.323 71.3051 323.203C74.0476 326.995 77.9636 322.066 77.9636 322.066C77.9636 322.066 72.3675 335.717 80.7061 340.411C91.33 346.39 104.684 340.213 104.227 325.871C103.77 311.529 103.844 304.71 98.3962 303.375C92.9484 302.029 85.9563 300.843 84.7333 303.647H84.7209Z" fill="white" stroke="#524740" stroke-width="1.28" stroke-linecap="round" stroke-linejoin="round"/>
<path d="M110.553 224.461C110.553 224.461 94.5676 239.965 84.1042 270.355C73.6532 300.732 76.5439 307.934 85.4631 310.96C94.3823 313.987 105.031 316.841 105.414 306.847C105.797 296.84 109.454 265.166 115.346 252.01C123.104 234.715 125.081 226.562 119.163 222.596C116.063 220.521 112.826 222.349 110.541 224.461H110.553Z" fill="#F0D246" stroke="#524740" stroke-width="1.42" stroke-linecap="round" stroke-linejoin="round"/>
<path d="M226.084 303.647C226.084 303.647 227.566 306.118 231.692 309.898C235.818 313.678 243.045 318.323 239.5 323.203C236.757 326.995 232.841 322.066 232.841 322.066C232.841 322.066 238.437 335.717 230.099 340.411C219.475 346.39 206.121 340.213 206.578 325.871C207.035 311.541 206.961 304.709 212.409 303.375C217.857 302.041 224.849 300.843 226.072 303.647H226.084Z" fill="white" stroke="#524740" stroke-width="1.28" stroke-linecap="round" stroke-linejoin="round"/>
<path d="M200.237 224.461C200.237 224.461 216.223 239.965 226.686 270.355C237.137 300.732 234.246 307.934 225.327 310.96C216.408 313.987 205.759 316.841 205.376 306.847C204.993 296.84 201.337 265.166 195.444 252.01C187.686 234.715 185.71 226.562 191.627 222.596C194.728 220.521 197.964 222.349 200.25 224.461H200.237Z" fill="#F0D246" stroke="#524740" stroke-width="1.42" stroke-linecap="round" stroke-linejoin="round"/>
<path d="M208.979 292.691C208.942 320.844 184.384 320.745 154.797 320.276C125.211 319.806 101.764 321.659 101.801 290.986C101.85 256.124 127.15 206.426 156.749 206.896C186.348 207.365 209.029 257.842 208.979 292.703V292.691Z" fill="white" stroke="#524740" stroke-width="1.35" stroke-miterlimit="10"/>
<path d="M129.619 276.621L126.223 276.566L126.168 279.963L129.565 280.018L129.619 276.621Z" fill="#E9AA30"/>
<path d="M143.5 253.368L143.266 267.562L154.112 272.652L165.107 267.92L165.329 253.726L154.495 248.637L143.5 253.368Z" fill="#2F322E"/>
<path d="M131.108 278.891L131.071 281.534L133.517 281.571C134.345 281.584 135.012 282.115 135 282.918C134.987 283.857 134.296 284.598 133.468 284.586L131.022 284.549L131.071 281.534L127.674 281.485L127.477 293.554H127.86L134.086 293.665C136.581 293.702 138.632 292.084 138.681 289.589C138.706 287.872 137.582 286.525 136.062 285.846C136.062 285.759 136.062 285.759 136.062 285.673C137.236 285.179 138.014 284.252 138.026 282.782C138.063 280.336 136.062 278.977 133.567 278.94L131.121 278.903L131.108 278.891ZM133.752 290.626L130.923 290.577L130.973 287.18L133.419 287.217C134.555 287.229 135.667 288.007 135.655 289.144C135.642 290.281 134.58 290.639 133.74 290.626H133.752Z" fill="#2F322E"/>
<path d="M147.696 279.162L145.435 279.125H144.682L139.172 293.727L142.94 293.789L144.014 290.416L148.771 290.49L149.734 293.9L153.502 293.961L148.462 279.174H147.708L147.696 279.162ZM144.966 287.414L146.51 282.535L147.906 287.464L144.966 287.414Z" fill="#2F322E"/>
<path d="M164.29 293.38L161.276 293.331L158.459 285.573L158.274 285.61L158.348 286.512C158.57 289.02 158.657 291.527 158.62 294.035L155.223 293.986L155.457 279.285H156.211L158.472 279.335H159.225L162.832 289.267L166.761 279.47H167.514L169.775 279.52H170.529L170.294 294.233L166.897 294.183C166.934 291.676 167.107 289.168 167.403 286.673L167.514 285.771L167.329 285.734L164.265 293.393L164.29 293.38Z" fill="#2F322E"/>
<path d="M179.099 279.656L176.987 279.619L173.75 279.569L173.516 294.27L176.913 294.319L176.987 289.44C176.987 289.44 177.049 289.39 177.098 289.353C180.137 289.712 184.523 290.342 184.609 284.486C184.671 280.953 181.842 279.693 179.099 279.656ZM177.024 286.833L177.098 282.337L178.457 282.361C179.853 282.386 181.619 282.794 181.595 284.486C181.545 287.599 178.679 287.105 177.036 286.833H177.024Z" fill="#2F322E"/>
<path d="M154.343 258.075L163.558 254.097L154.466 249.835L145.238 253.813L154.343 258.075Z" fill="#E9AA30"/>
<path d="M154.873 259.039L154.676 271.219L164.015 267.192L164.213 255.012L154.873 259.039Z" fill="white"/>
<path d="M153.776 259.014L144.56 254.69L144.375 266.883L153.578 271.207L153.776 259.014Z" fill="white"/>
<path d="M235.884 116.196H74.9062V230.367H235.884V116.196Z" fill="white" stroke="#524740" stroke-width="1.42" stroke-linecap="round" stroke-linejoin="round"/>
<path d="M215.032 87.7715H95.7589L74.9062 116.197H235.884L215.032 87.7715Z" fill="#F0D246" stroke="#524740" stroke-width="1.42" stroke-linecap="round" stroke-linejoin="round"/>
<path d="M167.363 176.234C165.016 179.174 161.161 181.744 155.059 181.658C149.302 181.571 145.67 179.385 143.422 176.753" stroke="#524740" stroke-width="1.42" stroke-linecap="round" stroke-linejoin="round"/>
<path d="M190.71 175.332C196.154 175.332 200.568 170.919 200.568 165.474C200.568 160.03 196.154 155.616 190.71 155.616C185.265 155.616 180.852 160.03 180.852 165.474C180.852 170.919 185.265 175.332 190.71 175.332Z" fill="#524740"/>
<path d="M120.073 175.332C125.517 175.332 129.931 170.919 129.931 165.474C129.931 160.03 125.517 155.616 120.073 155.616C114.628 155.616 110.215 160.03 110.215 165.474C110.215 170.919 114.628 175.332 120.073 175.332Z" fill="#524740"/>
</svg>
