<svg width="218" height="335" viewBox="0 0 218 335" fill="none" xmlns="http://www.w3.org/2000/svg">
<g clip-path="url(#clip0_550_177)">
<path d="M42.9758 43.4823C25.5653 38.7758 7.61861 44.1547 0.284031 35.1885C0.284031 35.1885 -2.51758 53.7626 9.47702 59.6189C28.2937 68.8085 51.6907 63.8764 55.7068 76.8768C55.7068 76.8768 60.3862 48.1867 42.9758 43.4802V43.4823ZM50.6183 65.8957C42.8336 60.7402 33.2789 62.7573 19.835 58.0508C6.39116 53.3443 3.74675 43.0334 3.74675 43.0334C14.5462 50.6549 25.3435 44.6015 36.354 47.315C51.0554 50.9396 50.6161 65.8935 50.6161 65.8935L50.6183 65.8957Z" fill="#A0A2CD"/>
<path d="M76.9392 42.3607C75.2423 21.5154 58.4024 16.1366 53.1115 12.3258C47.8205 8.51506 46.3669 1.79368 46.3239 0C46.3239 0 30.0805 17.5317 36.3556 35.4137C44.2975 58.0505 63.0302 56.3444 60.8272 78C60.8272 78 78.1838 57.63 76.9413 42.3629L76.9392 42.3607ZM50.6178 43.2564C35.2617 31.1365 40.5505 12.9982 44.7389 6.49799C44.7389 6.49799 44.5193 12.1024 54.2162 18.826C63.9131 25.5496 80.5569 34.4698 64.1327 68.8082C64.1327 68.8082 65.9739 55.3764 50.6178 43.2564Z" fill="#98CA93"/>
<path d="M98.2568 18.8528H101.054C102.075 18.8528 103.117 18.8462 104.177 18.8331C105.236 18.8199 106.265 18.8068 107.262 18.7936C108.259 18.7805 109.166 18.7476 109.984 18.6973C110.163 18.6973 110.303 18.8133 110.406 19.0477C110.559 19.385 110.693 19.8208 110.809 20.353C110.923 20.8852 111.02 21.4436 111.096 22.0284C111.173 22.6131 111.235 23.1716 111.287 23.7038C111.339 24.236 111.365 24.6718 111.365 25.0091C111.365 25.296 111.268 25.4778 111.078 25.5544C110.889 25.6311 110.682 25.6661 110.465 25.6508C110.247 25.6377 110.042 25.5982 109.851 25.5347C109.659 25.4712 109.564 25.4252 109.564 25.3989C109.513 24.4375 109.207 23.625 108.645 22.9636C108.083 22.3 107.189 21.9057 105.962 21.7743C104.991 21.6714 104.019 21.6714 103.048 21.7743C102.383 21.8532 101.853 21.9955 101.457 22.2036C101.061 22.4117 100.849 22.9176 100.824 23.7235C100.567 29.1549 100.567 34.7156 100.824 40.4054C100.849 41.2377 101.188 41.7698 101.84 42.0042C102.493 42.2385 103.623 42.3546 105.232 42.3546C105.309 42.3546 105.352 42.4466 105.365 42.6284C105.378 42.8101 105.372 43.0116 105.346 43.2328C105.32 43.454 105.262 43.6555 105.174 43.8373C105.083 44.0191 104.975 44.1111 104.848 44.1111H103.623C103.087 44.1111 102.499 44.1045 101.859 44.0913C101.22 44.0782 100.576 44.0716 99.9235 44.0716H98.2568L91.2818 44.1111C91.2043 44.1111 91.1612 44.0322 91.1483 43.8767C91.1354 43.7212 91.1418 43.546 91.1677 43.3511C91.1935 43.1562 91.2495 42.9744 91.3399 42.8058C91.4282 42.6371 91.5381 42.5517 91.6651 42.5517C92.3284 42.4729 92.9098 42.3962 93.4094 42.3174C93.909 42.2385 94.3224 42.129 94.6541 41.9867C94.9857 41.8443 95.2355 41.6494 95.4013 41.4019C95.5671 41.1544 95.6619 40.8237 95.6877 40.4076C95.9418 34.7178 95.9418 29.1571 95.6877 23.7257C95.636 22.9198 95.4185 22.4138 95.0352 22.2058C94.6519 21.9977 94.1286 21.8554 93.4632 21.7765C92.4662 21.6736 91.4713 21.6736 90.4743 21.7765C89.2468 21.9057 88.3531 22.3022 87.7911 22.9657C87.229 23.6293 86.9233 24.4397 86.8716 25.4011C86.8716 25.4274 86.7811 25.4603 86.6024 25.4975C86.4237 25.5369 86.2255 25.5435 86.0081 25.5172C85.7906 25.4909 85.5924 25.4274 85.4137 25.3223C85.235 25.2193 85.1445 25.0244 85.1445 24.7375C85.1445 24.4003 85.1704 23.9776 85.2221 23.4717C85.2737 22.9657 85.3362 22.4379 85.4137 21.8926C85.4912 21.3473 85.586 20.8217 85.7001 20.3136C85.8142 19.8076 85.9499 19.385 86.1028 19.0477C86.204 18.8133 86.3461 18.6973 86.5249 18.6973C87.3173 18.7498 88.2175 18.7827 89.2274 18.7936C90.2374 18.8068 91.271 18.8199 92.3327 18.8331C93.3922 18.8462 94.4344 18.8528 95.4551 18.8528H98.2525H98.2568Z" fill="black"/>
<path d="M119.565 28.9095C119.565 29.3256 119.553 29.6826 119.527 29.9805C119.501 30.2805 119.449 30.5718 119.374 30.8565L119.451 30.9353C119.809 30.5192 120.14 30.1491 120.448 29.825C120.754 29.5008 121.075 29.1942 121.407 28.9095C121.943 28.4408 122.498 27.9809 123.073 27.5254C123.648 27.072 124.243 26.6669 124.856 26.3165C125.47 25.966 126.114 25.6857 126.792 25.4776C127.469 25.2696 128.177 25.1667 128.92 25.1667C131.935 25.1667 133.481 26.818 133.556 30.1163C133.608 31.8311 133.627 33.5459 133.614 35.2608C133.601 36.9756 133.556 38.6905 133.481 40.4053C133.455 40.8214 133.513 41.1521 133.653 41.3996C133.793 41.6471 133.978 41.842 134.209 41.9843C134.439 42.1267 134.706 42.2253 135.014 42.2756C135.32 42.3282 135.641 42.3545 135.972 42.3545C136.05 42.3545 136.093 42.4465 136.106 42.6282C136.119 42.81 136.112 43.0115 136.087 43.2327C136.061 43.4539 136.003 43.6554 135.914 43.8372C135.824 44.0189 135.716 44.1109 135.589 44.1109H134.728C134.357 44.1109 133.942 44.1044 133.483 44.0912C133.022 44.0781 132.557 44.0715 132.083 44.0715H130.761C129.943 44.0715 129.137 44.0781 128.347 44.0912C127.555 44.1044 126.891 44.1109 126.355 44.1109C126.278 44.1109 126.235 44.0321 126.222 43.8766C126.209 43.7211 126.215 43.5524 126.241 43.3707C126.267 43.1889 126.323 43.0137 126.413 42.845C126.502 42.6764 126.611 42.5779 126.739 42.5538C127.07 42.4749 127.365 42.3983 127.619 42.3194C127.873 42.2406 128.084 42.1311 128.252 41.9887C128.418 41.8464 128.552 41.6515 128.655 41.404C128.756 41.1565 128.821 40.8258 128.847 40.4097C128.948 39.1109 129.006 37.8319 129.019 36.5704C129.032 35.3111 128.987 34.0299 128.885 32.7312C128.808 31.7698 128.687 31.0032 128.522 30.4316C128.356 29.86 128.151 29.4242 127.908 29.1263C127.664 28.8285 127.378 28.6467 127.046 28.581C126.715 28.5175 126.344 28.5219 125.935 28.6007C125.246 28.7321 124.331 29.1855 123.196 29.9651C122.059 30.7448 120.877 31.8223 119.652 33.1999C119.473 35.6156 119.473 38.0203 119.652 40.4097C119.703 41.2419 119.932 41.7741 120.341 42.0084C120.75 42.2428 121.286 42.3588 121.949 42.3588C122.027 42.3588 122.07 42.4508 122.083 42.6326C122.096 42.8144 122.089 43.0159 122.063 43.2371C122.038 43.4583 121.979 43.6598 121.891 43.8415C121.801 44.0233 121.693 44.1153 121.566 44.1153H120.722C120.364 44.1153 119.975 44.1087 119.553 44.0956C119.13 44.0824 118.691 44.0759 118.23 44.0759H116.927C116.109 44.0759 115.28 44.0824 114.436 44.0956C113.592 44.1087 112.903 44.1153 112.367 44.1153C112.289 44.1153 112.244 44.0365 112.233 43.881C112.22 43.7255 112.227 43.5568 112.252 43.375C112.278 43.1933 112.334 43.0181 112.425 42.8494C112.513 42.6808 112.623 42.5822 112.75 42.5581C113.081 42.4793 113.387 42.4026 113.669 42.3238C113.949 42.245 114.186 42.1355 114.378 41.9931C114.569 41.8507 114.722 41.6558 114.839 41.4084C114.953 41.1609 115.024 40.8302 115.05 40.414C115.304 34.3606 115.304 28.2919 115.05 22.2122C114.998 21.38 114.718 20.8478 114.206 20.6135C113.693 20.3791 113.107 20.263 112.442 20.263C112.364 20.263 112.321 20.1798 112.308 20.009C112.295 19.8404 112.302 19.6586 112.328 19.4637C112.354 19.2687 112.41 19.0804 112.5 18.8986C112.59 18.7168 112.698 18.6139 112.825 18.5876C113.079 18.5351 113.471 18.4518 113.995 18.3336C114.518 18.2175 115.067 18.0795 115.642 17.924C116.217 17.7685 116.766 17.5999 117.289 17.4181C117.813 17.2363 118.215 17.0414 118.497 16.8334C118.523 16.8071 118.605 16.7939 118.747 16.7939C118.889 16.7939 119.034 16.8202 119.189 16.8728C119.341 16.9254 119.475 16.9954 119.591 17.0874C119.705 17.1794 119.764 17.2889 119.764 17.4181C119.764 17.497 119.757 17.5539 119.744 17.5933C119.731 17.6327 119.718 17.7247 119.705 17.8671C119.693 18.0094 119.68 18.2241 119.667 18.511C119.654 18.7979 119.647 19.2118 119.647 19.7571L119.57 28.9161L119.565 28.9095Z" fill="black"/>
<path d="M145.856 25.87V26.0452C145.856 26.0847 145.849 26.1744 145.836 26.319C145.823 26.4613 145.81 26.676 145.797 26.9629C145.784 27.2498 145.765 27.6637 145.739 28.209C145.535 32.2892 145.535 36.3562 145.739 40.4078C145.791 41.2401 146.019 41.7723 146.428 42.0066C146.838 42.2409 147.374 42.357 148.037 42.357C148.115 42.357 148.158 42.449 148.17 42.6308C148.183 42.8125 148.177 43.014 148.151 43.2352C148.125 43.4564 148.067 43.6579 147.979 43.8397C147.888 44.0215 147.781 44.1135 147.654 44.1135C147.245 44.1135 146.644 44.1069 145.853 44.0937C145.061 44.0806 144.256 44.074 143.439 44.074H142.156C141.682 44.074 141.217 44.0806 140.756 44.0937C140.295 44.1069 139.863 44.1135 139.453 44.1135H138.456C138.379 44.1135 138.336 44.0346 138.323 43.8791C138.31 43.7236 138.316 43.555 138.342 43.3732C138.368 43.1914 138.424 43.0162 138.515 42.8476C138.603 42.679 138.713 42.5804 138.84 42.5563C139.171 42.4775 139.473 42.4008 139.74 42.322C140.009 42.2431 140.244 42.1336 140.448 41.9913C140.653 41.8489 140.812 41.654 140.926 41.4065C141.04 41.159 141.112 40.8283 141.137 40.4122C141.342 37.1643 141.342 33.9164 141.137 30.6685C141.086 29.8626 140.806 29.3369 140.293 29.0895C139.781 28.842 139.195 28.7193 138.53 28.7193C138.452 28.7193 138.409 28.6361 138.396 28.4653C138.383 28.2966 138.39 28.1149 138.415 27.9199C138.441 27.725 138.497 27.5367 138.588 27.3549C138.678 27.1731 138.786 27.0702 138.913 27.0439C139.169 26.9913 139.559 26.9081 140.082 26.7899C140.605 26.6738 141.155 26.5358 141.73 26.3803C142.305 26.2248 142.854 26.0562 143.377 25.8744C143.9 25.6926 144.303 25.4977 144.585 25.2896C144.611 25.2634 144.693 25.2502 144.835 25.2502C144.977 25.2502 145.121 25.2765 145.276 25.3291C145.429 25.3816 145.563 25.4517 145.679 25.5437C145.793 25.6357 145.851 25.7452 145.851 25.8744L145.856 25.87ZM143.556 22.7513C143.045 22.8039 142.572 22.8039 142.139 22.7513C141.704 22.6988 141.385 22.6484 141.18 22.5958L141.103 22.517C140.976 22.2827 140.847 21.9257 140.72 21.446C140.59 20.9664 140.554 20.4123 140.605 19.7903C140.657 18.8552 140.911 18.1281 141.372 17.6068C141.833 17.0878 142.561 16.8271 143.556 16.8271C144.449 16.8271 145.171 17.0943 145.722 17.6265C146.271 18.1587 146.547 18.8815 146.547 19.7903C146.547 20.6992 146.278 21.4088 145.741 21.9147C145.205 22.4206 144.477 22.701 143.558 22.7535L143.556 22.7513Z" fill="black"/>
<path d="M150.609 44.111C150.531 44.111 150.488 44.0322 150.475 43.8767C150.462 43.7212 150.469 43.5525 150.495 43.3708C150.52 43.189 150.576 43.0138 150.667 42.8451C150.755 42.6765 150.865 42.578 150.992 42.5539C151.324 42.475 151.625 42.3984 151.892 42.3195C152.161 42.2407 152.396 42.1312 152.601 41.9888C152.805 41.8465 152.965 41.6516 153.079 41.4041C153.193 41.1566 153.264 40.8259 153.29 40.4098C153.494 37.1619 153.494 33.914 153.29 30.6661C153.238 29.8601 152.958 29.3345 152.446 29.087C151.933 28.8395 151.347 28.7169 150.682 28.7169C150.604 28.7169 150.561 28.6337 150.548 28.4628C150.536 28.2942 150.542 28.1124 150.568 27.9175C150.594 27.7226 150.65 27.5342 150.74 27.3525C150.831 27.1707 150.938 27.0678 151.065 27.0415C151.322 26.9889 151.711 26.9057 152.235 26.7874C152.758 26.6713 153.307 26.5334 153.882 26.3779C154.457 26.2224 155.006 26.0537 155.529 25.872C156.053 25.6902 156.455 25.4953 156.737 25.2872C156.763 25.2609 156.845 25.2478 156.987 25.2478C157.129 25.2478 157.274 25.2741 157.429 25.3266C157.582 25.3792 157.715 25.4493 157.831 25.5413C157.945 25.6332 158.004 25.7427 158.004 25.872V26.0472C158.004 26.0866 157.997 26.1764 157.984 26.3209C157.971 26.4633 157.958 26.6779 157.945 26.9648C157.933 27.2517 157.913 27.6656 157.887 28.211L157.849 28.9118C157.823 29.3279 157.803 29.6849 157.79 29.9828C157.777 30.2828 157.732 30.5741 157.657 30.8588L157.734 30.9376C158.092 30.5215 158.43 30.1514 158.751 29.8273C159.07 29.5031 159.397 29.1965 159.728 28.9118C160.265 28.4431 160.82 27.9832 161.395 27.5277C161.97 27.0743 162.571 26.6692 163.196 26.3187C163.822 25.9683 164.472 25.688 165.151 25.4799C165.827 25.2719 166.535 25.1689 167.278 25.1689C170.293 25.1689 171.839 26.8203 171.915 30.1185C171.966 31.8334 171.986 33.5482 171.973 35.2631C171.96 36.9779 171.915 38.6927 171.839 40.4076C171.814 40.8237 171.872 41.1544 172.012 41.4019C172.152 41.6494 172.337 41.8443 172.567 41.9866C172.798 42.129 173.065 42.2275 173.373 42.2779C173.678 42.3305 173.999 42.3568 174.331 42.3568C174.408 42.3568 174.451 42.4487 174.464 42.6305C174.477 42.8123 174.471 43.0138 174.445 43.235C174.419 43.4562 174.361 43.6577 174.273 43.8394C174.182 44.0212 174.075 44.1132 173.948 44.1132H173.086C172.716 44.1132 172.3 44.1066 171.842 44.0935C171.381 44.0804 170.916 44.0738 170.442 44.0738H169.12C168.301 44.0738 167.496 44.0804 166.706 44.0935C165.913 44.1066 165.25 44.1132 164.714 44.1132C164.636 44.1132 164.593 44.0344 164.58 43.8789C164.567 43.7234 164.574 43.5547 164.6 43.373C164.625 43.1912 164.681 43.016 164.772 42.8473C164.86 42.6787 164.97 42.5801 165.097 42.5561C165.429 42.4772 165.724 42.4006 165.978 42.3217C166.232 42.2429 166.443 42.1334 166.611 41.991C166.777 41.8487 166.91 41.6537 167.014 41.4063C167.115 41.1588 167.179 40.8281 167.205 40.412C167.306 39.1132 167.365 37.8342 167.377 36.5727C167.39 35.3134 167.345 34.0322 167.244 32.7335C167.166 31.7983 167.046 31.0384 166.88 30.4536C166.714 29.8689 166.51 29.433 166.266 29.1483C166.023 28.8636 165.737 28.6797 165.405 28.603C165.073 28.5242 164.703 28.5242 164.294 28.603C163.605 28.7344 162.67 29.1878 161.496 29.9674C160.321 30.7471 159.121 31.8246 157.894 33.2022C157.715 35.6179 157.715 38.0226 157.894 40.412C157.945 41.2442 158.174 41.7764 158.583 42.0107C158.992 42.2451 159.528 42.3611 160.191 42.3611C160.269 42.3611 160.312 42.4531 160.325 42.6349C160.338 42.8167 160.331 43.0182 160.306 43.2394C160.28 43.4606 160.222 43.6621 160.133 43.8438C160.043 44.0256 159.935 44.1176 159.808 44.1176H158.964C158.607 44.1176 158.217 44.111 157.795 44.0979C157.373 44.0847 156.933 44.0782 156.473 44.0782H155.17C154.351 44.0782 153.522 44.0847 152.678 44.0979C151.834 44.111 151.145 44.1176 150.609 44.1176V44.111Z" fill="black"/>
<path d="M183.68 17.6069V17.7821C183.68 17.8215 183.673 17.9113 183.66 18.0558C183.647 18.1982 183.635 18.4128 183.622 18.6997C183.609 18.9866 183.589 19.4005 183.563 19.9459C183.411 23.3756 183.333 26.7855 183.333 30.178C183.333 33.5704 183.396 36.9804 183.525 40.4101C183.576 41.2423 183.805 41.7745 184.214 42.0088C184.623 42.2432 185.159 42.3592 185.822 42.3592C185.9 42.3592 185.943 42.4512 185.956 42.633C185.969 42.8148 185.962 43.0163 185.937 43.2375C185.911 43.4587 185.853 43.6602 185.764 43.8419C185.674 44.0237 185.566 44.1157 185.439 44.1157C185.03 44.1157 184.429 44.1091 183.639 44.096C182.846 44.0828 182.041 44.0763 181.225 44.0763H179.922C179.461 44.0763 179.009 44.0828 178.561 44.096C178.113 44.1091 177.685 44.1157 177.278 44.1157H176.281C176.203 44.1157 176.158 44.0368 176.147 43.8814C176.134 43.7259 176.141 43.5572 176.166 43.3754C176.192 43.1937 176.248 43.0185 176.339 42.8498C176.427 42.6812 176.537 42.5826 176.664 42.5585C176.996 42.4797 177.301 42.403 177.583 42.3242C177.863 42.2454 178.1 42.1359 178.292 41.9935C178.484 41.8511 178.636 41.6562 178.753 41.4087C178.867 41.1613 178.938 40.8306 178.964 40.4144C179.218 34.4114 179.218 28.4106 178.964 22.4075C178.912 21.5753 178.632 21.0431 178.12 20.8088C177.607 20.5744 177.021 20.4584 176.356 20.4584C176.278 20.4584 176.235 20.3751 176.222 20.2043C176.21 20.0357 176.216 19.8473 176.242 19.6393C176.268 19.4312 176.324 19.2429 176.414 19.0742C176.505 18.9056 176.612 18.8092 176.739 18.7829C177.071 18.7304 177.506 18.6472 178.042 18.5289C178.578 18.4128 179.121 18.2748 179.67 18.1193C180.219 17.9638 180.743 17.7952 181.242 17.6134C181.74 17.4317 182.129 17.2367 182.411 17.0287C182.437 17.0024 182.519 16.9893 182.661 16.9893C182.803 16.9893 182.948 17.0155 183.103 17.0681C183.256 17.1207 183.389 17.1907 183.505 17.2827C183.619 17.3747 183.678 17.4842 183.678 17.6134L183.68 17.6069ZM194.639 41.1481C194.843 41.5642 195.162 41.7789 195.597 41.792C196.032 41.8052 196.452 41.7854 196.861 41.7329C196.938 41.7329 196.982 41.8051 196.994 41.9475C197.007 42.0899 197.001 42.2585 196.975 42.4534C196.949 42.6483 196.904 42.8433 196.842 43.0382C196.777 43.2331 196.695 43.382 196.592 43.4871C196.488 43.6164 196.267 43.7215 195.922 43.7981C195.577 43.8748 195.188 43.9405 194.753 43.993C194.318 44.0456 193.857 44.0828 193.372 44.1091C192.888 44.1354 192.453 44.1485 192.07 44.1485C191.609 44.1485 191.232 44.1157 190.939 44.0522C190.644 43.9865 190.416 43.8967 190.25 43.7784C190.084 43.6623 189.968 43.5309 189.905 43.3886C189.841 43.2462 189.796 43.1083 189.772 42.979C189.567 42.0176 189.268 41.0758 188.872 40.1538C188.475 39.2318 187.991 38.3864 187.416 37.6199C186.841 36.8534 186.182 36.2117 185.441 35.6904C184.701 35.1714 183.895 34.8472 183.027 34.7158C182.898 34.6896 182.784 34.6698 182.683 34.6567C182.579 34.6436 182.504 34.6107 182.452 34.5603C182.401 34.5078 182.355 34.4114 182.319 34.2691C182.28 34.1267 182.261 34.0281 182.261 33.9778C182.261 33.7697 182.306 33.6536 182.394 33.6274C182.482 33.6011 182.681 33.4456 182.989 33.1587C183.807 32.4841 184.604 31.7811 185.383 31.054C186.163 30.3269 186.884 29.6261 187.549 28.9493C187.855 28.6383 188.028 28.3646 188.066 28.1302C188.105 27.8959 188.053 27.701 187.913 27.5455C187.773 27.39 187.556 27.2783 187.261 27.2148C186.966 27.1513 186.654 27.1184 186.322 27.1184C186.27 27.1184 186.245 27.0396 186.245 26.8841C186.245 26.7286 186.257 26.5599 186.283 26.3782C186.309 26.1964 186.361 26.0278 186.436 25.8723C186.514 25.7168 186.602 25.6379 186.705 25.6379C187.115 25.6379 187.631 25.6511 188.258 25.6773C188.885 25.7036 189.668 25.7168 190.616 25.7168C191.688 25.7168 192.673 25.6773 193.566 25.6007C194.46 25.5218 195.175 25.4452 195.713 25.3663C195.765 25.3663 195.795 25.4452 195.808 25.6007C195.821 25.7562 195.821 25.938 195.808 26.146C195.795 26.3541 195.756 26.549 195.694 26.7308C195.629 26.9125 195.547 27.0177 195.444 27.0418C195.035 27.1469 194.531 27.3528 193.93 27.6659C193.329 27.9769 192.696 28.3668 192.033 28.8354C191.088 29.5122 190.11 30.2393 189.1 31.019C188.09 31.7986 187.112 32.5257 186.169 33.2025C185.939 33.358 185.542 33.5025 184.98 33.6317L185.019 33.7106C185.53 33.6843 185.913 33.6843 186.169 33.7106C187.037 33.842 187.888 34.1201 188.717 34.5494C189.546 34.9786 190.325 35.5174 191.055 36.1679C191.783 36.8183 192.455 37.5717 193.067 38.428C193.68 39.2865 194.204 40.1954 194.639 41.1569V41.1481Z" fill="black"/>
<path d="M98.7578 65.4616C98.6286 61.3311 98.6286 57.1984 98.7578 53.0679C98.7837 52.2357 98.5274 51.6707 97.9912 51.3728C97.455 51.0749 96.7142 50.9238 95.7689 50.9238C95.6914 50.9238 95.6483 50.845 95.6354 50.6895C95.6224 50.534 95.6289 50.3588 95.6548 50.1639C95.6806 49.969 95.7366 49.7937 95.827 49.6382C95.9153 49.4828 96.0251 49.4039 96.1522 49.4039C96.6884 49.4039 97.4356 49.417 98.3939 49.4433C99.3522 49.4696 100.369 49.4828 101.441 49.4828C101.85 49.4828 102.322 49.4762 102.858 49.463C103.394 49.4499 103.93 49.4433 104.467 49.4433C105.003 49.4433 105.507 49.4368 105.98 49.4236C106.454 49.4105 106.829 49.4039 107.111 49.4039C107.189 49.4039 107.232 49.4959 107.245 49.6777C107.257 49.8594 107.251 50.0544 107.225 50.2624C107.199 50.4705 107.141 50.6654 107.053 50.8472C106.962 51.029 106.855 51.1209 106.728 51.1209C105.782 51.1209 105.093 51.237 104.658 51.4714C104.223 51.7057 103.98 52.2379 103.93 53.0701C103.648 57.2006 103.648 61.3333 103.93 65.4638C104.008 66.8151 104.281 67.9583 104.755 68.8935C105.229 69.8287 105.834 70.5558 106.577 71.077C107.318 71.5961 108.153 71.9355 109.088 72.091C110.02 72.2465 110.985 72.2224 111.982 72.0122C113.337 71.7275 114.428 70.9544 115.26 69.6929C116.089 68.4336 116.595 66.6465 116.773 64.3337C116.9 62.4108 116.965 60.5011 116.965 58.6045C116.965 56.7079 116.9 54.8638 116.773 53.0701C116.722 52.2379 116.435 51.6728 115.912 51.375C115.389 51.0771 114.59 50.926 113.517 50.926C113.44 50.926 113.397 50.8472 113.384 50.6917C113.371 50.5362 113.377 50.361 113.403 50.1661C113.429 49.9711 113.485 49.7959 113.576 49.6404C113.664 49.4849 113.774 49.4061 113.901 49.4061C114.437 49.4061 115.113 49.4192 115.931 49.4455C116.748 49.4718 117.426 49.4849 117.962 49.4849C118.294 49.4849 118.696 49.4718 119.17 49.4455C119.644 49.4192 120.116 49.3864 120.589 49.3492C121.061 49.3097 121.502 49.2703 121.912 49.2331C122.321 49.1937 122.626 49.1608 122.831 49.1367C122.909 49.1367 122.952 49.2221 122.965 49.3908C122.977 49.5594 122.971 49.7478 122.945 49.9558C122.919 50.1639 122.863 50.3588 122.773 50.5406C122.682 50.7223 122.575 50.8275 122.448 50.8516C121.629 50.9567 120.986 51.1428 120.512 51.4166C120.038 51.6904 119.816 52.2423 119.842 53.0723C119.894 54.7083 119.92 56.4188 119.92 58.1971C119.92 59.9755 119.894 61.7626 119.842 63.5563C119.713 66.9859 118.955 69.7345 117.562 71.7998C116.168 73.865 113.991 75.1068 111.028 75.5229C109.01 75.8076 107.247 75.777 105.739 75.4265C104.232 75.0761 102.966 74.4585 101.945 73.5759C100.922 72.6933 100.149 71.5632 99.6257 70.1857C99.1024 68.8081 98.8138 67.2378 98.7643 65.4704L98.7578 65.4616Z" fill="black"/>
<path d="M123.785 74.738C123.707 74.738 123.664 74.6591 123.651 74.5036C123.638 74.3481 123.645 74.1795 123.67 73.9977C123.696 73.8159 123.752 73.6407 123.843 73.4721C123.931 73.3035 124.041 73.2049 124.168 73.1808C124.499 73.102 124.801 73.0253 125.068 72.9465C125.337 72.8676 125.572 72.7581 125.776 72.6158C125.981 72.4734 126.14 72.2785 126.254 72.031C126.369 71.7835 126.44 71.4528 126.466 71.0367C126.67 67.7888 126.67 64.5409 126.466 61.293C126.414 60.4871 126.134 59.9614 125.621 59.714C125.109 59.4665 124.523 59.3438 123.858 59.3438C123.78 59.3438 123.737 59.2606 123.724 59.0898C123.711 58.9212 123.718 58.7394 123.744 58.5445C123.769 58.3495 123.825 58.1612 123.916 57.9794C124.006 57.7976 124.114 57.6947 124.241 57.6684C124.497 57.6159 124.887 57.5326 125.41 57.4144C125.934 57.2983 126.483 57.1603 127.058 57.0048C127.633 56.8493 128.182 56.6807 128.705 56.4989C129.228 56.3171 129.631 56.1222 129.913 55.9142C129.939 55.8879 130.021 55.8747 130.163 55.8747C130.305 55.8747 130.449 55.901 130.604 55.9536C130.757 56.0061 130.891 56.0762 131.007 56.1682C131.121 56.2602 131.179 56.3697 131.179 56.4989V56.6741C131.179 56.7135 131.173 56.8033 131.16 56.9479C131.147 57.0902 131.134 57.3049 131.121 57.5918C131.108 57.8787 131.089 58.2926 131.063 58.8379L131.024 59.5388C130.998 59.9549 130.979 60.3119 130.966 60.6097C130.953 60.9098 130.908 61.201 130.833 61.4857L130.91 61.5646C131.268 61.1485 131.606 60.7784 131.927 60.4542C132.245 60.1301 132.573 59.8235 132.904 59.5388C133.44 59.0701 133.996 58.6102 134.571 58.1546C135.146 57.7013 135.747 57.2961 136.371 56.9457C136.998 56.5953 137.648 56.3149 138.327 56.1069C139.003 55.8988 139.711 55.7959 140.454 55.7959C143.469 55.7959 145.015 57.4472 145.091 60.7455C145.142 62.4603 145.162 64.1752 145.149 65.89C145.136 67.6049 145.091 69.3197 145.015 71.0345C144.989 71.4507 145.047 71.7814 145.187 72.0288C145.327 72.2763 145.513 72.4712 145.743 72.6136C145.973 72.7559 146.24 72.8545 146.548 72.9049C146.854 72.9574 147.175 72.9837 147.507 72.9837C147.584 72.9837 147.627 73.0757 147.64 73.2575C147.653 73.4393 147.647 73.6407 147.621 73.8619C147.595 74.0831 147.537 74.2846 147.449 74.4664C147.358 74.6482 147.25 74.7402 147.123 74.7402H146.262C145.892 74.7402 145.476 74.7336 145.017 74.7205C144.556 74.7073 144.091 74.7007 143.618 74.7007H142.295C141.477 74.7007 140.672 74.7073 139.881 74.7205C139.089 74.7336 138.426 74.7402 137.889 74.7402C137.812 74.7402 137.769 74.6613 137.756 74.5058C137.743 74.3503 137.749 74.1817 137.775 73.9999C137.801 73.8181 137.857 73.6429 137.948 73.4743C138.036 73.3057 138.146 73.2071 138.273 73.183C138.604 73.1042 138.899 73.0275 139.154 72.9487C139.408 72.8698 139.619 72.7603 139.787 72.618C139.952 72.4756 140.086 72.2807 140.189 72.0332C140.291 71.7857 140.355 71.455 140.381 71.0389C140.482 69.7402 140.54 68.4612 140.553 67.1997C140.566 65.9404 140.521 64.6592 140.42 63.3605C140.342 62.4253 140.222 61.6653 140.056 61.0806C139.89 60.4958 139.685 60.06 139.442 59.7753C139.199 59.4906 138.912 59.3066 138.581 59.23C138.249 59.1511 137.879 59.1511 137.47 59.23C136.78 59.3614 135.846 59.8147 134.672 60.5944C133.496 61.3741 132.297 62.4516 131.07 63.8291C130.891 66.2448 130.891 68.6495 131.07 71.0389C131.121 71.8711 131.349 72.4033 131.759 72.6377C132.168 72.872 132.704 72.9881 133.367 72.9881C133.445 72.9881 133.488 73.0801 133.501 73.2619C133.514 73.4436 133.507 73.6451 133.481 73.8663C133.456 74.0875 133.397 74.289 133.309 74.4708C133.219 74.6526 133.111 74.7445 132.984 74.7445H132.14C131.782 74.7445 131.393 74.738 130.97 74.7248C130.548 74.7117 130.109 74.7051 129.648 74.7051H128.345C127.527 74.7051 126.698 74.7117 125.854 74.7248C125.01 74.738 124.321 74.7445 123.785 74.7445V74.738Z" fill="black"/>
<path d="M157.356 56.496V56.6712C157.356 56.7106 157.349 56.8004 157.336 56.945C157.323 57.0873 157.31 57.302 157.297 57.5889C157.285 57.8758 157.265 58.2897 157.239 58.835C157.035 62.9152 157.035 66.9821 157.239 71.0338C157.291 71.866 157.519 72.3982 157.928 72.6326C158.338 72.8669 158.874 72.983 159.537 72.983C159.615 72.983 159.658 73.075 159.67 73.2567C159.683 73.4385 159.677 73.64 159.651 73.8612C159.625 74.0824 159.567 74.2839 159.479 74.4657C159.388 74.6475 159.281 74.7394 159.154 74.7394C158.745 74.7394 158.144 74.7329 157.353 74.7197C156.561 74.7066 155.756 74.7 154.939 74.7H153.656C153.182 74.7 152.717 74.7066 152.256 74.7197C151.795 74.7329 151.363 74.7394 150.953 74.7394H149.956C149.879 74.7394 149.836 74.6606 149.823 74.5051C149.81 74.3496 149.816 74.181 149.842 73.9992C149.868 73.8174 149.924 73.6422 150.015 73.4736C150.103 73.3049 150.213 73.2064 150.34 73.1823C150.671 73.1034 150.973 73.0268 151.24 72.9479C151.509 72.8691 151.744 72.7596 151.948 72.6172C152.153 72.4749 152.312 72.28 152.426 72.0325C152.54 71.785 152.612 71.4543 152.637 71.0382C152.842 67.7903 152.842 64.5424 152.637 61.2945C152.586 60.4885 152.306 59.9629 151.793 59.7154C151.281 59.468 150.695 59.3453 150.03 59.3453C149.952 59.3453 149.909 59.2621 149.896 59.0913C149.883 58.9226 149.89 58.7408 149.915 58.5459C149.941 58.351 149.997 58.1627 150.088 57.9809C150.178 57.7991 150.286 57.6962 150.413 57.6699C150.669 57.6173 151.059 57.5341 151.582 57.4158C152.105 57.2998 152.655 57.1618 153.23 57.0063C153.805 56.8508 154.354 56.6822 154.877 56.5004C155.4 56.3186 155.803 56.1237 156.085 55.9156C156.111 55.8893 156.193 55.8762 156.335 55.8762C156.477 55.8762 156.621 55.9025 156.776 55.9551C156.929 56.0076 157.063 56.0777 157.179 56.1697C157.293 56.2617 157.351 56.3712 157.351 56.5004L157.356 56.496ZM155.056 53.3773C154.545 53.4299 154.072 53.4299 153.639 53.3773C153.204 53.3248 152.885 53.2744 152.68 53.2218L152.603 53.143C152.476 52.9086 152.347 52.5517 152.22 52.072C152.09 51.5924 152.054 51.0383 152.106 50.4163C152.157 49.4811 152.411 48.754 152.872 48.2328C153.333 47.7137 154.061 47.4531 155.056 47.4531C155.949 47.4531 156.671 47.7203 157.222 48.2525C157.771 48.7847 158.047 49.5074 158.047 50.4163C158.047 51.3252 157.778 52.0348 157.241 52.5407C156.705 53.0466 155.977 53.3269 155.058 53.3795L155.056 53.3773Z" fill="black"/>
<path d="M177.741 59.928C178.047 59.0958 177.984 58.5242 177.549 58.2132C177.114 57.9022 176.285 57.7445 175.058 57.7445C175.006 57.7445 174.98 57.6657 174.98 57.5102C174.98 57.3547 174.993 57.186 175.019 57.0042C175.045 56.8225 175.096 56.6538 175.172 56.4983C175.249 56.3428 175.338 56.264 175.441 56.264C175.85 56.264 176.393 56.2706 177.069 56.2837C177.745 56.2968 178.622 56.3034 179.694 56.3034C180.357 56.3034 180.984 56.2771 181.572 56.2246C182.16 56.172 182.722 56.0954 183.258 55.9902C183.31 55.9902 183.34 56.0691 183.355 56.2246C183.368 56.3801 183.361 56.5618 183.335 56.7699C183.31 56.978 183.264 57.1729 183.202 57.3547C183.137 57.5364 183.068 57.6416 182.991 57.6657C182.709 57.7708 182.409 57.9394 182.091 58.1716C181.772 58.4059 181.432 58.925 181.074 59.7309C180.129 61.783 179.119 63.7585 178.047 65.6551C176.974 67.5517 175.9 69.5272 174.827 71.5793C174.315 72.5145 174.041 73.2481 174.003 73.7825C173.964 74.3169 173.919 74.6323 173.869 74.7374C173.843 74.79 173.531 74.8666 172.93 74.9717C172.329 75.0747 171.621 75.1272 170.803 75.1272C170.675 75.1272 170.585 75.0878 170.533 75.0112C169.052 72.2582 167.697 69.6257 166.472 67.1181C165.245 64.6104 164.097 62.1882 163.022 59.8492C162.665 59.0432 162.301 58.4913 161.93 58.1935C161.56 57.8956 161.17 57.7445 160.761 57.7445C160.684 57.7445 160.64 57.6657 160.628 57.5102C160.615 57.3547 160.621 57.186 160.647 57.0042C160.673 56.8225 160.729 56.6538 160.819 56.4983C160.908 56.3428 161.017 56.264 161.144 56.264C161.554 56.264 162.197 56.2771 163.08 56.3034C163.961 56.3297 164.812 56.3428 165.628 56.3428C166.573 56.3428 167.538 56.3297 168.522 56.3034C169.506 56.2771 170.266 56.264 170.803 56.264C170.854 56.264 170.88 56.3494 170.88 56.518C170.88 56.6867 170.861 56.8816 170.822 57.1028C170.783 57.324 170.731 57.5189 170.669 57.6876C170.604 57.8562 170.523 57.9416 170.419 57.9416C169.347 57.9416 168.617 58.0577 168.236 58.292C167.852 58.5264 167.839 59.0585 168.197 59.8908C168.86 61.5268 169.601 63.2044 170.419 64.9192C171.235 66.6341 172.118 68.3095 173.064 69.9477H173.141C174.086 68.154 174.954 66.4151 175.747 64.7243C176.539 63.0358 177.203 61.437 177.739 59.9302L177.741 59.928Z" fill="black"/>
</g>
<path d="M2 298L196 298" stroke="#999999"/>
<path d="M84.72 329H76.848V327.976L80.896 324.088C81.2053 323.757 81.488 323.448 81.744 323.16C82.0107 322.861 82.2347 322.563 82.416 322.264C82.608 321.965 82.7573 321.667 82.864 321.368C82.9707 321.059 83.024 320.733 83.024 320.392C83.0027 319.688 82.7893 319.171 82.384 318.84C81.9787 318.499 81.472 318.328 80.864 318.328C80.5333 318.328 80.224 318.387 79.936 318.504C79.648 318.611 79.3973 318.771 79.184 318.984C78.9813 319.187 78.8213 319.427 78.704 319.704C78.5867 319.981 78.528 320.291 78.528 320.632L77.088 320.392C77.1627 319.848 77.312 319.373 77.536 318.968C77.76 318.552 78.0373 318.205 78.368 317.928C78.7093 317.64 79.0987 317.427 79.536 317.288C79.9733 317.139 80.4427 317.064 80.944 317.064C81.4453 317.064 81.9093 317.139 82.336 317.288C82.7733 317.437 83.152 317.656 83.472 317.944C83.792 318.221 84.0427 318.563 84.224 318.968C84.4053 319.373 84.496 319.837 84.496 320.36C84.496 320.797 84.432 321.203 84.304 321.576C84.176 321.949 84 322.312 83.776 322.664C83.552 323.005 83.2907 323.341 82.992 323.672C82.6933 323.992 82.3787 324.317 82.048 324.648L78.768 327.896C78.992 327.832 79.216 327.784 79.44 327.752C79.6747 327.72 79.8933 327.704 80.096 327.704H84.72V329ZM94.6353 323.16C94.6353 324.195 94.5233 325.096 94.2993 325.864C94.0753 326.621 93.7713 327.251 93.3873 327.752C93.0033 328.253 92.5499 328.627 92.0273 328.872C91.5046 329.107 90.9393 329.224 90.3313 329.224C89.7233 329.224 89.1579 329.107 88.6353 328.872C88.1126 328.627 87.6539 328.253 87.2593 327.752C86.8753 327.251 86.5713 326.621 86.3473 325.864C86.1339 325.096 86.0273 324.195 86.0273 323.16C86.0273 322.115 86.1339 321.213 86.3473 320.456C86.5713 319.688 86.8753 319.053 87.2593 318.552C87.6539 318.051 88.1126 317.683 88.6353 317.448C89.1579 317.203 89.7233 317.08 90.3313 317.08C90.9393 317.08 91.5046 317.203 92.0273 317.448C92.5499 317.683 93.0033 318.051 93.3873 318.552C93.7713 319.053 94.0753 319.688 94.2993 320.456C94.5233 321.213 94.6353 322.115 94.6353 323.16ZM93.1633 323.16C93.1633 322.243 93.0833 321.475 92.9233 320.856C92.7739 320.227 92.5659 319.725 92.2993 319.352C92.0433 318.968 91.7446 318.696 91.4033 318.536C91.0619 318.365 90.7046 318.28 90.3313 318.28C89.9579 318.28 89.6006 318.365 89.2593 318.536C88.9179 318.696 88.6193 318.968 88.3633 319.352C88.1073 319.725 87.8993 320.227 87.7393 320.856C87.5899 321.475 87.5153 322.243 87.5153 323.16C87.5153 324.067 87.5899 324.835 87.7393 325.464C87.8993 326.083 88.1073 326.584 88.3633 326.968C88.6193 327.352 88.9179 327.629 89.2593 327.8C89.6006 327.96 89.9579 328.04 90.3313 328.04C90.7046 328.04 91.0619 327.96 91.4033 327.8C91.7446 327.629 92.0433 327.352 92.2993 326.968C92.5659 326.584 92.7739 326.083 92.9233 325.464C93.0833 324.835 93.1633 324.067 93.1633 323.16ZM103.479 329H97.1425V327.816H99.7505V319.144C99.7505 319.08 99.7558 319.021 99.7665 318.968L97.6385 320.872L96.8545 319.928L100.007 317.208H101.175V327.816H103.479V329ZM113.01 329H106.674V327.816H109.282V319.144C109.282 319.08 109.287 319.021 109.298 318.968L107.17 320.872L106.386 319.928L109.538 317.208H110.706V327.816H113.01V329Z" fill="#999999"/>
<circle cx="96" cy="298" r="8.5" fill="white" stroke="#999999"/>
<path d="M190 292L196 298L190 304" stroke="#999999"/>
<path d="M99 119L217 119" stroke="#999999"/>
<path d="M87.72 150H79.848V148.976L83.896 145.088C84.2053 144.757 84.488 144.448 84.744 144.16C85.0107 143.861 85.2347 143.563 85.416 143.264C85.608 142.965 85.7573 142.667 85.864 142.368C85.9707 142.059 86.024 141.733 86.024 141.392C86.0027 140.688 85.7893 140.171 85.384 139.84C84.9787 139.499 84.472 139.328 83.864 139.328C83.5333 139.328 83.224 139.387 82.936 139.504C82.648 139.611 82.3973 139.771 82.184 139.984C81.9813 140.187 81.8213 140.427 81.704 140.704C81.5867 140.981 81.528 141.291 81.528 141.632L80.088 141.392C80.1627 140.848 80.312 140.373 80.536 139.968C80.76 139.552 81.0373 139.205 81.368 138.928C81.7093 138.64 82.0987 138.427 82.536 138.288C82.9733 138.139 83.4427 138.064 83.944 138.064C84.4453 138.064 84.9093 138.139 85.336 138.288C85.7733 138.437 86.152 138.656 86.472 138.944C86.792 139.221 87.0427 139.563 87.224 139.968C87.4053 140.373 87.496 140.837 87.496 141.36C87.496 141.797 87.432 142.203 87.304 142.576C87.176 142.949 87 143.312 86.776 143.664C86.552 144.005 86.2907 144.341 85.992 144.672C85.6933 144.992 85.3787 145.317 85.048 145.648L81.768 148.896C81.992 148.832 82.216 148.784 82.44 148.752C82.6747 148.72 82.8933 148.704 83.096 148.704H87.72V150ZM97.6353 144.16C97.6353 145.195 97.5233 146.096 97.2993 146.864C97.0753 147.621 96.7713 148.251 96.3873 148.752C96.0033 149.253 95.5499 149.627 95.0273 149.872C94.5046 150.107 93.9393 150.224 93.3313 150.224C92.7233 150.224 92.1579 150.107 91.6353 149.872C91.1126 149.627 90.6539 149.253 90.2593 148.752C89.8753 148.251 89.5713 147.621 89.3473 146.864C89.1339 146.096 89.0273 145.195 89.0273 144.16C89.0273 143.115 89.1339 142.213 89.3473 141.456C89.5713 140.688 89.8753 140.053 90.2593 139.552C90.6539 139.051 91.1126 138.683 91.6353 138.448C92.1579 138.203 92.7233 138.08 93.3313 138.08C93.9393 138.08 94.5046 138.203 95.0273 138.448C95.5499 138.683 96.0033 139.051 96.3873 139.552C96.7713 140.053 97.0753 140.688 97.2993 141.456C97.5233 142.213 97.6353 143.115 97.6353 144.16ZM96.1633 144.16C96.1633 143.243 96.0833 142.475 95.9233 141.856C95.7739 141.227 95.5659 140.725 95.2993 140.352C95.0433 139.968 94.7446 139.696 94.4033 139.536C94.0619 139.365 93.7046 139.28 93.3313 139.28C92.9579 139.28 92.6006 139.365 92.2593 139.536C91.9179 139.696 91.6193 139.968 91.3633 140.352C91.1073 140.725 90.8993 141.227 90.7393 141.856C90.5899 142.475 90.5153 143.243 90.5153 144.16C90.5153 145.067 90.5899 145.835 90.7393 146.464C90.8993 147.083 91.1073 147.584 91.3633 147.968C91.6193 148.352 91.9179 148.629 92.2593 148.8C92.6006 148.96 92.9579 149.04 93.3313 149.04C93.7046 149.04 94.0619 148.96 94.4033 148.8C94.7446 148.629 95.0433 148.352 95.2993 147.968C95.5659 147.584 95.7739 147.083 95.9233 146.464C96.0833 145.835 96.1633 145.067 96.1633 144.16ZM107.167 144.16C107.167 145.195 107.055 146.096 106.831 146.864C106.607 147.621 106.303 148.251 105.919 148.752C105.535 149.253 105.081 149.627 104.559 149.872C104.036 150.107 103.471 150.224 102.863 150.224C102.255 150.224 101.689 150.107 101.167 149.872C100.644 149.627 100.185 149.253 99.7905 148.752C99.4065 148.251 99.1025 147.621 98.8785 146.864C98.6652 146.096 98.5585 145.195 98.5585 144.16C98.5585 143.115 98.6652 142.213 98.8785 141.456C99.1025 140.688 99.4065 140.053 99.7905 139.552C100.185 139.051 100.644 138.683 101.167 138.448C101.689 138.203 102.255 138.08 102.863 138.08C103.471 138.08 104.036 138.203 104.559 138.448C105.081 138.683 105.535 139.051 105.919 139.552C106.303 140.053 106.607 140.688 106.831 141.456C107.055 142.213 107.167 143.115 107.167 144.16ZM105.695 144.16C105.695 143.243 105.615 142.475 105.455 141.856C105.305 141.227 105.097 140.725 104.831 140.352C104.575 139.968 104.276 139.696 103.935 139.536C103.593 139.365 103.236 139.28 102.863 139.28C102.489 139.28 102.132 139.365 101.791 139.536C101.449 139.696 101.151 139.968 100.895 140.352C100.639 140.725 100.431 141.227 100.271 141.856C100.121 142.475 100.047 143.243 100.047 144.16C100.047 145.067 100.121 145.835 100.271 146.464C100.431 147.083 100.639 147.584 100.895 147.968C101.151 148.352 101.449 148.629 101.791 148.8C102.132 148.96 102.489 149.04 102.863 149.04C103.236 149.04 103.593 148.96 103.935 148.8C104.276 148.629 104.575 148.352 104.831 147.968C105.097 147.584 105.305 147.083 105.455 146.464C105.615 145.835 105.695 145.067 105.695 144.16ZM111.45 142.64C111.311 142.832 111.194 142.992 111.098 143.12C111.012 143.248 110.943 143.344 110.89 143.408C111.178 143.216 111.487 143.067 111.818 142.96C112.148 142.853 112.511 142.8 112.906 142.8C113.386 142.8 113.839 142.88 114.266 143.04C114.692 143.189 115.066 143.419 115.386 143.728C115.706 144.027 115.956 144.395 116.138 144.832C116.33 145.269 116.426 145.771 116.426 146.336C116.426 146.88 116.324 147.387 116.122 147.856C115.93 148.325 115.652 148.736 115.29 149.088C114.938 149.44 114.511 149.717 114.01 149.92C113.508 150.112 112.959 150.208 112.362 150.208C111.764 150.208 111.22 150.112 110.73 149.92C110.25 149.728 109.839 149.456 109.498 149.104C109.156 148.752 108.89 148.331 108.698 147.84C108.516 147.339 108.426 146.784 108.426 146.176C108.426 145.653 108.538 145.099 108.762 144.512C108.996 143.915 109.37 143.28 109.882 142.608L113.146 138.208H114.986L111.45 142.64ZM112.33 148.976C112.714 148.976 113.066 148.912 113.386 148.784C113.716 148.656 113.994 148.48 114.218 148.256C114.452 148.032 114.634 147.765 114.762 147.456C114.89 147.147 114.954 146.811 114.954 146.448C114.954 146.064 114.89 145.717 114.762 145.408C114.634 145.088 114.458 144.821 114.234 144.608C114.01 144.395 113.743 144.229 113.434 144.112C113.124 143.995 112.788 143.936 112.426 143.936C112.031 143.936 111.674 144.005 111.354 144.144C111.044 144.272 110.778 144.453 110.554 144.688C110.33 144.912 110.154 145.173 110.026 145.472C109.908 145.771 109.85 146.085 109.85 146.416C109.85 147.184 110.063 147.803 110.49 148.272C110.916 148.741 111.53 148.976 112.33 148.976Z" fill="#999999"/>
<circle cx="99" cy="119" r="8.5" fill="white" stroke="#999999"/>
<path d="M211 113L217 119L211 125" stroke="#999999"/>
<path d="M19 213.292V235.671L36.219 243.419L53.4297 235.671V213.292L36.219 205.544L19 213.292Z" fill="#373A36"/>
<path d="M66.5662 209.641V215.048H71.586C73.2922 215.048 74.677 216.119 74.677 217.751C74.677 219.68 73.2922 221.23 71.586 221.23H66.5662V215.048H59.6094V239.784H73.1356C78.2461 239.784 82.4086 236.396 82.4086 231.286C82.4086 227.758 80.0595 225.046 76.919 223.711C76.919 223.546 76.919 223.53 76.919 223.356C79.3011 222.31 80.859 220.373 80.859 217.372C80.859 212.344 76.6964 209.641 71.586 209.641H66.5662ZM72.3608 233.602H66.5662V226.645H71.586C73.9022 226.645 76.2266 228.195 76.2266 230.511C76.2266 232.827 74.067 233.602 72.3608 233.602Z" fill="#373A36"/>
<path d="M100.579 209.641H94.3969L83.5742 239.784H91.3058L93.3912 232.827H103.126L105.211 239.784H112.943L102.12 209.641H100.571H100.579ZM95.2458 226.645L98.2627 216.597L101.279 226.645H95.2541H95.2458Z" fill="#373A36"/>
<path d="M135.046 238.234H128.864L122.847 222.424L122.476 222.507L122.666 224.362C123.193 229.48 123.457 234.632 123.457 239.775H116.5V209.632H124.232L131.963 229.835L139.695 209.632H147.427V239.775H140.47C140.47 234.624 140.733 229.48 141.261 224.362L141.451 222.507L141.08 222.424L135.063 238.234H135.046Z" fill="#373A36"/>
<path d="M164.968 209.641H153.988V239.784H160.945V229.786C161.028 229.712 161.069 229.67 161.159 229.596C167.399 230.223 176.408 231.368 176.408 219.375C176.408 212.13 170.573 209.641 164.968 209.641ZM160.945 224.428V215.204H163.731C166.608 215.204 170.226 215.987 170.226 219.466C170.226 225.854 164.333 224.931 160.953 224.428H160.945Z" fill="#373A36"/>
<path d="M36.2189 220.43L50.6601 213.935L36.2189 207.432L21.7695 213.935L36.2189 220.43Z" fill="#F5C01B"/>
<path d="M37.0742 221.931V241.144L51.705 234.558V215.345L37.0742 221.931Z" fill="white"/>
<path d="M35.3534 221.931L20.7227 215.345V234.558L35.3534 241.144V221.931Z" fill="white"/>
<path d="M63.4763 205H56.5195V211.957H63.4763V205Z" fill="#F5C01B"/>
<defs>
<clipPath id="clip0_550_177">
<rect width="197" height="78" fill="white"/>
</clipPath>
</defs>
</svg>
