<svg width="549" viewBox="0 0 549 208" fill="none" xmlns="http://www.w3.org/2000/svg">
<g filter="url(#filter0_d_433_3047)">
<path d="M513.759 16.2236H18.6507C10.5593 16.2236 4 22.783 4 30.8743V172.787C4 180.878 10.5593 187.438 18.6507 187.438H513.759C521.85 187.438 528.41 180.878 528.41 172.787V30.8743C528.41 22.783 521.85 16.2236 513.759 16.2236Z" fill="white"/>
<path d="M513.759 16.2236H18.6507C10.5593 16.2236 4 22.783 4 30.8743V172.787C4 180.878 10.5593 187.438 18.6507 187.438H513.759C521.85 187.438 528.41 180.878 528.41 172.787V30.8743C528.41 22.783 521.85 16.2236 513.759 16.2236Z" stroke="#524740" stroke-linecap="round" stroke-linejoin="round"/>
</g>
<path d="M130.548 1.37891H28.7959C20.7689 1.37891 14.2617 7.88609 14.2617 15.9131V17.4144C14.2617 25.4415 20.7689 31.9487 28.7959 31.9487H130.548C138.575 31.9487 145.083 25.4415 145.083 17.4144V15.9131C145.083 7.88609 138.575 1.37891 130.548 1.37891Z" fill="#FDC335" stroke="#534741" stroke-width="1.04" stroke-miterlimit="10"/>
<path d="M30.4531 9.70117H39.0598V10.6848H35.3194V20.8704H34.2064V10.6848H30.4531V9.70117Z" fill="#534741"/>
<path d="M40.0703 13.248H41.1057V18.1014C41.1057 18.645 41.261 19.098 41.5716 19.4733C41.9081 19.9004 42.3999 20.1204 43.0212 20.1204C43.7459 20.1204 44.3542 19.8357 44.8719 19.2533C45.4026 18.645 45.6743 17.972 45.6743 17.2472V13.261H46.6968V20.8711H45.8038L45.739 19.5768C45.5837 19.7839 45.4284 19.9781 45.2602 20.1334C45.0919 20.2887 44.9107 20.444 44.7037 20.5734C44.173 20.897 43.5906 21.0523 42.9565 21.0523C42.0893 21.0523 41.3904 20.7805 40.8598 20.2369C40.3421 19.6804 40.0833 19.0203 40.0833 18.2308V13.248H40.0703Z" fill="#534741"/>
<path d="M52.1171 13.2466V14.2691C52.0136 14.2302 51.923 14.2043 51.8583 14.1784C51.7936 14.1526 51.7288 14.1396 51.69 14.1267C51.6512 14.1137 51.5865 14.1137 51.5347 14.1008C51.4829 14.1008 51.4182 14.1008 51.3276 14.1008C50.6287 14.1008 50.0593 14.4373 49.6192 15.1103C49.2439 15.7315 49.0498 16.4175 49.0498 17.1681V20.8567H48.0273V13.2466H48.9721L49.0368 14.5538C49.2698 14.1526 49.5028 13.8678 49.7098 13.6996C50.1369 13.3501 50.6546 13.1689 51.25 13.1689C51.4053 13.1689 51.5606 13.1689 51.703 13.1819C51.8453 13.1819 51.9748 13.2078 52.1171 13.2337V13.2466Z" fill="#534741"/>
<path d="M59.6643 15.7574V20.8567H58.6419V15.8351C58.6419 15.3044 58.4477 14.8644 58.0595 14.5279C57.6712 14.1785 57.2053 13.9973 56.6617 13.9973C55.9369 13.9973 55.3157 14.295 54.798 14.8903C54.2803 15.4986 54.0215 16.1845 54.0215 16.9352V20.8438H53.0508V13.2337H53.9438L53.9826 14.6573C54.2415 14.2691 54.5391 13.9455 54.8756 13.6867C55.4322 13.2725 56.0663 13.0654 56.7652 13.0654C57.5806 13.0654 58.2665 13.3113 58.8101 13.8032C59.3666 14.282 59.6514 14.9421 59.6514 15.7574H59.6643Z" fill="#534741"/>
<path d="M71.4823 15.9264V19.5114C71.4823 19.6667 71.5211 19.8091 71.5859 19.9256C71.6635 20.0421 71.7929 20.1068 71.9741 20.1068C72.0259 20.1068 72.0777 20.1068 72.1165 20.1068C72.1553 20.1068 72.1941 20.1068 72.233 20.0809C72.2847 20.068 72.3365 20.0421 72.3883 20.0291C72.4271 20.0162 72.4659 19.9903 72.4918 19.9903V20.7927C72.3236 20.8445 72.1553 20.8963 71.9741 20.9092C71.8059 20.9351 71.6764 20.948 71.5729 20.948C71.094 20.948 70.7705 20.8186 70.6152 20.5598C70.4858 20.4045 70.434 20.055 70.434 19.5244C70.3046 19.7315 70.1881 19.9127 70.0587 20.068C69.9292 20.2233 69.8128 20.3527 69.6833 20.4562C69.1915 20.8445 68.6221 21.0386 67.962 21.0386C67.2631 21.0386 66.6678 20.8316 66.1501 20.4303C65.6194 19.9903 65.3477 19.4338 65.3477 18.7608C65.3477 17.9195 65.7747 17.2983 66.6289 16.8971C66.9396 16.7418 67.3537 16.6124 67.8714 16.4959C68.3891 16.3794 69.0103 16.2759 69.7351 16.1853L70.421 16.1076C70.421 15.4476 70.2528 14.9299 69.9163 14.5545C69.5798 14.1792 69.088 13.998 68.4279 13.998C68.182 13.998 67.9361 14.0239 67.6902 14.0886C67.4443 14.1533 67.1984 14.2439 66.9525 14.3863C66.8231 14.4639 66.6678 14.5545 66.5125 14.6581C66.3572 14.7616 66.176 14.891 65.9818 15.0593V13.8945C66.7843 13.3509 67.6514 13.0791 68.5832 13.0791C69.5151 13.0791 70.2657 13.3768 70.7705 13.9721C71.2105 14.4898 71.4435 15.1499 71.4435 15.9394L71.4823 15.9264ZM70.4469 17.4277V16.9748L69.9681 17.0265C68.7774 17.1559 67.9491 17.3112 67.4573 17.5183C66.8101 17.7772 66.4866 18.1913 66.4866 18.7737C66.4866 18.942 66.5254 19.1102 66.6031 19.2655C66.6807 19.4209 66.7843 19.5632 66.9137 19.6797C67.0431 19.8091 67.2113 19.8997 67.4055 19.9774C67.5996 20.055 67.8196 20.0939 68.0526 20.0939C68.6997 20.0939 69.2692 19.835 69.748 19.3173C70.214 18.7867 70.4469 18.1525 70.4469 17.4277Z" fill="#534741"/>
<path d="M77.6757 13.2466V14.2691C77.5722 14.2302 77.4816 14.2043 77.4169 14.1784C77.3521 14.1526 77.2874 14.1396 77.2486 14.1267C77.2098 14.1137 77.1451 14.1137 77.0933 14.1008C77.0415 14.1008 76.9768 14.1008 76.8862 14.1008C76.1873 14.1008 75.6179 14.4373 75.1778 15.1103C74.8025 15.7315 74.6084 16.4175 74.6084 17.1681V20.8567H73.5859V13.2466H74.5307L74.5954 14.5538C74.8284 14.1526 75.0614 13.8678 75.2684 13.6996C75.6955 13.3501 76.2132 13.1689 76.8086 13.1689C76.9639 13.1689 77.1192 13.1689 77.2616 13.1819C77.4039 13.1819 77.5333 13.2078 77.6757 13.2337V13.2466Z" fill="#534741"/>
<path d="M82.1673 21.0379C81.1837 21.0379 80.3295 20.6885 79.5918 19.9637C78.8023 19.213 78.4141 18.2424 78.4141 17.0517C78.4141 15.9257 78.7635 14.9809 79.4494 14.2173C80.1613 13.4537 81.0413 13.0654 82.0897 13.0654C83.138 13.0654 83.9922 13.4537 84.704 14.2173C85.4029 14.9809 85.7524 15.9127 85.7524 17.0387C85.7524 18.2165 85.377 19.1871 84.6134 19.9637C83.9145 20.6885 83.0992 21.0508 82.1673 21.0508V21.0379ZM82.0638 20.0931C82.7497 20.0931 83.358 19.8084 83.8887 19.2389C84.4063 18.6565 84.6523 17.9188 84.6523 17.0258C84.6523 16.1328 84.3805 15.3562 83.824 14.7738C83.3192 14.2432 82.7368 13.9714 82.0767 13.9714C81.4167 13.9714 80.8084 14.2432 80.3295 14.7997C79.7989 15.408 79.5271 16.1457 79.5271 17.0387C79.5271 17.9318 79.7859 18.6824 80.3036 19.2777C80.7825 19.8213 81.3778 20.0931 82.0509 20.0931H82.0638Z" fill="#534741"/>
<path d="M86.8516 13.248H87.887V18.1014C87.887 18.645 88.0423 19.098 88.3529 19.4733C88.6894 19.9004 89.1812 20.1204 89.8024 20.1204C90.5272 20.1204 91.1355 19.8357 91.6532 19.2533C92.1838 18.645 92.4556 17.972 92.4556 17.2472V13.261H93.478V20.8711H92.585L92.5203 19.5768C92.365 19.7839 92.2097 19.9781 92.0414 20.1334C91.8732 20.2887 91.692 20.444 91.4849 20.5734C90.9543 20.897 90.3719 21.0523 89.7377 21.0523C88.8706 21.0523 88.1717 20.7805 87.641 20.2369C87.1234 19.6804 86.8645 19.0203 86.8645 18.2308V13.248H86.8516Z" fill="#534741"/>
<path d="M101.43 15.7574V20.8567H100.407V15.8351C100.407 15.3044 100.213 14.8644 99.8251 14.5279C99.4368 14.1785 98.9709 13.9973 98.4273 13.9973C97.7025 13.9973 97.0813 14.295 96.5636 14.8903C96.0459 15.4986 95.7871 16.1845 95.7871 16.9352V20.8438H94.8164V13.2337H95.7094L95.7483 14.6573C96.0071 14.2691 96.3048 13.9455 96.6413 13.6867C97.1978 13.2725 97.832 13.0654 98.5308 13.0654C99.3462 13.0654 100.032 13.3113 100.576 13.8032C101.132 14.282 101.417 14.9421 101.417 15.7574H101.43Z" fill="#534741"/>
<path d="M108.095 9.70117H109.195V20.8575H108.211L108.108 19.615C107.978 19.8091 107.836 19.9774 107.707 20.1197C107.577 20.2621 107.435 20.3915 107.305 20.4951C106.826 20.8575 106.283 21.0387 105.649 21.0387C104.665 21.0387 103.863 20.6633 103.216 19.8997C102.581 19.1361 102.258 18.2172 102.258 17.143C102.258 16.0688 102.594 15.0722 103.267 14.2828C103.953 13.4803 104.807 13.0662 105.83 13.0662C106.257 13.0662 106.658 13.1438 107.021 13.2992C107.15 13.3509 107.305 13.4286 107.487 13.5321C107.668 13.6356 107.862 13.7392 108.082 13.8686V9.70117H108.095ZM108.095 17.1689V14.9816C107.655 14.5934 107.254 14.3345 106.93 14.2051C106.593 14.0757 106.27 14.011 105.959 14.011C105.183 14.011 104.549 14.3345 104.07 14.9946C103.617 15.6158 103.384 16.3276 103.384 17.143C103.384 18.0101 103.63 18.7479 104.134 19.3173C104.6 19.848 105.144 20.1197 105.791 20.1197C106.438 20.1197 106.956 19.848 107.409 19.2914C107.862 18.7479 108.095 18.036 108.095 17.1818V17.1689Z" fill="#534741"/>
<path d="M110.305 20.1966V18.9542C110.9 19.4331 111.495 19.7566 112.104 19.9508C112.285 20.0025 112.453 20.0284 112.634 20.0543C112.803 20.0802 112.984 20.0931 113.165 20.0931C113.747 20.0931 114.226 19.9637 114.602 19.6919C114.99 19.4072 115.184 19.0836 115.184 18.7342C115.184 18.54 115.106 18.3459 114.964 18.1518C114.77 17.9059 114.239 17.6858 113.372 17.4788C112.35 17.2199 111.664 17.0128 111.327 16.8446C110.667 16.4693 110.331 15.9386 110.331 15.2527C110.331 14.6185 110.602 14.1008 111.159 13.6867C111.715 13.2725 112.414 13.0654 113.256 13.0654C113.631 13.0654 113.98 13.1043 114.278 13.169C114.576 13.2337 114.86 13.3243 115.132 13.4278C115.404 13.5314 115.65 13.6737 115.87 13.829V15.0715C115.469 14.735 115.055 14.4761 114.614 14.282C114.174 14.0879 113.721 13.9843 113.23 13.9843C112.738 13.9843 112.324 14.0879 111.974 14.3079C111.612 14.5279 111.431 14.8126 111.431 15.1621C111.431 15.628 111.858 16.0033 112.712 16.2751C113.113 16.3916 113.501 16.5081 113.89 16.6116C114.278 16.7281 114.666 16.8446 115.067 16.9481C115.935 17.3235 116.362 17.88 116.362 18.6306C116.362 19.2648 116.064 19.8213 115.469 20.3131C114.86 20.792 114.11 21.0249 113.204 21.0249C112.803 21.0249 112.414 20.9861 112.039 20.8955C111.431 20.7661 110.848 20.5202 110.305 20.1837V20.1966Z" fill="#534741"/>
<path d="M30.6758 50.7285H502.41" stroke="#847974" stroke-width="0.29" stroke-miterlimit="10"/>
<path d="M30.6758 60.7715H502.41" stroke="#847974" stroke-width="0.29" stroke-miterlimit="10"/>
<path opacity="0.56" d="M30.6758 74.7627H502.41" stroke="#847974" stroke-width="0.29" stroke-miterlimit="10"/>
<path opacity="0.56" d="M30.6758 81.5576H502.41" stroke="#847974" stroke-width="0.29" stroke-miterlimit="10"/>
<path opacity="0.56" d="M30.6758 140.949H502.41" stroke="#847974" stroke-width="0.29" stroke-miterlimit="10"/>
<path opacity="0.56" d="M30.6758 132.886H502.41" stroke="#847974" stroke-width="0.29" stroke-miterlimit="10"/>
<path opacity="0.56" d="M30.6758 156.221H502.41" stroke="#847974" stroke-width="0.29" stroke-miterlimit="10"/>
<path opacity="0.56" d="M30.6758 137.131H502.41" stroke="#847974" stroke-width="0.29" stroke-miterlimit="10"/>
<path d="M30.6758 101.061H502.41" stroke="#847974" stroke-width="0.29" stroke-miterlimit="10"/>
<path d="M30.6758 163.003H502.41" stroke="#847974" stroke-width="0.29" stroke-miterlimit="10"/>
<path d="M101.492 157.477L101.531 153.736L108.559 153.969L108.274 157.27L101.492 157.477Z" fill="#F0D246" stroke="#524740" stroke-width="0.48" stroke-linecap="round" stroke-linejoin="round"/>
<path d="M96.2032 157.477L96.1515 153.736L89.1367 153.969L89.4215 157.27L96.2032 157.477Z" fill="#F0D246" stroke="#524740" stroke-width="0.48" stroke-linecap="round" stroke-linejoin="round"/>
<path d="M80.8242 125.729C80.8242 125.729 83.7492 141.856 85.8458 148.754C87.9554 155.639 88.5119 154.837 91.0486 155.07C93.5853 155.303 96.9245 155.07 96.9245 152.999C96.9245 150.928 95.2678 136.692 98.2575 136.692H99.1505C102.14 136.692 100.484 150.928 100.484 152.999C100.484 155.07 103.81 155.29 106.359 155.07C108.909 154.85 109.466 155.639 111.562 148.754C113.659 141.869 116.623 125.911 116.623 125.911L80.8242 125.742V125.729Z" fill="#333333" stroke="#524740" stroke-width="0.47" stroke-linecap="round" stroke-linejoin="round"/>
<path d="M102.18 156.416H108.146C109.673 156.416 110.916 157.658 110.916 159.186V162.758H99.4102V159.186C99.4102 157.658 100.653 156.416 102.18 156.416Z" fill="#333333" stroke="#524740" stroke-width="0.49" stroke-linecap="round" stroke-linejoin="round"/>
<path d="M89.4334 156.416H96.1375C97.4576 156.416 98.5448 157.49 98.5448 158.823V162.758H87.0391V158.823C87.0391 157.503 88.1133 156.416 89.4463 156.416H89.4334Z" fill="#333333" stroke="#524740" stroke-width="0.49" stroke-linecap="round" stroke-linejoin="round"/>
<path d="M73.7957 126.92C73.7957 126.92 73.2781 127.787 71.8156 129.12C70.3531 130.453 67.8164 132.096 69.0589 133.818C70.0295 135.151 71.4144 133.417 71.4144 133.417C71.4144 133.417 69.4342 138.231 72.385 139.888C76.1254 141.997 80.8493 139.823 80.6811 134.763C80.5128 129.702 80.5516 127.295 78.6232 126.829C76.7078 126.35 74.2358 125.936 73.8087 126.92H73.7957Z" fill="white" stroke="#524740" stroke-width="0.43" stroke-linecap="round" stroke-linejoin="round"/>
<path d="M82.9077 98.9907C82.9077 98.9907 77.2649 104.465 73.5763 115.181C69.8877 125.898 70.9102 128.434 74.0552 129.509C77.2002 130.583 80.9534 131.579 81.0958 128.059C81.2382 124.539 82.5195 113.357 84.6032 108.723C87.334 102.627 88.0329 99.7413 85.9492 98.3436C84.862 97.6058 83.7101 98.2529 82.9077 99.0036V98.9907Z" fill="#F0D246" stroke="#524740" stroke-width="0.48" stroke-linecap="round" stroke-linejoin="round"/>
<path d="M123.647 126.92C123.647 126.92 124.165 127.787 125.628 129.12C127.09 130.453 129.627 132.096 128.384 133.818C127.414 135.151 126.029 133.417 126.029 133.417C126.029 133.417 128.009 138.231 125.058 139.888C121.318 141.997 116.594 139.823 116.762 134.763C116.93 129.702 116.892 127.295 118.82 126.829C120.735 126.35 123.207 125.936 123.635 126.92H123.647Z" fill="white" stroke="#524740" stroke-width="0.43" stroke-linecap="round" stroke-linejoin="round"/>
<path d="M114.536 98.9907C114.536 98.9907 120.179 104.465 123.867 115.181C127.556 125.898 126.533 128.434 123.388 129.509C120.243 130.583 116.49 131.579 116.348 128.059C116.205 124.539 114.924 113.357 112.84 108.723C110.109 102.627 109.411 99.7413 111.494 98.3436C112.581 97.6058 113.733 98.2529 114.536 99.0036V98.9907Z" fill="#F0D246" stroke="#524740" stroke-width="0.48" stroke-linecap="round" stroke-linejoin="round"/>
<path d="M117.617 123.062C117.604 132.989 108.946 132.963 98.5012 132.795C88.0568 132.626 79.7996 133.286 79.8125 122.467C79.8255 110.172 88.7557 92.6347 99.2001 92.803C109.645 92.9712 117.643 110.767 117.617 123.062Z" fill="white" stroke="#524740" stroke-width="0.46" stroke-miterlimit="10"/>
<path d="M89.6007 117.399L88.4102 117.38L88.391 118.57L89.5816 118.59L89.6007 117.399Z" fill="#E9AA30"/>
<path d="M94.5242 109.189L94.4336 114.198L98.2645 115.997L102.134 114.327L102.225 109.318L98.3939 107.52L94.5242 109.189Z" fill="#2F322E"/>
<path d="M90.1512 118.197V119.129L91.0054 119.142C91.303 119.142 91.536 119.336 91.536 119.621C91.536 119.957 91.2901 120.216 90.9924 120.216H90.1253L90.1382 119.142H88.9475L88.8828 123.374H89.0122L91.2124 123.413C92.0925 123.426 92.8173 122.856 92.8302 121.976C92.8302 121.368 92.442 120.902 91.9113 120.656C91.9113 120.63 91.9113 120.63 91.9113 120.592C92.3255 120.423 92.5973 120.087 92.6102 119.569C92.6231 118.702 91.9113 118.223 91.0312 118.21H90.1641L90.1512 118.197ZM91.083 122.339H90.0864L90.0994 121.122H90.9665C91.3677 121.148 91.756 121.42 91.756 121.808C91.756 122.196 91.3807 122.339 91.083 122.326V122.339Z" fill="#2F322E"/>
<path d="M96.0038 118.287H95.2014L94.9296 118.274L92.9883 123.425L94.3213 123.451L94.6967 122.261L96.3662 122.287L96.7027 123.49L98.0358 123.516L96.2627 118.3H95.9909L96.0038 118.287ZM95.0332 121.199L95.5767 119.478L96.0686 121.212H95.0332V121.199Z" fill="#2F322E"/>
<path d="M101.853 123.296H100.792L99.7952 120.539H99.7305L99.7563 120.876C99.834 121.756 99.8599 122.649 99.8469 123.529H98.6562L98.7339 118.326H99.0057L99.8081 118.339H100.08L101.348 121.846L102.733 118.391H103.005L103.807 118.404H104.079L104.001 123.594H102.811V123.581C102.824 122.701 102.888 121.808 102.992 120.928L103.031 120.604H102.966L101.892 123.296H101.853Z" fill="#2F322E"/>
<path d="M107.077 118.469H106.326L105.187 118.443L105.109 123.633H106.3L106.326 121.938C106.339 121.925 106.352 121.912 106.365 121.899C107.439 122.028 108.979 122.248 109.018 120.178C109.044 118.935 108.047 118.482 107.077 118.469ZM106.339 121.006L106.365 119.414H106.844C107.335 119.427 107.957 119.569 107.944 120.178C107.931 121.278 106.908 121.097 106.339 121.006Z" fill="#2F322E"/>
<path d="M98.3425 110.845L101.604 109.448L98.3943 107.946L95.1328 109.344L98.3425 110.845Z" fill="#E9AA30"/>
<path d="M98.5347 111.195L98.457 115.492L101.757 114.068L101.822 109.771L98.5347 111.195Z" fill="white"/>
<path d="M98.1504 111.182L94.9019 109.655L94.8242 113.952L98.0857 115.479L98.1504 111.182Z" fill="white"/>
<path d="M127.11 60.8105H70.332V101.074H127.11V60.8105Z" fill="white" stroke="#524740" stroke-width="0.48" stroke-linecap="round" stroke-linejoin="round"/>
<path d="M119.759 50.7803H77.6962L70.332 60.8106H127.123L119.759 50.7803Z" fill="#F0D246" stroke="#524740" stroke-width="0.48" stroke-linecap="round" stroke-linejoin="round"/>
<path d="M102.938 81.9844C102.11 83.0198 100.751 83.9257 98.6027 83.8999C96.5708 83.861 95.2895 83.0974 94.5 82.1656" stroke="#524740" stroke-width="0.48" stroke-linecap="round" stroke-linejoin="round"/>
<path d="M111.169 81.6739C113.092 81.6739 114.65 80.1152 114.65 78.1924C114.65 76.2697 113.092 74.7109 111.169 74.7109C109.246 74.7109 107.688 76.2697 107.688 78.1924C107.688 80.1152 109.246 81.6739 111.169 81.6739Z" fill="#524740"/>
<path d="M86.2549 81.6739C88.1777 81.6739 89.7364 80.1152 89.7364 78.1924C89.7364 76.2697 88.1777 74.7109 86.2549 74.7109C84.3322 74.7109 82.7734 76.2697 82.7734 78.1924C82.7734 80.1152 84.3322 81.6739 86.2549 81.6739Z" fill="#524740"/>
<path d="M324.758 157.477L324.706 153.736L317.691 153.969L317.976 157.27L324.758 157.477Z" fill="#F0D246" stroke="#524740" stroke-width="0.48" stroke-linecap="round" stroke-linejoin="round"/>
<path d="M330.051 157.477L330.09 153.736L337.104 153.969L336.833 157.27L330.051 157.477Z" fill="#F0D246" stroke="#524740" stroke-width="0.48" stroke-linecap="round" stroke-linejoin="round"/>
<path d="M345.416 125.729C345.416 125.729 342.491 141.856 340.394 148.754C338.297 155.652 337.728 154.837 335.191 155.07C332.642 155.303 329.315 155.07 329.315 152.999C329.315 150.928 330.972 136.692 327.982 136.692H327.089C324.1 136.692 325.756 150.928 325.756 152.999C325.756 155.07 322.43 155.29 319.88 155.07C317.331 154.85 316.774 155.639 314.678 148.754C312.581 141.869 309.617 125.911 309.617 125.911L345.416 125.742V125.729Z" fill="#333333" stroke="#524740" stroke-width="0.47" stroke-linecap="round" stroke-linejoin="round"/>
<path d="M326.84 162.758H315.334V159.186C315.334 157.659 316.577 156.416 318.104 156.416H324.07C325.597 156.416 326.84 157.659 326.84 159.186V162.758Z" fill="#333333" stroke="#524740" stroke-width="0.49" stroke-linecap="round" stroke-linejoin="round"/>
<path d="M339.206 162.758H327.7V158.823C327.7 157.503 328.774 156.416 330.107 156.416H336.811C338.132 156.416 339.219 157.49 339.219 158.823V162.758H339.206Z" fill="#333333" stroke="#524740" stroke-width="0.49" stroke-linecap="round" stroke-linejoin="round"/>
<path d="M308.625 123.062C308.638 132.989 317.296 132.963 327.741 132.795C338.185 132.626 346.443 133.286 346.43 122.467C346.417 110.172 337.486 92.6347 327.042 92.803C316.598 92.9712 308.599 110.767 308.625 123.062Z" fill="white" stroke="#524740" stroke-width="0.46" stroke-miterlimit="10"/>
<path d="M352.46 126.92C352.46 126.92 352.978 127.787 354.44 129.12C355.903 130.453 358.439 132.096 357.197 133.818C356.226 135.151 354.841 133.417 354.841 133.417C354.841 133.417 356.822 138.231 353.871 139.888C350.13 141.997 345.406 139.823 345.575 134.763C345.743 129.702 345.704 127.295 347.633 126.829C349.548 126.35 352.02 125.936 352.447 126.92H352.46Z" fill="white" stroke="#524740" stroke-width="0.43" stroke-linecap="round" stroke-linejoin="round"/>
<path d="M343.348 98.9907C343.348 98.9907 348.991 104.465 352.68 115.181C356.368 125.898 355.346 128.434 352.201 129.509C349.056 130.583 345.302 131.579 345.16 128.059C345.018 124.539 343.736 113.357 341.653 108.723C338.922 102.627 338.223 99.7413 340.307 98.3436C341.394 97.6058 342.546 98.2529 343.348 99.0036V98.9907Z" fill="#F0D246" stroke="#524740" stroke-width="0.48" stroke-linecap="round" stroke-linejoin="round"/>
<path d="M302.589 126.92C302.589 126.92 302.071 127.787 300.609 129.12C299.146 130.453 296.609 132.096 297.852 133.818C298.823 135.151 300.207 133.417 300.207 133.417C300.207 133.417 298.227 138.231 301.178 139.888C304.918 141.997 309.642 139.823 309.474 134.763C309.306 129.702 309.345 127.295 307.416 126.829C305.501 126.35 303.029 125.936 302.602 126.92H302.589Z" fill="white" stroke="#524740" stroke-width="0.43" stroke-linecap="round" stroke-linejoin="round"/>
<path d="M311.701 98.9907C311.701 98.9907 306.058 104.465 302.369 115.181C298.681 125.898 299.703 128.434 302.848 129.509C305.993 130.583 309.746 131.579 309.889 128.059C310.031 124.539 311.312 113.357 313.396 108.723C316.127 102.627 316.826 99.7413 314.742 98.3436C313.655 97.6058 312.503 98.2529 311.701 99.0036V98.9907Z" fill="#F0D246" stroke="#524740" stroke-width="0.48" stroke-linecap="round" stroke-linejoin="round"/>
<path d="M327.71 111.194L327.775 115.491L324.488 114.067L324.41 109.771L327.71 111.194Z" fill="white"/>
<path d="M299.136 101.061H355.914V60.797L299.136 60.797V101.061Z" fill="white" stroke="#524740" stroke-width="0.48" stroke-linecap="round" stroke-linejoin="round"/>
<path d="M306.484 50.7803H348.56L355.911 60.8106H299.133L306.484 50.7803Z" fill="#F0D246" stroke="#524740" stroke-width="0.48" stroke-linecap="round" stroke-linejoin="round"/>
<path d="M211.359 157.476L211.411 153.735L218.426 153.968L218.141 157.269L211.359 157.476Z" fill="#F0D246" stroke="#524740" stroke-width="0.48" stroke-linecap="round" stroke-linejoin="round"/>
<path d="M201.125 125.159C201.125 125.159 206.16 141.349 207.298 148.985C208.373 156.117 211.582 154.835 214.339 155.055C217.083 155.288 220.681 155.055 220.681 152.985C220.681 150.914 225.573 129.391 224.046 124.861C224.046 124.861 207.933 120.68 201.449 125.883" fill="#333333"/>
<path d="M201.125 125.159C201.125 125.159 206.16 141.349 207.298 148.985C208.373 156.117 211.582 154.835 214.339 155.055C217.083 155.288 220.681 155.055 220.681 152.985C220.681 150.914 225.573 129.391 224.046 124.861C224.046 124.861 207.933 120.68 201.449 125.883" stroke="#524740" stroke-width="0.47" stroke-linecap="round" stroke-linejoin="round"/>
<path d="M207.645 156.415H218.283C219.034 156.415 219.655 157.023 219.655 157.787V162.757H204.875V159.185C204.875 157.657 206.117 156.415 207.645 156.415Z" fill="#333333" stroke="#524740" stroke-width="0.49" stroke-linecap="round" stroke-linejoin="round"/>
<path d="M228.124 122.997C228.086 132.924 221.213 132.924 212.93 132.794C204.647 132.665 198.085 133.351 198.137 122.518C198.189 110.223 205.333 92.6604 213.603 92.7898C221.873 92.9192 228.176 110.702 228.111 122.997H228.124Z" fill="white" stroke="#524740" stroke-width="0.48" stroke-linecap="round" stroke-linejoin="round"/>
<path d="M218.683 127.527L219.525 134.4C219.525 134.4 220.353 139.538 217.104 140.483C212.976 141.686 208.886 138.489 210.193 133.597C211.5 128.705 212.018 126.362 213.998 126.337C215.978 126.311 218.476 126.466 218.67 127.527H218.683Z" fill="white" stroke="#524740" stroke-width="0.48" stroke-linecap="round" stroke-linejoin="round"/>
<path d="M215.193 98.3933C215.193 98.3933 219.438 105.007 220.59 116.28C221.742 127.552 220.163 129.791 216.863 130.115C213.562 130.438 210.366 130.633 210.34 127.099C210.314 123.1 210.404 112.255 209.9 107.194C209.265 100.826 210.042 97.9403 212.385 97.0603C213.614 96.5943 214.585 97.4873 215.193 98.3933Z" fill="#F0D246" stroke="#524740" stroke-width="0.48" stroke-linecap="round" stroke-linejoin="round"/>
<path d="M241.516 60.8096H184.738V101.073H241.516V60.8096Z" fill="white" stroke="#524740" stroke-width="0.48" stroke-linecap="round" stroke-linejoin="round"/>
<mask id="mask0_433_3047" style="mask-type:luminance" maskUnits="userSpaceOnUse" x="198" y="93" width="31" height="41">
<path d="M228.437 123.321C228.398 133.248 221.526 133.248 213.243 133.119C204.96 132.989 198.398 133.675 198.45 122.842C198.501 110.547 205.645 92.9846 213.916 93.114C222.199 93.2434 228.489 111.026 228.424 123.321H228.437Z" fill="white"/>
</mask>
<g mask="url(#mask0_433_3047)">
<path d="M199.507 109.358L198.809 114.328L199.818 116.23L201.332 114.677L202.031 109.707L201.009 107.805L199.507 109.358Z" fill="#2F322E"/>
<path d="M198.77 118.429L198.511 118.391H198.42L197.074 123.438L197.514 123.503L197.799 122.325L198.356 122.403L198.304 123.606L198.744 123.671L198.86 118.429H198.77ZM198.058 121.29L198.472 119.594L198.394 121.341L198.058 121.29Z" fill="#2F322E"/>
<path d="M200.029 123.594L199.679 123.542L199.718 120.799H199.692L199.653 121.122C199.563 122.002 199.446 122.882 199.33 123.762L198.941 123.711L199.666 118.56H199.757L200.016 118.611H200.106L200.054 122.145L200.986 118.754H201.077L201.336 118.805H201.426L200.702 123.969L200.313 123.918C200.443 123.038 200.572 122.158 200.727 121.29L200.779 120.98H200.766L200.042 123.62L200.029 123.594Z" fill="#2F322E"/>
<path d="M202.409 118.948L202.163 118.909L201.787 118.857L201.062 124.008L201.451 124.06L201.697 122.352C201.697 122.352 201.697 122.339 201.71 122.326C202.046 122.481 202.525 122.753 202.823 120.695C203.004 119.453 202.732 118.987 202.409 118.935V118.948ZM201.826 121.446L202.046 119.867L202.201 119.893C202.37 119.919 202.551 120.074 202.46 120.669C202.305 121.757 201.994 121.562 201.813 121.446H201.826Z" fill="#2F322E"/>
<path d="M200.542 111.118L201.81 109.823L200.956 108.231L199.688 109.526L200.542 111.118Z" fill="#E9AA30"/>
<path d="M200.569 111.454L199.961 115.725L201.242 114.417L201.851 110.146L200.569 111.454Z" fill="white"/>
<path d="M200.44 111.441L199.573 109.823L198.965 114.094L199.832 115.712L200.44 111.441Z" fill="white"/>
</g>
<path d="M436.753 157.475L436.714 153.734L429.699 153.967L429.971 157.268L436.753 157.475Z" fill="#F0D246" stroke="#524740" stroke-width="0.48" stroke-linecap="round" stroke-linejoin="round"/>
<path d="M447.001 125.159C447.001 125.159 441.967 141.349 440.828 148.985C439.754 156.117 436.544 154.835 433.787 155.055C431.043 155.288 427.446 155.055 427.446 152.985C427.446 150.914 422.553 129.391 424.081 124.861C424.081 124.861 440.194 120.68 446.678 125.883" fill="#333333"/>
<path d="M447.001 125.159C447.001 125.159 441.967 141.349 440.828 148.985C439.754 156.117 436.544 154.835 433.787 155.055C431.043 155.288 427.446 155.055 427.446 152.985C427.446 150.914 422.553 129.391 424.081 124.861C424.081 124.861 440.194 120.68 446.678 125.883" stroke="#524740" stroke-width="0.47" stroke-linecap="round" stroke-linejoin="round"/>
<path d="M443.234 162.756H428.454V157.786C428.454 157.035 429.063 156.414 429.826 156.414H440.465C441.992 156.414 443.234 157.657 443.234 159.184V162.756Z" fill="#333333" stroke="#524740" stroke-width="0.49" stroke-linecap="round" stroke-linejoin="round"/>
<path d="M420.004 122.997C420.043 132.924 426.915 132.924 435.198 132.794C443.481 132.665 450.043 133.351 449.991 122.518C449.939 110.223 442.795 92.6604 434.525 92.7898C426.242 92.9192 419.952 110.702 420.017 122.997H420.004Z" fill="white" stroke="#524740" stroke-width="0.48" stroke-linecap="round" stroke-linejoin="round"/>
<path d="M429.428 127.526L428.587 134.399C428.587 134.399 427.758 139.537 431.007 140.482C435.136 141.685 439.225 138.488 437.918 133.596C436.611 128.704 436.093 126.361 434.113 126.336C432.133 126.31 429.635 126.465 429.441 127.526H429.428Z" fill="white" stroke="#524740" stroke-width="0.48" stroke-linecap="round" stroke-linejoin="round"/>
<path d="M432.935 98.3933C432.935 98.3933 428.69 105.007 427.539 116.28C426.387 127.552 427.966 129.791 431.266 130.115C434.566 130.438 437.763 130.633 437.789 127.099C437.815 123.1 437.724 112.255 438.229 107.194C438.863 100.826 438.087 97.9403 435.744 97.0603C434.514 96.5943 433.544 97.4873 432.935 98.3933Z" fill="#F0D246" stroke="#524740" stroke-width="0.48" stroke-linecap="round" stroke-linejoin="round"/>
<path d="M406.597 101.061H463.375V60.797L406.597 60.797V101.061Z" fill="white" stroke="#524740" stroke-width="0.48" stroke-linecap="round" stroke-linejoin="round"/>
<mask id="mask1_433_3047" style="mask-type:luminance" maskUnits="userSpaceOnUse" x="419" y="93" width="31" height="41">
<path d="M419.684 123.32C419.722 133.247 426.595 133.247 434.878 133.118C443.161 132.988 449.723 133.674 449.671 122.842C449.619 110.546 442.475 92.9836 434.205 93.113C425.922 93.2424 419.632 111.025 419.697 123.32H419.684Z" fill="white"/>
</mask>
<g mask="url(#mask1_433_3047)">
<path d="M445.479 118.985L445.013 119.05L444.871 117.872L445.35 117.808L445.479 118.985Z" fill="#E9AA30"/>
<path d="M446.336 109.357L446.879 114.314L448.601 115.828L449.947 113.9L449.39 108.943L447.669 107.429L446.336 109.357Z" fill="#2F322E"/>
<path d="M445.649 118.572L445.752 119.491L446.102 119.439C446.218 119.426 446.335 119.594 446.361 119.866C446.399 120.19 446.335 120.474 446.218 120.487L445.869 120.539L445.752 119.491L445.273 119.555L445.739 123.775H445.791L446.658 123.645C447.008 123.593 447.228 122.985 447.137 122.105C447.072 121.51 446.852 121.07 446.619 120.863C446.619 120.837 446.619 120.837 446.619 120.798C446.762 120.591 446.827 120.254 446.775 119.737C446.684 118.882 446.348 118.455 445.998 118.507L445.649 118.559V118.572ZM446.503 122.597L446.102 122.649L445.972 121.458L446.322 121.406C446.477 121.38 446.671 121.626 446.71 122.027C446.749 122.429 446.619 122.571 446.503 122.584V122.597Z" fill="#2F322E"/>
<path d="M447.978 118.249L447.655 118.287H447.551L447.383 123.542L447.913 123.464V122.261L448.586 122.17L448.858 123.335L449.389 123.257L448.082 118.223H447.978V118.249ZM447.939 121.199V119.452L448.353 121.135L447.939 121.186V121.199Z" fill="#2F322E"/>
<path d="M450.878 122.804L450.451 122.855L449.739 120.215H449.714L449.765 120.552C449.895 121.419 450.011 122.299 450.115 123.179L449.636 123.244L449.066 118.106H449.17L449.494 118.054H449.597L450.503 121.419L450.645 117.898H450.749L451.072 117.847H451.176L451.745 122.972L451.267 123.037C451.163 122.156 451.085 121.276 451.034 120.396L451.008 120.073H450.982L450.865 122.817L450.878 122.804Z" fill="#2F322E"/>
<path d="M448.039 110.729L449.152 109.111L447.716 107.843L446.59 109.461L448.039 110.729Z" fill="#E9AA30"/>
<path d="M448.145 111.053L448.623 115.311L449.762 113.667L449.283 109.409L448.145 111.053Z" fill="white"/>
<path d="M448.003 111.065L446.527 109.784L447.006 114.042L448.469 115.323L448.003 111.065Z" fill="white"/>
</g>
<defs>
<filter id="filter0_d_433_3047" x="0.11" y="12.3336" width="548.01" height="194.814" filterUnits="userSpaceOnUse" color-interpolation-filters="sRGB">
<feFlood flood-opacity="0" result="BackgroundImageFix"/>
<feColorMatrix in="SourceAlpha" type="matrix" values="0 0 0 0 0 0 0 0 0 0 0 0 0 0 0 0 0 0 127 0" result="hardAlpha"/>
<feOffset dx="7.91" dy="7.91"/>
<feGaussianBlur stdDeviation="5.65"/>
<feColorMatrix type="matrix" values="0 0 0 0 0 0 0 0 0 0 0 0 0 0 0 0 0 0 0.1 0"/>
<feBlend mode="normal" in2="BackgroundImageFix" result="effect1_dropShadow_433_3047"/>
<feBlend mode="normal" in="SourceGraphic" in2="effect1_dropShadow_433_3047" result="shape"/>
</filter>
</defs>
</svg>
