<svg width="549" viewBox="0 0 549 156" fill="none" xmlns="http://www.w3.org/2000/svg">
<g filter="url(#filter0_d_433_3046)">
<path d="M514.349 16.8848H19.2405C11.1492 16.8848 4.58984 23.4441 4.58984 31.5355V121.886C4.58984 129.977 11.1492 136.536 19.2405 136.536H514.349C522.44 136.536 529 129.977 529 121.886V31.5355C529 23.4441 522.44 16.8848 514.349 16.8848Z" fill="white"/>
<path d="M514.349 16.8848H19.2405C11.1492 16.8848 4.58984 23.4441 4.58984 31.5355V121.886C4.58984 129.977 11.1492 136.536 19.2405 136.536H514.349C522.44 136.536 529 129.977 529 121.886V31.5355C529 23.4441 522.44 16.8848 514.349 16.8848Z" stroke="#524740" stroke-linecap="round" stroke-linejoin="round"/>
</g>
<path d="M124.762 1.48242H28.8467C20.8197 1.48242 14.3125 7.98961 14.3125 16.0166V17.518C14.3125 25.545 20.8197 32.0522 28.8467 32.0522H124.762C132.789 32.0522 139.296 25.545 139.296 17.518V16.0166C139.296 7.98961 132.789 1.48242 124.762 1.48242Z" fill="#FDC335" stroke="#534741" stroke-width="1.01" stroke-miterlimit="10"/>
<path d="M30.7461 8.83301H37.6961V9.81662H31.8721V13.6734H37.4761V14.6571H31.8721V19.0315H37.7349V20.0152H30.7461V8.84594V8.83301Z" fill="#534741"/>
<path d="M39.1466 12.3926H40.4278L42.2657 15.2269L44.1293 12.3926H45.32L42.861 15.9388L45.6436 20.0156H44.3364L42.2009 16.6765L40.0525 20.0156H38.8359L41.6315 15.9388L39.1595 12.3926H39.1466Z" fill="#534741"/>
<path d="M47.7544 19.329V22.461H46.7578V12.3919H47.6767L47.7285 13.7767C48.0391 13.259 48.4015 12.8837 48.8156 12.6119C49.2298 12.3401 49.7216 12.2236 50.2911 12.2236C51.2359 12.2236 52.0253 12.599 52.6595 13.3367C52.9831 13.712 53.229 14.1262 53.3843 14.5791C53.5396 15.0451 53.6302 15.5498 53.6302 16.1193C53.6302 17.297 53.2807 18.2677 52.556 19.0313C51.8441 19.7949 50.99 20.1832 50.0063 20.1832C49.5145 20.1832 49.0615 20.0796 48.6344 19.8725C48.505 19.8208 48.3756 19.7561 48.2332 19.6525C48.0909 19.5619 47.9226 19.4454 47.7414 19.316L47.7544 19.329ZM47.7544 15.951V18.2289C47.9097 18.3712 48.052 18.4877 48.1685 18.5913C48.2979 18.6948 48.4144 18.7724 48.518 18.8372C48.9839 19.1089 49.4498 19.2513 49.9287 19.2513C50.6923 19.2513 51.3135 18.9536 51.7924 18.3583C52.2842 17.7371 52.5301 16.9735 52.5301 16.0804C52.5301 15.2392 52.2971 14.5533 51.8441 13.9838C51.4041 13.4273 50.8346 13.1425 50.1358 13.1425C49.4369 13.1425 48.8415 13.4532 48.3756 14.0614C47.9614 14.618 47.7544 15.2521 47.7544 15.9381V15.951Z" fill="#534741"/>
<path d="M58.7304 12.3931V13.4155C58.6269 13.3767 58.5363 13.3508 58.4715 13.3249C58.4068 13.2991 58.3421 13.2861 58.3033 13.2732C58.2645 13.2602 58.1998 13.2602 58.148 13.2473C58.0962 13.2473 58.0315 13.2473 57.9409 13.2473C57.242 13.2473 56.6726 13.5838 56.2325 14.2568C55.8572 14.878 55.6631 15.564 55.6631 16.3146V20.0032H54.6406V12.3931H55.5854L55.6501 13.7003C55.8831 13.299 56.116 13.0143 56.3231 12.8461C56.7502 12.4966 57.2679 12.3154 57.8633 12.3154C58.0186 12.3154 58.1739 12.3154 58.3162 12.3284C58.4586 12.3284 58.588 12.3543 58.7304 12.3801V12.3931Z" fill="#534741"/>
<path d="M66.3397 15.8988H60.5415C60.5415 16.9859 60.8004 17.8272 61.3051 18.3966C61.8099 18.9661 62.4829 19.2638 63.3112 19.2638C63.9324 19.2638 64.5407 19.0696 65.1231 18.6684C65.2784 18.5649 65.4596 18.4354 65.6408 18.2801C65.822 18.1248 66.0161 17.9436 66.2232 17.7366V18.979C65.9902 19.1473 65.7831 19.3026 65.589 19.432C65.3949 19.5614 65.2137 19.665 65.0454 19.7556C64.4501 20.0662 63.8547 20.2215 63.2465 20.2215C62.2111 20.2215 61.331 19.8721 60.6062 19.1473C59.8297 18.3966 59.4414 17.426 59.4414 16.2353C59.4414 15.1093 59.7909 14.1645 60.4897 13.4009C61.2016 12.6373 62.0816 12.249 63.13 12.249C64.1783 12.249 64.9548 12.6244 65.5502 13.3621C66.0808 14.0351 66.3526 14.8893 66.3526 15.9246L66.3397 15.8988ZM60.6839 15.0316H65.136C65.0195 14.3845 64.7736 13.9056 64.3983 13.5821C64.023 13.2585 63.57 13.1032 63.0394 13.1032C62.457 13.1032 61.9522 13.2844 61.551 13.6597C61.1757 13.9962 60.878 14.4622 60.6839 15.0316Z" fill="#534741"/>
<path d="M67.3242 19.3549V18.1124C67.9196 18.5913 68.5149 18.9148 69.1232 19.1089C69.3044 19.1607 69.4726 19.1866 69.6538 19.2125C69.8221 19.2384 70.0033 19.2513 70.1845 19.2513C70.7669 19.2513 71.2457 19.1219 71.6211 18.8501C72.0093 18.5654 72.2035 18.2418 72.2035 17.8924C72.2035 17.6982 72.1258 17.5041 71.9835 17.31C71.7893 17.0641 71.2587 16.844 70.3916 16.637C69.3691 16.3781 68.6832 16.171 68.3467 16.0028C67.6866 15.6275 67.3501 15.0968 67.3501 14.4109C67.3501 13.7767 67.6219 13.259 68.1784 12.8449C68.7349 12.4307 69.4338 12.2236 70.2751 12.2236C70.6504 12.2236 70.9998 12.2625 71.2975 12.3272C71.5952 12.3919 71.8799 12.4825 72.1517 12.586C72.4235 12.6896 72.6694 12.8319 72.8894 12.9872V14.2297C72.4882 13.8932 72.0741 13.6343 71.634 13.4402C71.194 13.2461 70.741 13.1425 70.2492 13.1425C69.7574 13.1425 69.3432 13.2461 68.9938 13.4661C68.6314 13.6861 68.4502 13.9708 68.4502 14.3203C68.4502 14.7862 68.8773 15.1615 69.7315 15.4333C70.1327 15.5498 70.521 15.6663 70.9092 15.7698C71.2975 15.8863 71.6858 16.0028 72.087 16.1063C72.9541 16.4817 73.3812 17.0382 73.3812 17.7888C73.3812 18.423 73.0836 18.9795 72.4882 19.4713C71.8799 19.9502 71.1293 20.1832 70.2233 20.1832C69.8221 20.1832 69.4338 20.1443 69.0585 20.0537C68.4502 19.9243 67.8678 19.6784 67.3242 19.3419V19.3549Z" fill="#534741"/>
<path d="M74.3867 19.3549V18.1124C74.9821 18.5913 75.5774 18.9148 76.1857 19.1089C76.3669 19.1607 76.5351 19.1866 76.7163 19.2125C76.8846 19.2384 77.0658 19.2513 77.247 19.2513C77.8294 19.2513 78.3082 19.1219 78.6836 18.8501C79.0718 18.5654 79.266 18.2418 79.266 17.8924C79.266 17.6982 79.1883 17.5041 79.046 17.31C78.8518 17.0641 78.3212 16.844 77.454 16.637C76.4316 16.3781 75.7457 16.171 75.4092 16.0028C74.7491 15.6275 74.4126 15.0968 74.4126 14.4109C74.4126 13.7767 74.6844 13.259 75.2409 12.8449C75.7974 12.4307 76.4963 12.2236 77.3376 12.2236C77.7129 12.2236 78.0623 12.2625 78.36 12.3272C78.6577 12.3919 78.9424 12.4825 79.2142 12.586C79.486 12.6896 79.7319 12.8319 79.9519 12.9872V14.2297C79.5507 13.8932 79.1366 13.6343 78.6965 13.4402C78.2565 13.2461 77.8035 13.1425 77.3117 13.1425C76.8199 13.1425 76.4057 13.2461 76.0563 13.4661C75.6939 13.6861 75.5127 13.9708 75.5127 14.3203C75.5127 14.7862 75.9398 15.1615 76.794 15.4333C77.1952 15.5498 77.5835 15.6663 77.9717 15.7698C78.36 15.8863 78.7483 16.0028 79.1495 16.1063C80.0166 16.4817 80.4437 17.0382 80.4437 17.7888C80.4437 18.423 80.146 18.9795 79.5507 19.4713C78.9424 19.9502 78.1918 20.1832 77.2858 20.1832C76.8846 20.1832 76.4963 20.1443 76.121 20.0537C75.5127 19.9243 74.9303 19.6784 74.3867 19.3419V19.3549Z" fill="#534741"/>
<path d="M82.0114 9.16919C82.2055 9.16919 82.3738 9.2339 82.5032 9.36332C82.6326 9.49275 82.6973 9.68688 82.6973 9.93279C82.6973 10.1787 82.6326 10.3728 82.5161 10.5023C82.3867 10.6317 82.2185 10.6964 81.9984 10.6964C81.7784 10.6964 81.6102 10.6187 81.4937 10.4634C81.3772 10.3081 81.3125 10.1399 81.3125 9.93279C81.3125 9.62217 81.3902 9.41509 81.5325 9.31155C81.6749 9.20801 81.8302 9.15625 81.9984 9.15625L82.0114 9.16919ZM81.5066 12.3918H82.5291V20.0019H81.5066V12.3918Z" fill="#534741"/>
<path d="M87.4056 20.1961C86.422 20.1961 85.5678 19.8467 84.8301 19.1219C84.0406 18.3712 83.6523 17.4006 83.6523 16.2099C83.6523 15.0839 84.0018 14.1391 84.6877 13.3755C85.3996 12.6119 86.2796 12.2236 87.328 12.2236C88.3763 12.2236 89.2305 12.6119 89.9423 13.3755C90.6412 14.1391 90.9906 15.0709 90.9906 16.1969C90.9906 17.3747 90.6153 18.3454 89.8517 19.1219C89.1528 19.8467 88.3375 20.209 87.4056 20.209V20.1961ZM87.3021 19.2513C87.988 19.2513 88.5963 18.9666 89.1269 18.3971C89.6446 17.8147 89.8905 17.077 89.8905 16.184C89.8905 15.291 89.6188 14.5144 89.0622 13.932C88.5575 13.4014 87.9751 13.1296 87.315 13.1296C86.655 13.1296 86.0467 13.4014 85.5678 13.9579C85.0372 14.5662 84.7654 15.3039 84.7654 16.1969C84.7654 17.0899 85.0242 17.8406 85.5419 18.4359C86.0208 18.9795 86.6161 19.2513 87.2891 19.2513H87.3021Z" fill="#534741"/>
<path d="M98.7698 14.9156V20.0149H97.7473V14.9933C97.7473 14.4627 97.5532 14.0226 97.1649 13.6861C96.7767 13.3367 96.3107 13.1555 95.7672 13.1555C95.0424 13.1555 94.4212 13.4532 93.9035 14.0485C93.3858 14.6568 93.1269 15.3427 93.1269 16.0934V20.002H92.1562V12.3919H93.0493L93.0881 13.8155C93.3469 13.4273 93.6446 13.1037 93.9811 12.8449C94.5376 12.4307 95.1718 12.2236 95.8707 12.2236C96.6861 12.2236 97.372 12.4695 97.9156 12.9613C98.4721 13.4402 98.7568 14.1003 98.7568 14.9156H98.7698Z" fill="#534741"/>
<path d="M99.9609 19.3549V18.1124C100.556 18.5913 101.152 18.9148 101.76 19.1089C101.941 19.1607 102.109 19.1866 102.291 19.2125C102.459 19.2384 102.64 19.2513 102.821 19.2513C103.404 19.2513 103.882 19.1219 104.258 18.8501C104.646 18.5654 104.84 18.2418 104.84 17.8924C104.84 17.6982 104.763 17.5041 104.62 17.31C104.426 17.0641 103.895 16.844 103.028 16.637C102.006 16.3781 101.32 16.171 100.983 16.0028C100.323 15.6275 99.9868 15.0968 99.9868 14.4109C99.9868 13.7767 100.259 13.259 100.815 12.8449C101.372 12.4307 102.071 12.2236 102.912 12.2236C103.287 12.2236 103.637 12.2625 103.934 12.3272C104.232 12.3919 104.517 12.4825 104.788 12.586C105.06 12.6896 105.306 12.8319 105.526 12.9872V14.2297C105.125 13.8932 104.711 13.6343 104.271 13.4402C103.831 13.2461 103.378 13.1425 102.886 13.1425C102.394 13.1425 101.98 13.2461 101.63 13.4661C101.268 13.6861 101.087 13.9708 101.087 14.3203C101.087 14.7862 101.514 15.1615 102.368 15.4333C102.769 15.5498 103.158 15.6663 103.546 15.7698C103.934 15.8863 104.322 16.0028 104.724 16.1063C105.591 16.4817 106.018 17.0382 106.018 17.7888C106.018 18.423 105.72 18.9795 105.125 19.4713C104.517 19.9502 103.766 20.1832 102.86 20.1832C102.459 20.1832 102.071 20.1443 101.695 20.0537C101.087 19.9243 100.505 19.6784 99.9609 19.3419V19.3549Z" fill="#534741"/>
<path d="M117.295 65.3018H56.6211V108.322H117.295V65.3018Z" fill="white" stroke="#524740" stroke-width="0.51" stroke-linecap="round" stroke-linejoin="round"/>
<path d="M109.426 54.5986H64.4771L56.6211 65.3019H117.282L109.426 54.5986Z" fill="#F0D246" stroke="#524740" stroke-width="0.51" stroke-linecap="round" stroke-linejoin="round"/>
<path d="M91.4661 87.9375C90.586 89.0505 89.1235 90.0212 86.8328 89.9824C84.6714 89.9436 83.2995 89.1282 82.4453 88.1316" stroke="#524740" stroke-width="0.51" stroke-linecap="round" stroke-linejoin="round"/>
<path d="M100.265 87.5881C102.317 87.5881 103.98 85.9251 103.98 83.8736C103.98 81.8222 102.317 80.1592 100.265 80.1592C98.2138 80.1592 96.5508 81.8222 96.5508 83.8736C96.5508 85.9251 98.2138 87.5881 100.265 87.5881Z" fill="#524740"/>
<path d="M73.6441 87.5881C75.6956 87.5881 77.3586 85.9251 77.3586 83.8736C77.3586 81.8222 75.6956 80.1592 73.6441 80.1592C71.5927 80.1592 69.9297 81.8222 69.9297 83.8736C69.9297 85.9251 71.5927 87.5881 73.6441 87.5881Z" fill="#524740"/>
<path d="M209.064 65.3018H148.391V108.322H209.064V65.3018Z" fill="white" stroke="#524740" stroke-width="0.51" stroke-linecap="round" stroke-linejoin="round"/>
<path d="M201.195 54.5986H156.247L148.391 65.3019H209.064L201.195 54.5986Z" fill="#F0D246" stroke="#524740" stroke-width="0.51" stroke-linecap="round" stroke-linejoin="round"/>
<path d="M183.236 87.9365C182.356 89.0496 180.893 90.0202 178.602 89.9814C176.441 89.9426 175.069 89.1272 174.215 88.1307" stroke="#524740" stroke-width="0.51" stroke-linecap="round" stroke-linejoin="round"/>
<path d="M192.035 87.5881C194.086 87.5881 195.749 85.9251 195.749 83.8736C195.749 81.8222 194.086 80.1592 192.035 80.1592C189.983 80.1592 188.32 81.8222 188.32 83.8736C188.32 85.9251 189.983 87.5881 192.035 87.5881Z" fill="#524740"/>
<path d="M165.414 87.5881C167.465 87.5881 169.128 85.9251 169.128 83.8736C169.128 81.8222 167.465 80.1592 165.414 80.1592C163.362 80.1592 161.699 81.8222 161.699 83.8736C161.699 85.9251 163.362 87.5881 165.414 87.5881Z" fill="#524740"/>
<path d="M300.838 65.3018H240.164V108.322H300.838V65.3018Z" fill="white" stroke="#524740" stroke-width="0.51" stroke-linecap="round" stroke-linejoin="round"/>
<path d="M292.982 54.5986H248.033L240.164 65.3019H300.838L292.982 54.5986Z" fill="#F0D246" stroke="#524740" stroke-width="0.51" stroke-linecap="round" stroke-linejoin="round"/>
<path d="M266 89.9689C266.88 88.8558 268.343 87.8852 270.633 87.924C272.795 87.9628 274.167 88.7782 275.021 89.7747" stroke="#524740" stroke-width="0.51" stroke-linecap="round" stroke-linejoin="round"/>
<path d="M283.824 87.5881C285.875 87.5881 287.538 85.9251 287.538 83.8736C287.538 81.8222 285.875 80.1592 283.824 80.1592C281.772 80.1592 280.109 81.8222 280.109 83.8736C280.109 85.9251 281.772 87.5881 283.824 87.5881Z" fill="#524740"/>
<path d="M257.203 87.5881C259.254 87.5881 260.917 85.9251 260.917 83.8736C260.917 81.8222 259.254 80.1592 257.203 80.1592C255.151 80.1592 253.488 81.8222 253.488 83.8736C253.488 85.9251 255.151 87.5881 257.203 87.5881Z" fill="#524740"/>
<path d="M287.135 88.0792C288.336 88.0792 289.31 87.5171 289.31 86.8238C289.31 86.1304 288.336 85.5684 287.135 85.5684C285.934 85.5684 284.961 86.1304 284.961 86.8238C284.961 87.5171 285.934 88.0792 287.135 88.0792Z" fill="#8FCAD8"/>
<path d="M254.327 88.0792C255.527 88.0792 256.501 87.5171 256.501 86.8238C256.501 86.1304 255.527 85.5684 254.327 85.5684C253.126 85.5684 252.152 86.1304 252.152 86.8238C252.152 87.5171 253.126 88.0792 254.327 88.0792Z" fill="#8FCAD8"/>
<path d="M392.627 65.3018H331.953V108.322H392.627V65.3018Z" fill="white" stroke="#524740" stroke-width="0.51" stroke-linecap="round" stroke-linejoin="round"/>
<path d="M384.758 54.5986H339.809L331.953 65.3019H392.614L384.758 54.5986Z" fill="#F0D246" stroke="#524740" stroke-width="0.51" stroke-linecap="round" stroke-linejoin="round"/>
<path d="M366.794 87.9365C365.914 89.0496 364.452 90.0202 362.161 89.9814C360 89.9426 358.628 89.1272 357.773 88.1307" stroke="#524740" stroke-width="0.51" stroke-linecap="round" stroke-linejoin="round"/>
<path d="M484.404 65.3018H423.73V108.322H484.404V65.3018Z" fill="white" stroke="#524740" stroke-width="0.51" stroke-linecap="round" stroke-linejoin="round"/>
<path d="M476.535 54.5986H431.599L423.73 65.3019H484.404L476.535 54.5986Z" fill="#F0D246" stroke="#524740" stroke-width="0.51" stroke-linecap="round" stroke-linejoin="round"/>
<path d="M469.118 80.5596L462.582 84.4811L469.726 86.526" fill="white"/>
<path d="M469.118 80.5596L462.582 84.4811L469.726 86.526" stroke="#524740" stroke-width="0.5" stroke-linecap="round" stroke-linejoin="round"/>
<path d="M438.843 80.5596L444.952 84.4811L438.273 86.526" fill="white"/>
<path d="M438.843 80.5596L444.952 84.4811L438.273 86.526" stroke="#524740" stroke-width="0.5" stroke-linecap="round" stroke-linejoin="round"/>
<path d="M459.641 86.6171C459.641 87.6396 458.463 91.5999 453.882 91.587C449.067 91.587 448.148 87.6137 448.148 86.5783C448.148 85.5429 450.724 85.4264 453.895 85.4394C457.066 85.4523 459.641 85.5947 459.641 86.6171Z" fill="#FF9898" stroke="#524740" stroke-width="0.51" stroke-linecap="round" stroke-linejoin="round"/>
<path d="M185.2 87.2378C185.2 88.3509 183.919 92.6736 178.923 92.6607C173.668 92.6477 172.672 88.325 172.672 87.212C172.672 86.0989 175.48 85.9566 178.936 85.9695C182.392 85.9695 185.2 86.1378 185.187 87.2508L185.2 87.2378Z" fill="#FF9898" stroke="#524740" stroke-width="0.56" stroke-linecap="round" stroke-linejoin="round"/>
<path d="M380.653 89.9554C382.847 89.9554 384.626 88.6227 384.626 86.9787C384.626 85.3347 382.847 84.002 380.653 84.002C378.459 84.002 376.68 85.3347 376.68 86.9787C376.68 88.6227 378.459 89.9554 380.653 89.9554Z" fill="#FF9898"/>
<path d="M344.805 89.9554C347 89.9554 348.779 88.6227 348.779 86.9787C348.779 85.3347 347 84.002 344.805 84.002C342.611 84.002 340.832 85.3347 340.832 86.9787C340.832 88.6227 342.611 89.9554 344.805 89.9554Z" fill="#FF9898"/>
<path d="M375.597 87.5881C377.649 87.5881 379.312 85.9251 379.312 83.8736C379.312 81.8222 377.649 80.1592 375.597 80.1592C373.546 80.1592 371.883 81.8222 371.883 83.8736C371.883 85.9251 373.546 87.5881 375.597 87.5881Z" fill="#524740"/>
<path d="M348.976 87.5881C351.028 87.5881 352.691 85.9251 352.691 83.8736C352.691 81.8222 351.028 80.1592 348.976 80.1592C346.925 80.1592 345.262 81.8222 345.262 83.8736C345.262 85.9251 346.925 87.5881 348.976 87.5881Z" fill="#524740"/>
<defs>
<filter id="filter0_d_433_3046" x="0.799844" y="13.0948" width="547.37" height="142.611" filterUnits="userSpaceOnUse" color-interpolation-filters="sRGB">
<feFlood flood-opacity="0" result="BackgroundImageFix"/>
<feColorMatrix in="SourceAlpha" type="matrix" values="0 0 0 0 0 0 0 0 0 0 0 0 0 0 0 0 0 0 127 0" result="hardAlpha"/>
<feOffset dx="7.69" dy="7.69"/>
<feGaussianBlur stdDeviation="5.49"/>
<feColorMatrix type="matrix" values="0 0 0 0 0 0 0 0 0 0 0 0 0 0 0 0 0 0 0.1 0"/>
<feBlend mode="normal" in2="BackgroundImageFix" result="effect1_dropShadow_433_3046"/>
<feBlend mode="normal" in="SourceGraphic" in2="effect1_dropShadow_433_3046" result="shape"/>
</filter>
</defs>
</svg>
