<svg width="301" viewBox="0 0 301 159" fill="none" xmlns="http://www.w3.org/2000/svg">
<g clip-path="url(#clip0_429_654)">
<path d="M299.59 67.7804C299.59 31.1287 232.838 1.42285 150.506 1.42285C68.1738 1.42285 1.42188 31.1287 1.42188 67.7804C1.42188 102.067 59.8475 130.283 134.803 133.77L150.506 157.577L162.483 133.921C239.217 131.207 299.59 102.632 299.59 67.7804Z" stroke="black" stroke-width="3.01" stroke-linecap="round" stroke-linejoin="round"/>
<path d="M93.495 66.76H90.855V48.28H93.495V66.76ZM85.375 52.4C85.375 53.2533 85.4683 54.0933 85.655 54.92C85.8417 55.7467 86.1217 56.52 86.495 57.24C86.8683 57.96 87.3417 58.6067 87.915 59.18C88.5017 59.74 89.1817 60.1867 89.955 60.52L88.455 62.66C87.375 62.18 86.4817 61.5067 85.775 60.64C85.0683 59.76 84.5083 58.7533 84.095 57.62C83.6817 58.8733 83.1083 59.9733 82.375 60.92C81.6417 61.8533 80.7083 62.58 79.575 63.1L77.995 60.92C78.795 60.5733 79.495 60.1067 80.095 59.52C80.695 58.92 81.1883 58.2467 81.575 57.5C81.9617 56.74 82.2483 55.9267 82.435 55.06C82.635 54.18 82.735 53.2933 82.735 52.4V49.72H85.375V52.4ZM111.133 54.92V59.4H108.493V48.3H111.133V52.74H113.573V54.92H111.133ZM106.293 58.76C105.293 58.44 104.447 57.9733 103.753 57.36C103.06 56.7333 102.513 56.0133 102.113 55.2C101.7 56.0933 101.133 56.88 100.413 57.56C99.7068 58.24 98.8134 58.7533 97.7334 59.1L96.3534 57.04C97.1001 56.8 97.7468 56.4867 98.2934 56.1C98.8401 55.7 99.2868 55.2533 99.6334 54.76C99.9934 54.2667 100.26 53.74 100.433 53.18C100.607 52.62 100.7 52.0533 100.713 51.48H97.0534V49.38H107.013V51.48H103.413C103.427 52.0133 103.52 52.5467 103.693 53.08C103.867 53.6 104.12 54.0933 104.453 54.56C104.8 55.0133 105.233 55.4267 105.753 55.8C106.287 56.1733 106.913 56.48 107.633 56.72L106.293 58.76ZM111.133 60.22V66.74H108.493V62.32H98.8334V60.22H111.133ZM116.932 57.16V49H119.552V51.1H127.132V49H129.732V57.16H116.932ZM119.552 53.16V55.06H127.132V53.16H119.552ZM124.632 61V66.74H121.992V61H115.032V58.9H131.712V61H124.632ZM148.89 66.76H146.25V56.9H143.09V54.78H146.25V48.28H148.89V66.76ZM136.89 60.46C138.13 60.4467 139.284 60.4133 140.35 60.36C141.417 60.2933 142.517 60.1667 143.65 59.98L143.89 62.1C143.224 62.2067 142.57 62.2933 141.93 62.36C141.29 62.4133 140.644 62.46 139.99 62.5C139.337 62.5267 138.664 62.5467 137.97 62.56C137.277 62.5733 136.544 62.58 135.77 62.58H134.27V49.84H142.79V51.96H136.89V54.96H142.17V57.02H136.89V60.46ZM173.04 64.58H156.36V62.44H163.36V59.32C162.547 59.2267 161.8 59.04 161.12 58.76C160.44 58.48 159.853 58.1267 159.36 57.7C158.88 57.2733 158.5 56.7733 158.22 56.2C157.953 55.6267 157.82 55 157.82 54.32C157.82 53.5467 157.993 52.8467 158.34 52.22C158.687 51.5933 159.167 51.06 159.78 50.62C160.393 50.18 161.12 49.84 161.96 49.6C162.8 49.36 163.707 49.24 164.68 49.24C165.667 49.24 166.58 49.36 167.42 49.6C168.26 49.84 168.987 50.18 169.6 50.62C170.213 51.06 170.693 51.5933 171.04 52.22C171.387 52.8467 171.56 53.5467 171.56 54.32C171.56 55 171.42 55.6267 171.14 56.2C170.873 56.7733 170.493 57.2733 170 57.7C169.507 58.1267 168.92 58.48 168.24 58.76C167.56 59.04 166.813 59.2267 166 59.32V62.44H173.04V64.58ZM160.42 54.32C160.42 54.7867 160.52 55.2067 160.72 55.58C160.933 55.9533 161.227 56.2667 161.6 56.52C161.973 56.7733 162.42 56.9667 162.94 57.1C163.473 57.2333 164.053 57.3 164.68 57.3C165.32 57.3 165.9 57.2333 166.42 57.1C166.94 56.9667 167.387 56.7733 167.76 56.52C168.147 56.2667 168.44 55.9533 168.64 55.58C168.853 55.2067 168.96 54.7867 168.96 54.32C168.96 53.8533 168.853 53.4333 168.64 53.06C168.44 52.6867 168.147 52.3733 167.76 52.12C167.387 51.8667 166.94 51.6733 166.42 51.54C165.9 51.4067 165.32 51.34 164.68 51.34C164.053 51.34 163.473 51.4067 162.94 51.54C162.42 51.6733 161.973 51.8667 161.6 52.12C161.227 52.3733 160.933 52.6867 160.72 53.06C160.52 53.4333 160.42 53.8533 160.42 54.32ZM176.818 54.08V48.48H179.458V52H189.518V54.08H176.818ZM191.438 57.34H174.758V55.26H191.438V57.34ZM189.998 64.52V66.5H176.658V61.5H186.818V60.46H176.638V58.48H189.478V63.36H179.318V64.52H189.998ZM207.797 57.68V66.7H205.137V48.28H207.797V55.5H210.177V57.68H207.797ZM198.577 50.18C198.577 51.4467 198.53 52.6533 198.437 53.8C198.357 54.9333 198.184 56.02 197.917 57.06C197.664 58.1 197.29 59.1 196.797 60.06C196.304 61.02 195.65 61.9533 194.837 62.86L192.777 61.36C193.39 60.68 193.897 60 194.297 59.32C194.71 58.64 195.037 57.9333 195.277 57.2C195.53 56.4667 195.717 55.7 195.837 54.9C195.957 54.0867 196.037 53.22 196.077 52.3H193.597V50.18H198.577ZM203.657 50.18C203.657 51.5133 203.617 52.8 203.537 54.04C203.457 55.2667 203.29 56.4533 203.037 57.6C202.784 58.7467 202.417 59.8533 201.937 60.92C201.457 61.9867 200.817 63.02 200.017 64.02L197.937 62.56C198.55 61.7867 199.057 61.0133 199.457 60.24C199.857 59.4533 200.177 58.6467 200.417 57.82C200.657 56.98 200.83 56.1067 200.937 55.2C201.057 54.2933 201.137 53.3267 201.177 52.3H199.197V50.18H203.657ZM226.815 66.72H224.175V48.3H226.815V66.72ZM218.675 53.26C218.675 54.0067 218.769 54.76 218.955 55.52C219.142 56.2667 219.422 56.9733 219.795 57.64C220.182 58.3067 220.655 58.9067 221.215 59.44C221.789 59.9733 222.462 60.4 223.235 60.72L221.795 62.8C220.715 62.3333 219.809 61.68 219.075 60.84C218.355 59.9867 217.789 58.9933 217.375 57.86C216.962 59.0733 216.382 60.1533 215.635 61.1C214.902 62.0467 213.995 62.7667 212.915 63.26L211.415 61.16C212.189 60.8133 212.862 60.3533 213.435 59.78C214.009 59.2067 214.482 58.5733 214.855 57.88C215.242 57.1733 215.529 56.4267 215.715 55.64C215.902 54.84 215.995 54.0467 215.995 53.26V52.24H212.155V50.06H222.475V52.24H218.675V53.26ZM53.5925 82.64V91.72H50.9525V73.32H53.5925V80.46H56.2725V82.64H53.5925ZM45.8325 79.04C45.8325 79.6933 45.9125 80.36 46.0725 81.04C46.2458 81.7067 46.4992 82.3533 46.8325 82.98C47.1792 83.5933 47.6125 84.1667 48.1325 84.7C48.6658 85.22 49.2925 85.6533 50.0125 86L48.6125 88C47.6125 87.5467 46.7792 86.92 46.1125 86.12C45.4592 85.3067 44.9392 84.38 44.5525 83.34C44.1525 84.4733 43.5992 85.4733 42.8925 86.34C42.1858 87.1933 41.3125 87.8533 40.2725 88.32L38.8525 86.3C39.5992 85.9533 40.2458 85.5133 40.7925 84.98C41.3392 84.4333 41.7925 83.84 42.1525 83.2C42.5125 82.5467 42.7792 81.8667 42.9525 81.16C43.1258 80.44 43.2125 79.7333 43.2125 79.04V78.4H39.4725V76.3H43.2125V73.74H45.8525V76.3H49.4925V78.4H45.8325V79.04ZM69.1509 80.54C69.3376 79.66 69.4509 78.8867 69.4909 78.22C69.5443 77.54 69.5776 76.9 69.5909 76.3H59.4709V74.2H72.2309V75.52C72.2309 76.2133 72.2109 76.9933 72.1709 77.86C72.1309 78.7133 71.9909 79.6867 71.7509 80.78L69.1509 80.54ZM74.2109 83.84H57.5909V81.74H63.7509V78.32H66.3909V81.74H74.2109V83.84ZM72.0709 85.42V91.74H69.4309V87.5H59.3109V85.42H72.0709ZM90.3894 82.64V91.72H87.7494V73.32H90.3894V80.46H93.0694V82.64H90.3894ZM82.6294 79.04C82.6294 79.6933 82.7094 80.36 82.8694 81.04C83.0427 81.7067 83.296 82.3533 83.6294 82.98C83.976 83.5933 84.4094 84.1667 84.9294 84.7C85.4627 85.22 86.0894 85.6533 86.8094 86L85.4094 88C84.4094 87.5467 83.576 86.92 82.9094 86.12C82.256 85.3067 81.736 84.38 81.3494 83.34C80.9494 84.4733 80.396 85.4733 79.6894 86.34C78.9827 87.1933 78.1094 87.8533 77.0694 88.32L75.6494 86.3C76.396 85.9533 77.0427 85.5133 77.5894 84.98C78.136 84.4333 78.5894 83.84 78.9494 83.2C79.3094 82.5467 79.576 81.8667 79.7494 81.16C79.9227 80.44 80.0094 79.7333 80.0094 79.04V78.4H76.2694V76.3H80.0094V73.74H82.6494V76.3H86.2894V78.4H82.6294V79.04ZM105.948 80.54C106.134 79.66 106.248 78.8867 106.288 78.22C106.341 77.54 106.374 76.9 106.388 76.3H96.2678V74.2H109.028V75.52C109.028 76.2133 109.008 76.9933 108.968 77.86C108.928 78.7133 108.788 79.6867 108.548 80.78L105.948 80.54ZM111.008 83.84H94.3878V81.74H100.548V78.32H103.188V81.74H111.008V83.84ZM108.868 85.42V91.74H106.228V87.5H96.1078V85.42H108.868ZM134.238 79.1H132.358V82.94H129.718V73.32H132.358V76.94H134.238V79.1ZM128.278 82.04C127.638 81.6933 127.111 81.26 126.698 80.74C126.298 80.22 125.984 79.62 125.758 78.94C125.531 79.62 125.224 80.2467 124.838 80.82C124.451 81.3933 123.938 81.8733 123.298 82.26C122.658 81.8733 122.144 81.3867 121.758 80.8C121.371 80.2133 121.064 79.5733 120.838 78.88C120.598 79.56 120.271 80.1733 119.858 80.72C119.458 81.2533 118.938 81.6933 118.298 82.04L116.938 80.2C117.458 79.9067 117.884 79.5533 118.218 79.14C118.564 78.7133 118.838 78.2533 119.038 77.76C119.251 77.2667 119.398 76.7533 119.478 76.22C119.558 75.6733 119.598 75.1333 119.598 74.6V73.96H122.078V74.6C122.078 75.36 122.158 76.1467 122.317 76.96C122.491 77.7733 122.818 78.52 123.298 79.2C123.791 78.52 124.118 77.7733 124.278 76.96C124.438 76.1467 124.518 75.36 124.518 74.6V73.96H126.978V74.6C126.978 75.1467 127.018 75.6933 127.098 76.24C127.191 76.7867 127.338 77.3067 127.538 77.8C127.738 78.28 128.004 78.7267 128.338 79.14C128.684 79.5533 129.118 79.9067 129.638 80.2L128.278 82.04ZM132.858 83.82V85.78H119.638V83.82H124.918V82.34H127.558V83.82H132.858ZM126.238 86.4C129.958 86.4 131.818 87.2867 131.818 89.06C131.818 90.8333 129.958 91.72 126.238 91.72C124.384 91.72 122.991 91.4933 122.058 91.04C121.124 90.6 120.658 89.94 120.658 89.06C120.658 88.18 121.124 87.52 122.058 87.08C122.991 86.6267 124.384 86.4 126.238 86.4ZM126.238 89.9C127.278 89.9 128.031 89.8333 128.498 89.7C128.978 89.5667 129.218 89.3533 129.218 89.06C129.218 88.7667 128.978 88.5533 128.498 88.42C128.031 88.2867 127.278 88.22 126.238 88.22C125.198 88.22 124.438 88.2867 123.958 88.42C123.491 88.5533 123.258 88.7667 123.258 89.06C123.258 89.3533 123.491 89.5667 123.958 89.7C124.438 89.8333 125.198 89.9 126.238 89.9ZM148.336 86.54V73.32H150.996V86.54H148.336ZM145.976 79.16C145.976 79.8267 145.849 80.4467 145.596 81.02C145.343 81.5933 144.989 82.0867 144.536 82.5C144.083 82.9133 143.549 83.24 142.936 83.48C142.336 83.7067 141.683 83.82 140.976 83.82C140.269 83.82 139.609 83.7067 138.996 83.48C138.383 83.24 137.849 82.9133 137.396 82.5C136.956 82.0867 136.603 81.5933 136.336 81.02C136.083 80.4467 135.956 79.8267 135.956 79.16C135.956 78.48 136.083 77.8533 136.336 77.28C136.603 76.7067 136.956 76.2133 137.396 75.8C137.849 75.3867 138.383 75.0667 138.996 74.84C139.609 74.6 140.269 74.48 140.976 74.48C141.683 74.48 142.336 74.6 142.936 74.84C143.549 75.0667 144.083 75.3867 144.536 75.8C144.989 76.2133 145.343 76.7067 145.596 77.28C145.849 77.8533 145.976 78.48 145.976 79.16ZM138.536 79.16C138.536 79.92 138.769 80.5067 139.236 80.92C139.716 81.3333 140.296 81.54 140.976 81.54C141.669 81.54 142.243 81.3333 142.696 80.92C143.163 80.5067 143.396 79.92 143.396 79.16C143.396 78.4 143.163 77.8133 142.696 77.4C142.243 76.9733 141.669 76.76 140.976 76.76C140.296 76.76 139.716 76.9733 139.236 77.4C138.769 77.8133 138.536 78.4 138.536 79.16ZM151.456 91.4H138.736V85.24H141.376V89.3H151.456V91.4ZM173.126 79.54V83.82H170.486V73.3H173.126V77.38H175.566V79.54H173.126ZM159.166 82.96V74.28H161.766V76.56H165.386V74.28H167.986V82.96H159.166ZM161.766 78.58V80.88H165.386V78.58H161.766ZM173.126 84.68V91.5H161.146V84.68H173.126ZM170.546 89.44V86.76H163.746V89.44H170.546ZM178.324 77V74.9H192.324V77H189.824V82.52H192.264V84.62H178.424V82.52H180.824V77H178.324ZM183.444 77V82.52H187.204V77H183.444ZM193.704 89.58H177.024V87.44H193.704V89.58ZM210.783 91.76H208.143V73.28H210.783V91.76ZM201.343 74.52C202.063 74.52 202.729 74.6333 203.343 74.86C203.969 75.0867 204.509 75.4 204.963 75.8C205.416 76.2 205.769 76.68 206.023 77.24C206.289 77.7867 206.423 78.3933 206.423 79.06C206.423 79.7133 206.289 80.32 206.023 80.88C205.769 81.44 205.416 81.92 204.963 82.32C204.509 82.72 203.969 83.0333 203.343 83.26C202.729 83.4867 202.063 83.6 201.343 83.6C200.623 83.6 199.949 83.4867 199.323 83.26C198.709 83.0333 198.176 82.72 197.723 82.32C197.283 81.92 196.929 81.44 196.663 80.88C196.409 80.32 196.283 79.7133 196.283 79.06C196.283 78.3933 196.409 77.7867 196.663 77.24C196.929 76.68 197.283 76.2 197.723 75.8C198.176 75.4 198.709 75.0867 199.323 74.86C199.949 74.6333 200.623 74.52 201.343 74.52ZM201.343 76.78C200.623 76.78 200.023 76.98 199.543 77.38C199.076 77.78 198.843 78.34 198.843 79.06C198.843 79.78 199.076 80.34 199.543 80.74C200.023 81.14 200.623 81.34 201.343 81.34C202.063 81.34 202.656 81.14 203.123 80.74C203.603 80.34 203.843 79.78 203.843 79.06C203.843 78.34 203.603 77.78 203.123 77.38C202.656 76.98 202.063 76.78 201.343 76.78ZM195.503 85.88C196.316 85.88 197.196 85.88 198.143 85.88C199.089 85.8667 200.069 85.84 201.083 85.8C202.096 85.76 203.116 85.7 204.143 85.62C205.169 85.54 206.169 85.4267 207.143 85.28L207.303 87.18C206.316 87.38 205.309 87.54 204.283 87.66C203.269 87.7667 202.269 87.8467 201.283 87.9C200.296 87.9533 199.343 87.9867 198.423 88C197.503 88.0133 196.643 88.02 195.843 88.02L195.503 85.88ZM233.612 91.76H230.972V73.28H233.612V91.76ZM223.712 74.58C224.406 74.58 225.046 74.7333 225.632 75.04C226.232 75.3467 226.746 75.7867 227.172 76.36C227.599 76.92 227.932 77.6067 228.172 78.42C228.426 79.22 228.552 80.1267 228.552 81.14C228.552 82.1533 228.426 83.0667 228.172 83.88C227.932 84.6933 227.599 85.3867 227.172 85.96C226.746 86.5333 226.232 86.9733 225.632 87.28C225.046 87.5867 224.406 87.74 223.712 87.74C223.019 87.74 222.372 87.5867 221.772 87.28C221.186 86.9733 220.679 86.5333 220.252 85.96C219.826 85.3867 219.486 84.6933 219.232 83.88C218.992 83.0667 218.872 82.1533 218.872 81.14C218.872 80.1267 218.992 79.22 219.232 78.42C219.486 77.6067 219.826 76.92 220.252 76.36C220.679 75.7867 221.186 75.3467 221.772 75.04C222.372 74.7333 223.019 74.58 223.712 74.58ZM223.712 76.96C223.032 76.96 222.479 77.3133 222.052 78.02C221.626 78.7267 221.412 79.7667 221.412 81.14C221.412 82.5133 221.626 83.56 222.052 84.28C222.479 84.9867 223.032 85.34 223.712 85.34C224.392 85.34 224.946 84.9867 225.372 84.28C225.799 83.56 226.012 82.5133 226.012 81.14C226.012 79.7667 225.799 78.7267 225.372 78.02C224.946 77.3133 224.392 76.96 223.712 76.96ZM251.171 82.98H253.711V85.14H251.171V91.72H248.531V73.3H251.171V77.6H253.711V79.76H251.171V82.98ZM241.691 74.58C242.384 74.58 243.024 74.7333 243.611 75.04C244.211 75.3467 244.724 75.7867 245.151 76.36C245.577 76.92 245.911 77.6067 246.151 78.42C246.404 79.22 246.531 80.1267 246.531 81.14C246.531 82.1533 246.404 83.0667 246.151 83.88C245.911 84.6933 245.577 85.3867 245.151 85.96C244.724 86.5333 244.211 86.9733 243.611 87.28C243.024 87.5867 242.384 87.74 241.691 87.74C240.997 87.74 240.351 87.5867 239.751 87.28C239.164 86.9733 238.651 86.5333 238.211 85.96C237.784 85.3867 237.451 84.6933 237.211 83.88C236.971 83.0667 236.851 82.1533 236.851 81.14C236.851 80.1267 236.971 79.22 237.211 78.42C237.451 77.6067 237.784 76.92 238.211 76.36C238.651 75.7867 239.164 75.3467 239.751 75.04C240.351 74.7333 240.997 74.58 241.691 74.58ZM241.691 85.34C242.371 85.34 242.924 84.9867 243.351 84.28C243.777 83.56 243.991 82.5133 243.991 81.14C243.991 79.7667 243.777 78.7267 243.351 78.02C242.924 77.3133 242.371 76.96 241.691 76.96C240.997 76.96 240.437 77.3133 240.011 78.02C239.597 78.7267 239.391 79.7667 239.391 81.14C239.391 82.5133 239.597 83.56 240.011 84.28C240.437 84.9867 240.997 85.34 241.691 85.34ZM270.489 91.7H267.829V73.28H270.489V91.7ZM265.009 75.2C265.009 76.6 264.876 77.94 264.609 79.22C264.342 80.5 263.882 81.7067 263.229 82.84C262.589 83.96 261.729 85.0067 260.649 85.98C259.569 86.94 258.209 87.8133 256.569 88.6L255.189 86.52C256.362 85.96 257.376 85.36 258.229 84.72C259.082 84.0667 259.796 83.36 260.369 82.6C260.942 81.84 261.382 81.02 261.689 80.14C262.009 79.26 262.216 78.3133 262.309 77.3H256.169V75.2H265.009Z" fill="black"/>
</g>
<defs>
<clipPath id="clip0_429_654">
<rect width="301" height="159" fill="white"/>
</clipPath>
</defs>
</svg>
