<svg width="290" viewBox="0 0 290 144" fill="none" xmlns="http://www.w3.org/2000/svg">
<path d="M65.0261 49.4123C65.7194 49.4123 66.3528 49.519 66.9261 49.7323C67.5128 49.9456 68.0128 50.2456 68.4261 50.6323C68.8394 51.0056 69.1594 51.459 69.3861 51.9923C69.6261 52.5256 69.7461 53.1123 69.7461 53.7523C69.7328 54.2723 69.6328 54.779 69.4461 55.2723C69.2728 55.7523 69.0461 56.2123 68.7661 56.6523C68.4861 57.0923 68.1661 57.519 67.8061 57.9323C67.4594 58.3456 67.0994 58.7456 66.7261 59.1323L63.6261 62.2523C63.8928 62.1856 64.1461 62.1456 64.3861 62.1323C64.6394 62.1056 64.8794 62.0923 65.1061 62.0923H69.9061V64.6123H59.4861V63.0123L64.5061 58.0723C65.2661 57.3123 65.8661 56.6056 66.3061 55.9523C66.7461 55.299 66.9661 54.5856 66.9661 53.8123C66.9661 53.119 66.7728 52.599 66.3861 52.2523C66.0128 51.8923 65.4994 51.7123 64.8461 51.7123C64.2861 51.7123 63.8128 51.879 63.4261 52.2123C63.0394 52.5323 62.7661 52.9123 62.6061 53.3523C62.5528 53.499 62.5128 53.6523 62.4861 53.8123C62.4728 53.9723 62.4594 54.1523 62.4461 54.3523L59.8261 53.9123C60.0661 52.379 60.6461 51.2456 61.5661 50.5123C62.4994 49.779 63.6528 49.4123 65.0261 49.4123ZM82.1602 57.1923C82.1602 58.5123 82.0202 59.659 81.7402 60.6323C81.4602 61.5923 81.0668 62.3923 80.5602 63.0323C80.0668 63.659 79.4802 64.1256 78.8002 64.4323C78.1202 64.739 77.3802 64.8923 76.5802 64.8923C75.8068 64.8923 75.0802 64.739 74.4002 64.4323C73.7335 64.1256 73.1468 63.659 72.6402 63.0323C72.1468 62.3923 71.7602 61.5923 71.4802 60.6323C71.2002 59.659 71.0602 58.5123 71.0602 57.1923C71.0602 55.859 71.2002 54.7123 71.4802 53.7523C71.7602 52.779 72.1468 51.979 72.6402 51.3523C73.1468 50.7123 73.7335 50.239 74.4002 49.9323C75.0802 49.6256 75.8068 49.4723 76.5802 49.4723C77.3802 49.4723 78.1202 49.6256 78.8002 49.9323C79.4802 50.239 80.0668 50.7123 80.5602 51.3523C81.0668 51.979 81.4602 52.779 81.7402 53.7523C82.0202 54.7123 82.1602 55.859 82.1602 57.1923ZM79.3602 57.1923C79.3602 56.1256 79.2802 55.2456 79.1202 54.5523C78.9735 53.8456 78.7735 53.2923 78.5202 52.8923C78.2668 52.479 77.9668 52.1923 77.6202 52.0323C77.2868 51.859 76.9402 51.7723 76.5802 51.7723C76.2335 51.7723 75.8935 51.859 75.5602 52.0323C75.2402 52.1923 74.9535 52.479 74.7002 52.8923C74.4468 53.2923 74.2402 53.8456 74.0802 54.5523C73.9335 55.2456 73.8602 56.1256 73.8602 57.1923C73.8602 58.2456 73.9335 59.119 74.0802 59.8123C74.2402 60.5056 74.4468 61.059 74.7002 61.4723C74.9535 61.8856 75.2402 62.1723 75.5602 62.3323C75.8935 62.4923 76.2335 62.5723 76.5802 62.5723C76.9402 62.5723 77.2868 62.4923 77.6202 62.3323C77.9668 62.1723 78.2668 61.8856 78.5202 61.4723C78.7735 61.059 78.9735 60.5056 79.1202 59.8123C79.2802 59.119 79.3602 58.2456 79.3602 57.1923ZM94.0742 57.1923C94.0742 58.5123 93.9342 59.659 93.6542 60.6323C93.3742 61.5923 92.9809 62.3923 92.4742 63.0323C91.9809 63.659 91.3942 64.1256 90.7142 64.4323C90.0342 64.739 89.2942 64.8923 88.4942 64.8923C87.7209 64.8923 86.9942 64.739 86.3142 64.4323C85.6476 64.1256 85.0609 63.659 84.5542 63.0323C84.0609 62.3923 83.6742 61.5923 83.3942 60.6323C83.1142 59.659 82.9742 58.5123 82.9742 57.1923C82.9742 55.859 83.1142 54.7123 83.3942 53.7523C83.6742 52.779 84.0609 51.979 84.5542 51.3523C85.0609 50.7123 85.6476 50.239 86.3142 49.9323C86.9942 49.6256 87.7209 49.4723 88.4942 49.4723C89.2942 49.4723 90.0342 49.6256 90.7142 49.9323C91.3942 50.239 91.9809 50.7123 92.4742 51.3523C92.9809 51.979 93.3742 52.779 93.6542 53.7523C93.9342 54.7123 94.0742 55.859 94.0742 57.1923ZM91.2742 57.1923C91.2742 56.1256 91.1942 55.2456 91.0342 54.5523C90.8876 53.8456 90.6876 53.2923 90.4342 52.8923C90.1809 52.479 89.8809 52.1923 89.5342 52.0323C89.2009 51.859 88.8542 51.7723 88.4942 51.7723C88.1476 51.7723 87.8076 51.859 87.4742 52.0323C87.1542 52.1923 86.8676 52.479 86.6142 52.8923C86.3609 53.2923 86.1542 53.8456 85.9942 54.5523C85.8476 55.2456 85.7742 56.1256 85.7742 57.1923C85.7742 58.2456 85.8476 59.119 85.9942 59.8123C86.1542 60.5056 86.3609 61.059 86.6142 61.4723C86.8676 61.8856 87.1542 62.1723 87.4742 62.3323C87.8076 62.4923 88.1476 62.5723 88.4942 62.5723C88.8542 62.5723 89.2009 62.4923 89.5342 62.3323C89.8809 62.1723 90.1809 61.8856 90.4342 61.4723C90.6876 61.059 90.8876 60.5056 91.0342 59.8123C91.1942 59.119 91.2742 58.2456 91.2742 57.1923ZM101.328 55.3123C101.915 55.3123 102.475 55.4056 103.008 55.5923C103.555 55.779 104.035 56.0656 104.448 56.4523C104.862 56.8256 105.195 57.299 105.448 57.8723C105.702 58.4456 105.828 59.1123 105.828 59.8723C105.828 60.579 105.695 61.2456 105.428 61.8723C105.175 62.4856 104.815 63.0256 104.348 63.4923C103.882 63.959 103.315 64.3256 102.648 64.5923C101.982 64.859 101.248 64.9923 100.448 64.9923C99.6349 64.9923 98.9016 64.8656 98.2483 64.6123C97.6083 64.3456 97.0616 63.979 96.6083 63.5123C96.1549 63.0456 95.8016 62.479 95.5483 61.8123C95.3083 61.1456 95.1883 60.4123 95.1883 59.6123C95.1883 58.9323 95.3416 58.2123 95.6483 57.4523C95.9549 56.6923 96.3949 55.9123 96.9683 55.1123L101.028 49.6323H104.388C103.628 50.5656 102.888 51.4923 102.168 52.4123C101.448 53.319 100.722 54.239 99.9883 55.1723L99.4883 55.6523L99.7083 55.5523C100.175 55.3923 100.715 55.3123 101.328 55.3123ZM97.8283 60.0123C97.8283 60.8656 98.0616 61.5323 98.5283 62.0123C99.0083 62.4923 99.6349 62.7323 100.408 62.7323C100.795 62.7323 101.148 62.6723 101.468 62.5523C101.802 62.419 102.095 62.2323 102.348 61.9923C102.602 61.7523 102.795 61.4656 102.928 61.1323C103.075 60.799 103.148 60.4323 103.148 60.0323C103.148 59.1523 102.895 58.4923 102.388 58.0523C101.895 57.6123 101.242 57.3923 100.428 57.3923C99.6283 57.3923 98.9949 57.6323 98.5283 58.1123C98.0616 58.579 97.8283 59.2123 97.8283 60.0123ZM115.562 55.4723V53.3923H120.022V52.0323H115.562V49.9523H120.022V47.9123H122.662V61.4523H120.022V55.4723H115.562ZM117.662 58.4923C116.302 58.7456 114.982 58.9123 113.702 58.9923C112.436 59.059 111.116 59.0923 109.742 59.0923H108.262V49.0723H110.882V56.9323C112.002 56.9056 113.082 56.8523 114.122 56.7723C115.176 56.6923 116.269 56.5523 117.402 56.3523L117.662 58.4923ZM123.082 66.0123H110.522V60.2523H113.162V63.9123H123.082V66.0123ZM132.092 56.7723V48.6123H134.712V50.7123H142.292V48.6123H144.892V56.7723H132.092ZM134.712 52.7723V54.6723H142.292V52.7723H134.712ZM139.792 60.6123V66.3523H137.152V60.6123H130.192V58.5123H146.872V60.6123H139.792ZM164.05 66.3723H161.41V56.5123H158.25V54.3923H161.41V47.8923H164.05V66.3723ZM152.05 60.0723C153.29 60.059 154.444 60.0256 155.51 59.9723C156.577 59.9056 157.677 59.779 158.81 59.5923L159.05 61.7123C158.384 61.819 157.73 61.9056 157.09 61.9723C156.45 62.0256 155.804 62.0723 155.15 62.1123C154.497 62.139 153.824 62.159 153.13 62.1723C152.437 62.1856 151.704 62.1923 150.93 62.1923H149.43V49.4523H157.95V51.5723H152.05V54.5723H157.33V56.6323H152.05V60.0723ZM186.78 66.3723H184.14V47.8923H186.78V66.3723ZM178.66 52.0123C178.66 52.8656 178.753 53.7056 178.94 54.5323C179.127 55.359 179.407 56.1323 179.78 56.8523C180.153 57.5723 180.627 58.219 181.2 58.7923C181.787 59.3523 182.467 59.799 183.24 60.1323L181.74 62.2723C180.66 61.7923 179.767 61.119 179.06 60.2523C178.353 59.3723 177.793 58.3656 177.38 57.2323C176.967 58.4856 176.393 59.5856 175.66 60.5323C174.927 61.4656 173.993 62.1923 172.86 62.7123L171.28 60.5323C172.08 60.1856 172.78 59.719 173.38 59.1323C173.98 58.5323 174.473 57.859 174.86 57.1123C175.247 56.3523 175.533 55.539 175.72 54.6723C175.92 53.7923 176.02 52.9056 176.02 52.0123V49.3323H178.66V52.0123ZM204.419 54.5323V59.0123H201.779V47.9123H204.419V52.3523H206.859V54.5323H204.419ZM199.579 58.3723C198.579 58.0523 197.732 57.5856 197.039 56.9723C196.345 56.3456 195.799 55.6256 195.399 54.8123C194.985 55.7056 194.419 56.4923 193.699 57.1723C192.992 57.8523 192.099 58.3656 191.019 58.7123L189.639 56.6523C190.385 56.4123 191.032 56.099 191.579 55.7123C192.125 55.3123 192.572 54.8656 192.919 54.3723C193.279 53.879 193.545 53.3523 193.719 52.7923C193.892 52.2323 193.985 51.6656 193.999 51.0923H190.339V48.9923H200.299V51.0923H196.699C196.712 51.6256 196.805 52.159 196.979 52.6923C197.152 53.2123 197.405 53.7056 197.739 54.1723C198.085 54.6256 198.519 55.039 199.039 55.4123C199.572 55.7856 200.199 56.0923 200.919 56.3323L199.579 58.3723ZM204.419 59.8323V66.3523H201.779V61.9323H192.119V59.8323H204.419ZM220.997 61.7723V47.8923H223.657V61.7723H220.997ZM220.077 59.0523C218.17 59.319 216.284 59.4923 214.417 59.5723C212.564 59.6523 210.67 59.6923 208.737 59.6923L208.397 57.5923H210.677C211.464 57.5923 212.264 57.579 213.077 57.5523V55.6523H209.917V49.0123H218.817V51.1123H212.557V53.5523H218.937V55.6523H215.717V57.4523C216.437 57.4256 217.144 57.3923 217.837 57.3523C218.53 57.299 219.217 57.239 219.897 57.1723L220.077 59.0523ZM224.137 66.0123H211.177V60.7723H213.837V63.9123H224.137V66.0123ZM74.1061 79.1523V83.4323H71.4661V72.9123H74.1061V76.9923H76.5461V79.1523H74.1061ZM60.1461 82.5723V73.8923H62.7461V76.1723H66.3661V73.8923H68.9661V82.5723H60.1461ZM62.7461 78.1923V80.4923H66.3661V78.1923H62.7461ZM74.1061 84.2923V91.1123H62.1261V84.2923H74.1061ZM71.5261 89.0523V86.3723H64.7261V89.0523H71.5261ZM79.3045 76.6123V74.5123H93.3045V76.6123H90.8045V82.1323H93.2445V84.2323H79.4045V82.1323H81.8045V76.6123H79.3045ZM84.4245 76.6123V82.1323H88.1845V76.6123H84.4245ZM94.6845 89.1923H78.0045V87.0523H94.6845V89.1923ZM111.763 91.3723H109.123V72.8923H111.763V91.3723ZM102.323 74.1323C103.043 74.1323 103.71 74.2456 104.323 74.4723C104.95 74.699 105.49 75.0123 105.943 75.4123C106.396 75.8123 106.75 76.2923 107.003 76.8523C107.27 77.399 107.403 78.0056 107.403 78.6723C107.403 79.3256 107.27 79.9323 107.003 80.4923C106.75 81.0523 106.396 81.5323 105.943 81.9323C105.49 82.3323 104.95 82.6456 104.323 82.8723C103.71 83.099 103.043 83.2123 102.323 83.2123C101.603 83.2123 100.93 83.099 100.303 82.8723C99.6896 82.6456 99.1563 82.3323 98.703 81.9323C98.263 81.5323 97.9096 81.0523 97.643 80.4923C97.3896 79.9323 97.263 79.3256 97.263 78.6723C97.263 78.0056 97.3896 77.399 97.643 76.8523C97.9096 76.2923 98.263 75.8123 98.703 75.4123C99.1563 75.0123 99.6896 74.699 100.303 74.4723C100.93 74.2456 101.603 74.1323 102.323 74.1323ZM102.323 76.3923C101.603 76.3923 101.003 76.5923 100.523 76.9923C100.056 77.3923 99.823 77.9523 99.823 78.6723C99.823 79.3923 100.056 79.9523 100.523 80.3523C101.003 80.7523 101.603 80.9523 102.323 80.9523C103.043 80.9523 103.636 80.7523 104.103 80.3523C104.583 79.9523 104.823 79.3923 104.823 78.6723C104.823 77.9523 104.583 77.3923 104.103 76.9923C103.636 76.5923 103.043 76.3923 102.323 76.3923ZM96.483 85.4923C97.2963 85.4923 98.1763 85.4923 99.123 85.4923C100.07 85.479 101.05 85.4523 102.063 85.4123C103.076 85.3723 104.096 85.3123 105.123 85.2323C106.15 85.1523 107.15 85.039 108.123 84.8923L108.283 86.7923C107.296 86.9923 106.29 87.1523 105.263 87.2723C104.25 87.379 103.25 87.459 102.263 87.5123C101.276 87.5656 100.323 87.599 99.403 87.6123C98.483 87.6256 97.623 87.6323 96.823 87.6323L96.483 85.4923ZM134.593 91.3723H131.953V72.8923H134.593V91.3723ZM124.693 74.1923C125.386 74.1923 126.026 74.3456 126.613 74.6523C127.213 74.959 127.726 75.399 128.153 75.9723C128.579 76.5323 128.913 77.219 129.153 78.0323C129.406 78.8323 129.533 79.739 129.533 80.7523C129.533 81.7656 129.406 82.679 129.153 83.4923C128.913 84.3056 128.579 84.999 128.153 85.5723C127.726 86.1456 127.213 86.5856 126.613 86.8923C126.026 87.199 125.386 87.3523 124.693 87.3523C123.999 87.3523 123.353 87.199 122.753 86.8923C122.166 86.5856 121.659 86.1456 121.233 85.5723C120.806 84.999 120.466 84.3056 120.213 83.4923C119.973 82.679 119.853 81.7656 119.853 80.7523C119.853 79.739 119.973 78.8323 120.213 78.0323C120.466 77.219 120.806 76.5323 121.233 75.9723C121.659 75.399 122.166 74.959 122.753 74.6523C123.353 74.3456 123.999 74.1923 124.693 74.1923ZM124.693 76.5723C124.013 76.5723 123.459 76.9256 123.033 77.6323C122.606 78.339 122.393 79.379 122.393 80.7523C122.393 82.1256 122.606 83.1723 123.033 83.8923C123.459 84.599 124.013 84.9523 124.693 84.9523C125.373 84.9523 125.926 84.599 126.353 83.8923C126.779 83.1723 126.993 82.1256 126.993 80.7523C126.993 79.379 126.779 78.339 126.353 77.6323C125.926 76.9256 125.373 76.5723 124.693 76.5723ZM152.151 82.5923H154.691V84.7523H152.151V91.3323H149.511V72.9123H152.151V77.2123H154.691V79.3723H152.151V82.5923ZM142.671 74.1923C143.364 74.1923 144.004 74.3456 144.591 74.6523C145.191 74.959 145.704 75.399 146.131 75.9723C146.558 76.5323 146.891 77.219 147.131 78.0323C147.384 78.8323 147.511 79.739 147.511 80.7523C147.511 81.7656 147.384 82.679 147.131 83.4923C146.891 84.3056 146.558 84.999 146.131 85.5723C145.704 86.1456 145.191 86.5856 144.591 86.8923C144.004 87.199 143.364 87.3523 142.671 87.3523C141.978 87.3523 141.331 87.199 140.731 86.8923C140.144 86.5856 139.631 86.1456 139.191 85.5723C138.764 84.999 138.431 84.3056 138.191 83.4923C137.951 82.679 137.831 81.7656 137.831 80.7523C137.831 79.739 137.951 78.8323 138.191 78.0323C138.431 77.219 138.764 76.5323 139.191 75.9723C139.631 75.399 140.144 74.959 140.731 74.6523C141.331 74.3456 141.978 74.1923 142.671 74.1923ZM142.671 84.9523C143.351 84.9523 143.904 84.599 144.331 83.8923C144.758 83.1723 144.971 82.1256 144.971 80.7523C144.971 79.379 144.758 78.339 144.331 77.6323C143.904 76.9256 143.351 76.5723 142.671 76.5723C141.978 76.5723 141.418 76.9256 140.991 77.6323C140.578 78.339 140.371 79.379 140.371 80.7523C140.371 82.1256 140.578 83.1723 140.991 83.8923C141.418 84.599 141.978 84.9523 142.671 84.9523ZM171.47 91.3123H168.81V72.8923H171.47V91.3123ZM165.99 74.8123C165.99 76.2123 165.856 77.5523 165.59 78.8323C165.323 80.1123 164.863 81.319 164.21 82.4523C163.57 83.5723 162.71 84.619 161.63 85.5923C160.55 86.5523 159.19 87.4256 157.55 88.2123L156.17 86.1323C157.343 85.5723 158.356 84.9723 159.21 84.3323C160.063 83.679 160.776 82.9723 161.35 82.2123C161.923 81.4523 162.363 80.6323 162.67 79.7523C162.99 78.8723 163.196 77.9256 163.29 76.9123H157.15V74.8123H165.99ZM181.508 84.0523C181.041 84.0523 180.635 83.959 180.288 83.7723C179.941 83.5856 179.615 83.3856 179.308 83.1723C179.015 82.9456 178.728 82.7456 178.448 82.5723C178.181 82.3856 177.888 82.2923 177.568 82.2923C176.941 82.2923 176.388 82.7323 175.908 83.6123L174.368 82.4523C174.888 81.6123 175.421 81.0256 175.968 80.6923C176.515 80.359 177.068 80.1923 177.628 80.1923C178.081 80.1923 178.481 80.2856 178.828 80.4723C179.188 80.6456 179.515 80.8456 179.808 81.0723C180.115 81.2856 180.401 81.4856 180.668 81.6723C180.948 81.859 181.241 81.9523 181.548 81.9523C182.175 81.9523 182.728 81.519 183.208 80.6523L184.748 81.8123C184.241 82.6256 183.715 83.2056 183.168 83.5523C182.621 83.8856 182.068 84.0523 181.508 84.0523ZM193.285 84.0523C192.819 84.0523 192.412 83.959 192.065 83.7723C191.719 83.5856 191.392 83.3856 191.085 83.1723C190.792 82.9456 190.505 82.7456 190.225 82.5723C189.959 82.3856 189.665 82.2923 189.345 82.2923C188.719 82.2923 188.165 82.7323 187.685 83.6123L186.145 82.4523C186.665 81.6123 187.199 81.0256 187.745 80.6923C188.292 80.359 188.845 80.1923 189.405 80.1923C189.859 80.1923 190.259 80.2856 190.605 80.4723C190.965 80.6456 191.292 80.8456 191.585 81.0723C191.892 81.2856 192.179 81.4856 192.445 81.6723C192.725 81.859 193.019 81.9523 193.325 81.9523C193.952 81.9523 194.505 81.519 194.985 80.6523L196.525 81.8123C196.019 82.6256 195.492 83.2056 194.945 83.5523C194.399 83.8856 193.845 84.0523 193.285 84.0523ZM201.903 92.8523C200.956 91.3056 200.223 89.699 199.703 88.0323C199.183 86.3523 198.923 84.5056 198.923 82.4923C198.923 80.4923 199.183 78.659 199.703 76.9923C200.223 75.3123 200.956 73.699 201.903 72.1523L203.743 72.9323C202.903 74.4256 202.283 75.9656 201.883 77.5523C201.496 79.1256 201.303 80.7723 201.303 82.4923C201.303 84.239 201.496 85.899 201.883 87.4723C202.283 89.0456 202.903 90.579 203.743 92.0723L201.903 92.8523ZM208.561 85.4123C208.455 84.5456 208.448 83.8256 208.541 83.2523C208.648 82.679 208.808 82.199 209.021 81.8123C209.235 81.4123 209.481 81.0856 209.761 80.8323C210.055 80.5656 210.328 80.3123 210.581 80.0723C210.835 79.819 211.048 79.5523 211.221 79.2723C211.395 78.979 211.481 78.619 211.481 78.1923C211.481 77.6723 211.355 77.239 211.101 76.8923C210.848 76.5323 210.441 76.3523 209.881 76.3523C209.321 76.3523 208.861 76.5456 208.501 76.9323C208.141 77.319 207.935 77.9123 207.881 78.7123H205.381C205.435 77.8323 205.608 77.0923 205.901 76.4923C206.208 75.8923 206.575 75.4123 207.001 75.0523C207.441 74.6923 207.921 74.4456 208.441 74.3123C208.961 74.1656 209.468 74.1056 209.961 74.1323C210.548 74.159 211.095 74.2656 211.601 74.4523C212.121 74.6256 212.568 74.879 212.941 75.2123C213.315 75.5323 213.608 75.9256 213.821 76.3923C214.035 76.859 214.141 77.3923 214.141 77.9923C214.141 78.7123 214.041 79.2923 213.841 79.7323C213.655 80.1723 213.421 80.539 213.141 80.8323C212.861 81.1256 212.561 81.3923 212.241 81.6323C211.935 81.859 211.655 82.1256 211.401 82.4323C211.161 82.739 210.981 83.1256 210.861 83.5923C210.741 84.0456 210.728 84.6523 210.821 85.4123H208.561ZM208.221 89.8923V87.0523H211.141V89.8923H208.221ZM216.095 92.0723C216.935 90.579 217.548 89.0456 217.935 87.4723C218.335 85.899 218.535 84.239 218.535 82.4923C218.535 80.7723 218.335 79.1256 217.935 77.5523C217.548 75.9656 216.935 74.4256 216.095 72.9323L217.915 72.1523C218.875 73.699 219.615 75.3123 220.135 76.9923C220.655 78.659 220.915 80.4923 220.915 82.4923C220.915 84.5056 220.648 86.3523 220.115 88.0323C219.595 89.699 218.861 91.3056 217.915 92.8523L216.095 92.0723Z" fill="black"/>
<path d="M2.03336 66.3641C3.47159 27.8336 68.65 -0.883248 147.615 2.23119C226.571 5.33622 289.423 39.0963 287.975 77.6363C287.517 89.9811 280.5 101.319 268.591 110.926L279.236 139.041L246.45 124.325C219.93 136.557 182.985 143.369 142.394 141.769C63.4284 138.655 0.585986 104.895 2.02422 66.3641H2.03336Z" stroke="black" stroke-width="3" stroke-linecap="round" stroke-linejoin="round"/>
</svg>
